G04 #@! TF.GenerationSoftware,KiCad,Pcbnew,(2017-08-02 revision 9760937)-master*
G04 #@! TF.CreationDate,2018-04-02T13:15:28-05:00*
G04 #@! TF.ProjectId,beagle-wire,626561676C652D776972652E6B696361,rev?*
G04 #@! TF.SameCoordinates,Original*
G04 #@! TF.FileFunction,Paste,Top*
G04 #@! TF.FilePolarity,Positive*
%FSLAX46Y46*%
G04 Gerber Fmt 4.6, Leading zero omitted, Abs format (unit mm)*
G04 Created by KiCad (PCBNEW (2017-08-02 revision 9760937)-master) date Mon Apr  2 13:15:28 2018*
%MOMM*%
%LPD*%
G01*
G04 APERTURE LIST*
%ADD10R,0.250000X1.450000*%
%ADD11R,1.450000X0.250000*%
%ADD12R,0.900000X0.560000*%
%ADD13R,0.750000X0.800000*%
%ADD14R,0.800000X0.750000*%
%ADD15R,0.400000X0.600000*%
%ADD16R,3.800000X2.000000*%
%ADD17R,1.500000X2.000000*%
%ADD18R,1.700000X0.650000*%
%ADD19R,1.600000X2.000000*%
%ADD20R,1.060000X0.650000*%
%ADD21R,0.450000X1.450000*%
%ADD22R,0.797560X0.797560*%
%ADD23R,0.600000X0.400000*%
%ADD24R,0.800000X0.600000*%
%ADD25C,0.650000*%
%ADD26C,0.100000*%
%ADD27R,0.650000X0.850000*%
%ADD28R,1.520000X2.160000*%
G04 APERTURE END LIST*
D10*
X153558000Y-69995000D03*
X153058000Y-69995000D03*
X152558000Y-69995000D03*
X152058000Y-69995000D03*
X151558000Y-69995000D03*
X151058000Y-69995000D03*
X150558000Y-69995000D03*
X150058000Y-69995000D03*
X149558000Y-69995000D03*
X149058000Y-69995000D03*
X148558000Y-69995000D03*
X148058000Y-69995000D03*
X147558000Y-69995000D03*
X147058000Y-69995000D03*
X146558000Y-69995000D03*
X146058000Y-69995000D03*
X145558000Y-69995000D03*
X145058000Y-69995000D03*
X144558000Y-69995000D03*
X144058000Y-69995000D03*
X143558000Y-69995000D03*
X143058000Y-69995000D03*
X142558000Y-69995000D03*
X142058000Y-69995000D03*
X141558000Y-69995000D03*
X141058000Y-69995000D03*
X140558000Y-69995000D03*
X140058000Y-69995000D03*
X139558000Y-69995000D03*
X139058000Y-69995000D03*
X138558000Y-69995000D03*
X138058000Y-69995000D03*
X137558000Y-69995000D03*
X137058000Y-69995000D03*
X136558000Y-69995000D03*
X136058000Y-69995000D03*
D11*
X134258000Y-71795000D03*
X134258000Y-72295000D03*
X134258000Y-72795000D03*
X134258000Y-73295000D03*
X134258000Y-73795000D03*
X134258000Y-74295000D03*
X134258000Y-74795000D03*
X134258000Y-75295000D03*
X134258000Y-75795000D03*
X134258000Y-76295000D03*
X134258000Y-76795000D03*
X134258000Y-77295000D03*
X134258000Y-77795000D03*
X134258000Y-78295000D03*
X134258000Y-78795000D03*
X134258000Y-79295000D03*
X134258000Y-79795000D03*
X134258000Y-80295000D03*
X134258000Y-80795000D03*
X134258000Y-81295000D03*
X134258000Y-81795000D03*
X134258000Y-82295000D03*
X134258000Y-82795000D03*
X134258000Y-83295000D03*
X134258000Y-83795000D03*
X134258000Y-84295000D03*
X134258000Y-84795000D03*
X134258000Y-85295000D03*
X134258000Y-85795000D03*
X134258000Y-86295000D03*
X134258000Y-86795000D03*
X134258000Y-87295000D03*
X134258000Y-87795000D03*
X134258000Y-88295000D03*
X134258000Y-88795000D03*
X134258000Y-89295000D03*
D10*
X136058000Y-91095000D03*
X136558000Y-91095000D03*
X137058000Y-91095000D03*
X137558000Y-91095000D03*
X138058000Y-91095000D03*
X138558000Y-91095000D03*
X139058000Y-91095000D03*
X139558000Y-91095000D03*
X140058000Y-91095000D03*
X140558000Y-91095000D03*
X141058000Y-91095000D03*
X141558000Y-91095000D03*
X142058000Y-91095000D03*
X142558000Y-91095000D03*
X143058000Y-91095000D03*
X143558000Y-91095000D03*
X144058000Y-91095000D03*
X144558000Y-91095000D03*
X145058000Y-91095000D03*
X145558000Y-91095000D03*
X146058000Y-91095000D03*
X146558000Y-91095000D03*
X147058000Y-91095000D03*
X147558000Y-91095000D03*
X148058000Y-91095000D03*
X148558000Y-91095000D03*
X149058000Y-91095000D03*
X149558000Y-91095000D03*
X150058000Y-91095000D03*
X150558000Y-91095000D03*
X151058000Y-91095000D03*
X151558000Y-91095000D03*
X152058000Y-91095000D03*
X152558000Y-91095000D03*
X153058000Y-91095000D03*
X153558000Y-91095000D03*
D11*
X155358000Y-89295000D03*
X155358000Y-88795000D03*
X155358000Y-88295000D03*
X155358000Y-87795000D03*
X155358000Y-87295000D03*
X155358000Y-86795000D03*
X155358000Y-86295000D03*
X155358000Y-85795000D03*
X155358000Y-85295000D03*
X155358000Y-84795000D03*
X155358000Y-84295000D03*
X155358000Y-83795000D03*
X155358000Y-83295000D03*
X155358000Y-82795000D03*
X155358000Y-82295000D03*
X155358000Y-81795000D03*
X155358000Y-81295000D03*
X155358000Y-80795000D03*
X155358000Y-80295000D03*
X155358000Y-79795000D03*
X155358000Y-79295000D03*
X155358000Y-78795000D03*
X155358000Y-78295000D03*
X155358000Y-77795000D03*
X155358000Y-77295000D03*
X155358000Y-76795000D03*
X155358000Y-76295000D03*
X155358000Y-75795000D03*
X155358000Y-75295000D03*
X155358000Y-74795000D03*
X155358000Y-74295000D03*
X155358000Y-73795000D03*
X155358000Y-73295000D03*
X155358000Y-72795000D03*
X155358000Y-72295000D03*
X155358000Y-71795000D03*
D12*
X138963200Y-96690560D03*
X150023200Y-117490560D03*
X150023200Y-116690560D03*
X150023200Y-115890560D03*
X150023200Y-115090560D03*
X150023200Y-114290560D03*
X150023200Y-113490560D03*
X150023200Y-112690560D03*
X150023200Y-111890560D03*
X150023200Y-111090560D03*
X150023200Y-110290560D03*
X150023200Y-109490560D03*
X150023200Y-108690560D03*
X150023200Y-107890560D03*
X150023200Y-107090560D03*
X150023200Y-106290560D03*
X150023200Y-105490560D03*
X150023200Y-104690560D03*
X150023200Y-103890560D03*
X150023200Y-103090560D03*
X150023200Y-102290560D03*
X150023200Y-101490560D03*
X150023200Y-100690560D03*
X150023200Y-99890560D03*
X150023200Y-99090560D03*
X150023200Y-98290560D03*
X150023200Y-97490560D03*
X150023200Y-96690560D03*
X138963200Y-97490560D03*
X138963200Y-98290560D03*
X138963200Y-99090560D03*
X138963200Y-99890560D03*
X138963200Y-100690560D03*
X138963200Y-101490560D03*
X138963200Y-102290560D03*
X138963200Y-103090560D03*
X138963200Y-103890560D03*
X138963200Y-104690560D03*
X138963200Y-105490560D03*
X138963200Y-106290560D03*
X138963200Y-107090560D03*
X138963200Y-107890560D03*
X138963200Y-108690560D03*
X138963200Y-109490560D03*
X138963200Y-110290560D03*
X138963200Y-111090560D03*
X138963200Y-111890560D03*
X138963200Y-112690560D03*
X138963200Y-113490560D03*
X138963200Y-114290560D03*
X138963200Y-115090560D03*
X138963200Y-115890560D03*
X138963200Y-116690560D03*
X138963200Y-117490560D03*
D13*
X131490000Y-91530000D03*
X131490000Y-90030000D03*
D14*
X132550000Y-108080000D03*
X131050000Y-108080000D03*
D13*
X155770000Y-59780000D03*
X155770000Y-61280000D03*
X159040000Y-59720000D03*
X159040000Y-61220000D03*
X160640000Y-59720000D03*
X160640000Y-61220000D03*
X168950000Y-59090000D03*
X168950000Y-57590000D03*
X126401000Y-85715000D03*
X126401000Y-87215000D03*
D14*
X159008000Y-83630000D03*
X157508000Y-83630000D03*
X131310000Y-81070000D03*
X129810000Y-81070000D03*
X159020000Y-82106000D03*
X157520000Y-82106000D03*
X131300000Y-79480000D03*
X129800000Y-79480000D03*
X152240000Y-68150000D03*
X153740000Y-68150000D03*
X150790000Y-68140000D03*
X149290000Y-68140000D03*
D13*
X134900000Y-67350000D03*
X134900000Y-65850000D03*
X136610000Y-67360000D03*
X136610000Y-65860000D03*
D14*
X131320000Y-76500000D03*
X129820000Y-76500000D03*
X131320000Y-77960000D03*
X129820000Y-77960000D03*
X131386000Y-84256000D03*
X129886000Y-84256000D03*
X131386000Y-82732000D03*
X129886000Y-82732000D03*
D13*
X140150000Y-93150000D03*
X140150000Y-94650000D03*
X141690000Y-93150000D03*
X141690000Y-94650000D03*
X158648400Y-94285500D03*
X158648400Y-92785500D03*
X150142000Y-93118000D03*
X150142000Y-94618000D03*
D14*
X157508000Y-86678000D03*
X159008000Y-86678000D03*
X157508000Y-85154000D03*
X159008000Y-85154000D03*
X157300000Y-77260000D03*
X158800000Y-77260000D03*
X157300000Y-78870000D03*
X158800000Y-78870000D03*
D13*
X140004800Y-67370000D03*
X140004800Y-65870000D03*
X138310000Y-67360000D03*
X138310000Y-65860000D03*
D14*
X131370000Y-71600000D03*
X129870000Y-71600000D03*
X131360000Y-73110000D03*
X129860000Y-73110000D03*
D13*
X147094000Y-93130000D03*
X147094000Y-94630000D03*
X145570000Y-93130000D03*
X145570000Y-94630000D03*
D14*
X157540000Y-89242000D03*
X159040000Y-89242000D03*
X157540000Y-90766000D03*
X159040000Y-90766000D03*
X151859200Y-117504560D03*
X153359200Y-117504560D03*
X151859200Y-107090560D03*
X153359200Y-107090560D03*
X151680000Y-96960000D03*
X153180000Y-96960000D03*
X151859200Y-115726560D03*
X153359200Y-115726560D03*
X151859200Y-110900560D03*
X153359200Y-110900560D03*
D13*
X137500000Y-108690000D03*
X137500000Y-110190000D03*
X137430000Y-113570000D03*
X137430000Y-115070000D03*
D15*
X115450200Y-55194200D03*
X116350200Y-55194200D03*
X115450200Y-56769000D03*
X116350200Y-56769000D03*
X114960900Y-51303800D03*
X114060900Y-51303800D03*
X114960900Y-49652800D03*
X114060900Y-49652800D03*
X114960900Y-48001800D03*
X114060900Y-48001800D03*
X115011700Y-46350800D03*
X114111700Y-46350800D03*
X131590000Y-85710000D03*
X130690000Y-85710000D03*
X158230000Y-80630000D03*
X157330000Y-80630000D03*
X125750000Y-81070000D03*
X126650000Y-81070000D03*
D16*
X156970000Y-51100000D03*
D17*
X156970000Y-57400000D03*
X159270000Y-57400000D03*
X154670000Y-57400000D03*
D18*
X121833000Y-108377000D03*
X121833000Y-109647000D03*
X121833000Y-110917000D03*
X121833000Y-112187000D03*
X129133000Y-112187000D03*
X129133000Y-110917000D03*
X129133000Y-109647000D03*
X129133000Y-108377000D03*
D16*
X164270000Y-51120000D03*
D17*
X164270000Y-57420000D03*
X166570000Y-57420000D03*
X161970000Y-57420000D03*
D19*
X120650000Y-51595000D03*
X120650000Y-46195000D03*
X126238000Y-51595000D03*
X126238000Y-46195000D03*
X131815840Y-51595000D03*
X131815840Y-46195000D03*
D20*
X127910000Y-60380000D03*
X127910000Y-61330000D03*
X127910000Y-62280000D03*
X130110000Y-62280000D03*
X130110000Y-60380000D03*
X130110000Y-61330000D03*
D21*
X122688000Y-99616000D03*
X123338000Y-99616000D03*
X123988000Y-99616000D03*
X124638000Y-99616000D03*
X124638000Y-93716000D03*
X123988000Y-93716000D03*
X123338000Y-93716000D03*
X122688000Y-93716000D03*
D22*
X110980300Y-51303800D03*
X112478900Y-51303800D03*
X110980300Y-49652800D03*
X112478900Y-49652800D03*
X110980300Y-48001800D03*
X112478900Y-48001800D03*
X110980300Y-46350800D03*
X112478900Y-46350800D03*
D14*
X122530000Y-91090000D03*
X124030000Y-91090000D03*
X131850000Y-61470000D03*
X133350000Y-61470000D03*
D15*
X131770000Y-109680000D03*
X130870000Y-109680000D03*
D23*
X124030000Y-114880000D03*
X124030000Y-113980000D03*
X125430000Y-114870000D03*
X125430000Y-113970000D03*
D15*
X131770000Y-111080000D03*
X130870000Y-111080000D03*
X127030000Y-94184000D03*
X126130000Y-94184000D03*
X127030000Y-95708000D03*
X126130000Y-95708000D03*
X122301000Y-54451000D03*
X123201000Y-54451000D03*
X128397000Y-54451000D03*
X129297000Y-54451000D03*
X123201000Y-55848000D03*
X122301000Y-55848000D03*
X129297000Y-55848000D03*
X128397000Y-55848000D03*
D23*
X131080000Y-98370000D03*
X131080000Y-99270000D03*
X127490000Y-98390000D03*
X127490000Y-99290000D03*
X131546600Y-117964800D03*
X131546600Y-118864800D03*
X135166100Y-117990200D03*
X135166100Y-118890200D03*
X129679700Y-117990200D03*
X129679700Y-118890200D03*
X133375400Y-117977500D03*
X133375400Y-118877500D03*
X133380000Y-54320000D03*
X133380000Y-55220000D03*
D14*
X122001000Y-57372000D03*
X123501000Y-57372000D03*
X128097000Y-57372000D03*
X129597000Y-57372000D03*
D24*
X155803600Y-92774400D03*
X155803600Y-94474400D03*
D25*
X127762500Y-87249300D03*
D26*
G36*
X127437500Y-87674300D02*
X127437500Y-86824300D01*
X128087500Y-86824300D01*
X128087500Y-87674300D01*
X127437500Y-87674300D01*
X127437500Y-87674300D01*
G37*
D27*
X129412500Y-87249300D03*
X129412500Y-85699300D03*
X127762500Y-85699300D03*
D28*
X109766100Y-62326300D03*
X112306100Y-62326300D03*
X112306100Y-53726300D03*
X109766100Y-53726300D03*
D23*
X123990100Y-102469100D03*
X123990100Y-101569100D03*
M02*
