G04 #@! TF.GenerationSoftware,KiCad,Pcbnew,(2017-08-02 revision 9760937)-master*
G04 #@! TF.CreationDate,2018-04-02T13:15:28-05:00*
G04 #@! TF.ProjectId,beagle-wire,626561676C652D776972652E6B696361,rev?*
G04 #@! TF.SameCoordinates,Original*
G04 #@! TF.FileFunction,Copper,L3,Inr,Plane*
G04 #@! TF.FilePolarity,Positive*
%FSLAX46Y46*%
G04 Gerber Fmt 4.6, Leading zero omitted, Abs format (unit mm)*
G04 Created by KiCad (PCBNEW (2017-08-02 revision 9760937)-master) date Mon Apr  2 13:15:28 2018*
%MOMM*%
%LPD*%
G01*
G04 APERTURE LIST*
%ADD10R,1.727200X1.727200*%
%ADD11O,1.727200X1.727200*%
%ADD12C,1.524000*%
%ADD13C,0.600000*%
%ADD14C,0.254000*%
G04 APERTURE END LIST*
D10*
X170817120Y-113157000D03*
D11*
X173357120Y-113157000D03*
X170817120Y-110617000D03*
X173357120Y-110617000D03*
X170817120Y-108077000D03*
X173357120Y-108077000D03*
X170817120Y-105537000D03*
X173357120Y-105537000D03*
X170817120Y-102997000D03*
X173357120Y-102997000D03*
X170817120Y-100457000D03*
X173357120Y-100457000D03*
D10*
X116370100Y-62382400D03*
D11*
X118910100Y-62382400D03*
X116370100Y-64922400D03*
X118910100Y-64922400D03*
X116370100Y-67462400D03*
X118910100Y-67462400D03*
X116370100Y-70002400D03*
X118910100Y-70002400D03*
X116370100Y-72542400D03*
X118910100Y-72542400D03*
X116370100Y-75082400D03*
X118910100Y-75082400D03*
X116370100Y-77622400D03*
X118910100Y-77622400D03*
X116370100Y-80162400D03*
X118910100Y-80162400D03*
X116370100Y-82702400D03*
X118910100Y-82702400D03*
X116370100Y-85242400D03*
X118910100Y-85242400D03*
X116370100Y-87782400D03*
X118910100Y-87782400D03*
X116370100Y-90322400D03*
X118910100Y-90322400D03*
X116370100Y-92862400D03*
X118910100Y-92862400D03*
X116370100Y-95402400D03*
X118910100Y-95402400D03*
X116370100Y-97942400D03*
X118910100Y-97942400D03*
X116370100Y-100482400D03*
X118910100Y-100482400D03*
X116370100Y-103022400D03*
X118910100Y-103022400D03*
X116370100Y-105562400D03*
X118910100Y-105562400D03*
X116370100Y-108102400D03*
X118910100Y-108102400D03*
X116370100Y-110642400D03*
X118910100Y-110642400D03*
X116370100Y-113182400D03*
X118910100Y-113182400D03*
X116370100Y-115722400D03*
X118910100Y-115722400D03*
X116370100Y-118262400D03*
X118910100Y-118262400D03*
D10*
X164630100Y-62382400D03*
D11*
X167170100Y-62382400D03*
X164630100Y-64922400D03*
X167170100Y-64922400D03*
X164630100Y-67462400D03*
X167170100Y-67462400D03*
X164630100Y-70002400D03*
X167170100Y-70002400D03*
X164630100Y-72542400D03*
X167170100Y-72542400D03*
X164630100Y-75082400D03*
X167170100Y-75082400D03*
X164630100Y-77622400D03*
X167170100Y-77622400D03*
X164630100Y-80162400D03*
X167170100Y-80162400D03*
X164630100Y-82702400D03*
X167170100Y-82702400D03*
X164630100Y-85242400D03*
X167170100Y-85242400D03*
X164630100Y-87782400D03*
X167170100Y-87782400D03*
X164630100Y-90322400D03*
X167170100Y-90322400D03*
X164630100Y-92862400D03*
X167170100Y-92862400D03*
X164630100Y-95402400D03*
X167170100Y-95402400D03*
X164630100Y-97942400D03*
X167170100Y-97942400D03*
X164630100Y-100482400D03*
X167170100Y-100482400D03*
X164630100Y-103022400D03*
X167170100Y-103022400D03*
X164630100Y-105562400D03*
X167170100Y-105562400D03*
X164630100Y-108102400D03*
X167170100Y-108102400D03*
X164630100Y-110642400D03*
X167170100Y-110642400D03*
X164630100Y-113182400D03*
X167170100Y-113182400D03*
X164630100Y-115722400D03*
X167170100Y-115722400D03*
X164630100Y-118262400D03*
X167170100Y-118262400D03*
D10*
X128560000Y-104200000D03*
D11*
X128560000Y-101660000D03*
D10*
X132190000Y-104200000D03*
D11*
X132190000Y-101660000D03*
D10*
X111817120Y-77597000D03*
D11*
X109277120Y-77597000D03*
X111817120Y-80137000D03*
X109277120Y-80137000D03*
X111817120Y-82677000D03*
X109277120Y-82677000D03*
X111817120Y-85217000D03*
X109277120Y-85217000D03*
X111817120Y-87757000D03*
X109277120Y-87757000D03*
X111817120Y-90297000D03*
X109277120Y-90297000D03*
D10*
X111817120Y-100457000D03*
D11*
X109277120Y-100457000D03*
X111817120Y-102997000D03*
X109277120Y-102997000D03*
X111817120Y-105537000D03*
X109277120Y-105537000D03*
X111817120Y-108077000D03*
X109277120Y-108077000D03*
X111817120Y-110617000D03*
X109277120Y-110617000D03*
X111817120Y-113157000D03*
X109277120Y-113157000D03*
D10*
X170817120Y-90297000D03*
D11*
X173357120Y-90297000D03*
X170817120Y-87757000D03*
X173357120Y-87757000D03*
X170817120Y-85217000D03*
X173357120Y-85217000D03*
X170817120Y-82677000D03*
X173357120Y-82677000D03*
X170817120Y-80137000D03*
X173357120Y-80137000D03*
X170817120Y-77597000D03*
X173357120Y-77597000D03*
D12*
X124732000Y-124680000D03*
X118732000Y-124680000D03*
X120732000Y-124680000D03*
X122732000Y-124680000D03*
X137813000Y-124680000D03*
X131813000Y-124680000D03*
X133813000Y-124680000D03*
X135813000Y-124680000D03*
X150894000Y-124680000D03*
X144894000Y-124680000D03*
X146894000Y-124680000D03*
X148894000Y-124680000D03*
X163975000Y-124680000D03*
X157975000Y-124680000D03*
X159975000Y-124680000D03*
X161975000Y-124680000D03*
D13*
X129915920Y-117149880D03*
X131714240Y-117134640D03*
X133609080Y-117165120D03*
X135178800Y-117236240D03*
X124917200Y-102463600D03*
X117398800Y-56794400D03*
X117322600Y-55181500D03*
X159880300Y-94310200D03*
X127627817Y-95715706D03*
X127643227Y-94183412D03*
X159270700Y-55778400D03*
X161975800Y-55765700D03*
X159990000Y-59050000D03*
X127860000Y-88380000D03*
X135710000Y-76040000D03*
X132600000Y-81820000D03*
X121170000Y-55020000D03*
X123330000Y-89770000D03*
X137508437Y-107777780D03*
X127660400Y-54457600D03*
X131089400Y-97764600D03*
X127482600Y-97764600D03*
X144459804Y-89418199D03*
X139037194Y-68340374D03*
X131347671Y-89242939D03*
X149897128Y-92318713D03*
X131038600Y-107264200D03*
X150848311Y-96690544D03*
X137439400Y-112776000D03*
X150859308Y-107090560D03*
X150893814Y-111090253D03*
X150951926Y-117504560D03*
X150944545Y-115887959D03*
X125425200Y-115570000D03*
X124028200Y-115570000D03*
X131058920Y-61320680D03*
X151058000Y-68920686D03*
X156591000Y-82311240D03*
X156583150Y-78292603D03*
X154643659Y-55844159D03*
X112306100Y-64109600D03*
X109766100Y-64084200D03*
X125056900Y-101206300D03*
X159943800Y-92760800D03*
X130033406Y-88082193D03*
X160660000Y-51070000D03*
X128998420Y-71612589D03*
X153438632Y-78071163D03*
X128660000Y-76600000D03*
X168950000Y-56600000D03*
X159840000Y-61930000D03*
X158999626Y-91619548D03*
X124400000Y-58280000D03*
X142793808Y-88798400D03*
X124043000Y-91882600D03*
X123338654Y-94873703D03*
X133202279Y-82795001D03*
X131495800Y-92379800D03*
X133070600Y-87782400D03*
X151053800Y-89916000D03*
X159969200Y-85166200D03*
X159969200Y-86690200D03*
X159979200Y-89204600D03*
X121843800Y-113207800D03*
X132537200Y-107264200D03*
X138959265Y-95845773D03*
X139172981Y-94665800D03*
X122696800Y-100925000D03*
X147409038Y-95504000D03*
X150139400Y-95453200D03*
X154000200Y-96951800D03*
X140130866Y-107089979D03*
X154432000Y-117525800D03*
X154432000Y-115722400D03*
X154406600Y-110896400D03*
X154406600Y-107086400D03*
X149148800Y-108686600D03*
X149174200Y-113487200D03*
X126396200Y-88188800D03*
X138049000Y-111074200D03*
X138049000Y-115900200D03*
X138074400Y-117500400D03*
X156687520Y-61264800D03*
X164261800Y-58831480D03*
X156961840Y-58861960D03*
X139176760Y-65852040D03*
X135752840Y-65852040D03*
X133334760Y-62417960D03*
X126832360Y-61320680D03*
X133380480Y-55981600D03*
X130510280Y-57368440D03*
X126227840Y-44668440D03*
X120655080Y-44668440D03*
X115691920Y-51308000D03*
X115697000Y-49646840D03*
X115697000Y-48006000D03*
X115691920Y-46355000D03*
X159659320Y-78861920D03*
X159664400Y-77256640D03*
X147563840Y-68828920D03*
X151481795Y-71120904D03*
X154137360Y-73896220D03*
X154800300Y-68163440D03*
X148228343Y-68142945D03*
X158806397Y-80630590D03*
X125739168Y-81883580D03*
X131377656Y-72381957D03*
X144800000Y-71210000D03*
X166560000Y-59310000D03*
X142982128Y-85670481D03*
X136990000Y-75670000D03*
X136391404Y-75067448D03*
X138140000Y-78010000D03*
X136890000Y-77190000D03*
X138243780Y-80970000D03*
X138170000Y-78910000D03*
X138430000Y-83950000D03*
X138450000Y-82940000D03*
X153716754Y-75965612D03*
X153691270Y-75166006D03*
X152874467Y-76204125D03*
X140360000Y-83070000D03*
X139458133Y-84815690D03*
X132318704Y-88573003D03*
X123367000Y-108377000D03*
X137325100Y-89331800D03*
X130835400Y-112433100D03*
X135788400Y-87680800D03*
X124028200Y-109829600D03*
X127493000Y-110917000D03*
X136444621Y-89050928D03*
X141730000Y-77520000D03*
X138820000Y-76260000D03*
X141693811Y-71832737D03*
X131830000Y-59590000D03*
X145483163Y-86901013D03*
X140150000Y-109490000D03*
X148760000Y-85870000D03*
X148290000Y-99890000D03*
X149110000Y-86620000D03*
X148860000Y-99090000D03*
X149470000Y-87370000D03*
X148290000Y-98300000D03*
X150053867Y-88928489D03*
X148866220Y-97500000D03*
X137587971Y-87349604D03*
X137798170Y-97555752D03*
X139187417Y-87392188D03*
X140120000Y-98270000D03*
X138387773Y-87367947D03*
X137750000Y-100690000D03*
X139987320Y-87378980D03*
X140540000Y-101000000D03*
X148430000Y-85110000D03*
X148890000Y-100690000D03*
X140787219Y-87365544D03*
X140110000Y-102290000D03*
X141566489Y-87184554D03*
X140600000Y-103090000D03*
X147720000Y-83590000D03*
X148850000Y-102280000D03*
X148080000Y-84360000D03*
X148320000Y-101490000D03*
X109860000Y-51940000D03*
X137480000Y-71440000D03*
X109760000Y-50380000D03*
X138380000Y-71480000D03*
X109830000Y-48620000D03*
X139420000Y-71440000D03*
X109830000Y-46830000D03*
X140420000Y-71730000D03*
X146200000Y-80650000D03*
X148880000Y-105500000D03*
X146650000Y-81370000D03*
X148380000Y-104690000D03*
X147000000Y-82100000D03*
X148900000Y-103910000D03*
X147360000Y-82830000D03*
X148410000Y-103090000D03*
X142357108Y-86759411D03*
X140120000Y-103890000D03*
X143822792Y-86924667D03*
X140680000Y-104700000D03*
X144683729Y-86931397D03*
X140150000Y-105510000D03*
X153798952Y-86775245D03*
X153747070Y-79216694D03*
X152046347Y-74187325D03*
X150563287Y-74202156D03*
X149470000Y-73310000D03*
X148640000Y-73300000D03*
X147813760Y-73293601D03*
X145898437Y-71337327D03*
X147236049Y-72740186D03*
X146953230Y-71332213D03*
D14*
G36*
X134783830Y-64287400D02*
X134832263Y-64530890D01*
X134970189Y-64737311D01*
X135176610Y-64875237D01*
X135420100Y-64923670D01*
X153200100Y-64923670D01*
X153206484Y-64922400D01*
X163102141Y-64922400D01*
X163216215Y-65495889D01*
X163541071Y-65982070D01*
X163855852Y-66192400D01*
X163541071Y-66402730D01*
X163216215Y-66888911D01*
X163102141Y-67462400D01*
X163216215Y-68035889D01*
X163541071Y-68522070D01*
X163855852Y-68732400D01*
X163541071Y-68942730D01*
X163216215Y-69428911D01*
X163102141Y-70002400D01*
X163216215Y-70575889D01*
X163541071Y-71062070D01*
X163855852Y-71272400D01*
X163541071Y-71482730D01*
X163216215Y-71968911D01*
X163102141Y-72542400D01*
X163216215Y-73115889D01*
X163541071Y-73602070D01*
X163855852Y-73812400D01*
X163541071Y-74022730D01*
X163216215Y-74508911D01*
X163102141Y-75082400D01*
X163216215Y-75655889D01*
X163541071Y-76142070D01*
X163855852Y-76352400D01*
X163541071Y-76562730D01*
X163216215Y-77048911D01*
X163102141Y-77622400D01*
X163216215Y-78195889D01*
X163541071Y-78682070D01*
X163855852Y-78892400D01*
X163541071Y-79102730D01*
X163216215Y-79588911D01*
X163102141Y-80162400D01*
X163216215Y-80735889D01*
X163541071Y-81222070D01*
X163855852Y-81432400D01*
X163541071Y-81642730D01*
X163216215Y-82128911D01*
X163102141Y-82702400D01*
X163216215Y-83275889D01*
X163541071Y-83762070D01*
X163855852Y-83972400D01*
X163541071Y-84182730D01*
X163216215Y-84668911D01*
X163102141Y-85242400D01*
X163216215Y-85815889D01*
X163541071Y-86302070D01*
X163855852Y-86512400D01*
X163541071Y-86722730D01*
X163216215Y-87208911D01*
X163102141Y-87782400D01*
X163216215Y-88355889D01*
X163541071Y-88842070D01*
X163855852Y-89052400D01*
X163541071Y-89262730D01*
X163216215Y-89748911D01*
X163102141Y-90322400D01*
X163216215Y-90895889D01*
X163541071Y-91382070D01*
X163855852Y-91592400D01*
X163541071Y-91802730D01*
X163216215Y-92288911D01*
X163102141Y-92862400D01*
X163216215Y-93435889D01*
X163541071Y-93922070D01*
X163855852Y-94132400D01*
X163541071Y-94342730D01*
X163216215Y-94828911D01*
X163102141Y-95402400D01*
X163216215Y-95975889D01*
X163541071Y-96462070D01*
X163855852Y-96672400D01*
X163541071Y-96882730D01*
X163216215Y-97368911D01*
X163102141Y-97942400D01*
X163216215Y-98515889D01*
X163541071Y-99002070D01*
X163855852Y-99212400D01*
X163541071Y-99422730D01*
X163216215Y-99908911D01*
X163102141Y-100482400D01*
X163216215Y-101055889D01*
X163541071Y-101542070D01*
X163855852Y-101752400D01*
X163541071Y-101962730D01*
X163216215Y-102448911D01*
X163102141Y-103022400D01*
X163216215Y-103595889D01*
X163541071Y-104082070D01*
X163855852Y-104292400D01*
X163541071Y-104502730D01*
X163216215Y-104988911D01*
X163102141Y-105562400D01*
X163216215Y-106135889D01*
X163541071Y-106622070D01*
X163855852Y-106832400D01*
X163541071Y-107042730D01*
X163216215Y-107528911D01*
X163102141Y-108102400D01*
X163216215Y-108675889D01*
X163541071Y-109162070D01*
X163855852Y-109372400D01*
X163541071Y-109582730D01*
X163216215Y-110068911D01*
X163102141Y-110642400D01*
X163216215Y-111215889D01*
X163541071Y-111702070D01*
X163855852Y-111912400D01*
X163541071Y-112122730D01*
X163216215Y-112608911D01*
X163102141Y-113182400D01*
X163216215Y-113755889D01*
X163541071Y-114242070D01*
X163855852Y-114452400D01*
X163541071Y-114662730D01*
X163216215Y-115148911D01*
X163102141Y-115722400D01*
X163216215Y-116295889D01*
X163541071Y-116782070D01*
X163855852Y-116992400D01*
X163541071Y-117202730D01*
X163216215Y-117688911D01*
X163102141Y-118262400D01*
X163216215Y-118835889D01*
X163541071Y-119322070D01*
X164027252Y-119646926D01*
X164600741Y-119761000D01*
X164659459Y-119761000D01*
X165232948Y-119646926D01*
X165719129Y-119322070D01*
X165900100Y-119051228D01*
X166081071Y-119322070D01*
X166567252Y-119646926D01*
X167140741Y-119761000D01*
X167199459Y-119761000D01*
X167772948Y-119646926D01*
X168259129Y-119322070D01*
X168583985Y-118835889D01*
X168698059Y-118262400D01*
X168583985Y-117688911D01*
X168259129Y-117202730D01*
X167944348Y-116992400D01*
X168259129Y-116782070D01*
X168583985Y-116295889D01*
X168698059Y-115722400D01*
X168583985Y-115148911D01*
X168259129Y-114662730D01*
X167944348Y-114452400D01*
X168259129Y-114242070D01*
X168583985Y-113755889D01*
X168698059Y-113182400D01*
X168583985Y-112608911D01*
X168259129Y-112122730D01*
X167944348Y-111912400D01*
X168259129Y-111702070D01*
X168583985Y-111215889D01*
X168698059Y-110642400D01*
X168583985Y-110068911D01*
X168259129Y-109582730D01*
X167944348Y-109372400D01*
X168259129Y-109162070D01*
X168583985Y-108675889D01*
X168698059Y-108102400D01*
X168583985Y-107528911D01*
X168259129Y-107042730D01*
X167944348Y-106832400D01*
X168259129Y-106622070D01*
X168583985Y-106135889D01*
X168698059Y-105562400D01*
X168583985Y-104988911D01*
X168259129Y-104502730D01*
X167944348Y-104292400D01*
X168259129Y-104082070D01*
X168583985Y-103595889D01*
X168698059Y-103022400D01*
X168583985Y-102448911D01*
X168259129Y-101962730D01*
X167944348Y-101752400D01*
X168259129Y-101542070D01*
X168583985Y-101055889D01*
X168698059Y-100482400D01*
X168583985Y-99908911D01*
X168259129Y-99422730D01*
X167944348Y-99212400D01*
X168259129Y-99002070D01*
X168583985Y-98515889D01*
X168698059Y-97942400D01*
X168583985Y-97368911D01*
X168259129Y-96882730D01*
X167944348Y-96672400D01*
X168259129Y-96462070D01*
X168583985Y-95975889D01*
X168698059Y-95402400D01*
X168583985Y-94828911D01*
X168259129Y-94342730D01*
X167944348Y-94132400D01*
X168259129Y-93922070D01*
X168583985Y-93435889D01*
X168698059Y-92862400D01*
X168583985Y-92288911D01*
X168259129Y-91802730D01*
X167944348Y-91592400D01*
X168259129Y-91382070D01*
X168583985Y-90895889D01*
X168698059Y-90322400D01*
X168583985Y-89748911D01*
X168259129Y-89262730D01*
X167944348Y-89052400D01*
X168259129Y-88842070D01*
X168583985Y-88355889D01*
X168698059Y-87782400D01*
X168583985Y-87208911D01*
X168259129Y-86722730D01*
X167944348Y-86512400D01*
X168259129Y-86302070D01*
X168583985Y-85815889D01*
X168698059Y-85242400D01*
X168583985Y-84668911D01*
X168259129Y-84182730D01*
X167944348Y-83972400D01*
X168259129Y-83762070D01*
X168583985Y-83275889D01*
X168698059Y-82702400D01*
X168583985Y-82128911D01*
X168259129Y-81642730D01*
X167944348Y-81432400D01*
X168259129Y-81222070D01*
X168583985Y-80735889D01*
X168698059Y-80162400D01*
X168583985Y-79588911D01*
X168259129Y-79102730D01*
X167944348Y-78892400D01*
X168259129Y-78682070D01*
X168583985Y-78195889D01*
X168698059Y-77622400D01*
X168583985Y-77048911D01*
X168259129Y-76562730D01*
X167944348Y-76352400D01*
X168259129Y-76142070D01*
X168583985Y-75655889D01*
X168698059Y-75082400D01*
X168583985Y-74508911D01*
X168259129Y-74022730D01*
X167944348Y-73812400D01*
X168259129Y-73602070D01*
X168583985Y-73115889D01*
X168698059Y-72542400D01*
X168583985Y-71968911D01*
X168259129Y-71482730D01*
X167944348Y-71272400D01*
X168259129Y-71062070D01*
X168583985Y-70575889D01*
X168698059Y-70002400D01*
X168583985Y-69428911D01*
X168259129Y-68942730D01*
X167944348Y-68732400D01*
X168259129Y-68522070D01*
X168583985Y-68035889D01*
X168698059Y-67462400D01*
X168583985Y-66888911D01*
X168259129Y-66402730D01*
X167944348Y-66192400D01*
X168259129Y-65982070D01*
X168583985Y-65495889D01*
X168698059Y-64922400D01*
X168583985Y-64348911D01*
X168259129Y-63862730D01*
X167935872Y-63646736D01*
X168058590Y-63589221D01*
X168452788Y-63157347D01*
X168625058Y-62741426D01*
X168503917Y-62509400D01*
X167297100Y-62509400D01*
X167297100Y-62529400D01*
X167043100Y-62529400D01*
X167043100Y-62509400D01*
X164757100Y-62509400D01*
X164757100Y-62529400D01*
X164503100Y-62529400D01*
X164503100Y-62509400D01*
X163290250Y-62509400D01*
X163131500Y-62668150D01*
X163131500Y-63372310D01*
X163228173Y-63605699D01*
X163406802Y-63784327D01*
X163562123Y-63848663D01*
X163541071Y-63862730D01*
X163216215Y-64348911D01*
X163102141Y-64922400D01*
X153206484Y-64922400D01*
X153443590Y-64875237D01*
X153650011Y-64737311D01*
X153787937Y-64530890D01*
X153836370Y-64287400D01*
X153836370Y-61392490D01*
X163131500Y-61392490D01*
X163131500Y-62096650D01*
X163290250Y-62255400D01*
X164503100Y-62255400D01*
X164503100Y-61042550D01*
X164757100Y-61042550D01*
X164757100Y-62255400D01*
X167043100Y-62255400D01*
X167043100Y-61047931D01*
X167297100Y-61047931D01*
X167297100Y-62255400D01*
X168503917Y-62255400D01*
X168625058Y-62023374D01*
X168452788Y-61607453D01*
X168058590Y-61175579D01*
X167529127Y-60927432D01*
X167297100Y-61047931D01*
X167043100Y-61047931D01*
X166811073Y-60927432D01*
X166281610Y-61175579D01*
X166114629Y-61358519D01*
X166032027Y-61159101D01*
X165853398Y-60980473D01*
X165620009Y-60883800D01*
X164915850Y-60883800D01*
X164757100Y-61042550D01*
X164503100Y-61042550D01*
X164344350Y-60883800D01*
X163640191Y-60883800D01*
X163406802Y-60980473D01*
X163228173Y-61159101D01*
X163131500Y-61392490D01*
X153836370Y-61392490D01*
X153836370Y-59235167D01*
X159054838Y-59235167D01*
X159196883Y-59578943D01*
X159459673Y-59842192D01*
X159803201Y-59984838D01*
X160175167Y-59985162D01*
X160518943Y-59843117D01*
X160782192Y-59580327D01*
X160817553Y-59495167D01*
X165624838Y-59495167D01*
X165766883Y-59838943D01*
X166029673Y-60102192D01*
X166373201Y-60244838D01*
X166745167Y-60245162D01*
X167088943Y-60103117D01*
X167352192Y-59840327D01*
X167494838Y-59496799D01*
X167495162Y-59124833D01*
X167353117Y-58781057D01*
X167090327Y-58517808D01*
X166746799Y-58375162D01*
X166374833Y-58374838D01*
X166031057Y-58516883D01*
X165767808Y-58779673D01*
X165625162Y-59123201D01*
X165624838Y-59495167D01*
X160817553Y-59495167D01*
X160924838Y-59236799D01*
X160925162Y-58864833D01*
X160783117Y-58521057D01*
X160520327Y-58257808D01*
X160176799Y-58115162D01*
X159804833Y-58114838D01*
X159461057Y-58256883D01*
X159197808Y-58519673D01*
X159055162Y-58863201D01*
X159054838Y-59235167D01*
X153836370Y-59235167D01*
X153836370Y-56338803D01*
X153850542Y-56373102D01*
X154113332Y-56636351D01*
X154456860Y-56778997D01*
X154828826Y-56779321D01*
X155172602Y-56637276D01*
X155435851Y-56374486D01*
X155578497Y-56030958D01*
X155578555Y-55963567D01*
X158335538Y-55963567D01*
X158477583Y-56307343D01*
X158740373Y-56570592D01*
X159083901Y-56713238D01*
X159455867Y-56713562D01*
X159799643Y-56571517D01*
X160062892Y-56308727D01*
X160205538Y-55965199D01*
X160205550Y-55950867D01*
X161040638Y-55950867D01*
X161182683Y-56294643D01*
X161445473Y-56557892D01*
X161789001Y-56700538D01*
X162160967Y-56700862D01*
X162504743Y-56558817D01*
X162767992Y-56296027D01*
X162910638Y-55952499D01*
X162910962Y-55580533D01*
X162768917Y-55236757D01*
X162506127Y-54973508D01*
X162162599Y-54830862D01*
X161790633Y-54830538D01*
X161446857Y-54972583D01*
X161183608Y-55235373D01*
X161040962Y-55578901D01*
X161040638Y-55950867D01*
X160205550Y-55950867D01*
X160205862Y-55593233D01*
X160063817Y-55249457D01*
X159801027Y-54986208D01*
X159457499Y-54843562D01*
X159085533Y-54843238D01*
X158741757Y-54985283D01*
X158478508Y-55248073D01*
X158335862Y-55591601D01*
X158335538Y-55963567D01*
X155578555Y-55963567D01*
X155578821Y-55658992D01*
X155436776Y-55315216D01*
X155173986Y-55051967D01*
X154830458Y-54909321D01*
X154458492Y-54908997D01*
X154114716Y-55051042D01*
X153851467Y-55313832D01*
X153836370Y-55350189D01*
X153836370Y-50318670D01*
X174438830Y-50318670D01*
X174438830Y-76540956D01*
X174416790Y-76507971D01*
X173930609Y-76183115D01*
X173357120Y-76069041D01*
X172783631Y-76183115D01*
X172297450Y-76507971D01*
X172087120Y-76822752D01*
X171876790Y-76507971D01*
X171390609Y-76183115D01*
X170817120Y-76069041D01*
X170243631Y-76183115D01*
X169757450Y-76507971D01*
X169432594Y-76994152D01*
X169318520Y-77567641D01*
X169318520Y-77626359D01*
X169432594Y-78199848D01*
X169757450Y-78686029D01*
X170028281Y-78866992D01*
X169610299Y-79248510D01*
X169362152Y-79777973D01*
X169482651Y-80010000D01*
X170690120Y-80010000D01*
X170690120Y-79990000D01*
X170944120Y-79990000D01*
X170944120Y-80010000D01*
X173230120Y-80010000D01*
X173230120Y-79990000D01*
X173484120Y-79990000D01*
X173484120Y-80010000D01*
X173504120Y-80010000D01*
X173504120Y-80264000D01*
X173484120Y-80264000D01*
X173484120Y-80284000D01*
X173230120Y-80284000D01*
X173230120Y-80264000D01*
X170944120Y-80264000D01*
X170944120Y-80284000D01*
X170690120Y-80284000D01*
X170690120Y-80264000D01*
X169482651Y-80264000D01*
X169362152Y-80496027D01*
X169610299Y-81025490D01*
X170028281Y-81407008D01*
X169757450Y-81587971D01*
X169432594Y-82074152D01*
X169318520Y-82647641D01*
X169318520Y-82706359D01*
X169432594Y-83279848D01*
X169757450Y-83766029D01*
X170028292Y-83947000D01*
X169757450Y-84127971D01*
X169432594Y-84614152D01*
X169318520Y-85187641D01*
X169318520Y-85246359D01*
X169432594Y-85819848D01*
X169757450Y-86306029D01*
X170028292Y-86487000D01*
X169757450Y-86667971D01*
X169432594Y-87154152D01*
X169318520Y-87727641D01*
X169318520Y-87786359D01*
X169432594Y-88359848D01*
X169743694Y-88825442D01*
X169718203Y-88830238D01*
X169502079Y-88969310D01*
X169357089Y-89181510D01*
X169306080Y-89433400D01*
X169306080Y-91160600D01*
X169350358Y-91395917D01*
X169489430Y-91612041D01*
X169701630Y-91757031D01*
X169953520Y-91808040D01*
X171680720Y-91808040D01*
X171916037Y-91763762D01*
X172132161Y-91624690D01*
X172277151Y-91412490D01*
X172285984Y-91368869D01*
X172297450Y-91386029D01*
X172783631Y-91710885D01*
X173357120Y-91824959D01*
X173930609Y-91710885D01*
X174416790Y-91386029D01*
X174438830Y-91353044D01*
X174438830Y-99400956D01*
X174416790Y-99367971D01*
X173930609Y-99043115D01*
X173357120Y-98929041D01*
X172783631Y-99043115D01*
X172297450Y-99367971D01*
X172087120Y-99682752D01*
X171876790Y-99367971D01*
X171390609Y-99043115D01*
X170817120Y-98929041D01*
X170243631Y-99043115D01*
X169757450Y-99367971D01*
X169432594Y-99854152D01*
X169318520Y-100427641D01*
X169318520Y-100486359D01*
X169432594Y-101059848D01*
X169757450Y-101546029D01*
X170028281Y-101726992D01*
X169610299Y-102108510D01*
X169362152Y-102637973D01*
X169482651Y-102870000D01*
X170690120Y-102870000D01*
X170690120Y-102850000D01*
X170944120Y-102850000D01*
X170944120Y-102870000D01*
X173230120Y-102870000D01*
X173230120Y-102850000D01*
X173484120Y-102850000D01*
X173484120Y-102870000D01*
X173504120Y-102870000D01*
X173504120Y-103124000D01*
X173484120Y-103124000D01*
X173484120Y-103144000D01*
X173230120Y-103144000D01*
X173230120Y-103124000D01*
X170944120Y-103124000D01*
X170944120Y-103144000D01*
X170690120Y-103144000D01*
X170690120Y-103124000D01*
X169482651Y-103124000D01*
X169362152Y-103356027D01*
X169610299Y-103885490D01*
X170028281Y-104267008D01*
X169757450Y-104447971D01*
X169432594Y-104934152D01*
X169318520Y-105507641D01*
X169318520Y-105566359D01*
X169432594Y-106139848D01*
X169757450Y-106626029D01*
X170028292Y-106807000D01*
X169757450Y-106987971D01*
X169432594Y-107474152D01*
X169318520Y-108047641D01*
X169318520Y-108106359D01*
X169432594Y-108679848D01*
X169757450Y-109166029D01*
X170028292Y-109347000D01*
X169757450Y-109527971D01*
X169432594Y-110014152D01*
X169318520Y-110587641D01*
X169318520Y-110646359D01*
X169432594Y-111219848D01*
X169743694Y-111685442D01*
X169718203Y-111690238D01*
X169502079Y-111829310D01*
X169357089Y-112041510D01*
X169306080Y-112293400D01*
X169306080Y-114020600D01*
X169350358Y-114255917D01*
X169489430Y-114472041D01*
X169701630Y-114617031D01*
X169953520Y-114668040D01*
X171680720Y-114668040D01*
X171916037Y-114623762D01*
X172132161Y-114484690D01*
X172277151Y-114272490D01*
X172285984Y-114228869D01*
X172297450Y-114246029D01*
X172783631Y-114570885D01*
X173357120Y-114684959D01*
X173930609Y-114570885D01*
X174416790Y-114246029D01*
X174438830Y-114213044D01*
X174438830Y-119794733D01*
X173509017Y-124469219D01*
X170896631Y-128378931D01*
X166986919Y-130991317D01*
X162312434Y-131921130D01*
X120227767Y-131921130D01*
X115553281Y-130991317D01*
X111643569Y-128378931D01*
X109356882Y-124956661D01*
X117334758Y-124956661D01*
X117546990Y-125470303D01*
X117939630Y-125863629D01*
X118452900Y-126076757D01*
X119008661Y-126077242D01*
X119522303Y-125865010D01*
X119732021Y-125655658D01*
X119939630Y-125863629D01*
X120452900Y-126076757D01*
X121008661Y-126077242D01*
X121522303Y-125865010D01*
X121732021Y-125655658D01*
X121939630Y-125863629D01*
X122452900Y-126076757D01*
X123008661Y-126077242D01*
X123522303Y-125865010D01*
X123727457Y-125660213D01*
X123931392Y-125660213D01*
X124000857Y-125902397D01*
X124524302Y-126089144D01*
X125079368Y-126061362D01*
X125463143Y-125902397D01*
X125532608Y-125660213D01*
X124732000Y-124859605D01*
X123931392Y-125660213D01*
X123727457Y-125660213D01*
X123915629Y-125472370D01*
X124026122Y-125206273D01*
X124552395Y-124680000D01*
X124911605Y-124680000D01*
X125712213Y-125480608D01*
X125954397Y-125411143D01*
X126116540Y-124956661D01*
X130415758Y-124956661D01*
X130627990Y-125470303D01*
X131020630Y-125863629D01*
X131533900Y-126076757D01*
X132089661Y-126077242D01*
X132603303Y-125865010D01*
X132813021Y-125655658D01*
X133020630Y-125863629D01*
X133533900Y-126076757D01*
X134089661Y-126077242D01*
X134603303Y-125865010D01*
X134813021Y-125655658D01*
X135020630Y-125863629D01*
X135533900Y-126076757D01*
X136089661Y-126077242D01*
X136603303Y-125865010D01*
X136808457Y-125660213D01*
X137012392Y-125660213D01*
X137081857Y-125902397D01*
X137605302Y-126089144D01*
X138160368Y-126061362D01*
X138544143Y-125902397D01*
X138613608Y-125660213D01*
X137813000Y-124859605D01*
X137012392Y-125660213D01*
X136808457Y-125660213D01*
X136996629Y-125472370D01*
X137107122Y-125206273D01*
X137633395Y-124680000D01*
X137992605Y-124680000D01*
X138793213Y-125480608D01*
X139035397Y-125411143D01*
X139197540Y-124956661D01*
X143496758Y-124956661D01*
X143708990Y-125470303D01*
X144101630Y-125863629D01*
X144614900Y-126076757D01*
X145170661Y-126077242D01*
X145684303Y-125865010D01*
X145894021Y-125655658D01*
X146101630Y-125863629D01*
X146614900Y-126076757D01*
X147170661Y-126077242D01*
X147684303Y-125865010D01*
X147894021Y-125655658D01*
X148101630Y-125863629D01*
X148614900Y-126076757D01*
X149170661Y-126077242D01*
X149684303Y-125865010D01*
X149889457Y-125660213D01*
X150093392Y-125660213D01*
X150162857Y-125902397D01*
X150686302Y-126089144D01*
X151241368Y-126061362D01*
X151625143Y-125902397D01*
X151694608Y-125660213D01*
X150894000Y-124859605D01*
X150093392Y-125660213D01*
X149889457Y-125660213D01*
X150077629Y-125472370D01*
X150188122Y-125206273D01*
X150714395Y-124680000D01*
X151073605Y-124680000D01*
X151874213Y-125480608D01*
X152116397Y-125411143D01*
X152278540Y-124956661D01*
X156577758Y-124956661D01*
X156789990Y-125470303D01*
X157182630Y-125863629D01*
X157695900Y-126076757D01*
X158251661Y-126077242D01*
X158765303Y-125865010D01*
X158975021Y-125655658D01*
X159182630Y-125863629D01*
X159695900Y-126076757D01*
X160251661Y-126077242D01*
X160765303Y-125865010D01*
X160975021Y-125655658D01*
X161182630Y-125863629D01*
X161695900Y-126076757D01*
X162251661Y-126077242D01*
X162765303Y-125865010D01*
X162970457Y-125660213D01*
X163174392Y-125660213D01*
X163243857Y-125902397D01*
X163767302Y-126089144D01*
X164322368Y-126061362D01*
X164706143Y-125902397D01*
X164775608Y-125660213D01*
X163975000Y-124859605D01*
X163174392Y-125660213D01*
X162970457Y-125660213D01*
X163158629Y-125472370D01*
X163269122Y-125206273D01*
X163795395Y-124680000D01*
X164154605Y-124680000D01*
X164955213Y-125480608D01*
X165197397Y-125411143D01*
X165384144Y-124887698D01*
X165356362Y-124332632D01*
X165197397Y-123948857D01*
X164955213Y-123879392D01*
X164154605Y-124680000D01*
X163795395Y-124680000D01*
X163269093Y-124153698D01*
X163160010Y-123889697D01*
X162970432Y-123699787D01*
X163174392Y-123699787D01*
X163975000Y-124500395D01*
X164775608Y-123699787D01*
X164706143Y-123457603D01*
X164182698Y-123270856D01*
X163627632Y-123298638D01*
X163243857Y-123457603D01*
X163174392Y-123699787D01*
X162970432Y-123699787D01*
X162767370Y-123496371D01*
X162254100Y-123283243D01*
X161698339Y-123282758D01*
X161184697Y-123494990D01*
X160974979Y-123704342D01*
X160767370Y-123496371D01*
X160254100Y-123283243D01*
X159698339Y-123282758D01*
X159184697Y-123494990D01*
X158974979Y-123704342D01*
X158767370Y-123496371D01*
X158254100Y-123283243D01*
X157698339Y-123282758D01*
X157184697Y-123494990D01*
X156791371Y-123887630D01*
X156578243Y-124400900D01*
X156577758Y-124956661D01*
X152278540Y-124956661D01*
X152303144Y-124887698D01*
X152275362Y-124332632D01*
X152116397Y-123948857D01*
X151874213Y-123879392D01*
X151073605Y-124680000D01*
X150714395Y-124680000D01*
X150188093Y-124153698D01*
X150079010Y-123889697D01*
X149889432Y-123699787D01*
X150093392Y-123699787D01*
X150894000Y-124500395D01*
X151694608Y-123699787D01*
X151625143Y-123457603D01*
X151101698Y-123270856D01*
X150546632Y-123298638D01*
X150162857Y-123457603D01*
X150093392Y-123699787D01*
X149889432Y-123699787D01*
X149686370Y-123496371D01*
X149173100Y-123283243D01*
X148617339Y-123282758D01*
X148103697Y-123494990D01*
X147893979Y-123704342D01*
X147686370Y-123496371D01*
X147173100Y-123283243D01*
X146617339Y-123282758D01*
X146103697Y-123494990D01*
X145893979Y-123704342D01*
X145686370Y-123496371D01*
X145173100Y-123283243D01*
X144617339Y-123282758D01*
X144103697Y-123494990D01*
X143710371Y-123887630D01*
X143497243Y-124400900D01*
X143496758Y-124956661D01*
X139197540Y-124956661D01*
X139222144Y-124887698D01*
X139194362Y-124332632D01*
X139035397Y-123948857D01*
X138793213Y-123879392D01*
X137992605Y-124680000D01*
X137633395Y-124680000D01*
X137107093Y-124153698D01*
X136998010Y-123889697D01*
X136808432Y-123699787D01*
X137012392Y-123699787D01*
X137813000Y-124500395D01*
X138613608Y-123699787D01*
X138544143Y-123457603D01*
X138020698Y-123270856D01*
X137465632Y-123298638D01*
X137081857Y-123457603D01*
X137012392Y-123699787D01*
X136808432Y-123699787D01*
X136605370Y-123496371D01*
X136092100Y-123283243D01*
X135536339Y-123282758D01*
X135022697Y-123494990D01*
X134812979Y-123704342D01*
X134605370Y-123496371D01*
X134092100Y-123283243D01*
X133536339Y-123282758D01*
X133022697Y-123494990D01*
X132812979Y-123704342D01*
X132605370Y-123496371D01*
X132092100Y-123283243D01*
X131536339Y-123282758D01*
X131022697Y-123494990D01*
X130629371Y-123887630D01*
X130416243Y-124400900D01*
X130415758Y-124956661D01*
X126116540Y-124956661D01*
X126141144Y-124887698D01*
X126113362Y-124332632D01*
X125954397Y-123948857D01*
X125712213Y-123879392D01*
X124911605Y-124680000D01*
X124552395Y-124680000D01*
X124026093Y-124153698D01*
X123917010Y-123889697D01*
X123727432Y-123699787D01*
X123931392Y-123699787D01*
X124732000Y-124500395D01*
X125532608Y-123699787D01*
X125463143Y-123457603D01*
X124939698Y-123270856D01*
X124384632Y-123298638D01*
X124000857Y-123457603D01*
X123931392Y-123699787D01*
X123727432Y-123699787D01*
X123524370Y-123496371D01*
X123011100Y-123283243D01*
X122455339Y-123282758D01*
X121941697Y-123494990D01*
X121731979Y-123704342D01*
X121524370Y-123496371D01*
X121011100Y-123283243D01*
X120455339Y-123282758D01*
X119941697Y-123494990D01*
X119731979Y-123704342D01*
X119524370Y-123496371D01*
X119011100Y-123283243D01*
X118455339Y-123282758D01*
X117941697Y-123494990D01*
X117548371Y-123887630D01*
X117335243Y-124400900D01*
X117334758Y-124956661D01*
X109356882Y-124956661D01*
X109031183Y-124469219D01*
X108101370Y-119794734D01*
X108101370Y-118621426D01*
X114915142Y-118621426D01*
X115087412Y-119037347D01*
X115481610Y-119469221D01*
X116011073Y-119717368D01*
X116243100Y-119596869D01*
X116243100Y-118389400D01*
X116497100Y-118389400D01*
X116497100Y-119596869D01*
X116729127Y-119717368D01*
X117258590Y-119469221D01*
X117640100Y-119051248D01*
X118021610Y-119469221D01*
X118551073Y-119717368D01*
X118783100Y-119596869D01*
X118783100Y-118389400D01*
X119037100Y-118389400D01*
X119037100Y-119596869D01*
X119269127Y-119717368D01*
X119798590Y-119469221D01*
X120192788Y-119037347D01*
X120365058Y-118621426D01*
X120243917Y-118389400D01*
X119037100Y-118389400D01*
X118783100Y-118389400D01*
X116497100Y-118389400D01*
X116243100Y-118389400D01*
X115036283Y-118389400D01*
X114915142Y-118621426D01*
X108101370Y-118621426D01*
X108101370Y-116081426D01*
X114915142Y-116081426D01*
X115087412Y-116497347D01*
X115481610Y-116929221D01*
X115616413Y-116992400D01*
X115481610Y-117055579D01*
X115087412Y-117487453D01*
X114915142Y-117903374D01*
X115036283Y-118135400D01*
X116243100Y-118135400D01*
X116243100Y-115849400D01*
X116497100Y-115849400D01*
X116497100Y-118135400D01*
X118783100Y-118135400D01*
X118783100Y-115849400D01*
X119037100Y-115849400D01*
X119037100Y-118135400D01*
X120243917Y-118135400D01*
X120365058Y-117903374D01*
X120192788Y-117487453D01*
X120053678Y-117335047D01*
X128980758Y-117335047D01*
X129122803Y-117678823D01*
X129385593Y-117942072D01*
X129729121Y-118084718D01*
X130101087Y-118085042D01*
X130444863Y-117942997D01*
X130708112Y-117680207D01*
X130818324Y-117414789D01*
X130921123Y-117663583D01*
X131183913Y-117926832D01*
X131527441Y-118069478D01*
X131899407Y-118069802D01*
X132243183Y-117927757D01*
X132506432Y-117664967D01*
X132637099Y-117350287D01*
X132673918Y-117350287D01*
X132815963Y-117694063D01*
X133078753Y-117957312D01*
X133422281Y-118099958D01*
X133794247Y-118100282D01*
X134138023Y-117958237D01*
X134369835Y-117726829D01*
X134385683Y-117765183D01*
X134648473Y-118028432D01*
X134992001Y-118171078D01*
X135363967Y-118171402D01*
X135707743Y-118029357D01*
X135970992Y-117766567D01*
X136113638Y-117423039D01*
X136113962Y-117051073D01*
X135971917Y-116707297D01*
X135709127Y-116444048D01*
X135365599Y-116301402D01*
X134993633Y-116301078D01*
X134649857Y-116443123D01*
X134418045Y-116674531D01*
X134402197Y-116636177D01*
X134139407Y-116372928D01*
X133795879Y-116230282D01*
X133423913Y-116229958D01*
X133080137Y-116372003D01*
X132816888Y-116634793D01*
X132674242Y-116978321D01*
X132673918Y-117350287D01*
X132637099Y-117350287D01*
X132649078Y-117321439D01*
X132649402Y-116949473D01*
X132507357Y-116605697D01*
X132244567Y-116342448D01*
X131901039Y-116199802D01*
X131529073Y-116199478D01*
X131185297Y-116341523D01*
X130922048Y-116604313D01*
X130811836Y-116869731D01*
X130709037Y-116620937D01*
X130446247Y-116357688D01*
X130102719Y-116215042D01*
X129730753Y-116214718D01*
X129386977Y-116356763D01*
X129123728Y-116619553D01*
X128981082Y-116963081D01*
X128980758Y-117335047D01*
X120053678Y-117335047D01*
X119798590Y-117055579D01*
X119663787Y-116992400D01*
X119798590Y-116929221D01*
X120192788Y-116497347D01*
X120365058Y-116081426D01*
X120243917Y-115849400D01*
X119037100Y-115849400D01*
X118783100Y-115849400D01*
X116497100Y-115849400D01*
X116243100Y-115849400D01*
X115036283Y-115849400D01*
X114915142Y-116081426D01*
X108101370Y-116081426D01*
X108101370Y-115755167D01*
X123093038Y-115755167D01*
X123235083Y-116098943D01*
X123497873Y-116362192D01*
X123841401Y-116504838D01*
X124213367Y-116505162D01*
X124557143Y-116363117D01*
X124726765Y-116193791D01*
X124894873Y-116362192D01*
X125238401Y-116504838D01*
X125610367Y-116505162D01*
X125954143Y-116363117D01*
X126217392Y-116100327D01*
X126228686Y-116073126D01*
X150009383Y-116073126D01*
X150151428Y-116416902D01*
X150414218Y-116680151D01*
X150456362Y-116697651D01*
X150422983Y-116711443D01*
X150159734Y-116974233D01*
X150017088Y-117317761D01*
X150016764Y-117689727D01*
X150158809Y-118033503D01*
X150421599Y-118296752D01*
X150765127Y-118439398D01*
X151137093Y-118439722D01*
X151480869Y-118297677D01*
X151744118Y-118034887D01*
X151886764Y-117691359D01*
X151887088Y-117319393D01*
X151745043Y-116975617D01*
X151482253Y-116712368D01*
X151440109Y-116694868D01*
X151473488Y-116681076D01*
X151736737Y-116418286D01*
X151879383Y-116074758D01*
X151879707Y-115702792D01*
X151737662Y-115359016D01*
X151474872Y-115095767D01*
X151131344Y-114953121D01*
X150759378Y-114952797D01*
X150415602Y-115094842D01*
X150152353Y-115357632D01*
X150009707Y-115701160D01*
X150009383Y-116073126D01*
X126228686Y-116073126D01*
X126360038Y-115756799D01*
X126360362Y-115384833D01*
X126218317Y-115041057D01*
X125955527Y-114777808D01*
X125611999Y-114635162D01*
X125240033Y-114634838D01*
X124896257Y-114776883D01*
X124726635Y-114946209D01*
X124558527Y-114777808D01*
X124214999Y-114635162D01*
X123843033Y-114634838D01*
X123499257Y-114776883D01*
X123236008Y-115039673D01*
X123093362Y-115383201D01*
X123093038Y-115755167D01*
X108101370Y-115755167D01*
X108101370Y-114072303D01*
X108217450Y-114246029D01*
X108703631Y-114570885D01*
X109277120Y-114684959D01*
X109850609Y-114570885D01*
X110336790Y-114246029D01*
X110547120Y-113931248D01*
X110757450Y-114246029D01*
X111243631Y-114570885D01*
X111817120Y-114684959D01*
X112390609Y-114570885D01*
X112876790Y-114246029D01*
X113201646Y-113759848D01*
X113315720Y-113186359D01*
X113315720Y-113127641D01*
X113201646Y-112554152D01*
X112876790Y-112067971D01*
X112605959Y-111887008D01*
X113023941Y-111505490D01*
X113272088Y-110976027D01*
X113151589Y-110744000D01*
X111944120Y-110744000D01*
X111944120Y-110764000D01*
X111690120Y-110764000D01*
X111690120Y-110744000D01*
X109404120Y-110744000D01*
X109404120Y-110764000D01*
X109150120Y-110764000D01*
X109150120Y-110744000D01*
X109130120Y-110744000D01*
X109130120Y-110490000D01*
X109150120Y-110490000D01*
X109150120Y-110470000D01*
X109404120Y-110470000D01*
X109404120Y-110490000D01*
X111690120Y-110490000D01*
X111690120Y-110470000D01*
X111944120Y-110470000D01*
X111944120Y-110490000D01*
X113151589Y-110490000D01*
X113272088Y-110257973D01*
X113023941Y-109728510D01*
X112605959Y-109346992D01*
X112876790Y-109166029D01*
X113201646Y-108679848D01*
X113315720Y-108106359D01*
X113315720Y-108047641D01*
X113201646Y-107474152D01*
X112876790Y-106987971D01*
X112605948Y-106807000D01*
X112876790Y-106626029D01*
X113201646Y-106139848D01*
X113315720Y-105566359D01*
X113315720Y-105507641D01*
X113201646Y-104934152D01*
X112876790Y-104447971D01*
X112605948Y-104267000D01*
X112876790Y-104086029D01*
X113201646Y-103599848D01*
X113315720Y-103026359D01*
X113315720Y-102967641D01*
X113201646Y-102394152D01*
X112890546Y-101928558D01*
X112916037Y-101923762D01*
X113132161Y-101784690D01*
X113277151Y-101572490D01*
X113328160Y-101320600D01*
X113328160Y-99593400D01*
X113283882Y-99358083D01*
X113144810Y-99141959D01*
X112932610Y-98996969D01*
X112680720Y-98945960D01*
X110953520Y-98945960D01*
X110718203Y-98990238D01*
X110502079Y-99129310D01*
X110357089Y-99341510D01*
X110348256Y-99385131D01*
X110336790Y-99367971D01*
X109850609Y-99043115D01*
X109277120Y-98929041D01*
X108703631Y-99043115D01*
X108217450Y-99367971D01*
X108101370Y-99541697D01*
X108101370Y-91212303D01*
X108217450Y-91386029D01*
X108703631Y-91710885D01*
X109277120Y-91824959D01*
X109850609Y-91710885D01*
X110336790Y-91386029D01*
X110547120Y-91071248D01*
X110757450Y-91386029D01*
X111243631Y-91710885D01*
X111817120Y-91824959D01*
X112390609Y-91710885D01*
X112876790Y-91386029D01*
X113201646Y-90899848D01*
X113315720Y-90326359D01*
X113315720Y-90267641D01*
X113201646Y-89694152D01*
X112876790Y-89207971D01*
X112605959Y-89027008D01*
X113023941Y-88645490D01*
X113272088Y-88116027D01*
X113151589Y-87884000D01*
X111944120Y-87884000D01*
X111944120Y-87904000D01*
X111690120Y-87904000D01*
X111690120Y-87884000D01*
X109404120Y-87884000D01*
X109404120Y-87904000D01*
X109150120Y-87904000D01*
X109150120Y-87884000D01*
X109130120Y-87884000D01*
X109130120Y-87630000D01*
X109150120Y-87630000D01*
X109150120Y-87610000D01*
X109404120Y-87610000D01*
X109404120Y-87630000D01*
X111690120Y-87630000D01*
X111690120Y-87610000D01*
X111944120Y-87610000D01*
X111944120Y-87630000D01*
X113151589Y-87630000D01*
X113272088Y-87397973D01*
X113023941Y-86868510D01*
X112605959Y-86486992D01*
X112876790Y-86306029D01*
X113201646Y-85819848D01*
X113315720Y-85246359D01*
X113315720Y-85187641D01*
X113201646Y-84614152D01*
X112876790Y-84127971D01*
X112605948Y-83947000D01*
X112876790Y-83766029D01*
X113201646Y-83279848D01*
X113315720Y-82706359D01*
X113315720Y-82647641D01*
X113201646Y-82074152D01*
X112876790Y-81587971D01*
X112605948Y-81407000D01*
X112876790Y-81226029D01*
X113201646Y-80739848D01*
X113315720Y-80166359D01*
X113315720Y-80107641D01*
X113201646Y-79534152D01*
X112890546Y-79068558D01*
X112916037Y-79063762D01*
X113132161Y-78924690D01*
X113277151Y-78712490D01*
X113328160Y-78460600D01*
X113328160Y-76733400D01*
X113283882Y-76498083D01*
X113144810Y-76281959D01*
X112932610Y-76136969D01*
X112680720Y-76085960D01*
X110953520Y-76085960D01*
X110718203Y-76130238D01*
X110502079Y-76269310D01*
X110357089Y-76481510D01*
X110348256Y-76525131D01*
X110336790Y-76507971D01*
X109850609Y-76183115D01*
X109277120Y-76069041D01*
X108703631Y-76183115D01*
X108217450Y-76507971D01*
X108101370Y-76681697D01*
X108101370Y-64922400D01*
X114842141Y-64922400D01*
X114956215Y-65495889D01*
X115281071Y-65982070D01*
X115595852Y-66192400D01*
X115281071Y-66402730D01*
X114956215Y-66888911D01*
X114842141Y-67462400D01*
X114956215Y-68035889D01*
X115281071Y-68522070D01*
X115595852Y-68732400D01*
X115281071Y-68942730D01*
X114956215Y-69428911D01*
X114842141Y-70002400D01*
X114956215Y-70575889D01*
X115281071Y-71062070D01*
X115595852Y-71272400D01*
X115281071Y-71482730D01*
X114956215Y-71968911D01*
X114842141Y-72542400D01*
X114956215Y-73115889D01*
X115281071Y-73602070D01*
X115595852Y-73812400D01*
X115281071Y-74022730D01*
X114956215Y-74508911D01*
X114842141Y-75082400D01*
X114956215Y-75655889D01*
X115281071Y-76142070D01*
X115595852Y-76352400D01*
X115281071Y-76562730D01*
X114956215Y-77048911D01*
X114842141Y-77622400D01*
X114956215Y-78195889D01*
X115281071Y-78682070D01*
X115595852Y-78892400D01*
X115281071Y-79102730D01*
X114956215Y-79588911D01*
X114842141Y-80162400D01*
X114956215Y-80735889D01*
X115281071Y-81222070D01*
X115595852Y-81432400D01*
X115281071Y-81642730D01*
X114956215Y-82128911D01*
X114842141Y-82702400D01*
X114956215Y-83275889D01*
X115281071Y-83762070D01*
X115595852Y-83972400D01*
X115281071Y-84182730D01*
X114956215Y-84668911D01*
X114842141Y-85242400D01*
X114956215Y-85815889D01*
X115281071Y-86302070D01*
X115595852Y-86512400D01*
X115281071Y-86722730D01*
X114956215Y-87208911D01*
X114842141Y-87782400D01*
X114956215Y-88355889D01*
X115281071Y-88842070D01*
X115595852Y-89052400D01*
X115281071Y-89262730D01*
X114956215Y-89748911D01*
X114842141Y-90322400D01*
X114956215Y-90895889D01*
X115281071Y-91382070D01*
X115595852Y-91592400D01*
X115281071Y-91802730D01*
X114956215Y-92288911D01*
X114842141Y-92862400D01*
X114956215Y-93435889D01*
X115281071Y-93922070D01*
X115595852Y-94132400D01*
X115281071Y-94342730D01*
X114956215Y-94828911D01*
X114842141Y-95402400D01*
X114956215Y-95975889D01*
X115281071Y-96462070D01*
X115595852Y-96672400D01*
X115281071Y-96882730D01*
X114956215Y-97368911D01*
X114842141Y-97942400D01*
X114956215Y-98515889D01*
X115281071Y-99002070D01*
X115595852Y-99212400D01*
X115281071Y-99422730D01*
X114956215Y-99908911D01*
X114842141Y-100482400D01*
X114956215Y-101055889D01*
X115281071Y-101542070D01*
X115595852Y-101752400D01*
X115281071Y-101962730D01*
X114956215Y-102448911D01*
X114842141Y-103022400D01*
X114956215Y-103595889D01*
X115281071Y-104082070D01*
X115595852Y-104292400D01*
X115281071Y-104502730D01*
X114956215Y-104988911D01*
X114842141Y-105562400D01*
X114956215Y-106135889D01*
X115281071Y-106622070D01*
X115595852Y-106832400D01*
X115281071Y-107042730D01*
X114956215Y-107528911D01*
X114842141Y-108102400D01*
X114956215Y-108675889D01*
X115281071Y-109162070D01*
X115595852Y-109372400D01*
X115281071Y-109582730D01*
X114956215Y-110068911D01*
X114842141Y-110642400D01*
X114956215Y-111215889D01*
X115281071Y-111702070D01*
X115595852Y-111912400D01*
X115281071Y-112122730D01*
X114956215Y-112608911D01*
X114842141Y-113182400D01*
X114956215Y-113755889D01*
X115281071Y-114242070D01*
X115604328Y-114458064D01*
X115481610Y-114515579D01*
X115087412Y-114947453D01*
X114915142Y-115363374D01*
X115036283Y-115595400D01*
X116243100Y-115595400D01*
X116243100Y-115575400D01*
X116497100Y-115575400D01*
X116497100Y-115595400D01*
X118783100Y-115595400D01*
X118783100Y-115575400D01*
X119037100Y-115575400D01*
X119037100Y-115595400D01*
X120243917Y-115595400D01*
X120365058Y-115363374D01*
X120192788Y-114947453D01*
X119798590Y-114515579D01*
X119675872Y-114458064D01*
X119999129Y-114242070D01*
X120323985Y-113755889D01*
X120438059Y-113182400D01*
X120325847Y-112618267D01*
X129900238Y-112618267D01*
X130042283Y-112962043D01*
X130305073Y-113225292D01*
X130648601Y-113367938D01*
X131020567Y-113368262D01*
X131364343Y-113226217D01*
X131627592Y-112963427D01*
X131628530Y-112961167D01*
X136504238Y-112961167D01*
X136646283Y-113304943D01*
X136909073Y-113568192D01*
X137252601Y-113710838D01*
X137624567Y-113711162D01*
X137968343Y-113569117D01*
X138231592Y-113306327D01*
X138374238Y-112962799D01*
X138374562Y-112590833D01*
X138232517Y-112247057D01*
X137969727Y-111983808D01*
X137626199Y-111841162D01*
X137254233Y-111840838D01*
X136910457Y-111982883D01*
X136647208Y-112245673D01*
X136504562Y-112589201D01*
X136504238Y-112961167D01*
X131628530Y-112961167D01*
X131770238Y-112619899D01*
X131770562Y-112247933D01*
X131628517Y-111904157D01*
X131365727Y-111640908D01*
X131022199Y-111498262D01*
X130650233Y-111497938D01*
X130306457Y-111639983D01*
X130043208Y-111902773D01*
X129900562Y-112246301D01*
X129900238Y-112618267D01*
X120325847Y-112618267D01*
X120323985Y-112608911D01*
X119999129Y-112122730D01*
X119684348Y-111912400D01*
X119999129Y-111702070D01*
X120323985Y-111215889D01*
X120346605Y-111102167D01*
X126557838Y-111102167D01*
X126699883Y-111445943D01*
X126962673Y-111709192D01*
X127306201Y-111851838D01*
X127678167Y-111852162D01*
X128021943Y-111710117D01*
X128285192Y-111447327D01*
X128356574Y-111275420D01*
X149958652Y-111275420D01*
X150100697Y-111619196D01*
X150363487Y-111882445D01*
X150707015Y-112025091D01*
X151078981Y-112025415D01*
X151422757Y-111883370D01*
X151686006Y-111620580D01*
X151828652Y-111277052D01*
X151828976Y-110905086D01*
X151686931Y-110561310D01*
X151424141Y-110298061D01*
X151080613Y-110155415D01*
X150708647Y-110155091D01*
X150364871Y-110297136D01*
X150101622Y-110559926D01*
X149958976Y-110903454D01*
X149958652Y-111275420D01*
X128356574Y-111275420D01*
X128427838Y-111103799D01*
X128428162Y-110731833D01*
X128286117Y-110388057D01*
X128023327Y-110124808D01*
X127679799Y-109982162D01*
X127307833Y-109981838D01*
X126964057Y-110123883D01*
X126700808Y-110386673D01*
X126558162Y-110730201D01*
X126557838Y-111102167D01*
X120346605Y-111102167D01*
X120438059Y-110642400D01*
X120323985Y-110068911D01*
X119999129Y-109582730D01*
X119684348Y-109372400D01*
X119999129Y-109162070D01*
X120323985Y-108675889D01*
X120346605Y-108562167D01*
X122431838Y-108562167D01*
X122573883Y-108905943D01*
X122836673Y-109169192D01*
X123180201Y-109311838D01*
X123230772Y-109311882D01*
X123093362Y-109642801D01*
X123093038Y-110014767D01*
X123235083Y-110358543D01*
X123497873Y-110621792D01*
X123841401Y-110764438D01*
X124213367Y-110764762D01*
X124557143Y-110622717D01*
X124820392Y-110359927D01*
X124963038Y-110016399D01*
X124963335Y-109675167D01*
X139214838Y-109675167D01*
X139356883Y-110018943D01*
X139619673Y-110282192D01*
X139963201Y-110424838D01*
X140335167Y-110425162D01*
X140678943Y-110283117D01*
X140942192Y-110020327D01*
X141084838Y-109676799D01*
X141085162Y-109304833D01*
X140943117Y-108961057D01*
X140680327Y-108697808D01*
X140336799Y-108555162D01*
X139964833Y-108554838D01*
X139621057Y-108696883D01*
X139357808Y-108959673D01*
X139215162Y-109303201D01*
X139214838Y-109675167D01*
X124963335Y-109675167D01*
X124963362Y-109644433D01*
X124821317Y-109300657D01*
X124558527Y-109037408D01*
X124214999Y-108894762D01*
X124164428Y-108894718D01*
X124301838Y-108563799D01*
X124302162Y-108191833D01*
X124160117Y-107848057D01*
X123897327Y-107584808D01*
X123571151Y-107449367D01*
X130103438Y-107449367D01*
X130245483Y-107793143D01*
X130508273Y-108056392D01*
X130851801Y-108199038D01*
X131223767Y-108199362D01*
X131567543Y-108057317D01*
X131662077Y-107962947D01*
X136573275Y-107962947D01*
X136715320Y-108306723D01*
X136978110Y-108569972D01*
X137321638Y-108712618D01*
X137693604Y-108712942D01*
X138037380Y-108570897D01*
X138300629Y-108308107D01*
X138443275Y-107964579D01*
X138443599Y-107592613D01*
X138312665Y-107275727D01*
X149924146Y-107275727D01*
X150066191Y-107619503D01*
X150328981Y-107882752D01*
X150672509Y-108025398D01*
X151044475Y-108025722D01*
X151388251Y-107883677D01*
X151651500Y-107620887D01*
X151794146Y-107277359D01*
X151794470Y-106905393D01*
X151652425Y-106561617D01*
X151389635Y-106298368D01*
X151046107Y-106155722D01*
X150674141Y-106155398D01*
X150330365Y-106297443D01*
X150067116Y-106560233D01*
X149924470Y-106903761D01*
X149924146Y-107275727D01*
X138312665Y-107275727D01*
X138301554Y-107248837D01*
X138038764Y-106985588D01*
X137695236Y-106842942D01*
X137323270Y-106842618D01*
X136979494Y-106984663D01*
X136716245Y-107247453D01*
X136573599Y-107590981D01*
X136573275Y-107962947D01*
X131662077Y-107962947D01*
X131830792Y-107794527D01*
X131973438Y-107450999D01*
X131973762Y-107079033D01*
X131831717Y-106735257D01*
X131568927Y-106472008D01*
X131225399Y-106329362D01*
X130853433Y-106329038D01*
X130509657Y-106471083D01*
X130246408Y-106733873D01*
X130103762Y-107077401D01*
X130103438Y-107449367D01*
X123571151Y-107449367D01*
X123553799Y-107442162D01*
X123181833Y-107441838D01*
X122838057Y-107583883D01*
X122574808Y-107846673D01*
X122432162Y-108190201D01*
X122431838Y-108562167D01*
X120346605Y-108562167D01*
X120438059Y-108102400D01*
X120323985Y-107528911D01*
X119999129Y-107042730D01*
X119684348Y-106832400D01*
X119999129Y-106622070D01*
X120323985Y-106135889D01*
X120438059Y-105562400D01*
X120323985Y-104988911D01*
X119999129Y-104502730D01*
X119684348Y-104292400D01*
X119999129Y-104082070D01*
X120323985Y-103595889D01*
X120438059Y-103022400D01*
X120363739Y-102648767D01*
X123982038Y-102648767D01*
X124124083Y-102992543D01*
X124386873Y-103255792D01*
X124730401Y-103398438D01*
X125102367Y-103398762D01*
X125253294Y-103336400D01*
X127048960Y-103336400D01*
X127048960Y-105063600D01*
X127093238Y-105298917D01*
X127232310Y-105515041D01*
X127444510Y-105660031D01*
X127696400Y-105711040D01*
X129423600Y-105711040D01*
X129658917Y-105666762D01*
X129875041Y-105527690D01*
X130020031Y-105315490D01*
X130071040Y-105063600D01*
X130071040Y-103336400D01*
X130678960Y-103336400D01*
X130678960Y-105063600D01*
X130723238Y-105298917D01*
X130862310Y-105515041D01*
X131074510Y-105660031D01*
X131326400Y-105711040D01*
X133053600Y-105711040D01*
X133288917Y-105666762D01*
X133505041Y-105527690D01*
X133650031Y-105315490D01*
X133701040Y-105063600D01*
X133701040Y-103336400D01*
X133656762Y-103101083D01*
X133517690Y-102884959D01*
X133305490Y-102739969D01*
X133261655Y-102731092D01*
X133432658Y-102475167D01*
X139174838Y-102475167D01*
X139316883Y-102818943D01*
X139579673Y-103082192D01*
X139603084Y-103091913D01*
X139591057Y-103096883D01*
X139327808Y-103359673D01*
X139185162Y-103703201D01*
X139184838Y-104075167D01*
X139326883Y-104418943D01*
X139589673Y-104682192D01*
X139647202Y-104706080D01*
X139621057Y-104716883D01*
X139357808Y-104979673D01*
X139215162Y-105323201D01*
X139214838Y-105695167D01*
X139356883Y-106038943D01*
X139619673Y-106302192D01*
X139963201Y-106444838D01*
X140335167Y-106445162D01*
X140678943Y-106303117D01*
X140942192Y-106040327D01*
X141084838Y-105696799D01*
X141084971Y-105544341D01*
X141208943Y-105493117D01*
X141472192Y-105230327D01*
X141614838Y-104886799D01*
X141615162Y-104514833D01*
X141473117Y-104171057D01*
X141210327Y-103907808D01*
X141135383Y-103876688D01*
X141392192Y-103620327D01*
X141534838Y-103276799D01*
X141535162Y-102904833D01*
X141393117Y-102561057D01*
X141130327Y-102297808D01*
X141045025Y-102262387D01*
X141045162Y-102104833D01*
X140938614Y-101846968D01*
X141068943Y-101793117D01*
X141332192Y-101530327D01*
X141474838Y-101186799D01*
X141475162Y-100814833D01*
X141333117Y-100471057D01*
X141070327Y-100207808D01*
X140726799Y-100065162D01*
X140354833Y-100064838D01*
X140011057Y-100206883D01*
X139747808Y-100469673D01*
X139605162Y-100813201D01*
X139604838Y-101185167D01*
X139711386Y-101443032D01*
X139581057Y-101496883D01*
X139317808Y-101759673D01*
X139175162Y-102103201D01*
X139174838Y-102475167D01*
X133432658Y-102475167D01*
X133574526Y-102262848D01*
X133688600Y-101689359D01*
X133688600Y-101630641D01*
X133574526Y-101057152D01*
X133452928Y-100875167D01*
X136814838Y-100875167D01*
X136956883Y-101218943D01*
X137219673Y-101482192D01*
X137563201Y-101624838D01*
X137935167Y-101625162D01*
X138278943Y-101483117D01*
X138542192Y-101220327D01*
X138684838Y-100876799D01*
X138685162Y-100504833D01*
X138543117Y-100161057D01*
X138280327Y-99897808D01*
X137936799Y-99755162D01*
X137564833Y-99754838D01*
X137221057Y-99896883D01*
X136957808Y-100159673D01*
X136815162Y-100503201D01*
X136814838Y-100875167D01*
X133452928Y-100875167D01*
X133249670Y-100570971D01*
X132763489Y-100246115D01*
X132190000Y-100132041D01*
X131616511Y-100246115D01*
X131130330Y-100570971D01*
X130805474Y-101057152D01*
X130691400Y-101630641D01*
X130691400Y-101689359D01*
X130805474Y-102262848D01*
X131116574Y-102728442D01*
X131091083Y-102733238D01*
X130874959Y-102872310D01*
X130729969Y-103084510D01*
X130678960Y-103336400D01*
X130071040Y-103336400D01*
X130026762Y-103101083D01*
X129887690Y-102884959D01*
X129675490Y-102739969D01*
X129631655Y-102731092D01*
X129944526Y-102262848D01*
X130058600Y-101689359D01*
X130058600Y-101630641D01*
X129944526Y-101057152D01*
X129619670Y-100570971D01*
X129133489Y-100246115D01*
X128560000Y-100132041D01*
X127986511Y-100246115D01*
X127500330Y-100570971D01*
X127175474Y-101057152D01*
X127061400Y-101630641D01*
X127061400Y-101689359D01*
X127175474Y-102262848D01*
X127486574Y-102728442D01*
X127461083Y-102733238D01*
X127244959Y-102872310D01*
X127099969Y-103084510D01*
X127048960Y-103336400D01*
X125253294Y-103336400D01*
X125446143Y-103256717D01*
X125709392Y-102993927D01*
X125852038Y-102650399D01*
X125852362Y-102278433D01*
X125710317Y-101934657D01*
X125447527Y-101671408D01*
X125103999Y-101528762D01*
X124732033Y-101528438D01*
X124388257Y-101670483D01*
X124125008Y-101933273D01*
X123982362Y-102276801D01*
X123982038Y-102648767D01*
X120363739Y-102648767D01*
X120323985Y-102448911D01*
X119999129Y-101962730D01*
X119684348Y-101752400D01*
X119999129Y-101542070D01*
X120323985Y-101055889D01*
X120438059Y-100482400D01*
X120323985Y-99908911D01*
X119999129Y-99422730D01*
X119684348Y-99212400D01*
X119999129Y-99002070D01*
X120323985Y-98515889D01*
X120436593Y-97949767D01*
X126547438Y-97949767D01*
X126689483Y-98293543D01*
X126952273Y-98556792D01*
X127295801Y-98699438D01*
X127667767Y-98699762D01*
X128011543Y-98557717D01*
X128274792Y-98294927D01*
X128417438Y-97951399D01*
X128417439Y-97949767D01*
X130154238Y-97949767D01*
X130296283Y-98293543D01*
X130559073Y-98556792D01*
X130902601Y-98699438D01*
X131274567Y-98699762D01*
X131618343Y-98557717D01*
X131881592Y-98294927D01*
X132024238Y-97951399D01*
X132024421Y-97740919D01*
X136863008Y-97740919D01*
X137005053Y-98084695D01*
X137267843Y-98347944D01*
X137611371Y-98490590D01*
X137983337Y-98490914D01*
X138069851Y-98455167D01*
X139184838Y-98455167D01*
X139326883Y-98798943D01*
X139589673Y-99062192D01*
X139933201Y-99204838D01*
X140305167Y-99205162D01*
X140648943Y-99063117D01*
X140912192Y-98800327D01*
X141043058Y-98485167D01*
X147354838Y-98485167D01*
X147496883Y-98828943D01*
X147759673Y-99092192D01*
X147766026Y-99094830D01*
X147761057Y-99096883D01*
X147497808Y-99359673D01*
X147355162Y-99703201D01*
X147354838Y-100075167D01*
X147496883Y-100418943D01*
X147759673Y-100682192D01*
X147793060Y-100696055D01*
X147791057Y-100696883D01*
X147527808Y-100959673D01*
X147385162Y-101303201D01*
X147384838Y-101675167D01*
X147526883Y-102018943D01*
X147789673Y-102282192D01*
X147864605Y-102313307D01*
X147617808Y-102559673D01*
X147475162Y-102903201D01*
X147474838Y-103275167D01*
X147616883Y-103618943D01*
X147879673Y-103882192D01*
X147883134Y-103883629D01*
X147851057Y-103896883D01*
X147587808Y-104159673D01*
X147445162Y-104503201D01*
X147444838Y-104875167D01*
X147586883Y-105218943D01*
X147849673Y-105482192D01*
X147944980Y-105521767D01*
X147944838Y-105685167D01*
X148086883Y-106028943D01*
X148349673Y-106292192D01*
X148693201Y-106434838D01*
X149065167Y-106435162D01*
X149408943Y-106293117D01*
X149672192Y-106030327D01*
X149814838Y-105686799D01*
X149815162Y-105314833D01*
X149673117Y-104971057D01*
X149412448Y-104709933D01*
X149428943Y-104703117D01*
X149692192Y-104440327D01*
X149834838Y-104096799D01*
X149835162Y-103724833D01*
X149693117Y-103381057D01*
X149430327Y-103117808D01*
X149350752Y-103084765D01*
X149378943Y-103073117D01*
X149642192Y-102810327D01*
X149784838Y-102466799D01*
X149785162Y-102094833D01*
X149643117Y-101751057D01*
X149388288Y-101495783D01*
X149418943Y-101483117D01*
X149682192Y-101220327D01*
X149824838Y-100876799D01*
X149825162Y-100504833D01*
X149683117Y-100161057D01*
X149420327Y-99897808D01*
X149386940Y-99883945D01*
X149388943Y-99883117D01*
X149652192Y-99620327D01*
X149794838Y-99276799D01*
X149795162Y-98904833D01*
X149653117Y-98561057D01*
X149390327Y-98297808D01*
X149387076Y-98296458D01*
X149395163Y-98293117D01*
X149658412Y-98030327D01*
X149801058Y-97686799D01*
X149801382Y-97314833D01*
X149659337Y-96971057D01*
X149564158Y-96875711D01*
X149913149Y-96875711D01*
X150055194Y-97219487D01*
X150317984Y-97482736D01*
X150661512Y-97625382D01*
X151033478Y-97625706D01*
X151377254Y-97483661D01*
X151640503Y-97220871D01*
X151783149Y-96877343D01*
X151783473Y-96505377D01*
X151641428Y-96161601D01*
X151378638Y-95898352D01*
X151035110Y-95755706D01*
X150663144Y-95755382D01*
X150319368Y-95897427D01*
X150056119Y-96160217D01*
X149913473Y-96503745D01*
X149913149Y-96875711D01*
X149564158Y-96875711D01*
X149396547Y-96707808D01*
X149053019Y-96565162D01*
X148681053Y-96564838D01*
X148337277Y-96706883D01*
X148074028Y-96969673D01*
X147931382Y-97313201D01*
X147931275Y-97436551D01*
X147761057Y-97506883D01*
X147497808Y-97769673D01*
X147355162Y-98113201D01*
X147354838Y-98485167D01*
X141043058Y-98485167D01*
X141054838Y-98456799D01*
X141055162Y-98084833D01*
X140913117Y-97741057D01*
X140650327Y-97477808D01*
X140306799Y-97335162D01*
X139934833Y-97334838D01*
X139591057Y-97476883D01*
X139327808Y-97739673D01*
X139185162Y-98083201D01*
X139184838Y-98455167D01*
X138069851Y-98455167D01*
X138327113Y-98348869D01*
X138590362Y-98086079D01*
X138733008Y-97742551D01*
X138733332Y-97370585D01*
X138591287Y-97026809D01*
X138328497Y-96763560D01*
X137984969Y-96620914D01*
X137613003Y-96620590D01*
X137269227Y-96762635D01*
X137005978Y-97025425D01*
X136863332Y-97368953D01*
X136863008Y-97740919D01*
X132024421Y-97740919D01*
X132024562Y-97579433D01*
X131882517Y-97235657D01*
X131619727Y-96972408D01*
X131276199Y-96829762D01*
X130904233Y-96829438D01*
X130560457Y-96971483D01*
X130297208Y-97234273D01*
X130154562Y-97577801D01*
X130154238Y-97949767D01*
X128417439Y-97949767D01*
X128417762Y-97579433D01*
X128275717Y-97235657D01*
X128012927Y-96972408D01*
X127669399Y-96829762D01*
X127297433Y-96829438D01*
X126953657Y-96971483D01*
X126690408Y-97234273D01*
X126547762Y-97577801D01*
X126547438Y-97949767D01*
X120436593Y-97949767D01*
X120438059Y-97942400D01*
X120323985Y-97368911D01*
X119999129Y-96882730D01*
X119684348Y-96672400D01*
X119999129Y-96462070D01*
X120323985Y-95975889D01*
X120338906Y-95900873D01*
X126692655Y-95900873D01*
X126834700Y-96244649D01*
X127097490Y-96507898D01*
X127441018Y-96650544D01*
X127812984Y-96650868D01*
X128156760Y-96508823D01*
X128420009Y-96246033D01*
X128562655Y-95902505D01*
X128562979Y-95530539D01*
X128420934Y-95186763D01*
X128191652Y-94957081D01*
X128435419Y-94713739D01*
X128526095Y-94495367D01*
X158945138Y-94495367D01*
X159087183Y-94839143D01*
X159349973Y-95102392D01*
X159693501Y-95245038D01*
X160065467Y-95245362D01*
X160409243Y-95103317D01*
X160672492Y-94840527D01*
X160815138Y-94496999D01*
X160815462Y-94125033D01*
X160673417Y-93781257D01*
X160410627Y-93518008D01*
X160067099Y-93375362D01*
X159695133Y-93375038D01*
X159351357Y-93517083D01*
X159088108Y-93779873D01*
X158945462Y-94123401D01*
X158945138Y-94495367D01*
X128526095Y-94495367D01*
X128578065Y-94370211D01*
X128578389Y-93998245D01*
X128436344Y-93654469D01*
X128173554Y-93391220D01*
X127830026Y-93248574D01*
X127458060Y-93248250D01*
X127114284Y-93390295D01*
X126851035Y-93653085D01*
X126708389Y-93996613D01*
X126708065Y-94368579D01*
X126850110Y-94712355D01*
X127079392Y-94942037D01*
X126835625Y-95185379D01*
X126692979Y-95528907D01*
X126692655Y-95900873D01*
X120338906Y-95900873D01*
X120438059Y-95402400D01*
X120323985Y-94828911D01*
X119999129Y-94342730D01*
X119684348Y-94132400D01*
X119999129Y-93922070D01*
X120323985Y-93435889D01*
X120438059Y-92862400D01*
X120366745Y-92503880D01*
X148961966Y-92503880D01*
X149104011Y-92847656D01*
X149366801Y-93110905D01*
X149710329Y-93253551D01*
X150082295Y-93253875D01*
X150426071Y-93111830D01*
X150689320Y-92849040D01*
X150831966Y-92505512D01*
X150832290Y-92133546D01*
X150690245Y-91789770D01*
X150427455Y-91526521D01*
X150083927Y-91383875D01*
X149711961Y-91383551D01*
X149368185Y-91525596D01*
X149104936Y-91788386D01*
X148962290Y-92131914D01*
X148961966Y-92503880D01*
X120366745Y-92503880D01*
X120323985Y-92288911D01*
X119999129Y-91802730D01*
X119684348Y-91592400D01*
X119999129Y-91382070D01*
X120323985Y-90895889D01*
X120438059Y-90322400D01*
X120365012Y-89955167D01*
X122394838Y-89955167D01*
X122536883Y-90298943D01*
X122799673Y-90562192D01*
X123143201Y-90704838D01*
X123515167Y-90705162D01*
X123858943Y-90563117D01*
X124122192Y-90300327D01*
X124264838Y-89956799D01*
X124265162Y-89584833D01*
X124200404Y-89428106D01*
X130412509Y-89428106D01*
X130554554Y-89771882D01*
X130817344Y-90035131D01*
X131160872Y-90177777D01*
X131532838Y-90178101D01*
X131876614Y-90036056D01*
X132139863Y-89773266D01*
X132250035Y-89507944D01*
X132503871Y-89508165D01*
X132847647Y-89366120D01*
X133110896Y-89103330D01*
X133253542Y-88759802D01*
X133253866Y-88387836D01*
X133111821Y-88044060D01*
X132934039Y-87865967D01*
X134853238Y-87865967D01*
X134995283Y-88209743D01*
X135258073Y-88472992D01*
X135601601Y-88615638D01*
X135612962Y-88615648D01*
X135509783Y-88864129D01*
X135509459Y-89236095D01*
X135651504Y-89579871D01*
X135914294Y-89843120D01*
X136257822Y-89985766D01*
X136629788Y-89986090D01*
X136649132Y-89978097D01*
X136794773Y-90123992D01*
X137138301Y-90266638D01*
X137510267Y-90266962D01*
X137854043Y-90124917D01*
X138117292Y-89862127D01*
X138224739Y-89603366D01*
X143524642Y-89603366D01*
X143666687Y-89947142D01*
X143929477Y-90210391D01*
X144273005Y-90353037D01*
X144644971Y-90353361D01*
X144988747Y-90211316D01*
X145251996Y-89948526D01*
X145394642Y-89604998D01*
X145394966Y-89233032D01*
X145252921Y-88889256D01*
X144990131Y-88626007D01*
X144646603Y-88483361D01*
X144274637Y-88483037D01*
X143930861Y-88625082D01*
X143667612Y-88887872D01*
X143524966Y-89231400D01*
X143524642Y-89603366D01*
X138224739Y-89603366D01*
X138259938Y-89518599D01*
X138260262Y-89146633D01*
X138118217Y-88802857D01*
X137855427Y-88539608D01*
X137511899Y-88396962D01*
X137139933Y-88396638D01*
X137120589Y-88404631D01*
X136974948Y-88258736D01*
X136631420Y-88116090D01*
X136620059Y-88116080D01*
X136723238Y-87867599D01*
X136723379Y-87705564D01*
X136794854Y-87878547D01*
X137057644Y-88141796D01*
X137401172Y-88284442D01*
X137773138Y-88284766D01*
X137965834Y-88205146D01*
X138200974Y-88302785D01*
X138572940Y-88303109D01*
X138758437Y-88226463D01*
X139000618Y-88327026D01*
X139372584Y-88327350D01*
X139603416Y-88231972D01*
X139800521Y-88313818D01*
X140172487Y-88314142D01*
X140403592Y-88218652D01*
X140600420Y-88300382D01*
X140972386Y-88300706D01*
X141316162Y-88158661D01*
X141362606Y-88112298D01*
X141379690Y-88119392D01*
X141751656Y-88119716D01*
X142095432Y-87977671D01*
X142358681Y-87714881D01*
X142367177Y-87694420D01*
X142542275Y-87694573D01*
X142886051Y-87552528D01*
X143016670Y-87422136D01*
X143029675Y-87453610D01*
X143292465Y-87716859D01*
X143635993Y-87859505D01*
X144007959Y-87859829D01*
X144245316Y-87761755D01*
X144496930Y-87866235D01*
X144868896Y-87866559D01*
X145120226Y-87762712D01*
X145296364Y-87835851D01*
X145668330Y-87836175D01*
X146012106Y-87694130D01*
X146275355Y-87431340D01*
X146418001Y-87087812D01*
X146418325Y-86715846D01*
X146276280Y-86372070D01*
X146013490Y-86108821D01*
X145669962Y-85966175D01*
X145297996Y-85965851D01*
X145046666Y-86069698D01*
X144870528Y-85996559D01*
X144498562Y-85996235D01*
X144261205Y-86094309D01*
X144009591Y-85989829D01*
X143861980Y-85989700D01*
X143916966Y-85857280D01*
X143917290Y-85485314D01*
X143775245Y-85141538D01*
X143512455Y-84878289D01*
X143168927Y-84735643D01*
X142796961Y-84735319D01*
X142453185Y-84877364D01*
X142189936Y-85140154D01*
X142047290Y-85483682D01*
X142046966Y-85855648D01*
X142054109Y-85872936D01*
X141828165Y-85966294D01*
X141564916Y-86229084D01*
X141556420Y-86249545D01*
X141381322Y-86249392D01*
X141037546Y-86391437D01*
X140991102Y-86437800D01*
X140974018Y-86430706D01*
X140602052Y-86430382D01*
X140370947Y-86525872D01*
X140174119Y-86444142D01*
X139802153Y-86443818D01*
X139571321Y-86539196D01*
X139374216Y-86457350D01*
X139002250Y-86457026D01*
X138816753Y-86533672D01*
X138574572Y-86433109D01*
X138202606Y-86432785D01*
X138009910Y-86512405D01*
X137774770Y-86414766D01*
X137402804Y-86414442D01*
X137059028Y-86556487D01*
X136795779Y-86819277D01*
X136653133Y-87162805D01*
X136652992Y-87324840D01*
X136581517Y-87151857D01*
X136318727Y-86888608D01*
X135975199Y-86745962D01*
X135603233Y-86745638D01*
X135259457Y-86887683D01*
X134996208Y-87150473D01*
X134853562Y-87494001D01*
X134853238Y-87865967D01*
X132934039Y-87865967D01*
X132849031Y-87780811D01*
X132505503Y-87638165D01*
X132133537Y-87637841D01*
X131789761Y-87779886D01*
X131526512Y-88042676D01*
X131416340Y-88307998D01*
X131162504Y-88307777D01*
X130818728Y-88449822D01*
X130555479Y-88712612D01*
X130412833Y-89056140D01*
X130412509Y-89428106D01*
X124200404Y-89428106D01*
X124123117Y-89241057D01*
X123860327Y-88977808D01*
X123516799Y-88835162D01*
X123144833Y-88834838D01*
X122801057Y-88976883D01*
X122537808Y-89239673D01*
X122395162Y-89583201D01*
X122394838Y-89955167D01*
X120365012Y-89955167D01*
X120323985Y-89748911D01*
X119999129Y-89262730D01*
X119684348Y-89052400D01*
X119999129Y-88842070D01*
X120184149Y-88565167D01*
X126924838Y-88565167D01*
X127066883Y-88908943D01*
X127329673Y-89172192D01*
X127673201Y-89314838D01*
X128045167Y-89315162D01*
X128388943Y-89173117D01*
X128652192Y-88910327D01*
X128794838Y-88566799D01*
X128795162Y-88194833D01*
X128653117Y-87851057D01*
X128390327Y-87587808D01*
X128046799Y-87445162D01*
X127674833Y-87444838D01*
X127331057Y-87586883D01*
X127067808Y-87849673D01*
X126925162Y-88193201D01*
X126924838Y-88565167D01*
X120184149Y-88565167D01*
X120323985Y-88355889D01*
X120438059Y-87782400D01*
X120323985Y-87208911D01*
X119999129Y-86722730D01*
X119684348Y-86512400D01*
X119999129Y-86302070D01*
X120323985Y-85815889D01*
X120438059Y-85242400D01*
X120323985Y-84668911D01*
X119999129Y-84182730D01*
X119927946Y-84135167D01*
X137494838Y-84135167D01*
X137636883Y-84478943D01*
X137899673Y-84742192D01*
X138243201Y-84884838D01*
X138523072Y-84885082D01*
X138522971Y-85000857D01*
X138665016Y-85344633D01*
X138927806Y-85607882D01*
X139271334Y-85750528D01*
X139643300Y-85750852D01*
X139987076Y-85608807D01*
X140250325Y-85346017D01*
X140392971Y-85002489D01*
X140393295Y-84630523D01*
X140251250Y-84286747D01*
X139988460Y-84023498D01*
X139644932Y-83880852D01*
X139365061Y-83880608D01*
X139365162Y-83764833D01*
X139242835Y-83468778D01*
X139331534Y-83255167D01*
X139424838Y-83255167D01*
X139566883Y-83598943D01*
X139829673Y-83862192D01*
X140173201Y-84004838D01*
X140545167Y-84005162D01*
X140888943Y-83863117D01*
X141152192Y-83600327D01*
X141294838Y-83256799D01*
X141295162Y-82884833D01*
X141153117Y-82541057D01*
X140890327Y-82277808D01*
X140546799Y-82135162D01*
X140174833Y-82134838D01*
X139831057Y-82276883D01*
X139567808Y-82539673D01*
X139425162Y-82883201D01*
X139424838Y-83255167D01*
X139331534Y-83255167D01*
X139384838Y-83126799D01*
X139385162Y-82754833D01*
X139243117Y-82411057D01*
X138980327Y-82147808D01*
X138636799Y-82005162D01*
X138264833Y-82004838D01*
X137921057Y-82146883D01*
X137657808Y-82409673D01*
X137515162Y-82753201D01*
X137514838Y-83125167D01*
X137637165Y-83421222D01*
X137495162Y-83763201D01*
X137494838Y-84135167D01*
X119927946Y-84135167D01*
X119684348Y-83972400D01*
X119999129Y-83762070D01*
X120323985Y-83275889D01*
X120438059Y-82702400D01*
X120323985Y-82128911D01*
X120283785Y-82068747D01*
X124804006Y-82068747D01*
X124946051Y-82412523D01*
X125208841Y-82675772D01*
X125552369Y-82818418D01*
X125924335Y-82818742D01*
X126268111Y-82676697D01*
X126531360Y-82413907D01*
X126674006Y-82070379D01*
X126674062Y-82005167D01*
X131664838Y-82005167D01*
X131806883Y-82348943D01*
X132069673Y-82612192D01*
X132413201Y-82754838D01*
X132785167Y-82755162D01*
X133128943Y-82613117D01*
X133392192Y-82350327D01*
X133534838Y-82006799D01*
X133535162Y-81634833D01*
X133393117Y-81291057D01*
X133257464Y-81155167D01*
X137308618Y-81155167D01*
X137450663Y-81498943D01*
X137713453Y-81762192D01*
X138056981Y-81904838D01*
X138428947Y-81905162D01*
X138772723Y-81763117D01*
X139035972Y-81500327D01*
X139178618Y-81156799D01*
X139178898Y-80835167D01*
X145264838Y-80835167D01*
X145406883Y-81178943D01*
X145669673Y-81442192D01*
X145714920Y-81460980D01*
X145714838Y-81555167D01*
X145856883Y-81898943D01*
X146064993Y-82107416D01*
X146064838Y-82285167D01*
X146206883Y-82628943D01*
X146424984Y-82847425D01*
X146424838Y-83015167D01*
X146566883Y-83358943D01*
X146785010Y-83577451D01*
X146784838Y-83775167D01*
X146926883Y-84118943D01*
X147145019Y-84337460D01*
X147144838Y-84545167D01*
X147286883Y-84888943D01*
X147495010Y-85097434D01*
X147494838Y-85295167D01*
X147636883Y-85638943D01*
X147825036Y-85827425D01*
X147824838Y-86055167D01*
X147966883Y-86398943D01*
X148175010Y-86607434D01*
X148174838Y-86805167D01*
X148316883Y-87148943D01*
X148535002Y-87367442D01*
X148534838Y-87555167D01*
X148676883Y-87898943D01*
X148939673Y-88162192D01*
X149283201Y-88304838D01*
X149355099Y-88304901D01*
X149261675Y-88398162D01*
X149119029Y-88741690D01*
X149118705Y-89113656D01*
X149260750Y-89457432D01*
X149523540Y-89720681D01*
X149867068Y-89863327D01*
X150239034Y-89863651D01*
X150582810Y-89721606D01*
X150846059Y-89458816D01*
X150988705Y-89115288D01*
X150989029Y-88743322D01*
X150846984Y-88399546D01*
X150584194Y-88136297D01*
X150240666Y-87993651D01*
X150168768Y-87993588D01*
X150262192Y-87900327D01*
X150404838Y-87556799D01*
X150405162Y-87184833D01*
X150312434Y-86960412D01*
X152863790Y-86960412D01*
X153005835Y-87304188D01*
X153268625Y-87567437D01*
X153612153Y-87710083D01*
X153984119Y-87710407D01*
X154327895Y-87568362D01*
X154591144Y-87305572D01*
X154733790Y-86962044D01*
X154734114Y-86590078D01*
X154592069Y-86246302D01*
X154329279Y-85983053D01*
X153985751Y-85840407D01*
X153613785Y-85840083D01*
X153270009Y-85982128D01*
X153006760Y-86244918D01*
X152864114Y-86588446D01*
X152863790Y-86960412D01*
X150312434Y-86960412D01*
X150263117Y-86841057D01*
X150044998Y-86622558D01*
X150045162Y-86434833D01*
X149903117Y-86091057D01*
X149694990Y-85882566D01*
X149695162Y-85684833D01*
X149553117Y-85341057D01*
X149364964Y-85152575D01*
X149365162Y-84924833D01*
X149223117Y-84581057D01*
X149014990Y-84372566D01*
X149015162Y-84174833D01*
X148873117Y-83831057D01*
X148654981Y-83612540D01*
X148655162Y-83404833D01*
X148513117Y-83061057D01*
X148294990Y-82842549D01*
X148295162Y-82644833D01*
X148233834Y-82496407D01*
X155655838Y-82496407D01*
X155797883Y-82840183D01*
X156060673Y-83103432D01*
X156404201Y-83246078D01*
X156776167Y-83246402D01*
X157119943Y-83104357D01*
X157383192Y-82841567D01*
X157525838Y-82498039D01*
X157526162Y-82126073D01*
X157384117Y-81782297D01*
X157121327Y-81519048D01*
X156777799Y-81376402D01*
X156405833Y-81376078D01*
X156062057Y-81518123D01*
X155798808Y-81780913D01*
X155656162Y-82124441D01*
X155655838Y-82496407D01*
X148233834Y-82496407D01*
X148153117Y-82301057D01*
X147935016Y-82082575D01*
X147935162Y-81914833D01*
X147793117Y-81571057D01*
X147585007Y-81362584D01*
X147585162Y-81184833D01*
X147443117Y-80841057D01*
X147417862Y-80815757D01*
X157871235Y-80815757D01*
X158013280Y-81159533D01*
X158276070Y-81422782D01*
X158619598Y-81565428D01*
X158991564Y-81565752D01*
X159335340Y-81423707D01*
X159598589Y-81160917D01*
X159741235Y-80817389D01*
X159741559Y-80445423D01*
X159599514Y-80101647D01*
X159336724Y-79838398D01*
X158993196Y-79695752D01*
X158621230Y-79695428D01*
X158277454Y-79837473D01*
X158014205Y-80100263D01*
X157871559Y-80443791D01*
X157871235Y-80815757D01*
X147417862Y-80815757D01*
X147180327Y-80577808D01*
X147135080Y-80559020D01*
X147135162Y-80464833D01*
X146993117Y-80121057D01*
X146730327Y-79857808D01*
X146386799Y-79715162D01*
X146014833Y-79714838D01*
X145671057Y-79856883D01*
X145407808Y-80119673D01*
X145265162Y-80463201D01*
X145264838Y-80835167D01*
X139178898Y-80835167D01*
X139178942Y-80784833D01*
X139036897Y-80441057D01*
X138774107Y-80177808D01*
X138430579Y-80035162D01*
X138058613Y-80034838D01*
X137714837Y-80176883D01*
X137451588Y-80439673D01*
X137308942Y-80783201D01*
X137308618Y-81155167D01*
X133257464Y-81155167D01*
X133130327Y-81027808D01*
X132786799Y-80885162D01*
X132414833Y-80884838D01*
X132071057Y-81026883D01*
X131807808Y-81289673D01*
X131665162Y-81633201D01*
X131664838Y-82005167D01*
X126674062Y-82005167D01*
X126674330Y-81698413D01*
X126532285Y-81354637D01*
X126269495Y-81091388D01*
X125925967Y-80948742D01*
X125554001Y-80948418D01*
X125210225Y-81090463D01*
X124946976Y-81353253D01*
X124804330Y-81696781D01*
X124804006Y-82068747D01*
X120283785Y-82068747D01*
X119999129Y-81642730D01*
X119684348Y-81432400D01*
X119999129Y-81222070D01*
X120323985Y-80735889D01*
X120438059Y-80162400D01*
X120323985Y-79588911D01*
X119999129Y-79102730D01*
X119684348Y-78892400D01*
X119999129Y-78682070D01*
X120323985Y-78195889D01*
X120438059Y-77622400D01*
X120323985Y-77048911D01*
X119999129Y-76562730D01*
X119684348Y-76352400D01*
X119874765Y-76225167D01*
X134774838Y-76225167D01*
X134916883Y-76568943D01*
X135179673Y-76832192D01*
X135523201Y-76974838D01*
X135895167Y-76975162D01*
X135981642Y-76939432D01*
X135955162Y-77003201D01*
X135954838Y-77375167D01*
X136096883Y-77718943D01*
X136359673Y-77982192D01*
X136703201Y-78124838D01*
X137075167Y-78125162D01*
X137204946Y-78071539D01*
X137204838Y-78195167D01*
X137329322Y-78496441D01*
X137235162Y-78723201D01*
X137234838Y-79095167D01*
X137376883Y-79438943D01*
X137639673Y-79702192D01*
X137983201Y-79844838D01*
X138355167Y-79845162D01*
X138698943Y-79703117D01*
X138962192Y-79440327D01*
X138978164Y-79401861D01*
X152811908Y-79401861D01*
X152953953Y-79745637D01*
X153216743Y-80008886D01*
X153560271Y-80151532D01*
X153932237Y-80151856D01*
X154276013Y-80009811D01*
X154539262Y-79747021D01*
X154681908Y-79403493D01*
X154682232Y-79031527D01*
X154540187Y-78687751D01*
X154330573Y-78477770D01*
X155647988Y-78477770D01*
X155790033Y-78821546D01*
X156052823Y-79084795D01*
X156396351Y-79227441D01*
X156768317Y-79227765D01*
X157112093Y-79085720D01*
X157375342Y-78822930D01*
X157517988Y-78479402D01*
X157518312Y-78107436D01*
X157376267Y-77763660D01*
X157113477Y-77500411D01*
X156769949Y-77357765D01*
X156397983Y-77357441D01*
X156054207Y-77499486D01*
X155790958Y-77762276D01*
X155648312Y-78105804D01*
X155647988Y-78477770D01*
X154330573Y-78477770D01*
X154277397Y-78424502D01*
X153933869Y-78281856D01*
X153561903Y-78281532D01*
X153218127Y-78423577D01*
X152954878Y-78686367D01*
X152812232Y-79029895D01*
X152811908Y-79401861D01*
X138978164Y-79401861D01*
X139104838Y-79096799D01*
X139105162Y-78724833D01*
X138980678Y-78423559D01*
X139074838Y-78196799D01*
X139075162Y-77824833D01*
X139025718Y-77705167D01*
X140794838Y-77705167D01*
X140936883Y-78048943D01*
X141199673Y-78312192D01*
X141543201Y-78454838D01*
X141915167Y-78455162D01*
X142258943Y-78313117D01*
X142522192Y-78050327D01*
X142664838Y-77706799D01*
X142665162Y-77334833D01*
X142523117Y-76991057D01*
X142260327Y-76727808D01*
X141916799Y-76585162D01*
X141544833Y-76584838D01*
X141201057Y-76726883D01*
X140937808Y-76989673D01*
X140795162Y-77333201D01*
X140794838Y-77705167D01*
X139025718Y-77705167D01*
X138933117Y-77481057D01*
X138670327Y-77217808D01*
X138326799Y-77075162D01*
X137954833Y-77074838D01*
X137825054Y-77128461D01*
X137825162Y-77004833D01*
X137683117Y-76661057D01*
X137495282Y-76472894D01*
X137518943Y-76463117D01*
X137536924Y-76445167D01*
X137884838Y-76445167D01*
X138026883Y-76788943D01*
X138289673Y-77052192D01*
X138633201Y-77194838D01*
X139005167Y-77195162D01*
X139348943Y-77053117D01*
X139612192Y-76790327D01*
X139754838Y-76446799D01*
X139754888Y-76389292D01*
X151939305Y-76389292D01*
X152081350Y-76733068D01*
X152344140Y-76996317D01*
X152687668Y-77138963D01*
X153059634Y-77139287D01*
X153403410Y-76997242D01*
X153509062Y-76891774D01*
X153529955Y-76900450D01*
X153901921Y-76900774D01*
X154245697Y-76758729D01*
X154508946Y-76495939D01*
X154651592Y-76152411D01*
X154651916Y-75780445D01*
X154550477Y-75534944D01*
X154626108Y-75352805D01*
X154626432Y-74980839D01*
X154484387Y-74637063D01*
X154221597Y-74373814D01*
X153878069Y-74231168D01*
X153506103Y-74230844D01*
X153162327Y-74372889D01*
X152899078Y-74635679D01*
X152756432Y-74979207D01*
X152756180Y-75269021D01*
X152689300Y-75268963D01*
X152345524Y-75411008D01*
X152082275Y-75673798D01*
X151939629Y-76017326D01*
X151939305Y-76389292D01*
X139754888Y-76389292D01*
X139755162Y-76074833D01*
X139613117Y-75731057D01*
X139350327Y-75467808D01*
X139006799Y-75325162D01*
X138634833Y-75324838D01*
X138291057Y-75466883D01*
X138027808Y-75729673D01*
X137885162Y-76073201D01*
X137884838Y-76445167D01*
X137536924Y-76445167D01*
X137782192Y-76200327D01*
X137924838Y-75856799D01*
X137925162Y-75484833D01*
X137783117Y-75141057D01*
X137520327Y-74877808D01*
X137284206Y-74779761D01*
X137184521Y-74538505D01*
X136921731Y-74275256D01*
X136578203Y-74132610D01*
X136206237Y-74132286D01*
X135862461Y-74274331D01*
X135599212Y-74537121D01*
X135456566Y-74880649D01*
X135456346Y-75133136D01*
X135181057Y-75246883D01*
X134917808Y-75509673D01*
X134775162Y-75853201D01*
X134774838Y-76225167D01*
X119874765Y-76225167D01*
X119999129Y-76142070D01*
X120323985Y-75655889D01*
X120438059Y-75082400D01*
X120323985Y-74508911D01*
X119999129Y-74022730D01*
X119684348Y-73812400D01*
X119999129Y-73602070D01*
X120323985Y-73115889D01*
X120433141Y-72567124D01*
X130442494Y-72567124D01*
X130584539Y-72910900D01*
X130847329Y-73174149D01*
X131190857Y-73316795D01*
X131562823Y-73317119D01*
X131906599Y-73175074D01*
X132169848Y-72912284D01*
X132312494Y-72568756D01*
X132312818Y-72196790D01*
X132170773Y-71853014D01*
X131943324Y-71625167D01*
X136544838Y-71625167D01*
X136686883Y-71968943D01*
X136949673Y-72232192D01*
X137293201Y-72374838D01*
X137665167Y-72375162D01*
X137881944Y-72285592D01*
X138193201Y-72414838D01*
X138565167Y-72415162D01*
X138908943Y-72273117D01*
X138932235Y-72249865D01*
X139233201Y-72374838D01*
X139605167Y-72375162D01*
X139702679Y-72334871D01*
X139889673Y-72522192D01*
X140233201Y-72664838D01*
X140605167Y-72665162D01*
X140948943Y-72523117D01*
X141005495Y-72466664D01*
X141163484Y-72624929D01*
X141507012Y-72767575D01*
X141878978Y-72767899D01*
X142222754Y-72625854D01*
X142486003Y-72363064D01*
X142628649Y-72019536D01*
X142628973Y-71647570D01*
X142524683Y-71395167D01*
X143864838Y-71395167D01*
X144006883Y-71738943D01*
X144269673Y-72002192D01*
X144613201Y-72144838D01*
X144985167Y-72145162D01*
X145267338Y-72028571D01*
X145368110Y-72129519D01*
X145711638Y-72272165D01*
X146083604Y-72272489D01*
X146427380Y-72130444D01*
X146430337Y-72127492D01*
X146498157Y-72155653D01*
X146443857Y-72209859D01*
X146301211Y-72553387D01*
X146300887Y-72925353D01*
X146442932Y-73269129D01*
X146705722Y-73532378D01*
X146941141Y-73630133D01*
X147020643Y-73822544D01*
X147283433Y-74085793D01*
X147626961Y-74228439D01*
X147998927Y-74228763D01*
X148219292Y-74137710D01*
X148453201Y-74234838D01*
X148825167Y-74235162D01*
X149043070Y-74145126D01*
X149283201Y-74244838D01*
X149628249Y-74245139D01*
X149628125Y-74387323D01*
X149770170Y-74731099D01*
X150032960Y-74994348D01*
X150376488Y-75136994D01*
X150748454Y-75137318D01*
X151092230Y-74995273D01*
X151312373Y-74775514D01*
X151516020Y-74979517D01*
X151859548Y-75122163D01*
X152231514Y-75122487D01*
X152575290Y-74980442D01*
X152838539Y-74717652D01*
X152981185Y-74374124D01*
X152981509Y-74002158D01*
X152839464Y-73658382D01*
X152576674Y-73395133D01*
X152233146Y-73252487D01*
X151861180Y-73252163D01*
X151517404Y-73394208D01*
X151297261Y-73613967D01*
X151093614Y-73409964D01*
X150750086Y-73267318D01*
X150405038Y-73267017D01*
X150405162Y-73124833D01*
X150263117Y-72781057D01*
X150000327Y-72517808D01*
X149656799Y-72375162D01*
X149284833Y-72374838D01*
X149066930Y-72464874D01*
X148826799Y-72365162D01*
X148454833Y-72364838D01*
X148234468Y-72455891D01*
X148108668Y-72403654D01*
X148029166Y-72211243D01*
X147766376Y-71947994D01*
X147691122Y-71916746D01*
X147745422Y-71862540D01*
X147888068Y-71519012D01*
X147888392Y-71147046D01*
X147746347Y-70803270D01*
X147483557Y-70540021D01*
X147140029Y-70397375D01*
X146768063Y-70397051D01*
X146424287Y-70539096D01*
X146421330Y-70542048D01*
X146085236Y-70402489D01*
X145713270Y-70402165D01*
X145431099Y-70518756D01*
X145330327Y-70417808D01*
X144986799Y-70275162D01*
X144614833Y-70274838D01*
X144271057Y-70416883D01*
X144007808Y-70679673D01*
X143865162Y-71023201D01*
X143864838Y-71395167D01*
X142524683Y-71395167D01*
X142486928Y-71303794D01*
X142224138Y-71040545D01*
X141880610Y-70897899D01*
X141508644Y-70897575D01*
X141164868Y-71039620D01*
X141108316Y-71096073D01*
X140950327Y-70937808D01*
X140606799Y-70795162D01*
X140234833Y-70794838D01*
X140137321Y-70835129D01*
X139950327Y-70647808D01*
X139606799Y-70505162D01*
X139234833Y-70504838D01*
X138891057Y-70646883D01*
X138867765Y-70670135D01*
X138566799Y-70545162D01*
X138194833Y-70544838D01*
X137978056Y-70634408D01*
X137666799Y-70505162D01*
X137294833Y-70504838D01*
X136951057Y-70646883D01*
X136687808Y-70909673D01*
X136545162Y-71253201D01*
X136544838Y-71625167D01*
X131943324Y-71625167D01*
X131907983Y-71589765D01*
X131564455Y-71447119D01*
X131192489Y-71446795D01*
X130848713Y-71588840D01*
X130585464Y-71851630D01*
X130442818Y-72195158D01*
X130442494Y-72567124D01*
X120433141Y-72567124D01*
X120438059Y-72542400D01*
X120323985Y-71968911D01*
X119999129Y-71482730D01*
X119684348Y-71272400D01*
X119999129Y-71062070D01*
X120323985Y-70575889D01*
X120438059Y-70002400D01*
X120323985Y-69428911D01*
X119999129Y-68942730D01*
X119684348Y-68732400D01*
X119993934Y-68525541D01*
X138102032Y-68525541D01*
X138244077Y-68869317D01*
X138506867Y-69132566D01*
X138850395Y-69275212D01*
X139222361Y-69275536D01*
X139566137Y-69133491D01*
X139593823Y-69105853D01*
X150122838Y-69105853D01*
X150264883Y-69449629D01*
X150527673Y-69712878D01*
X150871201Y-69855524D01*
X151243167Y-69855848D01*
X151586943Y-69713803D01*
X151850192Y-69451013D01*
X151992838Y-69107485D01*
X151993162Y-68735519D01*
X151851117Y-68391743D01*
X151588327Y-68128494D01*
X151244799Y-67985848D01*
X150872833Y-67985524D01*
X150529057Y-68127569D01*
X150265808Y-68390359D01*
X150123162Y-68733887D01*
X150122838Y-69105853D01*
X139593823Y-69105853D01*
X139829386Y-68870701D01*
X139972032Y-68527173D01*
X139972356Y-68155207D01*
X139830311Y-67811431D01*
X139567521Y-67548182D01*
X139223993Y-67405536D01*
X138852027Y-67405212D01*
X138508251Y-67547257D01*
X138245002Y-67810047D01*
X138102356Y-68153575D01*
X138102032Y-68525541D01*
X119993934Y-68525541D01*
X119999129Y-68522070D01*
X120323985Y-68035889D01*
X120438059Y-67462400D01*
X120323985Y-66888911D01*
X119999129Y-66402730D01*
X119684348Y-66192400D01*
X119999129Y-65982070D01*
X120323985Y-65495889D01*
X120438059Y-64922400D01*
X120323985Y-64348911D01*
X119999129Y-63862730D01*
X119675872Y-63646736D01*
X119798590Y-63589221D01*
X120192788Y-63157347D01*
X120365058Y-62741426D01*
X120243917Y-62509400D01*
X119037100Y-62509400D01*
X119037100Y-62529400D01*
X118783100Y-62529400D01*
X118783100Y-62509400D01*
X116497100Y-62509400D01*
X116497100Y-62529400D01*
X116243100Y-62529400D01*
X116243100Y-62509400D01*
X115030250Y-62509400D01*
X114871500Y-62668150D01*
X114871500Y-63372310D01*
X114968173Y-63605699D01*
X115146802Y-63784327D01*
X115302123Y-63848663D01*
X115281071Y-63862730D01*
X114956215Y-64348911D01*
X114842141Y-64922400D01*
X108101370Y-64922400D01*
X108101370Y-61392490D01*
X114871500Y-61392490D01*
X114871500Y-62096650D01*
X115030250Y-62255400D01*
X116243100Y-62255400D01*
X116243100Y-61042550D01*
X116497100Y-61042550D01*
X116497100Y-62255400D01*
X118783100Y-62255400D01*
X118783100Y-61047931D01*
X119037100Y-61047931D01*
X119037100Y-62255400D01*
X120243917Y-62255400D01*
X120365058Y-62023374D01*
X120192788Y-61607453D01*
X120100046Y-61505847D01*
X130123758Y-61505847D01*
X130265803Y-61849623D01*
X130528593Y-62112872D01*
X130872121Y-62255518D01*
X131244087Y-62255842D01*
X131587863Y-62113797D01*
X131851112Y-61851007D01*
X131993758Y-61507479D01*
X131994082Y-61135513D01*
X131852037Y-60791737D01*
X131589247Y-60528488D01*
X131245719Y-60385842D01*
X130873753Y-60385518D01*
X130529977Y-60527563D01*
X130266728Y-60790353D01*
X130124082Y-61133881D01*
X130123758Y-61505847D01*
X120100046Y-61505847D01*
X119798590Y-61175579D01*
X119269127Y-60927432D01*
X119037100Y-61047931D01*
X118783100Y-61047931D01*
X118551073Y-60927432D01*
X118021610Y-61175579D01*
X117854629Y-61358519D01*
X117772027Y-61159101D01*
X117593398Y-60980473D01*
X117360009Y-60883800D01*
X116655850Y-60883800D01*
X116497100Y-61042550D01*
X116243100Y-61042550D01*
X116084350Y-60883800D01*
X115380191Y-60883800D01*
X115146802Y-60980473D01*
X114968173Y-61159101D01*
X114871500Y-61392490D01*
X108101370Y-61392490D01*
X108101370Y-59775167D01*
X130894838Y-59775167D01*
X131036883Y-60118943D01*
X131299673Y-60382192D01*
X131643201Y-60524838D01*
X132015167Y-60525162D01*
X132358943Y-60383117D01*
X132622192Y-60120327D01*
X132764838Y-59776799D01*
X132765162Y-59404833D01*
X132623117Y-59061057D01*
X132360327Y-58797808D01*
X132016799Y-58655162D01*
X131644833Y-58654838D01*
X131301057Y-58796883D01*
X131037808Y-59059673D01*
X130895162Y-59403201D01*
X130894838Y-59775167D01*
X108101370Y-59775167D01*
X108101370Y-55366667D01*
X116387438Y-55366667D01*
X116529483Y-55710443D01*
X116792273Y-55973692D01*
X116866585Y-56004549D01*
X116606608Y-56264073D01*
X116463962Y-56607601D01*
X116463638Y-56979567D01*
X116605683Y-57323343D01*
X116868473Y-57586592D01*
X117212001Y-57729238D01*
X117583967Y-57729562D01*
X117927743Y-57587517D01*
X118190992Y-57324727D01*
X118333638Y-56981199D01*
X118333962Y-56609233D01*
X118191917Y-56265457D01*
X117929127Y-56002208D01*
X117854815Y-55971351D01*
X118114792Y-55711827D01*
X118257438Y-55368299D01*
X118257580Y-55205167D01*
X120234838Y-55205167D01*
X120376883Y-55548943D01*
X120639673Y-55812192D01*
X120983201Y-55954838D01*
X121355167Y-55955162D01*
X121698943Y-55813117D01*
X121962192Y-55550327D01*
X122104838Y-55206799D01*
X122105162Y-54834833D01*
X122025803Y-54642767D01*
X126725238Y-54642767D01*
X126867283Y-54986543D01*
X127130073Y-55249792D01*
X127473601Y-55392438D01*
X127845567Y-55392762D01*
X128189343Y-55250717D01*
X128452592Y-54987927D01*
X128595238Y-54644399D01*
X128595562Y-54272433D01*
X128453517Y-53928657D01*
X128190727Y-53665408D01*
X127847199Y-53522762D01*
X127475233Y-53522438D01*
X127131457Y-53664483D01*
X126868208Y-53927273D01*
X126725562Y-54270801D01*
X126725238Y-54642767D01*
X122025803Y-54642767D01*
X121963117Y-54491057D01*
X121700327Y-54227808D01*
X121356799Y-54085162D01*
X120984833Y-54084838D01*
X120641057Y-54226883D01*
X120377808Y-54489673D01*
X120235162Y-54833201D01*
X120234838Y-55205167D01*
X118257580Y-55205167D01*
X118257762Y-54996333D01*
X118115717Y-54652557D01*
X117852927Y-54389308D01*
X117509399Y-54246662D01*
X117137433Y-54246338D01*
X116793657Y-54388383D01*
X116530408Y-54651173D01*
X116387762Y-54994701D01*
X116387438Y-55366667D01*
X108101370Y-55366667D01*
X108101370Y-50565167D01*
X108824838Y-50565167D01*
X108966883Y-50908943D01*
X109229673Y-51172192D01*
X109283368Y-51194488D01*
X109067808Y-51409673D01*
X108925162Y-51753201D01*
X108924838Y-52125167D01*
X109066883Y-52468943D01*
X109329673Y-52732192D01*
X109673201Y-52874838D01*
X110045167Y-52875162D01*
X110388943Y-52733117D01*
X110652192Y-52470327D01*
X110794838Y-52126799D01*
X110795162Y-51754833D01*
X110653117Y-51411057D01*
X110390327Y-51147808D01*
X110336632Y-51125512D01*
X110552192Y-50910327D01*
X110694838Y-50566799D01*
X110695162Y-50194833D01*
X110553117Y-49851057D01*
X110290327Y-49587808D01*
X110113680Y-49514457D01*
X110358943Y-49413117D01*
X110622192Y-49150327D01*
X110764838Y-48806799D01*
X110765162Y-48434833D01*
X110623117Y-48091057D01*
X110360327Y-47827808D01*
X110112553Y-47724923D01*
X110358943Y-47623117D01*
X110622192Y-47360327D01*
X110764838Y-47016799D01*
X110765162Y-46644833D01*
X110623117Y-46301057D01*
X110360327Y-46037808D01*
X110016799Y-45895162D01*
X109644833Y-45894838D01*
X109301057Y-46036883D01*
X109037808Y-46299673D01*
X108895162Y-46643201D01*
X108894838Y-47015167D01*
X109036883Y-47358943D01*
X109299673Y-47622192D01*
X109547447Y-47725077D01*
X109301057Y-47826883D01*
X109037808Y-48089673D01*
X108895162Y-48433201D01*
X108894838Y-48805167D01*
X109036883Y-49148943D01*
X109299673Y-49412192D01*
X109476320Y-49485543D01*
X109231057Y-49586883D01*
X108967808Y-49849673D01*
X108825162Y-50193201D01*
X108824838Y-50565167D01*
X108101370Y-50565167D01*
X108101370Y-49110066D01*
X108547818Y-46865621D01*
X109783697Y-45015997D01*
X111633321Y-43780118D01*
X113877766Y-43333670D01*
X134783830Y-43333670D01*
X134783830Y-64287400D01*
X134783830Y-64287400D01*
G37*
X134783830Y-64287400D02*
X134832263Y-64530890D01*
X134970189Y-64737311D01*
X135176610Y-64875237D01*
X135420100Y-64923670D01*
X153200100Y-64923670D01*
X153206484Y-64922400D01*
X163102141Y-64922400D01*
X163216215Y-65495889D01*
X163541071Y-65982070D01*
X163855852Y-66192400D01*
X163541071Y-66402730D01*
X163216215Y-66888911D01*
X163102141Y-67462400D01*
X163216215Y-68035889D01*
X163541071Y-68522070D01*
X163855852Y-68732400D01*
X163541071Y-68942730D01*
X163216215Y-69428911D01*
X163102141Y-70002400D01*
X163216215Y-70575889D01*
X163541071Y-71062070D01*
X163855852Y-71272400D01*
X163541071Y-71482730D01*
X163216215Y-71968911D01*
X163102141Y-72542400D01*
X163216215Y-73115889D01*
X163541071Y-73602070D01*
X163855852Y-73812400D01*
X163541071Y-74022730D01*
X163216215Y-74508911D01*
X163102141Y-75082400D01*
X163216215Y-75655889D01*
X163541071Y-76142070D01*
X163855852Y-76352400D01*
X163541071Y-76562730D01*
X163216215Y-77048911D01*
X163102141Y-77622400D01*
X163216215Y-78195889D01*
X163541071Y-78682070D01*
X163855852Y-78892400D01*
X163541071Y-79102730D01*
X163216215Y-79588911D01*
X163102141Y-80162400D01*
X163216215Y-80735889D01*
X163541071Y-81222070D01*
X163855852Y-81432400D01*
X163541071Y-81642730D01*
X163216215Y-82128911D01*
X163102141Y-82702400D01*
X163216215Y-83275889D01*
X163541071Y-83762070D01*
X163855852Y-83972400D01*
X163541071Y-84182730D01*
X163216215Y-84668911D01*
X163102141Y-85242400D01*
X163216215Y-85815889D01*
X163541071Y-86302070D01*
X163855852Y-86512400D01*
X163541071Y-86722730D01*
X163216215Y-87208911D01*
X163102141Y-87782400D01*
X163216215Y-88355889D01*
X163541071Y-88842070D01*
X163855852Y-89052400D01*
X163541071Y-89262730D01*
X163216215Y-89748911D01*
X163102141Y-90322400D01*
X163216215Y-90895889D01*
X163541071Y-91382070D01*
X163855852Y-91592400D01*
X163541071Y-91802730D01*
X163216215Y-92288911D01*
X163102141Y-92862400D01*
X163216215Y-93435889D01*
X163541071Y-93922070D01*
X163855852Y-94132400D01*
X163541071Y-94342730D01*
X163216215Y-94828911D01*
X163102141Y-95402400D01*
X163216215Y-95975889D01*
X163541071Y-96462070D01*
X163855852Y-96672400D01*
X163541071Y-96882730D01*
X163216215Y-97368911D01*
X163102141Y-97942400D01*
X163216215Y-98515889D01*
X163541071Y-99002070D01*
X163855852Y-99212400D01*
X163541071Y-99422730D01*
X163216215Y-99908911D01*
X163102141Y-100482400D01*
X163216215Y-101055889D01*
X163541071Y-101542070D01*
X163855852Y-101752400D01*
X163541071Y-101962730D01*
X163216215Y-102448911D01*
X163102141Y-103022400D01*
X163216215Y-103595889D01*
X163541071Y-104082070D01*
X163855852Y-104292400D01*
X163541071Y-104502730D01*
X163216215Y-104988911D01*
X163102141Y-105562400D01*
X163216215Y-106135889D01*
X163541071Y-106622070D01*
X163855852Y-106832400D01*
X163541071Y-107042730D01*
X163216215Y-107528911D01*
X163102141Y-108102400D01*
X163216215Y-108675889D01*
X163541071Y-109162070D01*
X163855852Y-109372400D01*
X163541071Y-109582730D01*
X163216215Y-110068911D01*
X163102141Y-110642400D01*
X163216215Y-111215889D01*
X163541071Y-111702070D01*
X163855852Y-111912400D01*
X163541071Y-112122730D01*
X163216215Y-112608911D01*
X163102141Y-113182400D01*
X163216215Y-113755889D01*
X163541071Y-114242070D01*
X163855852Y-114452400D01*
X163541071Y-114662730D01*
X163216215Y-115148911D01*
X163102141Y-115722400D01*
X163216215Y-116295889D01*
X163541071Y-116782070D01*
X163855852Y-116992400D01*
X163541071Y-117202730D01*
X163216215Y-117688911D01*
X163102141Y-118262400D01*
X163216215Y-118835889D01*
X163541071Y-119322070D01*
X164027252Y-119646926D01*
X164600741Y-119761000D01*
X164659459Y-119761000D01*
X165232948Y-119646926D01*
X165719129Y-119322070D01*
X165900100Y-119051228D01*
X166081071Y-119322070D01*
X166567252Y-119646926D01*
X167140741Y-119761000D01*
X167199459Y-119761000D01*
X167772948Y-119646926D01*
X168259129Y-119322070D01*
X168583985Y-118835889D01*
X168698059Y-118262400D01*
X168583985Y-117688911D01*
X168259129Y-117202730D01*
X167944348Y-116992400D01*
X168259129Y-116782070D01*
X168583985Y-116295889D01*
X168698059Y-115722400D01*
X168583985Y-115148911D01*
X168259129Y-114662730D01*
X167944348Y-114452400D01*
X168259129Y-114242070D01*
X168583985Y-113755889D01*
X168698059Y-113182400D01*
X168583985Y-112608911D01*
X168259129Y-112122730D01*
X167944348Y-111912400D01*
X168259129Y-111702070D01*
X168583985Y-111215889D01*
X168698059Y-110642400D01*
X168583985Y-110068911D01*
X168259129Y-109582730D01*
X167944348Y-109372400D01*
X168259129Y-109162070D01*
X168583985Y-108675889D01*
X168698059Y-108102400D01*
X168583985Y-107528911D01*
X168259129Y-107042730D01*
X167944348Y-106832400D01*
X168259129Y-106622070D01*
X168583985Y-106135889D01*
X168698059Y-105562400D01*
X168583985Y-104988911D01*
X168259129Y-104502730D01*
X167944348Y-104292400D01*
X168259129Y-104082070D01*
X168583985Y-103595889D01*
X168698059Y-103022400D01*
X168583985Y-102448911D01*
X168259129Y-101962730D01*
X167944348Y-101752400D01*
X168259129Y-101542070D01*
X168583985Y-101055889D01*
X168698059Y-100482400D01*
X168583985Y-99908911D01*
X168259129Y-99422730D01*
X167944348Y-99212400D01*
X168259129Y-99002070D01*
X168583985Y-98515889D01*
X168698059Y-97942400D01*
X168583985Y-97368911D01*
X168259129Y-96882730D01*
X167944348Y-96672400D01*
X168259129Y-96462070D01*
X168583985Y-95975889D01*
X168698059Y-95402400D01*
X168583985Y-94828911D01*
X168259129Y-94342730D01*
X167944348Y-94132400D01*
X168259129Y-93922070D01*
X168583985Y-93435889D01*
X168698059Y-92862400D01*
X168583985Y-92288911D01*
X168259129Y-91802730D01*
X167944348Y-91592400D01*
X168259129Y-91382070D01*
X168583985Y-90895889D01*
X168698059Y-90322400D01*
X168583985Y-89748911D01*
X168259129Y-89262730D01*
X167944348Y-89052400D01*
X168259129Y-88842070D01*
X168583985Y-88355889D01*
X168698059Y-87782400D01*
X168583985Y-87208911D01*
X168259129Y-86722730D01*
X167944348Y-86512400D01*
X168259129Y-86302070D01*
X168583985Y-85815889D01*
X168698059Y-85242400D01*
X168583985Y-84668911D01*
X168259129Y-84182730D01*
X167944348Y-83972400D01*
X168259129Y-83762070D01*
X168583985Y-83275889D01*
X168698059Y-82702400D01*
X168583985Y-82128911D01*
X168259129Y-81642730D01*
X167944348Y-81432400D01*
X168259129Y-81222070D01*
X168583985Y-80735889D01*
X168698059Y-80162400D01*
X168583985Y-79588911D01*
X168259129Y-79102730D01*
X167944348Y-78892400D01*
X168259129Y-78682070D01*
X168583985Y-78195889D01*
X168698059Y-77622400D01*
X168583985Y-77048911D01*
X168259129Y-76562730D01*
X167944348Y-76352400D01*
X168259129Y-76142070D01*
X168583985Y-75655889D01*
X168698059Y-75082400D01*
X168583985Y-74508911D01*
X168259129Y-74022730D01*
X167944348Y-73812400D01*
X168259129Y-73602070D01*
X168583985Y-73115889D01*
X168698059Y-72542400D01*
X168583985Y-71968911D01*
X168259129Y-71482730D01*
X167944348Y-71272400D01*
X168259129Y-71062070D01*
X168583985Y-70575889D01*
X168698059Y-70002400D01*
X168583985Y-69428911D01*
X168259129Y-68942730D01*
X167944348Y-68732400D01*
X168259129Y-68522070D01*
X168583985Y-68035889D01*
X168698059Y-67462400D01*
X168583985Y-66888911D01*
X168259129Y-66402730D01*
X167944348Y-66192400D01*
X168259129Y-65982070D01*
X168583985Y-65495889D01*
X168698059Y-64922400D01*
X168583985Y-64348911D01*
X168259129Y-63862730D01*
X167935872Y-63646736D01*
X168058590Y-63589221D01*
X168452788Y-63157347D01*
X168625058Y-62741426D01*
X168503917Y-62509400D01*
X167297100Y-62509400D01*
X167297100Y-62529400D01*
X167043100Y-62529400D01*
X167043100Y-62509400D01*
X164757100Y-62509400D01*
X164757100Y-62529400D01*
X164503100Y-62529400D01*
X164503100Y-62509400D01*
X163290250Y-62509400D01*
X163131500Y-62668150D01*
X163131500Y-63372310D01*
X163228173Y-63605699D01*
X163406802Y-63784327D01*
X163562123Y-63848663D01*
X163541071Y-63862730D01*
X163216215Y-64348911D01*
X163102141Y-64922400D01*
X153206484Y-64922400D01*
X153443590Y-64875237D01*
X153650011Y-64737311D01*
X153787937Y-64530890D01*
X153836370Y-64287400D01*
X153836370Y-61392490D01*
X163131500Y-61392490D01*
X163131500Y-62096650D01*
X163290250Y-62255400D01*
X164503100Y-62255400D01*
X164503100Y-61042550D01*
X164757100Y-61042550D01*
X164757100Y-62255400D01*
X167043100Y-62255400D01*
X167043100Y-61047931D01*
X167297100Y-61047931D01*
X167297100Y-62255400D01*
X168503917Y-62255400D01*
X168625058Y-62023374D01*
X168452788Y-61607453D01*
X168058590Y-61175579D01*
X167529127Y-60927432D01*
X167297100Y-61047931D01*
X167043100Y-61047931D01*
X166811073Y-60927432D01*
X166281610Y-61175579D01*
X166114629Y-61358519D01*
X166032027Y-61159101D01*
X165853398Y-60980473D01*
X165620009Y-60883800D01*
X164915850Y-60883800D01*
X164757100Y-61042550D01*
X164503100Y-61042550D01*
X164344350Y-60883800D01*
X163640191Y-60883800D01*
X163406802Y-60980473D01*
X163228173Y-61159101D01*
X163131500Y-61392490D01*
X153836370Y-61392490D01*
X153836370Y-59235167D01*
X159054838Y-59235167D01*
X159196883Y-59578943D01*
X159459673Y-59842192D01*
X159803201Y-59984838D01*
X160175167Y-59985162D01*
X160518943Y-59843117D01*
X160782192Y-59580327D01*
X160817553Y-59495167D01*
X165624838Y-59495167D01*
X165766883Y-59838943D01*
X166029673Y-60102192D01*
X166373201Y-60244838D01*
X166745167Y-60245162D01*
X167088943Y-60103117D01*
X167352192Y-59840327D01*
X167494838Y-59496799D01*
X167495162Y-59124833D01*
X167353117Y-58781057D01*
X167090327Y-58517808D01*
X166746799Y-58375162D01*
X166374833Y-58374838D01*
X166031057Y-58516883D01*
X165767808Y-58779673D01*
X165625162Y-59123201D01*
X165624838Y-59495167D01*
X160817553Y-59495167D01*
X160924838Y-59236799D01*
X160925162Y-58864833D01*
X160783117Y-58521057D01*
X160520327Y-58257808D01*
X160176799Y-58115162D01*
X159804833Y-58114838D01*
X159461057Y-58256883D01*
X159197808Y-58519673D01*
X159055162Y-58863201D01*
X159054838Y-59235167D01*
X153836370Y-59235167D01*
X153836370Y-56338803D01*
X153850542Y-56373102D01*
X154113332Y-56636351D01*
X154456860Y-56778997D01*
X154828826Y-56779321D01*
X155172602Y-56637276D01*
X155435851Y-56374486D01*
X155578497Y-56030958D01*
X155578555Y-55963567D01*
X158335538Y-55963567D01*
X158477583Y-56307343D01*
X158740373Y-56570592D01*
X159083901Y-56713238D01*
X159455867Y-56713562D01*
X159799643Y-56571517D01*
X160062892Y-56308727D01*
X160205538Y-55965199D01*
X160205550Y-55950867D01*
X161040638Y-55950867D01*
X161182683Y-56294643D01*
X161445473Y-56557892D01*
X161789001Y-56700538D01*
X162160967Y-56700862D01*
X162504743Y-56558817D01*
X162767992Y-56296027D01*
X162910638Y-55952499D01*
X162910962Y-55580533D01*
X162768917Y-55236757D01*
X162506127Y-54973508D01*
X162162599Y-54830862D01*
X161790633Y-54830538D01*
X161446857Y-54972583D01*
X161183608Y-55235373D01*
X161040962Y-55578901D01*
X161040638Y-55950867D01*
X160205550Y-55950867D01*
X160205862Y-55593233D01*
X160063817Y-55249457D01*
X159801027Y-54986208D01*
X159457499Y-54843562D01*
X159085533Y-54843238D01*
X158741757Y-54985283D01*
X158478508Y-55248073D01*
X158335862Y-55591601D01*
X158335538Y-55963567D01*
X155578555Y-55963567D01*
X155578821Y-55658992D01*
X155436776Y-55315216D01*
X155173986Y-55051967D01*
X154830458Y-54909321D01*
X154458492Y-54908997D01*
X154114716Y-55051042D01*
X153851467Y-55313832D01*
X153836370Y-55350189D01*
X153836370Y-50318670D01*
X174438830Y-50318670D01*
X174438830Y-76540956D01*
X174416790Y-76507971D01*
X173930609Y-76183115D01*
X173357120Y-76069041D01*
X172783631Y-76183115D01*
X172297450Y-76507971D01*
X172087120Y-76822752D01*
X171876790Y-76507971D01*
X171390609Y-76183115D01*
X170817120Y-76069041D01*
X170243631Y-76183115D01*
X169757450Y-76507971D01*
X169432594Y-76994152D01*
X169318520Y-77567641D01*
X169318520Y-77626359D01*
X169432594Y-78199848D01*
X169757450Y-78686029D01*
X170028281Y-78866992D01*
X169610299Y-79248510D01*
X169362152Y-79777973D01*
X169482651Y-80010000D01*
X170690120Y-80010000D01*
X170690120Y-79990000D01*
X170944120Y-79990000D01*
X170944120Y-80010000D01*
X173230120Y-80010000D01*
X173230120Y-79990000D01*
X173484120Y-79990000D01*
X173484120Y-80010000D01*
X173504120Y-80010000D01*
X173504120Y-80264000D01*
X173484120Y-80264000D01*
X173484120Y-80284000D01*
X173230120Y-80284000D01*
X173230120Y-80264000D01*
X170944120Y-80264000D01*
X170944120Y-80284000D01*
X170690120Y-80284000D01*
X170690120Y-80264000D01*
X169482651Y-80264000D01*
X169362152Y-80496027D01*
X169610299Y-81025490D01*
X170028281Y-81407008D01*
X169757450Y-81587971D01*
X169432594Y-82074152D01*
X169318520Y-82647641D01*
X169318520Y-82706359D01*
X169432594Y-83279848D01*
X169757450Y-83766029D01*
X170028292Y-83947000D01*
X169757450Y-84127971D01*
X169432594Y-84614152D01*
X169318520Y-85187641D01*
X169318520Y-85246359D01*
X169432594Y-85819848D01*
X169757450Y-86306029D01*
X170028292Y-86487000D01*
X169757450Y-86667971D01*
X169432594Y-87154152D01*
X169318520Y-87727641D01*
X169318520Y-87786359D01*
X169432594Y-88359848D01*
X169743694Y-88825442D01*
X169718203Y-88830238D01*
X169502079Y-88969310D01*
X169357089Y-89181510D01*
X169306080Y-89433400D01*
X169306080Y-91160600D01*
X169350358Y-91395917D01*
X169489430Y-91612041D01*
X169701630Y-91757031D01*
X169953520Y-91808040D01*
X171680720Y-91808040D01*
X171916037Y-91763762D01*
X172132161Y-91624690D01*
X172277151Y-91412490D01*
X172285984Y-91368869D01*
X172297450Y-91386029D01*
X172783631Y-91710885D01*
X173357120Y-91824959D01*
X173930609Y-91710885D01*
X174416790Y-91386029D01*
X174438830Y-91353044D01*
X174438830Y-99400956D01*
X174416790Y-99367971D01*
X173930609Y-99043115D01*
X173357120Y-98929041D01*
X172783631Y-99043115D01*
X172297450Y-99367971D01*
X172087120Y-99682752D01*
X171876790Y-99367971D01*
X171390609Y-99043115D01*
X170817120Y-98929041D01*
X170243631Y-99043115D01*
X169757450Y-99367971D01*
X169432594Y-99854152D01*
X169318520Y-100427641D01*
X169318520Y-100486359D01*
X169432594Y-101059848D01*
X169757450Y-101546029D01*
X170028281Y-101726992D01*
X169610299Y-102108510D01*
X169362152Y-102637973D01*
X169482651Y-102870000D01*
X170690120Y-102870000D01*
X170690120Y-102850000D01*
X170944120Y-102850000D01*
X170944120Y-102870000D01*
X173230120Y-102870000D01*
X173230120Y-102850000D01*
X173484120Y-102850000D01*
X173484120Y-102870000D01*
X173504120Y-102870000D01*
X173504120Y-103124000D01*
X173484120Y-103124000D01*
X173484120Y-103144000D01*
X173230120Y-103144000D01*
X173230120Y-103124000D01*
X170944120Y-103124000D01*
X170944120Y-103144000D01*
X170690120Y-103144000D01*
X170690120Y-103124000D01*
X169482651Y-103124000D01*
X169362152Y-103356027D01*
X169610299Y-103885490D01*
X170028281Y-104267008D01*
X169757450Y-104447971D01*
X169432594Y-104934152D01*
X169318520Y-105507641D01*
X169318520Y-105566359D01*
X169432594Y-106139848D01*
X169757450Y-106626029D01*
X170028292Y-106807000D01*
X169757450Y-106987971D01*
X169432594Y-107474152D01*
X169318520Y-108047641D01*
X169318520Y-108106359D01*
X169432594Y-108679848D01*
X169757450Y-109166029D01*
X170028292Y-109347000D01*
X169757450Y-109527971D01*
X169432594Y-110014152D01*
X169318520Y-110587641D01*
X169318520Y-110646359D01*
X169432594Y-111219848D01*
X169743694Y-111685442D01*
X169718203Y-111690238D01*
X169502079Y-111829310D01*
X169357089Y-112041510D01*
X169306080Y-112293400D01*
X169306080Y-114020600D01*
X169350358Y-114255917D01*
X169489430Y-114472041D01*
X169701630Y-114617031D01*
X169953520Y-114668040D01*
X171680720Y-114668040D01*
X171916037Y-114623762D01*
X172132161Y-114484690D01*
X172277151Y-114272490D01*
X172285984Y-114228869D01*
X172297450Y-114246029D01*
X172783631Y-114570885D01*
X173357120Y-114684959D01*
X173930609Y-114570885D01*
X174416790Y-114246029D01*
X174438830Y-114213044D01*
X174438830Y-119794733D01*
X173509017Y-124469219D01*
X170896631Y-128378931D01*
X166986919Y-130991317D01*
X162312434Y-131921130D01*
X120227767Y-131921130D01*
X115553281Y-130991317D01*
X111643569Y-128378931D01*
X109356882Y-124956661D01*
X117334758Y-124956661D01*
X117546990Y-125470303D01*
X117939630Y-125863629D01*
X118452900Y-126076757D01*
X119008661Y-126077242D01*
X119522303Y-125865010D01*
X119732021Y-125655658D01*
X119939630Y-125863629D01*
X120452900Y-126076757D01*
X121008661Y-126077242D01*
X121522303Y-125865010D01*
X121732021Y-125655658D01*
X121939630Y-125863629D01*
X122452900Y-126076757D01*
X123008661Y-126077242D01*
X123522303Y-125865010D01*
X123727457Y-125660213D01*
X123931392Y-125660213D01*
X124000857Y-125902397D01*
X124524302Y-126089144D01*
X125079368Y-126061362D01*
X125463143Y-125902397D01*
X125532608Y-125660213D01*
X124732000Y-124859605D01*
X123931392Y-125660213D01*
X123727457Y-125660213D01*
X123915629Y-125472370D01*
X124026122Y-125206273D01*
X124552395Y-124680000D01*
X124911605Y-124680000D01*
X125712213Y-125480608D01*
X125954397Y-125411143D01*
X126116540Y-124956661D01*
X130415758Y-124956661D01*
X130627990Y-125470303D01*
X131020630Y-125863629D01*
X131533900Y-126076757D01*
X132089661Y-126077242D01*
X132603303Y-125865010D01*
X132813021Y-125655658D01*
X133020630Y-125863629D01*
X133533900Y-126076757D01*
X134089661Y-126077242D01*
X134603303Y-125865010D01*
X134813021Y-125655658D01*
X135020630Y-125863629D01*
X135533900Y-126076757D01*
X136089661Y-126077242D01*
X136603303Y-125865010D01*
X136808457Y-125660213D01*
X137012392Y-125660213D01*
X137081857Y-125902397D01*
X137605302Y-126089144D01*
X138160368Y-126061362D01*
X138544143Y-125902397D01*
X138613608Y-125660213D01*
X137813000Y-124859605D01*
X137012392Y-125660213D01*
X136808457Y-125660213D01*
X136996629Y-125472370D01*
X137107122Y-125206273D01*
X137633395Y-124680000D01*
X137992605Y-124680000D01*
X138793213Y-125480608D01*
X139035397Y-125411143D01*
X139197540Y-124956661D01*
X143496758Y-124956661D01*
X143708990Y-125470303D01*
X144101630Y-125863629D01*
X144614900Y-126076757D01*
X145170661Y-126077242D01*
X145684303Y-125865010D01*
X145894021Y-125655658D01*
X146101630Y-125863629D01*
X146614900Y-126076757D01*
X147170661Y-126077242D01*
X147684303Y-125865010D01*
X147894021Y-125655658D01*
X148101630Y-125863629D01*
X148614900Y-126076757D01*
X149170661Y-126077242D01*
X149684303Y-125865010D01*
X149889457Y-125660213D01*
X150093392Y-125660213D01*
X150162857Y-125902397D01*
X150686302Y-126089144D01*
X151241368Y-126061362D01*
X151625143Y-125902397D01*
X151694608Y-125660213D01*
X150894000Y-124859605D01*
X150093392Y-125660213D01*
X149889457Y-125660213D01*
X150077629Y-125472370D01*
X150188122Y-125206273D01*
X150714395Y-124680000D01*
X151073605Y-124680000D01*
X151874213Y-125480608D01*
X152116397Y-125411143D01*
X152278540Y-124956661D01*
X156577758Y-124956661D01*
X156789990Y-125470303D01*
X157182630Y-125863629D01*
X157695900Y-126076757D01*
X158251661Y-126077242D01*
X158765303Y-125865010D01*
X158975021Y-125655658D01*
X159182630Y-125863629D01*
X159695900Y-126076757D01*
X160251661Y-126077242D01*
X160765303Y-125865010D01*
X160975021Y-125655658D01*
X161182630Y-125863629D01*
X161695900Y-126076757D01*
X162251661Y-126077242D01*
X162765303Y-125865010D01*
X162970457Y-125660213D01*
X163174392Y-125660213D01*
X163243857Y-125902397D01*
X163767302Y-126089144D01*
X164322368Y-126061362D01*
X164706143Y-125902397D01*
X164775608Y-125660213D01*
X163975000Y-124859605D01*
X163174392Y-125660213D01*
X162970457Y-125660213D01*
X163158629Y-125472370D01*
X163269122Y-125206273D01*
X163795395Y-124680000D01*
X164154605Y-124680000D01*
X164955213Y-125480608D01*
X165197397Y-125411143D01*
X165384144Y-124887698D01*
X165356362Y-124332632D01*
X165197397Y-123948857D01*
X164955213Y-123879392D01*
X164154605Y-124680000D01*
X163795395Y-124680000D01*
X163269093Y-124153698D01*
X163160010Y-123889697D01*
X162970432Y-123699787D01*
X163174392Y-123699787D01*
X163975000Y-124500395D01*
X164775608Y-123699787D01*
X164706143Y-123457603D01*
X164182698Y-123270856D01*
X163627632Y-123298638D01*
X163243857Y-123457603D01*
X163174392Y-123699787D01*
X162970432Y-123699787D01*
X162767370Y-123496371D01*
X162254100Y-123283243D01*
X161698339Y-123282758D01*
X161184697Y-123494990D01*
X160974979Y-123704342D01*
X160767370Y-123496371D01*
X160254100Y-123283243D01*
X159698339Y-123282758D01*
X159184697Y-123494990D01*
X158974979Y-123704342D01*
X158767370Y-123496371D01*
X158254100Y-123283243D01*
X157698339Y-123282758D01*
X157184697Y-123494990D01*
X156791371Y-123887630D01*
X156578243Y-124400900D01*
X156577758Y-124956661D01*
X152278540Y-124956661D01*
X152303144Y-124887698D01*
X152275362Y-124332632D01*
X152116397Y-123948857D01*
X151874213Y-123879392D01*
X151073605Y-124680000D01*
X150714395Y-124680000D01*
X150188093Y-124153698D01*
X150079010Y-123889697D01*
X149889432Y-123699787D01*
X150093392Y-123699787D01*
X150894000Y-124500395D01*
X151694608Y-123699787D01*
X151625143Y-123457603D01*
X151101698Y-123270856D01*
X150546632Y-123298638D01*
X150162857Y-123457603D01*
X150093392Y-123699787D01*
X149889432Y-123699787D01*
X149686370Y-123496371D01*
X149173100Y-123283243D01*
X148617339Y-123282758D01*
X148103697Y-123494990D01*
X147893979Y-123704342D01*
X147686370Y-123496371D01*
X147173100Y-123283243D01*
X146617339Y-123282758D01*
X146103697Y-123494990D01*
X145893979Y-123704342D01*
X145686370Y-123496371D01*
X145173100Y-123283243D01*
X144617339Y-123282758D01*
X144103697Y-123494990D01*
X143710371Y-123887630D01*
X143497243Y-124400900D01*
X143496758Y-124956661D01*
X139197540Y-124956661D01*
X139222144Y-124887698D01*
X139194362Y-124332632D01*
X139035397Y-123948857D01*
X138793213Y-123879392D01*
X137992605Y-124680000D01*
X137633395Y-124680000D01*
X137107093Y-124153698D01*
X136998010Y-123889697D01*
X136808432Y-123699787D01*
X137012392Y-123699787D01*
X137813000Y-124500395D01*
X138613608Y-123699787D01*
X138544143Y-123457603D01*
X138020698Y-123270856D01*
X137465632Y-123298638D01*
X137081857Y-123457603D01*
X137012392Y-123699787D01*
X136808432Y-123699787D01*
X136605370Y-123496371D01*
X136092100Y-123283243D01*
X135536339Y-123282758D01*
X135022697Y-123494990D01*
X134812979Y-123704342D01*
X134605370Y-123496371D01*
X134092100Y-123283243D01*
X133536339Y-123282758D01*
X133022697Y-123494990D01*
X132812979Y-123704342D01*
X132605370Y-123496371D01*
X132092100Y-123283243D01*
X131536339Y-123282758D01*
X131022697Y-123494990D01*
X130629371Y-123887630D01*
X130416243Y-124400900D01*
X130415758Y-124956661D01*
X126116540Y-124956661D01*
X126141144Y-124887698D01*
X126113362Y-124332632D01*
X125954397Y-123948857D01*
X125712213Y-123879392D01*
X124911605Y-124680000D01*
X124552395Y-124680000D01*
X124026093Y-124153698D01*
X123917010Y-123889697D01*
X123727432Y-123699787D01*
X123931392Y-123699787D01*
X124732000Y-124500395D01*
X125532608Y-123699787D01*
X125463143Y-123457603D01*
X124939698Y-123270856D01*
X124384632Y-123298638D01*
X124000857Y-123457603D01*
X123931392Y-123699787D01*
X123727432Y-123699787D01*
X123524370Y-123496371D01*
X123011100Y-123283243D01*
X122455339Y-123282758D01*
X121941697Y-123494990D01*
X121731979Y-123704342D01*
X121524370Y-123496371D01*
X121011100Y-123283243D01*
X120455339Y-123282758D01*
X119941697Y-123494990D01*
X119731979Y-123704342D01*
X119524370Y-123496371D01*
X119011100Y-123283243D01*
X118455339Y-123282758D01*
X117941697Y-123494990D01*
X117548371Y-123887630D01*
X117335243Y-124400900D01*
X117334758Y-124956661D01*
X109356882Y-124956661D01*
X109031183Y-124469219D01*
X108101370Y-119794734D01*
X108101370Y-118621426D01*
X114915142Y-118621426D01*
X115087412Y-119037347D01*
X115481610Y-119469221D01*
X116011073Y-119717368D01*
X116243100Y-119596869D01*
X116243100Y-118389400D01*
X116497100Y-118389400D01*
X116497100Y-119596869D01*
X116729127Y-119717368D01*
X117258590Y-119469221D01*
X117640100Y-119051248D01*
X118021610Y-119469221D01*
X118551073Y-119717368D01*
X118783100Y-119596869D01*
X118783100Y-118389400D01*
X119037100Y-118389400D01*
X119037100Y-119596869D01*
X119269127Y-119717368D01*
X119798590Y-119469221D01*
X120192788Y-119037347D01*
X120365058Y-118621426D01*
X120243917Y-118389400D01*
X119037100Y-118389400D01*
X118783100Y-118389400D01*
X116497100Y-118389400D01*
X116243100Y-118389400D01*
X115036283Y-118389400D01*
X114915142Y-118621426D01*
X108101370Y-118621426D01*
X108101370Y-116081426D01*
X114915142Y-116081426D01*
X115087412Y-116497347D01*
X115481610Y-116929221D01*
X115616413Y-116992400D01*
X115481610Y-117055579D01*
X115087412Y-117487453D01*
X114915142Y-117903374D01*
X115036283Y-118135400D01*
X116243100Y-118135400D01*
X116243100Y-115849400D01*
X116497100Y-115849400D01*
X116497100Y-118135400D01*
X118783100Y-118135400D01*
X118783100Y-115849400D01*
X119037100Y-115849400D01*
X119037100Y-118135400D01*
X120243917Y-118135400D01*
X120365058Y-117903374D01*
X120192788Y-117487453D01*
X120053678Y-117335047D01*
X128980758Y-117335047D01*
X129122803Y-117678823D01*
X129385593Y-117942072D01*
X129729121Y-118084718D01*
X130101087Y-118085042D01*
X130444863Y-117942997D01*
X130708112Y-117680207D01*
X130818324Y-117414789D01*
X130921123Y-117663583D01*
X131183913Y-117926832D01*
X131527441Y-118069478D01*
X131899407Y-118069802D01*
X132243183Y-117927757D01*
X132506432Y-117664967D01*
X132637099Y-117350287D01*
X132673918Y-117350287D01*
X132815963Y-117694063D01*
X133078753Y-117957312D01*
X133422281Y-118099958D01*
X133794247Y-118100282D01*
X134138023Y-117958237D01*
X134369835Y-117726829D01*
X134385683Y-117765183D01*
X134648473Y-118028432D01*
X134992001Y-118171078D01*
X135363967Y-118171402D01*
X135707743Y-118029357D01*
X135970992Y-117766567D01*
X136113638Y-117423039D01*
X136113962Y-117051073D01*
X135971917Y-116707297D01*
X135709127Y-116444048D01*
X135365599Y-116301402D01*
X134993633Y-116301078D01*
X134649857Y-116443123D01*
X134418045Y-116674531D01*
X134402197Y-116636177D01*
X134139407Y-116372928D01*
X133795879Y-116230282D01*
X133423913Y-116229958D01*
X133080137Y-116372003D01*
X132816888Y-116634793D01*
X132674242Y-116978321D01*
X132673918Y-117350287D01*
X132637099Y-117350287D01*
X132649078Y-117321439D01*
X132649402Y-116949473D01*
X132507357Y-116605697D01*
X132244567Y-116342448D01*
X131901039Y-116199802D01*
X131529073Y-116199478D01*
X131185297Y-116341523D01*
X130922048Y-116604313D01*
X130811836Y-116869731D01*
X130709037Y-116620937D01*
X130446247Y-116357688D01*
X130102719Y-116215042D01*
X129730753Y-116214718D01*
X129386977Y-116356763D01*
X129123728Y-116619553D01*
X128981082Y-116963081D01*
X128980758Y-117335047D01*
X120053678Y-117335047D01*
X119798590Y-117055579D01*
X119663787Y-116992400D01*
X119798590Y-116929221D01*
X120192788Y-116497347D01*
X120365058Y-116081426D01*
X120243917Y-115849400D01*
X119037100Y-115849400D01*
X118783100Y-115849400D01*
X116497100Y-115849400D01*
X116243100Y-115849400D01*
X115036283Y-115849400D01*
X114915142Y-116081426D01*
X108101370Y-116081426D01*
X108101370Y-115755167D01*
X123093038Y-115755167D01*
X123235083Y-116098943D01*
X123497873Y-116362192D01*
X123841401Y-116504838D01*
X124213367Y-116505162D01*
X124557143Y-116363117D01*
X124726765Y-116193791D01*
X124894873Y-116362192D01*
X125238401Y-116504838D01*
X125610367Y-116505162D01*
X125954143Y-116363117D01*
X126217392Y-116100327D01*
X126228686Y-116073126D01*
X150009383Y-116073126D01*
X150151428Y-116416902D01*
X150414218Y-116680151D01*
X150456362Y-116697651D01*
X150422983Y-116711443D01*
X150159734Y-116974233D01*
X150017088Y-117317761D01*
X150016764Y-117689727D01*
X150158809Y-118033503D01*
X150421599Y-118296752D01*
X150765127Y-118439398D01*
X151137093Y-118439722D01*
X151480869Y-118297677D01*
X151744118Y-118034887D01*
X151886764Y-117691359D01*
X151887088Y-117319393D01*
X151745043Y-116975617D01*
X151482253Y-116712368D01*
X151440109Y-116694868D01*
X151473488Y-116681076D01*
X151736737Y-116418286D01*
X151879383Y-116074758D01*
X151879707Y-115702792D01*
X151737662Y-115359016D01*
X151474872Y-115095767D01*
X151131344Y-114953121D01*
X150759378Y-114952797D01*
X150415602Y-115094842D01*
X150152353Y-115357632D01*
X150009707Y-115701160D01*
X150009383Y-116073126D01*
X126228686Y-116073126D01*
X126360038Y-115756799D01*
X126360362Y-115384833D01*
X126218317Y-115041057D01*
X125955527Y-114777808D01*
X125611999Y-114635162D01*
X125240033Y-114634838D01*
X124896257Y-114776883D01*
X124726635Y-114946209D01*
X124558527Y-114777808D01*
X124214999Y-114635162D01*
X123843033Y-114634838D01*
X123499257Y-114776883D01*
X123236008Y-115039673D01*
X123093362Y-115383201D01*
X123093038Y-115755167D01*
X108101370Y-115755167D01*
X108101370Y-114072303D01*
X108217450Y-114246029D01*
X108703631Y-114570885D01*
X109277120Y-114684959D01*
X109850609Y-114570885D01*
X110336790Y-114246029D01*
X110547120Y-113931248D01*
X110757450Y-114246029D01*
X111243631Y-114570885D01*
X111817120Y-114684959D01*
X112390609Y-114570885D01*
X112876790Y-114246029D01*
X113201646Y-113759848D01*
X113315720Y-113186359D01*
X113315720Y-113127641D01*
X113201646Y-112554152D01*
X112876790Y-112067971D01*
X112605959Y-111887008D01*
X113023941Y-111505490D01*
X113272088Y-110976027D01*
X113151589Y-110744000D01*
X111944120Y-110744000D01*
X111944120Y-110764000D01*
X111690120Y-110764000D01*
X111690120Y-110744000D01*
X109404120Y-110744000D01*
X109404120Y-110764000D01*
X109150120Y-110764000D01*
X109150120Y-110744000D01*
X109130120Y-110744000D01*
X109130120Y-110490000D01*
X109150120Y-110490000D01*
X109150120Y-110470000D01*
X109404120Y-110470000D01*
X109404120Y-110490000D01*
X111690120Y-110490000D01*
X111690120Y-110470000D01*
X111944120Y-110470000D01*
X111944120Y-110490000D01*
X113151589Y-110490000D01*
X113272088Y-110257973D01*
X113023941Y-109728510D01*
X112605959Y-109346992D01*
X112876790Y-109166029D01*
X113201646Y-108679848D01*
X113315720Y-108106359D01*
X113315720Y-108047641D01*
X113201646Y-107474152D01*
X112876790Y-106987971D01*
X112605948Y-106807000D01*
X112876790Y-106626029D01*
X113201646Y-106139848D01*
X113315720Y-105566359D01*
X113315720Y-105507641D01*
X113201646Y-104934152D01*
X112876790Y-104447971D01*
X112605948Y-104267000D01*
X112876790Y-104086029D01*
X113201646Y-103599848D01*
X113315720Y-103026359D01*
X113315720Y-102967641D01*
X113201646Y-102394152D01*
X112890546Y-101928558D01*
X112916037Y-101923762D01*
X113132161Y-101784690D01*
X113277151Y-101572490D01*
X113328160Y-101320600D01*
X113328160Y-99593400D01*
X113283882Y-99358083D01*
X113144810Y-99141959D01*
X112932610Y-98996969D01*
X112680720Y-98945960D01*
X110953520Y-98945960D01*
X110718203Y-98990238D01*
X110502079Y-99129310D01*
X110357089Y-99341510D01*
X110348256Y-99385131D01*
X110336790Y-99367971D01*
X109850609Y-99043115D01*
X109277120Y-98929041D01*
X108703631Y-99043115D01*
X108217450Y-99367971D01*
X108101370Y-99541697D01*
X108101370Y-91212303D01*
X108217450Y-91386029D01*
X108703631Y-91710885D01*
X109277120Y-91824959D01*
X109850609Y-91710885D01*
X110336790Y-91386029D01*
X110547120Y-91071248D01*
X110757450Y-91386029D01*
X111243631Y-91710885D01*
X111817120Y-91824959D01*
X112390609Y-91710885D01*
X112876790Y-91386029D01*
X113201646Y-90899848D01*
X113315720Y-90326359D01*
X113315720Y-90267641D01*
X113201646Y-89694152D01*
X112876790Y-89207971D01*
X112605959Y-89027008D01*
X113023941Y-88645490D01*
X113272088Y-88116027D01*
X113151589Y-87884000D01*
X111944120Y-87884000D01*
X111944120Y-87904000D01*
X111690120Y-87904000D01*
X111690120Y-87884000D01*
X109404120Y-87884000D01*
X109404120Y-87904000D01*
X109150120Y-87904000D01*
X109150120Y-87884000D01*
X109130120Y-87884000D01*
X109130120Y-87630000D01*
X109150120Y-87630000D01*
X109150120Y-87610000D01*
X109404120Y-87610000D01*
X109404120Y-87630000D01*
X111690120Y-87630000D01*
X111690120Y-87610000D01*
X111944120Y-87610000D01*
X111944120Y-87630000D01*
X113151589Y-87630000D01*
X113272088Y-87397973D01*
X113023941Y-86868510D01*
X112605959Y-86486992D01*
X112876790Y-86306029D01*
X113201646Y-85819848D01*
X113315720Y-85246359D01*
X113315720Y-85187641D01*
X113201646Y-84614152D01*
X112876790Y-84127971D01*
X112605948Y-83947000D01*
X112876790Y-83766029D01*
X113201646Y-83279848D01*
X113315720Y-82706359D01*
X113315720Y-82647641D01*
X113201646Y-82074152D01*
X112876790Y-81587971D01*
X112605948Y-81407000D01*
X112876790Y-81226029D01*
X113201646Y-80739848D01*
X113315720Y-80166359D01*
X113315720Y-80107641D01*
X113201646Y-79534152D01*
X112890546Y-79068558D01*
X112916037Y-79063762D01*
X113132161Y-78924690D01*
X113277151Y-78712490D01*
X113328160Y-78460600D01*
X113328160Y-76733400D01*
X113283882Y-76498083D01*
X113144810Y-76281959D01*
X112932610Y-76136969D01*
X112680720Y-76085960D01*
X110953520Y-76085960D01*
X110718203Y-76130238D01*
X110502079Y-76269310D01*
X110357089Y-76481510D01*
X110348256Y-76525131D01*
X110336790Y-76507971D01*
X109850609Y-76183115D01*
X109277120Y-76069041D01*
X108703631Y-76183115D01*
X108217450Y-76507971D01*
X108101370Y-76681697D01*
X108101370Y-64922400D01*
X114842141Y-64922400D01*
X114956215Y-65495889D01*
X115281071Y-65982070D01*
X115595852Y-66192400D01*
X115281071Y-66402730D01*
X114956215Y-66888911D01*
X114842141Y-67462400D01*
X114956215Y-68035889D01*
X115281071Y-68522070D01*
X115595852Y-68732400D01*
X115281071Y-68942730D01*
X114956215Y-69428911D01*
X114842141Y-70002400D01*
X114956215Y-70575889D01*
X115281071Y-71062070D01*
X115595852Y-71272400D01*
X115281071Y-71482730D01*
X114956215Y-71968911D01*
X114842141Y-72542400D01*
X114956215Y-73115889D01*
X115281071Y-73602070D01*
X115595852Y-73812400D01*
X115281071Y-74022730D01*
X114956215Y-74508911D01*
X114842141Y-75082400D01*
X114956215Y-75655889D01*
X115281071Y-76142070D01*
X115595852Y-76352400D01*
X115281071Y-76562730D01*
X114956215Y-77048911D01*
X114842141Y-77622400D01*
X114956215Y-78195889D01*
X115281071Y-78682070D01*
X115595852Y-78892400D01*
X115281071Y-79102730D01*
X114956215Y-79588911D01*
X114842141Y-80162400D01*
X114956215Y-80735889D01*
X115281071Y-81222070D01*
X115595852Y-81432400D01*
X115281071Y-81642730D01*
X114956215Y-82128911D01*
X114842141Y-82702400D01*
X114956215Y-83275889D01*
X115281071Y-83762070D01*
X115595852Y-83972400D01*
X115281071Y-84182730D01*
X114956215Y-84668911D01*
X114842141Y-85242400D01*
X114956215Y-85815889D01*
X115281071Y-86302070D01*
X115595852Y-86512400D01*
X115281071Y-86722730D01*
X114956215Y-87208911D01*
X114842141Y-87782400D01*
X114956215Y-88355889D01*
X115281071Y-88842070D01*
X115595852Y-89052400D01*
X115281071Y-89262730D01*
X114956215Y-89748911D01*
X114842141Y-90322400D01*
X114956215Y-90895889D01*
X115281071Y-91382070D01*
X115595852Y-91592400D01*
X115281071Y-91802730D01*
X114956215Y-92288911D01*
X114842141Y-92862400D01*
X114956215Y-93435889D01*
X115281071Y-93922070D01*
X115595852Y-94132400D01*
X115281071Y-94342730D01*
X114956215Y-94828911D01*
X114842141Y-95402400D01*
X114956215Y-95975889D01*
X115281071Y-96462070D01*
X115595852Y-96672400D01*
X115281071Y-96882730D01*
X114956215Y-97368911D01*
X114842141Y-97942400D01*
X114956215Y-98515889D01*
X115281071Y-99002070D01*
X115595852Y-99212400D01*
X115281071Y-99422730D01*
X114956215Y-99908911D01*
X114842141Y-100482400D01*
X114956215Y-101055889D01*
X115281071Y-101542070D01*
X115595852Y-101752400D01*
X115281071Y-101962730D01*
X114956215Y-102448911D01*
X114842141Y-103022400D01*
X114956215Y-103595889D01*
X115281071Y-104082070D01*
X115595852Y-104292400D01*
X115281071Y-104502730D01*
X114956215Y-104988911D01*
X114842141Y-105562400D01*
X114956215Y-106135889D01*
X115281071Y-106622070D01*
X115595852Y-106832400D01*
X115281071Y-107042730D01*
X114956215Y-107528911D01*
X114842141Y-108102400D01*
X114956215Y-108675889D01*
X115281071Y-109162070D01*
X115595852Y-109372400D01*
X115281071Y-109582730D01*
X114956215Y-110068911D01*
X114842141Y-110642400D01*
X114956215Y-111215889D01*
X115281071Y-111702070D01*
X115595852Y-111912400D01*
X115281071Y-112122730D01*
X114956215Y-112608911D01*
X114842141Y-113182400D01*
X114956215Y-113755889D01*
X115281071Y-114242070D01*
X115604328Y-114458064D01*
X115481610Y-114515579D01*
X115087412Y-114947453D01*
X114915142Y-115363374D01*
X115036283Y-115595400D01*
X116243100Y-115595400D01*
X116243100Y-115575400D01*
X116497100Y-115575400D01*
X116497100Y-115595400D01*
X118783100Y-115595400D01*
X118783100Y-115575400D01*
X119037100Y-115575400D01*
X119037100Y-115595400D01*
X120243917Y-115595400D01*
X120365058Y-115363374D01*
X120192788Y-114947453D01*
X119798590Y-114515579D01*
X119675872Y-114458064D01*
X119999129Y-114242070D01*
X120323985Y-113755889D01*
X120438059Y-113182400D01*
X120325847Y-112618267D01*
X129900238Y-112618267D01*
X130042283Y-112962043D01*
X130305073Y-113225292D01*
X130648601Y-113367938D01*
X131020567Y-113368262D01*
X131364343Y-113226217D01*
X131627592Y-112963427D01*
X131628530Y-112961167D01*
X136504238Y-112961167D01*
X136646283Y-113304943D01*
X136909073Y-113568192D01*
X137252601Y-113710838D01*
X137624567Y-113711162D01*
X137968343Y-113569117D01*
X138231592Y-113306327D01*
X138374238Y-112962799D01*
X138374562Y-112590833D01*
X138232517Y-112247057D01*
X137969727Y-111983808D01*
X137626199Y-111841162D01*
X137254233Y-111840838D01*
X136910457Y-111982883D01*
X136647208Y-112245673D01*
X136504562Y-112589201D01*
X136504238Y-112961167D01*
X131628530Y-112961167D01*
X131770238Y-112619899D01*
X131770562Y-112247933D01*
X131628517Y-111904157D01*
X131365727Y-111640908D01*
X131022199Y-111498262D01*
X130650233Y-111497938D01*
X130306457Y-111639983D01*
X130043208Y-111902773D01*
X129900562Y-112246301D01*
X129900238Y-112618267D01*
X120325847Y-112618267D01*
X120323985Y-112608911D01*
X119999129Y-112122730D01*
X119684348Y-111912400D01*
X119999129Y-111702070D01*
X120323985Y-111215889D01*
X120346605Y-111102167D01*
X126557838Y-111102167D01*
X126699883Y-111445943D01*
X126962673Y-111709192D01*
X127306201Y-111851838D01*
X127678167Y-111852162D01*
X128021943Y-111710117D01*
X128285192Y-111447327D01*
X128356574Y-111275420D01*
X149958652Y-111275420D01*
X150100697Y-111619196D01*
X150363487Y-111882445D01*
X150707015Y-112025091D01*
X151078981Y-112025415D01*
X151422757Y-111883370D01*
X151686006Y-111620580D01*
X151828652Y-111277052D01*
X151828976Y-110905086D01*
X151686931Y-110561310D01*
X151424141Y-110298061D01*
X151080613Y-110155415D01*
X150708647Y-110155091D01*
X150364871Y-110297136D01*
X150101622Y-110559926D01*
X149958976Y-110903454D01*
X149958652Y-111275420D01*
X128356574Y-111275420D01*
X128427838Y-111103799D01*
X128428162Y-110731833D01*
X128286117Y-110388057D01*
X128023327Y-110124808D01*
X127679799Y-109982162D01*
X127307833Y-109981838D01*
X126964057Y-110123883D01*
X126700808Y-110386673D01*
X126558162Y-110730201D01*
X126557838Y-111102167D01*
X120346605Y-111102167D01*
X120438059Y-110642400D01*
X120323985Y-110068911D01*
X119999129Y-109582730D01*
X119684348Y-109372400D01*
X119999129Y-109162070D01*
X120323985Y-108675889D01*
X120346605Y-108562167D01*
X122431838Y-108562167D01*
X122573883Y-108905943D01*
X122836673Y-109169192D01*
X123180201Y-109311838D01*
X123230772Y-109311882D01*
X123093362Y-109642801D01*
X123093038Y-110014767D01*
X123235083Y-110358543D01*
X123497873Y-110621792D01*
X123841401Y-110764438D01*
X124213367Y-110764762D01*
X124557143Y-110622717D01*
X124820392Y-110359927D01*
X124963038Y-110016399D01*
X124963335Y-109675167D01*
X139214838Y-109675167D01*
X139356883Y-110018943D01*
X139619673Y-110282192D01*
X139963201Y-110424838D01*
X140335167Y-110425162D01*
X140678943Y-110283117D01*
X140942192Y-110020327D01*
X141084838Y-109676799D01*
X141085162Y-109304833D01*
X140943117Y-108961057D01*
X140680327Y-108697808D01*
X140336799Y-108555162D01*
X139964833Y-108554838D01*
X139621057Y-108696883D01*
X139357808Y-108959673D01*
X139215162Y-109303201D01*
X139214838Y-109675167D01*
X124963335Y-109675167D01*
X124963362Y-109644433D01*
X124821317Y-109300657D01*
X124558527Y-109037408D01*
X124214999Y-108894762D01*
X124164428Y-108894718D01*
X124301838Y-108563799D01*
X124302162Y-108191833D01*
X124160117Y-107848057D01*
X123897327Y-107584808D01*
X123571151Y-107449367D01*
X130103438Y-107449367D01*
X130245483Y-107793143D01*
X130508273Y-108056392D01*
X130851801Y-108199038D01*
X131223767Y-108199362D01*
X131567543Y-108057317D01*
X131662077Y-107962947D01*
X136573275Y-107962947D01*
X136715320Y-108306723D01*
X136978110Y-108569972D01*
X137321638Y-108712618D01*
X137693604Y-108712942D01*
X138037380Y-108570897D01*
X138300629Y-108308107D01*
X138443275Y-107964579D01*
X138443599Y-107592613D01*
X138312665Y-107275727D01*
X149924146Y-107275727D01*
X150066191Y-107619503D01*
X150328981Y-107882752D01*
X150672509Y-108025398D01*
X151044475Y-108025722D01*
X151388251Y-107883677D01*
X151651500Y-107620887D01*
X151794146Y-107277359D01*
X151794470Y-106905393D01*
X151652425Y-106561617D01*
X151389635Y-106298368D01*
X151046107Y-106155722D01*
X150674141Y-106155398D01*
X150330365Y-106297443D01*
X150067116Y-106560233D01*
X149924470Y-106903761D01*
X149924146Y-107275727D01*
X138312665Y-107275727D01*
X138301554Y-107248837D01*
X138038764Y-106985588D01*
X137695236Y-106842942D01*
X137323270Y-106842618D01*
X136979494Y-106984663D01*
X136716245Y-107247453D01*
X136573599Y-107590981D01*
X136573275Y-107962947D01*
X131662077Y-107962947D01*
X131830792Y-107794527D01*
X131973438Y-107450999D01*
X131973762Y-107079033D01*
X131831717Y-106735257D01*
X131568927Y-106472008D01*
X131225399Y-106329362D01*
X130853433Y-106329038D01*
X130509657Y-106471083D01*
X130246408Y-106733873D01*
X130103762Y-107077401D01*
X130103438Y-107449367D01*
X123571151Y-107449367D01*
X123553799Y-107442162D01*
X123181833Y-107441838D01*
X122838057Y-107583883D01*
X122574808Y-107846673D01*
X122432162Y-108190201D01*
X122431838Y-108562167D01*
X120346605Y-108562167D01*
X120438059Y-108102400D01*
X120323985Y-107528911D01*
X119999129Y-107042730D01*
X119684348Y-106832400D01*
X119999129Y-106622070D01*
X120323985Y-106135889D01*
X120438059Y-105562400D01*
X120323985Y-104988911D01*
X119999129Y-104502730D01*
X119684348Y-104292400D01*
X119999129Y-104082070D01*
X120323985Y-103595889D01*
X120438059Y-103022400D01*
X120363739Y-102648767D01*
X123982038Y-102648767D01*
X124124083Y-102992543D01*
X124386873Y-103255792D01*
X124730401Y-103398438D01*
X125102367Y-103398762D01*
X125253294Y-103336400D01*
X127048960Y-103336400D01*
X127048960Y-105063600D01*
X127093238Y-105298917D01*
X127232310Y-105515041D01*
X127444510Y-105660031D01*
X127696400Y-105711040D01*
X129423600Y-105711040D01*
X129658917Y-105666762D01*
X129875041Y-105527690D01*
X130020031Y-105315490D01*
X130071040Y-105063600D01*
X130071040Y-103336400D01*
X130678960Y-103336400D01*
X130678960Y-105063600D01*
X130723238Y-105298917D01*
X130862310Y-105515041D01*
X131074510Y-105660031D01*
X131326400Y-105711040D01*
X133053600Y-105711040D01*
X133288917Y-105666762D01*
X133505041Y-105527690D01*
X133650031Y-105315490D01*
X133701040Y-105063600D01*
X133701040Y-103336400D01*
X133656762Y-103101083D01*
X133517690Y-102884959D01*
X133305490Y-102739969D01*
X133261655Y-102731092D01*
X133432658Y-102475167D01*
X139174838Y-102475167D01*
X139316883Y-102818943D01*
X139579673Y-103082192D01*
X139603084Y-103091913D01*
X139591057Y-103096883D01*
X139327808Y-103359673D01*
X139185162Y-103703201D01*
X139184838Y-104075167D01*
X139326883Y-104418943D01*
X139589673Y-104682192D01*
X139647202Y-104706080D01*
X139621057Y-104716883D01*
X139357808Y-104979673D01*
X139215162Y-105323201D01*
X139214838Y-105695167D01*
X139356883Y-106038943D01*
X139619673Y-106302192D01*
X139963201Y-106444838D01*
X140335167Y-106445162D01*
X140678943Y-106303117D01*
X140942192Y-106040327D01*
X141084838Y-105696799D01*
X141084971Y-105544341D01*
X141208943Y-105493117D01*
X141472192Y-105230327D01*
X141614838Y-104886799D01*
X141615162Y-104514833D01*
X141473117Y-104171057D01*
X141210327Y-103907808D01*
X141135383Y-103876688D01*
X141392192Y-103620327D01*
X141534838Y-103276799D01*
X141535162Y-102904833D01*
X141393117Y-102561057D01*
X141130327Y-102297808D01*
X141045025Y-102262387D01*
X141045162Y-102104833D01*
X140938614Y-101846968D01*
X141068943Y-101793117D01*
X141332192Y-101530327D01*
X141474838Y-101186799D01*
X141475162Y-100814833D01*
X141333117Y-100471057D01*
X141070327Y-100207808D01*
X140726799Y-100065162D01*
X140354833Y-100064838D01*
X140011057Y-100206883D01*
X139747808Y-100469673D01*
X139605162Y-100813201D01*
X139604838Y-101185167D01*
X139711386Y-101443032D01*
X139581057Y-101496883D01*
X139317808Y-101759673D01*
X139175162Y-102103201D01*
X139174838Y-102475167D01*
X133432658Y-102475167D01*
X133574526Y-102262848D01*
X133688600Y-101689359D01*
X133688600Y-101630641D01*
X133574526Y-101057152D01*
X133452928Y-100875167D01*
X136814838Y-100875167D01*
X136956883Y-101218943D01*
X137219673Y-101482192D01*
X137563201Y-101624838D01*
X137935167Y-101625162D01*
X138278943Y-101483117D01*
X138542192Y-101220327D01*
X138684838Y-100876799D01*
X138685162Y-100504833D01*
X138543117Y-100161057D01*
X138280327Y-99897808D01*
X137936799Y-99755162D01*
X137564833Y-99754838D01*
X137221057Y-99896883D01*
X136957808Y-100159673D01*
X136815162Y-100503201D01*
X136814838Y-100875167D01*
X133452928Y-100875167D01*
X133249670Y-100570971D01*
X132763489Y-100246115D01*
X132190000Y-100132041D01*
X131616511Y-100246115D01*
X131130330Y-100570971D01*
X130805474Y-101057152D01*
X130691400Y-101630641D01*
X130691400Y-101689359D01*
X130805474Y-102262848D01*
X131116574Y-102728442D01*
X131091083Y-102733238D01*
X130874959Y-102872310D01*
X130729969Y-103084510D01*
X130678960Y-103336400D01*
X130071040Y-103336400D01*
X130026762Y-103101083D01*
X129887690Y-102884959D01*
X129675490Y-102739969D01*
X129631655Y-102731092D01*
X129944526Y-102262848D01*
X130058600Y-101689359D01*
X130058600Y-101630641D01*
X129944526Y-101057152D01*
X129619670Y-100570971D01*
X129133489Y-100246115D01*
X128560000Y-100132041D01*
X127986511Y-100246115D01*
X127500330Y-100570971D01*
X127175474Y-101057152D01*
X127061400Y-101630641D01*
X127061400Y-101689359D01*
X127175474Y-102262848D01*
X127486574Y-102728442D01*
X127461083Y-102733238D01*
X127244959Y-102872310D01*
X127099969Y-103084510D01*
X127048960Y-103336400D01*
X125253294Y-103336400D01*
X125446143Y-103256717D01*
X125709392Y-102993927D01*
X125852038Y-102650399D01*
X125852362Y-102278433D01*
X125710317Y-101934657D01*
X125447527Y-101671408D01*
X125103999Y-101528762D01*
X124732033Y-101528438D01*
X124388257Y-101670483D01*
X124125008Y-101933273D01*
X123982362Y-102276801D01*
X123982038Y-102648767D01*
X120363739Y-102648767D01*
X120323985Y-102448911D01*
X119999129Y-101962730D01*
X119684348Y-101752400D01*
X119999129Y-101542070D01*
X120323985Y-101055889D01*
X120438059Y-100482400D01*
X120323985Y-99908911D01*
X119999129Y-99422730D01*
X119684348Y-99212400D01*
X119999129Y-99002070D01*
X120323985Y-98515889D01*
X120436593Y-97949767D01*
X126547438Y-97949767D01*
X126689483Y-98293543D01*
X126952273Y-98556792D01*
X127295801Y-98699438D01*
X127667767Y-98699762D01*
X128011543Y-98557717D01*
X128274792Y-98294927D01*
X128417438Y-97951399D01*
X128417439Y-97949767D01*
X130154238Y-97949767D01*
X130296283Y-98293543D01*
X130559073Y-98556792D01*
X130902601Y-98699438D01*
X131274567Y-98699762D01*
X131618343Y-98557717D01*
X131881592Y-98294927D01*
X132024238Y-97951399D01*
X132024421Y-97740919D01*
X136863008Y-97740919D01*
X137005053Y-98084695D01*
X137267843Y-98347944D01*
X137611371Y-98490590D01*
X137983337Y-98490914D01*
X138069851Y-98455167D01*
X139184838Y-98455167D01*
X139326883Y-98798943D01*
X139589673Y-99062192D01*
X139933201Y-99204838D01*
X140305167Y-99205162D01*
X140648943Y-99063117D01*
X140912192Y-98800327D01*
X141043058Y-98485167D01*
X147354838Y-98485167D01*
X147496883Y-98828943D01*
X147759673Y-99092192D01*
X147766026Y-99094830D01*
X147761057Y-99096883D01*
X147497808Y-99359673D01*
X147355162Y-99703201D01*
X147354838Y-100075167D01*
X147496883Y-100418943D01*
X147759673Y-100682192D01*
X147793060Y-100696055D01*
X147791057Y-100696883D01*
X147527808Y-100959673D01*
X147385162Y-101303201D01*
X147384838Y-101675167D01*
X147526883Y-102018943D01*
X147789673Y-102282192D01*
X147864605Y-102313307D01*
X147617808Y-102559673D01*
X147475162Y-102903201D01*
X147474838Y-103275167D01*
X147616883Y-103618943D01*
X147879673Y-103882192D01*
X147883134Y-103883629D01*
X147851057Y-103896883D01*
X147587808Y-104159673D01*
X147445162Y-104503201D01*
X147444838Y-104875167D01*
X147586883Y-105218943D01*
X147849673Y-105482192D01*
X147944980Y-105521767D01*
X147944838Y-105685167D01*
X148086883Y-106028943D01*
X148349673Y-106292192D01*
X148693201Y-106434838D01*
X149065167Y-106435162D01*
X149408943Y-106293117D01*
X149672192Y-106030327D01*
X149814838Y-105686799D01*
X149815162Y-105314833D01*
X149673117Y-104971057D01*
X149412448Y-104709933D01*
X149428943Y-104703117D01*
X149692192Y-104440327D01*
X149834838Y-104096799D01*
X149835162Y-103724833D01*
X149693117Y-103381057D01*
X149430327Y-103117808D01*
X149350752Y-103084765D01*
X149378943Y-103073117D01*
X149642192Y-102810327D01*
X149784838Y-102466799D01*
X149785162Y-102094833D01*
X149643117Y-101751057D01*
X149388288Y-101495783D01*
X149418943Y-101483117D01*
X149682192Y-101220327D01*
X149824838Y-100876799D01*
X149825162Y-100504833D01*
X149683117Y-100161057D01*
X149420327Y-99897808D01*
X149386940Y-99883945D01*
X149388943Y-99883117D01*
X149652192Y-99620327D01*
X149794838Y-99276799D01*
X149795162Y-98904833D01*
X149653117Y-98561057D01*
X149390327Y-98297808D01*
X149387076Y-98296458D01*
X149395163Y-98293117D01*
X149658412Y-98030327D01*
X149801058Y-97686799D01*
X149801382Y-97314833D01*
X149659337Y-96971057D01*
X149564158Y-96875711D01*
X149913149Y-96875711D01*
X150055194Y-97219487D01*
X150317984Y-97482736D01*
X150661512Y-97625382D01*
X151033478Y-97625706D01*
X151377254Y-97483661D01*
X151640503Y-97220871D01*
X151783149Y-96877343D01*
X151783473Y-96505377D01*
X151641428Y-96161601D01*
X151378638Y-95898352D01*
X151035110Y-95755706D01*
X150663144Y-95755382D01*
X150319368Y-95897427D01*
X150056119Y-96160217D01*
X149913473Y-96503745D01*
X149913149Y-96875711D01*
X149564158Y-96875711D01*
X149396547Y-96707808D01*
X149053019Y-96565162D01*
X148681053Y-96564838D01*
X148337277Y-96706883D01*
X148074028Y-96969673D01*
X147931382Y-97313201D01*
X147931275Y-97436551D01*
X147761057Y-97506883D01*
X147497808Y-97769673D01*
X147355162Y-98113201D01*
X147354838Y-98485167D01*
X141043058Y-98485167D01*
X141054838Y-98456799D01*
X141055162Y-98084833D01*
X140913117Y-97741057D01*
X140650327Y-97477808D01*
X140306799Y-97335162D01*
X139934833Y-97334838D01*
X139591057Y-97476883D01*
X139327808Y-97739673D01*
X139185162Y-98083201D01*
X139184838Y-98455167D01*
X138069851Y-98455167D01*
X138327113Y-98348869D01*
X138590362Y-98086079D01*
X138733008Y-97742551D01*
X138733332Y-97370585D01*
X138591287Y-97026809D01*
X138328497Y-96763560D01*
X137984969Y-96620914D01*
X137613003Y-96620590D01*
X137269227Y-96762635D01*
X137005978Y-97025425D01*
X136863332Y-97368953D01*
X136863008Y-97740919D01*
X132024421Y-97740919D01*
X132024562Y-97579433D01*
X131882517Y-97235657D01*
X131619727Y-96972408D01*
X131276199Y-96829762D01*
X130904233Y-96829438D01*
X130560457Y-96971483D01*
X130297208Y-97234273D01*
X130154562Y-97577801D01*
X130154238Y-97949767D01*
X128417439Y-97949767D01*
X128417762Y-97579433D01*
X128275717Y-97235657D01*
X128012927Y-96972408D01*
X127669399Y-96829762D01*
X127297433Y-96829438D01*
X126953657Y-96971483D01*
X126690408Y-97234273D01*
X126547762Y-97577801D01*
X126547438Y-97949767D01*
X120436593Y-97949767D01*
X120438059Y-97942400D01*
X120323985Y-97368911D01*
X119999129Y-96882730D01*
X119684348Y-96672400D01*
X119999129Y-96462070D01*
X120323985Y-95975889D01*
X120338906Y-95900873D01*
X126692655Y-95900873D01*
X126834700Y-96244649D01*
X127097490Y-96507898D01*
X127441018Y-96650544D01*
X127812984Y-96650868D01*
X128156760Y-96508823D01*
X128420009Y-96246033D01*
X128562655Y-95902505D01*
X128562979Y-95530539D01*
X128420934Y-95186763D01*
X128191652Y-94957081D01*
X128435419Y-94713739D01*
X128526095Y-94495367D01*
X158945138Y-94495367D01*
X159087183Y-94839143D01*
X159349973Y-95102392D01*
X159693501Y-95245038D01*
X160065467Y-95245362D01*
X160409243Y-95103317D01*
X160672492Y-94840527D01*
X160815138Y-94496999D01*
X160815462Y-94125033D01*
X160673417Y-93781257D01*
X160410627Y-93518008D01*
X160067099Y-93375362D01*
X159695133Y-93375038D01*
X159351357Y-93517083D01*
X159088108Y-93779873D01*
X158945462Y-94123401D01*
X158945138Y-94495367D01*
X128526095Y-94495367D01*
X128578065Y-94370211D01*
X128578389Y-93998245D01*
X128436344Y-93654469D01*
X128173554Y-93391220D01*
X127830026Y-93248574D01*
X127458060Y-93248250D01*
X127114284Y-93390295D01*
X126851035Y-93653085D01*
X126708389Y-93996613D01*
X126708065Y-94368579D01*
X126850110Y-94712355D01*
X127079392Y-94942037D01*
X126835625Y-95185379D01*
X126692979Y-95528907D01*
X126692655Y-95900873D01*
X120338906Y-95900873D01*
X120438059Y-95402400D01*
X120323985Y-94828911D01*
X119999129Y-94342730D01*
X119684348Y-94132400D01*
X119999129Y-93922070D01*
X120323985Y-93435889D01*
X120438059Y-92862400D01*
X120366745Y-92503880D01*
X148961966Y-92503880D01*
X149104011Y-92847656D01*
X149366801Y-93110905D01*
X149710329Y-93253551D01*
X150082295Y-93253875D01*
X150426071Y-93111830D01*
X150689320Y-92849040D01*
X150831966Y-92505512D01*
X150832290Y-92133546D01*
X150690245Y-91789770D01*
X150427455Y-91526521D01*
X150083927Y-91383875D01*
X149711961Y-91383551D01*
X149368185Y-91525596D01*
X149104936Y-91788386D01*
X148962290Y-92131914D01*
X148961966Y-92503880D01*
X120366745Y-92503880D01*
X120323985Y-92288911D01*
X119999129Y-91802730D01*
X119684348Y-91592400D01*
X119999129Y-91382070D01*
X120323985Y-90895889D01*
X120438059Y-90322400D01*
X120365012Y-89955167D01*
X122394838Y-89955167D01*
X122536883Y-90298943D01*
X122799673Y-90562192D01*
X123143201Y-90704838D01*
X123515167Y-90705162D01*
X123858943Y-90563117D01*
X124122192Y-90300327D01*
X124264838Y-89956799D01*
X124265162Y-89584833D01*
X124200404Y-89428106D01*
X130412509Y-89428106D01*
X130554554Y-89771882D01*
X130817344Y-90035131D01*
X131160872Y-90177777D01*
X131532838Y-90178101D01*
X131876614Y-90036056D01*
X132139863Y-89773266D01*
X132250035Y-89507944D01*
X132503871Y-89508165D01*
X132847647Y-89366120D01*
X133110896Y-89103330D01*
X133253542Y-88759802D01*
X133253866Y-88387836D01*
X133111821Y-88044060D01*
X132934039Y-87865967D01*
X134853238Y-87865967D01*
X134995283Y-88209743D01*
X135258073Y-88472992D01*
X135601601Y-88615638D01*
X135612962Y-88615648D01*
X135509783Y-88864129D01*
X135509459Y-89236095D01*
X135651504Y-89579871D01*
X135914294Y-89843120D01*
X136257822Y-89985766D01*
X136629788Y-89986090D01*
X136649132Y-89978097D01*
X136794773Y-90123992D01*
X137138301Y-90266638D01*
X137510267Y-90266962D01*
X137854043Y-90124917D01*
X138117292Y-89862127D01*
X138224739Y-89603366D01*
X143524642Y-89603366D01*
X143666687Y-89947142D01*
X143929477Y-90210391D01*
X144273005Y-90353037D01*
X144644971Y-90353361D01*
X144988747Y-90211316D01*
X145251996Y-89948526D01*
X145394642Y-89604998D01*
X145394966Y-89233032D01*
X145252921Y-88889256D01*
X144990131Y-88626007D01*
X144646603Y-88483361D01*
X144274637Y-88483037D01*
X143930861Y-88625082D01*
X143667612Y-88887872D01*
X143524966Y-89231400D01*
X143524642Y-89603366D01*
X138224739Y-89603366D01*
X138259938Y-89518599D01*
X138260262Y-89146633D01*
X138118217Y-88802857D01*
X137855427Y-88539608D01*
X137511899Y-88396962D01*
X137139933Y-88396638D01*
X137120589Y-88404631D01*
X136974948Y-88258736D01*
X136631420Y-88116090D01*
X136620059Y-88116080D01*
X136723238Y-87867599D01*
X136723379Y-87705564D01*
X136794854Y-87878547D01*
X137057644Y-88141796D01*
X137401172Y-88284442D01*
X137773138Y-88284766D01*
X137965834Y-88205146D01*
X138200974Y-88302785D01*
X138572940Y-88303109D01*
X138758437Y-88226463D01*
X139000618Y-88327026D01*
X139372584Y-88327350D01*
X139603416Y-88231972D01*
X139800521Y-88313818D01*
X140172487Y-88314142D01*
X140403592Y-88218652D01*
X140600420Y-88300382D01*
X140972386Y-88300706D01*
X141316162Y-88158661D01*
X141362606Y-88112298D01*
X141379690Y-88119392D01*
X141751656Y-88119716D01*
X142095432Y-87977671D01*
X142358681Y-87714881D01*
X142367177Y-87694420D01*
X142542275Y-87694573D01*
X142886051Y-87552528D01*
X143016670Y-87422136D01*
X143029675Y-87453610D01*
X143292465Y-87716859D01*
X143635993Y-87859505D01*
X144007959Y-87859829D01*
X144245316Y-87761755D01*
X144496930Y-87866235D01*
X144868896Y-87866559D01*
X145120226Y-87762712D01*
X145296364Y-87835851D01*
X145668330Y-87836175D01*
X146012106Y-87694130D01*
X146275355Y-87431340D01*
X146418001Y-87087812D01*
X146418325Y-86715846D01*
X146276280Y-86372070D01*
X146013490Y-86108821D01*
X145669962Y-85966175D01*
X145297996Y-85965851D01*
X145046666Y-86069698D01*
X144870528Y-85996559D01*
X144498562Y-85996235D01*
X144261205Y-86094309D01*
X144009591Y-85989829D01*
X143861980Y-85989700D01*
X143916966Y-85857280D01*
X143917290Y-85485314D01*
X143775245Y-85141538D01*
X143512455Y-84878289D01*
X143168927Y-84735643D01*
X142796961Y-84735319D01*
X142453185Y-84877364D01*
X142189936Y-85140154D01*
X142047290Y-85483682D01*
X142046966Y-85855648D01*
X142054109Y-85872936D01*
X141828165Y-85966294D01*
X141564916Y-86229084D01*
X141556420Y-86249545D01*
X141381322Y-86249392D01*
X141037546Y-86391437D01*
X140991102Y-86437800D01*
X140974018Y-86430706D01*
X140602052Y-86430382D01*
X140370947Y-86525872D01*
X140174119Y-86444142D01*
X139802153Y-86443818D01*
X139571321Y-86539196D01*
X139374216Y-86457350D01*
X139002250Y-86457026D01*
X138816753Y-86533672D01*
X138574572Y-86433109D01*
X138202606Y-86432785D01*
X138009910Y-86512405D01*
X137774770Y-86414766D01*
X137402804Y-86414442D01*
X137059028Y-86556487D01*
X136795779Y-86819277D01*
X136653133Y-87162805D01*
X136652992Y-87324840D01*
X136581517Y-87151857D01*
X136318727Y-86888608D01*
X135975199Y-86745962D01*
X135603233Y-86745638D01*
X135259457Y-86887683D01*
X134996208Y-87150473D01*
X134853562Y-87494001D01*
X134853238Y-87865967D01*
X132934039Y-87865967D01*
X132849031Y-87780811D01*
X132505503Y-87638165D01*
X132133537Y-87637841D01*
X131789761Y-87779886D01*
X131526512Y-88042676D01*
X131416340Y-88307998D01*
X131162504Y-88307777D01*
X130818728Y-88449822D01*
X130555479Y-88712612D01*
X130412833Y-89056140D01*
X130412509Y-89428106D01*
X124200404Y-89428106D01*
X124123117Y-89241057D01*
X123860327Y-88977808D01*
X123516799Y-88835162D01*
X123144833Y-88834838D01*
X122801057Y-88976883D01*
X122537808Y-89239673D01*
X122395162Y-89583201D01*
X122394838Y-89955167D01*
X120365012Y-89955167D01*
X120323985Y-89748911D01*
X119999129Y-89262730D01*
X119684348Y-89052400D01*
X119999129Y-88842070D01*
X120184149Y-88565167D01*
X126924838Y-88565167D01*
X127066883Y-88908943D01*
X127329673Y-89172192D01*
X127673201Y-89314838D01*
X128045167Y-89315162D01*
X128388943Y-89173117D01*
X128652192Y-88910327D01*
X128794838Y-88566799D01*
X128795162Y-88194833D01*
X128653117Y-87851057D01*
X128390327Y-87587808D01*
X128046799Y-87445162D01*
X127674833Y-87444838D01*
X127331057Y-87586883D01*
X127067808Y-87849673D01*
X126925162Y-88193201D01*
X126924838Y-88565167D01*
X120184149Y-88565167D01*
X120323985Y-88355889D01*
X120438059Y-87782400D01*
X120323985Y-87208911D01*
X119999129Y-86722730D01*
X119684348Y-86512400D01*
X119999129Y-86302070D01*
X120323985Y-85815889D01*
X120438059Y-85242400D01*
X120323985Y-84668911D01*
X119999129Y-84182730D01*
X119927946Y-84135167D01*
X137494838Y-84135167D01*
X137636883Y-84478943D01*
X137899673Y-84742192D01*
X138243201Y-84884838D01*
X138523072Y-84885082D01*
X138522971Y-85000857D01*
X138665016Y-85344633D01*
X138927806Y-85607882D01*
X139271334Y-85750528D01*
X139643300Y-85750852D01*
X139987076Y-85608807D01*
X140250325Y-85346017D01*
X140392971Y-85002489D01*
X140393295Y-84630523D01*
X140251250Y-84286747D01*
X139988460Y-84023498D01*
X139644932Y-83880852D01*
X139365061Y-83880608D01*
X139365162Y-83764833D01*
X139242835Y-83468778D01*
X139331534Y-83255167D01*
X139424838Y-83255167D01*
X139566883Y-83598943D01*
X139829673Y-83862192D01*
X140173201Y-84004838D01*
X140545167Y-84005162D01*
X140888943Y-83863117D01*
X141152192Y-83600327D01*
X141294838Y-83256799D01*
X141295162Y-82884833D01*
X141153117Y-82541057D01*
X140890327Y-82277808D01*
X140546799Y-82135162D01*
X140174833Y-82134838D01*
X139831057Y-82276883D01*
X139567808Y-82539673D01*
X139425162Y-82883201D01*
X139424838Y-83255167D01*
X139331534Y-83255167D01*
X139384838Y-83126799D01*
X139385162Y-82754833D01*
X139243117Y-82411057D01*
X138980327Y-82147808D01*
X138636799Y-82005162D01*
X138264833Y-82004838D01*
X137921057Y-82146883D01*
X137657808Y-82409673D01*
X137515162Y-82753201D01*
X137514838Y-83125167D01*
X137637165Y-83421222D01*
X137495162Y-83763201D01*
X137494838Y-84135167D01*
X119927946Y-84135167D01*
X119684348Y-83972400D01*
X119999129Y-83762070D01*
X120323985Y-83275889D01*
X120438059Y-82702400D01*
X120323985Y-82128911D01*
X120283785Y-82068747D01*
X124804006Y-82068747D01*
X124946051Y-82412523D01*
X125208841Y-82675772D01*
X125552369Y-82818418D01*
X125924335Y-82818742D01*
X126268111Y-82676697D01*
X126531360Y-82413907D01*
X126674006Y-82070379D01*
X126674062Y-82005167D01*
X131664838Y-82005167D01*
X131806883Y-82348943D01*
X132069673Y-82612192D01*
X132413201Y-82754838D01*
X132785167Y-82755162D01*
X133128943Y-82613117D01*
X133392192Y-82350327D01*
X133534838Y-82006799D01*
X133535162Y-81634833D01*
X133393117Y-81291057D01*
X133257464Y-81155167D01*
X137308618Y-81155167D01*
X137450663Y-81498943D01*
X137713453Y-81762192D01*
X138056981Y-81904838D01*
X138428947Y-81905162D01*
X138772723Y-81763117D01*
X139035972Y-81500327D01*
X139178618Y-81156799D01*
X139178898Y-80835167D01*
X145264838Y-80835167D01*
X145406883Y-81178943D01*
X145669673Y-81442192D01*
X145714920Y-81460980D01*
X145714838Y-81555167D01*
X145856883Y-81898943D01*
X146064993Y-82107416D01*
X146064838Y-82285167D01*
X146206883Y-82628943D01*
X146424984Y-82847425D01*
X146424838Y-83015167D01*
X146566883Y-83358943D01*
X146785010Y-83577451D01*
X146784838Y-83775167D01*
X146926883Y-84118943D01*
X147145019Y-84337460D01*
X147144838Y-84545167D01*
X147286883Y-84888943D01*
X147495010Y-85097434D01*
X147494838Y-85295167D01*
X147636883Y-85638943D01*
X147825036Y-85827425D01*
X147824838Y-86055167D01*
X147966883Y-86398943D01*
X148175010Y-86607434D01*
X148174838Y-86805167D01*
X148316883Y-87148943D01*
X148535002Y-87367442D01*
X148534838Y-87555167D01*
X148676883Y-87898943D01*
X148939673Y-88162192D01*
X149283201Y-88304838D01*
X149355099Y-88304901D01*
X149261675Y-88398162D01*
X149119029Y-88741690D01*
X149118705Y-89113656D01*
X149260750Y-89457432D01*
X149523540Y-89720681D01*
X149867068Y-89863327D01*
X150239034Y-89863651D01*
X150582810Y-89721606D01*
X150846059Y-89458816D01*
X150988705Y-89115288D01*
X150989029Y-88743322D01*
X150846984Y-88399546D01*
X150584194Y-88136297D01*
X150240666Y-87993651D01*
X150168768Y-87993588D01*
X150262192Y-87900327D01*
X150404838Y-87556799D01*
X150405162Y-87184833D01*
X150312434Y-86960412D01*
X152863790Y-86960412D01*
X153005835Y-87304188D01*
X153268625Y-87567437D01*
X153612153Y-87710083D01*
X153984119Y-87710407D01*
X154327895Y-87568362D01*
X154591144Y-87305572D01*
X154733790Y-86962044D01*
X154734114Y-86590078D01*
X154592069Y-86246302D01*
X154329279Y-85983053D01*
X153985751Y-85840407D01*
X153613785Y-85840083D01*
X153270009Y-85982128D01*
X153006760Y-86244918D01*
X152864114Y-86588446D01*
X152863790Y-86960412D01*
X150312434Y-86960412D01*
X150263117Y-86841057D01*
X150044998Y-86622558D01*
X150045162Y-86434833D01*
X149903117Y-86091057D01*
X149694990Y-85882566D01*
X149695162Y-85684833D01*
X149553117Y-85341057D01*
X149364964Y-85152575D01*
X149365162Y-84924833D01*
X149223117Y-84581057D01*
X149014990Y-84372566D01*
X149015162Y-84174833D01*
X148873117Y-83831057D01*
X148654981Y-83612540D01*
X148655162Y-83404833D01*
X148513117Y-83061057D01*
X148294990Y-82842549D01*
X148295162Y-82644833D01*
X148233834Y-82496407D01*
X155655838Y-82496407D01*
X155797883Y-82840183D01*
X156060673Y-83103432D01*
X156404201Y-83246078D01*
X156776167Y-83246402D01*
X157119943Y-83104357D01*
X157383192Y-82841567D01*
X157525838Y-82498039D01*
X157526162Y-82126073D01*
X157384117Y-81782297D01*
X157121327Y-81519048D01*
X156777799Y-81376402D01*
X156405833Y-81376078D01*
X156062057Y-81518123D01*
X155798808Y-81780913D01*
X155656162Y-82124441D01*
X155655838Y-82496407D01*
X148233834Y-82496407D01*
X148153117Y-82301057D01*
X147935016Y-82082575D01*
X147935162Y-81914833D01*
X147793117Y-81571057D01*
X147585007Y-81362584D01*
X147585162Y-81184833D01*
X147443117Y-80841057D01*
X147417862Y-80815757D01*
X157871235Y-80815757D01*
X158013280Y-81159533D01*
X158276070Y-81422782D01*
X158619598Y-81565428D01*
X158991564Y-81565752D01*
X159335340Y-81423707D01*
X159598589Y-81160917D01*
X159741235Y-80817389D01*
X159741559Y-80445423D01*
X159599514Y-80101647D01*
X159336724Y-79838398D01*
X158993196Y-79695752D01*
X158621230Y-79695428D01*
X158277454Y-79837473D01*
X158014205Y-80100263D01*
X157871559Y-80443791D01*
X157871235Y-80815757D01*
X147417862Y-80815757D01*
X147180327Y-80577808D01*
X147135080Y-80559020D01*
X147135162Y-80464833D01*
X146993117Y-80121057D01*
X146730327Y-79857808D01*
X146386799Y-79715162D01*
X146014833Y-79714838D01*
X145671057Y-79856883D01*
X145407808Y-80119673D01*
X145265162Y-80463201D01*
X145264838Y-80835167D01*
X139178898Y-80835167D01*
X139178942Y-80784833D01*
X139036897Y-80441057D01*
X138774107Y-80177808D01*
X138430579Y-80035162D01*
X138058613Y-80034838D01*
X137714837Y-80176883D01*
X137451588Y-80439673D01*
X137308942Y-80783201D01*
X137308618Y-81155167D01*
X133257464Y-81155167D01*
X133130327Y-81027808D01*
X132786799Y-80885162D01*
X132414833Y-80884838D01*
X132071057Y-81026883D01*
X131807808Y-81289673D01*
X131665162Y-81633201D01*
X131664838Y-82005167D01*
X126674062Y-82005167D01*
X126674330Y-81698413D01*
X126532285Y-81354637D01*
X126269495Y-81091388D01*
X125925967Y-80948742D01*
X125554001Y-80948418D01*
X125210225Y-81090463D01*
X124946976Y-81353253D01*
X124804330Y-81696781D01*
X124804006Y-82068747D01*
X120283785Y-82068747D01*
X119999129Y-81642730D01*
X119684348Y-81432400D01*
X119999129Y-81222070D01*
X120323985Y-80735889D01*
X120438059Y-80162400D01*
X120323985Y-79588911D01*
X119999129Y-79102730D01*
X119684348Y-78892400D01*
X119999129Y-78682070D01*
X120323985Y-78195889D01*
X120438059Y-77622400D01*
X120323985Y-77048911D01*
X119999129Y-76562730D01*
X119684348Y-76352400D01*
X119874765Y-76225167D01*
X134774838Y-76225167D01*
X134916883Y-76568943D01*
X135179673Y-76832192D01*
X135523201Y-76974838D01*
X135895167Y-76975162D01*
X135981642Y-76939432D01*
X135955162Y-77003201D01*
X135954838Y-77375167D01*
X136096883Y-77718943D01*
X136359673Y-77982192D01*
X136703201Y-78124838D01*
X137075167Y-78125162D01*
X137204946Y-78071539D01*
X137204838Y-78195167D01*
X137329322Y-78496441D01*
X137235162Y-78723201D01*
X137234838Y-79095167D01*
X137376883Y-79438943D01*
X137639673Y-79702192D01*
X137983201Y-79844838D01*
X138355167Y-79845162D01*
X138698943Y-79703117D01*
X138962192Y-79440327D01*
X138978164Y-79401861D01*
X152811908Y-79401861D01*
X152953953Y-79745637D01*
X153216743Y-80008886D01*
X153560271Y-80151532D01*
X153932237Y-80151856D01*
X154276013Y-80009811D01*
X154539262Y-79747021D01*
X154681908Y-79403493D01*
X154682232Y-79031527D01*
X154540187Y-78687751D01*
X154330573Y-78477770D01*
X155647988Y-78477770D01*
X155790033Y-78821546D01*
X156052823Y-79084795D01*
X156396351Y-79227441D01*
X156768317Y-79227765D01*
X157112093Y-79085720D01*
X157375342Y-78822930D01*
X157517988Y-78479402D01*
X157518312Y-78107436D01*
X157376267Y-77763660D01*
X157113477Y-77500411D01*
X156769949Y-77357765D01*
X156397983Y-77357441D01*
X156054207Y-77499486D01*
X155790958Y-77762276D01*
X155648312Y-78105804D01*
X155647988Y-78477770D01*
X154330573Y-78477770D01*
X154277397Y-78424502D01*
X153933869Y-78281856D01*
X153561903Y-78281532D01*
X153218127Y-78423577D01*
X152954878Y-78686367D01*
X152812232Y-79029895D01*
X152811908Y-79401861D01*
X138978164Y-79401861D01*
X139104838Y-79096799D01*
X139105162Y-78724833D01*
X138980678Y-78423559D01*
X139074838Y-78196799D01*
X139075162Y-77824833D01*
X139025718Y-77705167D01*
X140794838Y-77705167D01*
X140936883Y-78048943D01*
X141199673Y-78312192D01*
X141543201Y-78454838D01*
X141915167Y-78455162D01*
X142258943Y-78313117D01*
X142522192Y-78050327D01*
X142664838Y-77706799D01*
X142665162Y-77334833D01*
X142523117Y-76991057D01*
X142260327Y-76727808D01*
X141916799Y-76585162D01*
X141544833Y-76584838D01*
X141201057Y-76726883D01*
X140937808Y-76989673D01*
X140795162Y-77333201D01*
X140794838Y-77705167D01*
X139025718Y-77705167D01*
X138933117Y-77481057D01*
X138670327Y-77217808D01*
X138326799Y-77075162D01*
X137954833Y-77074838D01*
X137825054Y-77128461D01*
X137825162Y-77004833D01*
X137683117Y-76661057D01*
X137495282Y-76472894D01*
X137518943Y-76463117D01*
X137536924Y-76445167D01*
X137884838Y-76445167D01*
X138026883Y-76788943D01*
X138289673Y-77052192D01*
X138633201Y-77194838D01*
X139005167Y-77195162D01*
X139348943Y-77053117D01*
X139612192Y-76790327D01*
X139754838Y-76446799D01*
X139754888Y-76389292D01*
X151939305Y-76389292D01*
X152081350Y-76733068D01*
X152344140Y-76996317D01*
X152687668Y-77138963D01*
X153059634Y-77139287D01*
X153403410Y-76997242D01*
X153509062Y-76891774D01*
X153529955Y-76900450D01*
X153901921Y-76900774D01*
X154245697Y-76758729D01*
X154508946Y-76495939D01*
X154651592Y-76152411D01*
X154651916Y-75780445D01*
X154550477Y-75534944D01*
X154626108Y-75352805D01*
X154626432Y-74980839D01*
X154484387Y-74637063D01*
X154221597Y-74373814D01*
X153878069Y-74231168D01*
X153506103Y-74230844D01*
X153162327Y-74372889D01*
X152899078Y-74635679D01*
X152756432Y-74979207D01*
X152756180Y-75269021D01*
X152689300Y-75268963D01*
X152345524Y-75411008D01*
X152082275Y-75673798D01*
X151939629Y-76017326D01*
X151939305Y-76389292D01*
X139754888Y-76389292D01*
X139755162Y-76074833D01*
X139613117Y-75731057D01*
X139350327Y-75467808D01*
X139006799Y-75325162D01*
X138634833Y-75324838D01*
X138291057Y-75466883D01*
X138027808Y-75729673D01*
X137885162Y-76073201D01*
X137884838Y-76445167D01*
X137536924Y-76445167D01*
X137782192Y-76200327D01*
X137924838Y-75856799D01*
X137925162Y-75484833D01*
X137783117Y-75141057D01*
X137520327Y-74877808D01*
X137284206Y-74779761D01*
X137184521Y-74538505D01*
X136921731Y-74275256D01*
X136578203Y-74132610D01*
X136206237Y-74132286D01*
X135862461Y-74274331D01*
X135599212Y-74537121D01*
X135456566Y-74880649D01*
X135456346Y-75133136D01*
X135181057Y-75246883D01*
X134917808Y-75509673D01*
X134775162Y-75853201D01*
X134774838Y-76225167D01*
X119874765Y-76225167D01*
X119999129Y-76142070D01*
X120323985Y-75655889D01*
X120438059Y-75082400D01*
X120323985Y-74508911D01*
X119999129Y-74022730D01*
X119684348Y-73812400D01*
X119999129Y-73602070D01*
X120323985Y-73115889D01*
X120433141Y-72567124D01*
X130442494Y-72567124D01*
X130584539Y-72910900D01*
X130847329Y-73174149D01*
X131190857Y-73316795D01*
X131562823Y-73317119D01*
X131906599Y-73175074D01*
X132169848Y-72912284D01*
X132312494Y-72568756D01*
X132312818Y-72196790D01*
X132170773Y-71853014D01*
X131943324Y-71625167D01*
X136544838Y-71625167D01*
X136686883Y-71968943D01*
X136949673Y-72232192D01*
X137293201Y-72374838D01*
X137665167Y-72375162D01*
X137881944Y-72285592D01*
X138193201Y-72414838D01*
X138565167Y-72415162D01*
X138908943Y-72273117D01*
X138932235Y-72249865D01*
X139233201Y-72374838D01*
X139605167Y-72375162D01*
X139702679Y-72334871D01*
X139889673Y-72522192D01*
X140233201Y-72664838D01*
X140605167Y-72665162D01*
X140948943Y-72523117D01*
X141005495Y-72466664D01*
X141163484Y-72624929D01*
X141507012Y-72767575D01*
X141878978Y-72767899D01*
X142222754Y-72625854D01*
X142486003Y-72363064D01*
X142628649Y-72019536D01*
X142628973Y-71647570D01*
X142524683Y-71395167D01*
X143864838Y-71395167D01*
X144006883Y-71738943D01*
X144269673Y-72002192D01*
X144613201Y-72144838D01*
X144985167Y-72145162D01*
X145267338Y-72028571D01*
X145368110Y-72129519D01*
X145711638Y-72272165D01*
X146083604Y-72272489D01*
X146427380Y-72130444D01*
X146430337Y-72127492D01*
X146498157Y-72155653D01*
X146443857Y-72209859D01*
X146301211Y-72553387D01*
X146300887Y-72925353D01*
X146442932Y-73269129D01*
X146705722Y-73532378D01*
X146941141Y-73630133D01*
X147020643Y-73822544D01*
X147283433Y-74085793D01*
X147626961Y-74228439D01*
X147998927Y-74228763D01*
X148219292Y-74137710D01*
X148453201Y-74234838D01*
X148825167Y-74235162D01*
X149043070Y-74145126D01*
X149283201Y-74244838D01*
X149628249Y-74245139D01*
X149628125Y-74387323D01*
X149770170Y-74731099D01*
X150032960Y-74994348D01*
X150376488Y-75136994D01*
X150748454Y-75137318D01*
X151092230Y-74995273D01*
X151312373Y-74775514D01*
X151516020Y-74979517D01*
X151859548Y-75122163D01*
X152231514Y-75122487D01*
X152575290Y-74980442D01*
X152838539Y-74717652D01*
X152981185Y-74374124D01*
X152981509Y-74002158D01*
X152839464Y-73658382D01*
X152576674Y-73395133D01*
X152233146Y-73252487D01*
X151861180Y-73252163D01*
X151517404Y-73394208D01*
X151297261Y-73613967D01*
X151093614Y-73409964D01*
X150750086Y-73267318D01*
X150405038Y-73267017D01*
X150405162Y-73124833D01*
X150263117Y-72781057D01*
X150000327Y-72517808D01*
X149656799Y-72375162D01*
X149284833Y-72374838D01*
X149066930Y-72464874D01*
X148826799Y-72365162D01*
X148454833Y-72364838D01*
X148234468Y-72455891D01*
X148108668Y-72403654D01*
X148029166Y-72211243D01*
X147766376Y-71947994D01*
X147691122Y-71916746D01*
X147745422Y-71862540D01*
X147888068Y-71519012D01*
X147888392Y-71147046D01*
X147746347Y-70803270D01*
X147483557Y-70540021D01*
X147140029Y-70397375D01*
X146768063Y-70397051D01*
X146424287Y-70539096D01*
X146421330Y-70542048D01*
X146085236Y-70402489D01*
X145713270Y-70402165D01*
X145431099Y-70518756D01*
X145330327Y-70417808D01*
X144986799Y-70275162D01*
X144614833Y-70274838D01*
X144271057Y-70416883D01*
X144007808Y-70679673D01*
X143865162Y-71023201D01*
X143864838Y-71395167D01*
X142524683Y-71395167D01*
X142486928Y-71303794D01*
X142224138Y-71040545D01*
X141880610Y-70897899D01*
X141508644Y-70897575D01*
X141164868Y-71039620D01*
X141108316Y-71096073D01*
X140950327Y-70937808D01*
X140606799Y-70795162D01*
X140234833Y-70794838D01*
X140137321Y-70835129D01*
X139950327Y-70647808D01*
X139606799Y-70505162D01*
X139234833Y-70504838D01*
X138891057Y-70646883D01*
X138867765Y-70670135D01*
X138566799Y-70545162D01*
X138194833Y-70544838D01*
X137978056Y-70634408D01*
X137666799Y-70505162D01*
X137294833Y-70504838D01*
X136951057Y-70646883D01*
X136687808Y-70909673D01*
X136545162Y-71253201D01*
X136544838Y-71625167D01*
X131943324Y-71625167D01*
X131907983Y-71589765D01*
X131564455Y-71447119D01*
X131192489Y-71446795D01*
X130848713Y-71588840D01*
X130585464Y-71851630D01*
X130442818Y-72195158D01*
X130442494Y-72567124D01*
X120433141Y-72567124D01*
X120438059Y-72542400D01*
X120323985Y-71968911D01*
X119999129Y-71482730D01*
X119684348Y-71272400D01*
X119999129Y-71062070D01*
X120323985Y-70575889D01*
X120438059Y-70002400D01*
X120323985Y-69428911D01*
X119999129Y-68942730D01*
X119684348Y-68732400D01*
X119993934Y-68525541D01*
X138102032Y-68525541D01*
X138244077Y-68869317D01*
X138506867Y-69132566D01*
X138850395Y-69275212D01*
X139222361Y-69275536D01*
X139566137Y-69133491D01*
X139593823Y-69105853D01*
X150122838Y-69105853D01*
X150264883Y-69449629D01*
X150527673Y-69712878D01*
X150871201Y-69855524D01*
X151243167Y-69855848D01*
X151586943Y-69713803D01*
X151850192Y-69451013D01*
X151992838Y-69107485D01*
X151993162Y-68735519D01*
X151851117Y-68391743D01*
X151588327Y-68128494D01*
X151244799Y-67985848D01*
X150872833Y-67985524D01*
X150529057Y-68127569D01*
X150265808Y-68390359D01*
X150123162Y-68733887D01*
X150122838Y-69105853D01*
X139593823Y-69105853D01*
X139829386Y-68870701D01*
X139972032Y-68527173D01*
X139972356Y-68155207D01*
X139830311Y-67811431D01*
X139567521Y-67548182D01*
X139223993Y-67405536D01*
X138852027Y-67405212D01*
X138508251Y-67547257D01*
X138245002Y-67810047D01*
X138102356Y-68153575D01*
X138102032Y-68525541D01*
X119993934Y-68525541D01*
X119999129Y-68522070D01*
X120323985Y-68035889D01*
X120438059Y-67462400D01*
X120323985Y-66888911D01*
X119999129Y-66402730D01*
X119684348Y-66192400D01*
X119999129Y-65982070D01*
X120323985Y-65495889D01*
X120438059Y-64922400D01*
X120323985Y-64348911D01*
X119999129Y-63862730D01*
X119675872Y-63646736D01*
X119798590Y-63589221D01*
X120192788Y-63157347D01*
X120365058Y-62741426D01*
X120243917Y-62509400D01*
X119037100Y-62509400D01*
X119037100Y-62529400D01*
X118783100Y-62529400D01*
X118783100Y-62509400D01*
X116497100Y-62509400D01*
X116497100Y-62529400D01*
X116243100Y-62529400D01*
X116243100Y-62509400D01*
X115030250Y-62509400D01*
X114871500Y-62668150D01*
X114871500Y-63372310D01*
X114968173Y-63605699D01*
X115146802Y-63784327D01*
X115302123Y-63848663D01*
X115281071Y-63862730D01*
X114956215Y-64348911D01*
X114842141Y-64922400D01*
X108101370Y-64922400D01*
X108101370Y-61392490D01*
X114871500Y-61392490D01*
X114871500Y-62096650D01*
X115030250Y-62255400D01*
X116243100Y-62255400D01*
X116243100Y-61042550D01*
X116497100Y-61042550D01*
X116497100Y-62255400D01*
X118783100Y-62255400D01*
X118783100Y-61047931D01*
X119037100Y-61047931D01*
X119037100Y-62255400D01*
X120243917Y-62255400D01*
X120365058Y-62023374D01*
X120192788Y-61607453D01*
X120100046Y-61505847D01*
X130123758Y-61505847D01*
X130265803Y-61849623D01*
X130528593Y-62112872D01*
X130872121Y-62255518D01*
X131244087Y-62255842D01*
X131587863Y-62113797D01*
X131851112Y-61851007D01*
X131993758Y-61507479D01*
X131994082Y-61135513D01*
X131852037Y-60791737D01*
X131589247Y-60528488D01*
X131245719Y-60385842D01*
X130873753Y-60385518D01*
X130529977Y-60527563D01*
X130266728Y-60790353D01*
X130124082Y-61133881D01*
X130123758Y-61505847D01*
X120100046Y-61505847D01*
X119798590Y-61175579D01*
X119269127Y-60927432D01*
X119037100Y-61047931D01*
X118783100Y-61047931D01*
X118551073Y-60927432D01*
X118021610Y-61175579D01*
X117854629Y-61358519D01*
X117772027Y-61159101D01*
X117593398Y-60980473D01*
X117360009Y-60883800D01*
X116655850Y-60883800D01*
X116497100Y-61042550D01*
X116243100Y-61042550D01*
X116084350Y-60883800D01*
X115380191Y-60883800D01*
X115146802Y-60980473D01*
X114968173Y-61159101D01*
X114871500Y-61392490D01*
X108101370Y-61392490D01*
X108101370Y-59775167D01*
X130894838Y-59775167D01*
X131036883Y-60118943D01*
X131299673Y-60382192D01*
X131643201Y-60524838D01*
X132015167Y-60525162D01*
X132358943Y-60383117D01*
X132622192Y-60120327D01*
X132764838Y-59776799D01*
X132765162Y-59404833D01*
X132623117Y-59061057D01*
X132360327Y-58797808D01*
X132016799Y-58655162D01*
X131644833Y-58654838D01*
X131301057Y-58796883D01*
X131037808Y-59059673D01*
X130895162Y-59403201D01*
X130894838Y-59775167D01*
X108101370Y-59775167D01*
X108101370Y-55366667D01*
X116387438Y-55366667D01*
X116529483Y-55710443D01*
X116792273Y-55973692D01*
X116866585Y-56004549D01*
X116606608Y-56264073D01*
X116463962Y-56607601D01*
X116463638Y-56979567D01*
X116605683Y-57323343D01*
X116868473Y-57586592D01*
X117212001Y-57729238D01*
X117583967Y-57729562D01*
X117927743Y-57587517D01*
X118190992Y-57324727D01*
X118333638Y-56981199D01*
X118333962Y-56609233D01*
X118191917Y-56265457D01*
X117929127Y-56002208D01*
X117854815Y-55971351D01*
X118114792Y-55711827D01*
X118257438Y-55368299D01*
X118257580Y-55205167D01*
X120234838Y-55205167D01*
X120376883Y-55548943D01*
X120639673Y-55812192D01*
X120983201Y-55954838D01*
X121355167Y-55955162D01*
X121698943Y-55813117D01*
X121962192Y-55550327D01*
X122104838Y-55206799D01*
X122105162Y-54834833D01*
X122025803Y-54642767D01*
X126725238Y-54642767D01*
X126867283Y-54986543D01*
X127130073Y-55249792D01*
X127473601Y-55392438D01*
X127845567Y-55392762D01*
X128189343Y-55250717D01*
X128452592Y-54987927D01*
X128595238Y-54644399D01*
X128595562Y-54272433D01*
X128453517Y-53928657D01*
X128190727Y-53665408D01*
X127847199Y-53522762D01*
X127475233Y-53522438D01*
X127131457Y-53664483D01*
X126868208Y-53927273D01*
X126725562Y-54270801D01*
X126725238Y-54642767D01*
X122025803Y-54642767D01*
X121963117Y-54491057D01*
X121700327Y-54227808D01*
X121356799Y-54085162D01*
X120984833Y-54084838D01*
X120641057Y-54226883D01*
X120377808Y-54489673D01*
X120235162Y-54833201D01*
X120234838Y-55205167D01*
X118257580Y-55205167D01*
X118257762Y-54996333D01*
X118115717Y-54652557D01*
X117852927Y-54389308D01*
X117509399Y-54246662D01*
X117137433Y-54246338D01*
X116793657Y-54388383D01*
X116530408Y-54651173D01*
X116387762Y-54994701D01*
X116387438Y-55366667D01*
X108101370Y-55366667D01*
X108101370Y-50565167D01*
X108824838Y-50565167D01*
X108966883Y-50908943D01*
X109229673Y-51172192D01*
X109283368Y-51194488D01*
X109067808Y-51409673D01*
X108925162Y-51753201D01*
X108924838Y-52125167D01*
X109066883Y-52468943D01*
X109329673Y-52732192D01*
X109673201Y-52874838D01*
X110045167Y-52875162D01*
X110388943Y-52733117D01*
X110652192Y-52470327D01*
X110794838Y-52126799D01*
X110795162Y-51754833D01*
X110653117Y-51411057D01*
X110390327Y-51147808D01*
X110336632Y-51125512D01*
X110552192Y-50910327D01*
X110694838Y-50566799D01*
X110695162Y-50194833D01*
X110553117Y-49851057D01*
X110290327Y-49587808D01*
X110113680Y-49514457D01*
X110358943Y-49413117D01*
X110622192Y-49150327D01*
X110764838Y-48806799D01*
X110765162Y-48434833D01*
X110623117Y-48091057D01*
X110360327Y-47827808D01*
X110112553Y-47724923D01*
X110358943Y-47623117D01*
X110622192Y-47360327D01*
X110764838Y-47016799D01*
X110765162Y-46644833D01*
X110623117Y-46301057D01*
X110360327Y-46037808D01*
X110016799Y-45895162D01*
X109644833Y-45894838D01*
X109301057Y-46036883D01*
X109037808Y-46299673D01*
X108895162Y-46643201D01*
X108894838Y-47015167D01*
X109036883Y-47358943D01*
X109299673Y-47622192D01*
X109547447Y-47725077D01*
X109301057Y-47826883D01*
X109037808Y-48089673D01*
X108895162Y-48433201D01*
X108894838Y-48805167D01*
X109036883Y-49148943D01*
X109299673Y-49412192D01*
X109476320Y-49485543D01*
X109231057Y-49586883D01*
X108967808Y-49849673D01*
X108825162Y-50193201D01*
X108824838Y-50565167D01*
X108101370Y-50565167D01*
X108101370Y-49110066D01*
X108547818Y-46865621D01*
X109783697Y-45015997D01*
X111633321Y-43780118D01*
X113877766Y-43333670D01*
X134783830Y-43333670D01*
X134783830Y-64287400D01*
M02*
