G04 #@! TF.GenerationSoftware,KiCad,Pcbnew,(2017-08-02 revision 9760937)-master*
G04 #@! TF.CreationDate,2018-05-12T19:30:48-05:00*
G04 #@! TF.ProjectId,beagle-wire,626561676C652D776972652E6B696361,rev?*
G04 #@! TF.SameCoordinates,Original*
G04 #@! TF.FileFunction,Paste,Top*
G04 #@! TF.FilePolarity,Positive*
%FSLAX46Y46*%
G04 Gerber Fmt 4.6, Leading zero omitted, Abs format (unit mm)*
G04 Created by KiCad (PCBNEW (2017-08-02 revision 9760937)-master) date Sat May 12 19:30:48 2018*
%MOMM*%
%LPD*%
G01*
G04 APERTURE LIST*
%ADD10C,0.100000*%
%ADD11C,0.150000*%
%ADD12C,0.300000*%
%ADD13C,0.400000*%
%ADD14R,2.200000X1.020000*%
%ADD15R,0.250000X1.450000*%
%ADD16R,1.450000X0.250000*%
%ADD17R,0.900000X0.560000*%
%ADD18R,0.750000X0.800000*%
%ADD19R,0.800000X0.750000*%
%ADD20R,0.400000X0.600000*%
%ADD21R,3.800000X2.000000*%
%ADD22R,1.500000X2.000000*%
%ADD23R,1.700000X0.650000*%
%ADD24R,1.600000X2.000000*%
%ADD25R,1.060000X0.650000*%
%ADD26R,0.450000X1.450000*%
%ADD27R,0.797560X0.797560*%
%ADD28R,0.600000X0.400000*%
%ADD29R,0.800000X0.600000*%
%ADD30C,0.650000*%
%ADD31R,0.650000X0.850000*%
%ADD32R,1.520000X2.160000*%
G04 APERTURE END LIST*
D10*
D11*
X177002200Y-166007200D02*
X177002200Y-198007200D01*
X285002200Y-198007200D01*
X285002200Y-166007200D01*
X177002200Y-166007200D01*
D10*
D11*
X10000000Y-10000000D02*
X10000000Y-200007200D01*
X287002200Y-200007200D01*
X287002200Y-10000000D01*
X10000000Y-10000000D01*
D10*
D11*
X12000000Y-12000000D02*
X12000000Y-198007200D01*
X285002200Y-198007200D01*
X285002200Y-12000000D01*
X12000000Y-12000000D01*
D10*
D11*
X60000000Y-12000000D02*
X60000000Y-10000000D01*
D10*
D11*
X110000000Y-12000000D02*
X110000000Y-10000000D01*
D10*
D11*
X160000000Y-12000000D02*
X160000000Y-10000000D01*
D10*
D11*
X210000000Y-12000000D02*
X210000000Y-10000000D01*
D10*
D11*
X260000000Y-12000000D02*
X260000000Y-10000000D01*
D10*
D11*
X36065476Y-11588095D02*
X35322619Y-11588095D01*
X35694047Y-11588095D02*
X35694047Y-10288095D01*
X35570238Y-10473809D01*
X35446428Y-10597619D01*
X35322619Y-10659523D01*
D10*
D11*
X85322619Y-10411904D02*
X85384523Y-10350000D01*
X85508333Y-10288095D01*
X85817857Y-10288095D01*
X85941666Y-10350000D01*
X86003571Y-10411904D01*
X86065476Y-10535714D01*
X86065476Y-10659523D01*
X86003571Y-10845238D01*
X85260714Y-11588095D01*
X86065476Y-11588095D01*
D10*
D11*
X135260714Y-10288095D02*
X136065476Y-10288095D01*
X135632142Y-10783333D01*
X135817857Y-10783333D01*
X135941666Y-10845238D01*
X136003571Y-10907142D01*
X136065476Y-11030952D01*
X136065476Y-11340476D01*
X136003571Y-11464285D01*
X135941666Y-11526190D01*
X135817857Y-11588095D01*
X135446428Y-11588095D01*
X135322619Y-11526190D01*
X135260714Y-11464285D01*
D10*
D11*
X185941666Y-10721428D02*
X185941666Y-11588095D01*
X185632142Y-10226190D02*
X185322619Y-11154761D01*
X186127380Y-11154761D01*
D10*
D11*
X236003571Y-10288095D02*
X235384523Y-10288095D01*
X235322619Y-10907142D01*
X235384523Y-10845238D01*
X235508333Y-10783333D01*
X235817857Y-10783333D01*
X235941666Y-10845238D01*
X236003571Y-10907142D01*
X236065476Y-11030952D01*
X236065476Y-11340476D01*
X236003571Y-11464285D01*
X235941666Y-11526190D01*
X235817857Y-11588095D01*
X235508333Y-11588095D01*
X235384523Y-11526190D01*
X235322619Y-11464285D01*
D10*
D11*
X285941666Y-10288095D02*
X285694047Y-10288095D01*
X285570238Y-10350000D01*
X285508333Y-10411904D01*
X285384523Y-10597619D01*
X285322619Y-10845238D01*
X285322619Y-11340476D01*
X285384523Y-11464285D01*
X285446428Y-11526190D01*
X285570238Y-11588095D01*
X285817857Y-11588095D01*
X285941666Y-11526190D01*
X286003571Y-11464285D01*
X286065476Y-11340476D01*
X286065476Y-11030952D01*
X286003571Y-10907142D01*
X285941666Y-10845238D01*
X285817857Y-10783333D01*
X285570238Y-10783333D01*
X285446428Y-10845238D01*
X285384523Y-10907142D01*
X285322619Y-11030952D01*
D10*
D11*
X60000000Y-198007200D02*
X60000000Y-200007200D01*
D10*
D11*
X110000000Y-198007200D02*
X110000000Y-200007200D01*
D10*
D11*
X160000000Y-198007200D02*
X160000000Y-200007200D01*
D10*
D11*
X210000000Y-198007200D02*
X210000000Y-200007200D01*
D10*
D11*
X260000000Y-198007200D02*
X260000000Y-200007200D01*
D10*
D11*
X36065476Y-199595295D02*
X35322619Y-199595295D01*
X35694047Y-199595295D02*
X35694047Y-198295295D01*
X35570238Y-198481009D01*
X35446428Y-198604819D01*
X35322619Y-198666723D01*
D10*
D11*
X85322619Y-198419104D02*
X85384523Y-198357200D01*
X85508333Y-198295295D01*
X85817857Y-198295295D01*
X85941666Y-198357200D01*
X86003571Y-198419104D01*
X86065476Y-198542914D01*
X86065476Y-198666723D01*
X86003571Y-198852438D01*
X85260714Y-199595295D01*
X86065476Y-199595295D01*
D10*
D11*
X135260714Y-198295295D02*
X136065476Y-198295295D01*
X135632142Y-198790533D01*
X135817857Y-198790533D01*
X135941666Y-198852438D01*
X136003571Y-198914342D01*
X136065476Y-199038152D01*
X136065476Y-199347676D01*
X136003571Y-199471485D01*
X135941666Y-199533390D01*
X135817857Y-199595295D01*
X135446428Y-199595295D01*
X135322619Y-199533390D01*
X135260714Y-199471485D01*
D10*
D11*
X185941666Y-198728628D02*
X185941666Y-199595295D01*
X185632142Y-198233390D02*
X185322619Y-199161961D01*
X186127380Y-199161961D01*
D10*
D11*
X236003571Y-198295295D02*
X235384523Y-198295295D01*
X235322619Y-198914342D01*
X235384523Y-198852438D01*
X235508333Y-198790533D01*
X235817857Y-198790533D01*
X235941666Y-198852438D01*
X236003571Y-198914342D01*
X236065476Y-199038152D01*
X236065476Y-199347676D01*
X236003571Y-199471485D01*
X235941666Y-199533390D01*
X235817857Y-199595295D01*
X235508333Y-199595295D01*
X235384523Y-199533390D01*
X235322619Y-199471485D01*
D10*
D11*
X285941666Y-198295295D02*
X285694047Y-198295295D01*
X285570238Y-198357200D01*
X285508333Y-198419104D01*
X285384523Y-198604819D01*
X285322619Y-198852438D01*
X285322619Y-199347676D01*
X285384523Y-199471485D01*
X285446428Y-199533390D01*
X285570238Y-199595295D01*
X285817857Y-199595295D01*
X285941666Y-199533390D01*
X286003571Y-199471485D01*
X286065476Y-199347676D01*
X286065476Y-199038152D01*
X286003571Y-198914342D01*
X285941666Y-198852438D01*
X285817857Y-198790533D01*
X285570238Y-198790533D01*
X285446428Y-198852438D01*
X285384523Y-198914342D01*
X285322619Y-199038152D01*
D10*
D11*
X10000000Y-60000000D02*
X12000000Y-60000000D01*
D10*
D11*
X10000000Y-110000000D02*
X12000000Y-110000000D01*
D10*
D11*
X10000000Y-160000000D02*
X12000000Y-160000000D01*
D10*
D11*
X10690476Y-35216666D02*
X11309523Y-35216666D01*
X10566666Y-35588095D02*
X11000000Y-34288095D01*
X11433333Y-35588095D01*
D10*
D11*
X11092857Y-84907142D02*
X11278571Y-84969047D01*
X11340476Y-85030952D01*
X11402380Y-85154761D01*
X11402380Y-85340476D01*
X11340476Y-85464285D01*
X11278571Y-85526190D01*
X11154761Y-85588095D01*
X10659523Y-85588095D01*
X10659523Y-84288095D01*
X11092857Y-84288095D01*
X11216666Y-84350000D01*
X11278571Y-84411904D01*
X11340476Y-84535714D01*
X11340476Y-84659523D01*
X11278571Y-84783333D01*
X11216666Y-84845238D01*
X11092857Y-84907142D01*
X10659523Y-84907142D01*
D10*
D11*
X11402380Y-135464285D02*
X11340476Y-135526190D01*
X11154761Y-135588095D01*
X11030952Y-135588095D01*
X10845238Y-135526190D01*
X10721428Y-135402380D01*
X10659523Y-135278571D01*
X10597619Y-135030952D01*
X10597619Y-134845238D01*
X10659523Y-134597619D01*
X10721428Y-134473809D01*
X10845238Y-134350000D01*
X11030952Y-134288095D01*
X11154761Y-134288095D01*
X11340476Y-134350000D01*
X11402380Y-134411904D01*
D10*
D11*
X10659523Y-185588095D02*
X10659523Y-184288095D01*
X10969047Y-184288095D01*
X11154761Y-184350000D01*
X11278571Y-184473809D01*
X11340476Y-184597619D01*
X11402380Y-184845238D01*
X11402380Y-185030952D01*
X11340476Y-185278571D01*
X11278571Y-185402380D01*
X11154761Y-185526190D01*
X10969047Y-185588095D01*
X10659523Y-185588095D01*
D10*
D11*
X287002200Y-60000000D02*
X285002200Y-60000000D01*
D10*
D11*
X287002200Y-110000000D02*
X285002200Y-110000000D01*
D10*
D11*
X287002200Y-160000000D02*
X285002200Y-160000000D01*
D10*
D11*
X285692676Y-35216666D02*
X286311723Y-35216666D01*
X285568866Y-35588095D02*
X286002200Y-34288095D01*
X286435533Y-35588095D01*
D10*
D11*
X286095057Y-84907142D02*
X286280771Y-84969047D01*
X286342676Y-85030952D01*
X286404580Y-85154761D01*
X286404580Y-85340476D01*
X286342676Y-85464285D01*
X286280771Y-85526190D01*
X286156961Y-85588095D01*
X285661723Y-85588095D01*
X285661723Y-84288095D01*
X286095057Y-84288095D01*
X286218866Y-84350000D01*
X286280771Y-84411904D01*
X286342676Y-84535714D01*
X286342676Y-84659523D01*
X286280771Y-84783333D01*
X286218866Y-84845238D01*
X286095057Y-84907142D01*
X285661723Y-84907142D01*
D10*
D11*
X286404580Y-135464285D02*
X286342676Y-135526190D01*
X286156961Y-135588095D01*
X286033152Y-135588095D01*
X285847438Y-135526190D01*
X285723628Y-135402380D01*
X285661723Y-135278571D01*
X285599819Y-135030952D01*
X285599819Y-134845238D01*
X285661723Y-134597619D01*
X285723628Y-134473809D01*
X285847438Y-134350000D01*
X286033152Y-134288095D01*
X286156961Y-134288095D01*
X286342676Y-134350000D01*
X286404580Y-134411904D01*
D10*
D11*
X285661723Y-185588095D02*
X285661723Y-184288095D01*
X285971247Y-184288095D01*
X286156961Y-184350000D01*
X286280771Y-184473809D01*
X286342676Y-184597619D01*
X286404580Y-184845238D01*
X286404580Y-185030952D01*
X286342676Y-185278571D01*
X286280771Y-185402380D01*
X286156961Y-185526190D01*
X285971247Y-185588095D01*
X285661723Y-185588095D01*
D10*
D11*
X200434342Y-193785771D02*
X200434342Y-192285771D01*
X200791485Y-192285771D01*
X201005771Y-192357200D01*
X201148628Y-192500057D01*
X201220057Y-192642914D01*
X201291485Y-192928628D01*
X201291485Y-193142914D01*
X201220057Y-193428628D01*
X201148628Y-193571485D01*
X201005771Y-193714342D01*
X200791485Y-193785771D01*
X200434342Y-193785771D01*
X202577200Y-193785771D02*
X202577200Y-193000057D01*
X202505771Y-192857200D01*
X202362914Y-192785771D01*
X202077200Y-192785771D01*
X201934342Y-192857200D01*
X202577200Y-193714342D02*
X202434342Y-193785771D01*
X202077200Y-193785771D01*
X201934342Y-193714342D01*
X201862914Y-193571485D01*
X201862914Y-193428628D01*
X201934342Y-193285771D01*
X202077200Y-193214342D01*
X202434342Y-193214342D01*
X202577200Y-193142914D01*
X203077200Y-192785771D02*
X203648628Y-192785771D01*
X203291485Y-192285771D02*
X203291485Y-193571485D01*
X203362914Y-193714342D01*
X203505771Y-193785771D01*
X203648628Y-193785771D01*
X204720057Y-193714342D02*
X204577200Y-193785771D01*
X204291485Y-193785771D01*
X204148628Y-193714342D01*
X204077200Y-193571485D01*
X204077200Y-193000057D01*
X204148628Y-192857200D01*
X204291485Y-192785771D01*
X204577200Y-192785771D01*
X204720057Y-192857200D01*
X204791485Y-193000057D01*
X204791485Y-193142914D01*
X204077200Y-193285771D01*
X205434342Y-193642914D02*
X205505771Y-193714342D01*
X205434342Y-193785771D01*
X205362914Y-193714342D01*
X205434342Y-193642914D01*
X205434342Y-193785771D01*
X205434342Y-192857200D02*
X205505771Y-192928628D01*
X205434342Y-193000057D01*
X205362914Y-192928628D01*
X205434342Y-192857200D01*
X205434342Y-193000057D01*
D10*
D11*
X177002200Y-194507200D02*
X285002200Y-194507200D01*
D10*
D11*
X178434342Y-196585771D02*
X178434342Y-195085771D01*
X179291485Y-196585771D02*
X178648628Y-195728628D01*
X179291485Y-195085771D02*
X178434342Y-195942914D01*
X179934342Y-196585771D02*
X179934342Y-195585771D01*
X179934342Y-195085771D02*
X179862914Y-195157200D01*
X179934342Y-195228628D01*
X180005771Y-195157200D01*
X179934342Y-195085771D01*
X179934342Y-195228628D01*
X181505771Y-196442914D02*
X181434342Y-196514342D01*
X181220057Y-196585771D01*
X181077200Y-196585771D01*
X180862914Y-196514342D01*
X180720057Y-196371485D01*
X180648628Y-196228628D01*
X180577200Y-195942914D01*
X180577200Y-195728628D01*
X180648628Y-195442914D01*
X180720057Y-195300057D01*
X180862914Y-195157200D01*
X181077200Y-195085771D01*
X181220057Y-195085771D01*
X181434342Y-195157200D01*
X181505771Y-195228628D01*
X182791485Y-196585771D02*
X182791485Y-195800057D01*
X182720057Y-195657200D01*
X182577200Y-195585771D01*
X182291485Y-195585771D01*
X182148628Y-195657200D01*
X182791485Y-196514342D02*
X182648628Y-196585771D01*
X182291485Y-196585771D01*
X182148628Y-196514342D01*
X182077200Y-196371485D01*
X182077200Y-196228628D01*
X182148628Y-196085771D01*
X182291485Y-196014342D01*
X182648628Y-196014342D01*
X182791485Y-195942914D01*
X184148628Y-196585771D02*
X184148628Y-195085771D01*
X184148628Y-196514342D02*
X184005771Y-196585771D01*
X183720057Y-196585771D01*
X183577200Y-196514342D01*
X183505771Y-196442914D01*
X183434342Y-196300057D01*
X183434342Y-195871485D01*
X183505771Y-195728628D01*
X183577200Y-195657200D01*
X183720057Y-195585771D01*
X184005771Y-195585771D01*
X184148628Y-195657200D01*
X186005771Y-195800057D02*
X186505771Y-195800057D01*
X186720057Y-196585771D02*
X186005771Y-196585771D01*
X186005771Y-195085771D01*
X186720057Y-195085771D01*
X187362914Y-196442914D02*
X187434342Y-196514342D01*
X187362914Y-196585771D01*
X187291485Y-196514342D01*
X187362914Y-196442914D01*
X187362914Y-196585771D01*
X188077200Y-196585771D02*
X188077200Y-195085771D01*
X188434342Y-195085771D01*
X188648628Y-195157200D01*
X188791485Y-195300057D01*
X188862914Y-195442914D01*
X188934342Y-195728628D01*
X188934342Y-195942914D01*
X188862914Y-196228628D01*
X188791485Y-196371485D01*
X188648628Y-196514342D01*
X188434342Y-196585771D01*
X188077200Y-196585771D01*
X189577200Y-196442914D02*
X189648628Y-196514342D01*
X189577200Y-196585771D01*
X189505771Y-196514342D01*
X189577200Y-196442914D01*
X189577200Y-196585771D01*
X190220057Y-196157200D02*
X190934342Y-196157200D01*
X190077200Y-196585771D02*
X190577200Y-195085771D01*
X191077200Y-196585771D01*
X191577200Y-196442914D02*
X191648628Y-196514342D01*
X191577200Y-196585771D01*
X191505771Y-196514342D01*
X191577200Y-196442914D01*
X191577200Y-196585771D01*
X194577200Y-196585771D02*
X194577200Y-195085771D01*
X194720057Y-196014342D02*
X195148628Y-196585771D01*
X195148628Y-195585771D02*
X194577200Y-196157200D01*
X195791485Y-196585771D02*
X195791485Y-195585771D01*
X195791485Y-195085771D02*
X195720057Y-195157200D01*
X195791485Y-195228628D01*
X195862914Y-195157200D01*
X195791485Y-195085771D01*
X195791485Y-195228628D01*
X197148628Y-196514342D02*
X197005771Y-196585771D01*
X196720057Y-196585771D01*
X196577200Y-196514342D01*
X196505771Y-196442914D01*
X196434342Y-196300057D01*
X196434342Y-195871485D01*
X196505771Y-195728628D01*
X196577200Y-195657200D01*
X196720057Y-195585771D01*
X197005771Y-195585771D01*
X197148628Y-195657200D01*
X198434342Y-196585771D02*
X198434342Y-195800057D01*
X198362914Y-195657200D01*
X198220057Y-195585771D01*
X197934342Y-195585771D01*
X197791485Y-195657200D01*
X198434342Y-196514342D02*
X198291485Y-196585771D01*
X197934342Y-196585771D01*
X197791485Y-196514342D01*
X197720057Y-196371485D01*
X197720057Y-196228628D01*
X197791485Y-196085771D01*
X197934342Y-196014342D01*
X198291485Y-196014342D01*
X198434342Y-195942914D01*
X199791485Y-196585771D02*
X199791485Y-195085771D01*
X199791485Y-196514342D02*
X199648628Y-196585771D01*
X199362914Y-196585771D01*
X199220057Y-196514342D01*
X199148628Y-196442914D01*
X199077200Y-196300057D01*
X199077200Y-195871485D01*
X199148628Y-195728628D01*
X199220057Y-195657200D01*
X199362914Y-195585771D01*
X199648628Y-195585771D01*
X199791485Y-195657200D01*
X202077200Y-197157200D02*
X202005771Y-197085771D01*
X201862914Y-196871485D01*
X201791485Y-196728628D01*
X201720057Y-196514342D01*
X201648628Y-196157200D01*
X201648628Y-195871485D01*
X201720057Y-195514342D01*
X201791485Y-195300057D01*
X201862914Y-195157200D01*
X202005771Y-194942914D01*
X202077200Y-194871485D01*
X202577200Y-195228628D02*
X202648628Y-195157200D01*
X202791485Y-195085771D01*
X203148628Y-195085771D01*
X203291485Y-195157200D01*
X203362914Y-195228628D01*
X203434342Y-195371485D01*
X203434342Y-195514342D01*
X203362914Y-195728628D01*
X202505771Y-196585771D01*
X203434342Y-196585771D01*
X204362914Y-195085771D02*
X204505771Y-195085771D01*
X204648628Y-195157200D01*
X204720057Y-195228628D01*
X204791485Y-195371485D01*
X204862914Y-195657200D01*
X204862914Y-196014342D01*
X204791485Y-196300057D01*
X204720057Y-196442914D01*
X204648628Y-196514342D01*
X204505771Y-196585771D01*
X204362914Y-196585771D01*
X204220057Y-196514342D01*
X204148628Y-196442914D01*
X204077200Y-196300057D01*
X204005771Y-196014342D01*
X204005771Y-195657200D01*
X204077200Y-195371485D01*
X204148628Y-195228628D01*
X204220057Y-195157200D01*
X204362914Y-195085771D01*
X206291485Y-196585771D02*
X205434342Y-196585771D01*
X205862914Y-196585771D02*
X205862914Y-195085771D01*
X205720057Y-195300057D01*
X205577200Y-195442914D01*
X205434342Y-195514342D01*
X206791485Y-195085771D02*
X207791485Y-195085771D01*
X207148628Y-196585771D01*
X208362914Y-196014342D02*
X209505771Y-196014342D01*
X210505771Y-195085771D02*
X210648628Y-195085771D01*
X210791485Y-195157200D01*
X210862914Y-195228628D01*
X210934342Y-195371485D01*
X211005771Y-195657200D01*
X211005771Y-196014342D01*
X210934342Y-196300057D01*
X210862914Y-196442914D01*
X210791485Y-196514342D01*
X210648628Y-196585771D01*
X210505771Y-196585771D01*
X210362914Y-196514342D01*
X210291485Y-196442914D01*
X210220057Y-196300057D01*
X210148628Y-196014342D01*
X210148628Y-195657200D01*
X210220057Y-195371485D01*
X210291485Y-195228628D01*
X210362914Y-195157200D01*
X210505771Y-195085771D01*
X211862914Y-195728628D02*
X211720057Y-195657200D01*
X211648628Y-195585771D01*
X211577200Y-195442914D01*
X211577200Y-195371485D01*
X211648628Y-195228628D01*
X211720057Y-195157200D01*
X211862914Y-195085771D01*
X212148628Y-195085771D01*
X212291485Y-195157200D01*
X212362914Y-195228628D01*
X212434342Y-195371485D01*
X212434342Y-195442914D01*
X212362914Y-195585771D01*
X212291485Y-195657200D01*
X212148628Y-195728628D01*
X211862914Y-195728628D01*
X211720057Y-195800057D01*
X211648628Y-195871485D01*
X211577200Y-196014342D01*
X211577200Y-196300057D01*
X211648628Y-196442914D01*
X211720057Y-196514342D01*
X211862914Y-196585771D01*
X212148628Y-196585771D01*
X212291485Y-196514342D01*
X212362914Y-196442914D01*
X212434342Y-196300057D01*
X212434342Y-196014342D01*
X212362914Y-195871485D01*
X212291485Y-195800057D01*
X212148628Y-195728628D01*
X213077200Y-196014342D02*
X214220057Y-196014342D01*
X215220057Y-195085771D02*
X215362914Y-195085771D01*
X215505771Y-195157200D01*
X215577200Y-195228628D01*
X215648628Y-195371485D01*
X215720057Y-195657200D01*
X215720057Y-196014342D01*
X215648628Y-196300057D01*
X215577200Y-196442914D01*
X215505771Y-196514342D01*
X215362914Y-196585771D01*
X215220057Y-196585771D01*
X215077200Y-196514342D01*
X215005771Y-196442914D01*
X214934342Y-196300057D01*
X214862914Y-196014342D01*
X214862914Y-195657200D01*
X214934342Y-195371485D01*
X215005771Y-195228628D01*
X215077200Y-195157200D01*
X215220057Y-195085771D01*
X216291485Y-195228628D02*
X216362914Y-195157200D01*
X216505771Y-195085771D01*
X216862914Y-195085771D01*
X217005771Y-195157200D01*
X217077200Y-195228628D01*
X217148628Y-195371485D01*
X217148628Y-195514342D01*
X217077200Y-195728628D01*
X216220057Y-196585771D01*
X217148628Y-196585771D01*
X218934342Y-196585771D02*
X218934342Y-195585771D01*
X218934342Y-195871485D02*
X219005771Y-195728628D01*
X219077200Y-195657200D01*
X219220057Y-195585771D01*
X219362914Y-195585771D01*
X220434342Y-196514342D02*
X220291485Y-196585771D01*
X220005771Y-196585771D01*
X219862914Y-196514342D01*
X219791485Y-196371485D01*
X219791485Y-195800057D01*
X219862914Y-195657200D01*
X220005771Y-195585771D01*
X220291485Y-195585771D01*
X220434342Y-195657200D01*
X220505771Y-195800057D01*
X220505771Y-195942914D01*
X219791485Y-196085771D01*
X221005771Y-195585771D02*
X221362914Y-196585771D01*
X221720057Y-195585771D01*
X222291485Y-196585771D02*
X222291485Y-195585771D01*
X222291485Y-195085771D02*
X222220057Y-195157200D01*
X222291485Y-195228628D01*
X222362914Y-195157200D01*
X222291485Y-195085771D01*
X222291485Y-195228628D01*
X222934342Y-196514342D02*
X223077200Y-196585771D01*
X223362914Y-196585771D01*
X223505771Y-196514342D01*
X223577200Y-196371485D01*
X223577200Y-196300057D01*
X223505771Y-196157200D01*
X223362914Y-196085771D01*
X223148628Y-196085771D01*
X223005771Y-196014342D01*
X222934342Y-195871485D01*
X222934342Y-195800057D01*
X223005771Y-195657200D01*
X223148628Y-195585771D01*
X223362914Y-195585771D01*
X223505771Y-195657200D01*
X224220057Y-196585771D02*
X224220057Y-195585771D01*
X224220057Y-195085771D02*
X224148628Y-195157200D01*
X224220057Y-195228628D01*
X224291485Y-195157200D01*
X224220057Y-195085771D01*
X224220057Y-195228628D01*
X225148628Y-196585771D02*
X225005771Y-196514342D01*
X224934342Y-196442914D01*
X224862914Y-196300057D01*
X224862914Y-195871485D01*
X224934342Y-195728628D01*
X225005771Y-195657200D01*
X225148628Y-195585771D01*
X225362914Y-195585771D01*
X225505771Y-195657200D01*
X225577200Y-195728628D01*
X225648628Y-195871485D01*
X225648628Y-196300057D01*
X225577200Y-196442914D01*
X225505771Y-196514342D01*
X225362914Y-196585771D01*
X225148628Y-196585771D01*
X226291485Y-195585771D02*
X226291485Y-196585771D01*
X226291485Y-195728628D02*
X226362914Y-195657200D01*
X226505771Y-195585771D01*
X226720057Y-195585771D01*
X226862914Y-195657200D01*
X226934342Y-195800057D01*
X226934342Y-196585771D01*
X228862914Y-196585771D02*
X229148628Y-196585771D01*
X229291485Y-196514342D01*
X229362914Y-196442914D01*
X229505771Y-196228628D01*
X229577200Y-195942914D01*
X229577200Y-195371485D01*
X229505771Y-195228628D01*
X229434342Y-195157200D01*
X229291485Y-195085771D01*
X229005771Y-195085771D01*
X228862914Y-195157200D01*
X228791485Y-195228628D01*
X228720057Y-195371485D01*
X228720057Y-195728628D01*
X228791485Y-195871485D01*
X228862914Y-195942914D01*
X229005771Y-196014342D01*
X229291485Y-196014342D01*
X229434342Y-195942914D01*
X229505771Y-195871485D01*
X229577200Y-195728628D01*
X230077200Y-195085771D02*
X231077200Y-195085771D01*
X230434342Y-196585771D01*
X232291485Y-195085771D02*
X232005771Y-195085771D01*
X231862914Y-195157200D01*
X231791485Y-195228628D01*
X231648628Y-195442914D01*
X231577200Y-195728628D01*
X231577200Y-196300057D01*
X231648628Y-196442914D01*
X231720057Y-196514342D01*
X231862914Y-196585771D01*
X232148628Y-196585771D01*
X232291485Y-196514342D01*
X232362914Y-196442914D01*
X232434342Y-196300057D01*
X232434342Y-195942914D01*
X232362914Y-195800057D01*
X232291485Y-195728628D01*
X232148628Y-195657200D01*
X231862914Y-195657200D01*
X231720057Y-195728628D01*
X231648628Y-195800057D01*
X231577200Y-195942914D01*
X233362914Y-195085771D02*
X233505771Y-195085771D01*
X233648628Y-195157200D01*
X233720057Y-195228628D01*
X233791485Y-195371485D01*
X233862914Y-195657200D01*
X233862914Y-196014342D01*
X233791485Y-196300057D01*
X233720057Y-196442914D01*
X233648628Y-196514342D01*
X233505771Y-196585771D01*
X233362914Y-196585771D01*
X233220057Y-196514342D01*
X233148628Y-196442914D01*
X233077200Y-196300057D01*
X233005771Y-196014342D01*
X233005771Y-195657200D01*
X233077200Y-195371485D01*
X233148628Y-195228628D01*
X233220057Y-195157200D01*
X233362914Y-195085771D01*
X234577199Y-196585771D02*
X234862914Y-196585771D01*
X235005771Y-196514342D01*
X235077199Y-196442914D01*
X235220057Y-196228628D01*
X235291485Y-195942914D01*
X235291485Y-195371485D01*
X235220057Y-195228628D01*
X235148628Y-195157200D01*
X235005771Y-195085771D01*
X234720057Y-195085771D01*
X234577199Y-195157200D01*
X234505771Y-195228628D01*
X234434342Y-195371485D01*
X234434342Y-195728628D01*
X234505771Y-195871485D01*
X234577199Y-195942914D01*
X234720057Y-196014342D01*
X235005771Y-196014342D01*
X235148628Y-195942914D01*
X235220057Y-195871485D01*
X235291485Y-195728628D01*
X235791485Y-195085771D02*
X236720057Y-195085771D01*
X236220057Y-195657200D01*
X236434342Y-195657200D01*
X236577199Y-195728628D01*
X236648628Y-195800057D01*
X236720057Y-195942914D01*
X236720057Y-196300057D01*
X236648628Y-196442914D01*
X236577199Y-196514342D01*
X236434342Y-196585771D01*
X236005771Y-196585771D01*
X235862914Y-196514342D01*
X235791485Y-196442914D01*
X237220057Y-195085771D02*
X238220057Y-195085771D01*
X237577199Y-196585771D01*
X238648628Y-197157200D02*
X238720057Y-197085771D01*
X238862914Y-196871485D01*
X238934342Y-196728628D01*
X239005771Y-196514342D01*
X239077199Y-196157200D01*
X239077199Y-195871485D01*
X239005771Y-195514342D01*
X238934342Y-195300057D01*
X238862914Y-195157200D01*
X238720057Y-194942914D01*
X238648628Y-194871485D01*
X239791485Y-196014342D02*
X240934342Y-196014342D01*
X241648628Y-196585771D02*
X241648628Y-195585771D01*
X241648628Y-195728628D02*
X241720057Y-195657200D01*
X241862914Y-195585771D01*
X242077199Y-195585771D01*
X242220057Y-195657200D01*
X242291485Y-195800057D01*
X242291485Y-196585771D01*
X242291485Y-195800057D02*
X242362914Y-195657200D01*
X242505771Y-195585771D01*
X242720057Y-195585771D01*
X242862914Y-195657200D01*
X242934342Y-195800057D01*
X242934342Y-196585771D01*
X244291485Y-196585771D02*
X244291485Y-195800057D01*
X244220057Y-195657200D01*
X244077199Y-195585771D01*
X243791485Y-195585771D01*
X243648628Y-195657200D01*
X244291485Y-196514342D02*
X244148628Y-196585771D01*
X243791485Y-196585771D01*
X243648628Y-196514342D01*
X243577199Y-196371485D01*
X243577199Y-196228628D01*
X243648628Y-196085771D01*
X243791485Y-196014342D01*
X244148628Y-196014342D01*
X244291485Y-195942914D01*
X244934342Y-196514342D02*
X245077199Y-196585771D01*
X245362914Y-196585771D01*
X245505771Y-196514342D01*
X245577199Y-196371485D01*
X245577199Y-196300057D01*
X245505771Y-196157200D01*
X245362914Y-196085771D01*
X245148628Y-196085771D01*
X245005771Y-196014342D01*
X244934342Y-195871485D01*
X244934342Y-195800057D01*
X245005771Y-195657200D01*
X245148628Y-195585771D01*
X245362914Y-195585771D01*
X245505771Y-195657200D01*
X246005771Y-195585771D02*
X246577199Y-195585771D01*
X246220057Y-195085771D02*
X246220057Y-196371485D01*
X246291485Y-196514342D01*
X246434342Y-196585771D01*
X246577199Y-196585771D01*
X247648628Y-196514342D02*
X247505771Y-196585771D01*
X247220057Y-196585771D01*
X247077199Y-196514342D01*
X247005771Y-196371485D01*
X247005771Y-195800057D01*
X247077199Y-195657200D01*
X247220057Y-195585771D01*
X247505771Y-195585771D01*
X247648628Y-195657200D01*
X247720057Y-195800057D01*
X247720057Y-195942914D01*
X247005771Y-196085771D01*
X248362914Y-196585771D02*
X248362914Y-195585771D01*
X248362914Y-195871485D02*
X248434342Y-195728628D01*
X248505771Y-195657200D01*
X248648628Y-195585771D01*
X248791485Y-195585771D01*
D10*
D11*
X177002200Y-191507200D02*
X285002200Y-191507200D01*
D10*
D12*
X264411485Y-193785771D02*
X263911485Y-193071485D01*
X263554342Y-193785771D02*
X263554342Y-192285771D01*
X264125771Y-192285771D01*
X264268628Y-192357200D01*
X264340057Y-192428628D01*
X264411485Y-192571485D01*
X264411485Y-192785771D01*
X264340057Y-192928628D01*
X264268628Y-193000057D01*
X264125771Y-193071485D01*
X263554342Y-193071485D01*
X265625771Y-193714342D02*
X265482914Y-193785771D01*
X265197200Y-193785771D01*
X265054342Y-193714342D01*
X264982914Y-193571485D01*
X264982914Y-193000057D01*
X265054342Y-192857200D01*
X265197200Y-192785771D01*
X265482914Y-192785771D01*
X265625771Y-192857200D01*
X265697200Y-193000057D01*
X265697200Y-193142914D01*
X264982914Y-193285771D01*
X266197200Y-192785771D02*
X266554342Y-193785771D01*
X266911485Y-192785771D01*
X267482914Y-193642914D02*
X267554342Y-193714342D01*
X267482914Y-193785771D01*
X267411485Y-193714342D01*
X267482914Y-193642914D01*
X267482914Y-193785771D01*
X267482914Y-192857200D02*
X267554342Y-192928628D01*
X267482914Y-193000057D01*
X267411485Y-192928628D01*
X267482914Y-192857200D01*
X267482914Y-193000057D01*
D10*
D11*
X178362914Y-193714342D02*
X178577200Y-193785771D01*
X178934342Y-193785771D01*
X179077200Y-193714342D01*
X179148628Y-193642914D01*
X179220057Y-193500057D01*
X179220057Y-193357200D01*
X179148628Y-193214342D01*
X179077200Y-193142914D01*
X178934342Y-193071485D01*
X178648628Y-193000057D01*
X178505771Y-192928628D01*
X178434342Y-192857200D01*
X178362914Y-192714342D01*
X178362914Y-192571485D01*
X178434342Y-192428628D01*
X178505771Y-192357200D01*
X178648628Y-192285771D01*
X179005771Y-192285771D01*
X179220057Y-192357200D01*
X179862914Y-193785771D02*
X179862914Y-192785771D01*
X179862914Y-192285771D02*
X179791485Y-192357200D01*
X179862914Y-192428628D01*
X179934342Y-192357200D01*
X179862914Y-192285771D01*
X179862914Y-192428628D01*
X180434342Y-192785771D02*
X181220057Y-192785771D01*
X180434342Y-193785771D01*
X181220057Y-193785771D01*
X182362914Y-193714342D02*
X182220057Y-193785771D01*
X181934342Y-193785771D01*
X181791485Y-193714342D01*
X181720057Y-193571485D01*
X181720057Y-193000057D01*
X181791485Y-192857200D01*
X181934342Y-192785771D01*
X182220057Y-192785771D01*
X182362914Y-192857200D01*
X182434342Y-193000057D01*
X182434342Y-193142914D01*
X181720057Y-193285771D01*
X183077200Y-193642914D02*
X183148628Y-193714342D01*
X183077200Y-193785771D01*
X183005771Y-193714342D01*
X183077200Y-193642914D01*
X183077200Y-193785771D01*
X183077200Y-192857200D02*
X183148628Y-192928628D01*
X183077200Y-193000057D01*
X183005771Y-192928628D01*
X183077200Y-192857200D01*
X183077200Y-193000057D01*
X184862914Y-193357200D02*
X185577200Y-193357200D01*
X184720057Y-193785771D02*
X185220057Y-192285771D01*
X185720057Y-193785771D01*
X186862914Y-192785771D02*
X186862914Y-193785771D01*
X186505771Y-192214342D02*
X186148628Y-193285771D01*
X187077200Y-193285771D01*
D10*
D11*
X263434342Y-196585771D02*
X263434342Y-195085771D01*
X264791485Y-196585771D02*
X264791485Y-195085771D01*
X264791485Y-196514342D02*
X264648628Y-196585771D01*
X264362914Y-196585771D01*
X264220057Y-196514342D01*
X264148628Y-196442914D01*
X264077200Y-196300057D01*
X264077200Y-195871485D01*
X264148628Y-195728628D01*
X264220057Y-195657200D01*
X264362914Y-195585771D01*
X264648628Y-195585771D01*
X264791485Y-195657200D01*
X265505771Y-196442914D02*
X265577200Y-196514342D01*
X265505771Y-196585771D01*
X265434342Y-196514342D01*
X265505771Y-196442914D01*
X265505771Y-196585771D01*
X265505771Y-195657200D02*
X265577200Y-195728628D01*
X265505771Y-195800057D01*
X265434342Y-195728628D01*
X265505771Y-195657200D01*
X265505771Y-195800057D01*
X268148628Y-196585771D02*
X267291485Y-196585771D01*
X267720057Y-196585771D02*
X267720057Y-195085771D01*
X267577200Y-195300057D01*
X267434342Y-195442914D01*
X267291485Y-195514342D01*
X269862914Y-195014342D02*
X268577200Y-196942914D01*
X271148628Y-196585771D02*
X270291485Y-196585771D01*
X270720057Y-196585771D02*
X270720057Y-195085771D01*
X270577200Y-195300057D01*
X270434342Y-195442914D01*
X270291485Y-195514342D01*
D10*
D11*
X177002200Y-187507200D02*
X285002200Y-187507200D01*
D10*
D13*
X178714580Y-188211961D02*
X179857438Y-188211961D01*
X179036009Y-190211961D02*
X179286009Y-188211961D01*
X180274104Y-190211961D02*
X180440771Y-188878628D01*
X180524104Y-188211961D02*
X180416961Y-188307200D01*
X180500295Y-188402438D01*
X180607438Y-188307200D01*
X180524104Y-188211961D01*
X180500295Y-188402438D01*
X181107438Y-188878628D02*
X181869342Y-188878628D01*
X181476485Y-188211961D02*
X181262200Y-189926247D01*
X181333628Y-190116723D01*
X181512200Y-190211961D01*
X181702676Y-190211961D01*
X182655057Y-190211961D02*
X182476485Y-190116723D01*
X182405057Y-189926247D01*
X182619342Y-188211961D01*
X184190771Y-190116723D02*
X183988390Y-190211961D01*
X183607438Y-190211961D01*
X183428866Y-190116723D01*
X183357438Y-189926247D01*
X183452676Y-189164342D01*
X183571723Y-188973866D01*
X183774104Y-188878628D01*
X184155057Y-188878628D01*
X184333628Y-188973866D01*
X184405057Y-189164342D01*
X184381247Y-189354819D01*
X183405057Y-189545295D01*
X185155057Y-190021485D02*
X185238390Y-190116723D01*
X185131247Y-190211961D01*
X185047914Y-190116723D01*
X185155057Y-190021485D01*
X185131247Y-190211961D01*
X185286009Y-188973866D02*
X185369342Y-189069104D01*
X185262200Y-189164342D01*
X185178866Y-189069104D01*
X185286009Y-188973866D01*
X185262200Y-189164342D01*
D10*
D11*
X178934342Y-185600057D02*
X178434342Y-185600057D01*
X178434342Y-186385771D02*
X178434342Y-184885771D01*
X179148628Y-184885771D01*
X179720057Y-186385771D02*
X179720057Y-185385771D01*
X179720057Y-184885771D02*
X179648628Y-184957200D01*
X179720057Y-185028628D01*
X179791485Y-184957200D01*
X179720057Y-184885771D01*
X179720057Y-185028628D01*
X180648628Y-186385771D02*
X180505771Y-186314342D01*
X180434342Y-186171485D01*
X180434342Y-184885771D01*
X181791485Y-186314342D02*
X181648628Y-186385771D01*
X181362914Y-186385771D01*
X181220057Y-186314342D01*
X181148628Y-186171485D01*
X181148628Y-185600057D01*
X181220057Y-185457200D01*
X181362914Y-185385771D01*
X181648628Y-185385771D01*
X181791485Y-185457200D01*
X181862914Y-185600057D01*
X181862914Y-185742914D01*
X181148628Y-185885771D01*
X182505771Y-186242914D02*
X182577200Y-186314342D01*
X182505771Y-186385771D01*
X182434342Y-186314342D01*
X182505771Y-186242914D01*
X182505771Y-186385771D01*
X182505771Y-185457200D02*
X182577200Y-185528628D01*
X182505771Y-185600057D01*
X182434342Y-185528628D01*
X182505771Y-185457200D01*
X182505771Y-185600057D01*
X184362914Y-186385771D02*
X184362914Y-184885771D01*
X184362914Y-185457200D02*
X184505771Y-185385771D01*
X184791485Y-185385771D01*
X184934342Y-185457200D01*
X185005771Y-185528628D01*
X185077200Y-185671485D01*
X185077200Y-186100057D01*
X185005771Y-186242914D01*
X184934342Y-186314342D01*
X184791485Y-186385771D01*
X184505771Y-186385771D01*
X184362914Y-186314342D01*
X186291485Y-186314342D02*
X186148628Y-186385771D01*
X185862914Y-186385771D01*
X185720057Y-186314342D01*
X185648628Y-186171485D01*
X185648628Y-185600057D01*
X185720057Y-185457200D01*
X185862914Y-185385771D01*
X186148628Y-185385771D01*
X186291485Y-185457200D01*
X186362914Y-185600057D01*
X186362914Y-185742914D01*
X185648628Y-185885771D01*
X187648628Y-186385771D02*
X187648628Y-185600057D01*
X187577200Y-185457200D01*
X187434342Y-185385771D01*
X187148628Y-185385771D01*
X187005771Y-185457200D01*
X187648628Y-186314342D02*
X187505771Y-186385771D01*
X187148628Y-186385771D01*
X187005771Y-186314342D01*
X186934342Y-186171485D01*
X186934342Y-186028628D01*
X187005771Y-185885771D01*
X187148628Y-185814342D01*
X187505771Y-185814342D01*
X187648628Y-185742914D01*
X189005771Y-185385771D02*
X189005771Y-186600057D01*
X188934342Y-186742914D01*
X188862914Y-186814342D01*
X188720057Y-186885771D01*
X188505771Y-186885771D01*
X188362914Y-186814342D01*
X189005771Y-186314342D02*
X188862914Y-186385771D01*
X188577200Y-186385771D01*
X188434342Y-186314342D01*
X188362914Y-186242914D01*
X188291485Y-186100057D01*
X188291485Y-185671485D01*
X188362914Y-185528628D01*
X188434342Y-185457200D01*
X188577200Y-185385771D01*
X188862914Y-185385771D01*
X189005771Y-185457200D01*
X189934342Y-186385771D02*
X189791485Y-186314342D01*
X189720057Y-186171485D01*
X189720057Y-184885771D01*
X191077200Y-186314342D02*
X190934342Y-186385771D01*
X190648628Y-186385771D01*
X190505771Y-186314342D01*
X190434342Y-186171485D01*
X190434342Y-185600057D01*
X190505771Y-185457200D01*
X190648628Y-185385771D01*
X190934342Y-185385771D01*
X191077200Y-185457200D01*
X191148628Y-185600057D01*
X191148628Y-185742914D01*
X190434342Y-185885771D01*
X191791485Y-185814342D02*
X192934342Y-185814342D01*
X193505771Y-185385771D02*
X193791485Y-186385771D01*
X194077200Y-185671485D01*
X194362914Y-186385771D01*
X194648628Y-185385771D01*
X195220057Y-186385771D02*
X195220057Y-185385771D01*
X195220057Y-184885771D02*
X195148628Y-184957200D01*
X195220057Y-185028628D01*
X195291485Y-184957200D01*
X195220057Y-184885771D01*
X195220057Y-185028628D01*
X195934342Y-186385771D02*
X195934342Y-185385771D01*
X195934342Y-185671485D02*
X196005771Y-185528628D01*
X196077200Y-185457200D01*
X196220057Y-185385771D01*
X196362914Y-185385771D01*
X197434342Y-186314342D02*
X197291485Y-186385771D01*
X197005771Y-186385771D01*
X196862914Y-186314342D01*
X196791485Y-186171485D01*
X196791485Y-185600057D01*
X196862914Y-185457200D01*
X197005771Y-185385771D01*
X197291485Y-185385771D01*
X197434342Y-185457200D01*
X197505771Y-185600057D01*
X197505771Y-185742914D01*
X196791485Y-185885771D01*
X198148628Y-186242914D02*
X198220057Y-186314342D01*
X198148628Y-186385771D01*
X198077200Y-186314342D01*
X198148628Y-186242914D01*
X198148628Y-186385771D01*
X198862914Y-186385771D02*
X198862914Y-184885771D01*
X199005771Y-185814342D02*
X199434342Y-186385771D01*
X199434342Y-185385771D02*
X198862914Y-185957200D01*
X200077200Y-186385771D02*
X200077200Y-185385771D01*
X200077200Y-184885771D02*
X200005771Y-184957200D01*
X200077200Y-185028628D01*
X200148628Y-184957200D01*
X200077200Y-184885771D01*
X200077200Y-185028628D01*
X201434342Y-186314342D02*
X201291485Y-186385771D01*
X201005771Y-186385771D01*
X200862914Y-186314342D01*
X200791485Y-186242914D01*
X200720057Y-186100057D01*
X200720057Y-185671485D01*
X200791485Y-185528628D01*
X200862914Y-185457200D01*
X201005771Y-185385771D01*
X201291485Y-185385771D01*
X201434342Y-185457200D01*
X202720057Y-186385771D02*
X202720057Y-185600057D01*
X202648628Y-185457200D01*
X202505771Y-185385771D01*
X202220057Y-185385771D01*
X202077200Y-185457200D01*
X202720057Y-186314342D02*
X202577200Y-186385771D01*
X202220057Y-186385771D01*
X202077200Y-186314342D01*
X202005771Y-186171485D01*
X202005771Y-186028628D01*
X202077200Y-185885771D01*
X202220057Y-185814342D01*
X202577200Y-185814342D01*
X202720057Y-185742914D01*
X204077200Y-186385771D02*
X204077200Y-184885771D01*
X204077200Y-186314342D02*
X203934342Y-186385771D01*
X203648628Y-186385771D01*
X203505771Y-186314342D01*
X203434342Y-186242914D01*
X203362914Y-186100057D01*
X203362914Y-185671485D01*
X203434342Y-185528628D01*
X203505771Y-185457200D01*
X203648628Y-185385771D01*
X203934342Y-185385771D01*
X204077200Y-185457200D01*
X204434342Y-186528628D02*
X205577200Y-186528628D01*
X205934342Y-185385771D02*
X205934342Y-186885771D01*
X205934342Y-185457200D02*
X206077200Y-185385771D01*
X206362914Y-185385771D01*
X206505771Y-185457200D01*
X206577200Y-185528628D01*
X206648628Y-185671485D01*
X206648628Y-186100057D01*
X206577200Y-186242914D01*
X206505771Y-186314342D01*
X206362914Y-186385771D01*
X206077200Y-186385771D01*
X205934342Y-186314342D01*
X207934342Y-186314342D02*
X207791485Y-186385771D01*
X207505771Y-186385771D01*
X207362914Y-186314342D01*
X207291485Y-186242914D01*
X207220057Y-186100057D01*
X207220057Y-185671485D01*
X207291485Y-185528628D01*
X207362914Y-185457200D01*
X207505771Y-185385771D01*
X207791485Y-185385771D01*
X207934342Y-185457200D01*
X208577200Y-186385771D02*
X208577200Y-184885771D01*
X208577200Y-185457200D02*
X208720057Y-185385771D01*
X209005771Y-185385771D01*
X209148628Y-185457200D01*
X209220057Y-185528628D01*
X209291485Y-185671485D01*
X209291485Y-186100057D01*
X209220057Y-186242914D01*
X209148628Y-186314342D01*
X209005771Y-186385771D01*
X208720057Y-186385771D01*
X208577200Y-186314342D01*
D10*
D11*
X177002200Y-181507200D02*
X285002200Y-181507200D01*
D10*
D11*
X178362914Y-183614342D02*
X178577200Y-183685771D01*
X178934342Y-183685771D01*
X179077200Y-183614342D01*
X179148628Y-183542914D01*
X179220057Y-183400057D01*
X179220057Y-183257200D01*
X179148628Y-183114342D01*
X179077200Y-183042914D01*
X178934342Y-182971485D01*
X178648628Y-182900057D01*
X178505771Y-182828628D01*
X178434342Y-182757200D01*
X178362914Y-182614342D01*
X178362914Y-182471485D01*
X178434342Y-182328628D01*
X178505771Y-182257200D01*
X178648628Y-182185771D01*
X179005771Y-182185771D01*
X179220057Y-182257200D01*
X179862914Y-183685771D02*
X179862914Y-182185771D01*
X180505771Y-183685771D02*
X180505771Y-182900057D01*
X180434342Y-182757200D01*
X180291485Y-182685771D01*
X180077200Y-182685771D01*
X179934342Y-182757200D01*
X179862914Y-182828628D01*
X181791485Y-183614342D02*
X181648628Y-183685771D01*
X181362914Y-183685771D01*
X181220057Y-183614342D01*
X181148628Y-183471485D01*
X181148628Y-182900057D01*
X181220057Y-182757200D01*
X181362914Y-182685771D01*
X181648628Y-182685771D01*
X181791485Y-182757200D01*
X181862914Y-182900057D01*
X181862914Y-183042914D01*
X181148628Y-183185771D01*
X183077200Y-183614342D02*
X182934342Y-183685771D01*
X182648628Y-183685771D01*
X182505771Y-183614342D01*
X182434342Y-183471485D01*
X182434342Y-182900057D01*
X182505771Y-182757200D01*
X182648628Y-182685771D01*
X182934342Y-182685771D01*
X183077200Y-182757200D01*
X183148628Y-182900057D01*
X183148628Y-183042914D01*
X182434342Y-183185771D01*
X183577200Y-182685771D02*
X184148628Y-182685771D01*
X183791485Y-182185771D02*
X183791485Y-183471485D01*
X183862914Y-183614342D01*
X184005771Y-183685771D01*
X184148628Y-183685771D01*
X184648628Y-183542914D02*
X184720057Y-183614342D01*
X184648628Y-183685771D01*
X184577200Y-183614342D01*
X184648628Y-183542914D01*
X184648628Y-183685771D01*
X184648628Y-182757200D02*
X184720057Y-182828628D01*
X184648628Y-182900057D01*
X184577200Y-182828628D01*
X184648628Y-182757200D01*
X184648628Y-182900057D01*
D10*
D11*
X197002200Y-191507200D02*
X197002200Y-194507200D01*
D10*
D11*
X261002200Y-191507200D02*
X261002200Y-198007200D01*
D14*
X168640100Y-118262400D03*
X163140100Y-118262400D03*
X168640100Y-115722400D03*
X163140100Y-115722400D03*
X168640100Y-113182400D03*
X163140100Y-113182400D03*
X168640100Y-110642400D03*
X163140100Y-110642400D03*
X168640100Y-108102400D03*
X163140100Y-108102400D03*
X168640100Y-105562400D03*
X163140100Y-105562400D03*
X168640100Y-103022400D03*
X163140100Y-103022400D03*
X168640100Y-100482400D03*
X163140100Y-100482400D03*
X168640100Y-97942400D03*
X163140100Y-97942400D03*
X168640100Y-95402400D03*
X163140100Y-95402400D03*
X168640100Y-92862400D03*
X163140100Y-92862400D03*
X168640100Y-90322400D03*
X163140100Y-90322400D03*
X168640100Y-87782400D03*
X163140100Y-87782400D03*
X168640100Y-85242400D03*
X163140100Y-85242400D03*
X168640100Y-82702400D03*
X163140100Y-82702400D03*
X168640100Y-80162400D03*
X163140100Y-80162400D03*
X168640100Y-77622400D03*
X163140100Y-77622400D03*
X168640100Y-75082400D03*
X163140100Y-75082400D03*
X168640100Y-72542400D03*
X163140100Y-72542400D03*
X168640100Y-70002400D03*
X163140100Y-70002400D03*
X168640100Y-67462400D03*
X163140100Y-67462400D03*
X168640100Y-64922400D03*
X163140100Y-64922400D03*
X168640100Y-62382400D03*
X163140100Y-62382400D03*
X120380100Y-118262400D03*
X114880100Y-118262400D03*
X120380100Y-115722400D03*
X114880100Y-115722400D03*
X120380100Y-113182400D03*
X114880100Y-113182400D03*
X120380100Y-110642400D03*
X114880100Y-110642400D03*
X120380100Y-108102400D03*
X114880100Y-108102400D03*
X120380100Y-105562400D03*
X114880100Y-105562400D03*
X120380100Y-103022400D03*
X114880100Y-103022400D03*
X120380100Y-100482400D03*
X114880100Y-100482400D03*
X120380100Y-97942400D03*
X114880100Y-97942400D03*
X120380100Y-95402400D03*
X114880100Y-95402400D03*
X120380100Y-92862400D03*
X114880100Y-92862400D03*
X120380100Y-90322400D03*
X114880100Y-90322400D03*
X120380100Y-87782400D03*
X114880100Y-87782400D03*
X120380100Y-85242400D03*
X114880100Y-85242400D03*
X120380100Y-82702400D03*
X114880100Y-82702400D03*
X120380100Y-80162400D03*
X114880100Y-80162400D03*
X120380100Y-77622400D03*
X114880100Y-77622400D03*
X120380100Y-75082400D03*
X114880100Y-75082400D03*
X120380100Y-72542400D03*
X114880100Y-72542400D03*
X120380100Y-70002400D03*
X114880100Y-70002400D03*
X120380100Y-67462400D03*
X114880100Y-67462400D03*
X120380100Y-64922400D03*
X114880100Y-64922400D03*
X120380100Y-62382400D03*
X114880100Y-62382400D03*
D15*
X153558000Y-69995000D03*
X153058000Y-69995000D03*
X152558000Y-69995000D03*
X152058000Y-69995000D03*
X151558000Y-69995000D03*
X151058000Y-69995000D03*
X150558000Y-69995000D03*
X150058000Y-69995000D03*
X149558000Y-69995000D03*
X149058000Y-69995000D03*
X148558000Y-69995000D03*
X148058000Y-69995000D03*
X147558000Y-69995000D03*
X147058000Y-69995000D03*
X146558000Y-69995000D03*
X146058000Y-69995000D03*
X145558000Y-69995000D03*
X145058000Y-69995000D03*
X144558000Y-69995000D03*
X144058000Y-69995000D03*
X143558000Y-69995000D03*
X143058000Y-69995000D03*
X142558000Y-69995000D03*
X142058000Y-69995000D03*
X141558000Y-69995000D03*
X141058000Y-69995000D03*
X140558000Y-69995000D03*
X140058000Y-69995000D03*
X139558000Y-69995000D03*
X139058000Y-69995000D03*
X138558000Y-69995000D03*
X138058000Y-69995000D03*
X137558000Y-69995000D03*
X137058000Y-69995000D03*
X136558000Y-69995000D03*
X136058000Y-69995000D03*
D16*
X134258000Y-71795000D03*
X134258000Y-72295000D03*
X134258000Y-72795000D03*
X134258000Y-73295000D03*
X134258000Y-73795000D03*
X134258000Y-74295000D03*
X134258000Y-74795000D03*
X134258000Y-75295000D03*
X134258000Y-75795000D03*
X134258000Y-76295000D03*
X134258000Y-76795000D03*
X134258000Y-77295000D03*
X134258000Y-77795000D03*
X134258000Y-78295000D03*
X134258000Y-78795000D03*
X134258000Y-79295000D03*
X134258000Y-79795000D03*
X134258000Y-80295000D03*
X134258000Y-80795000D03*
X134258000Y-81295000D03*
X134258000Y-81795000D03*
X134258000Y-82295000D03*
X134258000Y-82795000D03*
X134258000Y-83295000D03*
X134258000Y-83795000D03*
X134258000Y-84295000D03*
X134258000Y-84795000D03*
X134258000Y-85295000D03*
X134258000Y-85795000D03*
X134258000Y-86295000D03*
X134258000Y-86795000D03*
X134258000Y-87295000D03*
X134258000Y-87795000D03*
X134258000Y-88295000D03*
X134258000Y-88795000D03*
X134258000Y-89295000D03*
D15*
X136058000Y-91095000D03*
X136558000Y-91095000D03*
X137058000Y-91095000D03*
X137558000Y-91095000D03*
X138058000Y-91095000D03*
X138558000Y-91095000D03*
X139058000Y-91095000D03*
X139558000Y-91095000D03*
X140058000Y-91095000D03*
X140558000Y-91095000D03*
X141058000Y-91095000D03*
X141558000Y-91095000D03*
X142058000Y-91095000D03*
X142558000Y-91095000D03*
X143058000Y-91095000D03*
X143558000Y-91095000D03*
X144058000Y-91095000D03*
X144558000Y-91095000D03*
X145058000Y-91095000D03*
X145558000Y-91095000D03*
X146058000Y-91095000D03*
X146558000Y-91095000D03*
X147058000Y-91095000D03*
X147558000Y-91095000D03*
X148058000Y-91095000D03*
X148558000Y-91095000D03*
X149058000Y-91095000D03*
X149558000Y-91095000D03*
X150058000Y-91095000D03*
X150558000Y-91095000D03*
X151058000Y-91095000D03*
X151558000Y-91095000D03*
X152058000Y-91095000D03*
X152558000Y-91095000D03*
X153058000Y-91095000D03*
X153558000Y-91095000D03*
D16*
X155358000Y-89295000D03*
X155358000Y-88795000D03*
X155358000Y-88295000D03*
X155358000Y-87795000D03*
X155358000Y-87295000D03*
X155358000Y-86795000D03*
X155358000Y-86295000D03*
X155358000Y-85795000D03*
X155358000Y-85295000D03*
X155358000Y-84795000D03*
X155358000Y-84295000D03*
X155358000Y-83795000D03*
X155358000Y-83295000D03*
X155358000Y-82795000D03*
X155358000Y-82295000D03*
X155358000Y-81795000D03*
X155358000Y-81295000D03*
X155358000Y-80795000D03*
X155358000Y-80295000D03*
X155358000Y-79795000D03*
X155358000Y-79295000D03*
X155358000Y-78795000D03*
X155358000Y-78295000D03*
X155358000Y-77795000D03*
X155358000Y-77295000D03*
X155358000Y-76795000D03*
X155358000Y-76295000D03*
X155358000Y-75795000D03*
X155358000Y-75295000D03*
X155358000Y-74795000D03*
X155358000Y-74295000D03*
X155358000Y-73795000D03*
X155358000Y-73295000D03*
X155358000Y-72795000D03*
X155358000Y-72295000D03*
X155358000Y-71795000D03*
D17*
X138963200Y-96690560D03*
X150023200Y-117490560D03*
X150023200Y-116690560D03*
X150023200Y-115890560D03*
X150023200Y-115090560D03*
X150023200Y-114290560D03*
X150023200Y-113490560D03*
X150023200Y-112690560D03*
X150023200Y-111890560D03*
X150023200Y-111090560D03*
X150023200Y-110290560D03*
X150023200Y-109490560D03*
X150023200Y-108690560D03*
X150023200Y-107890560D03*
X150023200Y-107090560D03*
X150023200Y-106290560D03*
X150023200Y-105490560D03*
X150023200Y-104690560D03*
X150023200Y-103890560D03*
X150023200Y-103090560D03*
X150023200Y-102290560D03*
X150023200Y-101490560D03*
X150023200Y-100690560D03*
X150023200Y-99890560D03*
X150023200Y-99090560D03*
X150023200Y-98290560D03*
X150023200Y-97490560D03*
X150023200Y-96690560D03*
X138963200Y-97490560D03*
X138963200Y-98290560D03*
X138963200Y-99090560D03*
X138963200Y-99890560D03*
X138963200Y-100690560D03*
X138963200Y-101490560D03*
X138963200Y-102290560D03*
X138963200Y-103090560D03*
X138963200Y-103890560D03*
X138963200Y-104690560D03*
X138963200Y-105490560D03*
X138963200Y-106290560D03*
X138963200Y-107090560D03*
X138963200Y-107890560D03*
X138963200Y-108690560D03*
X138963200Y-109490560D03*
X138963200Y-110290560D03*
X138963200Y-111090560D03*
X138963200Y-111890560D03*
X138963200Y-112690560D03*
X138963200Y-113490560D03*
X138963200Y-114290560D03*
X138963200Y-115090560D03*
X138963200Y-115890560D03*
X138963200Y-116690560D03*
X138963200Y-117490560D03*
D18*
X131490000Y-91530000D03*
X131490000Y-90030000D03*
D19*
X133642200Y-108105400D03*
X132142200Y-108105400D03*
D18*
X155770000Y-59780000D03*
X155770000Y-61280000D03*
X159040000Y-59720000D03*
X159040000Y-61220000D03*
X160640000Y-59720000D03*
X160640000Y-61220000D03*
X168950000Y-59090000D03*
X168950000Y-57590000D03*
X126401000Y-85715000D03*
X126401000Y-87215000D03*
D19*
X159008000Y-83630000D03*
X157508000Y-83630000D03*
X131310000Y-81070000D03*
X129810000Y-81070000D03*
X159020000Y-82106000D03*
X157520000Y-82106000D03*
X131300000Y-79480000D03*
X129800000Y-79480000D03*
X152240000Y-68150000D03*
X153740000Y-68150000D03*
X150790000Y-68140000D03*
X149290000Y-68140000D03*
D18*
X134900000Y-67350000D03*
X134900000Y-65850000D03*
X136610000Y-67360000D03*
X136610000Y-65860000D03*
D19*
X131320000Y-76500000D03*
X129820000Y-76500000D03*
X131320000Y-77960000D03*
X129820000Y-77960000D03*
X131386000Y-84256000D03*
X129886000Y-84256000D03*
X131386000Y-82732000D03*
X129886000Y-82732000D03*
D18*
X140150000Y-93150000D03*
X140150000Y-94650000D03*
X141690000Y-93150000D03*
X141690000Y-94650000D03*
X158648400Y-94285500D03*
X158648400Y-92785500D03*
X150142000Y-93118000D03*
X150142000Y-94618000D03*
D19*
X157508000Y-86678000D03*
X159008000Y-86678000D03*
X157508000Y-85154000D03*
X159008000Y-85154000D03*
X157300000Y-77260000D03*
X158800000Y-77260000D03*
X157300000Y-78870000D03*
X158800000Y-78870000D03*
D18*
X140004800Y-67370000D03*
X140004800Y-65870000D03*
X138310000Y-67360000D03*
X138310000Y-65860000D03*
D19*
X131370000Y-71600000D03*
X129870000Y-71600000D03*
X131360000Y-73110000D03*
X129860000Y-73110000D03*
D18*
X147094000Y-93130000D03*
X147094000Y-94630000D03*
X145570000Y-93130000D03*
X145570000Y-94630000D03*
D19*
X157540000Y-89242000D03*
X159040000Y-89242000D03*
X157540000Y-90766000D03*
X159040000Y-90766000D03*
X151859200Y-117504560D03*
X153359200Y-117504560D03*
X151859200Y-107090560D03*
X153359200Y-107090560D03*
X151680000Y-96960000D03*
X153180000Y-96960000D03*
X151859200Y-115726560D03*
X153359200Y-115726560D03*
X151859200Y-110900560D03*
X153359200Y-110900560D03*
D18*
X137500000Y-108690000D03*
X137500000Y-110190000D03*
X137430000Y-113570000D03*
X137430000Y-115070000D03*
D20*
X115450200Y-55194200D03*
X116350200Y-55194200D03*
X115450200Y-56769000D03*
X116350200Y-56769000D03*
X115773700Y-50516400D03*
X114873700Y-50516400D03*
X115773700Y-48865400D03*
X114873700Y-48865400D03*
X115773700Y-47214400D03*
X114873700Y-47214400D03*
X115824500Y-45563400D03*
X114924500Y-45563400D03*
X131590000Y-85710000D03*
X130690000Y-85710000D03*
X158230000Y-80630000D03*
X157330000Y-80630000D03*
X125750000Y-81070000D03*
X126650000Y-81070000D03*
D21*
X156970000Y-51100000D03*
D22*
X156970000Y-57400000D03*
X159270000Y-57400000D03*
X154670000Y-57400000D03*
D23*
X122925200Y-108402400D03*
X122925200Y-109672400D03*
X122925200Y-110942400D03*
X122925200Y-112212400D03*
X130225200Y-112212400D03*
X130225200Y-110942400D03*
X130225200Y-109672400D03*
X130225200Y-108402400D03*
D21*
X164270000Y-51120000D03*
D22*
X164270000Y-57420000D03*
X166570000Y-57420000D03*
X161970000Y-57420000D03*
D24*
X120650000Y-51595000D03*
X120650000Y-46195000D03*
X126238000Y-51595000D03*
X126238000Y-46195000D03*
X131815840Y-51595000D03*
X131815840Y-46195000D03*
D25*
X127910000Y-60380000D03*
X127910000Y-61330000D03*
X127910000Y-62280000D03*
X130110000Y-62280000D03*
X130110000Y-60380000D03*
X130110000Y-61330000D03*
D26*
X123323000Y-99260400D03*
X123973000Y-99260400D03*
X124623000Y-99260400D03*
X125273000Y-99260400D03*
X125273000Y-93360400D03*
X124623000Y-93360400D03*
X123973000Y-93360400D03*
X123323000Y-93360400D03*
D27*
X111793100Y-50516400D03*
X113291700Y-50516400D03*
X111793100Y-48865400D03*
X113291700Y-48865400D03*
X111793100Y-47214400D03*
X113291700Y-47214400D03*
X111793100Y-45563400D03*
X113291700Y-45563400D03*
D19*
X123165000Y-90734400D03*
X124665000Y-90734400D03*
X131850000Y-61470000D03*
X133350000Y-61470000D03*
D20*
X132862200Y-109705400D03*
X131962200Y-109705400D03*
D28*
X125122200Y-114905400D03*
X125122200Y-114005400D03*
X126522200Y-114895400D03*
X126522200Y-113995400D03*
D20*
X132862200Y-111105400D03*
X131962200Y-111105400D03*
X127665000Y-93828400D03*
X126765000Y-93828400D03*
X127665000Y-95352400D03*
X126765000Y-95352400D03*
X122301000Y-54451000D03*
X123201000Y-54451000D03*
X128397000Y-54451000D03*
X129297000Y-54451000D03*
X123201000Y-55848000D03*
X122301000Y-55848000D03*
X129297000Y-55848000D03*
X128397000Y-55848000D03*
D28*
X131080000Y-98370000D03*
X131080000Y-99270000D03*
X127490000Y-98390000D03*
X127490000Y-99290000D03*
X131546600Y-117964800D03*
X131546600Y-118864800D03*
X135166100Y-117990200D03*
X135166100Y-118890200D03*
X129679700Y-117990200D03*
X129679700Y-118890200D03*
X133375400Y-117977500D03*
X133375400Y-118877500D03*
X133380000Y-54320000D03*
X133380000Y-55220000D03*
D19*
X122001000Y-57372000D03*
X123501000Y-57372000D03*
X128097000Y-57372000D03*
X129597000Y-57372000D03*
D29*
X155803600Y-92774400D03*
X155803600Y-94474400D03*
D30*
X127762500Y-87249300D03*
D10*
G36*
X127437500Y-87674300D02*
X127437500Y-86824300D01*
X128087500Y-86824300D01*
X128087500Y-87674300D01*
X127437500Y-87674300D01*
X127437500Y-87674300D01*
G37*
D31*
X129412500Y-87249300D03*
X129412500Y-85699300D03*
X127762500Y-85699300D03*
D32*
X109816900Y-61437300D03*
X112356900Y-61437300D03*
X112356900Y-52837300D03*
X109816900Y-52837300D03*
D28*
X124625100Y-102113500D03*
X124625100Y-101213500D03*
M02*
