G04 #@! TF.GenerationSoftware,KiCad,Pcbnew,(5.0.0-rc2-21-g8f5cb32)*
G04 #@! TF.CreationDate,2018-06-08T19:32:38-05:00*
G04 #@! TF.ProjectId,beagle-wire,626561676C652D776972652E6B696361,rev?*
G04 #@! TF.SameCoordinates,Original*
G04 #@! TF.FileFunction,Legend,Top*
G04 #@! TF.FilePolarity,Positive*
%FSLAX46Y46*%
G04 Gerber Fmt 4.6, Leading zero omitted, Abs format (unit mm)*
G04 Created by KiCad (PCBNEW (5.0.0-rc2-21-g8f5cb32)) date Fri Jun  8 19:32:38 2018*
%MOMM*%
%LPD*%
G01*
G04 APERTURE LIST*
%ADD10C,0.200000*%
%ADD11C,0.100000*%
%ADD12C,0.300000*%
%ADD13C,0.254000*%
%ADD14C,0.400000*%
%ADD15C,0.152400*%
%ADD16C,0.150000*%
%ADD17C,0.120000*%
G04 APERTURE END LIST*
D10*
X121302649Y-130461628D02*
X121350744Y-130317342D01*
X121350744Y-130076866D01*
X121302649Y-129980676D01*
X121254554Y-129932580D01*
X121158363Y-129884485D01*
X121062173Y-129884485D01*
X120965982Y-129932580D01*
X120917887Y-129980676D01*
X120869792Y-130076866D01*
X120821697Y-130269247D01*
X120773601Y-130365438D01*
X120725506Y-130413533D01*
X120629316Y-130461628D01*
X120533125Y-130461628D01*
X120436935Y-130413533D01*
X120388840Y-130365438D01*
X120340744Y-130269247D01*
X120340744Y-130028771D01*
X120388840Y-129884485D01*
X121350744Y-129451628D02*
X120340744Y-129451628D01*
X120340744Y-129211152D01*
X120388840Y-129066866D01*
X120485030Y-128970676D01*
X120581220Y-128922580D01*
X120773601Y-128874485D01*
X120917887Y-128874485D01*
X121110268Y-128922580D01*
X121206459Y-128970676D01*
X121302649Y-129066866D01*
X121350744Y-129211152D01*
X121350744Y-129451628D01*
X121062173Y-128489723D02*
X121062173Y-128008771D01*
X121350744Y-128585914D02*
X120340744Y-128249247D01*
X121350744Y-127912580D01*
X119260489Y-130315660D02*
X119308584Y-130171375D01*
X119308584Y-129930899D01*
X119260489Y-129834708D01*
X119212394Y-129786613D01*
X119116203Y-129738518D01*
X119020013Y-129738518D01*
X118923822Y-129786613D01*
X118875727Y-129834708D01*
X118827632Y-129930899D01*
X118779537Y-130123280D01*
X118731441Y-130219470D01*
X118683346Y-130267565D01*
X118587156Y-130315660D01*
X118490965Y-130315660D01*
X118394775Y-130267565D01*
X118346680Y-130219470D01*
X118298584Y-130123280D01*
X118298584Y-129882803D01*
X118346680Y-129738518D01*
X119212394Y-128728518D02*
X119260489Y-128776613D01*
X119308584Y-128920899D01*
X119308584Y-129017089D01*
X119260489Y-129161375D01*
X119164299Y-129257565D01*
X119068108Y-129305660D01*
X118875727Y-129353756D01*
X118731441Y-129353756D01*
X118539060Y-129305660D01*
X118442870Y-129257565D01*
X118346680Y-129161375D01*
X118298584Y-129017089D01*
X118298584Y-128920899D01*
X118346680Y-128776613D01*
X118394775Y-128728518D01*
X119308584Y-127814708D02*
X119308584Y-128295660D01*
X118298584Y-128295660D01*
X132366889Y-130356300D02*
X132414984Y-130212015D01*
X132414984Y-129971539D01*
X132366889Y-129875348D01*
X132318794Y-129827253D01*
X132222603Y-129779158D01*
X132126413Y-129779158D01*
X132030222Y-129827253D01*
X131982127Y-129875348D01*
X131934032Y-129971539D01*
X131885937Y-130163920D01*
X131837841Y-130260110D01*
X131789746Y-130308205D01*
X131693556Y-130356300D01*
X131597365Y-130356300D01*
X131501175Y-130308205D01*
X131453080Y-130260110D01*
X131404984Y-130163920D01*
X131404984Y-129923443D01*
X131453080Y-129779158D01*
X132318794Y-128769158D02*
X132366889Y-128817253D01*
X132414984Y-128961539D01*
X132414984Y-129057729D01*
X132366889Y-129202015D01*
X132270699Y-129298205D01*
X132174508Y-129346300D01*
X131982127Y-129394396D01*
X131837841Y-129394396D01*
X131645460Y-129346300D01*
X131549270Y-129298205D01*
X131453080Y-129202015D01*
X131404984Y-129057729D01*
X131404984Y-128961539D01*
X131453080Y-128817253D01*
X131501175Y-128769158D01*
X132414984Y-127855348D02*
X132414984Y-128336300D01*
X131404984Y-128336300D01*
X134297289Y-130420988D02*
X134345384Y-130276702D01*
X134345384Y-130036226D01*
X134297289Y-129940036D01*
X134249194Y-129891940D01*
X134153003Y-129843845D01*
X134056813Y-129843845D01*
X133960622Y-129891940D01*
X133912527Y-129940036D01*
X133864432Y-130036226D01*
X133816337Y-130228607D01*
X133768241Y-130324798D01*
X133720146Y-130372893D01*
X133623956Y-130420988D01*
X133527765Y-130420988D01*
X133431575Y-130372893D01*
X133383480Y-130324798D01*
X133335384Y-130228607D01*
X133335384Y-129988131D01*
X133383480Y-129843845D01*
X134345384Y-129410988D02*
X133335384Y-129410988D01*
X133335384Y-129170512D01*
X133383480Y-129026226D01*
X133479670Y-128930036D01*
X133575860Y-128881940D01*
X133768241Y-128833845D01*
X133912527Y-128833845D01*
X134104908Y-128881940D01*
X134201099Y-128930036D01*
X134297289Y-129026226D01*
X134345384Y-129170512D01*
X134345384Y-129410988D01*
X134056813Y-128449083D02*
X134056813Y-127968131D01*
X134345384Y-128545274D02*
X133335384Y-128208607D01*
X134345384Y-127871940D01*
X163873640Y-130207923D02*
X163825544Y-130304114D01*
X163825544Y-130448400D01*
X163873640Y-130592685D01*
X163969830Y-130688876D01*
X164066020Y-130736971D01*
X164258401Y-130785066D01*
X164402687Y-130785066D01*
X164595068Y-130736971D01*
X164691259Y-130688876D01*
X164787449Y-130592685D01*
X164835544Y-130448400D01*
X164835544Y-130352209D01*
X164787449Y-130207923D01*
X164739354Y-130159828D01*
X164402687Y-130159828D01*
X164402687Y-130352209D01*
X164835544Y-129726971D02*
X163825544Y-129726971D01*
X164835544Y-129149828D01*
X163825544Y-129149828D01*
X164835544Y-128668876D02*
X163825544Y-128668876D01*
X163825544Y-128428400D01*
X163873640Y-128284114D01*
X163969830Y-128187923D01*
X164066020Y-128139828D01*
X164258401Y-128091733D01*
X164402687Y-128091733D01*
X164595068Y-128139828D01*
X164691259Y-128187923D01*
X164787449Y-128284114D01*
X164835544Y-128428400D01*
X164835544Y-128668876D01*
X160553104Y-129492996D02*
X159543104Y-129492996D01*
X159543104Y-129252520D01*
X159591200Y-129108234D01*
X159687390Y-129012043D01*
X159783580Y-128963948D01*
X159975961Y-128915853D01*
X160120247Y-128915853D01*
X160312628Y-128963948D01*
X160408819Y-129012043D01*
X160505009Y-129108234D01*
X160553104Y-129252520D01*
X160553104Y-129492996D01*
X159543104Y-128579186D02*
X159543104Y-127953948D01*
X159927866Y-128290615D01*
X159927866Y-128146329D01*
X159975961Y-128050139D01*
X160024057Y-128002043D01*
X160120247Y-127953948D01*
X160360723Y-127953948D01*
X160456914Y-128002043D01*
X160505009Y-128050139D01*
X160553104Y-128146329D01*
X160553104Y-128434900D01*
X160505009Y-128531091D01*
X160456914Y-128579186D01*
X135260704Y-130490426D02*
X136270704Y-130153760D01*
X135260704Y-129817093D01*
X136174514Y-128903283D02*
X136222609Y-128951379D01*
X136270704Y-129095664D01*
X136270704Y-129191855D01*
X136222609Y-129336140D01*
X136126419Y-129432331D01*
X136030228Y-129480426D01*
X135837847Y-129528521D01*
X135693561Y-129528521D01*
X135501180Y-129480426D01*
X135404990Y-129432331D01*
X135308800Y-129336140D01*
X135260704Y-129191855D01*
X135260704Y-129095664D01*
X135308800Y-128951379D01*
X135356895Y-128903283D01*
X136174514Y-127893283D02*
X136222609Y-127941379D01*
X136270704Y-128085664D01*
X136270704Y-128181855D01*
X136222609Y-128326140D01*
X136126419Y-128422331D01*
X136030228Y-128470426D01*
X135837847Y-128518521D01*
X135693561Y-128518521D01*
X135501180Y-128470426D01*
X135404990Y-128422331D01*
X135308800Y-128326140D01*
X135260704Y-128181855D01*
X135260704Y-128085664D01*
X135308800Y-127941379D01*
X135356895Y-127893283D01*
X158536344Y-129487916D02*
X157526344Y-129487916D01*
X157526344Y-129247440D01*
X157574440Y-129103154D01*
X157670630Y-129006963D01*
X157766820Y-128958868D01*
X157959201Y-128910773D01*
X158103487Y-128910773D01*
X158295868Y-128958868D01*
X158392059Y-129006963D01*
X158488249Y-129103154D01*
X158536344Y-129247440D01*
X158536344Y-129487916D01*
X157622535Y-128526011D02*
X157574440Y-128477916D01*
X157526344Y-128381725D01*
X157526344Y-128141249D01*
X157574440Y-128045059D01*
X157622535Y-127996963D01*
X157718725Y-127948868D01*
X157814916Y-127948868D01*
X157959201Y-127996963D01*
X158536344Y-128574106D01*
X158536344Y-127948868D01*
X150569120Y-130050443D02*
X150521024Y-130146634D01*
X150521024Y-130290920D01*
X150569120Y-130435205D01*
X150665310Y-130531396D01*
X150761500Y-130579491D01*
X150953881Y-130627586D01*
X151098167Y-130627586D01*
X151290548Y-130579491D01*
X151386739Y-130531396D01*
X151482929Y-130435205D01*
X151531024Y-130290920D01*
X151531024Y-130194729D01*
X151482929Y-130050443D01*
X151434834Y-130002348D01*
X151098167Y-130002348D01*
X151098167Y-130194729D01*
X151531024Y-129569491D02*
X150521024Y-129569491D01*
X151531024Y-128992348D01*
X150521024Y-128992348D01*
X151531024Y-128511396D02*
X150521024Y-128511396D01*
X150521024Y-128270920D01*
X150569120Y-128126634D01*
X150665310Y-128030443D01*
X150761500Y-127982348D01*
X150953881Y-127934253D01*
X151098167Y-127934253D01*
X151290548Y-127982348D01*
X151386739Y-128030443D01*
X151482929Y-128126634D01*
X151531024Y-128270920D01*
X151531024Y-128511396D01*
X148417904Y-130551386D02*
X149427904Y-130214720D01*
X148417904Y-129878053D01*
X149331714Y-128964243D02*
X149379809Y-129012339D01*
X149427904Y-129156624D01*
X149427904Y-129252815D01*
X149379809Y-129397100D01*
X149283619Y-129493291D01*
X149187428Y-129541386D01*
X148995047Y-129589481D01*
X148850761Y-129589481D01*
X148658380Y-129541386D01*
X148562190Y-129493291D01*
X148466000Y-129397100D01*
X148417904Y-129252815D01*
X148417904Y-129156624D01*
X148466000Y-129012339D01*
X148514095Y-128964243D01*
X149331714Y-127954243D02*
X149379809Y-128002339D01*
X149427904Y-128146624D01*
X149427904Y-128242815D01*
X149379809Y-128387100D01*
X149283619Y-128483291D01*
X149187428Y-128531386D01*
X148995047Y-128579481D01*
X148850761Y-128579481D01*
X148658380Y-128531386D01*
X148562190Y-128483291D01*
X148466000Y-128387100D01*
X148417904Y-128242815D01*
X148417904Y-128146624D01*
X148466000Y-128002339D01*
X148514095Y-127954243D01*
X161600504Y-130607266D02*
X162610504Y-130270600D01*
X161600504Y-129933933D01*
X162514314Y-129020123D02*
X162562409Y-129068219D01*
X162610504Y-129212504D01*
X162610504Y-129308695D01*
X162562409Y-129452980D01*
X162466219Y-129549171D01*
X162370028Y-129597266D01*
X162177647Y-129645361D01*
X162033361Y-129645361D01*
X161840980Y-129597266D01*
X161744790Y-129549171D01*
X161648600Y-129452980D01*
X161600504Y-129308695D01*
X161600504Y-129212504D01*
X161648600Y-129068219D01*
X161696695Y-129020123D01*
X162514314Y-128010123D02*
X162562409Y-128058219D01*
X162610504Y-128202504D01*
X162610504Y-128298695D01*
X162562409Y-128442980D01*
X162466219Y-128539171D01*
X162370028Y-128587266D01*
X162177647Y-128635361D01*
X162033361Y-128635361D01*
X161840980Y-128587266D01*
X161744790Y-128539171D01*
X161648600Y-128442980D01*
X161600504Y-128298695D01*
X161600504Y-128202504D01*
X161648600Y-128058219D01*
X161696695Y-128010123D01*
X137437320Y-130019963D02*
X137389224Y-130116154D01*
X137389224Y-130260440D01*
X137437320Y-130404725D01*
X137533510Y-130500916D01*
X137629700Y-130549011D01*
X137822081Y-130597106D01*
X137966367Y-130597106D01*
X138158748Y-130549011D01*
X138254939Y-130500916D01*
X138351129Y-130404725D01*
X138399224Y-130260440D01*
X138399224Y-130164249D01*
X138351129Y-130019963D01*
X138303034Y-129971868D01*
X137966367Y-129971868D01*
X137966367Y-130164249D01*
X138399224Y-129539011D02*
X137389224Y-129539011D01*
X138399224Y-128961868D01*
X137389224Y-128961868D01*
X138399224Y-128480916D02*
X137389224Y-128480916D01*
X137389224Y-128240440D01*
X137437320Y-128096154D01*
X137533510Y-127999963D01*
X137629700Y-127951868D01*
X137822081Y-127903773D01*
X137966367Y-127903773D01*
X138158748Y-127951868D01*
X138254939Y-127999963D01*
X138351129Y-128096154D01*
X138399224Y-128240440D01*
X138399224Y-128480916D01*
X145511224Y-129498076D02*
X144501224Y-129498076D01*
X144501224Y-129257600D01*
X144549320Y-129113314D01*
X144645510Y-129017123D01*
X144741700Y-128969028D01*
X144934081Y-128920933D01*
X145078367Y-128920933D01*
X145270748Y-128969028D01*
X145366939Y-129017123D01*
X145463129Y-129113314D01*
X145511224Y-129257600D01*
X145511224Y-129498076D01*
X144501224Y-128295695D02*
X144501224Y-128199504D01*
X144549320Y-128103314D01*
X144597415Y-128055219D01*
X144693605Y-128007123D01*
X144885986Y-127959028D01*
X145126462Y-127959028D01*
X145318843Y-128007123D01*
X145415034Y-128055219D01*
X145463129Y-128103314D01*
X145511224Y-128199504D01*
X145511224Y-128295695D01*
X145463129Y-128391885D01*
X145415034Y-128439980D01*
X145318843Y-128488076D01*
X145126462Y-128536171D01*
X144885986Y-128536171D01*
X144693605Y-128488076D01*
X144597415Y-128439980D01*
X144549320Y-128391885D01*
X144501224Y-128295695D01*
X147416224Y-129508236D02*
X146406224Y-129508236D01*
X146406224Y-129267760D01*
X146454320Y-129123474D01*
X146550510Y-129027283D01*
X146646700Y-128979188D01*
X146839081Y-128931093D01*
X146983367Y-128931093D01*
X147175748Y-128979188D01*
X147271939Y-129027283D01*
X147368129Y-129123474D01*
X147416224Y-129267760D01*
X147416224Y-129508236D01*
X147416224Y-127969188D02*
X147416224Y-128546331D01*
X147416224Y-128257760D02*
X146406224Y-128257760D01*
X146550510Y-128353950D01*
X146646700Y-128450140D01*
X146694796Y-128546331D01*
X124361400Y-130065683D02*
X124313304Y-130161874D01*
X124313304Y-130306160D01*
X124361400Y-130450445D01*
X124457590Y-130546636D01*
X124553780Y-130594731D01*
X124746161Y-130642826D01*
X124890447Y-130642826D01*
X125082828Y-130594731D01*
X125179019Y-130546636D01*
X125275209Y-130450445D01*
X125323304Y-130306160D01*
X125323304Y-130209969D01*
X125275209Y-130065683D01*
X125227114Y-130017588D01*
X124890447Y-130017588D01*
X124890447Y-130209969D01*
X125323304Y-129584731D02*
X124313304Y-129584731D01*
X125323304Y-129007588D01*
X124313304Y-129007588D01*
X125323304Y-128526636D02*
X124313304Y-128526636D01*
X124313304Y-128286160D01*
X124361400Y-128141874D01*
X124457590Y-128045683D01*
X124553780Y-127997588D01*
X124746161Y-127949493D01*
X124890447Y-127949493D01*
X125082828Y-127997588D01*
X125179019Y-128045683D01*
X125275209Y-128141874D01*
X125323304Y-128286160D01*
X125323304Y-128526636D01*
X122398144Y-130581866D02*
X123408144Y-130245200D01*
X122398144Y-129908533D01*
X123311954Y-128994723D02*
X123360049Y-129042819D01*
X123408144Y-129187104D01*
X123408144Y-129283295D01*
X123360049Y-129427580D01*
X123263859Y-129523771D01*
X123167668Y-129571866D01*
X122975287Y-129619961D01*
X122831001Y-129619961D01*
X122638620Y-129571866D01*
X122542430Y-129523771D01*
X122446240Y-129427580D01*
X122398144Y-129283295D01*
X122398144Y-129187104D01*
X122446240Y-129042819D01*
X122494335Y-128994723D01*
X123311954Y-127984723D02*
X123360049Y-128032819D01*
X123408144Y-128177104D01*
X123408144Y-128273295D01*
X123360049Y-128417580D01*
X123263859Y-128513771D01*
X123167668Y-128561866D01*
X122975287Y-128609961D01*
X122831001Y-128609961D01*
X122638620Y-128561866D01*
X122542430Y-128513771D01*
X122446240Y-128417580D01*
X122398144Y-128273295D01*
X122398144Y-128177104D01*
X122446240Y-128032819D01*
X122494335Y-127984723D01*
D11*
X156636266Y-92747266D02*
X156636266Y-92047266D01*
X157036266Y-92747266D02*
X156736266Y-92347266D01*
X157036266Y-92047266D02*
X156636266Y-92447266D01*
D12*
X159573351Y-116594174D02*
X158573351Y-116594174D01*
X158073351Y-116594174D02*
X158144780Y-116665602D01*
X158216208Y-116594174D01*
X158144780Y-116522745D01*
X158073351Y-116594174D01*
X158216208Y-116594174D01*
X159430494Y-115022745D02*
X159501922Y-115094174D01*
X159573351Y-115308460D01*
X159573351Y-115451317D01*
X159501922Y-115665602D01*
X159359065Y-115808460D01*
X159216208Y-115879888D01*
X158930494Y-115951317D01*
X158716208Y-115951317D01*
X158430494Y-115879888D01*
X158287637Y-115808460D01*
X158144780Y-115665602D01*
X158073351Y-115451317D01*
X158073351Y-115308460D01*
X158144780Y-115094174D01*
X158216208Y-115022745D01*
X158787637Y-114379888D02*
X158787637Y-113879888D01*
X159573351Y-113665602D02*
X159573351Y-114379888D01*
X158073351Y-114379888D01*
X158073351Y-113665602D01*
X158573351Y-112379888D02*
X159573351Y-112379888D01*
X158001922Y-112737031D02*
X159073351Y-113094174D01*
X159073351Y-112165602D01*
X158073351Y-111308460D02*
X158073351Y-111165602D01*
X158144780Y-111022745D01*
X158216208Y-110951317D01*
X158359065Y-110879888D01*
X158644780Y-110808460D01*
X159001922Y-110808460D01*
X159287637Y-110879888D01*
X159430494Y-110951317D01*
X159501922Y-111022745D01*
X159573351Y-111165602D01*
X159573351Y-111308460D01*
X159501922Y-111451317D01*
X159430494Y-111522745D01*
X159287637Y-111594174D01*
X159001922Y-111665602D01*
X158644780Y-111665602D01*
X158359065Y-111594174D01*
X158216208Y-111522745D01*
X158144780Y-111451317D01*
X158073351Y-111308460D01*
X158787637Y-108522745D02*
X158787637Y-109022745D01*
X159573351Y-109022745D02*
X158073351Y-109022745D01*
X158073351Y-108308460D01*
X159573351Y-107737031D02*
X158073351Y-107737031D01*
X158073351Y-107165602D01*
X158144780Y-107022745D01*
X158216208Y-106951317D01*
X158359065Y-106879888D01*
X158573351Y-106879888D01*
X158716208Y-106951317D01*
X158787637Y-107022745D01*
X158859065Y-107165602D01*
X158859065Y-107737031D01*
X158144780Y-105451317D02*
X158073351Y-105594174D01*
X158073351Y-105808460D01*
X158144780Y-106022745D01*
X158287637Y-106165602D01*
X158430494Y-106237031D01*
X158716208Y-106308460D01*
X158930494Y-106308460D01*
X159216208Y-106237031D01*
X159359065Y-106165602D01*
X159501922Y-106022745D01*
X159573351Y-105808460D01*
X159573351Y-105665602D01*
X159501922Y-105451317D01*
X159430494Y-105379888D01*
X158930494Y-105379888D01*
X158930494Y-105665602D01*
X159144780Y-104808460D02*
X159144780Y-104094174D01*
X159573351Y-104951317D02*
X158073351Y-104451317D01*
X159573351Y-103951317D01*
X159430494Y-101451317D02*
X159501922Y-101522745D01*
X159573351Y-101737031D01*
X159573351Y-101879888D01*
X159501922Y-102094174D01*
X159359065Y-102237031D01*
X159216208Y-102308460D01*
X158930494Y-102379888D01*
X158716208Y-102379888D01*
X158430494Y-102308460D01*
X158287637Y-102237031D01*
X158144780Y-102094174D01*
X158073351Y-101879888D01*
X158073351Y-101737031D01*
X158144780Y-101522745D01*
X158216208Y-101451317D01*
X159573351Y-100165602D02*
X158787637Y-100165602D01*
X158644780Y-100237031D01*
X158573351Y-100379888D01*
X158573351Y-100665602D01*
X158644780Y-100808460D01*
X159501922Y-100165602D02*
X159573351Y-100308460D01*
X159573351Y-100665602D01*
X159501922Y-100808460D01*
X159359065Y-100879888D01*
X159216208Y-100879888D01*
X159073351Y-100808460D01*
X159001922Y-100665602D01*
X159001922Y-100308460D01*
X158930494Y-100165602D01*
X158573351Y-99451317D02*
X160073351Y-99451317D01*
X158644780Y-99451317D02*
X158573351Y-99308460D01*
X158573351Y-99022745D01*
X158644780Y-98879888D01*
X158716208Y-98808460D01*
X158859065Y-98737031D01*
X159287637Y-98737031D01*
X159430494Y-98808460D01*
X159501922Y-98879888D01*
X159573351Y-99022745D01*
X159573351Y-99308460D01*
X159501922Y-99451317D01*
X159501922Y-97522745D02*
X159573351Y-97665602D01*
X159573351Y-97951317D01*
X159501922Y-98094174D01*
X159359065Y-98165602D01*
X158787637Y-98165602D01*
X158644780Y-98094174D01*
X158573351Y-97951317D01*
X158573351Y-97665602D01*
X158644780Y-97522745D01*
X158787637Y-97451317D01*
X158930494Y-97451317D01*
X159073351Y-98165602D01*
D13*
X131168019Y-44701339D02*
X130829352Y-44217529D01*
X130587447Y-44701339D02*
X130587447Y-43685339D01*
X130974495Y-43685339D01*
X131071257Y-43733720D01*
X131119638Y-43782100D01*
X131168019Y-43878862D01*
X131168019Y-44024005D01*
X131119638Y-44120767D01*
X131071257Y-44169148D01*
X130974495Y-44217529D01*
X130587447Y-44217529D01*
X131555066Y-44652958D02*
X131700209Y-44701339D01*
X131942114Y-44701339D01*
X132038876Y-44652958D01*
X132087257Y-44604577D01*
X132135638Y-44507815D01*
X132135638Y-44411053D01*
X132087257Y-44314291D01*
X132038876Y-44265910D01*
X131942114Y-44217529D01*
X131748590Y-44169148D01*
X131651828Y-44120767D01*
X131603447Y-44072386D01*
X131555066Y-43975624D01*
X131555066Y-43878862D01*
X131603447Y-43782100D01*
X131651828Y-43733720D01*
X131748590Y-43685339D01*
X131990495Y-43685339D01*
X132135638Y-43733720D01*
X132425923Y-43685339D02*
X133006495Y-43685339D01*
X132716209Y-44701339D02*
X132716209Y-43685339D01*
X124578775Y-43665019D02*
X124578775Y-44487495D01*
X124627156Y-44584257D01*
X124675537Y-44632638D01*
X124772299Y-44681019D01*
X124965822Y-44681019D01*
X125062584Y-44632638D01*
X125110965Y-44584257D01*
X125159346Y-44487495D01*
X125159346Y-43665019D01*
X125594775Y-44632638D02*
X125739918Y-44681019D01*
X125981822Y-44681019D01*
X126078584Y-44632638D01*
X126126965Y-44584257D01*
X126175346Y-44487495D01*
X126175346Y-44390733D01*
X126126965Y-44293971D01*
X126078584Y-44245590D01*
X125981822Y-44197209D01*
X125788299Y-44148828D01*
X125691537Y-44100447D01*
X125643156Y-44052066D01*
X125594775Y-43955304D01*
X125594775Y-43858542D01*
X125643156Y-43761780D01*
X125691537Y-43713400D01*
X125788299Y-43665019D01*
X126030203Y-43665019D01*
X126175346Y-43713400D01*
X127191346Y-44681019D02*
X126852680Y-44197209D01*
X126610775Y-44681019D02*
X126610775Y-43665019D01*
X126997822Y-43665019D01*
X127094584Y-43713400D01*
X127142965Y-43761780D01*
X127191346Y-43858542D01*
X127191346Y-44003685D01*
X127142965Y-44100447D01*
X127094584Y-44148828D01*
X126997822Y-44197209D01*
X126610775Y-44197209D01*
X128158965Y-44681019D02*
X127578394Y-44681019D01*
X127868680Y-44681019D02*
X127868680Y-43665019D01*
X127771918Y-43810161D01*
X127675156Y-43906923D01*
X127578394Y-43955304D01*
X118757095Y-43639619D02*
X118757095Y-44462095D01*
X118805476Y-44558857D01*
X118853857Y-44607238D01*
X118950619Y-44655619D01*
X119144142Y-44655619D01*
X119240904Y-44607238D01*
X119289285Y-44558857D01*
X119337666Y-44462095D01*
X119337666Y-43639619D01*
X119773095Y-44607238D02*
X119918238Y-44655619D01*
X120160142Y-44655619D01*
X120256904Y-44607238D01*
X120305285Y-44558857D01*
X120353666Y-44462095D01*
X120353666Y-44365333D01*
X120305285Y-44268571D01*
X120256904Y-44220190D01*
X120160142Y-44171809D01*
X119966619Y-44123428D01*
X119869857Y-44075047D01*
X119821476Y-44026666D01*
X119773095Y-43929904D01*
X119773095Y-43833142D01*
X119821476Y-43736380D01*
X119869857Y-43688000D01*
X119966619Y-43639619D01*
X120208523Y-43639619D01*
X120353666Y-43688000D01*
X121369666Y-44655619D02*
X121031000Y-44171809D01*
X120789095Y-44655619D02*
X120789095Y-43639619D01*
X121176142Y-43639619D01*
X121272904Y-43688000D01*
X121321285Y-43736380D01*
X121369666Y-43833142D01*
X121369666Y-43978285D01*
X121321285Y-44075047D01*
X121272904Y-44123428D01*
X121176142Y-44171809D01*
X120789095Y-44171809D01*
X121998619Y-43639619D02*
X122095380Y-43639619D01*
X122192142Y-43688000D01*
X122240523Y-43736380D01*
X122288904Y-43833142D01*
X122337285Y-44026666D01*
X122337285Y-44268571D01*
X122288904Y-44462095D01*
X122240523Y-44558857D01*
X122192142Y-44607238D01*
X122095380Y-44655619D01*
X121998619Y-44655619D01*
X121901857Y-44607238D01*
X121853476Y-44558857D01*
X121805095Y-44462095D01*
X121756714Y-44268571D01*
X121756714Y-44026666D01*
X121805095Y-43833142D01*
X121853476Y-43736380D01*
X121901857Y-43688000D01*
X121998619Y-43639619D01*
D10*
X157638180Y-117075860D02*
X157638180Y-97305860D01*
D12*
X161488603Y-114927621D02*
X160883841Y-115350955D01*
X161488603Y-115653336D02*
X160218603Y-115653336D01*
X160218603Y-115169526D01*
X160279080Y-115048574D01*
X160339556Y-114988098D01*
X160460508Y-114927621D01*
X160641937Y-114927621D01*
X160762889Y-114988098D01*
X160823365Y-115048574D01*
X160883841Y-115169526D01*
X160883841Y-115653336D01*
X161428127Y-113899526D02*
X161488603Y-114020479D01*
X161488603Y-114262383D01*
X161428127Y-114383336D01*
X161307175Y-114443812D01*
X160823365Y-114443812D01*
X160702413Y-114383336D01*
X160641937Y-114262383D01*
X160641937Y-114020479D01*
X160702413Y-113899526D01*
X160823365Y-113839050D01*
X160944318Y-113839050D01*
X161065270Y-114443812D01*
X160641937Y-113415717D02*
X161488603Y-113113336D01*
X160641937Y-112810955D01*
X161367651Y-112327145D02*
X161428127Y-112266669D01*
X161488603Y-112327145D01*
X161428127Y-112387621D01*
X161367651Y-112327145D01*
X161488603Y-112327145D01*
X160339556Y-110815240D02*
X160279080Y-110754764D01*
X160218603Y-110633812D01*
X160218603Y-110331431D01*
X160279080Y-110210479D01*
X160339556Y-110150002D01*
X160460508Y-110089526D01*
X160581460Y-110089526D01*
X160762889Y-110150002D01*
X161488603Y-110875717D01*
X161488603Y-110089526D01*
X161367651Y-109545240D02*
X161428127Y-109484764D01*
X161488603Y-109545240D01*
X161428127Y-109605717D01*
X161367651Y-109545240D01*
X161488603Y-109545240D01*
X161488603Y-108275240D02*
X161488603Y-109000955D01*
X161488603Y-108638098D02*
X160218603Y-108638098D01*
X160400032Y-108759050D01*
X160520984Y-108880002D01*
X160581460Y-109000955D01*
X161004794Y-105795717D02*
X161004794Y-104828098D01*
X160339556Y-103316193D02*
X160279080Y-103255717D01*
X160218603Y-103134764D01*
X160218603Y-102832383D01*
X160279080Y-102711431D01*
X160339556Y-102650955D01*
X160460508Y-102590479D01*
X160581460Y-102590479D01*
X160762889Y-102650955D01*
X161488603Y-103376669D01*
X161488603Y-102590479D01*
X160218603Y-101804288D02*
X160218603Y-101683336D01*
X160279080Y-101562383D01*
X160339556Y-101501907D01*
X160460508Y-101441431D01*
X160702413Y-101380955D01*
X161004794Y-101380955D01*
X161246699Y-101441431D01*
X161367651Y-101501907D01*
X161428127Y-101562383D01*
X161488603Y-101683336D01*
X161488603Y-101804288D01*
X161428127Y-101925240D01*
X161367651Y-101985717D01*
X161246699Y-102046193D01*
X161004794Y-102106669D01*
X160702413Y-102106669D01*
X160460508Y-102046193D01*
X160339556Y-101985717D01*
X160279080Y-101925240D01*
X160218603Y-101804288D01*
X161488603Y-100171431D02*
X161488603Y-100897145D01*
X161488603Y-100534288D02*
X160218603Y-100534288D01*
X160400032Y-100655240D01*
X160520984Y-100776193D01*
X160581460Y-100897145D01*
X160762889Y-99445717D02*
X160702413Y-99566669D01*
X160641937Y-99627145D01*
X160520984Y-99687621D01*
X160460508Y-99687621D01*
X160339556Y-99627145D01*
X160279080Y-99566669D01*
X160218603Y-99445717D01*
X160218603Y-99203812D01*
X160279080Y-99082860D01*
X160339556Y-99022383D01*
X160460508Y-98961907D01*
X160520984Y-98961907D01*
X160641937Y-99022383D01*
X160702413Y-99082860D01*
X160762889Y-99203812D01*
X160762889Y-99445717D01*
X160823365Y-99566669D01*
X160883841Y-99627145D01*
X161004794Y-99687621D01*
X161246699Y-99687621D01*
X161367651Y-99627145D01*
X161428127Y-99566669D01*
X161488603Y-99445717D01*
X161488603Y-99203812D01*
X161428127Y-99082860D01*
X161367651Y-99022383D01*
X161246699Y-98961907D01*
X161004794Y-98961907D01*
X160883841Y-99022383D01*
X160823365Y-99082860D01*
X160762889Y-99203812D01*
D14*
X155515808Y-115706860D02*
X155634856Y-115349717D01*
X155753903Y-115230669D01*
X155991999Y-115111621D01*
X156349141Y-115111621D01*
X156587237Y-115230669D01*
X156706284Y-115349717D01*
X156825332Y-115587812D01*
X156825332Y-116540193D01*
X154325332Y-116540193D01*
X154325332Y-115706860D01*
X154444380Y-115468764D01*
X154563427Y-115349717D01*
X154801522Y-115230669D01*
X155039618Y-115230669D01*
X155277713Y-115349717D01*
X155396760Y-115468764D01*
X155515808Y-115706860D01*
X155515808Y-116540193D01*
X156706284Y-113087812D02*
X156825332Y-113325907D01*
X156825332Y-113802098D01*
X156706284Y-114040193D01*
X156468189Y-114159240D01*
X155515808Y-114159240D01*
X155277713Y-114040193D01*
X155158665Y-113802098D01*
X155158665Y-113325907D01*
X155277713Y-113087812D01*
X155515808Y-112968764D01*
X155753903Y-112968764D01*
X155991999Y-114159240D01*
X156825332Y-110825907D02*
X155515808Y-110825907D01*
X155277713Y-110944955D01*
X155158665Y-111183050D01*
X155158665Y-111659240D01*
X155277713Y-111897336D01*
X156706284Y-110825907D02*
X156825332Y-111064002D01*
X156825332Y-111659240D01*
X156706284Y-111897336D01*
X156468189Y-112016383D01*
X156230094Y-112016383D01*
X155991999Y-111897336D01*
X155872951Y-111659240D01*
X155872951Y-111064002D01*
X155753903Y-110825907D01*
X155158665Y-108564002D02*
X157182475Y-108564002D01*
X157420570Y-108683050D01*
X157539618Y-108802098D01*
X157658665Y-109040193D01*
X157658665Y-109397336D01*
X157539618Y-109635431D01*
X156706284Y-108564002D02*
X156825332Y-108802098D01*
X156825332Y-109278288D01*
X156706284Y-109516383D01*
X156587237Y-109635431D01*
X156349141Y-109754479D01*
X155634856Y-109754479D01*
X155396760Y-109635431D01*
X155277713Y-109516383D01*
X155158665Y-109278288D01*
X155158665Y-108802098D01*
X155277713Y-108564002D01*
X156825332Y-107016383D02*
X156706284Y-107254479D01*
X156468189Y-107373526D01*
X154325332Y-107373526D01*
X156706284Y-105111621D02*
X156825332Y-105349717D01*
X156825332Y-105825907D01*
X156706284Y-106064002D01*
X156468189Y-106183050D01*
X155515808Y-106183050D01*
X155277713Y-106064002D01*
X155158665Y-105825907D01*
X155158665Y-105349717D01*
X155277713Y-105111621D01*
X155515808Y-104992574D01*
X155753903Y-104992574D01*
X155991999Y-106183050D01*
X154325332Y-104159240D02*
X156825332Y-103564002D01*
X155039618Y-103087812D01*
X156825332Y-102611621D01*
X154325332Y-102016383D01*
X156825332Y-101064002D02*
X155158665Y-101064002D01*
X154325332Y-101064002D02*
X154444380Y-101183050D01*
X154563427Y-101064002D01*
X154444380Y-100944955D01*
X154325332Y-101064002D01*
X154563427Y-101064002D01*
X156825332Y-99873526D02*
X155158665Y-99873526D01*
X155634856Y-99873526D02*
X155396760Y-99754479D01*
X155277713Y-99635431D01*
X155158665Y-99397336D01*
X155158665Y-99159240D01*
X156706284Y-97373526D02*
X156825332Y-97611621D01*
X156825332Y-98087812D01*
X156706284Y-98325907D01*
X156468189Y-98444955D01*
X155515808Y-98444955D01*
X155277713Y-98325907D01*
X155158665Y-98087812D01*
X155158665Y-97611621D01*
X155277713Y-97373526D01*
X155515808Y-97254479D01*
X155753903Y-97254479D01*
X155991999Y-98444955D01*
D15*
G04 #@! TO.C,D3*
X113892400Y-48215400D02*
X113892400Y-49515400D01*
D16*
X112542400Y-48615400D02*
X112792400Y-48865400D01*
X112542400Y-49115400D02*
X112542400Y-48615400D01*
X112792400Y-48865400D02*
X112542400Y-49115400D01*
X112792400Y-49115400D02*
X112792400Y-48615400D01*
X112742400Y-48865400D02*
X112292400Y-48865400D01*
X113892400Y-49515400D02*
X111742400Y-49515400D01*
X113892400Y-48215400D02*
X111742400Y-48215400D01*
G04 #@! TO.C,D2*
X113892400Y-46564400D02*
X111742400Y-46564400D01*
X113892400Y-47864400D02*
X111742400Y-47864400D01*
X112742400Y-47214400D02*
X112292400Y-47214400D01*
X112792400Y-47464400D02*
X112792400Y-46964400D01*
X112792400Y-47214400D02*
X112542400Y-47464400D01*
X112542400Y-47464400D02*
X112542400Y-46964400D01*
X112542400Y-46964400D02*
X112792400Y-47214400D01*
D15*
X113892400Y-46564400D02*
X113892400Y-47864400D01*
G04 #@! TO.C,D1*
X113892400Y-44913400D02*
X113892400Y-46213400D01*
D16*
X112542400Y-45313400D02*
X112792400Y-45563400D01*
X112542400Y-45813400D02*
X112542400Y-45313400D01*
X112792400Y-45563400D02*
X112542400Y-45813400D01*
X112792400Y-45813400D02*
X112792400Y-45313400D01*
X112742400Y-45563400D02*
X112292400Y-45563400D01*
X113892400Y-46213400D02*
X111742400Y-46213400D01*
X113892400Y-44913400D02*
X111742400Y-44913400D01*
G04 #@! TO.C,D4*
X113892400Y-49866400D02*
X111742400Y-49866400D01*
X113892400Y-51166400D02*
X111742400Y-51166400D01*
X112742400Y-50516400D02*
X112292400Y-50516400D01*
X112792400Y-50766400D02*
X112792400Y-50266400D01*
X112792400Y-50516400D02*
X112542400Y-50766400D01*
X112542400Y-50766400D02*
X112542400Y-50266400D01*
X112542400Y-50266400D02*
X112792400Y-50516400D01*
D15*
X113892400Y-49866400D02*
X113892400Y-51166400D01*
G04 #@! TO.C,P8*
X163106100Y-119024400D02*
X163106100Y-119532400D01*
X168694100Y-119024400D02*
X168694100Y-119532400D01*
X168694100Y-116484400D02*
X168694100Y-117500400D01*
X163106100Y-116484400D02*
X163106100Y-117500400D01*
X163106100Y-113944400D02*
X163106100Y-114960400D01*
X168694100Y-113944400D02*
X168694100Y-114960400D01*
X168694100Y-111404400D02*
X168694100Y-112420400D01*
X163106100Y-111404400D02*
X163106100Y-112420400D01*
X168694100Y-108864400D02*
X168694100Y-109880400D01*
X163106100Y-108864400D02*
X163106100Y-109880400D01*
X163106100Y-106324400D02*
X163106100Y-107340400D01*
X168694100Y-106324400D02*
X168694100Y-107340400D01*
X163106100Y-103784400D02*
X163106100Y-104800400D01*
X168694100Y-103784400D02*
X168694100Y-104800400D01*
X168694100Y-101244400D02*
X168694100Y-102260400D01*
X163106100Y-101244400D02*
X163106100Y-102260400D01*
X168694100Y-98704400D02*
X168694100Y-99720400D01*
X163106100Y-98704400D02*
X163106100Y-99720400D01*
X163106100Y-96164400D02*
X163106100Y-97180400D01*
X168694100Y-96164400D02*
X168694100Y-97180400D01*
X163106100Y-93624400D02*
X163106100Y-94640400D01*
X168694100Y-93624400D02*
X168694100Y-94640400D01*
X168694100Y-91084400D02*
X168694100Y-92100400D01*
X163106100Y-91084400D02*
X163106100Y-92100400D01*
X163106100Y-88544400D02*
X163106100Y-89560400D01*
X168694100Y-88544400D02*
X168694100Y-89560400D01*
X168694100Y-86004400D02*
X168694100Y-87020400D01*
X163106100Y-86004400D02*
X163106100Y-87020400D01*
X163106100Y-83464400D02*
X163106100Y-84480400D01*
X168694100Y-83464400D02*
X168694100Y-84480400D01*
X168694100Y-80924400D02*
X168694100Y-81940400D01*
X163106100Y-80924400D02*
X163106100Y-81940400D01*
X163106100Y-78384400D02*
X163106100Y-79400400D01*
X168694100Y-78384400D02*
X168694100Y-79400400D01*
X168694100Y-75844400D02*
X168694100Y-76860400D01*
X163106100Y-75844400D02*
X163106100Y-76860400D01*
X168694100Y-73304400D02*
X168694100Y-74320400D01*
X163106100Y-73304400D02*
X163106100Y-74320400D01*
X168694100Y-70764400D02*
X168694100Y-71780400D01*
X163106100Y-70764400D02*
X163106100Y-71780400D01*
X163106100Y-68224400D02*
X163106100Y-69240400D01*
X168694100Y-68224400D02*
X168694100Y-69240400D01*
X168694100Y-65684400D02*
X168694100Y-66700400D01*
X163106100Y-65684400D02*
X163106100Y-66700400D01*
X168694100Y-63144400D02*
X168694100Y-64160400D01*
X163106100Y-63144400D02*
X163106100Y-64160400D01*
X168694100Y-61112400D02*
X168694100Y-61620400D01*
X163106100Y-61112400D02*
X168694100Y-61112400D01*
X163106100Y-61620400D02*
X162090100Y-61620400D01*
D16*
X163106100Y-61112400D02*
X163106100Y-61620400D01*
X168694100Y-119532400D02*
X163106100Y-119532400D01*
G04 #@! TO.C,P1*
X99177120Y-91567000D02*
X108007120Y-91567000D01*
X99177120Y-89027000D02*
X99177120Y-91567000D01*
X108007120Y-89027000D02*
X108007120Y-91567000D01*
X108007120Y-91567000D02*
X99177120Y-91567000D01*
X108007120Y-89027000D02*
X99177120Y-89027000D01*
X108007120Y-86487000D02*
X108007120Y-89027000D01*
X99177120Y-86487000D02*
X99177120Y-89027000D01*
X99177120Y-89027000D02*
X108007120Y-89027000D01*
X99177120Y-86487000D02*
X108007120Y-86487000D01*
X99177120Y-83947000D02*
X99177120Y-86487000D01*
X108007120Y-83947000D02*
X108007120Y-86487000D01*
X108007120Y-86487000D02*
X99177120Y-86487000D01*
X108007120Y-83947000D02*
X99177120Y-83947000D01*
X108007120Y-81407000D02*
X108007120Y-83947000D01*
X99177120Y-81407000D02*
X99177120Y-83947000D01*
X99177120Y-83947000D02*
X108007120Y-83947000D01*
X99177120Y-81407000D02*
X108007120Y-81407000D01*
X99177120Y-78867000D02*
X99177120Y-81407000D01*
X108007120Y-78867000D02*
X108007120Y-81407000D01*
X108007120Y-81407000D02*
X99177120Y-81407000D01*
X108007120Y-78867000D02*
X99177120Y-78867000D01*
X108007120Y-76327000D02*
X108007120Y-78867000D01*
X112967120Y-77597000D02*
X112967120Y-76047000D01*
X112967120Y-76047000D02*
X111817120Y-76047000D01*
X108007120Y-76327000D02*
X99177120Y-76327000D01*
X99177120Y-76327000D02*
X99177120Y-78867000D01*
X99177120Y-78867000D02*
X108007120Y-78867000D01*
D15*
G04 #@! TO.C,P9*
X114846100Y-119024400D02*
X114846100Y-119532400D01*
X120434100Y-119024400D02*
X120434100Y-119532400D01*
X120434100Y-116484400D02*
X120434100Y-117500400D01*
X114846100Y-116484400D02*
X114846100Y-117500400D01*
X114846100Y-113944400D02*
X114846100Y-114960400D01*
X120434100Y-113944400D02*
X120434100Y-114960400D01*
X120434100Y-111404400D02*
X120434100Y-112420400D01*
X114846100Y-111404400D02*
X114846100Y-112420400D01*
X120434100Y-108864400D02*
X120434100Y-109880400D01*
X114846100Y-108864400D02*
X114846100Y-109880400D01*
X114846100Y-106324400D02*
X114846100Y-107340400D01*
X120434100Y-106324400D02*
X120434100Y-107340400D01*
X114846100Y-103784400D02*
X114846100Y-104800400D01*
X120434100Y-103784400D02*
X120434100Y-104800400D01*
X120434100Y-101244400D02*
X120434100Y-102260400D01*
X114846100Y-101244400D02*
X114846100Y-102260400D01*
X120434100Y-98704400D02*
X120434100Y-99720400D01*
X114846100Y-98704400D02*
X114846100Y-99720400D01*
X114846100Y-96164400D02*
X114846100Y-97180400D01*
X120434100Y-96164400D02*
X120434100Y-97180400D01*
X114846100Y-93624400D02*
X114846100Y-94640400D01*
X120434100Y-93624400D02*
X120434100Y-94640400D01*
X120434100Y-91084400D02*
X120434100Y-92100400D01*
X114846100Y-91084400D02*
X114846100Y-92100400D01*
X114846100Y-88544400D02*
X114846100Y-89560400D01*
X120434100Y-88544400D02*
X120434100Y-89560400D01*
X120434100Y-86004400D02*
X120434100Y-87020400D01*
X114846100Y-86004400D02*
X114846100Y-87020400D01*
X114846100Y-83464400D02*
X114846100Y-84480400D01*
X120434100Y-83464400D02*
X120434100Y-84480400D01*
X120434100Y-80924400D02*
X120434100Y-81940400D01*
X114846100Y-80924400D02*
X114846100Y-81940400D01*
X114846100Y-78384400D02*
X114846100Y-79400400D01*
X120434100Y-78384400D02*
X120434100Y-79400400D01*
X120434100Y-75844400D02*
X120434100Y-76860400D01*
X114846100Y-75844400D02*
X114846100Y-76860400D01*
X120434100Y-73304400D02*
X120434100Y-74320400D01*
X114846100Y-73304400D02*
X114846100Y-74320400D01*
X120434100Y-70764400D02*
X120434100Y-71780400D01*
X114846100Y-70764400D02*
X114846100Y-71780400D01*
X114846100Y-68224400D02*
X114846100Y-69240400D01*
X120434100Y-68224400D02*
X120434100Y-69240400D01*
X120434100Y-65684400D02*
X120434100Y-66700400D01*
X114846100Y-65684400D02*
X114846100Y-66700400D01*
X120434100Y-63144400D02*
X120434100Y-64160400D01*
X114846100Y-63144400D02*
X114846100Y-64160400D01*
X120434100Y-61112400D02*
X120434100Y-61620400D01*
X114846100Y-61112400D02*
X120434100Y-61112400D01*
X114846100Y-61620400D02*
X113830100Y-61620400D01*
D16*
X114846100Y-61112400D02*
X114846100Y-61620400D01*
X120434100Y-119532400D02*
X114846100Y-119532400D01*
G04 #@! TO.C,P3*
X184358820Y-99187000D02*
X175528820Y-99187000D01*
X184358820Y-101727000D02*
X184358820Y-99187000D01*
X175528820Y-101727000D02*
X175528820Y-99187000D01*
X175528820Y-99187000D02*
X184358820Y-99187000D01*
X175528820Y-101727000D02*
X184358820Y-101727000D01*
X175528820Y-104267000D02*
X175528820Y-101727000D01*
X184358820Y-104267000D02*
X184358820Y-101727000D01*
X184358820Y-101727000D02*
X175528820Y-101727000D01*
X184358820Y-104267000D02*
X175528820Y-104267000D01*
X184358820Y-106807000D02*
X184358820Y-104267000D01*
X175528820Y-106807000D02*
X175528820Y-104267000D01*
X175528820Y-104267000D02*
X184358820Y-104267000D01*
X175528820Y-106807000D02*
X184358820Y-106807000D01*
X175528820Y-109347000D02*
X175528820Y-106807000D01*
X184358820Y-109347000D02*
X184358820Y-106807000D01*
X184358820Y-106807000D02*
X175528820Y-106807000D01*
X184358820Y-109347000D02*
X175528820Y-109347000D01*
X184358820Y-111887000D02*
X184358820Y-109347000D01*
X175528820Y-111887000D02*
X175528820Y-109347000D01*
X175528820Y-109347000D02*
X184358820Y-109347000D01*
X175528820Y-111887000D02*
X184358820Y-111887000D01*
X175528820Y-114427000D02*
X175528820Y-111887000D01*
X170568820Y-113157000D02*
X170568820Y-114707000D01*
X170568820Y-114707000D02*
X171718820Y-114707000D01*
X175528820Y-114427000D02*
X184358820Y-114427000D01*
X184358820Y-114427000D02*
X184358820Y-111887000D01*
X184358820Y-111887000D02*
X175528820Y-111887000D01*
G04 #@! TO.C,U1*
X154983000Y-70370000D02*
X153908000Y-70370000D01*
X154983000Y-90720000D02*
X153908000Y-90720000D01*
X134633000Y-90720000D02*
X135708000Y-90720000D01*
X134633000Y-70370000D02*
X135708000Y-70370000D01*
X154983000Y-70370000D02*
X154983000Y-71445000D01*
X134633000Y-70370000D02*
X134633000Y-71445000D01*
X134633000Y-90720000D02*
X134633000Y-89645000D01*
X154983000Y-90720000D02*
X154983000Y-89645000D01*
X153908000Y-70370000D02*
X153908000Y-69270000D01*
G04 #@! TO.C,U6*
X149573200Y-95990560D02*
X149573200Y-96190560D01*
X139413200Y-95990560D02*
X139413200Y-96190560D01*
X148993200Y-117340560D02*
G75*
G03X148993200Y-117340560I-250000J0D01*
G01*
X149573200Y-117990560D02*
X150393200Y-117990560D01*
X149573200Y-118190560D02*
X149573200Y-117990560D01*
X139413200Y-118190560D02*
X139413200Y-117990560D01*
X139413200Y-95980560D02*
X149573200Y-95980560D01*
X149573200Y-118200560D02*
X139413200Y-118200560D01*
G04 #@! TO.C,C36*
X130890000Y-91130000D02*
X130890000Y-90430000D01*
X132090000Y-90430000D02*
X132090000Y-91130000D01*
G04 #@! TO.C,C40*
X133242200Y-108705400D02*
X132542200Y-108705400D01*
X132542200Y-107505400D02*
X133242200Y-107505400D01*
G04 #@! TO.C,C5*
X156370000Y-60180000D02*
X156370000Y-60880000D01*
X155170000Y-60880000D02*
X155170000Y-60180000D01*
G04 #@! TO.C,C10*
X159640000Y-60120000D02*
X159640000Y-60820000D01*
X158440000Y-60820000D02*
X158440000Y-60120000D01*
G04 #@! TO.C,C12*
X161240000Y-60120000D02*
X161240000Y-60820000D01*
X160040000Y-60820000D02*
X160040000Y-60120000D01*
G04 #@! TO.C,C18*
X168350000Y-58690000D02*
X168350000Y-57990000D01*
X169550000Y-57990000D02*
X169550000Y-58690000D01*
G04 #@! TO.C,C21*
X127001000Y-86115000D02*
X127001000Y-86815000D01*
X125801000Y-86815000D02*
X125801000Y-86115000D01*
G04 #@! TO.C,C1*
X158608000Y-84230000D02*
X157908000Y-84230000D01*
X157908000Y-83030000D02*
X158608000Y-83030000D01*
G04 #@! TO.C,C2*
X130910000Y-81670000D02*
X130210000Y-81670000D01*
X130210000Y-80470000D02*
X130910000Y-80470000D01*
G04 #@! TO.C,C3*
X158620000Y-82706000D02*
X157920000Y-82706000D01*
X157920000Y-81506000D02*
X158620000Y-81506000D01*
G04 #@! TO.C,C4*
X130900000Y-80080000D02*
X130200000Y-80080000D01*
X130200000Y-78880000D02*
X130900000Y-78880000D01*
G04 #@! TO.C,C6*
X152640000Y-67550000D02*
X153340000Y-67550000D01*
X153340000Y-68750000D02*
X152640000Y-68750000D01*
G04 #@! TO.C,C7*
X150390000Y-68740000D02*
X149690000Y-68740000D01*
X149690000Y-67540000D02*
X150390000Y-67540000D01*
G04 #@! TO.C,C8*
X134300000Y-66950000D02*
X134300000Y-66250000D01*
X135500000Y-66250000D02*
X135500000Y-66950000D01*
G04 #@! TO.C,C9*
X136010000Y-66960000D02*
X136010000Y-66260000D01*
X137210000Y-66260000D02*
X137210000Y-66960000D01*
G04 #@! TO.C,C11*
X130920000Y-77100000D02*
X130220000Y-77100000D01*
X130220000Y-75900000D02*
X130920000Y-75900000D01*
G04 #@! TO.C,C13*
X130920000Y-78560000D02*
X130220000Y-78560000D01*
X130220000Y-77360000D02*
X130920000Y-77360000D01*
G04 #@! TO.C,C14*
X130986000Y-84856000D02*
X130286000Y-84856000D01*
X130286000Y-83656000D02*
X130986000Y-83656000D01*
G04 #@! TO.C,C15*
X130986000Y-83332000D02*
X130286000Y-83332000D01*
X130286000Y-82132000D02*
X130986000Y-82132000D01*
G04 #@! TO.C,C16*
X140750000Y-93550000D02*
X140750000Y-94250000D01*
X139550000Y-94250000D02*
X139550000Y-93550000D01*
G04 #@! TO.C,C17*
X142290000Y-93550000D02*
X142290000Y-94250000D01*
X141090000Y-94250000D02*
X141090000Y-93550000D01*
G04 #@! TO.C,C19*
X158048400Y-93885500D02*
X158048400Y-93185500D01*
X159248400Y-93185500D02*
X159248400Y-93885500D01*
G04 #@! TO.C,C20*
X150742000Y-93518000D02*
X150742000Y-94218000D01*
X149542000Y-94218000D02*
X149542000Y-93518000D01*
G04 #@! TO.C,C22*
X157908000Y-86078000D02*
X158608000Y-86078000D01*
X158608000Y-87278000D02*
X157908000Y-87278000D01*
G04 #@! TO.C,C23*
X157908000Y-84554000D02*
X158608000Y-84554000D01*
X158608000Y-85754000D02*
X157908000Y-85754000D01*
G04 #@! TO.C,C24*
X157700000Y-76660000D02*
X158400000Y-76660000D01*
X158400000Y-77860000D02*
X157700000Y-77860000D01*
G04 #@! TO.C,C25*
X157700000Y-78270000D02*
X158400000Y-78270000D01*
X158400000Y-79470000D02*
X157700000Y-79470000D01*
G04 #@! TO.C,C26*
X139404800Y-66970000D02*
X139404800Y-66270000D01*
X140604800Y-66270000D02*
X140604800Y-66970000D01*
G04 #@! TO.C,C27*
X137710000Y-66960000D02*
X137710000Y-66260000D01*
X138910000Y-66260000D02*
X138910000Y-66960000D01*
G04 #@! TO.C,C28*
X130970000Y-72200000D02*
X130270000Y-72200000D01*
X130270000Y-71000000D02*
X130970000Y-71000000D01*
G04 #@! TO.C,C30*
X130960000Y-73710000D02*
X130260000Y-73710000D01*
X130260000Y-72510000D02*
X130960000Y-72510000D01*
G04 #@! TO.C,C31*
X147694000Y-93530000D02*
X147694000Y-94230000D01*
X146494000Y-94230000D02*
X146494000Y-93530000D01*
G04 #@! TO.C,C32*
X146170000Y-93530000D02*
X146170000Y-94230000D01*
X144970000Y-94230000D02*
X144970000Y-93530000D01*
G04 #@! TO.C,C33*
X157940000Y-88642000D02*
X158640000Y-88642000D01*
X158640000Y-89842000D02*
X157940000Y-89842000D01*
G04 #@! TO.C,C34*
X157940000Y-90166000D02*
X158640000Y-90166000D01*
X158640000Y-91366000D02*
X157940000Y-91366000D01*
G04 #@! TO.C,C35*
X152259200Y-116904560D02*
X152959200Y-116904560D01*
X152959200Y-118104560D02*
X152259200Y-118104560D01*
G04 #@! TO.C,C37*
X152259200Y-106490560D02*
X152959200Y-106490560D01*
X152959200Y-107690560D02*
X152259200Y-107690560D01*
G04 #@! TO.C,C38*
X152080000Y-96360000D02*
X152780000Y-96360000D01*
X152780000Y-97560000D02*
X152080000Y-97560000D01*
G04 #@! TO.C,C39*
X152259200Y-115126560D02*
X152959200Y-115126560D01*
X152959200Y-116326560D02*
X152259200Y-116326560D01*
G04 #@! TO.C,C41*
X152259200Y-110300560D02*
X152959200Y-110300560D01*
X152959200Y-111500560D02*
X152259200Y-111500560D01*
G04 #@! TO.C,C42*
X138100000Y-109090000D02*
X138100000Y-109790000D01*
X136900000Y-109790000D02*
X136900000Y-109090000D01*
G04 #@! TO.C,C43*
X138030000Y-113970000D02*
X138030000Y-114670000D01*
X136830000Y-114670000D02*
X136830000Y-113970000D01*
G04 #@! TO.C,R21*
X116150200Y-54669200D02*
X115650200Y-54669200D01*
X115650200Y-55719200D02*
X116150200Y-55719200D01*
G04 #@! TO.C,R22*
X116150200Y-56244000D02*
X115650200Y-56244000D01*
X115650200Y-57294000D02*
X116150200Y-57294000D01*
G04 #@! TO.C,R4*
X115073700Y-51041400D02*
X115573700Y-51041400D01*
X115573700Y-49991400D02*
X115073700Y-49991400D01*
G04 #@! TO.C,R5*
X115073700Y-49390400D02*
X115573700Y-49390400D01*
X115573700Y-48340400D02*
X115073700Y-48340400D01*
G04 #@! TO.C,R6*
X115073700Y-47739400D02*
X115573700Y-47739400D01*
X115573700Y-46689400D02*
X115073700Y-46689400D01*
G04 #@! TO.C,R7*
X115124500Y-46088400D02*
X115624500Y-46088400D01*
X115624500Y-45038400D02*
X115124500Y-45038400D01*
G04 #@! TO.C,R10*
X130890000Y-86235000D02*
X131390000Y-86235000D01*
X131390000Y-85185000D02*
X130890000Y-85185000D01*
G04 #@! TO.C,R1*
X157530000Y-81155000D02*
X158030000Y-81155000D01*
X158030000Y-80105000D02*
X157530000Y-80105000D01*
G04 #@! TO.C,R2*
X126450000Y-80545000D02*
X125950000Y-80545000D01*
X125950000Y-81595000D02*
X126450000Y-81595000D01*
D17*
G04 #@! TO.C,U2*
X160380000Y-52340000D02*
X159120000Y-52340000D01*
X153560000Y-52340000D02*
X154820000Y-52340000D01*
X160380000Y-56100000D02*
X160380000Y-52340000D01*
X153560000Y-58350000D02*
X153560000Y-52340000D01*
D16*
G04 #@! TO.C,U5*
X123825200Y-107552400D02*
X123825200Y-107852400D01*
X129325200Y-107552400D02*
X129325200Y-107852400D01*
X129325200Y-113062400D02*
X129325200Y-112762400D01*
X123825200Y-113062400D02*
X123825200Y-112762400D01*
X123825200Y-107552400D02*
X129325200Y-107552400D01*
X123825200Y-113062400D02*
X129325200Y-113062400D01*
X123825200Y-107852400D02*
X122075200Y-107852400D01*
D17*
G04 #@! TO.C,U3*
X167680000Y-52360000D02*
X166420000Y-52360000D01*
X160860000Y-52360000D02*
X162120000Y-52360000D01*
X167680000Y-56120000D02*
X167680000Y-52360000D01*
X160860000Y-58370000D02*
X160860000Y-52360000D01*
D16*
G04 #@! TO.C,SW1*
X121350000Y-47495000D02*
X121350000Y-50295000D01*
X121350000Y-50295000D02*
X119950000Y-50295000D01*
X119950000Y-50295000D02*
X119950000Y-47495000D01*
X119950000Y-47495000D02*
X121350000Y-47495000D01*
X122400000Y-51895000D02*
X121750000Y-51895000D01*
X118900000Y-51895000D02*
X119550000Y-51895000D01*
X119550000Y-45895000D02*
X118900000Y-45895000D01*
X122400000Y-45895000D02*
X121750000Y-45895000D01*
X122400000Y-51895000D02*
X122400000Y-45895000D01*
X118900000Y-45895000D02*
X118900000Y-51895000D01*
G04 #@! TO.C,SW2*
X126938000Y-47495000D02*
X126938000Y-50295000D01*
X126938000Y-50295000D02*
X125538000Y-50295000D01*
X125538000Y-50295000D02*
X125538000Y-47495000D01*
X125538000Y-47495000D02*
X126938000Y-47495000D01*
X127988000Y-51895000D02*
X127338000Y-51895000D01*
X124488000Y-51895000D02*
X125138000Y-51895000D01*
X125138000Y-45895000D02*
X124488000Y-45895000D01*
X127988000Y-45895000D02*
X127338000Y-45895000D01*
X127988000Y-51895000D02*
X127988000Y-45895000D01*
X124488000Y-45895000D02*
X124488000Y-51895000D01*
G04 #@! TO.C,SW3*
X132515840Y-47495000D02*
X132515840Y-50295000D01*
X132515840Y-50295000D02*
X131115840Y-50295000D01*
X131115840Y-50295000D02*
X131115840Y-47495000D01*
X131115840Y-47495000D02*
X132515840Y-47495000D01*
X133565840Y-51895000D02*
X132915840Y-51895000D01*
X130065840Y-51895000D02*
X130715840Y-51895000D01*
X130715840Y-45895000D02*
X130065840Y-45895000D01*
X133565840Y-45895000D02*
X132915840Y-45895000D01*
X133565840Y-51895000D02*
X133565840Y-45895000D01*
X130065840Y-45895000D02*
X130065840Y-51895000D01*
G04 #@! TO.C,U7*
X128710000Y-59630000D02*
G75*
G03X128710000Y-59630000I-100000J0D01*
G01*
X129260000Y-59880000D02*
X128760000Y-59880000D01*
X129260000Y-62780000D02*
X129260000Y-59880000D01*
X128760000Y-62780000D02*
X129260000Y-62780000D01*
X128760000Y-59880000D02*
X128760000Y-62780000D01*
G04 #@! TO.C,U4*
X122673000Y-98635400D02*
X122873000Y-98635400D01*
X122673000Y-93985400D02*
X122873000Y-93985400D01*
X125923000Y-93985400D02*
X125723000Y-93985400D01*
X125923000Y-98635400D02*
X125723000Y-98635400D01*
X122673000Y-98635400D02*
X122673000Y-93985400D01*
X125923000Y-98635400D02*
X125923000Y-93985400D01*
X122873000Y-98635400D02*
X122873000Y-99985400D01*
G04 #@! TO.C,JP1*
X128560000Y-105750000D02*
X127010000Y-105750000D01*
X127010000Y-104200000D02*
X127010000Y-105750000D01*
X129830000Y-105470000D02*
X129830000Y-102930000D01*
X127290000Y-100390000D02*
X127290000Y-102930000D01*
X127290000Y-102930000D02*
X129830000Y-102930000D01*
X129830000Y-102930000D02*
X129830000Y-100390000D01*
X129830000Y-100390000D02*
X127290000Y-100390000D01*
G04 #@! TO.C,JP2*
X132190000Y-105750000D02*
X130640000Y-105750000D01*
X130640000Y-104200000D02*
X130640000Y-105750000D01*
X133460000Y-105470000D02*
X133460000Y-102930000D01*
X130920000Y-100390000D02*
X130920000Y-102930000D01*
X130920000Y-102930000D02*
X133460000Y-102930000D01*
X133460000Y-102930000D02*
X133460000Y-100390000D01*
X133460000Y-100390000D02*
X130920000Y-100390000D01*
G04 #@! TO.C,P2*
X99177120Y-114427000D02*
X108007120Y-114427000D01*
X99177120Y-111887000D02*
X99177120Y-114427000D01*
X108007120Y-111887000D02*
X108007120Y-114427000D01*
X108007120Y-114427000D02*
X99177120Y-114427000D01*
X108007120Y-111887000D02*
X99177120Y-111887000D01*
X108007120Y-109347000D02*
X108007120Y-111887000D01*
X99177120Y-109347000D02*
X99177120Y-111887000D01*
X99177120Y-111887000D02*
X108007120Y-111887000D01*
X99177120Y-109347000D02*
X108007120Y-109347000D01*
X99177120Y-106807000D02*
X99177120Y-109347000D01*
X108007120Y-106807000D02*
X108007120Y-109347000D01*
X108007120Y-109347000D02*
X99177120Y-109347000D01*
X108007120Y-106807000D02*
X99177120Y-106807000D01*
X108007120Y-104267000D02*
X108007120Y-106807000D01*
X99177120Y-104267000D02*
X99177120Y-106807000D01*
X99177120Y-106807000D02*
X108007120Y-106807000D01*
X99177120Y-104267000D02*
X108007120Y-104267000D01*
X99177120Y-101727000D02*
X99177120Y-104267000D01*
X108007120Y-101727000D02*
X108007120Y-104267000D01*
X108007120Y-104267000D02*
X99177120Y-104267000D01*
X108007120Y-101727000D02*
X99177120Y-101727000D01*
X108007120Y-99187000D02*
X108007120Y-101727000D01*
X112967120Y-100457000D02*
X112967120Y-98907000D01*
X112967120Y-98907000D02*
X111817120Y-98907000D01*
X108007120Y-99187000D02*
X99177120Y-99187000D01*
X99177120Y-99187000D02*
X99177120Y-101727000D01*
X99177120Y-101727000D02*
X108007120Y-101727000D01*
G04 #@! TO.C,C29*
X123565000Y-90134400D02*
X124265000Y-90134400D01*
X124265000Y-91334400D02*
X123565000Y-91334400D01*
G04 #@! TO.C,C46*
X132250000Y-60870000D02*
X132950000Y-60870000D01*
X132950000Y-62070000D02*
X132250000Y-62070000D01*
G04 #@! TO.C,R11*
X132162200Y-110230400D02*
X132662200Y-110230400D01*
X132662200Y-109180400D02*
X132162200Y-109180400D01*
G04 #@! TO.C,R12*
X124597200Y-114205400D02*
X124597200Y-114705400D01*
X125647200Y-114705400D02*
X125647200Y-114205400D01*
G04 #@! TO.C,R13*
X125997200Y-114195400D02*
X125997200Y-114695400D01*
X127047200Y-114695400D02*
X127047200Y-114195400D01*
G04 #@! TO.C,R14*
X132162200Y-111630400D02*
X132662200Y-111630400D01*
X132662200Y-110580400D02*
X132162200Y-110580400D01*
G04 #@! TO.C,R15*
X126965000Y-94353400D02*
X127465000Y-94353400D01*
X127465000Y-93303400D02*
X126965000Y-93303400D01*
G04 #@! TO.C,R16*
X126965000Y-95877400D02*
X127465000Y-95877400D01*
X127465000Y-94827400D02*
X126965000Y-94827400D01*
G04 #@! TO.C,R17*
X123001000Y-53926000D02*
X122501000Y-53926000D01*
X122501000Y-54976000D02*
X123001000Y-54976000D01*
G04 #@! TO.C,R18*
X129097000Y-53926000D02*
X128597000Y-53926000D01*
X128597000Y-54976000D02*
X129097000Y-54976000D01*
G04 #@! TO.C,R19*
X122501000Y-56373000D02*
X123001000Y-56373000D01*
X123001000Y-55323000D02*
X122501000Y-55323000D01*
G04 #@! TO.C,R20*
X128597000Y-56373000D02*
X129097000Y-56373000D01*
X129097000Y-55323000D02*
X128597000Y-55323000D01*
G04 #@! TO.C,R8*
X131605000Y-99070000D02*
X131605000Y-98570000D01*
X130555000Y-98570000D02*
X130555000Y-99070000D01*
G04 #@! TO.C,R9*
X128015000Y-99090000D02*
X128015000Y-98590000D01*
X126965000Y-98590000D02*
X126965000Y-99090000D01*
G04 #@! TO.C,R23*
X132071600Y-118664800D02*
X132071600Y-118164800D01*
X131021600Y-118164800D02*
X131021600Y-118664800D01*
G04 #@! TO.C,R24*
X135691100Y-118690200D02*
X135691100Y-118190200D01*
X134641100Y-118190200D02*
X134641100Y-118690200D01*
G04 #@! TO.C,R25*
X130204700Y-118690200D02*
X130204700Y-118190200D01*
X129154700Y-118190200D02*
X129154700Y-118690200D01*
G04 #@! TO.C,R26*
X133900400Y-118677500D02*
X133900400Y-118177500D01*
X132850400Y-118177500D02*
X132850400Y-118677500D01*
G04 #@! TO.C,R3*
X133905000Y-55020000D02*
X133905000Y-54520000D01*
X132855000Y-54520000D02*
X132855000Y-55020000D01*
G04 #@! TO.C,C44*
X122401000Y-56772000D02*
X123101000Y-56772000D01*
X123101000Y-57972000D02*
X122401000Y-57972000D01*
G04 #@! TO.C,C45*
X128497000Y-56772000D02*
X129197000Y-56772000D01*
X129197000Y-57972000D02*
X128497000Y-57972000D01*
G04 #@! TO.C,D5*
X155203600Y-92524400D02*
X155203600Y-94324400D01*
X156403600Y-92524400D02*
X156403600Y-94324400D01*
G04 #@! TO.C,P4*
X184358820Y-76327000D02*
X175528820Y-76327000D01*
X184358820Y-78867000D02*
X184358820Y-76327000D01*
X175528820Y-78867000D02*
X175528820Y-76327000D01*
X175528820Y-76327000D02*
X184358820Y-76327000D01*
X175528820Y-78867000D02*
X184358820Y-78867000D01*
X175528820Y-81407000D02*
X175528820Y-78867000D01*
X184358820Y-81407000D02*
X184358820Y-78867000D01*
X184358820Y-78867000D02*
X175528820Y-78867000D01*
X184358820Y-81407000D02*
X175528820Y-81407000D01*
X184358820Y-83947000D02*
X184358820Y-81407000D01*
X175528820Y-83947000D02*
X175528820Y-81407000D01*
X175528820Y-81407000D02*
X184358820Y-81407000D01*
X175528820Y-83947000D02*
X184358820Y-83947000D01*
X175528820Y-86487000D02*
X175528820Y-83947000D01*
X184358820Y-86487000D02*
X184358820Y-83947000D01*
X184358820Y-83947000D02*
X175528820Y-83947000D01*
X184358820Y-86487000D02*
X175528820Y-86487000D01*
X184358820Y-89027000D02*
X184358820Y-86487000D01*
X175528820Y-89027000D02*
X175528820Y-86487000D01*
X175528820Y-86487000D02*
X184358820Y-86487000D01*
X175528820Y-89027000D02*
X184358820Y-89027000D01*
X175528820Y-91567000D02*
X175528820Y-89027000D01*
X170568820Y-90297000D02*
X170568820Y-91847000D01*
X170568820Y-91847000D02*
X171718820Y-91847000D01*
X175528820Y-91567000D02*
X184358820Y-91567000D01*
X184358820Y-91567000D02*
X184358820Y-89027000D01*
X184358820Y-89027000D02*
X175528820Y-89027000D01*
G04 #@! TO.C,Y1*
X128193800Y-87452200D02*
X128193800Y-86766400D01*
X128193800Y-86766400D02*
X128193800Y-86728300D01*
X128193800Y-86728300D02*
X127381000Y-86728300D01*
X127381000Y-86728300D02*
X127406400Y-86728300D01*
X129787500Y-87474300D02*
X129787500Y-85474300D01*
X129787500Y-85474300D02*
X127387500Y-85474300D01*
X127387500Y-85474300D02*
X127387500Y-87474300D01*
X127387500Y-87474300D02*
X129787500Y-87474300D01*
G04 #@! TO.C,SW4*
X114486900Y-53787300D02*
X114486900Y-60487300D01*
X114486900Y-60487300D02*
X107786900Y-60487300D01*
X107686900Y-60487300D02*
X107686900Y-53787300D01*
X107686900Y-53787300D02*
X114486900Y-53787300D01*
D17*
G04 #@! TO.C,R27*
X124095100Y-101413500D02*
X124095100Y-101913500D01*
X125155100Y-101913500D02*
X125155100Y-101413500D01*
D16*
G04 #@! TO.C,GR1*
X118087100Y-127499400D02*
X118087100Y-126546900D01*
X118087100Y-126546900D02*
X119471400Y-126546900D01*
X119471400Y-126546900D02*
X119471400Y-127397800D01*
X124094200Y-127486700D02*
X124094200Y-126483400D01*
X124094200Y-126483400D02*
X125542000Y-126483400D01*
X125542000Y-126483400D02*
X125542000Y-127423200D01*
X116652000Y-127520000D02*
X126812000Y-127520000D01*
X116652000Y-122440000D02*
X126812000Y-122440000D01*
X116652000Y-127520000D02*
X116652000Y-122440000D01*
X126812000Y-127520000D02*
X126812000Y-122440000D01*
G04 #@! TO.C,GR2*
X131168100Y-127499400D02*
X131168100Y-126546900D01*
X131168100Y-126546900D02*
X132552400Y-126546900D01*
X132552400Y-126546900D02*
X132552400Y-127397800D01*
X137175200Y-127486700D02*
X137175200Y-126483400D01*
X137175200Y-126483400D02*
X138623000Y-126483400D01*
X138623000Y-126483400D02*
X138623000Y-127423200D01*
X129733000Y-127520000D02*
X139893000Y-127520000D01*
X129733000Y-122440000D02*
X139893000Y-122440000D01*
X129733000Y-127520000D02*
X129733000Y-122440000D01*
X139893000Y-127520000D02*
X139893000Y-122440000D01*
G04 #@! TO.C,GR3*
X144249100Y-127499400D02*
X144249100Y-126546900D01*
X144249100Y-126546900D02*
X145633400Y-126546900D01*
X145633400Y-126546900D02*
X145633400Y-127397800D01*
X150256200Y-127486700D02*
X150256200Y-126483400D01*
X150256200Y-126483400D02*
X151704000Y-126483400D01*
X151704000Y-126483400D02*
X151704000Y-127423200D01*
X142814000Y-127520000D02*
X152974000Y-127520000D01*
X142814000Y-122440000D02*
X152974000Y-122440000D01*
X142814000Y-127520000D02*
X142814000Y-122440000D01*
X152974000Y-127520000D02*
X152974000Y-122440000D01*
G04 #@! TO.C,GR4*
X157330100Y-127499400D02*
X157330100Y-126546900D01*
X157330100Y-126546900D02*
X158714400Y-126546900D01*
X158714400Y-126546900D02*
X158714400Y-127397800D01*
X163337200Y-127486700D02*
X163337200Y-126483400D01*
X163337200Y-126483400D02*
X164785000Y-126483400D01*
X164785000Y-126483400D02*
X164785000Y-127423200D01*
X155895000Y-127520000D02*
X166055000Y-127520000D01*
X155895000Y-122440000D02*
X166055000Y-122440000D01*
X155895000Y-127520000D02*
X155895000Y-122440000D01*
X166055000Y-127520000D02*
X166055000Y-122440000D01*
G04 #@! TO.C,D3*
X109109771Y-49156774D02*
X109109771Y-48394774D01*
X109291200Y-48394774D01*
X109400057Y-48431060D01*
X109472628Y-48503631D01*
X109508914Y-48576202D01*
X109545200Y-48721345D01*
X109545200Y-48830202D01*
X109508914Y-48975345D01*
X109472628Y-49047917D01*
X109400057Y-49120488D01*
X109291200Y-49156774D01*
X109109771Y-49156774D01*
X109799200Y-48394774D02*
X110270914Y-48394774D01*
X110016914Y-48685060D01*
X110125771Y-48685060D01*
X110198342Y-48721345D01*
X110234628Y-48757631D01*
X110270914Y-48830202D01*
X110270914Y-49011631D01*
X110234628Y-49084202D01*
X110198342Y-49120488D01*
X110125771Y-49156774D01*
X109908057Y-49156774D01*
X109835485Y-49120488D01*
X109799200Y-49084202D01*
G04 #@! TO.C,D2*
X109109771Y-47505774D02*
X109109771Y-46743774D01*
X109291200Y-46743774D01*
X109400057Y-46780060D01*
X109472628Y-46852631D01*
X109508914Y-46925202D01*
X109545200Y-47070345D01*
X109545200Y-47179202D01*
X109508914Y-47324345D01*
X109472628Y-47396917D01*
X109400057Y-47469488D01*
X109291200Y-47505774D01*
X109109771Y-47505774D01*
X109835485Y-46816345D02*
X109871771Y-46780060D01*
X109944342Y-46743774D01*
X110125771Y-46743774D01*
X110198342Y-46780060D01*
X110234628Y-46816345D01*
X110270914Y-46888917D01*
X110270914Y-46961488D01*
X110234628Y-47070345D01*
X109799200Y-47505774D01*
X110270914Y-47505774D01*
G04 #@! TO.C,D1*
X109109771Y-45854774D02*
X109109771Y-45092774D01*
X109291200Y-45092774D01*
X109400057Y-45129060D01*
X109472628Y-45201631D01*
X109508914Y-45274202D01*
X109545200Y-45419345D01*
X109545200Y-45528202D01*
X109508914Y-45673345D01*
X109472628Y-45745917D01*
X109400057Y-45818488D01*
X109291200Y-45854774D01*
X109109771Y-45854774D01*
X110270914Y-45854774D02*
X109835485Y-45854774D01*
X110053200Y-45854774D02*
X110053200Y-45092774D01*
X109980628Y-45201631D01*
X109908057Y-45274202D01*
X109835485Y-45310488D01*
G04 #@! TO.C,D4*
X109109771Y-50807774D02*
X109109771Y-50045774D01*
X109291200Y-50045774D01*
X109400057Y-50082060D01*
X109472628Y-50154631D01*
X109508914Y-50227202D01*
X109545200Y-50372345D01*
X109545200Y-50481202D01*
X109508914Y-50626345D01*
X109472628Y-50698917D01*
X109400057Y-50771488D01*
X109291200Y-50807774D01*
X109109771Y-50807774D01*
X110198342Y-50299774D02*
X110198342Y-50807774D01*
X110016914Y-50009488D02*
X109835485Y-50553774D01*
X110307200Y-50553774D01*
G04 #@! TO.C,P8*
X165350371Y-60695114D02*
X165350371Y-59933114D01*
X165640657Y-59933114D01*
X165713228Y-59969400D01*
X165749514Y-60005685D01*
X165785800Y-60078257D01*
X165785800Y-60187114D01*
X165749514Y-60259685D01*
X165713228Y-60295971D01*
X165640657Y-60332257D01*
X165350371Y-60332257D01*
X166221228Y-60259685D02*
X166148657Y-60223400D01*
X166112371Y-60187114D01*
X166076085Y-60114542D01*
X166076085Y-60078257D01*
X166112371Y-60005685D01*
X166148657Y-59969400D01*
X166221228Y-59933114D01*
X166366371Y-59933114D01*
X166438942Y-59969400D01*
X166475228Y-60005685D01*
X166511514Y-60078257D01*
X166511514Y-60114542D01*
X166475228Y-60187114D01*
X166438942Y-60223400D01*
X166366371Y-60259685D01*
X166221228Y-60259685D01*
X166148657Y-60295971D01*
X166112371Y-60332257D01*
X166076085Y-60404828D01*
X166076085Y-60549971D01*
X166112371Y-60622542D01*
X166148657Y-60658828D01*
X166221228Y-60695114D01*
X166366371Y-60695114D01*
X166438942Y-60658828D01*
X166475228Y-60622542D01*
X166511514Y-60549971D01*
X166511514Y-60404828D01*
X166475228Y-60332257D01*
X166438942Y-60295971D01*
X166366371Y-60259685D01*
G04 #@! TO.C,P1*
X112111034Y-75355268D02*
X111349034Y-75355268D01*
X111349034Y-75064982D01*
X111385320Y-74992411D01*
X111421605Y-74956125D01*
X111494177Y-74919840D01*
X111603034Y-74919840D01*
X111675605Y-74956125D01*
X111711891Y-74992411D01*
X111748177Y-75064982D01*
X111748177Y-75355268D01*
X112111034Y-74194125D02*
X112111034Y-74629554D01*
X112111034Y-74411840D02*
X111349034Y-74411840D01*
X111457891Y-74484411D01*
X111530462Y-74556982D01*
X111566748Y-74629554D01*
G04 #@! TO.C,P9*
X117064971Y-60441114D02*
X117064971Y-59679114D01*
X117355257Y-59679114D01*
X117427828Y-59715400D01*
X117464114Y-59751685D01*
X117500400Y-59824257D01*
X117500400Y-59933114D01*
X117464114Y-60005685D01*
X117427828Y-60041971D01*
X117355257Y-60078257D01*
X117064971Y-60078257D01*
X117863257Y-60441114D02*
X118008400Y-60441114D01*
X118080971Y-60404828D01*
X118117257Y-60368542D01*
X118189828Y-60259685D01*
X118226114Y-60114542D01*
X118226114Y-59824257D01*
X118189828Y-59751685D01*
X118153542Y-59715400D01*
X118080971Y-59679114D01*
X117935828Y-59679114D01*
X117863257Y-59715400D01*
X117826971Y-59751685D01*
X117790685Y-59824257D01*
X117790685Y-60005685D01*
X117826971Y-60078257D01*
X117863257Y-60114542D01*
X117935828Y-60150828D01*
X118080971Y-60150828D01*
X118153542Y-60114542D01*
X118189828Y-60078257D01*
X118226114Y-60005685D01*
G04 #@! TO.C,P3*
X172391614Y-116950308D02*
X171629614Y-116950308D01*
X171629614Y-116660022D01*
X171665900Y-116587451D01*
X171702185Y-116551165D01*
X171774757Y-116514880D01*
X171883614Y-116514880D01*
X171956185Y-116551165D01*
X171992471Y-116587451D01*
X172028757Y-116660022D01*
X172028757Y-116950308D01*
X171629614Y-116260880D02*
X171629614Y-115789165D01*
X171919900Y-116043165D01*
X171919900Y-115934308D01*
X171956185Y-115861737D01*
X171992471Y-115825451D01*
X172065042Y-115789165D01*
X172246471Y-115789165D01*
X172319042Y-115825451D01*
X172355328Y-115861737D01*
X172391614Y-115934308D01*
X172391614Y-116152022D01*
X172355328Y-116224594D01*
X172319042Y-116260880D01*
G04 #@! TO.C,U1*
X155403428Y-69332714D02*
X155403428Y-69949571D01*
X155439714Y-70022142D01*
X155476000Y-70058428D01*
X155548571Y-70094714D01*
X155693714Y-70094714D01*
X155766285Y-70058428D01*
X155802571Y-70022142D01*
X155838857Y-69949571D01*
X155838857Y-69332714D01*
X156600857Y-70094714D02*
X156165428Y-70094714D01*
X156383142Y-70094714D02*
X156383142Y-69332714D01*
X156310571Y-69441571D01*
X156238000Y-69514142D01*
X156165428Y-69550428D01*
G04 #@! TO.C,U6*
X148230628Y-118611274D02*
X148230628Y-119228131D01*
X148266914Y-119300702D01*
X148303200Y-119336988D01*
X148375771Y-119373274D01*
X148520914Y-119373274D01*
X148593485Y-119336988D01*
X148629771Y-119300702D01*
X148666057Y-119228131D01*
X148666057Y-118611274D01*
X149355485Y-118611274D02*
X149210342Y-118611274D01*
X149137771Y-118647560D01*
X149101485Y-118683845D01*
X149028914Y-118792702D01*
X148992628Y-118937845D01*
X148992628Y-119228131D01*
X149028914Y-119300702D01*
X149065200Y-119336988D01*
X149137771Y-119373274D01*
X149282914Y-119373274D01*
X149355485Y-119336988D01*
X149391771Y-119300702D01*
X149428057Y-119228131D01*
X149428057Y-119046702D01*
X149391771Y-118974131D01*
X149355485Y-118937845D01*
X149282914Y-118901560D01*
X149137771Y-118901560D01*
X149065200Y-118937845D01*
X149028914Y-118974131D01*
X148992628Y-119046702D01*
G04 #@! TO.C,C36*
X130422142Y-91339857D02*
X130458428Y-91376142D01*
X130494714Y-91485000D01*
X130494714Y-91557571D01*
X130458428Y-91666428D01*
X130385857Y-91739000D01*
X130313285Y-91775285D01*
X130168142Y-91811571D01*
X130059285Y-91811571D01*
X129914142Y-91775285D01*
X129841571Y-91739000D01*
X129769000Y-91666428D01*
X129732714Y-91557571D01*
X129732714Y-91485000D01*
X129769000Y-91376142D01*
X129805285Y-91339857D01*
X129732714Y-91085857D02*
X129732714Y-90614142D01*
X130023000Y-90868142D01*
X130023000Y-90759285D01*
X130059285Y-90686714D01*
X130095571Y-90650428D01*
X130168142Y-90614142D01*
X130349571Y-90614142D01*
X130422142Y-90650428D01*
X130458428Y-90686714D01*
X130494714Y-90759285D01*
X130494714Y-90977000D01*
X130458428Y-91049571D01*
X130422142Y-91085857D01*
X129732714Y-89961000D02*
X129732714Y-90106142D01*
X129769000Y-90178714D01*
X129805285Y-90215000D01*
X129914142Y-90287571D01*
X130059285Y-90323857D01*
X130349571Y-90323857D01*
X130422142Y-90287571D01*
X130458428Y-90251285D01*
X130494714Y-90178714D01*
X130494714Y-90033571D01*
X130458428Y-89961000D01*
X130422142Y-89924714D01*
X130349571Y-89888428D01*
X130168142Y-89888428D01*
X130095571Y-89924714D01*
X130059285Y-89961000D01*
X130023000Y-90033571D01*
X130023000Y-90178714D01*
X130059285Y-90251285D01*
X130095571Y-90287571D01*
X130168142Y-90323857D01*
G04 #@! TO.C,C40*
X132302342Y-107057542D02*
X132266057Y-107093828D01*
X132157200Y-107130114D01*
X132084628Y-107130114D01*
X131975771Y-107093828D01*
X131903200Y-107021257D01*
X131866914Y-106948685D01*
X131830628Y-106803542D01*
X131830628Y-106694685D01*
X131866914Y-106549542D01*
X131903200Y-106476971D01*
X131975771Y-106404400D01*
X132084628Y-106368114D01*
X132157200Y-106368114D01*
X132266057Y-106404400D01*
X132302342Y-106440685D01*
X132955485Y-106622114D02*
X132955485Y-107130114D01*
X132774057Y-106331828D02*
X132592628Y-106876114D01*
X133064342Y-106876114D01*
X133499771Y-106368114D02*
X133572342Y-106368114D01*
X133644914Y-106404400D01*
X133681200Y-106440685D01*
X133717485Y-106513257D01*
X133753771Y-106658400D01*
X133753771Y-106839828D01*
X133717485Y-106984971D01*
X133681200Y-107057542D01*
X133644914Y-107093828D01*
X133572342Y-107130114D01*
X133499771Y-107130114D01*
X133427200Y-107093828D01*
X133390914Y-107057542D01*
X133354628Y-106984971D01*
X133318342Y-106839828D01*
X133318342Y-106658400D01*
X133354628Y-106513257D01*
X133390914Y-106440685D01*
X133427200Y-106404400D01*
X133499771Y-106368114D01*
G04 #@! TO.C,C5*
X156151942Y-63246000D02*
X156188228Y-63282285D01*
X156224514Y-63391142D01*
X156224514Y-63463714D01*
X156188228Y-63572571D01*
X156115657Y-63645142D01*
X156043085Y-63681428D01*
X155897942Y-63717714D01*
X155789085Y-63717714D01*
X155643942Y-63681428D01*
X155571371Y-63645142D01*
X155498800Y-63572571D01*
X155462514Y-63463714D01*
X155462514Y-63391142D01*
X155498800Y-63282285D01*
X155535085Y-63246000D01*
X155462514Y-62556571D02*
X155462514Y-62919428D01*
X155825371Y-62955714D01*
X155789085Y-62919428D01*
X155752800Y-62846857D01*
X155752800Y-62665428D01*
X155789085Y-62592857D01*
X155825371Y-62556571D01*
X155897942Y-62520285D01*
X156079371Y-62520285D01*
X156151942Y-62556571D01*
X156188228Y-62592857D01*
X156224514Y-62665428D01*
X156224514Y-62846857D01*
X156188228Y-62919428D01*
X156151942Y-62955714D01*
G04 #@! TO.C,C10*
X159301542Y-63812057D02*
X159337828Y-63848342D01*
X159374114Y-63957200D01*
X159374114Y-64029771D01*
X159337828Y-64138628D01*
X159265257Y-64211200D01*
X159192685Y-64247485D01*
X159047542Y-64283771D01*
X158938685Y-64283771D01*
X158793542Y-64247485D01*
X158720971Y-64211200D01*
X158648400Y-64138628D01*
X158612114Y-64029771D01*
X158612114Y-63957200D01*
X158648400Y-63848342D01*
X158684685Y-63812057D01*
X159374114Y-63086342D02*
X159374114Y-63521771D01*
X159374114Y-63304057D02*
X158612114Y-63304057D01*
X158720971Y-63376628D01*
X158793542Y-63449200D01*
X158829828Y-63521771D01*
X158612114Y-62614628D02*
X158612114Y-62542057D01*
X158648400Y-62469485D01*
X158684685Y-62433200D01*
X158757257Y-62396914D01*
X158902400Y-62360628D01*
X159083828Y-62360628D01*
X159228971Y-62396914D01*
X159301542Y-62433200D01*
X159337828Y-62469485D01*
X159374114Y-62542057D01*
X159374114Y-62614628D01*
X159337828Y-62687200D01*
X159301542Y-62723485D01*
X159228971Y-62759771D01*
X159083828Y-62796057D01*
X158902400Y-62796057D01*
X158757257Y-62759771D01*
X158684685Y-62723485D01*
X158648400Y-62687200D01*
X158612114Y-62614628D01*
G04 #@! TO.C,C12*
X160952542Y-63939057D02*
X160988828Y-63975342D01*
X161025114Y-64084200D01*
X161025114Y-64156771D01*
X160988828Y-64265628D01*
X160916257Y-64338200D01*
X160843685Y-64374485D01*
X160698542Y-64410771D01*
X160589685Y-64410771D01*
X160444542Y-64374485D01*
X160371971Y-64338200D01*
X160299400Y-64265628D01*
X160263114Y-64156771D01*
X160263114Y-64084200D01*
X160299400Y-63975342D01*
X160335685Y-63939057D01*
X161025114Y-63213342D02*
X161025114Y-63648771D01*
X161025114Y-63431057D02*
X160263114Y-63431057D01*
X160371971Y-63503628D01*
X160444542Y-63576200D01*
X160480828Y-63648771D01*
X160335685Y-62923057D02*
X160299400Y-62886771D01*
X160263114Y-62814200D01*
X160263114Y-62632771D01*
X160299400Y-62560200D01*
X160335685Y-62523914D01*
X160408257Y-62487628D01*
X160480828Y-62487628D01*
X160589685Y-62523914D01*
X161025114Y-62959342D01*
X161025114Y-62487628D01*
G04 #@! TO.C,C18*
X170732142Y-58989857D02*
X170768428Y-59026142D01*
X170804714Y-59135000D01*
X170804714Y-59207571D01*
X170768428Y-59316428D01*
X170695857Y-59389000D01*
X170623285Y-59425285D01*
X170478142Y-59461571D01*
X170369285Y-59461571D01*
X170224142Y-59425285D01*
X170151571Y-59389000D01*
X170079000Y-59316428D01*
X170042714Y-59207571D01*
X170042714Y-59135000D01*
X170079000Y-59026142D01*
X170115285Y-58989857D01*
X170804714Y-58264142D02*
X170804714Y-58699571D01*
X170804714Y-58481857D02*
X170042714Y-58481857D01*
X170151571Y-58554428D01*
X170224142Y-58627000D01*
X170260428Y-58699571D01*
X170369285Y-57828714D02*
X170333000Y-57901285D01*
X170296714Y-57937571D01*
X170224142Y-57973857D01*
X170187857Y-57973857D01*
X170115285Y-57937571D01*
X170079000Y-57901285D01*
X170042714Y-57828714D01*
X170042714Y-57683571D01*
X170079000Y-57611000D01*
X170115285Y-57574714D01*
X170187857Y-57538428D01*
X170224142Y-57538428D01*
X170296714Y-57574714D01*
X170333000Y-57611000D01*
X170369285Y-57683571D01*
X170369285Y-57828714D01*
X170405571Y-57901285D01*
X170441857Y-57937571D01*
X170514428Y-57973857D01*
X170659571Y-57973857D01*
X170732142Y-57937571D01*
X170768428Y-57901285D01*
X170804714Y-57828714D01*
X170804714Y-57683571D01*
X170768428Y-57611000D01*
X170732142Y-57574714D01*
X170659571Y-57538428D01*
X170514428Y-57538428D01*
X170441857Y-57574714D01*
X170405571Y-57611000D01*
X170369285Y-57683571D01*
G04 #@! TO.C,C21*
X125149142Y-86954857D02*
X125185428Y-86991142D01*
X125221714Y-87100000D01*
X125221714Y-87172571D01*
X125185428Y-87281428D01*
X125112857Y-87354000D01*
X125040285Y-87390285D01*
X124895142Y-87426571D01*
X124786285Y-87426571D01*
X124641142Y-87390285D01*
X124568571Y-87354000D01*
X124496000Y-87281428D01*
X124459714Y-87172571D01*
X124459714Y-87100000D01*
X124496000Y-86991142D01*
X124532285Y-86954857D01*
X124532285Y-86664571D02*
X124496000Y-86628285D01*
X124459714Y-86555714D01*
X124459714Y-86374285D01*
X124496000Y-86301714D01*
X124532285Y-86265428D01*
X124604857Y-86229142D01*
X124677428Y-86229142D01*
X124786285Y-86265428D01*
X125221714Y-86700857D01*
X125221714Y-86229142D01*
X125221714Y-85503428D02*
X125221714Y-85938857D01*
X125221714Y-85721142D02*
X124459714Y-85721142D01*
X124568571Y-85793714D01*
X124641142Y-85866285D01*
X124677428Y-85938857D01*
G04 #@! TO.C,C1*
X160121600Y-83965142D02*
X160085314Y-84001428D01*
X159976457Y-84037714D01*
X159903885Y-84037714D01*
X159795028Y-84001428D01*
X159722457Y-83928857D01*
X159686171Y-83856285D01*
X159649885Y-83711142D01*
X159649885Y-83602285D01*
X159686171Y-83457142D01*
X159722457Y-83384571D01*
X159795028Y-83312000D01*
X159903885Y-83275714D01*
X159976457Y-83275714D01*
X160085314Y-83312000D01*
X160121600Y-83348285D01*
X160847314Y-84037714D02*
X160411885Y-84037714D01*
X160629600Y-84037714D02*
X160629600Y-83275714D01*
X160557028Y-83384571D01*
X160484457Y-83457142D01*
X160411885Y-83493428D01*
G04 #@! TO.C,C2*
X128053000Y-81312142D02*
X128016714Y-81348428D01*
X127907857Y-81384714D01*
X127835285Y-81384714D01*
X127726428Y-81348428D01*
X127653857Y-81275857D01*
X127617571Y-81203285D01*
X127581285Y-81058142D01*
X127581285Y-80949285D01*
X127617571Y-80804142D01*
X127653857Y-80731571D01*
X127726428Y-80659000D01*
X127835285Y-80622714D01*
X127907857Y-80622714D01*
X128016714Y-80659000D01*
X128053000Y-80695285D01*
X128343285Y-80695285D02*
X128379571Y-80659000D01*
X128452142Y-80622714D01*
X128633571Y-80622714D01*
X128706142Y-80659000D01*
X128742428Y-80695285D01*
X128778714Y-80767857D01*
X128778714Y-80840428D01*
X128742428Y-80949285D01*
X128307000Y-81384714D01*
X128778714Y-81384714D01*
G04 #@! TO.C,C3*
X160121600Y-82364942D02*
X160085314Y-82401228D01*
X159976457Y-82437514D01*
X159903885Y-82437514D01*
X159795028Y-82401228D01*
X159722457Y-82328657D01*
X159686171Y-82256085D01*
X159649885Y-82110942D01*
X159649885Y-82002085D01*
X159686171Y-81856942D01*
X159722457Y-81784371D01*
X159795028Y-81711800D01*
X159903885Y-81675514D01*
X159976457Y-81675514D01*
X160085314Y-81711800D01*
X160121600Y-81748085D01*
X160375600Y-81675514D02*
X160847314Y-81675514D01*
X160593314Y-81965800D01*
X160702171Y-81965800D01*
X160774742Y-82002085D01*
X160811028Y-82038371D01*
X160847314Y-82110942D01*
X160847314Y-82292371D01*
X160811028Y-82364942D01*
X160774742Y-82401228D01*
X160702171Y-82437514D01*
X160484457Y-82437514D01*
X160411885Y-82401228D01*
X160375600Y-82364942D01*
G04 #@! TO.C,C4*
X127993000Y-79752142D02*
X127956714Y-79788428D01*
X127847857Y-79824714D01*
X127775285Y-79824714D01*
X127666428Y-79788428D01*
X127593857Y-79715857D01*
X127557571Y-79643285D01*
X127521285Y-79498142D01*
X127521285Y-79389285D01*
X127557571Y-79244142D01*
X127593857Y-79171571D01*
X127666428Y-79099000D01*
X127775285Y-79062714D01*
X127847857Y-79062714D01*
X127956714Y-79099000D01*
X127993000Y-79135285D01*
X128646142Y-79316714D02*
X128646142Y-79824714D01*
X128464714Y-79026428D02*
X128283285Y-79570714D01*
X128755000Y-79570714D01*
G04 #@! TO.C,C6*
X152893000Y-67072142D02*
X152856714Y-67108428D01*
X152747857Y-67144714D01*
X152675285Y-67144714D01*
X152566428Y-67108428D01*
X152493857Y-67035857D01*
X152457571Y-66963285D01*
X152421285Y-66818142D01*
X152421285Y-66709285D01*
X152457571Y-66564142D01*
X152493857Y-66491571D01*
X152566428Y-66419000D01*
X152675285Y-66382714D01*
X152747857Y-66382714D01*
X152856714Y-66419000D01*
X152893000Y-66455285D01*
X153546142Y-66382714D02*
X153401000Y-66382714D01*
X153328428Y-66419000D01*
X153292142Y-66455285D01*
X153219571Y-66564142D01*
X153183285Y-66709285D01*
X153183285Y-66999571D01*
X153219571Y-67072142D01*
X153255857Y-67108428D01*
X153328428Y-67144714D01*
X153473571Y-67144714D01*
X153546142Y-67108428D01*
X153582428Y-67072142D01*
X153618714Y-66999571D01*
X153618714Y-66818142D01*
X153582428Y-66745571D01*
X153546142Y-66709285D01*
X153473571Y-66673000D01*
X153328428Y-66673000D01*
X153255857Y-66709285D01*
X153219571Y-66745571D01*
X153183285Y-66818142D01*
G04 #@! TO.C,C7*
X150033000Y-67072142D02*
X149996714Y-67108428D01*
X149887857Y-67144714D01*
X149815285Y-67144714D01*
X149706428Y-67108428D01*
X149633857Y-67035857D01*
X149597571Y-66963285D01*
X149561285Y-66818142D01*
X149561285Y-66709285D01*
X149597571Y-66564142D01*
X149633857Y-66491571D01*
X149706428Y-66419000D01*
X149815285Y-66382714D01*
X149887857Y-66382714D01*
X149996714Y-66419000D01*
X150033000Y-66455285D01*
X150287000Y-66382714D02*
X150795000Y-66382714D01*
X150468428Y-67144714D01*
G04 #@! TO.C,C8*
X133648142Y-66739000D02*
X133684428Y-66775285D01*
X133720714Y-66884142D01*
X133720714Y-66956714D01*
X133684428Y-67065571D01*
X133611857Y-67138142D01*
X133539285Y-67174428D01*
X133394142Y-67210714D01*
X133285285Y-67210714D01*
X133140142Y-67174428D01*
X133067571Y-67138142D01*
X132995000Y-67065571D01*
X132958714Y-66956714D01*
X132958714Y-66884142D01*
X132995000Y-66775285D01*
X133031285Y-66739000D01*
X133285285Y-66303571D02*
X133249000Y-66376142D01*
X133212714Y-66412428D01*
X133140142Y-66448714D01*
X133103857Y-66448714D01*
X133031285Y-66412428D01*
X132995000Y-66376142D01*
X132958714Y-66303571D01*
X132958714Y-66158428D01*
X132995000Y-66085857D01*
X133031285Y-66049571D01*
X133103857Y-66013285D01*
X133140142Y-66013285D01*
X133212714Y-66049571D01*
X133249000Y-66085857D01*
X133285285Y-66158428D01*
X133285285Y-66303571D01*
X133321571Y-66376142D01*
X133357857Y-66412428D01*
X133430428Y-66448714D01*
X133575571Y-66448714D01*
X133648142Y-66412428D01*
X133684428Y-66376142D01*
X133720714Y-66303571D01*
X133720714Y-66158428D01*
X133684428Y-66085857D01*
X133648142Y-66049571D01*
X133575571Y-66013285D01*
X133430428Y-66013285D01*
X133357857Y-66049571D01*
X133321571Y-66085857D01*
X133285285Y-66158428D01*
G04 #@! TO.C,C9*
X136321800Y-68826742D02*
X136285514Y-68863028D01*
X136176657Y-68899314D01*
X136104085Y-68899314D01*
X135995228Y-68863028D01*
X135922657Y-68790457D01*
X135886371Y-68717885D01*
X135850085Y-68572742D01*
X135850085Y-68463885D01*
X135886371Y-68318742D01*
X135922657Y-68246171D01*
X135995228Y-68173600D01*
X136104085Y-68137314D01*
X136176657Y-68137314D01*
X136285514Y-68173600D01*
X136321800Y-68209885D01*
X136684657Y-68899314D02*
X136829800Y-68899314D01*
X136902371Y-68863028D01*
X136938657Y-68826742D01*
X137011228Y-68717885D01*
X137047514Y-68572742D01*
X137047514Y-68282457D01*
X137011228Y-68209885D01*
X136974942Y-68173600D01*
X136902371Y-68137314D01*
X136757228Y-68137314D01*
X136684657Y-68173600D01*
X136648371Y-68209885D01*
X136612085Y-68282457D01*
X136612085Y-68463885D01*
X136648371Y-68536457D01*
X136684657Y-68572742D01*
X136757228Y-68609028D01*
X136902371Y-68609028D01*
X136974942Y-68572742D01*
X137011228Y-68536457D01*
X137047514Y-68463885D01*
G04 #@! TO.C,C11*
X127260142Y-76772142D02*
X127223857Y-76808428D01*
X127115000Y-76844714D01*
X127042428Y-76844714D01*
X126933571Y-76808428D01*
X126861000Y-76735857D01*
X126824714Y-76663285D01*
X126788428Y-76518142D01*
X126788428Y-76409285D01*
X126824714Y-76264142D01*
X126861000Y-76191571D01*
X126933571Y-76119000D01*
X127042428Y-76082714D01*
X127115000Y-76082714D01*
X127223857Y-76119000D01*
X127260142Y-76155285D01*
X127985857Y-76844714D02*
X127550428Y-76844714D01*
X127768142Y-76844714D02*
X127768142Y-76082714D01*
X127695571Y-76191571D01*
X127623000Y-76264142D01*
X127550428Y-76300428D01*
X128711571Y-76844714D02*
X128276142Y-76844714D01*
X128493857Y-76844714D02*
X128493857Y-76082714D01*
X128421285Y-76191571D01*
X128348714Y-76264142D01*
X128276142Y-76300428D01*
G04 #@! TO.C,C13*
X127270142Y-78252142D02*
X127233857Y-78288428D01*
X127125000Y-78324714D01*
X127052428Y-78324714D01*
X126943571Y-78288428D01*
X126871000Y-78215857D01*
X126834714Y-78143285D01*
X126798428Y-77998142D01*
X126798428Y-77889285D01*
X126834714Y-77744142D01*
X126871000Y-77671571D01*
X126943571Y-77599000D01*
X127052428Y-77562714D01*
X127125000Y-77562714D01*
X127233857Y-77599000D01*
X127270142Y-77635285D01*
X127995857Y-78324714D02*
X127560428Y-78324714D01*
X127778142Y-78324714D02*
X127778142Y-77562714D01*
X127705571Y-77671571D01*
X127633000Y-77744142D01*
X127560428Y-77780428D01*
X128249857Y-77562714D02*
X128721571Y-77562714D01*
X128467571Y-77853000D01*
X128576428Y-77853000D01*
X128649000Y-77889285D01*
X128685285Y-77925571D01*
X128721571Y-77998142D01*
X128721571Y-78179571D01*
X128685285Y-78252142D01*
X128649000Y-78288428D01*
X128576428Y-78324714D01*
X128358714Y-78324714D01*
X128286142Y-78288428D01*
X128249857Y-78252142D01*
G04 #@! TO.C,C14*
X127098142Y-84528142D02*
X127061857Y-84564428D01*
X126953000Y-84600714D01*
X126880428Y-84600714D01*
X126771571Y-84564428D01*
X126699000Y-84491857D01*
X126662714Y-84419285D01*
X126626428Y-84274142D01*
X126626428Y-84165285D01*
X126662714Y-84020142D01*
X126699000Y-83947571D01*
X126771571Y-83875000D01*
X126880428Y-83838714D01*
X126953000Y-83838714D01*
X127061857Y-83875000D01*
X127098142Y-83911285D01*
X127823857Y-84600714D02*
X127388428Y-84600714D01*
X127606142Y-84600714D02*
X127606142Y-83838714D01*
X127533571Y-83947571D01*
X127461000Y-84020142D01*
X127388428Y-84056428D01*
X128477000Y-84092714D02*
X128477000Y-84600714D01*
X128295571Y-83802428D02*
X128114142Y-84346714D01*
X128585857Y-84346714D01*
G04 #@! TO.C,C15*
X127098142Y-83004142D02*
X127061857Y-83040428D01*
X126953000Y-83076714D01*
X126880428Y-83076714D01*
X126771571Y-83040428D01*
X126699000Y-82967857D01*
X126662714Y-82895285D01*
X126626428Y-82750142D01*
X126626428Y-82641285D01*
X126662714Y-82496142D01*
X126699000Y-82423571D01*
X126771571Y-82351000D01*
X126880428Y-82314714D01*
X126953000Y-82314714D01*
X127061857Y-82351000D01*
X127098142Y-82387285D01*
X127823857Y-83076714D02*
X127388428Y-83076714D01*
X127606142Y-83076714D02*
X127606142Y-82314714D01*
X127533571Y-82423571D01*
X127461000Y-82496142D01*
X127388428Y-82532428D01*
X128513285Y-82314714D02*
X128150428Y-82314714D01*
X128114142Y-82677571D01*
X128150428Y-82641285D01*
X128223000Y-82605000D01*
X128404428Y-82605000D01*
X128477000Y-82641285D01*
X128513285Y-82677571D01*
X128549571Y-82750142D01*
X128549571Y-82931571D01*
X128513285Y-83004142D01*
X128477000Y-83040428D01*
X128404428Y-83076714D01*
X128223000Y-83076714D01*
X128150428Y-83040428D01*
X128114142Y-83004142D01*
G04 #@! TO.C,C16*
X138898142Y-94389857D02*
X138934428Y-94426142D01*
X138970714Y-94535000D01*
X138970714Y-94607571D01*
X138934428Y-94716428D01*
X138861857Y-94789000D01*
X138789285Y-94825285D01*
X138644142Y-94861571D01*
X138535285Y-94861571D01*
X138390142Y-94825285D01*
X138317571Y-94789000D01*
X138245000Y-94716428D01*
X138208714Y-94607571D01*
X138208714Y-94535000D01*
X138245000Y-94426142D01*
X138281285Y-94389857D01*
X138970714Y-93664142D02*
X138970714Y-94099571D01*
X138970714Y-93881857D02*
X138208714Y-93881857D01*
X138317571Y-93954428D01*
X138390142Y-94027000D01*
X138426428Y-94099571D01*
X138208714Y-93011000D02*
X138208714Y-93156142D01*
X138245000Y-93228714D01*
X138281285Y-93265000D01*
X138390142Y-93337571D01*
X138535285Y-93373857D01*
X138825571Y-93373857D01*
X138898142Y-93337571D01*
X138934428Y-93301285D01*
X138970714Y-93228714D01*
X138970714Y-93083571D01*
X138934428Y-93011000D01*
X138898142Y-92974714D01*
X138825571Y-92938428D01*
X138644142Y-92938428D01*
X138571571Y-92974714D01*
X138535285Y-93011000D01*
X138499000Y-93083571D01*
X138499000Y-93228714D01*
X138535285Y-93301285D01*
X138571571Y-93337571D01*
X138644142Y-93373857D01*
G04 #@! TO.C,C17*
X143312142Y-94409857D02*
X143348428Y-94446142D01*
X143384714Y-94555000D01*
X143384714Y-94627571D01*
X143348428Y-94736428D01*
X143275857Y-94809000D01*
X143203285Y-94845285D01*
X143058142Y-94881571D01*
X142949285Y-94881571D01*
X142804142Y-94845285D01*
X142731571Y-94809000D01*
X142659000Y-94736428D01*
X142622714Y-94627571D01*
X142622714Y-94555000D01*
X142659000Y-94446142D01*
X142695285Y-94409857D01*
X143384714Y-93684142D02*
X143384714Y-94119571D01*
X143384714Y-93901857D02*
X142622714Y-93901857D01*
X142731571Y-93974428D01*
X142804142Y-94047000D01*
X142840428Y-94119571D01*
X142622714Y-93430142D02*
X142622714Y-92922142D01*
X143384714Y-93248714D01*
G04 #@! TO.C,C19*
X160317542Y-94038057D02*
X160353828Y-94074342D01*
X160390114Y-94183200D01*
X160390114Y-94255771D01*
X160353828Y-94364628D01*
X160281257Y-94437200D01*
X160208685Y-94473485D01*
X160063542Y-94509771D01*
X159954685Y-94509771D01*
X159809542Y-94473485D01*
X159736971Y-94437200D01*
X159664400Y-94364628D01*
X159628114Y-94255771D01*
X159628114Y-94183200D01*
X159664400Y-94074342D01*
X159700685Y-94038057D01*
X160390114Y-93312342D02*
X160390114Y-93747771D01*
X160390114Y-93530057D02*
X159628114Y-93530057D01*
X159736971Y-93602628D01*
X159809542Y-93675200D01*
X159845828Y-93747771D01*
X160390114Y-92949485D02*
X160390114Y-92804342D01*
X160353828Y-92731771D01*
X160317542Y-92695485D01*
X160208685Y-92622914D01*
X160063542Y-92586628D01*
X159773257Y-92586628D01*
X159700685Y-92622914D01*
X159664400Y-92659200D01*
X159628114Y-92731771D01*
X159628114Y-92876914D01*
X159664400Y-92949485D01*
X159700685Y-92985771D01*
X159773257Y-93022057D01*
X159954685Y-93022057D01*
X160027257Y-92985771D01*
X160063542Y-92949485D01*
X160099828Y-92876914D01*
X160099828Y-92731771D01*
X160063542Y-92659200D01*
X160027257Y-92622914D01*
X159954685Y-92586628D01*
G04 #@! TO.C,C20*
X151938142Y-94357857D02*
X151974428Y-94394142D01*
X152010714Y-94503000D01*
X152010714Y-94575571D01*
X151974428Y-94684428D01*
X151901857Y-94757000D01*
X151829285Y-94793285D01*
X151684142Y-94829571D01*
X151575285Y-94829571D01*
X151430142Y-94793285D01*
X151357571Y-94757000D01*
X151285000Y-94684428D01*
X151248714Y-94575571D01*
X151248714Y-94503000D01*
X151285000Y-94394142D01*
X151321285Y-94357857D01*
X151321285Y-94067571D02*
X151285000Y-94031285D01*
X151248714Y-93958714D01*
X151248714Y-93777285D01*
X151285000Y-93704714D01*
X151321285Y-93668428D01*
X151393857Y-93632142D01*
X151466428Y-93632142D01*
X151575285Y-93668428D01*
X152010714Y-94103857D01*
X152010714Y-93632142D01*
X151248714Y-93160428D02*
X151248714Y-93087857D01*
X151285000Y-93015285D01*
X151321285Y-92979000D01*
X151393857Y-92942714D01*
X151539000Y-92906428D01*
X151720428Y-92906428D01*
X151865571Y-92942714D01*
X151938142Y-92979000D01*
X151974428Y-93015285D01*
X152010714Y-93087857D01*
X152010714Y-93160428D01*
X151974428Y-93233000D01*
X151938142Y-93269285D01*
X151865571Y-93305571D01*
X151720428Y-93341857D01*
X151539000Y-93341857D01*
X151393857Y-93305571D01*
X151321285Y-93269285D01*
X151285000Y-93233000D01*
X151248714Y-93160428D01*
G04 #@! TO.C,C22*
X160063542Y-86987742D02*
X160027257Y-87024028D01*
X159918400Y-87060314D01*
X159845828Y-87060314D01*
X159736971Y-87024028D01*
X159664400Y-86951457D01*
X159628114Y-86878885D01*
X159591828Y-86733742D01*
X159591828Y-86624885D01*
X159628114Y-86479742D01*
X159664400Y-86407171D01*
X159736971Y-86334600D01*
X159845828Y-86298314D01*
X159918400Y-86298314D01*
X160027257Y-86334600D01*
X160063542Y-86370885D01*
X160353828Y-86370885D02*
X160390114Y-86334600D01*
X160462685Y-86298314D01*
X160644114Y-86298314D01*
X160716685Y-86334600D01*
X160752971Y-86370885D01*
X160789257Y-86443457D01*
X160789257Y-86516028D01*
X160752971Y-86624885D01*
X160317542Y-87060314D01*
X160789257Y-87060314D01*
X161079542Y-86370885D02*
X161115828Y-86334600D01*
X161188400Y-86298314D01*
X161369828Y-86298314D01*
X161442400Y-86334600D01*
X161478685Y-86370885D01*
X161514971Y-86443457D01*
X161514971Y-86516028D01*
X161478685Y-86624885D01*
X161043257Y-87060314D01*
X161514971Y-87060314D01*
G04 #@! TO.C,C23*
X160139742Y-85489142D02*
X160103457Y-85525428D01*
X159994600Y-85561714D01*
X159922028Y-85561714D01*
X159813171Y-85525428D01*
X159740600Y-85452857D01*
X159704314Y-85380285D01*
X159668028Y-85235142D01*
X159668028Y-85126285D01*
X159704314Y-84981142D01*
X159740600Y-84908571D01*
X159813171Y-84836000D01*
X159922028Y-84799714D01*
X159994600Y-84799714D01*
X160103457Y-84836000D01*
X160139742Y-84872285D01*
X160430028Y-84872285D02*
X160466314Y-84836000D01*
X160538885Y-84799714D01*
X160720314Y-84799714D01*
X160792885Y-84836000D01*
X160829171Y-84872285D01*
X160865457Y-84944857D01*
X160865457Y-85017428D01*
X160829171Y-85126285D01*
X160393742Y-85561714D01*
X160865457Y-85561714D01*
X161119457Y-84799714D02*
X161591171Y-84799714D01*
X161337171Y-85090000D01*
X161446028Y-85090000D01*
X161518600Y-85126285D01*
X161554885Y-85162571D01*
X161591171Y-85235142D01*
X161591171Y-85416571D01*
X161554885Y-85489142D01*
X161518600Y-85525428D01*
X161446028Y-85561714D01*
X161228314Y-85561714D01*
X161155742Y-85525428D01*
X161119457Y-85489142D01*
G04 #@! TO.C,C24*
X160038142Y-77564342D02*
X160001857Y-77600628D01*
X159893000Y-77636914D01*
X159820428Y-77636914D01*
X159711571Y-77600628D01*
X159639000Y-77528057D01*
X159602714Y-77455485D01*
X159566428Y-77310342D01*
X159566428Y-77201485D01*
X159602714Y-77056342D01*
X159639000Y-76983771D01*
X159711571Y-76911200D01*
X159820428Y-76874914D01*
X159893000Y-76874914D01*
X160001857Y-76911200D01*
X160038142Y-76947485D01*
X160328428Y-76947485D02*
X160364714Y-76911200D01*
X160437285Y-76874914D01*
X160618714Y-76874914D01*
X160691285Y-76911200D01*
X160727571Y-76947485D01*
X160763857Y-77020057D01*
X160763857Y-77092628D01*
X160727571Y-77201485D01*
X160292142Y-77636914D01*
X160763857Y-77636914D01*
X161417000Y-77128914D02*
X161417000Y-77636914D01*
X161235571Y-76838628D02*
X161054142Y-77382914D01*
X161525857Y-77382914D01*
G04 #@! TO.C,C25*
X160088942Y-79164542D02*
X160052657Y-79200828D01*
X159943800Y-79237114D01*
X159871228Y-79237114D01*
X159762371Y-79200828D01*
X159689800Y-79128257D01*
X159653514Y-79055685D01*
X159617228Y-78910542D01*
X159617228Y-78801685D01*
X159653514Y-78656542D01*
X159689800Y-78583971D01*
X159762371Y-78511400D01*
X159871228Y-78475114D01*
X159943800Y-78475114D01*
X160052657Y-78511400D01*
X160088942Y-78547685D01*
X160379228Y-78547685D02*
X160415514Y-78511400D01*
X160488085Y-78475114D01*
X160669514Y-78475114D01*
X160742085Y-78511400D01*
X160778371Y-78547685D01*
X160814657Y-78620257D01*
X160814657Y-78692828D01*
X160778371Y-78801685D01*
X160342942Y-79237114D01*
X160814657Y-79237114D01*
X161504085Y-78475114D02*
X161141228Y-78475114D01*
X161104942Y-78837971D01*
X161141228Y-78801685D01*
X161213800Y-78765400D01*
X161395228Y-78765400D01*
X161467800Y-78801685D01*
X161504085Y-78837971D01*
X161540371Y-78910542D01*
X161540371Y-79091971D01*
X161504085Y-79164542D01*
X161467800Y-79200828D01*
X161395228Y-79237114D01*
X161213800Y-79237114D01*
X161141228Y-79200828D01*
X161104942Y-79164542D01*
G04 #@! TO.C,C26*
X141800942Y-67109857D02*
X141837228Y-67146142D01*
X141873514Y-67255000D01*
X141873514Y-67327571D01*
X141837228Y-67436428D01*
X141764657Y-67509000D01*
X141692085Y-67545285D01*
X141546942Y-67581571D01*
X141438085Y-67581571D01*
X141292942Y-67545285D01*
X141220371Y-67509000D01*
X141147800Y-67436428D01*
X141111514Y-67327571D01*
X141111514Y-67255000D01*
X141147800Y-67146142D01*
X141184085Y-67109857D01*
X141184085Y-66819571D02*
X141147800Y-66783285D01*
X141111514Y-66710714D01*
X141111514Y-66529285D01*
X141147800Y-66456714D01*
X141184085Y-66420428D01*
X141256657Y-66384142D01*
X141329228Y-66384142D01*
X141438085Y-66420428D01*
X141873514Y-66855857D01*
X141873514Y-66384142D01*
X141111514Y-65731000D02*
X141111514Y-65876142D01*
X141147800Y-65948714D01*
X141184085Y-65985000D01*
X141292942Y-66057571D01*
X141438085Y-66093857D01*
X141728371Y-66093857D01*
X141800942Y-66057571D01*
X141837228Y-66021285D01*
X141873514Y-65948714D01*
X141873514Y-65803571D01*
X141837228Y-65731000D01*
X141800942Y-65694714D01*
X141728371Y-65658428D01*
X141546942Y-65658428D01*
X141474371Y-65694714D01*
X141438085Y-65731000D01*
X141401800Y-65803571D01*
X141401800Y-65948714D01*
X141438085Y-66021285D01*
X141474371Y-66057571D01*
X141546942Y-66093857D01*
G04 #@! TO.C,C27*
X138650142Y-68832142D02*
X138613857Y-68868428D01*
X138505000Y-68904714D01*
X138432428Y-68904714D01*
X138323571Y-68868428D01*
X138251000Y-68795857D01*
X138214714Y-68723285D01*
X138178428Y-68578142D01*
X138178428Y-68469285D01*
X138214714Y-68324142D01*
X138251000Y-68251571D01*
X138323571Y-68179000D01*
X138432428Y-68142714D01*
X138505000Y-68142714D01*
X138613857Y-68179000D01*
X138650142Y-68215285D01*
X138940428Y-68215285D02*
X138976714Y-68179000D01*
X139049285Y-68142714D01*
X139230714Y-68142714D01*
X139303285Y-68179000D01*
X139339571Y-68215285D01*
X139375857Y-68287857D01*
X139375857Y-68360428D01*
X139339571Y-68469285D01*
X138904142Y-68904714D01*
X139375857Y-68904714D01*
X139629857Y-68142714D02*
X140137857Y-68142714D01*
X139811285Y-68904714D01*
G04 #@! TO.C,C28*
X127082142Y-71872142D02*
X127045857Y-71908428D01*
X126937000Y-71944714D01*
X126864428Y-71944714D01*
X126755571Y-71908428D01*
X126683000Y-71835857D01*
X126646714Y-71763285D01*
X126610428Y-71618142D01*
X126610428Y-71509285D01*
X126646714Y-71364142D01*
X126683000Y-71291571D01*
X126755571Y-71219000D01*
X126864428Y-71182714D01*
X126937000Y-71182714D01*
X127045857Y-71219000D01*
X127082142Y-71255285D01*
X127372428Y-71255285D02*
X127408714Y-71219000D01*
X127481285Y-71182714D01*
X127662714Y-71182714D01*
X127735285Y-71219000D01*
X127771571Y-71255285D01*
X127807857Y-71327857D01*
X127807857Y-71400428D01*
X127771571Y-71509285D01*
X127336142Y-71944714D01*
X127807857Y-71944714D01*
X128243285Y-71509285D02*
X128170714Y-71473000D01*
X128134428Y-71436714D01*
X128098142Y-71364142D01*
X128098142Y-71327857D01*
X128134428Y-71255285D01*
X128170714Y-71219000D01*
X128243285Y-71182714D01*
X128388428Y-71182714D01*
X128461000Y-71219000D01*
X128497285Y-71255285D01*
X128533571Y-71327857D01*
X128533571Y-71364142D01*
X128497285Y-71436714D01*
X128461000Y-71473000D01*
X128388428Y-71509285D01*
X128243285Y-71509285D01*
X128170714Y-71545571D01*
X128134428Y-71581857D01*
X128098142Y-71654428D01*
X128098142Y-71799571D01*
X128134428Y-71872142D01*
X128170714Y-71908428D01*
X128243285Y-71944714D01*
X128388428Y-71944714D01*
X128461000Y-71908428D01*
X128497285Y-71872142D01*
X128533571Y-71799571D01*
X128533571Y-71654428D01*
X128497285Y-71581857D01*
X128461000Y-71545571D01*
X128388428Y-71509285D01*
G04 #@! TO.C,C30*
X127056242Y-73386042D02*
X127019957Y-73422328D01*
X126911100Y-73458614D01*
X126838528Y-73458614D01*
X126729671Y-73422328D01*
X126657100Y-73349757D01*
X126620814Y-73277185D01*
X126584528Y-73132042D01*
X126584528Y-73023185D01*
X126620814Y-72878042D01*
X126657100Y-72805471D01*
X126729671Y-72732900D01*
X126838528Y-72696614D01*
X126911100Y-72696614D01*
X127019957Y-72732900D01*
X127056242Y-72769185D01*
X127310242Y-72696614D02*
X127781957Y-72696614D01*
X127527957Y-72986900D01*
X127636814Y-72986900D01*
X127709385Y-73023185D01*
X127745671Y-73059471D01*
X127781957Y-73132042D01*
X127781957Y-73313471D01*
X127745671Y-73386042D01*
X127709385Y-73422328D01*
X127636814Y-73458614D01*
X127419100Y-73458614D01*
X127346528Y-73422328D01*
X127310242Y-73386042D01*
X128253671Y-72696614D02*
X128326242Y-72696614D01*
X128398814Y-72732900D01*
X128435100Y-72769185D01*
X128471385Y-72841757D01*
X128507671Y-72986900D01*
X128507671Y-73168328D01*
X128471385Y-73313471D01*
X128435100Y-73386042D01*
X128398814Y-73422328D01*
X128326242Y-73458614D01*
X128253671Y-73458614D01*
X128181100Y-73422328D01*
X128144814Y-73386042D01*
X128108528Y-73313471D01*
X128072242Y-73168328D01*
X128072242Y-72986900D01*
X128108528Y-72841757D01*
X128144814Y-72769185D01*
X128181100Y-72732900D01*
X128253671Y-72696614D01*
G04 #@! TO.C,C31*
X148890142Y-94369857D02*
X148926428Y-94406142D01*
X148962714Y-94515000D01*
X148962714Y-94587571D01*
X148926428Y-94696428D01*
X148853857Y-94769000D01*
X148781285Y-94805285D01*
X148636142Y-94841571D01*
X148527285Y-94841571D01*
X148382142Y-94805285D01*
X148309571Y-94769000D01*
X148237000Y-94696428D01*
X148200714Y-94587571D01*
X148200714Y-94515000D01*
X148237000Y-94406142D01*
X148273285Y-94369857D01*
X148200714Y-94115857D02*
X148200714Y-93644142D01*
X148491000Y-93898142D01*
X148491000Y-93789285D01*
X148527285Y-93716714D01*
X148563571Y-93680428D01*
X148636142Y-93644142D01*
X148817571Y-93644142D01*
X148890142Y-93680428D01*
X148926428Y-93716714D01*
X148962714Y-93789285D01*
X148962714Y-94007000D01*
X148926428Y-94079571D01*
X148890142Y-94115857D01*
X148962714Y-92918428D02*
X148962714Y-93353857D01*
X148962714Y-93136142D02*
X148200714Y-93136142D01*
X148309571Y-93208714D01*
X148382142Y-93281285D01*
X148418428Y-93353857D01*
G04 #@! TO.C,C32*
X144632142Y-94399857D02*
X144668428Y-94436142D01*
X144704714Y-94545000D01*
X144704714Y-94617571D01*
X144668428Y-94726428D01*
X144595857Y-94799000D01*
X144523285Y-94835285D01*
X144378142Y-94871571D01*
X144269285Y-94871571D01*
X144124142Y-94835285D01*
X144051571Y-94799000D01*
X143979000Y-94726428D01*
X143942714Y-94617571D01*
X143942714Y-94545000D01*
X143979000Y-94436142D01*
X144015285Y-94399857D01*
X143942714Y-94145857D02*
X143942714Y-93674142D01*
X144233000Y-93928142D01*
X144233000Y-93819285D01*
X144269285Y-93746714D01*
X144305571Y-93710428D01*
X144378142Y-93674142D01*
X144559571Y-93674142D01*
X144632142Y-93710428D01*
X144668428Y-93746714D01*
X144704714Y-93819285D01*
X144704714Y-94037000D01*
X144668428Y-94109571D01*
X144632142Y-94145857D01*
X144015285Y-93383857D02*
X143979000Y-93347571D01*
X143942714Y-93275000D01*
X143942714Y-93093571D01*
X143979000Y-93021000D01*
X144015285Y-92984714D01*
X144087857Y-92948428D01*
X144160428Y-92948428D01*
X144269285Y-92984714D01*
X144704714Y-93420142D01*
X144704714Y-92948428D01*
G04 #@! TO.C,C33*
X160088942Y-89502342D02*
X160052657Y-89538628D01*
X159943800Y-89574914D01*
X159871228Y-89574914D01*
X159762371Y-89538628D01*
X159689800Y-89466057D01*
X159653514Y-89393485D01*
X159617228Y-89248342D01*
X159617228Y-89139485D01*
X159653514Y-88994342D01*
X159689800Y-88921771D01*
X159762371Y-88849200D01*
X159871228Y-88812914D01*
X159943800Y-88812914D01*
X160052657Y-88849200D01*
X160088942Y-88885485D01*
X160342942Y-88812914D02*
X160814657Y-88812914D01*
X160560657Y-89103200D01*
X160669514Y-89103200D01*
X160742085Y-89139485D01*
X160778371Y-89175771D01*
X160814657Y-89248342D01*
X160814657Y-89429771D01*
X160778371Y-89502342D01*
X160742085Y-89538628D01*
X160669514Y-89574914D01*
X160451800Y-89574914D01*
X160379228Y-89538628D01*
X160342942Y-89502342D01*
X161068657Y-88812914D02*
X161540371Y-88812914D01*
X161286371Y-89103200D01*
X161395228Y-89103200D01*
X161467800Y-89139485D01*
X161504085Y-89175771D01*
X161540371Y-89248342D01*
X161540371Y-89429771D01*
X161504085Y-89502342D01*
X161467800Y-89538628D01*
X161395228Y-89574914D01*
X161177514Y-89574914D01*
X161104942Y-89538628D01*
X161068657Y-89502342D01*
G04 #@! TO.C,C34*
X160088942Y-91051742D02*
X160052657Y-91088028D01*
X159943800Y-91124314D01*
X159871228Y-91124314D01*
X159762371Y-91088028D01*
X159689800Y-91015457D01*
X159653514Y-90942885D01*
X159617228Y-90797742D01*
X159617228Y-90688885D01*
X159653514Y-90543742D01*
X159689800Y-90471171D01*
X159762371Y-90398600D01*
X159871228Y-90362314D01*
X159943800Y-90362314D01*
X160052657Y-90398600D01*
X160088942Y-90434885D01*
X160342942Y-90362314D02*
X160814657Y-90362314D01*
X160560657Y-90652600D01*
X160669514Y-90652600D01*
X160742085Y-90688885D01*
X160778371Y-90725171D01*
X160814657Y-90797742D01*
X160814657Y-90979171D01*
X160778371Y-91051742D01*
X160742085Y-91088028D01*
X160669514Y-91124314D01*
X160451800Y-91124314D01*
X160379228Y-91088028D01*
X160342942Y-91051742D01*
X161467800Y-90616314D02*
X161467800Y-91124314D01*
X161286371Y-90326028D02*
X161104942Y-90870314D01*
X161576657Y-90870314D01*
G04 #@! TO.C,C35*
X152131342Y-119300702D02*
X152095057Y-119336988D01*
X151986200Y-119373274D01*
X151913628Y-119373274D01*
X151804771Y-119336988D01*
X151732200Y-119264417D01*
X151695914Y-119191845D01*
X151659628Y-119046702D01*
X151659628Y-118937845D01*
X151695914Y-118792702D01*
X151732200Y-118720131D01*
X151804771Y-118647560D01*
X151913628Y-118611274D01*
X151986200Y-118611274D01*
X152095057Y-118647560D01*
X152131342Y-118683845D01*
X152385342Y-118611274D02*
X152857057Y-118611274D01*
X152603057Y-118901560D01*
X152711914Y-118901560D01*
X152784485Y-118937845D01*
X152820771Y-118974131D01*
X152857057Y-119046702D01*
X152857057Y-119228131D01*
X152820771Y-119300702D01*
X152784485Y-119336988D01*
X152711914Y-119373274D01*
X152494200Y-119373274D01*
X152421628Y-119336988D01*
X152385342Y-119300702D01*
X153546485Y-118611274D02*
X153183628Y-118611274D01*
X153147342Y-118974131D01*
X153183628Y-118937845D01*
X153256200Y-118901560D01*
X153437628Y-118901560D01*
X153510200Y-118937845D01*
X153546485Y-118974131D01*
X153582771Y-119046702D01*
X153582771Y-119228131D01*
X153546485Y-119300702D01*
X153510200Y-119336988D01*
X153437628Y-119373274D01*
X153256200Y-119373274D01*
X153183628Y-119336988D01*
X153147342Y-119300702D01*
G04 #@! TO.C,C37*
X152131342Y-108886702D02*
X152095057Y-108922988D01*
X151986200Y-108959274D01*
X151913628Y-108959274D01*
X151804771Y-108922988D01*
X151732200Y-108850417D01*
X151695914Y-108777845D01*
X151659628Y-108632702D01*
X151659628Y-108523845D01*
X151695914Y-108378702D01*
X151732200Y-108306131D01*
X151804771Y-108233560D01*
X151913628Y-108197274D01*
X151986200Y-108197274D01*
X152095057Y-108233560D01*
X152131342Y-108269845D01*
X152385342Y-108197274D02*
X152857057Y-108197274D01*
X152603057Y-108487560D01*
X152711914Y-108487560D01*
X152784485Y-108523845D01*
X152820771Y-108560131D01*
X152857057Y-108632702D01*
X152857057Y-108814131D01*
X152820771Y-108886702D01*
X152784485Y-108922988D01*
X152711914Y-108959274D01*
X152494200Y-108959274D01*
X152421628Y-108922988D01*
X152385342Y-108886702D01*
X153111057Y-108197274D02*
X153619057Y-108197274D01*
X153292485Y-108959274D01*
G04 #@! TO.C,C38*
X151910142Y-98712142D02*
X151873857Y-98748428D01*
X151765000Y-98784714D01*
X151692428Y-98784714D01*
X151583571Y-98748428D01*
X151511000Y-98675857D01*
X151474714Y-98603285D01*
X151438428Y-98458142D01*
X151438428Y-98349285D01*
X151474714Y-98204142D01*
X151511000Y-98131571D01*
X151583571Y-98059000D01*
X151692428Y-98022714D01*
X151765000Y-98022714D01*
X151873857Y-98059000D01*
X151910142Y-98095285D01*
X152164142Y-98022714D02*
X152635857Y-98022714D01*
X152381857Y-98313000D01*
X152490714Y-98313000D01*
X152563285Y-98349285D01*
X152599571Y-98385571D01*
X152635857Y-98458142D01*
X152635857Y-98639571D01*
X152599571Y-98712142D01*
X152563285Y-98748428D01*
X152490714Y-98784714D01*
X152273000Y-98784714D01*
X152200428Y-98748428D01*
X152164142Y-98712142D01*
X153071285Y-98349285D02*
X152998714Y-98313000D01*
X152962428Y-98276714D01*
X152926142Y-98204142D01*
X152926142Y-98167857D01*
X152962428Y-98095285D01*
X152998714Y-98059000D01*
X153071285Y-98022714D01*
X153216428Y-98022714D01*
X153289000Y-98059000D01*
X153325285Y-98095285D01*
X153361571Y-98167857D01*
X153361571Y-98204142D01*
X153325285Y-98276714D01*
X153289000Y-98313000D01*
X153216428Y-98349285D01*
X153071285Y-98349285D01*
X152998714Y-98385571D01*
X152962428Y-98421857D01*
X152926142Y-98494428D01*
X152926142Y-98639571D01*
X152962428Y-98712142D01*
X152998714Y-98748428D01*
X153071285Y-98784714D01*
X153216428Y-98784714D01*
X153289000Y-98748428D01*
X153325285Y-98712142D01*
X153361571Y-98639571D01*
X153361571Y-98494428D01*
X153325285Y-98421857D01*
X153289000Y-98385571D01*
X153216428Y-98349285D01*
G04 #@! TO.C,C39*
X152131342Y-114474702D02*
X152095057Y-114510988D01*
X151986200Y-114547274D01*
X151913628Y-114547274D01*
X151804771Y-114510988D01*
X151732200Y-114438417D01*
X151695914Y-114365845D01*
X151659628Y-114220702D01*
X151659628Y-114111845D01*
X151695914Y-113966702D01*
X151732200Y-113894131D01*
X151804771Y-113821560D01*
X151913628Y-113785274D01*
X151986200Y-113785274D01*
X152095057Y-113821560D01*
X152131342Y-113857845D01*
X152385342Y-113785274D02*
X152857057Y-113785274D01*
X152603057Y-114075560D01*
X152711914Y-114075560D01*
X152784485Y-114111845D01*
X152820771Y-114148131D01*
X152857057Y-114220702D01*
X152857057Y-114402131D01*
X152820771Y-114474702D01*
X152784485Y-114510988D01*
X152711914Y-114547274D01*
X152494200Y-114547274D01*
X152421628Y-114510988D01*
X152385342Y-114474702D01*
X153219914Y-114547274D02*
X153365057Y-114547274D01*
X153437628Y-114510988D01*
X153473914Y-114474702D01*
X153546485Y-114365845D01*
X153582771Y-114220702D01*
X153582771Y-113930417D01*
X153546485Y-113857845D01*
X153510200Y-113821560D01*
X153437628Y-113785274D01*
X153292485Y-113785274D01*
X153219914Y-113821560D01*
X153183628Y-113857845D01*
X153147342Y-113930417D01*
X153147342Y-114111845D01*
X153183628Y-114184417D01*
X153219914Y-114220702D01*
X153292485Y-114256988D01*
X153437628Y-114256988D01*
X153510200Y-114220702D01*
X153546485Y-114184417D01*
X153582771Y-114111845D01*
G04 #@! TO.C,C41*
X152131342Y-112696702D02*
X152095057Y-112732988D01*
X151986200Y-112769274D01*
X151913628Y-112769274D01*
X151804771Y-112732988D01*
X151732200Y-112660417D01*
X151695914Y-112587845D01*
X151659628Y-112442702D01*
X151659628Y-112333845D01*
X151695914Y-112188702D01*
X151732200Y-112116131D01*
X151804771Y-112043560D01*
X151913628Y-112007274D01*
X151986200Y-112007274D01*
X152095057Y-112043560D01*
X152131342Y-112079845D01*
X152784485Y-112261274D02*
X152784485Y-112769274D01*
X152603057Y-111970988D02*
X152421628Y-112515274D01*
X152893342Y-112515274D01*
X153582771Y-112769274D02*
X153147342Y-112769274D01*
X153365057Y-112769274D02*
X153365057Y-112007274D01*
X153292485Y-112116131D01*
X153219914Y-112188702D01*
X153147342Y-112224988D01*
G04 #@! TO.C,C42*
X137813142Y-106750757D02*
X137849428Y-106787042D01*
X137885714Y-106895900D01*
X137885714Y-106968471D01*
X137849428Y-107077328D01*
X137776857Y-107149900D01*
X137704285Y-107186185D01*
X137559142Y-107222471D01*
X137450285Y-107222471D01*
X137305142Y-107186185D01*
X137232571Y-107149900D01*
X137160000Y-107077328D01*
X137123714Y-106968471D01*
X137123714Y-106895900D01*
X137160000Y-106787042D01*
X137196285Y-106750757D01*
X137377714Y-106097614D02*
X137885714Y-106097614D01*
X137087428Y-106279042D02*
X137631714Y-106460471D01*
X137631714Y-105988757D01*
X137196285Y-105734757D02*
X137160000Y-105698471D01*
X137123714Y-105625900D01*
X137123714Y-105444471D01*
X137160000Y-105371900D01*
X137196285Y-105335614D01*
X137268857Y-105299328D01*
X137341428Y-105299328D01*
X137450285Y-105335614D01*
X137885714Y-105771042D01*
X137885714Y-105299328D01*
G04 #@! TO.C,C43*
X137711542Y-117812457D02*
X137747828Y-117848742D01*
X137784114Y-117957600D01*
X137784114Y-118030171D01*
X137747828Y-118139028D01*
X137675257Y-118211600D01*
X137602685Y-118247885D01*
X137457542Y-118284171D01*
X137348685Y-118284171D01*
X137203542Y-118247885D01*
X137130971Y-118211600D01*
X137058400Y-118139028D01*
X137022114Y-118030171D01*
X137022114Y-117957600D01*
X137058400Y-117848742D01*
X137094685Y-117812457D01*
X137276114Y-117159314D02*
X137784114Y-117159314D01*
X136985828Y-117340742D02*
X137530114Y-117522171D01*
X137530114Y-117050457D01*
X137022114Y-116832742D02*
X137022114Y-116361028D01*
X137312400Y-116615028D01*
X137312400Y-116506171D01*
X137348685Y-116433600D01*
X137384971Y-116397314D01*
X137457542Y-116361028D01*
X137638971Y-116361028D01*
X137711542Y-116397314D01*
X137747828Y-116433600D01*
X137784114Y-116506171D01*
X137784114Y-116723885D01*
X137747828Y-116796457D01*
X137711542Y-116832742D01*
G04 #@! TO.C,R21*
X117899542Y-55551614D02*
X117645542Y-55188757D01*
X117464114Y-55551614D02*
X117464114Y-54789614D01*
X117754400Y-54789614D01*
X117826971Y-54825900D01*
X117863257Y-54862185D01*
X117899542Y-54934757D01*
X117899542Y-55043614D01*
X117863257Y-55116185D01*
X117826971Y-55152471D01*
X117754400Y-55188757D01*
X117464114Y-55188757D01*
X118189828Y-54862185D02*
X118226114Y-54825900D01*
X118298685Y-54789614D01*
X118480114Y-54789614D01*
X118552685Y-54825900D01*
X118588971Y-54862185D01*
X118625257Y-54934757D01*
X118625257Y-55007328D01*
X118588971Y-55116185D01*
X118153542Y-55551614D01*
X118625257Y-55551614D01*
X119350971Y-55551614D02*
X118915542Y-55551614D01*
X119133257Y-55551614D02*
X119133257Y-54789614D01*
X119060685Y-54898471D01*
X118988114Y-54971042D01*
X118915542Y-55007328D01*
G04 #@! TO.C,R22*
X117899542Y-57113714D02*
X117645542Y-56750857D01*
X117464114Y-57113714D02*
X117464114Y-56351714D01*
X117754400Y-56351714D01*
X117826971Y-56388000D01*
X117863257Y-56424285D01*
X117899542Y-56496857D01*
X117899542Y-56605714D01*
X117863257Y-56678285D01*
X117826971Y-56714571D01*
X117754400Y-56750857D01*
X117464114Y-56750857D01*
X118189828Y-56424285D02*
X118226114Y-56388000D01*
X118298685Y-56351714D01*
X118480114Y-56351714D01*
X118552685Y-56388000D01*
X118588971Y-56424285D01*
X118625257Y-56496857D01*
X118625257Y-56569428D01*
X118588971Y-56678285D01*
X118153542Y-57113714D01*
X118625257Y-57113714D01*
X118915542Y-56424285D02*
X118951828Y-56388000D01*
X119024400Y-56351714D01*
X119205828Y-56351714D01*
X119278400Y-56388000D01*
X119314685Y-56424285D01*
X119350971Y-56496857D01*
X119350971Y-56569428D01*
X119314685Y-56678285D01*
X118879257Y-57113714D01*
X119350971Y-57113714D01*
G04 #@! TO.C,R4*
X117330300Y-50861114D02*
X117076300Y-50498257D01*
X116894871Y-50861114D02*
X116894871Y-50099114D01*
X117185157Y-50099114D01*
X117257728Y-50135400D01*
X117294014Y-50171685D01*
X117330300Y-50244257D01*
X117330300Y-50353114D01*
X117294014Y-50425685D01*
X117257728Y-50461971D01*
X117185157Y-50498257D01*
X116894871Y-50498257D01*
X117983442Y-50353114D02*
X117983442Y-50861114D01*
X117802014Y-50062828D02*
X117620585Y-50607114D01*
X118092300Y-50607114D01*
G04 #@! TO.C,R5*
X117330300Y-49210114D02*
X117076300Y-48847257D01*
X116894871Y-49210114D02*
X116894871Y-48448114D01*
X117185157Y-48448114D01*
X117257728Y-48484400D01*
X117294014Y-48520685D01*
X117330300Y-48593257D01*
X117330300Y-48702114D01*
X117294014Y-48774685D01*
X117257728Y-48810971D01*
X117185157Y-48847257D01*
X116894871Y-48847257D01*
X118019728Y-48448114D02*
X117656871Y-48448114D01*
X117620585Y-48810971D01*
X117656871Y-48774685D01*
X117729442Y-48738400D01*
X117910871Y-48738400D01*
X117983442Y-48774685D01*
X118019728Y-48810971D01*
X118056014Y-48883542D01*
X118056014Y-49064971D01*
X118019728Y-49137542D01*
X117983442Y-49173828D01*
X117910871Y-49210114D01*
X117729442Y-49210114D01*
X117656871Y-49173828D01*
X117620585Y-49137542D01*
G04 #@! TO.C,R6*
X117330300Y-47559114D02*
X117076300Y-47196257D01*
X116894871Y-47559114D02*
X116894871Y-46797114D01*
X117185157Y-46797114D01*
X117257728Y-46833400D01*
X117294014Y-46869685D01*
X117330300Y-46942257D01*
X117330300Y-47051114D01*
X117294014Y-47123685D01*
X117257728Y-47159971D01*
X117185157Y-47196257D01*
X116894871Y-47196257D01*
X117983442Y-46797114D02*
X117838300Y-46797114D01*
X117765728Y-46833400D01*
X117729442Y-46869685D01*
X117656871Y-46978542D01*
X117620585Y-47123685D01*
X117620585Y-47413971D01*
X117656871Y-47486542D01*
X117693157Y-47522828D01*
X117765728Y-47559114D01*
X117910871Y-47559114D01*
X117983442Y-47522828D01*
X118019728Y-47486542D01*
X118056014Y-47413971D01*
X118056014Y-47232542D01*
X118019728Y-47159971D01*
X117983442Y-47123685D01*
X117910871Y-47087400D01*
X117765728Y-47087400D01*
X117693157Y-47123685D01*
X117656871Y-47159971D01*
X117620585Y-47232542D01*
G04 #@! TO.C,R7*
X117381100Y-45908114D02*
X117127100Y-45545257D01*
X116945671Y-45908114D02*
X116945671Y-45146114D01*
X117235957Y-45146114D01*
X117308528Y-45182400D01*
X117344814Y-45218685D01*
X117381100Y-45291257D01*
X117381100Y-45400114D01*
X117344814Y-45472685D01*
X117308528Y-45508971D01*
X117235957Y-45545257D01*
X116945671Y-45545257D01*
X117635100Y-45146114D02*
X118143100Y-45146114D01*
X117816528Y-45908114D01*
G04 #@! TO.C,R10*
X130924662Y-87324474D02*
X130670662Y-86961617D01*
X130489234Y-87324474D02*
X130489234Y-86562474D01*
X130779520Y-86562474D01*
X130852091Y-86598760D01*
X130888377Y-86635045D01*
X130924662Y-86707617D01*
X130924662Y-86816474D01*
X130888377Y-86889045D01*
X130852091Y-86925331D01*
X130779520Y-86961617D01*
X130489234Y-86961617D01*
X131650377Y-87324474D02*
X131214948Y-87324474D01*
X131432662Y-87324474D02*
X131432662Y-86562474D01*
X131360091Y-86671331D01*
X131287520Y-86743902D01*
X131214948Y-86780188D01*
X132122091Y-86562474D02*
X132194662Y-86562474D01*
X132267234Y-86598760D01*
X132303520Y-86635045D01*
X132339805Y-86707617D01*
X132376091Y-86852760D01*
X132376091Y-87034188D01*
X132339805Y-87179331D01*
X132303520Y-87251902D01*
X132267234Y-87288188D01*
X132194662Y-87324474D01*
X132122091Y-87324474D01*
X132049520Y-87288188D01*
X132013234Y-87251902D01*
X131976948Y-87179331D01*
X131940662Y-87034188D01*
X131940662Y-86852760D01*
X131976948Y-86707617D01*
X132013234Y-86635045D01*
X132049520Y-86598760D01*
X132122091Y-86562474D01*
G04 #@! TO.C,R1*
X160172400Y-81015114D02*
X159918400Y-80652257D01*
X159736971Y-81015114D02*
X159736971Y-80253114D01*
X160027257Y-80253114D01*
X160099828Y-80289400D01*
X160136114Y-80325685D01*
X160172400Y-80398257D01*
X160172400Y-80507114D01*
X160136114Y-80579685D01*
X160099828Y-80615971D01*
X160027257Y-80652257D01*
X159736971Y-80652257D01*
X160898114Y-81015114D02*
X160462685Y-81015114D01*
X160680400Y-81015114D02*
X160680400Y-80253114D01*
X160607828Y-80361971D01*
X160535257Y-80434542D01*
X160462685Y-80470828D01*
G04 #@! TO.C,R2*
X123808400Y-81371114D02*
X123554400Y-81008257D01*
X123372971Y-81371114D02*
X123372971Y-80609114D01*
X123663257Y-80609114D01*
X123735828Y-80645400D01*
X123772114Y-80681685D01*
X123808400Y-80754257D01*
X123808400Y-80863114D01*
X123772114Y-80935685D01*
X123735828Y-80971971D01*
X123663257Y-81008257D01*
X123372971Y-81008257D01*
X124098685Y-80681685D02*
X124134971Y-80645400D01*
X124207542Y-80609114D01*
X124388971Y-80609114D01*
X124461542Y-80645400D01*
X124497828Y-80681685D01*
X124534114Y-80754257D01*
X124534114Y-80826828D01*
X124497828Y-80935685D01*
X124062400Y-81371114D01*
X124534114Y-81371114D01*
G04 #@! TO.C,U2*
X159495308Y-50735774D02*
X159495308Y-51352631D01*
X159531594Y-51425202D01*
X159567880Y-51461488D01*
X159640451Y-51497774D01*
X159785594Y-51497774D01*
X159858165Y-51461488D01*
X159894451Y-51425202D01*
X159930737Y-51352631D01*
X159930737Y-50735774D01*
X160257308Y-50808345D02*
X160293594Y-50772060D01*
X160366165Y-50735774D01*
X160547594Y-50735774D01*
X160620165Y-50772060D01*
X160656451Y-50808345D01*
X160692737Y-50880917D01*
X160692737Y-50953488D01*
X160656451Y-51062345D01*
X160221022Y-51497774D01*
X160692737Y-51497774D01*
G04 #@! TO.C,U5*
X125682828Y-106478614D02*
X125682828Y-107095471D01*
X125719114Y-107168042D01*
X125755400Y-107204328D01*
X125827971Y-107240614D01*
X125973114Y-107240614D01*
X126045685Y-107204328D01*
X126081971Y-107168042D01*
X126118257Y-107095471D01*
X126118257Y-106478614D01*
X126843971Y-106478614D02*
X126481114Y-106478614D01*
X126444828Y-106841471D01*
X126481114Y-106805185D01*
X126553685Y-106768900D01*
X126735114Y-106768900D01*
X126807685Y-106805185D01*
X126843971Y-106841471D01*
X126880257Y-106914042D01*
X126880257Y-107095471D01*
X126843971Y-107168042D01*
X126807685Y-107204328D01*
X126735114Y-107240614D01*
X126553685Y-107240614D01*
X126481114Y-107204328D01*
X126444828Y-107168042D01*
G04 #@! TO.C,U3*
X166846068Y-50791654D02*
X166846068Y-51408511D01*
X166882354Y-51481082D01*
X166918640Y-51517368D01*
X166991211Y-51553654D01*
X167136354Y-51553654D01*
X167208925Y-51517368D01*
X167245211Y-51481082D01*
X167281497Y-51408511D01*
X167281497Y-50791654D01*
X167571782Y-50791654D02*
X168043497Y-50791654D01*
X167789497Y-51081940D01*
X167898354Y-51081940D01*
X167970925Y-51118225D01*
X168007211Y-51154511D01*
X168043497Y-51227082D01*
X168043497Y-51408511D01*
X168007211Y-51481082D01*
X167970925Y-51517368D01*
X167898354Y-51553654D01*
X167680640Y-51553654D01*
X167608068Y-51517368D01*
X167571782Y-51481082D01*
G04 #@! TO.C,SW1*
X123625428Y-49911000D02*
X123661714Y-49802142D01*
X123661714Y-49620714D01*
X123625428Y-49548142D01*
X123589142Y-49511857D01*
X123516571Y-49475571D01*
X123444000Y-49475571D01*
X123371428Y-49511857D01*
X123335142Y-49548142D01*
X123298857Y-49620714D01*
X123262571Y-49765857D01*
X123226285Y-49838428D01*
X123190000Y-49874714D01*
X123117428Y-49911000D01*
X123044857Y-49911000D01*
X122972285Y-49874714D01*
X122936000Y-49838428D01*
X122899714Y-49765857D01*
X122899714Y-49584428D01*
X122936000Y-49475571D01*
X122899714Y-49221571D02*
X123661714Y-49040142D01*
X123117428Y-48895000D01*
X123661714Y-48749857D01*
X122899714Y-48568428D01*
X123661714Y-47879000D02*
X123661714Y-48314428D01*
X123661714Y-48096714D02*
X122899714Y-48096714D01*
X123008571Y-48169285D01*
X123081142Y-48241857D01*
X123117428Y-48314428D01*
G04 #@! TO.C,SW2*
X129213428Y-49944000D02*
X129249714Y-49835142D01*
X129249714Y-49653714D01*
X129213428Y-49581142D01*
X129177142Y-49544857D01*
X129104571Y-49508571D01*
X129032000Y-49508571D01*
X128959428Y-49544857D01*
X128923142Y-49581142D01*
X128886857Y-49653714D01*
X128850571Y-49798857D01*
X128814285Y-49871428D01*
X128778000Y-49907714D01*
X128705428Y-49944000D01*
X128632857Y-49944000D01*
X128560285Y-49907714D01*
X128524000Y-49871428D01*
X128487714Y-49798857D01*
X128487714Y-49617428D01*
X128524000Y-49508571D01*
X128487714Y-49254571D02*
X129249714Y-49073142D01*
X128705428Y-48928000D01*
X129249714Y-48782857D01*
X128487714Y-48601428D01*
X128560285Y-48347428D02*
X128524000Y-48311142D01*
X128487714Y-48238571D01*
X128487714Y-48057142D01*
X128524000Y-47984571D01*
X128560285Y-47948285D01*
X128632857Y-47912000D01*
X128705428Y-47912000D01*
X128814285Y-47948285D01*
X129249714Y-48383714D01*
X129249714Y-47912000D01*
G04 #@! TO.C,SW3*
X134938268Y-49886000D02*
X134974554Y-49777142D01*
X134974554Y-49595714D01*
X134938268Y-49523142D01*
X134901982Y-49486857D01*
X134829411Y-49450571D01*
X134756840Y-49450571D01*
X134684268Y-49486857D01*
X134647982Y-49523142D01*
X134611697Y-49595714D01*
X134575411Y-49740857D01*
X134539125Y-49813428D01*
X134502840Y-49849714D01*
X134430268Y-49886000D01*
X134357697Y-49886000D01*
X134285125Y-49849714D01*
X134248840Y-49813428D01*
X134212554Y-49740857D01*
X134212554Y-49559428D01*
X134248840Y-49450571D01*
X134212554Y-49196571D02*
X134974554Y-49015142D01*
X134430268Y-48870000D01*
X134974554Y-48724857D01*
X134212554Y-48543428D01*
X134212554Y-48325714D02*
X134212554Y-47854000D01*
X134502840Y-48108000D01*
X134502840Y-47999142D01*
X134539125Y-47926571D01*
X134575411Y-47890285D01*
X134647982Y-47854000D01*
X134829411Y-47854000D01*
X134901982Y-47890285D01*
X134938268Y-47926571D01*
X134974554Y-47999142D01*
X134974554Y-48216857D01*
X134938268Y-48289428D01*
X134901982Y-48325714D01*
G04 #@! TO.C,U7*
X128448428Y-63273714D02*
X128448428Y-63890571D01*
X128484714Y-63963142D01*
X128521000Y-63999428D01*
X128593571Y-64035714D01*
X128738714Y-64035714D01*
X128811285Y-63999428D01*
X128847571Y-63963142D01*
X128883857Y-63890571D01*
X128883857Y-63273714D01*
X129174142Y-63273714D02*
X129682142Y-63273714D01*
X129355571Y-64035714D01*
G04 #@! TO.C,U4*
X122917714Y-102414971D02*
X123534571Y-102414971D01*
X123607142Y-102378685D01*
X123643428Y-102342400D01*
X123679714Y-102269828D01*
X123679714Y-102124685D01*
X123643428Y-102052114D01*
X123607142Y-102015828D01*
X123534571Y-101979542D01*
X122917714Y-101979542D01*
X123171714Y-101290114D02*
X123679714Y-101290114D01*
X122881428Y-101471542D02*
X123425714Y-101652971D01*
X123425714Y-101181257D01*
G04 #@! TO.C,JP1*
X125846114Y-103606600D02*
X126390400Y-103606600D01*
X126499257Y-103642885D01*
X126571828Y-103715457D01*
X126608114Y-103824314D01*
X126608114Y-103896885D01*
X126608114Y-103243742D02*
X125846114Y-103243742D01*
X125846114Y-102953457D01*
X125882400Y-102880885D01*
X125918685Y-102844600D01*
X125991257Y-102808314D01*
X126100114Y-102808314D01*
X126172685Y-102844600D01*
X126208971Y-102880885D01*
X126245257Y-102953457D01*
X126245257Y-103243742D01*
X126608114Y-102082600D02*
X126608114Y-102518028D01*
X126608114Y-102300314D02*
X125846114Y-102300314D01*
X125954971Y-102372885D01*
X126027542Y-102445457D01*
X126063828Y-102518028D01*
G04 #@! TO.C,JP2*
X133974114Y-103784400D02*
X134518400Y-103784400D01*
X134627257Y-103820685D01*
X134699828Y-103893257D01*
X134736114Y-104002114D01*
X134736114Y-104074685D01*
X134736114Y-103421542D02*
X133974114Y-103421542D01*
X133974114Y-103131257D01*
X134010400Y-103058685D01*
X134046685Y-103022400D01*
X134119257Y-102986114D01*
X134228114Y-102986114D01*
X134300685Y-103022400D01*
X134336971Y-103058685D01*
X134373257Y-103131257D01*
X134373257Y-103421542D01*
X134046685Y-102695828D02*
X134010400Y-102659542D01*
X133974114Y-102586971D01*
X133974114Y-102405542D01*
X134010400Y-102332971D01*
X134046685Y-102296685D01*
X134119257Y-102260400D01*
X134191828Y-102260400D01*
X134300685Y-102296685D01*
X134736114Y-102732114D01*
X134736114Y-102260400D01*
G04 #@! TO.C,P2*
X112111034Y-98012068D02*
X111349034Y-98012068D01*
X111349034Y-97721782D01*
X111385320Y-97649211D01*
X111421605Y-97612925D01*
X111494177Y-97576640D01*
X111603034Y-97576640D01*
X111675605Y-97612925D01*
X111711891Y-97649211D01*
X111748177Y-97721782D01*
X111748177Y-98012068D01*
X111421605Y-97286354D02*
X111385320Y-97250068D01*
X111349034Y-97177497D01*
X111349034Y-96996068D01*
X111385320Y-96923497D01*
X111421605Y-96887211D01*
X111494177Y-96850925D01*
X111566748Y-96850925D01*
X111675605Y-96887211D01*
X112111034Y-97322640D01*
X112111034Y-96850925D01*
G04 #@! TO.C,C29*
X123455142Y-89526542D02*
X123418857Y-89562828D01*
X123310000Y-89599114D01*
X123237428Y-89599114D01*
X123128571Y-89562828D01*
X123056000Y-89490257D01*
X123019714Y-89417685D01*
X122983428Y-89272542D01*
X122983428Y-89163685D01*
X123019714Y-89018542D01*
X123056000Y-88945971D01*
X123128571Y-88873400D01*
X123237428Y-88837114D01*
X123310000Y-88837114D01*
X123418857Y-88873400D01*
X123455142Y-88909685D01*
X123745428Y-88909685D02*
X123781714Y-88873400D01*
X123854285Y-88837114D01*
X124035714Y-88837114D01*
X124108285Y-88873400D01*
X124144571Y-88909685D01*
X124180857Y-88982257D01*
X124180857Y-89054828D01*
X124144571Y-89163685D01*
X123709142Y-89599114D01*
X124180857Y-89599114D01*
X124543714Y-89599114D02*
X124688857Y-89599114D01*
X124761428Y-89562828D01*
X124797714Y-89526542D01*
X124870285Y-89417685D01*
X124906571Y-89272542D01*
X124906571Y-88982257D01*
X124870285Y-88909685D01*
X124834000Y-88873400D01*
X124761428Y-88837114D01*
X124616285Y-88837114D01*
X124543714Y-88873400D01*
X124507428Y-88909685D01*
X124471142Y-88982257D01*
X124471142Y-89163685D01*
X124507428Y-89236257D01*
X124543714Y-89272542D01*
X124616285Y-89308828D01*
X124761428Y-89308828D01*
X124834000Y-89272542D01*
X124870285Y-89236257D01*
X124906571Y-89163685D01*
G04 #@! TO.C,C46*
X132110142Y-63266142D02*
X132073857Y-63302428D01*
X131965000Y-63338714D01*
X131892428Y-63338714D01*
X131783571Y-63302428D01*
X131711000Y-63229857D01*
X131674714Y-63157285D01*
X131638428Y-63012142D01*
X131638428Y-62903285D01*
X131674714Y-62758142D01*
X131711000Y-62685571D01*
X131783571Y-62613000D01*
X131892428Y-62576714D01*
X131965000Y-62576714D01*
X132073857Y-62613000D01*
X132110142Y-62649285D01*
X132763285Y-62830714D02*
X132763285Y-63338714D01*
X132581857Y-62540428D02*
X132400428Y-63084714D01*
X132872142Y-63084714D01*
X133489000Y-62576714D02*
X133343857Y-62576714D01*
X133271285Y-62613000D01*
X133235000Y-62649285D01*
X133162428Y-62758142D01*
X133126142Y-62903285D01*
X133126142Y-63193571D01*
X133162428Y-63266142D01*
X133198714Y-63302428D01*
X133271285Y-63338714D01*
X133416428Y-63338714D01*
X133489000Y-63302428D01*
X133525285Y-63266142D01*
X133561571Y-63193571D01*
X133561571Y-63012142D01*
X133525285Y-62939571D01*
X133489000Y-62903285D01*
X133416428Y-62867000D01*
X133271285Y-62867000D01*
X133198714Y-62903285D01*
X133162428Y-62939571D01*
X133126142Y-63012142D01*
G04 #@! TO.C,R11*
X134252342Y-110050114D02*
X133998342Y-109687257D01*
X133816914Y-110050114D02*
X133816914Y-109288114D01*
X134107200Y-109288114D01*
X134179771Y-109324400D01*
X134216057Y-109360685D01*
X134252342Y-109433257D01*
X134252342Y-109542114D01*
X134216057Y-109614685D01*
X134179771Y-109650971D01*
X134107200Y-109687257D01*
X133816914Y-109687257D01*
X134978057Y-110050114D02*
X134542628Y-110050114D01*
X134760342Y-110050114D02*
X134760342Y-109288114D01*
X134687771Y-109396971D01*
X134615200Y-109469542D01*
X134542628Y-109505828D01*
X135703771Y-110050114D02*
X135268342Y-110050114D01*
X135486057Y-110050114D02*
X135486057Y-109288114D01*
X135413485Y-109396971D01*
X135340914Y-109469542D01*
X135268342Y-109505828D01*
G04 #@! TO.C,R12*
X125466914Y-117305257D02*
X125104057Y-117559257D01*
X125466914Y-117740685D02*
X124704914Y-117740685D01*
X124704914Y-117450400D01*
X124741200Y-117377828D01*
X124777485Y-117341542D01*
X124850057Y-117305257D01*
X124958914Y-117305257D01*
X125031485Y-117341542D01*
X125067771Y-117377828D01*
X125104057Y-117450400D01*
X125104057Y-117740685D01*
X125466914Y-116579542D02*
X125466914Y-117014971D01*
X125466914Y-116797257D02*
X124704914Y-116797257D01*
X124813771Y-116869828D01*
X124886342Y-116942400D01*
X124922628Y-117014971D01*
X124777485Y-116289257D02*
X124741200Y-116252971D01*
X124704914Y-116180400D01*
X124704914Y-115998971D01*
X124741200Y-115926400D01*
X124777485Y-115890114D01*
X124850057Y-115853828D01*
X124922628Y-115853828D01*
X125031485Y-115890114D01*
X125466914Y-116325542D01*
X125466914Y-115853828D01*
G04 #@! TO.C,R13*
X126890914Y-117337257D02*
X126528057Y-117591257D01*
X126890914Y-117772685D02*
X126128914Y-117772685D01*
X126128914Y-117482400D01*
X126165200Y-117409828D01*
X126201485Y-117373542D01*
X126274057Y-117337257D01*
X126382914Y-117337257D01*
X126455485Y-117373542D01*
X126491771Y-117409828D01*
X126528057Y-117482400D01*
X126528057Y-117772685D01*
X126890914Y-116611542D02*
X126890914Y-117046971D01*
X126890914Y-116829257D02*
X126128914Y-116829257D01*
X126237771Y-116901828D01*
X126310342Y-116974400D01*
X126346628Y-117046971D01*
X126128914Y-116357542D02*
X126128914Y-115885828D01*
X126419200Y-116139828D01*
X126419200Y-116030971D01*
X126455485Y-115958400D01*
X126491771Y-115922114D01*
X126564342Y-115885828D01*
X126745771Y-115885828D01*
X126818342Y-115922114D01*
X126854628Y-115958400D01*
X126890914Y-116030971D01*
X126890914Y-116248685D01*
X126854628Y-116321257D01*
X126818342Y-116357542D01*
G04 #@! TO.C,R14*
X134252342Y-111550114D02*
X133998342Y-111187257D01*
X133816914Y-111550114D02*
X133816914Y-110788114D01*
X134107200Y-110788114D01*
X134179771Y-110824400D01*
X134216057Y-110860685D01*
X134252342Y-110933257D01*
X134252342Y-111042114D01*
X134216057Y-111114685D01*
X134179771Y-111150971D01*
X134107200Y-111187257D01*
X133816914Y-111187257D01*
X134978057Y-111550114D02*
X134542628Y-111550114D01*
X134760342Y-111550114D02*
X134760342Y-110788114D01*
X134687771Y-110896971D01*
X134615200Y-110969542D01*
X134542628Y-111005828D01*
X135631200Y-111042114D02*
X135631200Y-111550114D01*
X135449771Y-110751828D02*
X135268342Y-111296114D01*
X135740057Y-111296114D01*
G04 #@! TO.C,R15*
X129532742Y-94197714D02*
X129278742Y-93834857D01*
X129097314Y-94197714D02*
X129097314Y-93435714D01*
X129387600Y-93435714D01*
X129460171Y-93472000D01*
X129496457Y-93508285D01*
X129532742Y-93580857D01*
X129532742Y-93689714D01*
X129496457Y-93762285D01*
X129460171Y-93798571D01*
X129387600Y-93834857D01*
X129097314Y-93834857D01*
X130258457Y-94197714D02*
X129823028Y-94197714D01*
X130040742Y-94197714D02*
X130040742Y-93435714D01*
X129968171Y-93544571D01*
X129895600Y-93617142D01*
X129823028Y-93653428D01*
X130947885Y-93435714D02*
X130585028Y-93435714D01*
X130548742Y-93798571D01*
X130585028Y-93762285D01*
X130657600Y-93726000D01*
X130839028Y-93726000D01*
X130911600Y-93762285D01*
X130947885Y-93798571D01*
X130984171Y-93871142D01*
X130984171Y-94052571D01*
X130947885Y-94125142D01*
X130911600Y-94161428D01*
X130839028Y-94197714D01*
X130657600Y-94197714D01*
X130585028Y-94161428D01*
X130548742Y-94125142D01*
G04 #@! TO.C,R16*
X129507342Y-95696314D02*
X129253342Y-95333457D01*
X129071914Y-95696314D02*
X129071914Y-94934314D01*
X129362200Y-94934314D01*
X129434771Y-94970600D01*
X129471057Y-95006885D01*
X129507342Y-95079457D01*
X129507342Y-95188314D01*
X129471057Y-95260885D01*
X129434771Y-95297171D01*
X129362200Y-95333457D01*
X129071914Y-95333457D01*
X130233057Y-95696314D02*
X129797628Y-95696314D01*
X130015342Y-95696314D02*
X130015342Y-94934314D01*
X129942771Y-95043171D01*
X129870200Y-95115742D01*
X129797628Y-95152028D01*
X130886200Y-94934314D02*
X130741057Y-94934314D01*
X130668485Y-94970600D01*
X130632200Y-95006885D01*
X130559628Y-95115742D01*
X130523342Y-95260885D01*
X130523342Y-95551171D01*
X130559628Y-95623742D01*
X130595914Y-95660028D01*
X130668485Y-95696314D01*
X130813628Y-95696314D01*
X130886200Y-95660028D01*
X130922485Y-95623742D01*
X130958771Y-95551171D01*
X130958771Y-95369742D01*
X130922485Y-95297171D01*
X130886200Y-95260885D01*
X130813628Y-95224600D01*
X130668485Y-95224600D01*
X130595914Y-95260885D01*
X130559628Y-95297171D01*
X130523342Y-95369742D01*
G04 #@! TO.C,R17*
X124801142Y-54795714D02*
X124547142Y-54432857D01*
X124365714Y-54795714D02*
X124365714Y-54033714D01*
X124656000Y-54033714D01*
X124728571Y-54070000D01*
X124764857Y-54106285D01*
X124801142Y-54178857D01*
X124801142Y-54287714D01*
X124764857Y-54360285D01*
X124728571Y-54396571D01*
X124656000Y-54432857D01*
X124365714Y-54432857D01*
X125526857Y-54795714D02*
X125091428Y-54795714D01*
X125309142Y-54795714D02*
X125309142Y-54033714D01*
X125236571Y-54142571D01*
X125164000Y-54215142D01*
X125091428Y-54251428D01*
X125780857Y-54033714D02*
X126288857Y-54033714D01*
X125962285Y-54795714D01*
G04 #@! TO.C,R18*
X130760142Y-54844714D02*
X130506142Y-54481857D01*
X130324714Y-54844714D02*
X130324714Y-54082714D01*
X130615000Y-54082714D01*
X130687571Y-54119000D01*
X130723857Y-54155285D01*
X130760142Y-54227857D01*
X130760142Y-54336714D01*
X130723857Y-54409285D01*
X130687571Y-54445571D01*
X130615000Y-54481857D01*
X130324714Y-54481857D01*
X131485857Y-54844714D02*
X131050428Y-54844714D01*
X131268142Y-54844714D02*
X131268142Y-54082714D01*
X131195571Y-54191571D01*
X131123000Y-54264142D01*
X131050428Y-54300428D01*
X131921285Y-54409285D02*
X131848714Y-54373000D01*
X131812428Y-54336714D01*
X131776142Y-54264142D01*
X131776142Y-54227857D01*
X131812428Y-54155285D01*
X131848714Y-54119000D01*
X131921285Y-54082714D01*
X132066428Y-54082714D01*
X132139000Y-54119000D01*
X132175285Y-54155285D01*
X132211571Y-54227857D01*
X132211571Y-54264142D01*
X132175285Y-54336714D01*
X132139000Y-54373000D01*
X132066428Y-54409285D01*
X131921285Y-54409285D01*
X131848714Y-54445571D01*
X131812428Y-54481857D01*
X131776142Y-54554428D01*
X131776142Y-54699571D01*
X131812428Y-54772142D01*
X131848714Y-54808428D01*
X131921285Y-54844714D01*
X132066428Y-54844714D01*
X132139000Y-54808428D01*
X132175285Y-54772142D01*
X132211571Y-54699571D01*
X132211571Y-54554428D01*
X132175285Y-54481857D01*
X132139000Y-54445571D01*
X132066428Y-54409285D01*
G04 #@! TO.C,R19*
X124801142Y-56192714D02*
X124547142Y-55829857D01*
X124365714Y-56192714D02*
X124365714Y-55430714D01*
X124656000Y-55430714D01*
X124728571Y-55467000D01*
X124764857Y-55503285D01*
X124801142Y-55575857D01*
X124801142Y-55684714D01*
X124764857Y-55757285D01*
X124728571Y-55793571D01*
X124656000Y-55829857D01*
X124365714Y-55829857D01*
X125526857Y-56192714D02*
X125091428Y-56192714D01*
X125309142Y-56192714D02*
X125309142Y-55430714D01*
X125236571Y-55539571D01*
X125164000Y-55612142D01*
X125091428Y-55648428D01*
X125889714Y-56192714D02*
X126034857Y-56192714D01*
X126107428Y-56156428D01*
X126143714Y-56120142D01*
X126216285Y-56011285D01*
X126252571Y-55866142D01*
X126252571Y-55575857D01*
X126216285Y-55503285D01*
X126180000Y-55467000D01*
X126107428Y-55430714D01*
X125962285Y-55430714D01*
X125889714Y-55467000D01*
X125853428Y-55503285D01*
X125817142Y-55575857D01*
X125817142Y-55757285D01*
X125853428Y-55829857D01*
X125889714Y-55866142D01*
X125962285Y-55902428D01*
X126107428Y-55902428D01*
X126180000Y-55866142D01*
X126216285Y-55829857D01*
X126252571Y-55757285D01*
G04 #@! TO.C,R20*
X130710142Y-56214714D02*
X130456142Y-55851857D01*
X130274714Y-56214714D02*
X130274714Y-55452714D01*
X130565000Y-55452714D01*
X130637571Y-55489000D01*
X130673857Y-55525285D01*
X130710142Y-55597857D01*
X130710142Y-55706714D01*
X130673857Y-55779285D01*
X130637571Y-55815571D01*
X130565000Y-55851857D01*
X130274714Y-55851857D01*
X131000428Y-55525285D02*
X131036714Y-55489000D01*
X131109285Y-55452714D01*
X131290714Y-55452714D01*
X131363285Y-55489000D01*
X131399571Y-55525285D01*
X131435857Y-55597857D01*
X131435857Y-55670428D01*
X131399571Y-55779285D01*
X130964142Y-56214714D01*
X131435857Y-56214714D01*
X131907571Y-55452714D02*
X131980142Y-55452714D01*
X132052714Y-55489000D01*
X132089000Y-55525285D01*
X132125285Y-55597857D01*
X132161571Y-55743000D01*
X132161571Y-55924428D01*
X132125285Y-56069571D01*
X132089000Y-56142142D01*
X132052714Y-56178428D01*
X131980142Y-56214714D01*
X131907571Y-56214714D01*
X131835000Y-56178428D01*
X131798714Y-56142142D01*
X131762428Y-56069571D01*
X131726142Y-55924428D01*
X131726142Y-55743000D01*
X131762428Y-55597857D01*
X131798714Y-55525285D01*
X131835000Y-55489000D01*
X131907571Y-55452714D01*
G04 #@! TO.C,R8*
X132729514Y-98933000D02*
X132366657Y-99187000D01*
X132729514Y-99368428D02*
X131967514Y-99368428D01*
X131967514Y-99078142D01*
X132003800Y-99005571D01*
X132040085Y-98969285D01*
X132112657Y-98933000D01*
X132221514Y-98933000D01*
X132294085Y-98969285D01*
X132330371Y-99005571D01*
X132366657Y-99078142D01*
X132366657Y-99368428D01*
X132294085Y-98497571D02*
X132257800Y-98570142D01*
X132221514Y-98606428D01*
X132148942Y-98642714D01*
X132112657Y-98642714D01*
X132040085Y-98606428D01*
X132003800Y-98570142D01*
X131967514Y-98497571D01*
X131967514Y-98352428D01*
X132003800Y-98279857D01*
X132040085Y-98243571D01*
X132112657Y-98207285D01*
X132148942Y-98207285D01*
X132221514Y-98243571D01*
X132257800Y-98279857D01*
X132294085Y-98352428D01*
X132294085Y-98497571D01*
X132330371Y-98570142D01*
X132366657Y-98606428D01*
X132439228Y-98642714D01*
X132584371Y-98642714D01*
X132656942Y-98606428D01*
X132693228Y-98570142D01*
X132729514Y-98497571D01*
X132729514Y-98352428D01*
X132693228Y-98279857D01*
X132656942Y-98243571D01*
X132584371Y-98207285D01*
X132439228Y-98207285D01*
X132366657Y-98243571D01*
X132330371Y-98279857D01*
X132294085Y-98352428D01*
G04 #@! TO.C,R9*
X129173514Y-98958400D02*
X128810657Y-99212400D01*
X129173514Y-99393828D02*
X128411514Y-99393828D01*
X128411514Y-99103542D01*
X128447800Y-99030971D01*
X128484085Y-98994685D01*
X128556657Y-98958400D01*
X128665514Y-98958400D01*
X128738085Y-98994685D01*
X128774371Y-99030971D01*
X128810657Y-99103542D01*
X128810657Y-99393828D01*
X129173514Y-98595542D02*
X129173514Y-98450400D01*
X129137228Y-98377828D01*
X129100942Y-98341542D01*
X128992085Y-98268971D01*
X128846942Y-98232685D01*
X128556657Y-98232685D01*
X128484085Y-98268971D01*
X128447800Y-98305257D01*
X128411514Y-98377828D01*
X128411514Y-98522971D01*
X128447800Y-98595542D01*
X128484085Y-98631828D01*
X128556657Y-98668114D01*
X128738085Y-98668114D01*
X128810657Y-98631828D01*
X128846942Y-98595542D01*
X128883228Y-98522971D01*
X128883228Y-98377828D01*
X128846942Y-98305257D01*
X128810657Y-98268971D01*
X128738085Y-98232685D01*
G04 #@! TO.C,R23*
X131841314Y-116504657D02*
X131478457Y-116758657D01*
X131841314Y-116940085D02*
X131079314Y-116940085D01*
X131079314Y-116649800D01*
X131115600Y-116577228D01*
X131151885Y-116540942D01*
X131224457Y-116504657D01*
X131333314Y-116504657D01*
X131405885Y-116540942D01*
X131442171Y-116577228D01*
X131478457Y-116649800D01*
X131478457Y-116940085D01*
X131151885Y-116214371D02*
X131115600Y-116178085D01*
X131079314Y-116105514D01*
X131079314Y-115924085D01*
X131115600Y-115851514D01*
X131151885Y-115815228D01*
X131224457Y-115778942D01*
X131297028Y-115778942D01*
X131405885Y-115815228D01*
X131841314Y-116250657D01*
X131841314Y-115778942D01*
X131079314Y-115524942D02*
X131079314Y-115053228D01*
X131369600Y-115307228D01*
X131369600Y-115198371D01*
X131405885Y-115125800D01*
X131442171Y-115089514D01*
X131514742Y-115053228D01*
X131696171Y-115053228D01*
X131768742Y-115089514D01*
X131805028Y-115125800D01*
X131841314Y-115198371D01*
X131841314Y-115416085D01*
X131805028Y-115488657D01*
X131768742Y-115524942D01*
G04 #@! TO.C,R24*
X135411754Y-116527217D02*
X135048897Y-116781217D01*
X135411754Y-116962645D02*
X134649754Y-116962645D01*
X134649754Y-116672360D01*
X134686040Y-116599788D01*
X134722325Y-116563502D01*
X134794897Y-116527217D01*
X134903754Y-116527217D01*
X134976325Y-116563502D01*
X135012611Y-116599788D01*
X135048897Y-116672360D01*
X135048897Y-116962645D01*
X134722325Y-116236931D02*
X134686040Y-116200645D01*
X134649754Y-116128074D01*
X134649754Y-115946645D01*
X134686040Y-115874074D01*
X134722325Y-115837788D01*
X134794897Y-115801502D01*
X134867468Y-115801502D01*
X134976325Y-115837788D01*
X135411754Y-116273217D01*
X135411754Y-115801502D01*
X134903754Y-115148360D02*
X135411754Y-115148360D01*
X134613468Y-115329788D02*
X135157754Y-115511217D01*
X135157754Y-115039502D01*
G04 #@! TO.C,R25*
X129993934Y-116517057D02*
X129631077Y-116771057D01*
X129993934Y-116952485D02*
X129231934Y-116952485D01*
X129231934Y-116662200D01*
X129268220Y-116589628D01*
X129304505Y-116553342D01*
X129377077Y-116517057D01*
X129485934Y-116517057D01*
X129558505Y-116553342D01*
X129594791Y-116589628D01*
X129631077Y-116662200D01*
X129631077Y-116952485D01*
X129304505Y-116226771D02*
X129268220Y-116190485D01*
X129231934Y-116117914D01*
X129231934Y-115936485D01*
X129268220Y-115863914D01*
X129304505Y-115827628D01*
X129377077Y-115791342D01*
X129449648Y-115791342D01*
X129558505Y-115827628D01*
X129993934Y-116263057D01*
X129993934Y-115791342D01*
X129231934Y-115101914D02*
X129231934Y-115464771D01*
X129594791Y-115501057D01*
X129558505Y-115464771D01*
X129522220Y-115392200D01*
X129522220Y-115210771D01*
X129558505Y-115138200D01*
X129594791Y-115101914D01*
X129667362Y-115065628D01*
X129848791Y-115065628D01*
X129921362Y-115101914D01*
X129957648Y-115138200D01*
X129993934Y-115210771D01*
X129993934Y-115392200D01*
X129957648Y-115464771D01*
X129921362Y-115501057D01*
G04 #@! TO.C,R26*
X133598194Y-116461177D02*
X133235337Y-116715177D01*
X133598194Y-116896605D02*
X132836194Y-116896605D01*
X132836194Y-116606320D01*
X132872480Y-116533748D01*
X132908765Y-116497462D01*
X132981337Y-116461177D01*
X133090194Y-116461177D01*
X133162765Y-116497462D01*
X133199051Y-116533748D01*
X133235337Y-116606320D01*
X133235337Y-116896605D01*
X132908765Y-116170891D02*
X132872480Y-116134605D01*
X132836194Y-116062034D01*
X132836194Y-115880605D01*
X132872480Y-115808034D01*
X132908765Y-115771748D01*
X132981337Y-115735462D01*
X133053908Y-115735462D01*
X133162765Y-115771748D01*
X133598194Y-116207177D01*
X133598194Y-115735462D01*
X132836194Y-115082320D02*
X132836194Y-115227462D01*
X132872480Y-115300034D01*
X132908765Y-115336320D01*
X133017622Y-115408891D01*
X133162765Y-115445177D01*
X133453051Y-115445177D01*
X133525622Y-115408891D01*
X133561908Y-115372605D01*
X133598194Y-115300034D01*
X133598194Y-115154891D01*
X133561908Y-115082320D01*
X133525622Y-115046034D01*
X133453051Y-115009748D01*
X133271622Y-115009748D01*
X133199051Y-115046034D01*
X133162765Y-115082320D01*
X133126480Y-115154891D01*
X133126480Y-115300034D01*
X133162765Y-115372605D01*
X133199051Y-115408891D01*
X133271622Y-115445177D01*
G04 #@! TO.C,R3*
X135094714Y-54887000D02*
X134731857Y-55141000D01*
X135094714Y-55322428D02*
X134332714Y-55322428D01*
X134332714Y-55032142D01*
X134369000Y-54959571D01*
X134405285Y-54923285D01*
X134477857Y-54887000D01*
X134586714Y-54887000D01*
X134659285Y-54923285D01*
X134695571Y-54959571D01*
X134731857Y-55032142D01*
X134731857Y-55322428D01*
X134332714Y-54633000D02*
X134332714Y-54161285D01*
X134623000Y-54415285D01*
X134623000Y-54306428D01*
X134659285Y-54233857D01*
X134695571Y-54197571D01*
X134768142Y-54161285D01*
X134949571Y-54161285D01*
X135022142Y-54197571D01*
X135058428Y-54233857D01*
X135094714Y-54306428D01*
X135094714Y-54524142D01*
X135058428Y-54596714D01*
X135022142Y-54633000D01*
G04 #@! TO.C,C44*
X125309142Y-57644142D02*
X125272857Y-57680428D01*
X125164000Y-57716714D01*
X125091428Y-57716714D01*
X124982571Y-57680428D01*
X124910000Y-57607857D01*
X124873714Y-57535285D01*
X124837428Y-57390142D01*
X124837428Y-57281285D01*
X124873714Y-57136142D01*
X124910000Y-57063571D01*
X124982571Y-56991000D01*
X125091428Y-56954714D01*
X125164000Y-56954714D01*
X125272857Y-56991000D01*
X125309142Y-57027285D01*
X125962285Y-57208714D02*
X125962285Y-57716714D01*
X125780857Y-56918428D02*
X125599428Y-57462714D01*
X126071142Y-57462714D01*
X126688000Y-57208714D02*
X126688000Y-57716714D01*
X126506571Y-56918428D02*
X126325142Y-57462714D01*
X126796857Y-57462714D01*
G04 #@! TO.C,C45*
X131405142Y-57644142D02*
X131368857Y-57680428D01*
X131260000Y-57716714D01*
X131187428Y-57716714D01*
X131078571Y-57680428D01*
X131006000Y-57607857D01*
X130969714Y-57535285D01*
X130933428Y-57390142D01*
X130933428Y-57281285D01*
X130969714Y-57136142D01*
X131006000Y-57063571D01*
X131078571Y-56991000D01*
X131187428Y-56954714D01*
X131260000Y-56954714D01*
X131368857Y-56991000D01*
X131405142Y-57027285D01*
X132058285Y-57208714D02*
X132058285Y-57716714D01*
X131876857Y-56918428D02*
X131695428Y-57462714D01*
X132167142Y-57462714D01*
X132820285Y-56954714D02*
X132457428Y-56954714D01*
X132421142Y-57317571D01*
X132457428Y-57281285D01*
X132530000Y-57245000D01*
X132711428Y-57245000D01*
X132784000Y-57281285D01*
X132820285Y-57317571D01*
X132856571Y-57390142D01*
X132856571Y-57571571D01*
X132820285Y-57644142D01*
X132784000Y-57680428D01*
X132711428Y-57716714D01*
X132530000Y-57716714D01*
X132457428Y-57680428D01*
X132421142Y-57644142D01*
G04 #@! TO.C,D5*
X154692314Y-93998828D02*
X153930314Y-93998828D01*
X153930314Y-93817400D01*
X153966600Y-93708542D01*
X154039171Y-93635971D01*
X154111742Y-93599685D01*
X154256885Y-93563400D01*
X154365742Y-93563400D01*
X154510885Y-93599685D01*
X154583457Y-93635971D01*
X154656028Y-93708542D01*
X154692314Y-93817400D01*
X154692314Y-93998828D01*
X153930314Y-92873971D02*
X153930314Y-93236828D01*
X154293171Y-93273114D01*
X154256885Y-93236828D01*
X154220600Y-93164257D01*
X154220600Y-92982828D01*
X154256885Y-92910257D01*
X154293171Y-92873971D01*
X154365742Y-92837685D01*
X154547171Y-92837685D01*
X154619742Y-92873971D01*
X154656028Y-92910257D01*
X154692314Y-92982828D01*
X154692314Y-93164257D01*
X154656028Y-93236828D01*
X154619742Y-93273114D01*
G04 #@! TO.C,P4*
X172310334Y-94158888D02*
X171548334Y-94158888D01*
X171548334Y-93868602D01*
X171584620Y-93796031D01*
X171620905Y-93759745D01*
X171693477Y-93723460D01*
X171802334Y-93723460D01*
X171874905Y-93759745D01*
X171911191Y-93796031D01*
X171947477Y-93868602D01*
X171947477Y-94158888D01*
X171802334Y-93070317D02*
X172310334Y-93070317D01*
X171512048Y-93251745D02*
X172056334Y-93433174D01*
X172056334Y-92961460D01*
G04 #@! TO.C,Y1*
X129924642Y-88556157D02*
X129924642Y-88919014D01*
X129670642Y-88157014D02*
X129924642Y-88556157D01*
X130178642Y-88157014D01*
X130831785Y-88919014D02*
X130396357Y-88919014D01*
X130614071Y-88919014D02*
X130614071Y-88157014D01*
X130541500Y-88265871D01*
X130468928Y-88338442D01*
X130396357Y-88374728D01*
G04 #@! TO.C,SW4*
X114147600Y-53115028D02*
X114256457Y-53151314D01*
X114437885Y-53151314D01*
X114510457Y-53115028D01*
X114546742Y-53078742D01*
X114583028Y-53006171D01*
X114583028Y-52933600D01*
X114546742Y-52861028D01*
X114510457Y-52824742D01*
X114437885Y-52788457D01*
X114292742Y-52752171D01*
X114220171Y-52715885D01*
X114183885Y-52679600D01*
X114147600Y-52607028D01*
X114147600Y-52534457D01*
X114183885Y-52461885D01*
X114220171Y-52425600D01*
X114292742Y-52389314D01*
X114474171Y-52389314D01*
X114583028Y-52425600D01*
X114837028Y-52389314D02*
X115018457Y-53151314D01*
X115163600Y-52607028D01*
X115308742Y-53151314D01*
X115490171Y-52389314D01*
X116107028Y-52643314D02*
X116107028Y-53151314D01*
X115925600Y-52353028D02*
X115744171Y-52897314D01*
X116215885Y-52897314D01*
X111966500Y-55265580D02*
X111966500Y-54265580D01*
X112204595Y-54265580D01*
X112347452Y-54313200D01*
X112442690Y-54408438D01*
X112490309Y-54503676D01*
X112537928Y-54694152D01*
X112537928Y-54837009D01*
X112490309Y-55027485D01*
X112442690Y-55122723D01*
X112347452Y-55217961D01*
X112204595Y-55265580D01*
X111966500Y-55265580D01*
X112966500Y-55265580D02*
X112966500Y-54265580D01*
X113442690Y-55265580D02*
X113442690Y-54265580D01*
X113823642Y-54265580D01*
X113918880Y-54313200D01*
X113966500Y-54360819D01*
X114014119Y-54456057D01*
X114014119Y-54598914D01*
X113966500Y-54694152D01*
X113918880Y-54741771D01*
X113823642Y-54789390D01*
X113442690Y-54789390D01*
X112045785Y-59047119D02*
X112093404Y-58999500D01*
X112188642Y-58951880D01*
X112426738Y-58951880D01*
X112521976Y-58999500D01*
X112569595Y-59047119D01*
X112617214Y-59142357D01*
X112617214Y-59237595D01*
X112569595Y-59380452D01*
X111998166Y-59951880D01*
X112617214Y-59951880D01*
X110064514Y-59951880D02*
X109493085Y-59951880D01*
X109778800Y-59951880D02*
X109778800Y-58951880D01*
X109683561Y-59094738D01*
X109588323Y-59189976D01*
X109493085Y-59237595D01*
X108359652Y-54240180D02*
X108550128Y-54240180D01*
X108645366Y-54287800D01*
X108740604Y-54383038D01*
X108788223Y-54573514D01*
X108788223Y-54906847D01*
X108740604Y-55097323D01*
X108645366Y-55192561D01*
X108550128Y-55240180D01*
X108359652Y-55240180D01*
X108264414Y-55192561D01*
X108169176Y-55097323D01*
X108121557Y-54906847D01*
X108121557Y-54573514D01*
X108169176Y-54383038D01*
X108264414Y-54287800D01*
X108359652Y-54240180D01*
X109216795Y-55240180D02*
X109216795Y-54240180D01*
X109788223Y-55240180D01*
X109788223Y-54240180D01*
G04 #@! TO.C,R27*
X125058714Y-104439357D02*
X124695857Y-104693357D01*
X125058714Y-104874785D02*
X124296714Y-104874785D01*
X124296714Y-104584500D01*
X124333000Y-104511928D01*
X124369285Y-104475642D01*
X124441857Y-104439357D01*
X124550714Y-104439357D01*
X124623285Y-104475642D01*
X124659571Y-104511928D01*
X124695857Y-104584500D01*
X124695857Y-104874785D01*
X124369285Y-104149071D02*
X124333000Y-104112785D01*
X124296714Y-104040214D01*
X124296714Y-103858785D01*
X124333000Y-103786214D01*
X124369285Y-103749928D01*
X124441857Y-103713642D01*
X124514428Y-103713642D01*
X124623285Y-103749928D01*
X125058714Y-104185357D01*
X125058714Y-103713642D01*
X124296714Y-103459642D02*
X124296714Y-102951642D01*
X125058714Y-103278214D01*
G04 #@! TO.C,GR1*
X117372674Y-121315480D02*
X117300102Y-121279194D01*
X117191245Y-121279194D01*
X117082388Y-121315480D01*
X117009817Y-121388051D01*
X116973531Y-121460622D01*
X116937245Y-121605765D01*
X116937245Y-121714622D01*
X116973531Y-121859765D01*
X117009817Y-121932337D01*
X117082388Y-122004908D01*
X117191245Y-122041194D01*
X117263817Y-122041194D01*
X117372674Y-122004908D01*
X117408960Y-121968622D01*
X117408960Y-121714622D01*
X117263817Y-121714622D01*
X118170960Y-122041194D02*
X117916960Y-121678337D01*
X117735531Y-122041194D02*
X117735531Y-121279194D01*
X118025817Y-121279194D01*
X118098388Y-121315480D01*
X118134674Y-121351765D01*
X118170960Y-121424337D01*
X118170960Y-121533194D01*
X118134674Y-121605765D01*
X118098388Y-121642051D01*
X118025817Y-121678337D01*
X117735531Y-121678337D01*
X118896674Y-122041194D02*
X118461245Y-122041194D01*
X118678960Y-122041194D02*
X118678960Y-121279194D01*
X118606388Y-121388051D01*
X118533817Y-121460622D01*
X118461245Y-121496908D01*
G04 #@! TO.C,GR2*
X130499394Y-121356120D02*
X130426822Y-121319834D01*
X130317965Y-121319834D01*
X130209108Y-121356120D01*
X130136537Y-121428691D01*
X130100251Y-121501262D01*
X130063965Y-121646405D01*
X130063965Y-121755262D01*
X130100251Y-121900405D01*
X130136537Y-121972977D01*
X130209108Y-122045548D01*
X130317965Y-122081834D01*
X130390537Y-122081834D01*
X130499394Y-122045548D01*
X130535680Y-122009262D01*
X130535680Y-121755262D01*
X130390537Y-121755262D01*
X131297680Y-122081834D02*
X131043680Y-121718977D01*
X130862251Y-122081834D02*
X130862251Y-121319834D01*
X131152537Y-121319834D01*
X131225108Y-121356120D01*
X131261394Y-121392405D01*
X131297680Y-121464977D01*
X131297680Y-121573834D01*
X131261394Y-121646405D01*
X131225108Y-121682691D01*
X131152537Y-121718977D01*
X130862251Y-121718977D01*
X131587965Y-121392405D02*
X131624251Y-121356120D01*
X131696822Y-121319834D01*
X131878251Y-121319834D01*
X131950822Y-121356120D01*
X131987108Y-121392405D01*
X132023394Y-121464977D01*
X132023394Y-121537548D01*
X131987108Y-121646405D01*
X131551680Y-122081834D01*
X132023394Y-122081834D01*
G04 #@! TO.C,GR3*
X143504194Y-121295160D02*
X143431622Y-121258874D01*
X143322765Y-121258874D01*
X143213908Y-121295160D01*
X143141337Y-121367731D01*
X143105051Y-121440302D01*
X143068765Y-121585445D01*
X143068765Y-121694302D01*
X143105051Y-121839445D01*
X143141337Y-121912017D01*
X143213908Y-121984588D01*
X143322765Y-122020874D01*
X143395337Y-122020874D01*
X143504194Y-121984588D01*
X143540480Y-121948302D01*
X143540480Y-121694302D01*
X143395337Y-121694302D01*
X144302480Y-122020874D02*
X144048480Y-121658017D01*
X143867051Y-122020874D02*
X143867051Y-121258874D01*
X144157337Y-121258874D01*
X144229908Y-121295160D01*
X144266194Y-121331445D01*
X144302480Y-121404017D01*
X144302480Y-121512874D01*
X144266194Y-121585445D01*
X144229908Y-121621731D01*
X144157337Y-121658017D01*
X143867051Y-121658017D01*
X144556480Y-121258874D02*
X145028194Y-121258874D01*
X144774194Y-121549160D01*
X144883051Y-121549160D01*
X144955622Y-121585445D01*
X144991908Y-121621731D01*
X145028194Y-121694302D01*
X145028194Y-121875731D01*
X144991908Y-121948302D01*
X144955622Y-121984588D01*
X144883051Y-122020874D01*
X144665337Y-122020874D01*
X144592765Y-121984588D01*
X144556480Y-121948302D01*
G04 #@! TO.C,GR4*
X156691874Y-121356120D02*
X156619302Y-121319834D01*
X156510445Y-121319834D01*
X156401588Y-121356120D01*
X156329017Y-121428691D01*
X156292731Y-121501262D01*
X156256445Y-121646405D01*
X156256445Y-121755262D01*
X156292731Y-121900405D01*
X156329017Y-121972977D01*
X156401588Y-122045548D01*
X156510445Y-122081834D01*
X156583017Y-122081834D01*
X156691874Y-122045548D01*
X156728160Y-122009262D01*
X156728160Y-121755262D01*
X156583017Y-121755262D01*
X157490160Y-122081834D02*
X157236160Y-121718977D01*
X157054731Y-122081834D02*
X157054731Y-121319834D01*
X157345017Y-121319834D01*
X157417588Y-121356120D01*
X157453874Y-121392405D01*
X157490160Y-121464977D01*
X157490160Y-121573834D01*
X157453874Y-121646405D01*
X157417588Y-121682691D01*
X157345017Y-121718977D01*
X157054731Y-121718977D01*
X158143302Y-121573834D02*
X158143302Y-122081834D01*
X157961874Y-121283548D02*
X157780445Y-121827834D01*
X158252160Y-121827834D01*
G04 #@! TD*
M02*
