M48
;DRILL file {KiCad (2017-08-02 revision 9760937)-master} date Mon Apr 16 11:24:11 2018
;FORMAT={-:-/ absolute / inch / decimal}
FMAT,2
INCH,TZ
T1C0.016
T2C0.031
T3C0.040
%
G90
G05
M72
T1
X4.3213Y-1.9835
X4.3215Y-2.523
X4.324Y-1.8437
X4.324Y-1.9142
X4.3252Y-2.0449
X4.4215Y-2.524
X4.5548Y-1.825
X4.5548Y-2.02
X4.555Y-1.89
X4.555Y-1.9546
X4.619Y-2.1725
X4.622Y-2.236
X4.7502Y-1.7586
X4.7705Y-2.1661
X4.797Y-4.457
X4.8306Y-3.9734
X4.8555Y-3.5343
X4.8559Y-3.7352
X4.857Y-4.2668
X4.883Y-4.324
X4.883Y-4.55
X4.8836Y-3.6174
X4.8976Y-2.2945
X4.918Y-4.034
X4.9235Y-3.9845
X4.938Y-4.55
X4.9504Y-3.2238
X4.9696Y-1.7586
X4.9762Y-3.472
X4.9934Y-2.4142
X5.019Y-3.849
X5.0194Y-4.3668
X5.0247Y-3.7683
X5.0253Y-3.708
X5.026Y-2.144
X5.0339Y-3.4795
X5.0654Y-3.0157
X5.0787Y-2.8194
X5.1148Y-4.6122
X5.1194Y-3.4678
X5.1382Y-2.2586
X5.151Y-4.4265
X5.159Y-4.223
X5.1598Y-2.4142
X5.161Y-3.849
X5.1712Y-3.5135
X5.1723Y-2.8497
X5.177Y-3.637
X5.1856Y-4.6116
X5.1902Y-2.3461
X5.2094Y-3.4871
X5.218Y-4.223
X5.2205Y-3.2213
X5.239Y-3.456
X5.2442Y-3.2596
X5.2494Y-2.4574
X5.2512Y-2.204
X5.2602Y-4.6128
X5.322Y-4.6156
X5.3429Y-2.9937
X5.3446Y-2.5926
X5.346Y-3.452
X5.3697Y-2.9554
X5.3718Y-3.5059
X5.3894Y-3.039
X5.3933Y-2.9791
X5.4065Y-3.517
X5.411Y-4.44
X5.4126Y-2.8126
X5.4137Y-4.2432
X5.4168Y-3.439
X5.4232Y-3.9642
X5.4251Y-3.8408
X5.435Y-4.373
X5.435Y-4.563
X5.436Y-4.626
X5.4386Y-3.0713
X5.4398Y-3.1067
X5.4427Y-3.1878
X5.448Y-2.8142
X5.4483Y-3.4397
X5.45Y-3.3051
X5.4508Y-3.2654
X5.4654Y-3.0024
X5.4708Y-3.7735
X5.4739Y-2.6906
X5.4793Y-3.727
X5.4794Y-2.5926
X5.4798Y-3.4406
X5.489Y-2.8126
X5.4905Y-3.3392
X5.5113Y-3.4401
X5.5161Y-4.0272
X5.5165Y-3.8689
X5.5165Y-4.0902
X5.517Y-4.2161
X5.5177Y-4.1539
X5.5177Y-4.3106
X5.526Y-3.2705
X5.5283Y-2.824
X5.5331Y-3.9764
X5.5354Y-4.0587
X5.5386Y-4.122
X5.5428Y-3.4396
X5.5735Y-3.4325
X5.5785Y-2.8281
X5.5799Y-3.052
X5.6046Y-3.4157
X5.6218Y-3.496
X5.6292Y-3.3729
X5.6623Y-3.4222
X5.6874Y-3.5204
X5.6962Y-3.4225
X5.7008Y-2.8035
X5.7277Y-3.4213
X5.744Y-2.8086
X5.7559Y-3.1752
X5.7736Y-3.2035
X5.7856Y-2.8084
X5.7874Y-3.2323
X5.7967Y-2.8638
X5.8016Y-3.261
X5.8035Y-3.76
X5.8096Y-2.7098
X5.8157Y-3.2909
X5.8194Y-2.8856
X5.8299Y-3.3213
X5.8358Y-2.6828
X5.8382Y-3.8701
X5.8382Y-3.9327
X5.8394Y-3.9957
X5.8417Y-4.1217
X5.8429Y-4.0587
X5.8437Y-3.3508
X5.852Y-2.8858
X5.8567Y-3.3807
X5.8602Y-4.0268
X5.8606Y-3.9012
X5.8609Y-3.8386
X5.8614Y-4.1535
X5.8618Y-3.9642
X5.8622Y-4.0909
X5.8705Y-3.4102
X5.872Y-4.279
X5.873Y-4.468
X5.8846Y-2.8862
X5.8846Y-3.4398
X5.9015Y-3.6346
X5.9076Y-3.5011
X5.911Y-3.758
X5.9277Y-2.9213
X5.9389Y-3.8067
X5.9393Y-4.2162
X5.9407Y-4.3736
X5.9427Y-4.5625
X5.943Y-4.6262
X5.947Y-3.54
X5.9472Y-2.7134
X5.9639Y-2.8
X5.9861Y-2.9208
X6.0187Y-3.0002
X6.0409Y-3.0737
X6.0508Y-2.9593
X6.0518Y-2.9908
X6.053Y-3.1188
X6.0551Y-3.4163
X6.063Y-3.817
X6.0684Y-2.9093
X6.079Y-4.216
X6.079Y-4.366
X6.08Y-4.556
X6.08Y-4.627
X6.0883Y-2.1986
X6.0945Y-2.6836
X6.1647Y-3.0824
X6.165Y-3.2406
X6.1688Y-2.412
X6.1796Y-2.3174
X6.2522Y-3.1744
X6.2598Y-3.6071
X6.2705Y-2.196
X6.2858Y-3.1048
X6.286Y-3.0416
X6.2929Y-2.4382
X6.2945Y-3.713
X6.297Y-3.652
X6.298Y-3.353
X6.298Y-3.413
X6.2984Y-3.512
X6.2988Y-2.3248
X6.3252Y-2.0106
X6.377Y-2.1955
X6.467Y-2.3162
X6.5575Y-2.335
X6.6516Y-2.2283
T2
X5.1895Y-4.9087
X5.2682Y-4.9087
X5.347Y-4.9087
X5.4257Y-4.9087
X6.2195Y-4.9087
X6.2982Y-4.9087
X6.377Y-4.9087
X6.4557Y-4.9087
X5.7045Y-4.9087
X5.7832Y-4.9087
X5.862Y-4.9087
X5.9407Y-4.9087
X4.6745Y-4.9087
X4.7532Y-4.9087
X4.832Y-4.9087
X4.9107Y-4.9087
T3
X6.4815Y-2.456
X6.4815Y-2.556
X6.4815Y-2.656
X6.4815Y-2.756
X6.4815Y-2.856
X6.4815Y-2.956
X6.4815Y-3.056
X6.4815Y-3.156
X6.4815Y-3.256
X6.4815Y-3.356
X6.4815Y-3.456
X6.4815Y-3.556
X6.4815Y-3.656
X6.4815Y-3.756
X6.4815Y-3.856
X6.4815Y-3.956
X6.4815Y-4.056
X6.4815Y-4.156
X6.4815Y-4.256
X6.4815Y-4.356
X6.4815Y-4.456
X6.4815Y-4.556
X6.4815Y-4.656
X6.5815Y-2.456
X6.5815Y-2.556
X6.5815Y-2.656
X6.5815Y-2.756
X6.5815Y-2.856
X6.5815Y-2.956
X6.5815Y-3.056
X6.5815Y-3.156
X6.5815Y-3.256
X6.5815Y-3.356
X6.5815Y-3.456
X6.5815Y-3.556
X6.5815Y-3.656
X6.5815Y-3.756
X6.5815Y-3.856
X6.5815Y-3.956
X6.5815Y-4.056
X6.5815Y-4.156
X6.5815Y-4.256
X6.5815Y-4.356
X6.5815Y-4.456
X6.5815Y-4.556
X6.5815Y-4.656
X6.7251Y-3.955
X6.7251Y-4.055
X6.7251Y-4.155
X6.7251Y-4.255
X6.7251Y-4.355
X6.7251Y-4.455
X6.8251Y-3.955
X6.8251Y-4.055
X6.8251Y-4.155
X6.8251Y-4.255
X6.8251Y-4.355
X6.8251Y-4.455
X5.0614Y-4.0024
X5.0614Y-4.1024
X4.3022Y-3.955
X4.3022Y-4.055
X4.3022Y-4.155
X4.3022Y-4.255
X4.3022Y-4.355
X4.3022Y-4.455
X4.4022Y-3.955
X4.4022Y-4.055
X4.4022Y-4.155
X4.4022Y-4.255
X4.4022Y-4.355
X4.4022Y-4.455
X4.3022Y-3.055
X4.3022Y-3.155
X4.3022Y-3.255
X4.3022Y-3.355
X4.3022Y-3.455
X4.3022Y-3.555
X4.4022Y-3.055
X4.4022Y-3.155
X4.4022Y-3.255
X4.4022Y-3.355
X4.4022Y-3.455
X4.4022Y-3.555
X6.7251Y-3.055
X6.7251Y-3.155
X6.7251Y-3.255
X6.7251Y-3.355
X6.7251Y-3.455
X6.7251Y-3.555
X6.8251Y-3.055
X6.8251Y-3.155
X6.8251Y-3.255
X6.8251Y-3.355
X6.8251Y-3.455
X6.8251Y-3.555
X4.5815Y-2.456
X4.5815Y-2.556
X4.5815Y-2.656
X4.5815Y-2.756
X4.5815Y-2.856
X4.5815Y-2.956
X4.5815Y-3.056
X4.5815Y-3.156
X4.5815Y-3.256
X4.5815Y-3.356
X4.5815Y-3.456
X4.5815Y-3.556
X4.5815Y-3.656
X4.5815Y-3.756
X4.5815Y-3.856
X4.5815Y-3.956
X4.5815Y-4.056
X4.5815Y-4.156
X4.5815Y-4.256
X4.5815Y-4.356
X4.5815Y-4.456
X4.5815Y-4.556
X4.5815Y-4.656
X4.6815Y-2.456
X4.6815Y-2.556
X4.6815Y-2.656
X4.6815Y-2.756
X4.6815Y-2.856
X4.6815Y-2.956
X4.6815Y-3.056
X4.6815Y-3.156
X4.6815Y-3.256
X4.6815Y-3.356
X4.6815Y-3.456
X4.6815Y-3.556
X4.6815Y-3.656
X4.6815Y-3.756
X4.6815Y-3.856
X4.6815Y-3.956
X4.6815Y-4.056
X4.6815Y-4.156
X4.6815Y-4.256
X4.6815Y-4.356
X4.6815Y-4.456
X4.6815Y-4.556
X4.6815Y-4.656
X5.2043Y-4.0024
X5.2043Y-4.1024
T0
M30
