G04 #@! TF.GenerationSoftware,KiCad,Pcbnew,(5.0.0-rc2-21-g8f5cb32)*
G04 #@! TF.CreationDate,2018-06-08T19:32:38-05:00*
G04 #@! TF.ProjectId,beagle-wire,626561676C652D776972652E6B696361,rev?*
G04 #@! TF.SameCoordinates,Original*
G04 #@! TF.FileFunction,Soldermask,Bot*
G04 #@! TF.FilePolarity,Negative*
%FSLAX46Y46*%
G04 Gerber Fmt 4.6, Leading zero omitted, Abs format (unit mm)*
G04 Created by KiCad (PCBNEW (5.0.0-rc2-21-g8f5cb32)) date Fri Jun  8 19:32:38 2018*
%MOMM*%
%LPD*%
G01*
G04 APERTURE LIST*
%ADD10C,2.000000*%
%ADD11R,2.200000X1.020000*%
%ADD12R,1.727200X1.727200*%
%ADD13O,1.727200X1.727200*%
%ADD14C,1.524000*%
G04 APERTURE END LIST*
D10*
G04 #@! TO.C,MK1*
X112275620Y-125493780D03*
G04 #@! TD*
G04 #@! TO.C,MK2*
X173060360Y-53058060D03*
G04 #@! TD*
D11*
G04 #@! TO.C,P8*
X168640100Y-118262400D03*
X163140100Y-118262400D03*
X168640100Y-115722400D03*
X163140100Y-115722400D03*
X168640100Y-113182400D03*
X163140100Y-113182400D03*
X168640100Y-110642400D03*
X163140100Y-110642400D03*
X168640100Y-108102400D03*
X163140100Y-108102400D03*
X168640100Y-105562400D03*
X163140100Y-105562400D03*
X168640100Y-103022400D03*
X163140100Y-103022400D03*
X168640100Y-100482400D03*
X163140100Y-100482400D03*
X168640100Y-97942400D03*
X163140100Y-97942400D03*
X168640100Y-95402400D03*
X163140100Y-95402400D03*
X168640100Y-92862400D03*
X163140100Y-92862400D03*
X168640100Y-90322400D03*
X163140100Y-90322400D03*
X168640100Y-87782400D03*
X163140100Y-87782400D03*
X168640100Y-85242400D03*
X163140100Y-85242400D03*
X168640100Y-82702400D03*
X163140100Y-82702400D03*
X168640100Y-80162400D03*
X163140100Y-80162400D03*
X168640100Y-77622400D03*
X163140100Y-77622400D03*
X168640100Y-75082400D03*
X163140100Y-75082400D03*
X168640100Y-72542400D03*
X163140100Y-72542400D03*
X168640100Y-70002400D03*
X163140100Y-70002400D03*
X168640100Y-67462400D03*
X163140100Y-67462400D03*
X168640100Y-64922400D03*
X163140100Y-64922400D03*
X168640100Y-62382400D03*
X163140100Y-62382400D03*
G04 #@! TD*
D12*
G04 #@! TO.C,P1*
X111817120Y-77597000D03*
D13*
X109277120Y-77597000D03*
X111817120Y-80137000D03*
X109277120Y-80137000D03*
X111817120Y-82677000D03*
X109277120Y-82677000D03*
X111817120Y-85217000D03*
X109277120Y-85217000D03*
X111817120Y-87757000D03*
X109277120Y-87757000D03*
X111817120Y-90297000D03*
X109277120Y-90297000D03*
G04 #@! TD*
D11*
G04 #@! TO.C,P9*
X120380100Y-118262400D03*
X114880100Y-118262400D03*
X120380100Y-115722400D03*
X114880100Y-115722400D03*
X120380100Y-113182400D03*
X114880100Y-113182400D03*
X120380100Y-110642400D03*
X114880100Y-110642400D03*
X120380100Y-108102400D03*
X114880100Y-108102400D03*
X120380100Y-105562400D03*
X114880100Y-105562400D03*
X120380100Y-103022400D03*
X114880100Y-103022400D03*
X120380100Y-100482400D03*
X114880100Y-100482400D03*
X120380100Y-97942400D03*
X114880100Y-97942400D03*
X120380100Y-95402400D03*
X114880100Y-95402400D03*
X120380100Y-92862400D03*
X114880100Y-92862400D03*
X120380100Y-90322400D03*
X114880100Y-90322400D03*
X120380100Y-87782400D03*
X114880100Y-87782400D03*
X120380100Y-85242400D03*
X114880100Y-85242400D03*
X120380100Y-82702400D03*
X114880100Y-82702400D03*
X120380100Y-80162400D03*
X114880100Y-80162400D03*
X120380100Y-77622400D03*
X114880100Y-77622400D03*
X120380100Y-75082400D03*
X114880100Y-75082400D03*
X120380100Y-72542400D03*
X114880100Y-72542400D03*
X120380100Y-70002400D03*
X114880100Y-70002400D03*
X120380100Y-67462400D03*
X114880100Y-67462400D03*
X120380100Y-64922400D03*
X114880100Y-64922400D03*
X120380100Y-62382400D03*
X114880100Y-62382400D03*
G04 #@! TD*
D12*
G04 #@! TO.C,P3*
X171718820Y-113157000D03*
D13*
X174258820Y-113157000D03*
X171718820Y-110617000D03*
X174258820Y-110617000D03*
X171718820Y-108077000D03*
X174258820Y-108077000D03*
X171718820Y-105537000D03*
X174258820Y-105537000D03*
X171718820Y-102997000D03*
X174258820Y-102997000D03*
X171718820Y-100457000D03*
X174258820Y-100457000D03*
G04 #@! TD*
D12*
G04 #@! TO.C,JP1*
X128560000Y-104200000D03*
D13*
X128560000Y-101660000D03*
G04 #@! TD*
D12*
G04 #@! TO.C,JP2*
X132190000Y-104200000D03*
D13*
X132190000Y-101660000D03*
G04 #@! TD*
D12*
G04 #@! TO.C,P2*
X111817120Y-100457000D03*
D13*
X109277120Y-100457000D03*
X111817120Y-102997000D03*
X109277120Y-102997000D03*
X111817120Y-105537000D03*
X109277120Y-105537000D03*
X111817120Y-108077000D03*
X109277120Y-108077000D03*
X111817120Y-110617000D03*
X109277120Y-110617000D03*
X111817120Y-113157000D03*
X109277120Y-113157000D03*
G04 #@! TD*
D12*
G04 #@! TO.C,P4*
X171718820Y-90297000D03*
D13*
X174258820Y-90297000D03*
X171718820Y-87757000D03*
X174258820Y-87757000D03*
X171718820Y-85217000D03*
X174258820Y-85217000D03*
X171718820Y-82677000D03*
X174258820Y-82677000D03*
X171718820Y-80137000D03*
X174258820Y-80137000D03*
X171718820Y-77597000D03*
X174258820Y-77597000D03*
G04 #@! TD*
D14*
G04 #@! TO.C,GR1*
X124732000Y-124680000D03*
X118732000Y-124680000D03*
X120732000Y-124680000D03*
X122732000Y-124680000D03*
G04 #@! TD*
G04 #@! TO.C,GR2*
X137813000Y-124680000D03*
X131813000Y-124680000D03*
X133813000Y-124680000D03*
X135813000Y-124680000D03*
G04 #@! TD*
G04 #@! TO.C,GR3*
X150894000Y-124680000D03*
X144894000Y-124680000D03*
X146894000Y-124680000D03*
X148894000Y-124680000D03*
G04 #@! TD*
G04 #@! TO.C,GR4*
X163975000Y-124680000D03*
X157975000Y-124680000D03*
X159975000Y-124680000D03*
X161975000Y-124680000D03*
G04 #@! TD*
M02*
