G04 #@! TF.GenerationSoftware,KiCad,Pcbnew,(5.0.0-rc2-21-g8f5cb32)*
G04 #@! TF.CreationDate,2018-05-30T22:51:02-05:00*
G04 #@! TF.ProjectId,beagle-wire,626561676C652D776972652E6B696361,rev?*
G04 #@! TF.SameCoordinates,Original*
G04 #@! TF.FileFunction,Paste,Bot*
G04 #@! TF.FilePolarity,Positive*
%FSLAX46Y46*%
G04 Gerber Fmt 4.6, Leading zero omitted, Abs format (unit mm)*
G04 Created by KiCad (PCBNEW (5.0.0-rc2-21-g8f5cb32)) date Wed May 30 22:51:02 2018*
%MOMM*%
%LPD*%
G01*
G04 APERTURE LIST*
%ADD10R,2.200000X1.020000*%
G04 APERTURE END LIST*
D10*
G04 #@! TO.C,P8*
X168640100Y-118262400D03*
X163140100Y-118262400D03*
X168640100Y-115722400D03*
X163140100Y-115722400D03*
X168640100Y-113182400D03*
X163140100Y-113182400D03*
X168640100Y-110642400D03*
X163140100Y-110642400D03*
X168640100Y-108102400D03*
X163140100Y-108102400D03*
X168640100Y-105562400D03*
X163140100Y-105562400D03*
X168640100Y-103022400D03*
X163140100Y-103022400D03*
X168640100Y-100482400D03*
X163140100Y-100482400D03*
X168640100Y-97942400D03*
X163140100Y-97942400D03*
X168640100Y-95402400D03*
X163140100Y-95402400D03*
X168640100Y-92862400D03*
X163140100Y-92862400D03*
X168640100Y-90322400D03*
X163140100Y-90322400D03*
X168640100Y-87782400D03*
X163140100Y-87782400D03*
X168640100Y-85242400D03*
X163140100Y-85242400D03*
X168640100Y-82702400D03*
X163140100Y-82702400D03*
X168640100Y-80162400D03*
X163140100Y-80162400D03*
X168640100Y-77622400D03*
X163140100Y-77622400D03*
X168640100Y-75082400D03*
X163140100Y-75082400D03*
X168640100Y-72542400D03*
X163140100Y-72542400D03*
X168640100Y-70002400D03*
X163140100Y-70002400D03*
X168640100Y-67462400D03*
X163140100Y-67462400D03*
X168640100Y-64922400D03*
X163140100Y-64922400D03*
X168640100Y-62382400D03*
X163140100Y-62382400D03*
G04 #@! TD*
G04 #@! TO.C,P9*
X120380100Y-118262400D03*
X114880100Y-118262400D03*
X120380100Y-115722400D03*
X114880100Y-115722400D03*
X120380100Y-113182400D03*
X114880100Y-113182400D03*
X120380100Y-110642400D03*
X114880100Y-110642400D03*
X120380100Y-108102400D03*
X114880100Y-108102400D03*
X120380100Y-105562400D03*
X114880100Y-105562400D03*
X120380100Y-103022400D03*
X114880100Y-103022400D03*
X120380100Y-100482400D03*
X114880100Y-100482400D03*
X120380100Y-97942400D03*
X114880100Y-97942400D03*
X120380100Y-95402400D03*
X114880100Y-95402400D03*
X120380100Y-92862400D03*
X114880100Y-92862400D03*
X120380100Y-90322400D03*
X114880100Y-90322400D03*
X120380100Y-87782400D03*
X114880100Y-87782400D03*
X120380100Y-85242400D03*
X114880100Y-85242400D03*
X120380100Y-82702400D03*
X114880100Y-82702400D03*
X120380100Y-80162400D03*
X114880100Y-80162400D03*
X120380100Y-77622400D03*
X114880100Y-77622400D03*
X120380100Y-75082400D03*
X114880100Y-75082400D03*
X120380100Y-72542400D03*
X114880100Y-72542400D03*
X120380100Y-70002400D03*
X114880100Y-70002400D03*
X120380100Y-67462400D03*
X114880100Y-67462400D03*
X120380100Y-64922400D03*
X114880100Y-64922400D03*
X120380100Y-62382400D03*
X114880100Y-62382400D03*
G04 #@! TD*
M02*
