G04 #@! TF.GenerationSoftware,KiCad,Pcbnew,5.0.2+dfsg1-1*
G04 #@! TF.CreationDate,2020-04-04T22:01:51-07:00*
G04 #@! TF.ProjectId,beagle-wire,62656167-6c65-42d7-9769-72652e6b6963,rev?*
G04 #@! TF.SameCoordinates,Original*
G04 #@! TF.FileFunction,Soldermask,Bot*
G04 #@! TF.FilePolarity,Negative*
%FSLAX46Y46*%
G04 Gerber Fmt 4.6, Leading zero omitted, Abs format (unit mm)*
G04 Created by KiCad (PCBNEW 5.0.2+dfsg1-1) date Sat 04 Apr 2020 10:01:51 PM PDT*
%MOMM*%
%LPD*%
G01*
G04 APERTURE LIST*
%ADD10C,0.100000*%
G04 APERTURE END LIST*
D10*
G36*
X112451390Y-124509152D02*
X112567309Y-124532209D01*
X112749298Y-124607591D01*
X112913083Y-124717029D01*
X113052371Y-124856317D01*
X113161809Y-125020102D01*
X113237191Y-125202091D01*
X113275620Y-125395289D01*
X113275620Y-125592271D01*
X113237191Y-125785469D01*
X113161809Y-125967458D01*
X113052371Y-126131243D01*
X112913083Y-126270531D01*
X112749298Y-126379969D01*
X112567309Y-126455351D01*
X112451390Y-126478408D01*
X112374113Y-126493780D01*
X112177127Y-126493780D01*
X112099850Y-126478408D01*
X111983931Y-126455351D01*
X111801942Y-126379969D01*
X111638157Y-126270531D01*
X111498869Y-126131243D01*
X111389431Y-125967458D01*
X111314049Y-125785469D01*
X111275620Y-125592271D01*
X111275620Y-125395289D01*
X111314049Y-125202091D01*
X111389431Y-125020102D01*
X111498869Y-124856317D01*
X111638157Y-124717029D01*
X111801942Y-124607591D01*
X111983931Y-124532209D01*
X112099850Y-124509152D01*
X112177127Y-124493780D01*
X112374113Y-124493780D01*
X112451390Y-124509152D01*
X112451390Y-124509152D01*
G37*
G36*
X160148195Y-123937522D02*
X160197267Y-123947283D01*
X160335942Y-124004724D01*
X160460750Y-124088118D01*
X160566882Y-124194250D01*
X160650276Y-124319058D01*
X160707717Y-124457734D01*
X160737000Y-124604948D01*
X160737000Y-124755052D01*
X160707717Y-124902266D01*
X160650276Y-125040942D01*
X160566882Y-125165750D01*
X160460750Y-125271882D01*
X160460747Y-125271884D01*
X160335942Y-125355276D01*
X160197267Y-125412717D01*
X160148195Y-125422478D01*
X160050052Y-125442000D01*
X159899948Y-125442000D01*
X159801805Y-125422478D01*
X159752733Y-125412717D01*
X159614058Y-125355276D01*
X159489253Y-125271884D01*
X159489250Y-125271882D01*
X159383118Y-125165750D01*
X159299724Y-125040942D01*
X159242283Y-124902266D01*
X159213000Y-124755052D01*
X159213000Y-124604948D01*
X159242283Y-124457734D01*
X159299724Y-124319058D01*
X159383118Y-124194250D01*
X159489250Y-124088118D01*
X159614058Y-124004724D01*
X159752733Y-123947283D01*
X159801805Y-123937522D01*
X159899948Y-123918000D01*
X160050052Y-123918000D01*
X160148195Y-123937522D01*
X160148195Y-123937522D01*
G37*
G36*
X162148195Y-123937522D02*
X162197267Y-123947283D01*
X162335942Y-124004724D01*
X162460750Y-124088118D01*
X162566882Y-124194250D01*
X162650276Y-124319058D01*
X162707717Y-124457734D01*
X162737000Y-124604948D01*
X162737000Y-124755052D01*
X162707717Y-124902266D01*
X162650276Y-125040942D01*
X162566882Y-125165750D01*
X162460750Y-125271882D01*
X162460747Y-125271884D01*
X162335942Y-125355276D01*
X162197267Y-125412717D01*
X162148195Y-125422478D01*
X162050052Y-125442000D01*
X161899948Y-125442000D01*
X161801805Y-125422478D01*
X161752733Y-125412717D01*
X161614058Y-125355276D01*
X161489253Y-125271884D01*
X161489250Y-125271882D01*
X161383118Y-125165750D01*
X161299724Y-125040942D01*
X161242283Y-124902266D01*
X161213000Y-124755052D01*
X161213000Y-124604948D01*
X161242283Y-124457734D01*
X161299724Y-124319058D01*
X161383118Y-124194250D01*
X161489250Y-124088118D01*
X161614058Y-124004724D01*
X161752733Y-123947283D01*
X161801805Y-123937522D01*
X161899948Y-123918000D01*
X162050052Y-123918000D01*
X162148195Y-123937522D01*
X162148195Y-123937522D01*
G37*
G36*
X124905195Y-123937522D02*
X124954267Y-123947283D01*
X125092942Y-124004724D01*
X125217750Y-124088118D01*
X125323882Y-124194250D01*
X125407276Y-124319058D01*
X125464717Y-124457734D01*
X125494000Y-124604948D01*
X125494000Y-124755052D01*
X125464717Y-124902266D01*
X125407276Y-125040942D01*
X125323882Y-125165750D01*
X125217750Y-125271882D01*
X125217747Y-125271884D01*
X125092942Y-125355276D01*
X124954267Y-125412717D01*
X124905195Y-125422478D01*
X124807052Y-125442000D01*
X124656948Y-125442000D01*
X124558805Y-125422478D01*
X124509733Y-125412717D01*
X124371058Y-125355276D01*
X124246253Y-125271884D01*
X124246250Y-125271882D01*
X124140118Y-125165750D01*
X124056724Y-125040942D01*
X123999283Y-124902266D01*
X123970000Y-124755052D01*
X123970000Y-124604948D01*
X123999283Y-124457734D01*
X124056724Y-124319058D01*
X124140118Y-124194250D01*
X124246250Y-124088118D01*
X124371058Y-124004724D01*
X124509733Y-123947283D01*
X124558805Y-123937522D01*
X124656948Y-123918000D01*
X124807052Y-123918000D01*
X124905195Y-123937522D01*
X124905195Y-123937522D01*
G37*
G36*
X118905195Y-123937522D02*
X118954267Y-123947283D01*
X119092942Y-124004724D01*
X119217750Y-124088118D01*
X119323882Y-124194250D01*
X119407276Y-124319058D01*
X119464717Y-124457734D01*
X119494000Y-124604948D01*
X119494000Y-124755052D01*
X119464717Y-124902266D01*
X119407276Y-125040942D01*
X119323882Y-125165750D01*
X119217750Y-125271882D01*
X119217747Y-125271884D01*
X119092942Y-125355276D01*
X118954267Y-125412717D01*
X118905195Y-125422478D01*
X118807052Y-125442000D01*
X118656948Y-125442000D01*
X118558805Y-125422478D01*
X118509733Y-125412717D01*
X118371058Y-125355276D01*
X118246253Y-125271884D01*
X118246250Y-125271882D01*
X118140118Y-125165750D01*
X118056724Y-125040942D01*
X117999283Y-124902266D01*
X117970000Y-124755052D01*
X117970000Y-124604948D01*
X117999283Y-124457734D01*
X118056724Y-124319058D01*
X118140118Y-124194250D01*
X118246250Y-124088118D01*
X118371058Y-124004724D01*
X118509733Y-123947283D01*
X118558805Y-123937522D01*
X118656948Y-123918000D01*
X118807052Y-123918000D01*
X118905195Y-123937522D01*
X118905195Y-123937522D01*
G37*
G36*
X120905195Y-123937522D02*
X120954267Y-123947283D01*
X121092942Y-124004724D01*
X121217750Y-124088118D01*
X121323882Y-124194250D01*
X121407276Y-124319058D01*
X121464717Y-124457734D01*
X121494000Y-124604948D01*
X121494000Y-124755052D01*
X121464717Y-124902266D01*
X121407276Y-125040942D01*
X121323882Y-125165750D01*
X121217750Y-125271882D01*
X121217747Y-125271884D01*
X121092942Y-125355276D01*
X120954267Y-125412717D01*
X120905195Y-125422478D01*
X120807052Y-125442000D01*
X120656948Y-125442000D01*
X120558805Y-125422478D01*
X120509733Y-125412717D01*
X120371058Y-125355276D01*
X120246253Y-125271884D01*
X120246250Y-125271882D01*
X120140118Y-125165750D01*
X120056724Y-125040942D01*
X119999283Y-124902266D01*
X119970000Y-124755052D01*
X119970000Y-124604948D01*
X119999283Y-124457734D01*
X120056724Y-124319058D01*
X120140118Y-124194250D01*
X120246250Y-124088118D01*
X120371058Y-124004724D01*
X120509733Y-123947283D01*
X120558805Y-123937522D01*
X120656948Y-123918000D01*
X120807052Y-123918000D01*
X120905195Y-123937522D01*
X120905195Y-123937522D01*
G37*
G36*
X122905195Y-123937522D02*
X122954267Y-123947283D01*
X123092942Y-124004724D01*
X123217750Y-124088118D01*
X123323882Y-124194250D01*
X123407276Y-124319058D01*
X123464717Y-124457734D01*
X123494000Y-124604948D01*
X123494000Y-124755052D01*
X123464717Y-124902266D01*
X123407276Y-125040942D01*
X123323882Y-125165750D01*
X123217750Y-125271882D01*
X123217747Y-125271884D01*
X123092942Y-125355276D01*
X122954267Y-125412717D01*
X122905195Y-125422478D01*
X122807052Y-125442000D01*
X122656948Y-125442000D01*
X122558805Y-125422478D01*
X122509733Y-125412717D01*
X122371058Y-125355276D01*
X122246253Y-125271884D01*
X122246250Y-125271882D01*
X122140118Y-125165750D01*
X122056724Y-125040942D01*
X121999283Y-124902266D01*
X121970000Y-124755052D01*
X121970000Y-124604948D01*
X121999283Y-124457734D01*
X122056724Y-124319058D01*
X122140118Y-124194250D01*
X122246250Y-124088118D01*
X122371058Y-124004724D01*
X122509733Y-123947283D01*
X122558805Y-123937522D01*
X122656948Y-123918000D01*
X122807052Y-123918000D01*
X122905195Y-123937522D01*
X122905195Y-123937522D01*
G37*
G36*
X137986195Y-123937522D02*
X138035267Y-123947283D01*
X138173942Y-124004724D01*
X138298750Y-124088118D01*
X138404882Y-124194250D01*
X138488276Y-124319058D01*
X138545717Y-124457734D01*
X138575000Y-124604948D01*
X138575000Y-124755052D01*
X138545717Y-124902266D01*
X138488276Y-125040942D01*
X138404882Y-125165750D01*
X138298750Y-125271882D01*
X138298747Y-125271884D01*
X138173942Y-125355276D01*
X138035267Y-125412717D01*
X137986195Y-125422478D01*
X137888052Y-125442000D01*
X137737948Y-125442000D01*
X137639805Y-125422478D01*
X137590733Y-125412717D01*
X137452058Y-125355276D01*
X137327253Y-125271884D01*
X137327250Y-125271882D01*
X137221118Y-125165750D01*
X137137724Y-125040942D01*
X137080283Y-124902266D01*
X137051000Y-124755052D01*
X137051000Y-124604948D01*
X137080283Y-124457734D01*
X137137724Y-124319058D01*
X137221118Y-124194250D01*
X137327250Y-124088118D01*
X137452058Y-124004724D01*
X137590733Y-123947283D01*
X137639805Y-123937522D01*
X137737948Y-123918000D01*
X137888052Y-123918000D01*
X137986195Y-123937522D01*
X137986195Y-123937522D01*
G37*
G36*
X131986195Y-123937522D02*
X132035267Y-123947283D01*
X132173942Y-124004724D01*
X132298750Y-124088118D01*
X132404882Y-124194250D01*
X132488276Y-124319058D01*
X132545717Y-124457734D01*
X132575000Y-124604948D01*
X132575000Y-124755052D01*
X132545717Y-124902266D01*
X132488276Y-125040942D01*
X132404882Y-125165750D01*
X132298750Y-125271882D01*
X132298747Y-125271884D01*
X132173942Y-125355276D01*
X132035267Y-125412717D01*
X131986195Y-125422478D01*
X131888052Y-125442000D01*
X131737948Y-125442000D01*
X131639805Y-125422478D01*
X131590733Y-125412717D01*
X131452058Y-125355276D01*
X131327253Y-125271884D01*
X131327250Y-125271882D01*
X131221118Y-125165750D01*
X131137724Y-125040942D01*
X131080283Y-124902266D01*
X131051000Y-124755052D01*
X131051000Y-124604948D01*
X131080283Y-124457734D01*
X131137724Y-124319058D01*
X131221118Y-124194250D01*
X131327250Y-124088118D01*
X131452058Y-124004724D01*
X131590733Y-123947283D01*
X131639805Y-123937522D01*
X131737948Y-123918000D01*
X131888052Y-123918000D01*
X131986195Y-123937522D01*
X131986195Y-123937522D01*
G37*
G36*
X133986195Y-123937522D02*
X134035267Y-123947283D01*
X134173942Y-124004724D01*
X134298750Y-124088118D01*
X134404882Y-124194250D01*
X134488276Y-124319058D01*
X134545717Y-124457734D01*
X134575000Y-124604948D01*
X134575000Y-124755052D01*
X134545717Y-124902266D01*
X134488276Y-125040942D01*
X134404882Y-125165750D01*
X134298750Y-125271882D01*
X134298747Y-125271884D01*
X134173942Y-125355276D01*
X134035267Y-125412717D01*
X133986195Y-125422478D01*
X133888052Y-125442000D01*
X133737948Y-125442000D01*
X133639805Y-125422478D01*
X133590733Y-125412717D01*
X133452058Y-125355276D01*
X133327253Y-125271884D01*
X133327250Y-125271882D01*
X133221118Y-125165750D01*
X133137724Y-125040942D01*
X133080283Y-124902266D01*
X133051000Y-124755052D01*
X133051000Y-124604948D01*
X133080283Y-124457734D01*
X133137724Y-124319058D01*
X133221118Y-124194250D01*
X133327250Y-124088118D01*
X133452058Y-124004724D01*
X133590733Y-123947283D01*
X133639805Y-123937522D01*
X133737948Y-123918000D01*
X133888052Y-123918000D01*
X133986195Y-123937522D01*
X133986195Y-123937522D01*
G37*
G36*
X135986195Y-123937522D02*
X136035267Y-123947283D01*
X136173942Y-124004724D01*
X136298750Y-124088118D01*
X136404882Y-124194250D01*
X136488276Y-124319058D01*
X136545717Y-124457734D01*
X136575000Y-124604948D01*
X136575000Y-124755052D01*
X136545717Y-124902266D01*
X136488276Y-125040942D01*
X136404882Y-125165750D01*
X136298750Y-125271882D01*
X136298747Y-125271884D01*
X136173942Y-125355276D01*
X136035267Y-125412717D01*
X135986195Y-125422478D01*
X135888052Y-125442000D01*
X135737948Y-125442000D01*
X135639805Y-125422478D01*
X135590733Y-125412717D01*
X135452058Y-125355276D01*
X135327253Y-125271884D01*
X135327250Y-125271882D01*
X135221118Y-125165750D01*
X135137724Y-125040942D01*
X135080283Y-124902266D01*
X135051000Y-124755052D01*
X135051000Y-124604948D01*
X135080283Y-124457734D01*
X135137724Y-124319058D01*
X135221118Y-124194250D01*
X135327250Y-124088118D01*
X135452058Y-124004724D01*
X135590733Y-123947283D01*
X135639805Y-123937522D01*
X135737948Y-123918000D01*
X135888052Y-123918000D01*
X135986195Y-123937522D01*
X135986195Y-123937522D01*
G37*
G36*
X151067195Y-123937522D02*
X151116267Y-123947283D01*
X151254942Y-124004724D01*
X151379750Y-124088118D01*
X151485882Y-124194250D01*
X151569276Y-124319058D01*
X151626717Y-124457734D01*
X151656000Y-124604948D01*
X151656000Y-124755052D01*
X151626717Y-124902266D01*
X151569276Y-125040942D01*
X151485882Y-125165750D01*
X151379750Y-125271882D01*
X151379747Y-125271884D01*
X151254942Y-125355276D01*
X151116267Y-125412717D01*
X151067195Y-125422478D01*
X150969052Y-125442000D01*
X150818948Y-125442000D01*
X150720805Y-125422478D01*
X150671733Y-125412717D01*
X150533058Y-125355276D01*
X150408253Y-125271884D01*
X150408250Y-125271882D01*
X150302118Y-125165750D01*
X150218724Y-125040942D01*
X150161283Y-124902266D01*
X150132000Y-124755052D01*
X150132000Y-124604948D01*
X150161283Y-124457734D01*
X150218724Y-124319058D01*
X150302118Y-124194250D01*
X150408250Y-124088118D01*
X150533058Y-124004724D01*
X150671733Y-123947283D01*
X150720805Y-123937522D01*
X150818948Y-123918000D01*
X150969052Y-123918000D01*
X151067195Y-123937522D01*
X151067195Y-123937522D01*
G37*
G36*
X145067195Y-123937522D02*
X145116267Y-123947283D01*
X145254942Y-124004724D01*
X145379750Y-124088118D01*
X145485882Y-124194250D01*
X145569276Y-124319058D01*
X145626717Y-124457734D01*
X145656000Y-124604948D01*
X145656000Y-124755052D01*
X145626717Y-124902266D01*
X145569276Y-125040942D01*
X145485882Y-125165750D01*
X145379750Y-125271882D01*
X145379747Y-125271884D01*
X145254942Y-125355276D01*
X145116267Y-125412717D01*
X145067195Y-125422478D01*
X144969052Y-125442000D01*
X144818948Y-125442000D01*
X144720805Y-125422478D01*
X144671733Y-125412717D01*
X144533058Y-125355276D01*
X144408253Y-125271884D01*
X144408250Y-125271882D01*
X144302118Y-125165750D01*
X144218724Y-125040942D01*
X144161283Y-124902266D01*
X144132000Y-124755052D01*
X144132000Y-124604948D01*
X144161283Y-124457734D01*
X144218724Y-124319058D01*
X144302118Y-124194250D01*
X144408250Y-124088118D01*
X144533058Y-124004724D01*
X144671733Y-123947283D01*
X144720805Y-123937522D01*
X144818948Y-123918000D01*
X144969052Y-123918000D01*
X145067195Y-123937522D01*
X145067195Y-123937522D01*
G37*
G36*
X147067195Y-123937522D02*
X147116267Y-123947283D01*
X147254942Y-124004724D01*
X147379750Y-124088118D01*
X147485882Y-124194250D01*
X147569276Y-124319058D01*
X147626717Y-124457734D01*
X147656000Y-124604948D01*
X147656000Y-124755052D01*
X147626717Y-124902266D01*
X147569276Y-125040942D01*
X147485882Y-125165750D01*
X147379750Y-125271882D01*
X147379747Y-125271884D01*
X147254942Y-125355276D01*
X147116267Y-125412717D01*
X147067195Y-125422478D01*
X146969052Y-125442000D01*
X146818948Y-125442000D01*
X146720805Y-125422478D01*
X146671733Y-125412717D01*
X146533058Y-125355276D01*
X146408253Y-125271884D01*
X146408250Y-125271882D01*
X146302118Y-125165750D01*
X146218724Y-125040942D01*
X146161283Y-124902266D01*
X146132000Y-124755052D01*
X146132000Y-124604948D01*
X146161283Y-124457734D01*
X146218724Y-124319058D01*
X146302118Y-124194250D01*
X146408250Y-124088118D01*
X146533058Y-124004724D01*
X146671733Y-123947283D01*
X146720805Y-123937522D01*
X146818948Y-123918000D01*
X146969052Y-123918000D01*
X147067195Y-123937522D01*
X147067195Y-123937522D01*
G37*
G36*
X149067195Y-123937522D02*
X149116267Y-123947283D01*
X149254942Y-124004724D01*
X149379750Y-124088118D01*
X149485882Y-124194250D01*
X149569276Y-124319058D01*
X149626717Y-124457734D01*
X149656000Y-124604948D01*
X149656000Y-124755052D01*
X149626717Y-124902266D01*
X149569276Y-125040942D01*
X149485882Y-125165750D01*
X149379750Y-125271882D01*
X149379747Y-125271884D01*
X149254942Y-125355276D01*
X149116267Y-125412717D01*
X149067195Y-125422478D01*
X148969052Y-125442000D01*
X148818948Y-125442000D01*
X148720805Y-125422478D01*
X148671733Y-125412717D01*
X148533058Y-125355276D01*
X148408253Y-125271884D01*
X148408250Y-125271882D01*
X148302118Y-125165750D01*
X148218724Y-125040942D01*
X148161283Y-124902266D01*
X148132000Y-124755052D01*
X148132000Y-124604948D01*
X148161283Y-124457734D01*
X148218724Y-124319058D01*
X148302118Y-124194250D01*
X148408250Y-124088118D01*
X148533058Y-124004724D01*
X148671733Y-123947283D01*
X148720805Y-123937522D01*
X148818948Y-123918000D01*
X148969052Y-123918000D01*
X149067195Y-123937522D01*
X149067195Y-123937522D01*
G37*
G36*
X164148195Y-123937522D02*
X164197267Y-123947283D01*
X164335942Y-124004724D01*
X164460750Y-124088118D01*
X164566882Y-124194250D01*
X164650276Y-124319058D01*
X164707717Y-124457734D01*
X164737000Y-124604948D01*
X164737000Y-124755052D01*
X164707717Y-124902266D01*
X164650276Y-125040942D01*
X164566882Y-125165750D01*
X164460750Y-125271882D01*
X164460747Y-125271884D01*
X164335942Y-125355276D01*
X164197267Y-125412717D01*
X164148195Y-125422478D01*
X164050052Y-125442000D01*
X163899948Y-125442000D01*
X163801805Y-125422478D01*
X163752733Y-125412717D01*
X163614058Y-125355276D01*
X163489253Y-125271884D01*
X163489250Y-125271882D01*
X163383118Y-125165750D01*
X163299724Y-125040942D01*
X163242283Y-124902266D01*
X163213000Y-124755052D01*
X163213000Y-124604948D01*
X163242283Y-124457734D01*
X163299724Y-124319058D01*
X163383118Y-124194250D01*
X163489250Y-124088118D01*
X163614058Y-124004724D01*
X163752733Y-123947283D01*
X163801805Y-123937522D01*
X163899948Y-123918000D01*
X164050052Y-123918000D01*
X164148195Y-123937522D01*
X164148195Y-123937522D01*
G37*
G36*
X158148195Y-123937522D02*
X158197267Y-123947283D01*
X158335942Y-124004724D01*
X158460750Y-124088118D01*
X158566882Y-124194250D01*
X158650276Y-124319058D01*
X158707717Y-124457734D01*
X158737000Y-124604948D01*
X158737000Y-124755052D01*
X158707717Y-124902266D01*
X158650276Y-125040942D01*
X158566882Y-125165750D01*
X158460750Y-125271882D01*
X158460747Y-125271884D01*
X158335942Y-125355276D01*
X158197267Y-125412717D01*
X158148195Y-125422478D01*
X158050052Y-125442000D01*
X157899948Y-125442000D01*
X157801805Y-125422478D01*
X157752733Y-125412717D01*
X157614058Y-125355276D01*
X157489253Y-125271884D01*
X157489250Y-125271882D01*
X157383118Y-125165750D01*
X157299724Y-125040942D01*
X157242283Y-124902266D01*
X157213000Y-124755052D01*
X157213000Y-124604948D01*
X157242283Y-124457734D01*
X157299724Y-124319058D01*
X157383118Y-124194250D01*
X157489250Y-124088118D01*
X157614058Y-124004724D01*
X157752733Y-123947283D01*
X157801805Y-123937522D01*
X157899948Y-123918000D01*
X158050052Y-123918000D01*
X158148195Y-123937522D01*
X158148195Y-123937522D01*
G37*
G36*
X121480100Y-118772400D02*
X119280100Y-118772400D01*
X119280100Y-117752400D01*
X121480100Y-117752400D01*
X121480100Y-118772400D01*
X121480100Y-118772400D01*
G37*
G36*
X115980100Y-118772400D02*
X113780100Y-118772400D01*
X113780100Y-117752400D01*
X115980100Y-117752400D01*
X115980100Y-118772400D01*
X115980100Y-118772400D01*
G37*
G36*
X164240100Y-118772400D02*
X162040100Y-118772400D01*
X162040100Y-117752400D01*
X164240100Y-117752400D01*
X164240100Y-118772400D01*
X164240100Y-118772400D01*
G37*
G36*
X169740100Y-118772400D02*
X167540100Y-118772400D01*
X167540100Y-117752400D01*
X169740100Y-117752400D01*
X169740100Y-118772400D01*
X169740100Y-118772400D01*
G37*
G36*
X121480100Y-116232400D02*
X119280100Y-116232400D01*
X119280100Y-115212400D01*
X121480100Y-115212400D01*
X121480100Y-116232400D01*
X121480100Y-116232400D01*
G37*
G36*
X115980100Y-116232400D02*
X113780100Y-116232400D01*
X113780100Y-115212400D01*
X115980100Y-115212400D01*
X115980100Y-116232400D01*
X115980100Y-116232400D01*
G37*
G36*
X169740100Y-116232400D02*
X167540100Y-116232400D01*
X167540100Y-115212400D01*
X169740100Y-115212400D01*
X169740100Y-116232400D01*
X169740100Y-116232400D01*
G37*
G36*
X164240100Y-116232400D02*
X162040100Y-116232400D01*
X162040100Y-115212400D01*
X164240100Y-115212400D01*
X164240100Y-116232400D01*
X164240100Y-116232400D01*
G37*
G36*
X109361832Y-112297565D02*
X109446415Y-112305896D01*
X109566847Y-112342429D01*
X109609208Y-112355279D01*
X109759232Y-112435468D01*
X109890732Y-112543388D01*
X109998652Y-112674888D01*
X110078841Y-112824912D01*
X110078842Y-112824916D01*
X110128224Y-112987705D01*
X110144898Y-113157000D01*
X110128224Y-113326295D01*
X110091691Y-113446727D01*
X110078841Y-113489088D01*
X109998652Y-113639112D01*
X109890732Y-113770612D01*
X109759232Y-113878532D01*
X109609208Y-113958721D01*
X109566847Y-113971571D01*
X109446415Y-114008104D01*
X109361832Y-114016435D01*
X109319541Y-114020600D01*
X109234699Y-114020600D01*
X109192408Y-114016435D01*
X109107825Y-114008104D01*
X108987393Y-113971571D01*
X108945032Y-113958721D01*
X108795008Y-113878532D01*
X108663508Y-113770612D01*
X108555588Y-113639112D01*
X108475399Y-113489088D01*
X108462549Y-113446727D01*
X108426016Y-113326295D01*
X108409342Y-113157000D01*
X108426016Y-112987705D01*
X108475398Y-112824916D01*
X108475399Y-112824912D01*
X108555588Y-112674888D01*
X108663508Y-112543388D01*
X108795008Y-112435468D01*
X108945032Y-112355279D01*
X108987393Y-112342429D01*
X109107825Y-112305896D01*
X109192408Y-112297565D01*
X109234699Y-112293400D01*
X109319541Y-112293400D01*
X109361832Y-112297565D01*
X109361832Y-112297565D01*
G37*
G36*
X172582420Y-114020600D02*
X170855220Y-114020600D01*
X170855220Y-112293400D01*
X172582420Y-112293400D01*
X172582420Y-114020600D01*
X172582420Y-114020600D01*
G37*
G36*
X174343532Y-112297565D02*
X174428115Y-112305896D01*
X174548547Y-112342429D01*
X174590908Y-112355279D01*
X174740932Y-112435468D01*
X174872432Y-112543388D01*
X174980352Y-112674888D01*
X175060541Y-112824912D01*
X175060542Y-112824916D01*
X175109924Y-112987705D01*
X175126598Y-113157000D01*
X175109924Y-113326295D01*
X175073391Y-113446727D01*
X175060541Y-113489088D01*
X174980352Y-113639112D01*
X174872432Y-113770612D01*
X174740932Y-113878532D01*
X174590908Y-113958721D01*
X174548547Y-113971571D01*
X174428115Y-114008104D01*
X174343532Y-114016435D01*
X174301241Y-114020600D01*
X174216399Y-114020600D01*
X174174108Y-114016435D01*
X174089525Y-114008104D01*
X173969093Y-113971571D01*
X173926732Y-113958721D01*
X173776708Y-113878532D01*
X173645208Y-113770612D01*
X173537288Y-113639112D01*
X173457099Y-113489088D01*
X173444249Y-113446727D01*
X173407716Y-113326295D01*
X173391042Y-113157000D01*
X173407716Y-112987705D01*
X173457098Y-112824916D01*
X173457099Y-112824912D01*
X173537288Y-112674888D01*
X173645208Y-112543388D01*
X173776708Y-112435468D01*
X173926732Y-112355279D01*
X173969093Y-112342429D01*
X174089525Y-112305896D01*
X174174108Y-112297565D01*
X174216399Y-112293400D01*
X174301241Y-112293400D01*
X174343532Y-112297565D01*
X174343532Y-112297565D01*
G37*
G36*
X111901832Y-112297565D02*
X111986415Y-112305896D01*
X112106847Y-112342429D01*
X112149208Y-112355279D01*
X112299232Y-112435468D01*
X112430732Y-112543388D01*
X112538652Y-112674888D01*
X112618841Y-112824912D01*
X112618842Y-112824916D01*
X112668224Y-112987705D01*
X112684898Y-113157000D01*
X112668224Y-113326295D01*
X112631691Y-113446727D01*
X112618841Y-113489088D01*
X112538652Y-113639112D01*
X112430732Y-113770612D01*
X112299232Y-113878532D01*
X112149208Y-113958721D01*
X112106847Y-113971571D01*
X111986415Y-114008104D01*
X111901832Y-114016435D01*
X111859541Y-114020600D01*
X111774699Y-114020600D01*
X111732408Y-114016435D01*
X111647825Y-114008104D01*
X111527393Y-113971571D01*
X111485032Y-113958721D01*
X111335008Y-113878532D01*
X111203508Y-113770612D01*
X111095588Y-113639112D01*
X111015399Y-113489088D01*
X111002549Y-113446727D01*
X110966016Y-113326295D01*
X110949342Y-113157000D01*
X110966016Y-112987705D01*
X111015398Y-112824916D01*
X111015399Y-112824912D01*
X111095588Y-112674888D01*
X111203508Y-112543388D01*
X111335008Y-112435468D01*
X111485032Y-112355279D01*
X111527393Y-112342429D01*
X111647825Y-112305896D01*
X111732408Y-112297565D01*
X111774699Y-112293400D01*
X111859541Y-112293400D01*
X111901832Y-112297565D01*
X111901832Y-112297565D01*
G37*
G36*
X115980100Y-113692400D02*
X113780100Y-113692400D01*
X113780100Y-112672400D01*
X115980100Y-112672400D01*
X115980100Y-113692400D01*
X115980100Y-113692400D01*
G37*
G36*
X121480100Y-113692400D02*
X119280100Y-113692400D01*
X119280100Y-112672400D01*
X121480100Y-112672400D01*
X121480100Y-113692400D01*
X121480100Y-113692400D01*
G37*
G36*
X164240100Y-113692400D02*
X162040100Y-113692400D01*
X162040100Y-112672400D01*
X164240100Y-112672400D01*
X164240100Y-113692400D01*
X164240100Y-113692400D01*
G37*
G36*
X169740100Y-113692400D02*
X167540100Y-113692400D01*
X167540100Y-112672400D01*
X169740100Y-112672400D01*
X169740100Y-113692400D01*
X169740100Y-113692400D01*
G37*
G36*
X111901832Y-109757565D02*
X111986415Y-109765896D01*
X112106847Y-109802429D01*
X112149208Y-109815279D01*
X112299232Y-109895468D01*
X112430732Y-110003388D01*
X112538652Y-110134888D01*
X112618841Y-110284912D01*
X112618842Y-110284916D01*
X112668224Y-110447705D01*
X112684898Y-110617000D01*
X112668224Y-110786295D01*
X112631691Y-110906727D01*
X112618841Y-110949088D01*
X112538652Y-111099112D01*
X112430732Y-111230612D01*
X112299232Y-111338532D01*
X112149208Y-111418721D01*
X112106847Y-111431571D01*
X111986415Y-111468104D01*
X111901832Y-111476435D01*
X111859541Y-111480600D01*
X111774699Y-111480600D01*
X111732408Y-111476435D01*
X111647825Y-111468104D01*
X111527393Y-111431571D01*
X111485032Y-111418721D01*
X111335008Y-111338532D01*
X111203508Y-111230612D01*
X111095588Y-111099112D01*
X111015399Y-110949088D01*
X111002549Y-110906727D01*
X110966016Y-110786295D01*
X110949342Y-110617000D01*
X110966016Y-110447705D01*
X111015398Y-110284916D01*
X111015399Y-110284912D01*
X111095588Y-110134888D01*
X111203508Y-110003388D01*
X111335008Y-109895468D01*
X111485032Y-109815279D01*
X111527393Y-109802429D01*
X111647825Y-109765896D01*
X111732408Y-109757565D01*
X111774699Y-109753400D01*
X111859541Y-109753400D01*
X111901832Y-109757565D01*
X111901832Y-109757565D01*
G37*
G36*
X171803532Y-109757565D02*
X171888115Y-109765896D01*
X172008547Y-109802429D01*
X172050908Y-109815279D01*
X172200932Y-109895468D01*
X172332432Y-110003388D01*
X172440352Y-110134888D01*
X172520541Y-110284912D01*
X172520542Y-110284916D01*
X172569924Y-110447705D01*
X172586598Y-110617000D01*
X172569924Y-110786295D01*
X172533391Y-110906727D01*
X172520541Y-110949088D01*
X172440352Y-111099112D01*
X172332432Y-111230612D01*
X172200932Y-111338532D01*
X172050908Y-111418721D01*
X172008547Y-111431571D01*
X171888115Y-111468104D01*
X171803532Y-111476435D01*
X171761241Y-111480600D01*
X171676399Y-111480600D01*
X171634108Y-111476435D01*
X171549525Y-111468104D01*
X171429093Y-111431571D01*
X171386732Y-111418721D01*
X171236708Y-111338532D01*
X171105208Y-111230612D01*
X170997288Y-111099112D01*
X170917099Y-110949088D01*
X170904249Y-110906727D01*
X170867716Y-110786295D01*
X170851042Y-110617000D01*
X170867716Y-110447705D01*
X170917098Y-110284916D01*
X170917099Y-110284912D01*
X170997288Y-110134888D01*
X171105208Y-110003388D01*
X171236708Y-109895468D01*
X171386732Y-109815279D01*
X171429093Y-109802429D01*
X171549525Y-109765896D01*
X171634108Y-109757565D01*
X171676399Y-109753400D01*
X171761241Y-109753400D01*
X171803532Y-109757565D01*
X171803532Y-109757565D01*
G37*
G36*
X174343532Y-109757565D02*
X174428115Y-109765896D01*
X174548547Y-109802429D01*
X174590908Y-109815279D01*
X174740932Y-109895468D01*
X174872432Y-110003388D01*
X174980352Y-110134888D01*
X175060541Y-110284912D01*
X175060542Y-110284916D01*
X175109924Y-110447705D01*
X175126598Y-110617000D01*
X175109924Y-110786295D01*
X175073391Y-110906727D01*
X175060541Y-110949088D01*
X174980352Y-111099112D01*
X174872432Y-111230612D01*
X174740932Y-111338532D01*
X174590908Y-111418721D01*
X174548547Y-111431571D01*
X174428115Y-111468104D01*
X174343532Y-111476435D01*
X174301241Y-111480600D01*
X174216399Y-111480600D01*
X174174108Y-111476435D01*
X174089525Y-111468104D01*
X173969093Y-111431571D01*
X173926732Y-111418721D01*
X173776708Y-111338532D01*
X173645208Y-111230612D01*
X173537288Y-111099112D01*
X173457099Y-110949088D01*
X173444249Y-110906727D01*
X173407716Y-110786295D01*
X173391042Y-110617000D01*
X173407716Y-110447705D01*
X173457098Y-110284916D01*
X173457099Y-110284912D01*
X173537288Y-110134888D01*
X173645208Y-110003388D01*
X173776708Y-109895468D01*
X173926732Y-109815279D01*
X173969093Y-109802429D01*
X174089525Y-109765896D01*
X174174108Y-109757565D01*
X174216399Y-109753400D01*
X174301241Y-109753400D01*
X174343532Y-109757565D01*
X174343532Y-109757565D01*
G37*
G36*
X109361832Y-109757565D02*
X109446415Y-109765896D01*
X109566847Y-109802429D01*
X109609208Y-109815279D01*
X109759232Y-109895468D01*
X109890732Y-110003388D01*
X109998652Y-110134888D01*
X110078841Y-110284912D01*
X110078842Y-110284916D01*
X110128224Y-110447705D01*
X110144898Y-110617000D01*
X110128224Y-110786295D01*
X110091691Y-110906727D01*
X110078841Y-110949088D01*
X109998652Y-111099112D01*
X109890732Y-111230612D01*
X109759232Y-111338532D01*
X109609208Y-111418721D01*
X109566847Y-111431571D01*
X109446415Y-111468104D01*
X109361832Y-111476435D01*
X109319541Y-111480600D01*
X109234699Y-111480600D01*
X109192408Y-111476435D01*
X109107825Y-111468104D01*
X108987393Y-111431571D01*
X108945032Y-111418721D01*
X108795008Y-111338532D01*
X108663508Y-111230612D01*
X108555588Y-111099112D01*
X108475399Y-110949088D01*
X108462549Y-110906727D01*
X108426016Y-110786295D01*
X108409342Y-110617000D01*
X108426016Y-110447705D01*
X108475398Y-110284916D01*
X108475399Y-110284912D01*
X108555588Y-110134888D01*
X108663508Y-110003388D01*
X108795008Y-109895468D01*
X108945032Y-109815279D01*
X108987393Y-109802429D01*
X109107825Y-109765896D01*
X109192408Y-109757565D01*
X109234699Y-109753400D01*
X109319541Y-109753400D01*
X109361832Y-109757565D01*
X109361832Y-109757565D01*
G37*
G36*
X169740100Y-111152400D02*
X167540100Y-111152400D01*
X167540100Y-110132400D01*
X169740100Y-110132400D01*
X169740100Y-111152400D01*
X169740100Y-111152400D01*
G37*
G36*
X115980100Y-111152400D02*
X113780100Y-111152400D01*
X113780100Y-110132400D01*
X115980100Y-110132400D01*
X115980100Y-111152400D01*
X115980100Y-111152400D01*
G37*
G36*
X164240100Y-111152400D02*
X162040100Y-111152400D01*
X162040100Y-110132400D01*
X164240100Y-110132400D01*
X164240100Y-111152400D01*
X164240100Y-111152400D01*
G37*
G36*
X121480100Y-111152400D02*
X119280100Y-111152400D01*
X119280100Y-110132400D01*
X121480100Y-110132400D01*
X121480100Y-111152400D01*
X121480100Y-111152400D01*
G37*
G36*
X171803532Y-107217565D02*
X171888115Y-107225896D01*
X172008547Y-107262429D01*
X172050908Y-107275279D01*
X172200932Y-107355468D01*
X172332432Y-107463388D01*
X172440352Y-107594888D01*
X172520541Y-107744912D01*
X172520542Y-107744916D01*
X172569924Y-107907705D01*
X172586598Y-108077000D01*
X172569924Y-108246295D01*
X172533391Y-108366727D01*
X172520541Y-108409088D01*
X172440352Y-108559112D01*
X172332432Y-108690612D01*
X172200932Y-108798532D01*
X172050908Y-108878721D01*
X172008547Y-108891571D01*
X171888115Y-108928104D01*
X171803532Y-108936435D01*
X171761241Y-108940600D01*
X171676399Y-108940600D01*
X171634108Y-108936435D01*
X171549525Y-108928104D01*
X171429093Y-108891571D01*
X171386732Y-108878721D01*
X171236708Y-108798532D01*
X171105208Y-108690612D01*
X170997288Y-108559112D01*
X170917099Y-108409088D01*
X170904249Y-108366727D01*
X170867716Y-108246295D01*
X170851042Y-108077000D01*
X170867716Y-107907705D01*
X170917098Y-107744916D01*
X170917099Y-107744912D01*
X170997288Y-107594888D01*
X171105208Y-107463388D01*
X171236708Y-107355468D01*
X171386732Y-107275279D01*
X171429093Y-107262429D01*
X171549525Y-107225896D01*
X171634108Y-107217565D01*
X171676399Y-107213400D01*
X171761241Y-107213400D01*
X171803532Y-107217565D01*
X171803532Y-107217565D01*
G37*
G36*
X109361832Y-107217565D02*
X109446415Y-107225896D01*
X109566847Y-107262429D01*
X109609208Y-107275279D01*
X109759232Y-107355468D01*
X109890732Y-107463388D01*
X109998652Y-107594888D01*
X110078841Y-107744912D01*
X110078842Y-107744916D01*
X110128224Y-107907705D01*
X110144898Y-108077000D01*
X110128224Y-108246295D01*
X110091691Y-108366727D01*
X110078841Y-108409088D01*
X109998652Y-108559112D01*
X109890732Y-108690612D01*
X109759232Y-108798532D01*
X109609208Y-108878721D01*
X109566847Y-108891571D01*
X109446415Y-108928104D01*
X109361832Y-108936435D01*
X109319541Y-108940600D01*
X109234699Y-108940600D01*
X109192408Y-108936435D01*
X109107825Y-108928104D01*
X108987393Y-108891571D01*
X108945032Y-108878721D01*
X108795008Y-108798532D01*
X108663508Y-108690612D01*
X108555588Y-108559112D01*
X108475399Y-108409088D01*
X108462549Y-108366727D01*
X108426016Y-108246295D01*
X108409342Y-108077000D01*
X108426016Y-107907705D01*
X108475398Y-107744916D01*
X108475399Y-107744912D01*
X108555588Y-107594888D01*
X108663508Y-107463388D01*
X108795008Y-107355468D01*
X108945032Y-107275279D01*
X108987393Y-107262429D01*
X109107825Y-107225896D01*
X109192408Y-107217565D01*
X109234699Y-107213400D01*
X109319541Y-107213400D01*
X109361832Y-107217565D01*
X109361832Y-107217565D01*
G37*
G36*
X174343532Y-107217565D02*
X174428115Y-107225896D01*
X174548547Y-107262429D01*
X174590908Y-107275279D01*
X174740932Y-107355468D01*
X174872432Y-107463388D01*
X174980352Y-107594888D01*
X175060541Y-107744912D01*
X175060542Y-107744916D01*
X175109924Y-107907705D01*
X175126598Y-108077000D01*
X175109924Y-108246295D01*
X175073391Y-108366727D01*
X175060541Y-108409088D01*
X174980352Y-108559112D01*
X174872432Y-108690612D01*
X174740932Y-108798532D01*
X174590908Y-108878721D01*
X174548547Y-108891571D01*
X174428115Y-108928104D01*
X174343532Y-108936435D01*
X174301241Y-108940600D01*
X174216399Y-108940600D01*
X174174108Y-108936435D01*
X174089525Y-108928104D01*
X173969093Y-108891571D01*
X173926732Y-108878721D01*
X173776708Y-108798532D01*
X173645208Y-108690612D01*
X173537288Y-108559112D01*
X173457099Y-108409088D01*
X173444249Y-108366727D01*
X173407716Y-108246295D01*
X173391042Y-108077000D01*
X173407716Y-107907705D01*
X173457098Y-107744916D01*
X173457099Y-107744912D01*
X173537288Y-107594888D01*
X173645208Y-107463388D01*
X173776708Y-107355468D01*
X173926732Y-107275279D01*
X173969093Y-107262429D01*
X174089525Y-107225896D01*
X174174108Y-107217565D01*
X174216399Y-107213400D01*
X174301241Y-107213400D01*
X174343532Y-107217565D01*
X174343532Y-107217565D01*
G37*
G36*
X111901832Y-107217565D02*
X111986415Y-107225896D01*
X112106847Y-107262429D01*
X112149208Y-107275279D01*
X112299232Y-107355468D01*
X112430732Y-107463388D01*
X112538652Y-107594888D01*
X112618841Y-107744912D01*
X112618842Y-107744916D01*
X112668224Y-107907705D01*
X112684898Y-108077000D01*
X112668224Y-108246295D01*
X112631691Y-108366727D01*
X112618841Y-108409088D01*
X112538652Y-108559112D01*
X112430732Y-108690612D01*
X112299232Y-108798532D01*
X112149208Y-108878721D01*
X112106847Y-108891571D01*
X111986415Y-108928104D01*
X111901832Y-108936435D01*
X111859541Y-108940600D01*
X111774699Y-108940600D01*
X111732408Y-108936435D01*
X111647825Y-108928104D01*
X111527393Y-108891571D01*
X111485032Y-108878721D01*
X111335008Y-108798532D01*
X111203508Y-108690612D01*
X111095588Y-108559112D01*
X111015399Y-108409088D01*
X111002549Y-108366727D01*
X110966016Y-108246295D01*
X110949342Y-108077000D01*
X110966016Y-107907705D01*
X111015398Y-107744916D01*
X111015399Y-107744912D01*
X111095588Y-107594888D01*
X111203508Y-107463388D01*
X111335008Y-107355468D01*
X111485032Y-107275279D01*
X111527393Y-107262429D01*
X111647825Y-107225896D01*
X111732408Y-107217565D01*
X111774699Y-107213400D01*
X111859541Y-107213400D01*
X111901832Y-107217565D01*
X111901832Y-107217565D01*
G37*
G36*
X169740100Y-108612400D02*
X167540100Y-108612400D01*
X167540100Y-107592400D01*
X169740100Y-107592400D01*
X169740100Y-108612400D01*
X169740100Y-108612400D01*
G37*
G36*
X164240100Y-108612400D02*
X162040100Y-108612400D01*
X162040100Y-107592400D01*
X164240100Y-107592400D01*
X164240100Y-108612400D01*
X164240100Y-108612400D01*
G37*
G36*
X121480100Y-108612400D02*
X119280100Y-108612400D01*
X119280100Y-107592400D01*
X121480100Y-107592400D01*
X121480100Y-108612400D01*
X121480100Y-108612400D01*
G37*
G36*
X115980100Y-108612400D02*
X113780100Y-108612400D01*
X113780100Y-107592400D01*
X115980100Y-107592400D01*
X115980100Y-108612400D01*
X115980100Y-108612400D01*
G37*
G36*
X109361832Y-104677565D02*
X109446415Y-104685896D01*
X109566847Y-104722429D01*
X109609208Y-104735279D01*
X109759232Y-104815468D01*
X109890732Y-104923388D01*
X109998652Y-105054888D01*
X110078841Y-105204912D01*
X110078842Y-105204916D01*
X110128224Y-105367705D01*
X110144898Y-105537000D01*
X110128224Y-105706295D01*
X110091691Y-105826727D01*
X110078841Y-105869088D01*
X109998652Y-106019112D01*
X109890732Y-106150612D01*
X109759232Y-106258532D01*
X109609208Y-106338721D01*
X109566847Y-106351571D01*
X109446415Y-106388104D01*
X109361832Y-106396435D01*
X109319541Y-106400600D01*
X109234699Y-106400600D01*
X109192408Y-106396435D01*
X109107825Y-106388104D01*
X108987393Y-106351571D01*
X108945032Y-106338721D01*
X108795008Y-106258532D01*
X108663508Y-106150612D01*
X108555588Y-106019112D01*
X108475399Y-105869088D01*
X108462549Y-105826727D01*
X108426016Y-105706295D01*
X108409342Y-105537000D01*
X108426016Y-105367705D01*
X108475398Y-105204916D01*
X108475399Y-105204912D01*
X108555588Y-105054888D01*
X108663508Y-104923388D01*
X108795008Y-104815468D01*
X108945032Y-104735279D01*
X108987393Y-104722429D01*
X109107825Y-104685896D01*
X109192408Y-104677565D01*
X109234699Y-104673400D01*
X109319541Y-104673400D01*
X109361832Y-104677565D01*
X109361832Y-104677565D01*
G37*
G36*
X111901832Y-104677565D02*
X111986415Y-104685896D01*
X112106847Y-104722429D01*
X112149208Y-104735279D01*
X112299232Y-104815468D01*
X112430732Y-104923388D01*
X112538652Y-105054888D01*
X112618841Y-105204912D01*
X112618842Y-105204916D01*
X112668224Y-105367705D01*
X112684898Y-105537000D01*
X112668224Y-105706295D01*
X112631691Y-105826727D01*
X112618841Y-105869088D01*
X112538652Y-106019112D01*
X112430732Y-106150612D01*
X112299232Y-106258532D01*
X112149208Y-106338721D01*
X112106847Y-106351571D01*
X111986415Y-106388104D01*
X111901832Y-106396435D01*
X111859541Y-106400600D01*
X111774699Y-106400600D01*
X111732408Y-106396435D01*
X111647825Y-106388104D01*
X111527393Y-106351571D01*
X111485032Y-106338721D01*
X111335008Y-106258532D01*
X111203508Y-106150612D01*
X111095588Y-106019112D01*
X111015399Y-105869088D01*
X111002549Y-105826727D01*
X110966016Y-105706295D01*
X110949342Y-105537000D01*
X110966016Y-105367705D01*
X111015398Y-105204916D01*
X111015399Y-105204912D01*
X111095588Y-105054888D01*
X111203508Y-104923388D01*
X111335008Y-104815468D01*
X111485032Y-104735279D01*
X111527393Y-104722429D01*
X111647825Y-104685896D01*
X111732408Y-104677565D01*
X111774699Y-104673400D01*
X111859541Y-104673400D01*
X111901832Y-104677565D01*
X111901832Y-104677565D01*
G37*
G36*
X174343532Y-104677565D02*
X174428115Y-104685896D01*
X174548547Y-104722429D01*
X174590908Y-104735279D01*
X174740932Y-104815468D01*
X174872432Y-104923388D01*
X174980352Y-105054888D01*
X175060541Y-105204912D01*
X175060542Y-105204916D01*
X175109924Y-105367705D01*
X175126598Y-105537000D01*
X175109924Y-105706295D01*
X175073391Y-105826727D01*
X175060541Y-105869088D01*
X174980352Y-106019112D01*
X174872432Y-106150612D01*
X174740932Y-106258532D01*
X174590908Y-106338721D01*
X174548547Y-106351571D01*
X174428115Y-106388104D01*
X174343532Y-106396435D01*
X174301241Y-106400600D01*
X174216399Y-106400600D01*
X174174108Y-106396435D01*
X174089525Y-106388104D01*
X173969093Y-106351571D01*
X173926732Y-106338721D01*
X173776708Y-106258532D01*
X173645208Y-106150612D01*
X173537288Y-106019112D01*
X173457099Y-105869088D01*
X173444249Y-105826727D01*
X173407716Y-105706295D01*
X173391042Y-105537000D01*
X173407716Y-105367705D01*
X173457098Y-105204916D01*
X173457099Y-105204912D01*
X173537288Y-105054888D01*
X173645208Y-104923388D01*
X173776708Y-104815468D01*
X173926732Y-104735279D01*
X173969093Y-104722429D01*
X174089525Y-104685896D01*
X174174108Y-104677565D01*
X174216399Y-104673400D01*
X174301241Y-104673400D01*
X174343532Y-104677565D01*
X174343532Y-104677565D01*
G37*
G36*
X171803532Y-104677565D02*
X171888115Y-104685896D01*
X172008547Y-104722429D01*
X172050908Y-104735279D01*
X172200932Y-104815468D01*
X172332432Y-104923388D01*
X172440352Y-105054888D01*
X172520541Y-105204912D01*
X172520542Y-105204916D01*
X172569924Y-105367705D01*
X172586598Y-105537000D01*
X172569924Y-105706295D01*
X172533391Y-105826727D01*
X172520541Y-105869088D01*
X172440352Y-106019112D01*
X172332432Y-106150612D01*
X172200932Y-106258532D01*
X172050908Y-106338721D01*
X172008547Y-106351571D01*
X171888115Y-106388104D01*
X171803532Y-106396435D01*
X171761241Y-106400600D01*
X171676399Y-106400600D01*
X171634108Y-106396435D01*
X171549525Y-106388104D01*
X171429093Y-106351571D01*
X171386732Y-106338721D01*
X171236708Y-106258532D01*
X171105208Y-106150612D01*
X170997288Y-106019112D01*
X170917099Y-105869088D01*
X170904249Y-105826727D01*
X170867716Y-105706295D01*
X170851042Y-105537000D01*
X170867716Y-105367705D01*
X170917098Y-105204916D01*
X170917099Y-105204912D01*
X170997288Y-105054888D01*
X171105208Y-104923388D01*
X171236708Y-104815468D01*
X171386732Y-104735279D01*
X171429093Y-104722429D01*
X171549525Y-104685896D01*
X171634108Y-104677565D01*
X171676399Y-104673400D01*
X171761241Y-104673400D01*
X171803532Y-104677565D01*
X171803532Y-104677565D01*
G37*
G36*
X121480100Y-106072400D02*
X119280100Y-106072400D01*
X119280100Y-105052400D01*
X121480100Y-105052400D01*
X121480100Y-106072400D01*
X121480100Y-106072400D01*
G37*
G36*
X169740100Y-106072400D02*
X167540100Y-106072400D01*
X167540100Y-105052400D01*
X169740100Y-105052400D01*
X169740100Y-106072400D01*
X169740100Y-106072400D01*
G37*
G36*
X115980100Y-106072400D02*
X113780100Y-106072400D01*
X113780100Y-105052400D01*
X115980100Y-105052400D01*
X115980100Y-106072400D01*
X115980100Y-106072400D01*
G37*
G36*
X164240100Y-106072400D02*
X162040100Y-106072400D01*
X162040100Y-105052400D01*
X164240100Y-105052400D01*
X164240100Y-106072400D01*
X164240100Y-106072400D01*
G37*
G36*
X133053600Y-105063600D02*
X131326400Y-105063600D01*
X131326400Y-103336400D01*
X133053600Y-103336400D01*
X133053600Y-105063600D01*
X133053600Y-105063600D01*
G37*
G36*
X129423600Y-105063600D02*
X127696400Y-105063600D01*
X127696400Y-103336400D01*
X129423600Y-103336400D01*
X129423600Y-105063600D01*
X129423600Y-105063600D01*
G37*
G36*
X109361832Y-102137565D02*
X109446415Y-102145896D01*
X109566847Y-102182429D01*
X109609208Y-102195279D01*
X109759232Y-102275468D01*
X109890732Y-102383388D01*
X109998652Y-102514888D01*
X110078841Y-102664912D01*
X110078842Y-102664916D01*
X110128224Y-102827705D01*
X110144898Y-102997000D01*
X110128224Y-103166295D01*
X110091691Y-103286727D01*
X110078841Y-103329088D01*
X109998652Y-103479112D01*
X109890732Y-103610612D01*
X109759232Y-103718532D01*
X109609208Y-103798721D01*
X109566847Y-103811571D01*
X109446415Y-103848104D01*
X109361832Y-103856435D01*
X109319541Y-103860600D01*
X109234699Y-103860600D01*
X109192408Y-103856435D01*
X109107825Y-103848104D01*
X108987393Y-103811571D01*
X108945032Y-103798721D01*
X108795008Y-103718532D01*
X108663508Y-103610612D01*
X108555588Y-103479112D01*
X108475399Y-103329088D01*
X108462549Y-103286727D01*
X108426016Y-103166295D01*
X108409342Y-102997000D01*
X108426016Y-102827705D01*
X108475398Y-102664916D01*
X108475399Y-102664912D01*
X108555588Y-102514888D01*
X108663508Y-102383388D01*
X108795008Y-102275468D01*
X108945032Y-102195279D01*
X108987393Y-102182429D01*
X109107825Y-102145896D01*
X109192408Y-102137565D01*
X109234699Y-102133400D01*
X109319541Y-102133400D01*
X109361832Y-102137565D01*
X109361832Y-102137565D01*
G37*
G36*
X174343532Y-102137565D02*
X174428115Y-102145896D01*
X174548547Y-102182429D01*
X174590908Y-102195279D01*
X174740932Y-102275468D01*
X174872432Y-102383388D01*
X174980352Y-102514888D01*
X175060541Y-102664912D01*
X175060542Y-102664916D01*
X175109924Y-102827705D01*
X175126598Y-102997000D01*
X175109924Y-103166295D01*
X175073391Y-103286727D01*
X175060541Y-103329088D01*
X174980352Y-103479112D01*
X174872432Y-103610612D01*
X174740932Y-103718532D01*
X174590908Y-103798721D01*
X174548547Y-103811571D01*
X174428115Y-103848104D01*
X174343532Y-103856435D01*
X174301241Y-103860600D01*
X174216399Y-103860600D01*
X174174108Y-103856435D01*
X174089525Y-103848104D01*
X173969093Y-103811571D01*
X173926732Y-103798721D01*
X173776708Y-103718532D01*
X173645208Y-103610612D01*
X173537288Y-103479112D01*
X173457099Y-103329088D01*
X173444249Y-103286727D01*
X173407716Y-103166295D01*
X173391042Y-102997000D01*
X173407716Y-102827705D01*
X173457098Y-102664916D01*
X173457099Y-102664912D01*
X173537288Y-102514888D01*
X173645208Y-102383388D01*
X173776708Y-102275468D01*
X173926732Y-102195279D01*
X173969093Y-102182429D01*
X174089525Y-102145896D01*
X174174108Y-102137565D01*
X174216399Y-102133400D01*
X174301241Y-102133400D01*
X174343532Y-102137565D01*
X174343532Y-102137565D01*
G37*
G36*
X171803532Y-102137565D02*
X171888115Y-102145896D01*
X172008547Y-102182429D01*
X172050908Y-102195279D01*
X172200932Y-102275468D01*
X172332432Y-102383388D01*
X172440352Y-102514888D01*
X172520541Y-102664912D01*
X172520542Y-102664916D01*
X172569924Y-102827705D01*
X172586598Y-102997000D01*
X172569924Y-103166295D01*
X172533391Y-103286727D01*
X172520541Y-103329088D01*
X172440352Y-103479112D01*
X172332432Y-103610612D01*
X172200932Y-103718532D01*
X172050908Y-103798721D01*
X172008547Y-103811571D01*
X171888115Y-103848104D01*
X171803532Y-103856435D01*
X171761241Y-103860600D01*
X171676399Y-103860600D01*
X171634108Y-103856435D01*
X171549525Y-103848104D01*
X171429093Y-103811571D01*
X171386732Y-103798721D01*
X171236708Y-103718532D01*
X171105208Y-103610612D01*
X170997288Y-103479112D01*
X170917099Y-103329088D01*
X170904249Y-103286727D01*
X170867716Y-103166295D01*
X170851042Y-102997000D01*
X170867716Y-102827705D01*
X170917098Y-102664916D01*
X170917099Y-102664912D01*
X170997288Y-102514888D01*
X171105208Y-102383388D01*
X171236708Y-102275468D01*
X171386732Y-102195279D01*
X171429093Y-102182429D01*
X171549525Y-102145896D01*
X171634108Y-102137565D01*
X171676399Y-102133400D01*
X171761241Y-102133400D01*
X171803532Y-102137565D01*
X171803532Y-102137565D01*
G37*
G36*
X111901832Y-102137565D02*
X111986415Y-102145896D01*
X112106847Y-102182429D01*
X112149208Y-102195279D01*
X112299232Y-102275468D01*
X112430732Y-102383388D01*
X112538652Y-102514888D01*
X112618841Y-102664912D01*
X112618842Y-102664916D01*
X112668224Y-102827705D01*
X112684898Y-102997000D01*
X112668224Y-103166295D01*
X112631691Y-103286727D01*
X112618841Y-103329088D01*
X112538652Y-103479112D01*
X112430732Y-103610612D01*
X112299232Y-103718532D01*
X112149208Y-103798721D01*
X112106847Y-103811571D01*
X111986415Y-103848104D01*
X111901832Y-103856435D01*
X111859541Y-103860600D01*
X111774699Y-103860600D01*
X111732408Y-103856435D01*
X111647825Y-103848104D01*
X111527393Y-103811571D01*
X111485032Y-103798721D01*
X111335008Y-103718532D01*
X111203508Y-103610612D01*
X111095588Y-103479112D01*
X111015399Y-103329088D01*
X111002549Y-103286727D01*
X110966016Y-103166295D01*
X110949342Y-102997000D01*
X110966016Y-102827705D01*
X111015398Y-102664916D01*
X111015399Y-102664912D01*
X111095588Y-102514888D01*
X111203508Y-102383388D01*
X111335008Y-102275468D01*
X111485032Y-102195279D01*
X111527393Y-102182429D01*
X111647825Y-102145896D01*
X111732408Y-102137565D01*
X111774699Y-102133400D01*
X111859541Y-102133400D01*
X111901832Y-102137565D01*
X111901832Y-102137565D01*
G37*
G36*
X169740100Y-103532400D02*
X167540100Y-103532400D01*
X167540100Y-102512400D01*
X169740100Y-102512400D01*
X169740100Y-103532400D01*
X169740100Y-103532400D01*
G37*
G36*
X164240100Y-103532400D02*
X162040100Y-103532400D01*
X162040100Y-102512400D01*
X164240100Y-102512400D01*
X164240100Y-103532400D01*
X164240100Y-103532400D01*
G37*
G36*
X121480100Y-103532400D02*
X119280100Y-103532400D01*
X119280100Y-102512400D01*
X121480100Y-102512400D01*
X121480100Y-103532400D01*
X121480100Y-103532400D01*
G37*
G36*
X115980100Y-103532400D02*
X113780100Y-103532400D01*
X113780100Y-102512400D01*
X115980100Y-102512400D01*
X115980100Y-103532400D01*
X115980100Y-103532400D01*
G37*
G36*
X128644712Y-100800565D02*
X128729295Y-100808896D01*
X128849727Y-100845429D01*
X128892088Y-100858279D01*
X129042112Y-100938468D01*
X129173612Y-101046388D01*
X129281532Y-101177888D01*
X129361721Y-101327912D01*
X129361722Y-101327916D01*
X129411104Y-101490705D01*
X129427778Y-101660000D01*
X129411104Y-101829295D01*
X129374571Y-101949727D01*
X129361721Y-101992088D01*
X129281532Y-102142112D01*
X129173612Y-102273612D01*
X129042112Y-102381532D01*
X128892088Y-102461721D01*
X128849727Y-102474571D01*
X128729295Y-102511104D01*
X128644712Y-102519435D01*
X128602421Y-102523600D01*
X128517579Y-102523600D01*
X128475288Y-102519435D01*
X128390705Y-102511104D01*
X128270273Y-102474571D01*
X128227912Y-102461721D01*
X128077888Y-102381532D01*
X127946388Y-102273612D01*
X127838468Y-102142112D01*
X127758279Y-101992088D01*
X127745429Y-101949727D01*
X127708896Y-101829295D01*
X127692222Y-101660000D01*
X127708896Y-101490705D01*
X127758278Y-101327916D01*
X127758279Y-101327912D01*
X127838468Y-101177888D01*
X127946388Y-101046388D01*
X128077888Y-100938468D01*
X128227912Y-100858279D01*
X128270273Y-100845429D01*
X128390705Y-100808896D01*
X128475288Y-100800565D01*
X128517579Y-100796400D01*
X128602421Y-100796400D01*
X128644712Y-100800565D01*
X128644712Y-100800565D01*
G37*
G36*
X132274712Y-100800565D02*
X132359295Y-100808896D01*
X132479727Y-100845429D01*
X132522088Y-100858279D01*
X132672112Y-100938468D01*
X132803612Y-101046388D01*
X132911532Y-101177888D01*
X132991721Y-101327912D01*
X132991722Y-101327916D01*
X133041104Y-101490705D01*
X133057778Y-101660000D01*
X133041104Y-101829295D01*
X133004571Y-101949727D01*
X132991721Y-101992088D01*
X132911532Y-102142112D01*
X132803612Y-102273612D01*
X132672112Y-102381532D01*
X132522088Y-102461721D01*
X132479727Y-102474571D01*
X132359295Y-102511104D01*
X132274712Y-102519435D01*
X132232421Y-102523600D01*
X132147579Y-102523600D01*
X132105288Y-102519435D01*
X132020705Y-102511104D01*
X131900273Y-102474571D01*
X131857912Y-102461721D01*
X131707888Y-102381532D01*
X131576388Y-102273612D01*
X131468468Y-102142112D01*
X131388279Y-101992088D01*
X131375429Y-101949727D01*
X131338896Y-101829295D01*
X131322222Y-101660000D01*
X131338896Y-101490705D01*
X131388278Y-101327916D01*
X131388279Y-101327912D01*
X131468468Y-101177888D01*
X131576388Y-101046388D01*
X131707888Y-100938468D01*
X131857912Y-100858279D01*
X131900273Y-100845429D01*
X132020705Y-100808896D01*
X132105288Y-100800565D01*
X132147579Y-100796400D01*
X132232421Y-100796400D01*
X132274712Y-100800565D01*
X132274712Y-100800565D01*
G37*
G36*
X112680720Y-101320600D02*
X110953520Y-101320600D01*
X110953520Y-99593400D01*
X112680720Y-99593400D01*
X112680720Y-101320600D01*
X112680720Y-101320600D01*
G37*
G36*
X109361832Y-99597565D02*
X109446415Y-99605896D01*
X109566847Y-99642429D01*
X109609208Y-99655279D01*
X109759232Y-99735468D01*
X109890732Y-99843388D01*
X109998652Y-99974888D01*
X110078841Y-100124912D01*
X110078842Y-100124916D01*
X110128224Y-100287705D01*
X110144898Y-100457000D01*
X110128224Y-100626295D01*
X110091691Y-100746727D01*
X110078841Y-100789088D01*
X109998652Y-100939112D01*
X109890732Y-101070612D01*
X109759232Y-101178532D01*
X109609208Y-101258721D01*
X109566847Y-101271571D01*
X109446415Y-101308104D01*
X109361832Y-101316435D01*
X109319541Y-101320600D01*
X109234699Y-101320600D01*
X109192408Y-101316435D01*
X109107825Y-101308104D01*
X108987393Y-101271571D01*
X108945032Y-101258721D01*
X108795008Y-101178532D01*
X108663508Y-101070612D01*
X108555588Y-100939112D01*
X108475399Y-100789088D01*
X108462549Y-100746727D01*
X108426016Y-100626295D01*
X108409342Y-100457000D01*
X108426016Y-100287705D01*
X108475398Y-100124916D01*
X108475399Y-100124912D01*
X108555588Y-99974888D01*
X108663508Y-99843388D01*
X108795008Y-99735468D01*
X108945032Y-99655279D01*
X108987393Y-99642429D01*
X109107825Y-99605896D01*
X109192408Y-99597565D01*
X109234699Y-99593400D01*
X109319541Y-99593400D01*
X109361832Y-99597565D01*
X109361832Y-99597565D01*
G37*
G36*
X171803532Y-99597565D02*
X171888115Y-99605896D01*
X172008547Y-99642429D01*
X172050908Y-99655279D01*
X172200932Y-99735468D01*
X172332432Y-99843388D01*
X172440352Y-99974888D01*
X172520541Y-100124912D01*
X172520542Y-100124916D01*
X172569924Y-100287705D01*
X172586598Y-100457000D01*
X172569924Y-100626295D01*
X172533391Y-100746727D01*
X172520541Y-100789088D01*
X172440352Y-100939112D01*
X172332432Y-101070612D01*
X172200932Y-101178532D01*
X172050908Y-101258721D01*
X172008547Y-101271571D01*
X171888115Y-101308104D01*
X171803532Y-101316435D01*
X171761241Y-101320600D01*
X171676399Y-101320600D01*
X171634108Y-101316435D01*
X171549525Y-101308104D01*
X171429093Y-101271571D01*
X171386732Y-101258721D01*
X171236708Y-101178532D01*
X171105208Y-101070612D01*
X170997288Y-100939112D01*
X170917099Y-100789088D01*
X170904249Y-100746727D01*
X170867716Y-100626295D01*
X170851042Y-100457000D01*
X170867716Y-100287705D01*
X170917098Y-100124916D01*
X170917099Y-100124912D01*
X170997288Y-99974888D01*
X171105208Y-99843388D01*
X171236708Y-99735468D01*
X171386732Y-99655279D01*
X171429093Y-99642429D01*
X171549525Y-99605896D01*
X171634108Y-99597565D01*
X171676399Y-99593400D01*
X171761241Y-99593400D01*
X171803532Y-99597565D01*
X171803532Y-99597565D01*
G37*
G36*
X174343532Y-99597565D02*
X174428115Y-99605896D01*
X174548547Y-99642429D01*
X174590908Y-99655279D01*
X174740932Y-99735468D01*
X174872432Y-99843388D01*
X174980352Y-99974888D01*
X175060541Y-100124912D01*
X175060542Y-100124916D01*
X175109924Y-100287705D01*
X175126598Y-100457000D01*
X175109924Y-100626295D01*
X175073391Y-100746727D01*
X175060541Y-100789088D01*
X174980352Y-100939112D01*
X174872432Y-101070612D01*
X174740932Y-101178532D01*
X174590908Y-101258721D01*
X174548547Y-101271571D01*
X174428115Y-101308104D01*
X174343532Y-101316435D01*
X174301241Y-101320600D01*
X174216399Y-101320600D01*
X174174108Y-101316435D01*
X174089525Y-101308104D01*
X173969093Y-101271571D01*
X173926732Y-101258721D01*
X173776708Y-101178532D01*
X173645208Y-101070612D01*
X173537288Y-100939112D01*
X173457099Y-100789088D01*
X173444249Y-100746727D01*
X173407716Y-100626295D01*
X173391042Y-100457000D01*
X173407716Y-100287705D01*
X173457098Y-100124916D01*
X173457099Y-100124912D01*
X173537288Y-99974888D01*
X173645208Y-99843388D01*
X173776708Y-99735468D01*
X173926732Y-99655279D01*
X173969093Y-99642429D01*
X174089525Y-99605896D01*
X174174108Y-99597565D01*
X174216399Y-99593400D01*
X174301241Y-99593400D01*
X174343532Y-99597565D01*
X174343532Y-99597565D01*
G37*
G36*
X121480100Y-100992400D02*
X119280100Y-100992400D01*
X119280100Y-99972400D01*
X121480100Y-99972400D01*
X121480100Y-100992400D01*
X121480100Y-100992400D01*
G37*
G36*
X164240100Y-100992400D02*
X162040100Y-100992400D01*
X162040100Y-99972400D01*
X164240100Y-99972400D01*
X164240100Y-100992400D01*
X164240100Y-100992400D01*
G37*
G36*
X115980100Y-100992400D02*
X113780100Y-100992400D01*
X113780100Y-99972400D01*
X115980100Y-99972400D01*
X115980100Y-100992400D01*
X115980100Y-100992400D01*
G37*
G36*
X169740100Y-100992400D02*
X167540100Y-100992400D01*
X167540100Y-99972400D01*
X169740100Y-99972400D01*
X169740100Y-100992400D01*
X169740100Y-100992400D01*
G37*
G36*
X169740100Y-98452400D02*
X167540100Y-98452400D01*
X167540100Y-97432400D01*
X169740100Y-97432400D01*
X169740100Y-98452400D01*
X169740100Y-98452400D01*
G37*
G36*
X164240100Y-98452400D02*
X162040100Y-98452400D01*
X162040100Y-97432400D01*
X164240100Y-97432400D01*
X164240100Y-98452400D01*
X164240100Y-98452400D01*
G37*
G36*
X121480100Y-98452400D02*
X119280100Y-98452400D01*
X119280100Y-97432400D01*
X121480100Y-97432400D01*
X121480100Y-98452400D01*
X121480100Y-98452400D01*
G37*
G36*
X115980100Y-98452400D02*
X113780100Y-98452400D01*
X113780100Y-97432400D01*
X115980100Y-97432400D01*
X115980100Y-98452400D01*
X115980100Y-98452400D01*
G37*
G36*
X121480100Y-95912400D02*
X119280100Y-95912400D01*
X119280100Y-94892400D01*
X121480100Y-94892400D01*
X121480100Y-95912400D01*
X121480100Y-95912400D01*
G37*
G36*
X115980100Y-95912400D02*
X113780100Y-95912400D01*
X113780100Y-94892400D01*
X115980100Y-94892400D01*
X115980100Y-95912400D01*
X115980100Y-95912400D01*
G37*
G36*
X169740100Y-95912400D02*
X167540100Y-95912400D01*
X167540100Y-94892400D01*
X169740100Y-94892400D01*
X169740100Y-95912400D01*
X169740100Y-95912400D01*
G37*
G36*
X164240100Y-95912400D02*
X162040100Y-95912400D01*
X162040100Y-94892400D01*
X164240100Y-94892400D01*
X164240100Y-95912400D01*
X164240100Y-95912400D01*
G37*
G36*
X164240100Y-93372400D02*
X162040100Y-93372400D01*
X162040100Y-92352400D01*
X164240100Y-92352400D01*
X164240100Y-93372400D01*
X164240100Y-93372400D01*
G37*
G36*
X121480100Y-93372400D02*
X119280100Y-93372400D01*
X119280100Y-92352400D01*
X121480100Y-92352400D01*
X121480100Y-93372400D01*
X121480100Y-93372400D01*
G37*
G36*
X115980100Y-93372400D02*
X113780100Y-93372400D01*
X113780100Y-92352400D01*
X115980100Y-92352400D01*
X115980100Y-93372400D01*
X115980100Y-93372400D01*
G37*
G36*
X169740100Y-93372400D02*
X167540100Y-93372400D01*
X167540100Y-92352400D01*
X169740100Y-92352400D01*
X169740100Y-93372400D01*
X169740100Y-93372400D01*
G37*
G36*
X174343532Y-89437565D02*
X174428115Y-89445896D01*
X174548547Y-89482429D01*
X174590908Y-89495279D01*
X174740932Y-89575468D01*
X174872432Y-89683388D01*
X174980352Y-89814888D01*
X175060541Y-89964912D01*
X175060542Y-89964916D01*
X175109924Y-90127705D01*
X175126598Y-90297000D01*
X175109924Y-90466295D01*
X175073391Y-90586727D01*
X175060541Y-90629088D01*
X174980352Y-90779112D01*
X174872432Y-90910612D01*
X174740932Y-91018532D01*
X174590908Y-91098721D01*
X174548547Y-91111571D01*
X174428115Y-91148104D01*
X174343532Y-91156435D01*
X174301241Y-91160600D01*
X174216399Y-91160600D01*
X174174108Y-91156435D01*
X174089525Y-91148104D01*
X173969093Y-91111571D01*
X173926732Y-91098721D01*
X173776708Y-91018532D01*
X173645208Y-90910612D01*
X173537288Y-90779112D01*
X173457099Y-90629088D01*
X173444249Y-90586727D01*
X173407716Y-90466295D01*
X173391042Y-90297000D01*
X173407716Y-90127705D01*
X173457098Y-89964916D01*
X173457099Y-89964912D01*
X173537288Y-89814888D01*
X173645208Y-89683388D01*
X173776708Y-89575468D01*
X173926732Y-89495279D01*
X173969093Y-89482429D01*
X174089525Y-89445896D01*
X174174108Y-89437565D01*
X174216399Y-89433400D01*
X174301241Y-89433400D01*
X174343532Y-89437565D01*
X174343532Y-89437565D01*
G37*
G36*
X172582420Y-91160600D02*
X170855220Y-91160600D01*
X170855220Y-89433400D01*
X172582420Y-89433400D01*
X172582420Y-91160600D01*
X172582420Y-91160600D01*
G37*
G36*
X111901832Y-89437565D02*
X111986415Y-89445896D01*
X112106847Y-89482429D01*
X112149208Y-89495279D01*
X112299232Y-89575468D01*
X112430732Y-89683388D01*
X112538652Y-89814888D01*
X112618841Y-89964912D01*
X112618842Y-89964916D01*
X112668224Y-90127705D01*
X112684898Y-90297000D01*
X112668224Y-90466295D01*
X112631691Y-90586727D01*
X112618841Y-90629088D01*
X112538652Y-90779112D01*
X112430732Y-90910612D01*
X112299232Y-91018532D01*
X112149208Y-91098721D01*
X112106847Y-91111571D01*
X111986415Y-91148104D01*
X111901832Y-91156435D01*
X111859541Y-91160600D01*
X111774699Y-91160600D01*
X111732408Y-91156435D01*
X111647825Y-91148104D01*
X111527393Y-91111571D01*
X111485032Y-91098721D01*
X111335008Y-91018532D01*
X111203508Y-90910612D01*
X111095588Y-90779112D01*
X111015399Y-90629088D01*
X111002549Y-90586727D01*
X110966016Y-90466295D01*
X110949342Y-90297000D01*
X110966016Y-90127705D01*
X111015398Y-89964916D01*
X111015399Y-89964912D01*
X111095588Y-89814888D01*
X111203508Y-89683388D01*
X111335008Y-89575468D01*
X111485032Y-89495279D01*
X111527393Y-89482429D01*
X111647825Y-89445896D01*
X111732408Y-89437565D01*
X111774699Y-89433400D01*
X111859541Y-89433400D01*
X111901832Y-89437565D01*
X111901832Y-89437565D01*
G37*
G36*
X109361832Y-89437565D02*
X109446415Y-89445896D01*
X109566847Y-89482429D01*
X109609208Y-89495279D01*
X109759232Y-89575468D01*
X109890732Y-89683388D01*
X109998652Y-89814888D01*
X110078841Y-89964912D01*
X110078842Y-89964916D01*
X110128224Y-90127705D01*
X110144898Y-90297000D01*
X110128224Y-90466295D01*
X110091691Y-90586727D01*
X110078841Y-90629088D01*
X109998652Y-90779112D01*
X109890732Y-90910612D01*
X109759232Y-91018532D01*
X109609208Y-91098721D01*
X109566847Y-91111571D01*
X109446415Y-91148104D01*
X109361832Y-91156435D01*
X109319541Y-91160600D01*
X109234699Y-91160600D01*
X109192408Y-91156435D01*
X109107825Y-91148104D01*
X108987393Y-91111571D01*
X108945032Y-91098721D01*
X108795008Y-91018532D01*
X108663508Y-90910612D01*
X108555588Y-90779112D01*
X108475399Y-90629088D01*
X108462549Y-90586727D01*
X108426016Y-90466295D01*
X108409342Y-90297000D01*
X108426016Y-90127705D01*
X108475398Y-89964916D01*
X108475399Y-89964912D01*
X108555588Y-89814888D01*
X108663508Y-89683388D01*
X108795008Y-89575468D01*
X108945032Y-89495279D01*
X108987393Y-89482429D01*
X109107825Y-89445896D01*
X109192408Y-89437565D01*
X109234699Y-89433400D01*
X109319541Y-89433400D01*
X109361832Y-89437565D01*
X109361832Y-89437565D01*
G37*
G36*
X115980100Y-90832400D02*
X113780100Y-90832400D01*
X113780100Y-89812400D01*
X115980100Y-89812400D01*
X115980100Y-90832400D01*
X115980100Y-90832400D01*
G37*
G36*
X164240100Y-90832400D02*
X162040100Y-90832400D01*
X162040100Y-89812400D01*
X164240100Y-89812400D01*
X164240100Y-90832400D01*
X164240100Y-90832400D01*
G37*
G36*
X169740100Y-90832400D02*
X167540100Y-90832400D01*
X167540100Y-89812400D01*
X169740100Y-89812400D01*
X169740100Y-90832400D01*
X169740100Y-90832400D01*
G37*
G36*
X121480100Y-90832400D02*
X119280100Y-90832400D01*
X119280100Y-89812400D01*
X121480100Y-89812400D01*
X121480100Y-90832400D01*
X121480100Y-90832400D01*
G37*
G36*
X171803532Y-86897565D02*
X171888115Y-86905896D01*
X172008547Y-86942429D01*
X172050908Y-86955279D01*
X172200932Y-87035468D01*
X172332432Y-87143388D01*
X172440352Y-87274888D01*
X172520541Y-87424912D01*
X172520542Y-87424916D01*
X172569924Y-87587705D01*
X172586598Y-87757000D01*
X172569924Y-87926295D01*
X172533391Y-88046727D01*
X172520541Y-88089088D01*
X172440352Y-88239112D01*
X172332432Y-88370612D01*
X172200932Y-88478532D01*
X172050908Y-88558721D01*
X172008547Y-88571571D01*
X171888115Y-88608104D01*
X171803532Y-88616435D01*
X171761241Y-88620600D01*
X171676399Y-88620600D01*
X171634108Y-88616435D01*
X171549525Y-88608104D01*
X171429093Y-88571571D01*
X171386732Y-88558721D01*
X171236708Y-88478532D01*
X171105208Y-88370612D01*
X170997288Y-88239112D01*
X170917099Y-88089088D01*
X170904249Y-88046727D01*
X170867716Y-87926295D01*
X170851042Y-87757000D01*
X170867716Y-87587705D01*
X170917098Y-87424916D01*
X170917099Y-87424912D01*
X170997288Y-87274888D01*
X171105208Y-87143388D01*
X171236708Y-87035468D01*
X171386732Y-86955279D01*
X171429093Y-86942429D01*
X171549525Y-86905896D01*
X171634108Y-86897565D01*
X171676399Y-86893400D01*
X171761241Y-86893400D01*
X171803532Y-86897565D01*
X171803532Y-86897565D01*
G37*
G36*
X111901832Y-86897565D02*
X111986415Y-86905896D01*
X112106847Y-86942429D01*
X112149208Y-86955279D01*
X112299232Y-87035468D01*
X112430732Y-87143388D01*
X112538652Y-87274888D01*
X112618841Y-87424912D01*
X112618842Y-87424916D01*
X112668224Y-87587705D01*
X112684898Y-87757000D01*
X112668224Y-87926295D01*
X112631691Y-88046727D01*
X112618841Y-88089088D01*
X112538652Y-88239112D01*
X112430732Y-88370612D01*
X112299232Y-88478532D01*
X112149208Y-88558721D01*
X112106847Y-88571571D01*
X111986415Y-88608104D01*
X111901832Y-88616435D01*
X111859541Y-88620600D01*
X111774699Y-88620600D01*
X111732408Y-88616435D01*
X111647825Y-88608104D01*
X111527393Y-88571571D01*
X111485032Y-88558721D01*
X111335008Y-88478532D01*
X111203508Y-88370612D01*
X111095588Y-88239112D01*
X111015399Y-88089088D01*
X111002549Y-88046727D01*
X110966016Y-87926295D01*
X110949342Y-87757000D01*
X110966016Y-87587705D01*
X111015398Y-87424916D01*
X111015399Y-87424912D01*
X111095588Y-87274888D01*
X111203508Y-87143388D01*
X111335008Y-87035468D01*
X111485032Y-86955279D01*
X111527393Y-86942429D01*
X111647825Y-86905896D01*
X111732408Y-86897565D01*
X111774699Y-86893400D01*
X111859541Y-86893400D01*
X111901832Y-86897565D01*
X111901832Y-86897565D01*
G37*
G36*
X109361832Y-86897565D02*
X109446415Y-86905896D01*
X109566847Y-86942429D01*
X109609208Y-86955279D01*
X109759232Y-87035468D01*
X109890732Y-87143388D01*
X109998652Y-87274888D01*
X110078841Y-87424912D01*
X110078842Y-87424916D01*
X110128224Y-87587705D01*
X110144898Y-87757000D01*
X110128224Y-87926295D01*
X110091691Y-88046727D01*
X110078841Y-88089088D01*
X109998652Y-88239112D01*
X109890732Y-88370612D01*
X109759232Y-88478532D01*
X109609208Y-88558721D01*
X109566847Y-88571571D01*
X109446415Y-88608104D01*
X109361832Y-88616435D01*
X109319541Y-88620600D01*
X109234699Y-88620600D01*
X109192408Y-88616435D01*
X109107825Y-88608104D01*
X108987393Y-88571571D01*
X108945032Y-88558721D01*
X108795008Y-88478532D01*
X108663508Y-88370612D01*
X108555588Y-88239112D01*
X108475399Y-88089088D01*
X108462549Y-88046727D01*
X108426016Y-87926295D01*
X108409342Y-87757000D01*
X108426016Y-87587705D01*
X108475398Y-87424916D01*
X108475399Y-87424912D01*
X108555588Y-87274888D01*
X108663508Y-87143388D01*
X108795008Y-87035468D01*
X108945032Y-86955279D01*
X108987393Y-86942429D01*
X109107825Y-86905896D01*
X109192408Y-86897565D01*
X109234699Y-86893400D01*
X109319541Y-86893400D01*
X109361832Y-86897565D01*
X109361832Y-86897565D01*
G37*
G36*
X174343532Y-86897565D02*
X174428115Y-86905896D01*
X174548547Y-86942429D01*
X174590908Y-86955279D01*
X174740932Y-87035468D01*
X174872432Y-87143388D01*
X174980352Y-87274888D01*
X175060541Y-87424912D01*
X175060542Y-87424916D01*
X175109924Y-87587705D01*
X175126598Y-87757000D01*
X175109924Y-87926295D01*
X175073391Y-88046727D01*
X175060541Y-88089088D01*
X174980352Y-88239112D01*
X174872432Y-88370612D01*
X174740932Y-88478532D01*
X174590908Y-88558721D01*
X174548547Y-88571571D01*
X174428115Y-88608104D01*
X174343532Y-88616435D01*
X174301241Y-88620600D01*
X174216399Y-88620600D01*
X174174108Y-88616435D01*
X174089525Y-88608104D01*
X173969093Y-88571571D01*
X173926732Y-88558721D01*
X173776708Y-88478532D01*
X173645208Y-88370612D01*
X173537288Y-88239112D01*
X173457099Y-88089088D01*
X173444249Y-88046727D01*
X173407716Y-87926295D01*
X173391042Y-87757000D01*
X173407716Y-87587705D01*
X173457098Y-87424916D01*
X173457099Y-87424912D01*
X173537288Y-87274888D01*
X173645208Y-87143388D01*
X173776708Y-87035468D01*
X173926732Y-86955279D01*
X173969093Y-86942429D01*
X174089525Y-86905896D01*
X174174108Y-86897565D01*
X174216399Y-86893400D01*
X174301241Y-86893400D01*
X174343532Y-86897565D01*
X174343532Y-86897565D01*
G37*
G36*
X115980100Y-88292400D02*
X113780100Y-88292400D01*
X113780100Y-87272400D01*
X115980100Y-87272400D01*
X115980100Y-88292400D01*
X115980100Y-88292400D01*
G37*
G36*
X169740100Y-88292400D02*
X167540100Y-88292400D01*
X167540100Y-87272400D01*
X169740100Y-87272400D01*
X169740100Y-88292400D01*
X169740100Y-88292400D01*
G37*
G36*
X121480100Y-88292400D02*
X119280100Y-88292400D01*
X119280100Y-87272400D01*
X121480100Y-87272400D01*
X121480100Y-88292400D01*
X121480100Y-88292400D01*
G37*
G36*
X164240100Y-88292400D02*
X162040100Y-88292400D01*
X162040100Y-87272400D01*
X164240100Y-87272400D01*
X164240100Y-88292400D01*
X164240100Y-88292400D01*
G37*
G36*
X111901832Y-84357565D02*
X111986415Y-84365896D01*
X112106847Y-84402429D01*
X112149208Y-84415279D01*
X112299232Y-84495468D01*
X112430732Y-84603388D01*
X112538652Y-84734888D01*
X112618841Y-84884912D01*
X112618842Y-84884916D01*
X112668224Y-85047705D01*
X112684898Y-85217000D01*
X112668224Y-85386295D01*
X112631691Y-85506727D01*
X112618841Y-85549088D01*
X112538652Y-85699112D01*
X112430732Y-85830612D01*
X112299232Y-85938532D01*
X112149208Y-86018721D01*
X112106847Y-86031571D01*
X111986415Y-86068104D01*
X111901832Y-86076435D01*
X111859541Y-86080600D01*
X111774699Y-86080600D01*
X111732408Y-86076435D01*
X111647825Y-86068104D01*
X111527393Y-86031571D01*
X111485032Y-86018721D01*
X111335008Y-85938532D01*
X111203508Y-85830612D01*
X111095588Y-85699112D01*
X111015399Y-85549088D01*
X111002549Y-85506727D01*
X110966016Y-85386295D01*
X110949342Y-85217000D01*
X110966016Y-85047705D01*
X111015398Y-84884916D01*
X111015399Y-84884912D01*
X111095588Y-84734888D01*
X111203508Y-84603388D01*
X111335008Y-84495468D01*
X111485032Y-84415279D01*
X111527393Y-84402429D01*
X111647825Y-84365896D01*
X111732408Y-84357565D01*
X111774699Y-84353400D01*
X111859541Y-84353400D01*
X111901832Y-84357565D01*
X111901832Y-84357565D01*
G37*
G36*
X109361832Y-84357565D02*
X109446415Y-84365896D01*
X109566847Y-84402429D01*
X109609208Y-84415279D01*
X109759232Y-84495468D01*
X109890732Y-84603388D01*
X109998652Y-84734888D01*
X110078841Y-84884912D01*
X110078842Y-84884916D01*
X110128224Y-85047705D01*
X110144898Y-85217000D01*
X110128224Y-85386295D01*
X110091691Y-85506727D01*
X110078841Y-85549088D01*
X109998652Y-85699112D01*
X109890732Y-85830612D01*
X109759232Y-85938532D01*
X109609208Y-86018721D01*
X109566847Y-86031571D01*
X109446415Y-86068104D01*
X109361832Y-86076435D01*
X109319541Y-86080600D01*
X109234699Y-86080600D01*
X109192408Y-86076435D01*
X109107825Y-86068104D01*
X108987393Y-86031571D01*
X108945032Y-86018721D01*
X108795008Y-85938532D01*
X108663508Y-85830612D01*
X108555588Y-85699112D01*
X108475399Y-85549088D01*
X108462549Y-85506727D01*
X108426016Y-85386295D01*
X108409342Y-85217000D01*
X108426016Y-85047705D01*
X108475398Y-84884916D01*
X108475399Y-84884912D01*
X108555588Y-84734888D01*
X108663508Y-84603388D01*
X108795008Y-84495468D01*
X108945032Y-84415279D01*
X108987393Y-84402429D01*
X109107825Y-84365896D01*
X109192408Y-84357565D01*
X109234699Y-84353400D01*
X109319541Y-84353400D01*
X109361832Y-84357565D01*
X109361832Y-84357565D01*
G37*
G36*
X171803532Y-84357565D02*
X171888115Y-84365896D01*
X172008547Y-84402429D01*
X172050908Y-84415279D01*
X172200932Y-84495468D01*
X172332432Y-84603388D01*
X172440352Y-84734888D01*
X172520541Y-84884912D01*
X172520542Y-84884916D01*
X172569924Y-85047705D01*
X172586598Y-85217000D01*
X172569924Y-85386295D01*
X172533391Y-85506727D01*
X172520541Y-85549088D01*
X172440352Y-85699112D01*
X172332432Y-85830612D01*
X172200932Y-85938532D01*
X172050908Y-86018721D01*
X172008547Y-86031571D01*
X171888115Y-86068104D01*
X171803532Y-86076435D01*
X171761241Y-86080600D01*
X171676399Y-86080600D01*
X171634108Y-86076435D01*
X171549525Y-86068104D01*
X171429093Y-86031571D01*
X171386732Y-86018721D01*
X171236708Y-85938532D01*
X171105208Y-85830612D01*
X170997288Y-85699112D01*
X170917099Y-85549088D01*
X170904249Y-85506727D01*
X170867716Y-85386295D01*
X170851042Y-85217000D01*
X170867716Y-85047705D01*
X170917098Y-84884916D01*
X170917099Y-84884912D01*
X170997288Y-84734888D01*
X171105208Y-84603388D01*
X171236708Y-84495468D01*
X171386732Y-84415279D01*
X171429093Y-84402429D01*
X171549525Y-84365896D01*
X171634108Y-84357565D01*
X171676399Y-84353400D01*
X171761241Y-84353400D01*
X171803532Y-84357565D01*
X171803532Y-84357565D01*
G37*
G36*
X174343532Y-84357565D02*
X174428115Y-84365896D01*
X174548547Y-84402429D01*
X174590908Y-84415279D01*
X174740932Y-84495468D01*
X174872432Y-84603388D01*
X174980352Y-84734888D01*
X175060541Y-84884912D01*
X175060542Y-84884916D01*
X175109924Y-85047705D01*
X175126598Y-85217000D01*
X175109924Y-85386295D01*
X175073391Y-85506727D01*
X175060541Y-85549088D01*
X174980352Y-85699112D01*
X174872432Y-85830612D01*
X174740932Y-85938532D01*
X174590908Y-86018721D01*
X174548547Y-86031571D01*
X174428115Y-86068104D01*
X174343532Y-86076435D01*
X174301241Y-86080600D01*
X174216399Y-86080600D01*
X174174108Y-86076435D01*
X174089525Y-86068104D01*
X173969093Y-86031571D01*
X173926732Y-86018721D01*
X173776708Y-85938532D01*
X173645208Y-85830612D01*
X173537288Y-85699112D01*
X173457099Y-85549088D01*
X173444249Y-85506727D01*
X173407716Y-85386295D01*
X173391042Y-85217000D01*
X173407716Y-85047705D01*
X173457098Y-84884916D01*
X173457099Y-84884912D01*
X173537288Y-84734888D01*
X173645208Y-84603388D01*
X173776708Y-84495468D01*
X173926732Y-84415279D01*
X173969093Y-84402429D01*
X174089525Y-84365896D01*
X174174108Y-84357565D01*
X174216399Y-84353400D01*
X174301241Y-84353400D01*
X174343532Y-84357565D01*
X174343532Y-84357565D01*
G37*
G36*
X121480100Y-85752400D02*
X119280100Y-85752400D01*
X119280100Y-84732400D01*
X121480100Y-84732400D01*
X121480100Y-85752400D01*
X121480100Y-85752400D01*
G37*
G36*
X115980100Y-85752400D02*
X113780100Y-85752400D01*
X113780100Y-84732400D01*
X115980100Y-84732400D01*
X115980100Y-85752400D01*
X115980100Y-85752400D01*
G37*
G36*
X164240100Y-85752400D02*
X162040100Y-85752400D01*
X162040100Y-84732400D01*
X164240100Y-84732400D01*
X164240100Y-85752400D01*
X164240100Y-85752400D01*
G37*
G36*
X169740100Y-85752400D02*
X167540100Y-85752400D01*
X167540100Y-84732400D01*
X169740100Y-84732400D01*
X169740100Y-85752400D01*
X169740100Y-85752400D01*
G37*
G36*
X109361832Y-81817565D02*
X109446415Y-81825896D01*
X109566847Y-81862429D01*
X109609208Y-81875279D01*
X109759232Y-81955468D01*
X109890732Y-82063388D01*
X109998652Y-82194888D01*
X110078841Y-82344912D01*
X110078842Y-82344916D01*
X110128224Y-82507705D01*
X110144898Y-82677000D01*
X110128224Y-82846295D01*
X110091691Y-82966727D01*
X110078841Y-83009088D01*
X109998652Y-83159112D01*
X109890732Y-83290612D01*
X109759232Y-83398532D01*
X109609208Y-83478721D01*
X109566847Y-83491571D01*
X109446415Y-83528104D01*
X109361832Y-83536435D01*
X109319541Y-83540600D01*
X109234699Y-83540600D01*
X109192408Y-83536435D01*
X109107825Y-83528104D01*
X108987393Y-83491571D01*
X108945032Y-83478721D01*
X108795008Y-83398532D01*
X108663508Y-83290612D01*
X108555588Y-83159112D01*
X108475399Y-83009088D01*
X108462549Y-82966727D01*
X108426016Y-82846295D01*
X108409342Y-82677000D01*
X108426016Y-82507705D01*
X108475398Y-82344916D01*
X108475399Y-82344912D01*
X108555588Y-82194888D01*
X108663508Y-82063388D01*
X108795008Y-81955468D01*
X108945032Y-81875279D01*
X108987393Y-81862429D01*
X109107825Y-81825896D01*
X109192408Y-81817565D01*
X109234699Y-81813400D01*
X109319541Y-81813400D01*
X109361832Y-81817565D01*
X109361832Y-81817565D01*
G37*
G36*
X174343532Y-81817565D02*
X174428115Y-81825896D01*
X174548547Y-81862429D01*
X174590908Y-81875279D01*
X174740932Y-81955468D01*
X174872432Y-82063388D01*
X174980352Y-82194888D01*
X175060541Y-82344912D01*
X175060542Y-82344916D01*
X175109924Y-82507705D01*
X175126598Y-82677000D01*
X175109924Y-82846295D01*
X175073391Y-82966727D01*
X175060541Y-83009088D01*
X174980352Y-83159112D01*
X174872432Y-83290612D01*
X174740932Y-83398532D01*
X174590908Y-83478721D01*
X174548547Y-83491571D01*
X174428115Y-83528104D01*
X174343532Y-83536435D01*
X174301241Y-83540600D01*
X174216399Y-83540600D01*
X174174108Y-83536435D01*
X174089525Y-83528104D01*
X173969093Y-83491571D01*
X173926732Y-83478721D01*
X173776708Y-83398532D01*
X173645208Y-83290612D01*
X173537288Y-83159112D01*
X173457099Y-83009088D01*
X173444249Y-82966727D01*
X173407716Y-82846295D01*
X173391042Y-82677000D01*
X173407716Y-82507705D01*
X173457098Y-82344916D01*
X173457099Y-82344912D01*
X173537288Y-82194888D01*
X173645208Y-82063388D01*
X173776708Y-81955468D01*
X173926732Y-81875279D01*
X173969093Y-81862429D01*
X174089525Y-81825896D01*
X174174108Y-81817565D01*
X174216399Y-81813400D01*
X174301241Y-81813400D01*
X174343532Y-81817565D01*
X174343532Y-81817565D01*
G37*
G36*
X171803532Y-81817565D02*
X171888115Y-81825896D01*
X172008547Y-81862429D01*
X172050908Y-81875279D01*
X172200932Y-81955468D01*
X172332432Y-82063388D01*
X172440352Y-82194888D01*
X172520541Y-82344912D01*
X172520542Y-82344916D01*
X172569924Y-82507705D01*
X172586598Y-82677000D01*
X172569924Y-82846295D01*
X172533391Y-82966727D01*
X172520541Y-83009088D01*
X172440352Y-83159112D01*
X172332432Y-83290612D01*
X172200932Y-83398532D01*
X172050908Y-83478721D01*
X172008547Y-83491571D01*
X171888115Y-83528104D01*
X171803532Y-83536435D01*
X171761241Y-83540600D01*
X171676399Y-83540600D01*
X171634108Y-83536435D01*
X171549525Y-83528104D01*
X171429093Y-83491571D01*
X171386732Y-83478721D01*
X171236708Y-83398532D01*
X171105208Y-83290612D01*
X170997288Y-83159112D01*
X170917099Y-83009088D01*
X170904249Y-82966727D01*
X170867716Y-82846295D01*
X170851042Y-82677000D01*
X170867716Y-82507705D01*
X170917098Y-82344916D01*
X170917099Y-82344912D01*
X170997288Y-82194888D01*
X171105208Y-82063388D01*
X171236708Y-81955468D01*
X171386732Y-81875279D01*
X171429093Y-81862429D01*
X171549525Y-81825896D01*
X171634108Y-81817565D01*
X171676399Y-81813400D01*
X171761241Y-81813400D01*
X171803532Y-81817565D01*
X171803532Y-81817565D01*
G37*
G36*
X111901832Y-81817565D02*
X111986415Y-81825896D01*
X112106847Y-81862429D01*
X112149208Y-81875279D01*
X112299232Y-81955468D01*
X112430732Y-82063388D01*
X112538652Y-82194888D01*
X112618841Y-82344912D01*
X112618842Y-82344916D01*
X112668224Y-82507705D01*
X112684898Y-82677000D01*
X112668224Y-82846295D01*
X112631691Y-82966727D01*
X112618841Y-83009088D01*
X112538652Y-83159112D01*
X112430732Y-83290612D01*
X112299232Y-83398532D01*
X112149208Y-83478721D01*
X112106847Y-83491571D01*
X111986415Y-83528104D01*
X111901832Y-83536435D01*
X111859541Y-83540600D01*
X111774699Y-83540600D01*
X111732408Y-83536435D01*
X111647825Y-83528104D01*
X111527393Y-83491571D01*
X111485032Y-83478721D01*
X111335008Y-83398532D01*
X111203508Y-83290612D01*
X111095588Y-83159112D01*
X111015399Y-83009088D01*
X111002549Y-82966727D01*
X110966016Y-82846295D01*
X110949342Y-82677000D01*
X110966016Y-82507705D01*
X111015398Y-82344916D01*
X111015399Y-82344912D01*
X111095588Y-82194888D01*
X111203508Y-82063388D01*
X111335008Y-81955468D01*
X111485032Y-81875279D01*
X111527393Y-81862429D01*
X111647825Y-81825896D01*
X111732408Y-81817565D01*
X111774699Y-81813400D01*
X111859541Y-81813400D01*
X111901832Y-81817565D01*
X111901832Y-81817565D01*
G37*
G36*
X169740100Y-83212400D02*
X167540100Y-83212400D01*
X167540100Y-82192400D01*
X169740100Y-82192400D01*
X169740100Y-83212400D01*
X169740100Y-83212400D01*
G37*
G36*
X164240100Y-83212400D02*
X162040100Y-83212400D01*
X162040100Y-82192400D01*
X164240100Y-82192400D01*
X164240100Y-83212400D01*
X164240100Y-83212400D01*
G37*
G36*
X121480100Y-83212400D02*
X119280100Y-83212400D01*
X119280100Y-82192400D01*
X121480100Y-82192400D01*
X121480100Y-83212400D01*
X121480100Y-83212400D01*
G37*
G36*
X115980100Y-83212400D02*
X113780100Y-83212400D01*
X113780100Y-82192400D01*
X115980100Y-82192400D01*
X115980100Y-83212400D01*
X115980100Y-83212400D01*
G37*
G36*
X109361832Y-79277565D02*
X109446415Y-79285896D01*
X109566847Y-79322429D01*
X109609208Y-79335279D01*
X109759232Y-79415468D01*
X109890732Y-79523388D01*
X109998652Y-79654888D01*
X110078841Y-79804912D01*
X110078842Y-79804916D01*
X110128224Y-79967705D01*
X110144898Y-80137000D01*
X110128224Y-80306295D01*
X110091691Y-80426727D01*
X110078841Y-80469088D01*
X109998652Y-80619112D01*
X109890732Y-80750612D01*
X109759232Y-80858532D01*
X109609208Y-80938721D01*
X109566847Y-80951571D01*
X109446415Y-80988104D01*
X109361832Y-80996435D01*
X109319541Y-81000600D01*
X109234699Y-81000600D01*
X109192408Y-80996435D01*
X109107825Y-80988104D01*
X108987393Y-80951571D01*
X108945032Y-80938721D01*
X108795008Y-80858532D01*
X108663508Y-80750612D01*
X108555588Y-80619112D01*
X108475399Y-80469088D01*
X108462549Y-80426727D01*
X108426016Y-80306295D01*
X108409342Y-80137000D01*
X108426016Y-79967705D01*
X108475398Y-79804916D01*
X108475399Y-79804912D01*
X108555588Y-79654888D01*
X108663508Y-79523388D01*
X108795008Y-79415468D01*
X108945032Y-79335279D01*
X108987393Y-79322429D01*
X109107825Y-79285896D01*
X109192408Y-79277565D01*
X109234699Y-79273400D01*
X109319541Y-79273400D01*
X109361832Y-79277565D01*
X109361832Y-79277565D01*
G37*
G36*
X174343532Y-79277565D02*
X174428115Y-79285896D01*
X174548547Y-79322429D01*
X174590908Y-79335279D01*
X174740932Y-79415468D01*
X174872432Y-79523388D01*
X174980352Y-79654888D01*
X175060541Y-79804912D01*
X175060542Y-79804916D01*
X175109924Y-79967705D01*
X175126598Y-80137000D01*
X175109924Y-80306295D01*
X175073391Y-80426727D01*
X175060541Y-80469088D01*
X174980352Y-80619112D01*
X174872432Y-80750612D01*
X174740932Y-80858532D01*
X174590908Y-80938721D01*
X174548547Y-80951571D01*
X174428115Y-80988104D01*
X174343532Y-80996435D01*
X174301241Y-81000600D01*
X174216399Y-81000600D01*
X174174108Y-80996435D01*
X174089525Y-80988104D01*
X173969093Y-80951571D01*
X173926732Y-80938721D01*
X173776708Y-80858532D01*
X173645208Y-80750612D01*
X173537288Y-80619112D01*
X173457099Y-80469088D01*
X173444249Y-80426727D01*
X173407716Y-80306295D01*
X173391042Y-80137000D01*
X173407716Y-79967705D01*
X173457098Y-79804916D01*
X173457099Y-79804912D01*
X173537288Y-79654888D01*
X173645208Y-79523388D01*
X173776708Y-79415468D01*
X173926732Y-79335279D01*
X173969093Y-79322429D01*
X174089525Y-79285896D01*
X174174108Y-79277565D01*
X174216399Y-79273400D01*
X174301241Y-79273400D01*
X174343532Y-79277565D01*
X174343532Y-79277565D01*
G37*
G36*
X171803532Y-79277565D02*
X171888115Y-79285896D01*
X172008547Y-79322429D01*
X172050908Y-79335279D01*
X172200932Y-79415468D01*
X172332432Y-79523388D01*
X172440352Y-79654888D01*
X172520541Y-79804912D01*
X172520542Y-79804916D01*
X172569924Y-79967705D01*
X172586598Y-80137000D01*
X172569924Y-80306295D01*
X172533391Y-80426727D01*
X172520541Y-80469088D01*
X172440352Y-80619112D01*
X172332432Y-80750612D01*
X172200932Y-80858532D01*
X172050908Y-80938721D01*
X172008547Y-80951571D01*
X171888115Y-80988104D01*
X171803532Y-80996435D01*
X171761241Y-81000600D01*
X171676399Y-81000600D01*
X171634108Y-80996435D01*
X171549525Y-80988104D01*
X171429093Y-80951571D01*
X171386732Y-80938721D01*
X171236708Y-80858532D01*
X171105208Y-80750612D01*
X170997288Y-80619112D01*
X170917099Y-80469088D01*
X170904249Y-80426727D01*
X170867716Y-80306295D01*
X170851042Y-80137000D01*
X170867716Y-79967705D01*
X170917098Y-79804916D01*
X170917099Y-79804912D01*
X170997288Y-79654888D01*
X171105208Y-79523388D01*
X171236708Y-79415468D01*
X171386732Y-79335279D01*
X171429093Y-79322429D01*
X171549525Y-79285896D01*
X171634108Y-79277565D01*
X171676399Y-79273400D01*
X171761241Y-79273400D01*
X171803532Y-79277565D01*
X171803532Y-79277565D01*
G37*
G36*
X111901832Y-79277565D02*
X111986415Y-79285896D01*
X112106847Y-79322429D01*
X112149208Y-79335279D01*
X112299232Y-79415468D01*
X112430732Y-79523388D01*
X112538652Y-79654888D01*
X112618841Y-79804912D01*
X112618842Y-79804916D01*
X112668224Y-79967705D01*
X112684898Y-80137000D01*
X112668224Y-80306295D01*
X112631691Y-80426727D01*
X112618841Y-80469088D01*
X112538652Y-80619112D01*
X112430732Y-80750612D01*
X112299232Y-80858532D01*
X112149208Y-80938721D01*
X112106847Y-80951571D01*
X111986415Y-80988104D01*
X111901832Y-80996435D01*
X111859541Y-81000600D01*
X111774699Y-81000600D01*
X111732408Y-80996435D01*
X111647825Y-80988104D01*
X111527393Y-80951571D01*
X111485032Y-80938721D01*
X111335008Y-80858532D01*
X111203508Y-80750612D01*
X111095588Y-80619112D01*
X111015399Y-80469088D01*
X111002549Y-80426727D01*
X110966016Y-80306295D01*
X110949342Y-80137000D01*
X110966016Y-79967705D01*
X111015398Y-79804916D01*
X111015399Y-79804912D01*
X111095588Y-79654888D01*
X111203508Y-79523388D01*
X111335008Y-79415468D01*
X111485032Y-79335279D01*
X111527393Y-79322429D01*
X111647825Y-79285896D01*
X111732408Y-79277565D01*
X111774699Y-79273400D01*
X111859541Y-79273400D01*
X111901832Y-79277565D01*
X111901832Y-79277565D01*
G37*
G36*
X164240100Y-80672400D02*
X162040100Y-80672400D01*
X162040100Y-79652400D01*
X164240100Y-79652400D01*
X164240100Y-80672400D01*
X164240100Y-80672400D01*
G37*
G36*
X169740100Y-80672400D02*
X167540100Y-80672400D01*
X167540100Y-79652400D01*
X169740100Y-79652400D01*
X169740100Y-80672400D01*
X169740100Y-80672400D01*
G37*
G36*
X115980100Y-80672400D02*
X113780100Y-80672400D01*
X113780100Y-79652400D01*
X115980100Y-79652400D01*
X115980100Y-80672400D01*
X115980100Y-80672400D01*
G37*
G36*
X121480100Y-80672400D02*
X119280100Y-80672400D01*
X119280100Y-79652400D01*
X121480100Y-79652400D01*
X121480100Y-80672400D01*
X121480100Y-80672400D01*
G37*
G36*
X174343532Y-76737565D02*
X174428115Y-76745896D01*
X174548547Y-76782429D01*
X174590908Y-76795279D01*
X174740932Y-76875468D01*
X174872432Y-76983388D01*
X174980352Y-77114888D01*
X175060541Y-77264912D01*
X175060542Y-77264916D01*
X175109924Y-77427705D01*
X175126598Y-77597000D01*
X175109924Y-77766295D01*
X175073391Y-77886727D01*
X175060541Y-77929088D01*
X174980352Y-78079112D01*
X174872432Y-78210612D01*
X174740932Y-78318532D01*
X174590908Y-78398721D01*
X174548547Y-78411571D01*
X174428115Y-78448104D01*
X174343532Y-78456435D01*
X174301241Y-78460600D01*
X174216399Y-78460600D01*
X174174108Y-78456435D01*
X174089525Y-78448104D01*
X173969093Y-78411571D01*
X173926732Y-78398721D01*
X173776708Y-78318532D01*
X173645208Y-78210612D01*
X173537288Y-78079112D01*
X173457099Y-77929088D01*
X173444249Y-77886727D01*
X173407716Y-77766295D01*
X173391042Y-77597000D01*
X173407716Y-77427705D01*
X173457098Y-77264916D01*
X173457099Y-77264912D01*
X173537288Y-77114888D01*
X173645208Y-76983388D01*
X173776708Y-76875468D01*
X173926732Y-76795279D01*
X173969093Y-76782429D01*
X174089525Y-76745896D01*
X174174108Y-76737565D01*
X174216399Y-76733400D01*
X174301241Y-76733400D01*
X174343532Y-76737565D01*
X174343532Y-76737565D01*
G37*
G36*
X171803532Y-76737565D02*
X171888115Y-76745896D01*
X172008547Y-76782429D01*
X172050908Y-76795279D01*
X172200932Y-76875468D01*
X172332432Y-76983388D01*
X172440352Y-77114888D01*
X172520541Y-77264912D01*
X172520542Y-77264916D01*
X172569924Y-77427705D01*
X172586598Y-77597000D01*
X172569924Y-77766295D01*
X172533391Y-77886727D01*
X172520541Y-77929088D01*
X172440352Y-78079112D01*
X172332432Y-78210612D01*
X172200932Y-78318532D01*
X172050908Y-78398721D01*
X172008547Y-78411571D01*
X171888115Y-78448104D01*
X171803532Y-78456435D01*
X171761241Y-78460600D01*
X171676399Y-78460600D01*
X171634108Y-78456435D01*
X171549525Y-78448104D01*
X171429093Y-78411571D01*
X171386732Y-78398721D01*
X171236708Y-78318532D01*
X171105208Y-78210612D01*
X170997288Y-78079112D01*
X170917099Y-77929088D01*
X170904249Y-77886727D01*
X170867716Y-77766295D01*
X170851042Y-77597000D01*
X170867716Y-77427705D01*
X170917098Y-77264916D01*
X170917099Y-77264912D01*
X170997288Y-77114888D01*
X171105208Y-76983388D01*
X171236708Y-76875468D01*
X171386732Y-76795279D01*
X171429093Y-76782429D01*
X171549525Y-76745896D01*
X171634108Y-76737565D01*
X171676399Y-76733400D01*
X171761241Y-76733400D01*
X171803532Y-76737565D01*
X171803532Y-76737565D01*
G37*
G36*
X112680720Y-78460600D02*
X110953520Y-78460600D01*
X110953520Y-76733400D01*
X112680720Y-76733400D01*
X112680720Y-78460600D01*
X112680720Y-78460600D01*
G37*
G36*
X109361832Y-76737565D02*
X109446415Y-76745896D01*
X109566847Y-76782429D01*
X109609208Y-76795279D01*
X109759232Y-76875468D01*
X109890732Y-76983388D01*
X109998652Y-77114888D01*
X110078841Y-77264912D01*
X110078842Y-77264916D01*
X110128224Y-77427705D01*
X110144898Y-77597000D01*
X110128224Y-77766295D01*
X110091691Y-77886727D01*
X110078841Y-77929088D01*
X109998652Y-78079112D01*
X109890732Y-78210612D01*
X109759232Y-78318532D01*
X109609208Y-78398721D01*
X109566847Y-78411571D01*
X109446415Y-78448104D01*
X109361832Y-78456435D01*
X109319541Y-78460600D01*
X109234699Y-78460600D01*
X109192408Y-78456435D01*
X109107825Y-78448104D01*
X108987393Y-78411571D01*
X108945032Y-78398721D01*
X108795008Y-78318532D01*
X108663508Y-78210612D01*
X108555588Y-78079112D01*
X108475399Y-77929088D01*
X108462549Y-77886727D01*
X108426016Y-77766295D01*
X108409342Y-77597000D01*
X108426016Y-77427705D01*
X108475398Y-77264916D01*
X108475399Y-77264912D01*
X108555588Y-77114888D01*
X108663508Y-76983388D01*
X108795008Y-76875468D01*
X108945032Y-76795279D01*
X108987393Y-76782429D01*
X109107825Y-76745896D01*
X109192408Y-76737565D01*
X109234699Y-76733400D01*
X109319541Y-76733400D01*
X109361832Y-76737565D01*
X109361832Y-76737565D01*
G37*
G36*
X115980100Y-78132400D02*
X113780100Y-78132400D01*
X113780100Y-77112400D01*
X115980100Y-77112400D01*
X115980100Y-78132400D01*
X115980100Y-78132400D01*
G37*
G36*
X164240100Y-78132400D02*
X162040100Y-78132400D01*
X162040100Y-77112400D01*
X164240100Y-77112400D01*
X164240100Y-78132400D01*
X164240100Y-78132400D01*
G37*
G36*
X121480100Y-78132400D02*
X119280100Y-78132400D01*
X119280100Y-77112400D01*
X121480100Y-77112400D01*
X121480100Y-78132400D01*
X121480100Y-78132400D01*
G37*
G36*
X169740100Y-78132400D02*
X167540100Y-78132400D01*
X167540100Y-77112400D01*
X169740100Y-77112400D01*
X169740100Y-78132400D01*
X169740100Y-78132400D01*
G37*
G36*
X164240100Y-75592400D02*
X162040100Y-75592400D01*
X162040100Y-74572400D01*
X164240100Y-74572400D01*
X164240100Y-75592400D01*
X164240100Y-75592400D01*
G37*
G36*
X121480100Y-75592400D02*
X119280100Y-75592400D01*
X119280100Y-74572400D01*
X121480100Y-74572400D01*
X121480100Y-75592400D01*
X121480100Y-75592400D01*
G37*
G36*
X115980100Y-75592400D02*
X113780100Y-75592400D01*
X113780100Y-74572400D01*
X115980100Y-74572400D01*
X115980100Y-75592400D01*
X115980100Y-75592400D01*
G37*
G36*
X169740100Y-75592400D02*
X167540100Y-75592400D01*
X167540100Y-74572400D01*
X169740100Y-74572400D01*
X169740100Y-75592400D01*
X169740100Y-75592400D01*
G37*
G36*
X121480100Y-73052400D02*
X119280100Y-73052400D01*
X119280100Y-72032400D01*
X121480100Y-72032400D01*
X121480100Y-73052400D01*
X121480100Y-73052400D01*
G37*
G36*
X164240100Y-73052400D02*
X162040100Y-73052400D01*
X162040100Y-72032400D01*
X164240100Y-72032400D01*
X164240100Y-73052400D01*
X164240100Y-73052400D01*
G37*
G36*
X169740100Y-73052400D02*
X167540100Y-73052400D01*
X167540100Y-72032400D01*
X169740100Y-72032400D01*
X169740100Y-73052400D01*
X169740100Y-73052400D01*
G37*
G36*
X115980100Y-73052400D02*
X113780100Y-73052400D01*
X113780100Y-72032400D01*
X115980100Y-72032400D01*
X115980100Y-73052400D01*
X115980100Y-73052400D01*
G37*
G36*
X115980100Y-70512400D02*
X113780100Y-70512400D01*
X113780100Y-69492400D01*
X115980100Y-69492400D01*
X115980100Y-70512400D01*
X115980100Y-70512400D01*
G37*
G36*
X121480100Y-70512400D02*
X119280100Y-70512400D01*
X119280100Y-69492400D01*
X121480100Y-69492400D01*
X121480100Y-70512400D01*
X121480100Y-70512400D01*
G37*
G36*
X169740100Y-70512400D02*
X167540100Y-70512400D01*
X167540100Y-69492400D01*
X169740100Y-69492400D01*
X169740100Y-70512400D01*
X169740100Y-70512400D01*
G37*
G36*
X164240100Y-70512400D02*
X162040100Y-70512400D01*
X162040100Y-69492400D01*
X164240100Y-69492400D01*
X164240100Y-70512400D01*
X164240100Y-70512400D01*
G37*
G36*
X115980100Y-67972400D02*
X113780100Y-67972400D01*
X113780100Y-66952400D01*
X115980100Y-66952400D01*
X115980100Y-67972400D01*
X115980100Y-67972400D01*
G37*
G36*
X169740100Y-67972400D02*
X167540100Y-67972400D01*
X167540100Y-66952400D01*
X169740100Y-66952400D01*
X169740100Y-67972400D01*
X169740100Y-67972400D01*
G37*
G36*
X121480100Y-67972400D02*
X119280100Y-67972400D01*
X119280100Y-66952400D01*
X121480100Y-66952400D01*
X121480100Y-67972400D01*
X121480100Y-67972400D01*
G37*
G36*
X164240100Y-67972400D02*
X162040100Y-67972400D01*
X162040100Y-66952400D01*
X164240100Y-66952400D01*
X164240100Y-67972400D01*
X164240100Y-67972400D01*
G37*
G36*
X169740100Y-65432400D02*
X167540100Y-65432400D01*
X167540100Y-64412400D01*
X169740100Y-64412400D01*
X169740100Y-65432400D01*
X169740100Y-65432400D01*
G37*
G36*
X115980100Y-65432400D02*
X113780100Y-65432400D01*
X113780100Y-64412400D01*
X115980100Y-64412400D01*
X115980100Y-65432400D01*
X115980100Y-65432400D01*
G37*
G36*
X121480100Y-65432400D02*
X119280100Y-65432400D01*
X119280100Y-64412400D01*
X121480100Y-64412400D01*
X121480100Y-65432400D01*
X121480100Y-65432400D01*
G37*
G36*
X164240100Y-65432400D02*
X162040100Y-65432400D01*
X162040100Y-64412400D01*
X164240100Y-64412400D01*
X164240100Y-65432400D01*
X164240100Y-65432400D01*
G37*
G36*
X121480100Y-62892400D02*
X119280100Y-62892400D01*
X119280100Y-61872400D01*
X121480100Y-61872400D01*
X121480100Y-62892400D01*
X121480100Y-62892400D01*
G37*
G36*
X115980100Y-62892400D02*
X113780100Y-62892400D01*
X113780100Y-61872400D01*
X115980100Y-61872400D01*
X115980100Y-62892400D01*
X115980100Y-62892400D01*
G37*
G36*
X164240100Y-62892400D02*
X162040100Y-62892400D01*
X162040100Y-61872400D01*
X164240100Y-61872400D01*
X164240100Y-62892400D01*
X164240100Y-62892400D01*
G37*
G36*
X169740100Y-62892400D02*
X167540100Y-62892400D01*
X167540100Y-61872400D01*
X169740100Y-61872400D01*
X169740100Y-62892400D01*
X169740100Y-62892400D01*
G37*
G36*
X173236130Y-52073432D02*
X173352049Y-52096489D01*
X173534038Y-52171871D01*
X173697823Y-52281309D01*
X173837111Y-52420597D01*
X173946549Y-52584382D01*
X174021931Y-52766371D01*
X174060360Y-52959569D01*
X174060360Y-53156551D01*
X174021931Y-53349749D01*
X173946549Y-53531738D01*
X173837111Y-53695523D01*
X173697823Y-53834811D01*
X173534038Y-53944249D01*
X173352049Y-54019631D01*
X173236130Y-54042688D01*
X173158853Y-54058060D01*
X172961867Y-54058060D01*
X172884590Y-54042688D01*
X172768671Y-54019631D01*
X172586682Y-53944249D01*
X172422897Y-53834811D01*
X172283609Y-53695523D01*
X172174171Y-53531738D01*
X172098789Y-53349749D01*
X172060360Y-53156551D01*
X172060360Y-52959569D01*
X172098789Y-52766371D01*
X172174171Y-52584382D01*
X172283609Y-52420597D01*
X172422897Y-52281309D01*
X172586682Y-52171871D01*
X172768671Y-52096489D01*
X172884590Y-52073432D01*
X172961867Y-52058060D01*
X173158853Y-52058060D01*
X173236130Y-52073432D01*
X173236130Y-52073432D01*
G37*
M02*
