G04 #@! TF.GenerationSoftware,KiCad,Pcbnew,(5.0.0-rc2-21-g8f5cb32)*
G04 #@! TF.CreationDate,2018-06-08T19:32:38-05:00*
G04 #@! TF.ProjectId,beagle-wire,626561676C652D776972652E6B696361,rev?*
G04 #@! TF.SameCoordinates,Original*
G04 #@! TF.FileFunction,Paste,Top*
G04 #@! TF.FilePolarity,Positive*
%FSLAX46Y46*%
G04 Gerber Fmt 4.6, Leading zero omitted, Abs format (unit mm)*
G04 Created by KiCad (PCBNEW (5.0.0-rc2-21-g8f5cb32)) date Fri Jun  8 19:32:38 2018*
%MOMM*%
%LPD*%
G01*
G04 APERTURE LIST*
%ADD10R,0.797560X0.797560*%
%ADD11R,2.200000X1.020000*%
%ADD12R,0.250000X1.450000*%
%ADD13R,1.450000X0.250000*%
%ADD14R,0.900000X0.560000*%
%ADD15R,0.750000X0.800000*%
%ADD16R,0.800000X0.750000*%
%ADD17R,0.400000X0.600000*%
%ADD18R,3.800000X2.000000*%
%ADD19R,1.500000X2.000000*%
%ADD20R,1.700000X0.650000*%
%ADD21R,1.600000X2.000000*%
%ADD22R,1.060000X0.650000*%
%ADD23R,0.450000X1.450000*%
%ADD24R,0.600000X0.400000*%
%ADD25R,0.800000X0.600000*%
%ADD26C,0.650000*%
%ADD27C,0.100000*%
%ADD28R,0.650000X0.850000*%
%ADD29R,1.520000X2.160000*%
G04 APERTURE END LIST*
D10*
G04 #@! TO.C,D3*
X113291700Y-48865400D03*
X111793100Y-48865400D03*
G04 #@! TD*
G04 #@! TO.C,D2*
X111793100Y-47214400D03*
X113291700Y-47214400D03*
G04 #@! TD*
G04 #@! TO.C,D1*
X113291700Y-45563400D03*
X111793100Y-45563400D03*
G04 #@! TD*
G04 #@! TO.C,D4*
X111793100Y-50516400D03*
X113291700Y-50516400D03*
G04 #@! TD*
D11*
G04 #@! TO.C,P8*
X168640100Y-118262400D03*
X163140100Y-118262400D03*
X168640100Y-115722400D03*
X163140100Y-115722400D03*
X168640100Y-113182400D03*
X163140100Y-113182400D03*
X168640100Y-110642400D03*
X163140100Y-110642400D03*
X168640100Y-108102400D03*
X163140100Y-108102400D03*
X168640100Y-105562400D03*
X163140100Y-105562400D03*
X168640100Y-103022400D03*
X163140100Y-103022400D03*
X168640100Y-100482400D03*
X163140100Y-100482400D03*
X168640100Y-97942400D03*
X163140100Y-97942400D03*
X168640100Y-95402400D03*
X163140100Y-95402400D03*
X168640100Y-92862400D03*
X163140100Y-92862400D03*
X168640100Y-90322400D03*
X163140100Y-90322400D03*
X168640100Y-87782400D03*
X163140100Y-87782400D03*
X168640100Y-85242400D03*
X163140100Y-85242400D03*
X168640100Y-82702400D03*
X163140100Y-82702400D03*
X168640100Y-80162400D03*
X163140100Y-80162400D03*
X168640100Y-77622400D03*
X163140100Y-77622400D03*
X168640100Y-75082400D03*
X163140100Y-75082400D03*
X168640100Y-72542400D03*
X163140100Y-72542400D03*
X168640100Y-70002400D03*
X163140100Y-70002400D03*
X168640100Y-67462400D03*
X163140100Y-67462400D03*
X168640100Y-64922400D03*
X163140100Y-64922400D03*
X168640100Y-62382400D03*
X163140100Y-62382400D03*
G04 #@! TD*
G04 #@! TO.C,P9*
X120380100Y-118262400D03*
X114880100Y-118262400D03*
X120380100Y-115722400D03*
X114880100Y-115722400D03*
X120380100Y-113182400D03*
X114880100Y-113182400D03*
X120380100Y-110642400D03*
X114880100Y-110642400D03*
X120380100Y-108102400D03*
X114880100Y-108102400D03*
X120380100Y-105562400D03*
X114880100Y-105562400D03*
X120380100Y-103022400D03*
X114880100Y-103022400D03*
X120380100Y-100482400D03*
X114880100Y-100482400D03*
X120380100Y-97942400D03*
X114880100Y-97942400D03*
X120380100Y-95402400D03*
X114880100Y-95402400D03*
X120380100Y-92862400D03*
X114880100Y-92862400D03*
X120380100Y-90322400D03*
X114880100Y-90322400D03*
X120380100Y-87782400D03*
X114880100Y-87782400D03*
X120380100Y-85242400D03*
X114880100Y-85242400D03*
X120380100Y-82702400D03*
X114880100Y-82702400D03*
X120380100Y-80162400D03*
X114880100Y-80162400D03*
X120380100Y-77622400D03*
X114880100Y-77622400D03*
X120380100Y-75082400D03*
X114880100Y-75082400D03*
X120380100Y-72542400D03*
X114880100Y-72542400D03*
X120380100Y-70002400D03*
X114880100Y-70002400D03*
X120380100Y-67462400D03*
X114880100Y-67462400D03*
X120380100Y-64922400D03*
X114880100Y-64922400D03*
X120380100Y-62382400D03*
X114880100Y-62382400D03*
G04 #@! TD*
D12*
G04 #@! TO.C,U1*
X153558000Y-69995000D03*
X153058000Y-69995000D03*
X152558000Y-69995000D03*
X152058000Y-69995000D03*
X151558000Y-69995000D03*
X151058000Y-69995000D03*
X150558000Y-69995000D03*
X150058000Y-69995000D03*
X149558000Y-69995000D03*
X149058000Y-69995000D03*
X148558000Y-69995000D03*
X148058000Y-69995000D03*
X147558000Y-69995000D03*
X147058000Y-69995000D03*
X146558000Y-69995000D03*
X146058000Y-69995000D03*
X145558000Y-69995000D03*
X145058000Y-69995000D03*
X144558000Y-69995000D03*
X144058000Y-69995000D03*
X143558000Y-69995000D03*
X143058000Y-69995000D03*
X142558000Y-69995000D03*
X142058000Y-69995000D03*
X141558000Y-69995000D03*
X141058000Y-69995000D03*
X140558000Y-69995000D03*
X140058000Y-69995000D03*
X139558000Y-69995000D03*
X139058000Y-69995000D03*
X138558000Y-69995000D03*
X138058000Y-69995000D03*
X137558000Y-69995000D03*
X137058000Y-69995000D03*
X136558000Y-69995000D03*
X136058000Y-69995000D03*
D13*
X134258000Y-71795000D03*
X134258000Y-72295000D03*
X134258000Y-72795000D03*
X134258000Y-73295000D03*
X134258000Y-73795000D03*
X134258000Y-74295000D03*
X134258000Y-74795000D03*
X134258000Y-75295000D03*
X134258000Y-75795000D03*
X134258000Y-76295000D03*
X134258000Y-76795000D03*
X134258000Y-77295000D03*
X134258000Y-77795000D03*
X134258000Y-78295000D03*
X134258000Y-78795000D03*
X134258000Y-79295000D03*
X134258000Y-79795000D03*
X134258000Y-80295000D03*
X134258000Y-80795000D03*
X134258000Y-81295000D03*
X134258000Y-81795000D03*
X134258000Y-82295000D03*
X134258000Y-82795000D03*
X134258000Y-83295000D03*
X134258000Y-83795000D03*
X134258000Y-84295000D03*
X134258000Y-84795000D03*
X134258000Y-85295000D03*
X134258000Y-85795000D03*
X134258000Y-86295000D03*
X134258000Y-86795000D03*
X134258000Y-87295000D03*
X134258000Y-87795000D03*
X134258000Y-88295000D03*
X134258000Y-88795000D03*
X134258000Y-89295000D03*
D12*
X136058000Y-91095000D03*
X136558000Y-91095000D03*
X137058000Y-91095000D03*
X137558000Y-91095000D03*
X138058000Y-91095000D03*
X138558000Y-91095000D03*
X139058000Y-91095000D03*
X139558000Y-91095000D03*
X140058000Y-91095000D03*
X140558000Y-91095000D03*
X141058000Y-91095000D03*
X141558000Y-91095000D03*
X142058000Y-91095000D03*
X142558000Y-91095000D03*
X143058000Y-91095000D03*
X143558000Y-91095000D03*
X144058000Y-91095000D03*
X144558000Y-91095000D03*
X145058000Y-91095000D03*
X145558000Y-91095000D03*
X146058000Y-91095000D03*
X146558000Y-91095000D03*
X147058000Y-91095000D03*
X147558000Y-91095000D03*
X148058000Y-91095000D03*
X148558000Y-91095000D03*
X149058000Y-91095000D03*
X149558000Y-91095000D03*
X150058000Y-91095000D03*
X150558000Y-91095000D03*
X151058000Y-91095000D03*
X151558000Y-91095000D03*
X152058000Y-91095000D03*
X152558000Y-91095000D03*
X153058000Y-91095000D03*
X153558000Y-91095000D03*
D13*
X155358000Y-89295000D03*
X155358000Y-88795000D03*
X155358000Y-88295000D03*
X155358000Y-87795000D03*
X155358000Y-87295000D03*
X155358000Y-86795000D03*
X155358000Y-86295000D03*
X155358000Y-85795000D03*
X155358000Y-85295000D03*
X155358000Y-84795000D03*
X155358000Y-84295000D03*
X155358000Y-83795000D03*
X155358000Y-83295000D03*
X155358000Y-82795000D03*
X155358000Y-82295000D03*
X155358000Y-81795000D03*
X155358000Y-81295000D03*
X155358000Y-80795000D03*
X155358000Y-80295000D03*
X155358000Y-79795000D03*
X155358000Y-79295000D03*
X155358000Y-78795000D03*
X155358000Y-78295000D03*
X155358000Y-77795000D03*
X155358000Y-77295000D03*
X155358000Y-76795000D03*
X155358000Y-76295000D03*
X155358000Y-75795000D03*
X155358000Y-75295000D03*
X155358000Y-74795000D03*
X155358000Y-74295000D03*
X155358000Y-73795000D03*
X155358000Y-73295000D03*
X155358000Y-72795000D03*
X155358000Y-72295000D03*
X155358000Y-71795000D03*
G04 #@! TD*
D14*
G04 #@! TO.C,U6*
X138963200Y-96690560D03*
X150023200Y-117490560D03*
X150023200Y-116690560D03*
X150023200Y-115890560D03*
X150023200Y-115090560D03*
X150023200Y-114290560D03*
X150023200Y-113490560D03*
X150023200Y-112690560D03*
X150023200Y-111890560D03*
X150023200Y-111090560D03*
X150023200Y-110290560D03*
X150023200Y-109490560D03*
X150023200Y-108690560D03*
X150023200Y-107890560D03*
X150023200Y-107090560D03*
X150023200Y-106290560D03*
X150023200Y-105490560D03*
X150023200Y-104690560D03*
X150023200Y-103890560D03*
X150023200Y-103090560D03*
X150023200Y-102290560D03*
X150023200Y-101490560D03*
X150023200Y-100690560D03*
X150023200Y-99890560D03*
X150023200Y-99090560D03*
X150023200Y-98290560D03*
X150023200Y-97490560D03*
X150023200Y-96690560D03*
X138963200Y-97490560D03*
X138963200Y-98290560D03*
X138963200Y-99090560D03*
X138963200Y-99890560D03*
X138963200Y-100690560D03*
X138963200Y-101490560D03*
X138963200Y-102290560D03*
X138963200Y-103090560D03*
X138963200Y-103890560D03*
X138963200Y-104690560D03*
X138963200Y-105490560D03*
X138963200Y-106290560D03*
X138963200Y-107090560D03*
X138963200Y-107890560D03*
X138963200Y-108690560D03*
X138963200Y-109490560D03*
X138963200Y-110290560D03*
X138963200Y-111090560D03*
X138963200Y-111890560D03*
X138963200Y-112690560D03*
X138963200Y-113490560D03*
X138963200Y-114290560D03*
X138963200Y-115090560D03*
X138963200Y-115890560D03*
X138963200Y-116690560D03*
X138963200Y-117490560D03*
G04 #@! TD*
D15*
G04 #@! TO.C,C36*
X131490000Y-91530000D03*
X131490000Y-90030000D03*
G04 #@! TD*
D16*
G04 #@! TO.C,C40*
X133642200Y-108105400D03*
X132142200Y-108105400D03*
G04 #@! TD*
D15*
G04 #@! TO.C,C5*
X155770000Y-59780000D03*
X155770000Y-61280000D03*
G04 #@! TD*
G04 #@! TO.C,C10*
X159040000Y-59720000D03*
X159040000Y-61220000D03*
G04 #@! TD*
G04 #@! TO.C,C12*
X160640000Y-59720000D03*
X160640000Y-61220000D03*
G04 #@! TD*
G04 #@! TO.C,C18*
X168950000Y-59090000D03*
X168950000Y-57590000D03*
G04 #@! TD*
G04 #@! TO.C,C21*
X126401000Y-85715000D03*
X126401000Y-87215000D03*
G04 #@! TD*
D16*
G04 #@! TO.C,C1*
X159008000Y-83630000D03*
X157508000Y-83630000D03*
G04 #@! TD*
G04 #@! TO.C,C2*
X131310000Y-81070000D03*
X129810000Y-81070000D03*
G04 #@! TD*
G04 #@! TO.C,C3*
X159020000Y-82106000D03*
X157520000Y-82106000D03*
G04 #@! TD*
G04 #@! TO.C,C4*
X131300000Y-79480000D03*
X129800000Y-79480000D03*
G04 #@! TD*
G04 #@! TO.C,C6*
X152240000Y-68150000D03*
X153740000Y-68150000D03*
G04 #@! TD*
G04 #@! TO.C,C7*
X150790000Y-68140000D03*
X149290000Y-68140000D03*
G04 #@! TD*
D15*
G04 #@! TO.C,C8*
X134900000Y-67350000D03*
X134900000Y-65850000D03*
G04 #@! TD*
G04 #@! TO.C,C9*
X136610000Y-67360000D03*
X136610000Y-65860000D03*
G04 #@! TD*
D16*
G04 #@! TO.C,C11*
X131320000Y-76500000D03*
X129820000Y-76500000D03*
G04 #@! TD*
G04 #@! TO.C,C13*
X131320000Y-77960000D03*
X129820000Y-77960000D03*
G04 #@! TD*
G04 #@! TO.C,C14*
X131386000Y-84256000D03*
X129886000Y-84256000D03*
G04 #@! TD*
G04 #@! TO.C,C15*
X131386000Y-82732000D03*
X129886000Y-82732000D03*
G04 #@! TD*
D15*
G04 #@! TO.C,C16*
X140150000Y-93150000D03*
X140150000Y-94650000D03*
G04 #@! TD*
G04 #@! TO.C,C17*
X141690000Y-93150000D03*
X141690000Y-94650000D03*
G04 #@! TD*
G04 #@! TO.C,C19*
X158648400Y-94285500D03*
X158648400Y-92785500D03*
G04 #@! TD*
G04 #@! TO.C,C20*
X150142000Y-93118000D03*
X150142000Y-94618000D03*
G04 #@! TD*
D16*
G04 #@! TO.C,C22*
X157508000Y-86678000D03*
X159008000Y-86678000D03*
G04 #@! TD*
G04 #@! TO.C,C23*
X157508000Y-85154000D03*
X159008000Y-85154000D03*
G04 #@! TD*
G04 #@! TO.C,C24*
X157300000Y-77260000D03*
X158800000Y-77260000D03*
G04 #@! TD*
G04 #@! TO.C,C25*
X157300000Y-78870000D03*
X158800000Y-78870000D03*
G04 #@! TD*
D15*
G04 #@! TO.C,C26*
X140004800Y-67370000D03*
X140004800Y-65870000D03*
G04 #@! TD*
G04 #@! TO.C,C27*
X138310000Y-67360000D03*
X138310000Y-65860000D03*
G04 #@! TD*
D16*
G04 #@! TO.C,C28*
X131370000Y-71600000D03*
X129870000Y-71600000D03*
G04 #@! TD*
G04 #@! TO.C,C30*
X131360000Y-73110000D03*
X129860000Y-73110000D03*
G04 #@! TD*
D15*
G04 #@! TO.C,C31*
X147094000Y-93130000D03*
X147094000Y-94630000D03*
G04 #@! TD*
G04 #@! TO.C,C32*
X145570000Y-93130000D03*
X145570000Y-94630000D03*
G04 #@! TD*
D16*
G04 #@! TO.C,C33*
X157540000Y-89242000D03*
X159040000Y-89242000D03*
G04 #@! TD*
G04 #@! TO.C,C34*
X157540000Y-90766000D03*
X159040000Y-90766000D03*
G04 #@! TD*
G04 #@! TO.C,C35*
X151859200Y-117504560D03*
X153359200Y-117504560D03*
G04 #@! TD*
G04 #@! TO.C,C37*
X151859200Y-107090560D03*
X153359200Y-107090560D03*
G04 #@! TD*
G04 #@! TO.C,C38*
X151680000Y-96960000D03*
X153180000Y-96960000D03*
G04 #@! TD*
G04 #@! TO.C,C39*
X151859200Y-115726560D03*
X153359200Y-115726560D03*
G04 #@! TD*
G04 #@! TO.C,C41*
X151859200Y-110900560D03*
X153359200Y-110900560D03*
G04 #@! TD*
D15*
G04 #@! TO.C,C42*
X137500000Y-108690000D03*
X137500000Y-110190000D03*
G04 #@! TD*
G04 #@! TO.C,C43*
X137430000Y-113570000D03*
X137430000Y-115070000D03*
G04 #@! TD*
D17*
G04 #@! TO.C,R21*
X115450200Y-55194200D03*
X116350200Y-55194200D03*
G04 #@! TD*
G04 #@! TO.C,R22*
X115450200Y-56769000D03*
X116350200Y-56769000D03*
G04 #@! TD*
G04 #@! TO.C,R4*
X115773700Y-50516400D03*
X114873700Y-50516400D03*
G04 #@! TD*
G04 #@! TO.C,R5*
X115773700Y-48865400D03*
X114873700Y-48865400D03*
G04 #@! TD*
G04 #@! TO.C,R6*
X115773700Y-47214400D03*
X114873700Y-47214400D03*
G04 #@! TD*
G04 #@! TO.C,R7*
X115824500Y-45563400D03*
X114924500Y-45563400D03*
G04 #@! TD*
G04 #@! TO.C,R10*
X131590000Y-85710000D03*
X130690000Y-85710000D03*
G04 #@! TD*
G04 #@! TO.C,R1*
X158230000Y-80630000D03*
X157330000Y-80630000D03*
G04 #@! TD*
G04 #@! TO.C,R2*
X125750000Y-81070000D03*
X126650000Y-81070000D03*
G04 #@! TD*
D18*
G04 #@! TO.C,U2*
X156970000Y-51100000D03*
D19*
X156970000Y-57400000D03*
X159270000Y-57400000D03*
X154670000Y-57400000D03*
G04 #@! TD*
D20*
G04 #@! TO.C,U5*
X122925200Y-108402400D03*
X122925200Y-109672400D03*
X122925200Y-110942400D03*
X122925200Y-112212400D03*
X130225200Y-112212400D03*
X130225200Y-110942400D03*
X130225200Y-109672400D03*
X130225200Y-108402400D03*
G04 #@! TD*
D18*
G04 #@! TO.C,U3*
X164270000Y-51120000D03*
D19*
X164270000Y-57420000D03*
X166570000Y-57420000D03*
X161970000Y-57420000D03*
G04 #@! TD*
D21*
G04 #@! TO.C,SW1*
X120650000Y-51595000D03*
X120650000Y-46195000D03*
G04 #@! TD*
G04 #@! TO.C,SW2*
X126238000Y-51595000D03*
X126238000Y-46195000D03*
G04 #@! TD*
G04 #@! TO.C,SW3*
X131815840Y-51595000D03*
X131815840Y-46195000D03*
G04 #@! TD*
D22*
G04 #@! TO.C,U7*
X127910000Y-60380000D03*
X127910000Y-61330000D03*
X127910000Y-62280000D03*
X130110000Y-62280000D03*
X130110000Y-60380000D03*
X130110000Y-61330000D03*
G04 #@! TD*
D23*
G04 #@! TO.C,U4*
X123323000Y-99260400D03*
X123973000Y-99260400D03*
X124623000Y-99260400D03*
X125273000Y-99260400D03*
X125273000Y-93360400D03*
X124623000Y-93360400D03*
X123973000Y-93360400D03*
X123323000Y-93360400D03*
G04 #@! TD*
D16*
G04 #@! TO.C,C29*
X123165000Y-90734400D03*
X124665000Y-90734400D03*
G04 #@! TD*
G04 #@! TO.C,C46*
X131850000Y-61470000D03*
X133350000Y-61470000D03*
G04 #@! TD*
D17*
G04 #@! TO.C,R11*
X132862200Y-109705400D03*
X131962200Y-109705400D03*
G04 #@! TD*
D24*
G04 #@! TO.C,R12*
X125122200Y-114905400D03*
X125122200Y-114005400D03*
G04 #@! TD*
G04 #@! TO.C,R13*
X126522200Y-114895400D03*
X126522200Y-113995400D03*
G04 #@! TD*
D17*
G04 #@! TO.C,R14*
X132862200Y-111105400D03*
X131962200Y-111105400D03*
G04 #@! TD*
G04 #@! TO.C,R15*
X127665000Y-93828400D03*
X126765000Y-93828400D03*
G04 #@! TD*
G04 #@! TO.C,R16*
X127665000Y-95352400D03*
X126765000Y-95352400D03*
G04 #@! TD*
G04 #@! TO.C,R17*
X122301000Y-54451000D03*
X123201000Y-54451000D03*
G04 #@! TD*
G04 #@! TO.C,R18*
X128397000Y-54451000D03*
X129297000Y-54451000D03*
G04 #@! TD*
G04 #@! TO.C,R19*
X123201000Y-55848000D03*
X122301000Y-55848000D03*
G04 #@! TD*
G04 #@! TO.C,R20*
X129297000Y-55848000D03*
X128397000Y-55848000D03*
G04 #@! TD*
D24*
G04 #@! TO.C,R8*
X131080000Y-98370000D03*
X131080000Y-99270000D03*
G04 #@! TD*
G04 #@! TO.C,R9*
X127490000Y-98390000D03*
X127490000Y-99290000D03*
G04 #@! TD*
G04 #@! TO.C,R23*
X131546600Y-117964800D03*
X131546600Y-118864800D03*
G04 #@! TD*
G04 #@! TO.C,R24*
X135166100Y-117990200D03*
X135166100Y-118890200D03*
G04 #@! TD*
G04 #@! TO.C,R25*
X129679700Y-117990200D03*
X129679700Y-118890200D03*
G04 #@! TD*
G04 #@! TO.C,R26*
X133375400Y-117977500D03*
X133375400Y-118877500D03*
G04 #@! TD*
G04 #@! TO.C,R3*
X133380000Y-54320000D03*
X133380000Y-55220000D03*
G04 #@! TD*
D16*
G04 #@! TO.C,C44*
X122001000Y-57372000D03*
X123501000Y-57372000D03*
G04 #@! TD*
G04 #@! TO.C,C45*
X128097000Y-57372000D03*
X129597000Y-57372000D03*
G04 #@! TD*
D25*
G04 #@! TO.C,D5*
X155803600Y-92774400D03*
X155803600Y-94474400D03*
G04 #@! TD*
D26*
G04 #@! TO.C,Y1*
X127762500Y-87249300D03*
D27*
G36*
X127437500Y-87674300D02*
X127437500Y-86824300D01*
X128087500Y-86824300D01*
X128087500Y-87674300D01*
X127437500Y-87674300D01*
X127437500Y-87674300D01*
G37*
D28*
X129412500Y-87249300D03*
X129412500Y-85699300D03*
X127762500Y-85699300D03*
G04 #@! TD*
D29*
G04 #@! TO.C,SW4*
X109816900Y-61437300D03*
X112356900Y-61437300D03*
X112356900Y-52837300D03*
X109816900Y-52837300D03*
G04 #@! TD*
D24*
G04 #@! TO.C,R27*
X124625100Y-102113500D03*
X124625100Y-101213500D03*
G04 #@! TD*
M02*
