G04 #@! TF.GenerationSoftware,KiCad,Pcbnew,(5.0.0-rc2-21-g8f5cb32)*
G04 #@! TF.CreationDate,2018-05-30T22:51:02-05:00*
G04 #@! TF.ProjectId,beagle-wire,626561676C652D776972652E6B696361,rev?*
G04 #@! TF.SameCoordinates,Original*
G04 #@! TF.FileFunction,Legend,Bot*
G04 #@! TF.FilePolarity,Positive*
%FSLAX46Y46*%
G04 Gerber Fmt 4.6, Leading zero omitted, Abs format (unit mm)*
G04 Created by KiCad (PCBNEW (5.0.0-rc2-21-g8f5cb32)) date Wed May 30 22:51:02 2018*
%MOMM*%
%LPD*%
G01*
G04 APERTURE LIST*
%ADD10C,0.300000*%
G04 APERTURE END LIST*
D10*
X127628400Y-47942971D02*
X127628400Y-46942971D01*
X127628400Y-47085828D02*
X127556971Y-47014400D01*
X127414114Y-46942971D01*
X127199828Y-46942971D01*
X127056971Y-47014400D01*
X126985542Y-47157257D01*
X126985542Y-47942971D01*
X126985542Y-47157257D02*
X126914114Y-47014400D01*
X126771257Y-46942971D01*
X126556971Y-46942971D01*
X126414114Y-47014400D01*
X126342685Y-47157257D01*
X126342685Y-47942971D01*
X125985542Y-48085828D02*
X124842685Y-48085828D01*
X124628400Y-46942971D02*
X124342685Y-47942971D01*
X124056971Y-47228685D01*
X123771257Y-47942971D01*
X123485542Y-46942971D01*
X130521257Y-49492971D02*
X130521257Y-50992971D01*
X130521257Y-49564400D02*
X130378400Y-49492971D01*
X130092685Y-49492971D01*
X129949828Y-49564400D01*
X129878400Y-49635828D01*
X129806971Y-49778685D01*
X129806971Y-50207257D01*
X129878400Y-50350114D01*
X129949828Y-50421542D01*
X130092685Y-50492971D01*
X130378400Y-50492971D01*
X130521257Y-50421542D01*
X129164114Y-50492971D02*
X129164114Y-49492971D01*
X129164114Y-49635828D02*
X129092685Y-49564400D01*
X128949828Y-49492971D01*
X128735542Y-49492971D01*
X128592685Y-49564400D01*
X128521257Y-49707257D01*
X128521257Y-50492971D01*
X128521257Y-49707257D02*
X128449828Y-49564400D01*
X128306971Y-49492971D01*
X128092685Y-49492971D01*
X127949828Y-49564400D01*
X127878400Y-49707257D01*
X127878400Y-50492971D01*
X126592685Y-50421542D02*
X126735542Y-50492971D01*
X127021257Y-50492971D01*
X127164114Y-50421542D01*
X127235542Y-50278685D01*
X127235542Y-49707257D01*
X127164114Y-49564400D01*
X127021257Y-49492971D01*
X126735542Y-49492971D01*
X126592685Y-49564400D01*
X126521257Y-49707257D01*
X126521257Y-49850114D01*
X127235542Y-49992971D01*
X126021257Y-49492971D02*
X125235542Y-49492971D01*
X126021257Y-50492971D01*
X125235542Y-50492971D01*
X124806971Y-49492971D02*
X124449828Y-50492971D01*
X124092685Y-49492971D02*
X124449828Y-50492971D01*
X124592685Y-50850114D01*
X124664114Y-50921542D01*
X124806971Y-50992971D01*
X122878400Y-50492971D02*
X122878400Y-48992971D01*
X122878400Y-50421542D02*
X123021257Y-50492971D01*
X123306971Y-50492971D01*
X123449828Y-50421542D01*
X123521257Y-50350114D01*
X123592685Y-50207257D01*
X123592685Y-49778685D01*
X123521257Y-49635828D01*
X123449828Y-49564400D01*
X123306971Y-49492971D01*
X123021257Y-49492971D01*
X122878400Y-49564400D01*
X121949828Y-50492971D02*
X122092685Y-50421542D01*
X122164114Y-50278685D01*
X122164114Y-48992971D01*
X121164114Y-50492971D02*
X121306971Y-50421542D01*
X121378400Y-50350114D01*
X121449828Y-50207257D01*
X121449828Y-49778685D01*
X121378400Y-49635828D01*
X121306971Y-49564400D01*
X121164114Y-49492971D01*
X120949828Y-49492971D01*
X120806971Y-49564400D01*
X120735542Y-49635828D01*
X120664114Y-49778685D01*
X120664114Y-50207257D01*
X120735542Y-50350114D01*
X120806971Y-50421542D01*
X120949828Y-50492971D01*
X121164114Y-50492971D01*
M02*
