G04 #@! TF.GenerationSoftware,KiCad,Pcbnew,(2017-08-02 revision 9760937)-master*
G04 #@! TF.CreationDate,2018-04-02T13:15:28-05:00*
G04 #@! TF.ProjectId,beagle-wire,626561676C652D776972652E6B696361,rev?*
G04 #@! TF.SameCoordinates,Original*
G04 #@! TF.FileFunction,Soldermask,Bot*
G04 #@! TF.FilePolarity,Negative*
%FSLAX46Y46*%
G04 Gerber Fmt 4.6, Leading zero omitted, Abs format (unit mm)*
G04 Created by KiCad (PCBNEW (2017-08-02 revision 9760937)-master) date Mon Apr  2 13:15:28 2018*
%MOMM*%
%LPD*%
G01*
G04 APERTURE LIST*
%ADD10R,1.727200X1.727200*%
%ADD11O,1.727200X1.727200*%
%ADD12C,1.524000*%
G04 APERTURE END LIST*
D10*
X170817120Y-113157000D03*
D11*
X173357120Y-113157000D03*
X170817120Y-110617000D03*
X173357120Y-110617000D03*
X170817120Y-108077000D03*
X173357120Y-108077000D03*
X170817120Y-105537000D03*
X173357120Y-105537000D03*
X170817120Y-102997000D03*
X173357120Y-102997000D03*
X170817120Y-100457000D03*
X173357120Y-100457000D03*
D10*
X116370100Y-62382400D03*
D11*
X118910100Y-62382400D03*
X116370100Y-64922400D03*
X118910100Y-64922400D03*
X116370100Y-67462400D03*
X118910100Y-67462400D03*
X116370100Y-70002400D03*
X118910100Y-70002400D03*
X116370100Y-72542400D03*
X118910100Y-72542400D03*
X116370100Y-75082400D03*
X118910100Y-75082400D03*
X116370100Y-77622400D03*
X118910100Y-77622400D03*
X116370100Y-80162400D03*
X118910100Y-80162400D03*
X116370100Y-82702400D03*
X118910100Y-82702400D03*
X116370100Y-85242400D03*
X118910100Y-85242400D03*
X116370100Y-87782400D03*
X118910100Y-87782400D03*
X116370100Y-90322400D03*
X118910100Y-90322400D03*
X116370100Y-92862400D03*
X118910100Y-92862400D03*
X116370100Y-95402400D03*
X118910100Y-95402400D03*
X116370100Y-97942400D03*
X118910100Y-97942400D03*
X116370100Y-100482400D03*
X118910100Y-100482400D03*
X116370100Y-103022400D03*
X118910100Y-103022400D03*
X116370100Y-105562400D03*
X118910100Y-105562400D03*
X116370100Y-108102400D03*
X118910100Y-108102400D03*
X116370100Y-110642400D03*
X118910100Y-110642400D03*
X116370100Y-113182400D03*
X118910100Y-113182400D03*
X116370100Y-115722400D03*
X118910100Y-115722400D03*
X116370100Y-118262400D03*
X118910100Y-118262400D03*
D10*
X164630100Y-62382400D03*
D11*
X167170100Y-62382400D03*
X164630100Y-64922400D03*
X167170100Y-64922400D03*
X164630100Y-67462400D03*
X167170100Y-67462400D03*
X164630100Y-70002400D03*
X167170100Y-70002400D03*
X164630100Y-72542400D03*
X167170100Y-72542400D03*
X164630100Y-75082400D03*
X167170100Y-75082400D03*
X164630100Y-77622400D03*
X167170100Y-77622400D03*
X164630100Y-80162400D03*
X167170100Y-80162400D03*
X164630100Y-82702400D03*
X167170100Y-82702400D03*
X164630100Y-85242400D03*
X167170100Y-85242400D03*
X164630100Y-87782400D03*
X167170100Y-87782400D03*
X164630100Y-90322400D03*
X167170100Y-90322400D03*
X164630100Y-92862400D03*
X167170100Y-92862400D03*
X164630100Y-95402400D03*
X167170100Y-95402400D03*
X164630100Y-97942400D03*
X167170100Y-97942400D03*
X164630100Y-100482400D03*
X167170100Y-100482400D03*
X164630100Y-103022400D03*
X167170100Y-103022400D03*
X164630100Y-105562400D03*
X167170100Y-105562400D03*
X164630100Y-108102400D03*
X167170100Y-108102400D03*
X164630100Y-110642400D03*
X167170100Y-110642400D03*
X164630100Y-113182400D03*
X167170100Y-113182400D03*
X164630100Y-115722400D03*
X167170100Y-115722400D03*
X164630100Y-118262400D03*
X167170100Y-118262400D03*
D10*
X128560000Y-104200000D03*
D11*
X128560000Y-101660000D03*
D10*
X132190000Y-104200000D03*
D11*
X132190000Y-101660000D03*
D10*
X111817120Y-77597000D03*
D11*
X109277120Y-77597000D03*
X111817120Y-80137000D03*
X109277120Y-80137000D03*
X111817120Y-82677000D03*
X109277120Y-82677000D03*
X111817120Y-85217000D03*
X109277120Y-85217000D03*
X111817120Y-87757000D03*
X109277120Y-87757000D03*
X111817120Y-90297000D03*
X109277120Y-90297000D03*
D10*
X111817120Y-100457000D03*
D11*
X109277120Y-100457000D03*
X111817120Y-102997000D03*
X109277120Y-102997000D03*
X111817120Y-105537000D03*
X109277120Y-105537000D03*
X111817120Y-108077000D03*
X109277120Y-108077000D03*
X111817120Y-110617000D03*
X109277120Y-110617000D03*
X111817120Y-113157000D03*
X109277120Y-113157000D03*
D10*
X170817120Y-90297000D03*
D11*
X173357120Y-90297000D03*
X170817120Y-87757000D03*
X173357120Y-87757000D03*
X170817120Y-85217000D03*
X173357120Y-85217000D03*
X170817120Y-82677000D03*
X173357120Y-82677000D03*
X170817120Y-80137000D03*
X173357120Y-80137000D03*
X170817120Y-77597000D03*
X173357120Y-77597000D03*
D12*
X124732000Y-124680000D03*
X118732000Y-124680000D03*
X120732000Y-124680000D03*
X122732000Y-124680000D03*
X137813000Y-124680000D03*
X131813000Y-124680000D03*
X133813000Y-124680000D03*
X135813000Y-124680000D03*
X150894000Y-124680000D03*
X144894000Y-124680000D03*
X146894000Y-124680000D03*
X148894000Y-124680000D03*
X163975000Y-124680000D03*
X157975000Y-124680000D03*
X159975000Y-124680000D03*
X161975000Y-124680000D03*
M02*
