G04 #@! TF.GenerationSoftware,KiCad,Pcbnew,(2017-08-02 revision 9760937)-master*
G04 #@! TF.CreationDate,2018-04-02T13:15:28-05:00*
G04 #@! TF.ProjectId,beagle-wire,626561676C652D776972652E6B696361,rev?*
G04 #@! TF.SameCoordinates,Original*
G04 #@! TF.FileFunction,Copper,L2,Inr,Plane*
G04 #@! TF.FilePolarity,Positive*
%FSLAX46Y46*%
G04 Gerber Fmt 4.6, Leading zero omitted, Abs format (unit mm)*
G04 Created by KiCad (PCBNEW (2017-08-02 revision 9760937)-master) date Mon Apr  2 13:15:28 2018*
%MOMM*%
%LPD*%
G01*
G04 APERTURE LIST*
%ADD10R,1.727200X1.727200*%
%ADD11O,1.727200X1.727200*%
%ADD12C,1.524000*%
%ADD13C,0.600000*%
%ADD14C,0.254000*%
G04 APERTURE END LIST*
D10*
X170817120Y-113157000D03*
D11*
X173357120Y-113157000D03*
X170817120Y-110617000D03*
X173357120Y-110617000D03*
X170817120Y-108077000D03*
X173357120Y-108077000D03*
X170817120Y-105537000D03*
X173357120Y-105537000D03*
X170817120Y-102997000D03*
X173357120Y-102997000D03*
X170817120Y-100457000D03*
X173357120Y-100457000D03*
D10*
X116370100Y-62382400D03*
D11*
X118910100Y-62382400D03*
X116370100Y-64922400D03*
X118910100Y-64922400D03*
X116370100Y-67462400D03*
X118910100Y-67462400D03*
X116370100Y-70002400D03*
X118910100Y-70002400D03*
X116370100Y-72542400D03*
X118910100Y-72542400D03*
X116370100Y-75082400D03*
X118910100Y-75082400D03*
X116370100Y-77622400D03*
X118910100Y-77622400D03*
X116370100Y-80162400D03*
X118910100Y-80162400D03*
X116370100Y-82702400D03*
X118910100Y-82702400D03*
X116370100Y-85242400D03*
X118910100Y-85242400D03*
X116370100Y-87782400D03*
X118910100Y-87782400D03*
X116370100Y-90322400D03*
X118910100Y-90322400D03*
X116370100Y-92862400D03*
X118910100Y-92862400D03*
X116370100Y-95402400D03*
X118910100Y-95402400D03*
X116370100Y-97942400D03*
X118910100Y-97942400D03*
X116370100Y-100482400D03*
X118910100Y-100482400D03*
X116370100Y-103022400D03*
X118910100Y-103022400D03*
X116370100Y-105562400D03*
X118910100Y-105562400D03*
X116370100Y-108102400D03*
X118910100Y-108102400D03*
X116370100Y-110642400D03*
X118910100Y-110642400D03*
X116370100Y-113182400D03*
X118910100Y-113182400D03*
X116370100Y-115722400D03*
X118910100Y-115722400D03*
X116370100Y-118262400D03*
X118910100Y-118262400D03*
D10*
X164630100Y-62382400D03*
D11*
X167170100Y-62382400D03*
X164630100Y-64922400D03*
X167170100Y-64922400D03*
X164630100Y-67462400D03*
X167170100Y-67462400D03*
X164630100Y-70002400D03*
X167170100Y-70002400D03*
X164630100Y-72542400D03*
X167170100Y-72542400D03*
X164630100Y-75082400D03*
X167170100Y-75082400D03*
X164630100Y-77622400D03*
X167170100Y-77622400D03*
X164630100Y-80162400D03*
X167170100Y-80162400D03*
X164630100Y-82702400D03*
X167170100Y-82702400D03*
X164630100Y-85242400D03*
X167170100Y-85242400D03*
X164630100Y-87782400D03*
X167170100Y-87782400D03*
X164630100Y-90322400D03*
X167170100Y-90322400D03*
X164630100Y-92862400D03*
X167170100Y-92862400D03*
X164630100Y-95402400D03*
X167170100Y-95402400D03*
X164630100Y-97942400D03*
X167170100Y-97942400D03*
X164630100Y-100482400D03*
X167170100Y-100482400D03*
X164630100Y-103022400D03*
X167170100Y-103022400D03*
X164630100Y-105562400D03*
X167170100Y-105562400D03*
X164630100Y-108102400D03*
X167170100Y-108102400D03*
X164630100Y-110642400D03*
X167170100Y-110642400D03*
X164630100Y-113182400D03*
X167170100Y-113182400D03*
X164630100Y-115722400D03*
X167170100Y-115722400D03*
X164630100Y-118262400D03*
X167170100Y-118262400D03*
D10*
X128560000Y-104200000D03*
D11*
X128560000Y-101660000D03*
D10*
X132190000Y-104200000D03*
D11*
X132190000Y-101660000D03*
D10*
X111817120Y-77597000D03*
D11*
X109277120Y-77597000D03*
X111817120Y-80137000D03*
X109277120Y-80137000D03*
X111817120Y-82677000D03*
X109277120Y-82677000D03*
X111817120Y-85217000D03*
X109277120Y-85217000D03*
X111817120Y-87757000D03*
X109277120Y-87757000D03*
X111817120Y-90297000D03*
X109277120Y-90297000D03*
D10*
X111817120Y-100457000D03*
D11*
X109277120Y-100457000D03*
X111817120Y-102997000D03*
X109277120Y-102997000D03*
X111817120Y-105537000D03*
X109277120Y-105537000D03*
X111817120Y-108077000D03*
X109277120Y-108077000D03*
X111817120Y-110617000D03*
X109277120Y-110617000D03*
X111817120Y-113157000D03*
X109277120Y-113157000D03*
D10*
X170817120Y-90297000D03*
D11*
X173357120Y-90297000D03*
X170817120Y-87757000D03*
X173357120Y-87757000D03*
X170817120Y-85217000D03*
X173357120Y-85217000D03*
X170817120Y-82677000D03*
X173357120Y-82677000D03*
X170817120Y-80137000D03*
X173357120Y-80137000D03*
X170817120Y-77597000D03*
X173357120Y-77597000D03*
D12*
X124732000Y-124680000D03*
X118732000Y-124680000D03*
X120732000Y-124680000D03*
X122732000Y-124680000D03*
X137813000Y-124680000D03*
X131813000Y-124680000D03*
X133813000Y-124680000D03*
X135813000Y-124680000D03*
X150894000Y-124680000D03*
X144894000Y-124680000D03*
X146894000Y-124680000D03*
X148894000Y-124680000D03*
X163975000Y-124680000D03*
X157975000Y-124680000D03*
X159975000Y-124680000D03*
X161975000Y-124680000D03*
D13*
X129915920Y-117149880D03*
X131714240Y-117134640D03*
X133609080Y-117165120D03*
X135178800Y-117236240D03*
X124917200Y-102463600D03*
X117398800Y-56794400D03*
X117322600Y-55181500D03*
X159880300Y-94310200D03*
X127627817Y-95715706D03*
X127643227Y-94183412D03*
X159270700Y-55778400D03*
X161975800Y-55765700D03*
X159990000Y-59050000D03*
X127860000Y-88380000D03*
X135710000Y-76040000D03*
X132600000Y-81820000D03*
X121170000Y-55020000D03*
X123330000Y-89770000D03*
X137508437Y-107777780D03*
X127660400Y-54457600D03*
X131089400Y-97764600D03*
X127482600Y-97764600D03*
X144459804Y-89418199D03*
X139037194Y-68340374D03*
X131347671Y-89242939D03*
X149897128Y-92318713D03*
X131038600Y-107264200D03*
X150848311Y-96690544D03*
X137439400Y-112776000D03*
X150859308Y-107090560D03*
X150893814Y-111090253D03*
X150951926Y-117504560D03*
X150944545Y-115887959D03*
X125425200Y-115570000D03*
X124028200Y-115570000D03*
X131058920Y-61320680D03*
X151058000Y-68920686D03*
X156591000Y-82311240D03*
X156583150Y-78292603D03*
X154643659Y-55844159D03*
X112306100Y-64109600D03*
X109766100Y-64084200D03*
X125056900Y-101206300D03*
X159943800Y-92760800D03*
X130033406Y-88082193D03*
X160660000Y-51070000D03*
X128998420Y-71612589D03*
X153438632Y-78071163D03*
X128660000Y-76600000D03*
X168950000Y-56600000D03*
X159840000Y-61930000D03*
X158999626Y-91619548D03*
X124400000Y-58280000D03*
X142793808Y-88798400D03*
X124043000Y-91882600D03*
X123338654Y-94873703D03*
X133202279Y-82795001D03*
X131495800Y-92379800D03*
X133070600Y-87782400D03*
X151053800Y-89916000D03*
X159969200Y-85166200D03*
X159969200Y-86690200D03*
X159979200Y-89204600D03*
X121843800Y-113207800D03*
X132537200Y-107264200D03*
X138959265Y-95845773D03*
X139172981Y-94665800D03*
X122696800Y-100925000D03*
X147409038Y-95504000D03*
X150139400Y-95453200D03*
X154000200Y-96951800D03*
X140130866Y-107089979D03*
X154432000Y-117525800D03*
X154432000Y-115722400D03*
X154406600Y-110896400D03*
X154406600Y-107086400D03*
X149148800Y-108686600D03*
X149174200Y-113487200D03*
X126396200Y-88188800D03*
X138049000Y-111074200D03*
X138049000Y-115900200D03*
X138074400Y-117500400D03*
X156687520Y-61264800D03*
X164261800Y-58831480D03*
X156961840Y-58861960D03*
X139176760Y-65852040D03*
X135752840Y-65852040D03*
X133334760Y-62417960D03*
X126832360Y-61320680D03*
X133380480Y-55981600D03*
X130510280Y-57368440D03*
X126227840Y-44668440D03*
X120655080Y-44668440D03*
X115691920Y-51308000D03*
X115697000Y-49646840D03*
X115697000Y-48006000D03*
X115691920Y-46355000D03*
X159659320Y-78861920D03*
X159664400Y-77256640D03*
X147563840Y-68828920D03*
X151481795Y-71120904D03*
X154137360Y-73896220D03*
X154800300Y-68163440D03*
X148228343Y-68142945D03*
X158806397Y-80630590D03*
X125739168Y-81883580D03*
X131377656Y-72381957D03*
X144800000Y-71210000D03*
X166560000Y-59310000D03*
X142982128Y-85670481D03*
X136990000Y-75670000D03*
X136391404Y-75067448D03*
X138140000Y-78010000D03*
X136890000Y-77190000D03*
X138243780Y-80970000D03*
X138170000Y-78910000D03*
X138430000Y-83950000D03*
X138450000Y-82940000D03*
X153716754Y-75965612D03*
X153691270Y-75166006D03*
X152874467Y-76204125D03*
X140360000Y-83070000D03*
X139458133Y-84815690D03*
X132318704Y-88573003D03*
X123367000Y-108377000D03*
X137325100Y-89331800D03*
X130835400Y-112433100D03*
X135788400Y-87680800D03*
X124028200Y-109829600D03*
X127493000Y-110917000D03*
X136444621Y-89050928D03*
X141730000Y-77520000D03*
X138820000Y-76260000D03*
X141693811Y-71832737D03*
X131830000Y-59590000D03*
X145483163Y-86901013D03*
X140150000Y-109490000D03*
X148760000Y-85870000D03*
X148290000Y-99890000D03*
X149110000Y-86620000D03*
X148860000Y-99090000D03*
X149470000Y-87370000D03*
X148290000Y-98300000D03*
X150053867Y-88928489D03*
X148866220Y-97500000D03*
X137587971Y-87349604D03*
X137798170Y-97555752D03*
X139187417Y-87392188D03*
X140120000Y-98270000D03*
X138387773Y-87367947D03*
X137750000Y-100690000D03*
X139987320Y-87378980D03*
X140540000Y-101000000D03*
X148430000Y-85110000D03*
X148890000Y-100690000D03*
X140787219Y-87365544D03*
X140110000Y-102290000D03*
X141566489Y-87184554D03*
X140600000Y-103090000D03*
X147720000Y-83590000D03*
X148850000Y-102280000D03*
X148080000Y-84360000D03*
X148320000Y-101490000D03*
X109860000Y-51940000D03*
X137480000Y-71440000D03*
X109760000Y-50380000D03*
X138380000Y-71480000D03*
X109830000Y-48620000D03*
X139420000Y-71440000D03*
X109830000Y-46830000D03*
X140420000Y-71730000D03*
X146200000Y-80650000D03*
X148880000Y-105500000D03*
X146650000Y-81370000D03*
X148380000Y-104690000D03*
X147000000Y-82100000D03*
X148900000Y-103910000D03*
X147360000Y-82830000D03*
X148410000Y-103090000D03*
X142357108Y-86759411D03*
X140120000Y-103890000D03*
X143822792Y-86924667D03*
X140680000Y-104700000D03*
X144683729Y-86931397D03*
X140150000Y-105510000D03*
X153798952Y-86775245D03*
X153747070Y-79216694D03*
X152046347Y-74187325D03*
X150563287Y-74202156D03*
X149470000Y-73310000D03*
X148640000Y-73300000D03*
X147813760Y-73293601D03*
X145898437Y-71337327D03*
X147236049Y-72740186D03*
X146953230Y-71332213D03*
D14*
G36*
X134783830Y-64287400D02*
X134832263Y-64530890D01*
X134970189Y-64737311D01*
X135176610Y-64875237D01*
X135420100Y-64923670D01*
X135551235Y-64923670D01*
X135223897Y-65058923D01*
X134960648Y-65321713D01*
X134818002Y-65665241D01*
X134817678Y-66037207D01*
X134959723Y-66380983D01*
X135222513Y-66644232D01*
X135566041Y-66786878D01*
X135938007Y-66787202D01*
X136281783Y-66645157D01*
X136545032Y-66382367D01*
X136687678Y-66038839D01*
X136688002Y-65666873D01*
X136545957Y-65323097D01*
X136283167Y-65059848D01*
X135955216Y-64923670D01*
X138975155Y-64923670D01*
X138647817Y-65058923D01*
X138384568Y-65321713D01*
X138241922Y-65665241D01*
X138241598Y-66037207D01*
X138383643Y-66380983D01*
X138646433Y-66644232D01*
X138989961Y-66786878D01*
X139361927Y-66787202D01*
X139705703Y-66645157D01*
X139968952Y-66382367D01*
X140111598Y-66038839D01*
X140111922Y-65666873D01*
X139969877Y-65323097D01*
X139707087Y-65059848D01*
X139379136Y-64923670D01*
X153200100Y-64923670D01*
X153206484Y-64922400D01*
X163102141Y-64922400D01*
X163216215Y-65495889D01*
X163541071Y-65982070D01*
X163855852Y-66192400D01*
X163541071Y-66402730D01*
X163216215Y-66888911D01*
X163102141Y-67462400D01*
X163216215Y-68035889D01*
X163541071Y-68522070D01*
X163855852Y-68732400D01*
X163541071Y-68942730D01*
X163216215Y-69428911D01*
X163102141Y-70002400D01*
X163216215Y-70575889D01*
X163541071Y-71062070D01*
X163855852Y-71272400D01*
X163541071Y-71482730D01*
X163216215Y-71968911D01*
X163102141Y-72542400D01*
X163216215Y-73115889D01*
X163541071Y-73602070D01*
X163855852Y-73812400D01*
X163541071Y-74022730D01*
X163216215Y-74508911D01*
X163102141Y-75082400D01*
X163216215Y-75655889D01*
X163541071Y-76142070D01*
X163855852Y-76352400D01*
X163541071Y-76562730D01*
X163216215Y-77048911D01*
X163102141Y-77622400D01*
X163216215Y-78195889D01*
X163541071Y-78682070D01*
X163855852Y-78892400D01*
X163541071Y-79102730D01*
X163216215Y-79588911D01*
X163102141Y-80162400D01*
X163216215Y-80735889D01*
X163541071Y-81222070D01*
X163855852Y-81432400D01*
X163541071Y-81642730D01*
X163216215Y-82128911D01*
X163102141Y-82702400D01*
X163216215Y-83275889D01*
X163541071Y-83762070D01*
X163855852Y-83972400D01*
X163541071Y-84182730D01*
X163216215Y-84668911D01*
X163102141Y-85242400D01*
X163216215Y-85815889D01*
X163541071Y-86302070D01*
X163855852Y-86512400D01*
X163541071Y-86722730D01*
X163216215Y-87208911D01*
X163102141Y-87782400D01*
X163216215Y-88355889D01*
X163541071Y-88842070D01*
X163855852Y-89052400D01*
X163541071Y-89262730D01*
X163216215Y-89748911D01*
X163102141Y-90322400D01*
X163216215Y-90895889D01*
X163541071Y-91382070D01*
X163855852Y-91592400D01*
X163541071Y-91802730D01*
X163216215Y-92288911D01*
X163102141Y-92862400D01*
X163216215Y-93435889D01*
X163541071Y-93922070D01*
X163855852Y-94132400D01*
X163541071Y-94342730D01*
X163216215Y-94828911D01*
X163102141Y-95402400D01*
X163216215Y-95975889D01*
X163541071Y-96462070D01*
X163855852Y-96672400D01*
X163541071Y-96882730D01*
X163216215Y-97368911D01*
X163102141Y-97942400D01*
X163216215Y-98515889D01*
X163541071Y-99002070D01*
X163855852Y-99212400D01*
X163541071Y-99422730D01*
X163216215Y-99908911D01*
X163102141Y-100482400D01*
X163216215Y-101055889D01*
X163541071Y-101542070D01*
X163855852Y-101752400D01*
X163541071Y-101962730D01*
X163216215Y-102448911D01*
X163102141Y-103022400D01*
X163216215Y-103595889D01*
X163541071Y-104082070D01*
X163855852Y-104292400D01*
X163541071Y-104502730D01*
X163216215Y-104988911D01*
X163102141Y-105562400D01*
X163216215Y-106135889D01*
X163541071Y-106622070D01*
X163855852Y-106832400D01*
X163541071Y-107042730D01*
X163216215Y-107528911D01*
X163102141Y-108102400D01*
X163216215Y-108675889D01*
X163541071Y-109162070D01*
X163855852Y-109372400D01*
X163541071Y-109582730D01*
X163216215Y-110068911D01*
X163102141Y-110642400D01*
X163216215Y-111215889D01*
X163541071Y-111702070D01*
X163855852Y-111912400D01*
X163541071Y-112122730D01*
X163216215Y-112608911D01*
X163102141Y-113182400D01*
X163216215Y-113755889D01*
X163541071Y-114242070D01*
X163855852Y-114452400D01*
X163541071Y-114662730D01*
X163216215Y-115148911D01*
X163102141Y-115722400D01*
X163216215Y-116295889D01*
X163541071Y-116782070D01*
X163855852Y-116992400D01*
X163541071Y-117202730D01*
X163216215Y-117688911D01*
X163102141Y-118262400D01*
X163216215Y-118835889D01*
X163541071Y-119322070D01*
X164027252Y-119646926D01*
X164600741Y-119761000D01*
X164659459Y-119761000D01*
X165232948Y-119646926D01*
X165719129Y-119322070D01*
X165900100Y-119051228D01*
X166081071Y-119322070D01*
X166567252Y-119646926D01*
X167140741Y-119761000D01*
X167199459Y-119761000D01*
X167772948Y-119646926D01*
X168259129Y-119322070D01*
X168583985Y-118835889D01*
X168698059Y-118262400D01*
X168583985Y-117688911D01*
X168259129Y-117202730D01*
X167944348Y-116992400D01*
X168259129Y-116782070D01*
X168583985Y-116295889D01*
X168698059Y-115722400D01*
X168583985Y-115148911D01*
X168259129Y-114662730D01*
X167944348Y-114452400D01*
X168259129Y-114242070D01*
X168583985Y-113755889D01*
X168698059Y-113182400D01*
X168583985Y-112608911D01*
X168259129Y-112122730D01*
X167944348Y-111912400D01*
X168259129Y-111702070D01*
X168583985Y-111215889D01*
X168698059Y-110642400D01*
X168583985Y-110068911D01*
X168259129Y-109582730D01*
X167944348Y-109372400D01*
X168259129Y-109162070D01*
X168583985Y-108675889D01*
X168698059Y-108102400D01*
X168583985Y-107528911D01*
X168259129Y-107042730D01*
X167944348Y-106832400D01*
X168259129Y-106622070D01*
X168583985Y-106135889D01*
X168698059Y-105562400D01*
X168583985Y-104988911D01*
X168259129Y-104502730D01*
X167944348Y-104292400D01*
X168259129Y-104082070D01*
X168583985Y-103595889D01*
X168698059Y-103022400D01*
X168583985Y-102448911D01*
X168259129Y-101962730D01*
X167944348Y-101752400D01*
X168259129Y-101542070D01*
X168583985Y-101055889D01*
X168698059Y-100482400D01*
X168621592Y-100097973D01*
X169362152Y-100097973D01*
X169482651Y-100330000D01*
X170690120Y-100330000D01*
X170690120Y-99123183D01*
X170944120Y-99123183D01*
X170944120Y-100330000D01*
X173230120Y-100330000D01*
X173230120Y-99123183D01*
X172998094Y-99002042D01*
X172582173Y-99174312D01*
X172150299Y-99568510D01*
X172087120Y-99703313D01*
X172023941Y-99568510D01*
X171592067Y-99174312D01*
X171176146Y-99002042D01*
X170944120Y-99123183D01*
X170690120Y-99123183D01*
X170458094Y-99002042D01*
X170042173Y-99174312D01*
X169610299Y-99568510D01*
X169362152Y-100097973D01*
X168621592Y-100097973D01*
X168583985Y-99908911D01*
X168259129Y-99422730D01*
X167944348Y-99212400D01*
X168259129Y-99002070D01*
X168583985Y-98515889D01*
X168698059Y-97942400D01*
X168583985Y-97368911D01*
X168259129Y-96882730D01*
X167944348Y-96672400D01*
X168259129Y-96462070D01*
X168583985Y-95975889D01*
X168698059Y-95402400D01*
X168583985Y-94828911D01*
X168259129Y-94342730D01*
X167944348Y-94132400D01*
X168259129Y-93922070D01*
X168583985Y-93435889D01*
X168698059Y-92862400D01*
X168583985Y-92288911D01*
X168259129Y-91802730D01*
X167944348Y-91592400D01*
X168259129Y-91382070D01*
X168583985Y-90895889D01*
X168698059Y-90322400D01*
X168583985Y-89748911D01*
X168259129Y-89262730D01*
X167944348Y-89052400D01*
X168259129Y-88842070D01*
X168583985Y-88355889D01*
X168698059Y-87782400D01*
X168583985Y-87208911D01*
X168259129Y-86722730D01*
X167944348Y-86512400D01*
X168259129Y-86302070D01*
X168583985Y-85815889D01*
X168698059Y-85242400D01*
X168583985Y-84668911D01*
X168259129Y-84182730D01*
X167944348Y-83972400D01*
X168259129Y-83762070D01*
X168583985Y-83275889D01*
X168698059Y-82702400D01*
X168583985Y-82128911D01*
X168259129Y-81642730D01*
X167944348Y-81432400D01*
X168259129Y-81222070D01*
X168583985Y-80735889D01*
X168698059Y-80162400D01*
X168583985Y-79588911D01*
X168259129Y-79102730D01*
X167944348Y-78892400D01*
X168259129Y-78682070D01*
X168583985Y-78195889D01*
X168698059Y-77622400D01*
X168621592Y-77237973D01*
X169362152Y-77237973D01*
X169482651Y-77470000D01*
X170690120Y-77470000D01*
X170690120Y-76263183D01*
X170944120Y-76263183D01*
X170944120Y-77470000D01*
X173230120Y-77470000D01*
X173230120Y-76263183D01*
X172998094Y-76142042D01*
X172582173Y-76314312D01*
X172150299Y-76708510D01*
X172087120Y-76843313D01*
X172023941Y-76708510D01*
X171592067Y-76314312D01*
X171176146Y-76142042D01*
X170944120Y-76263183D01*
X170690120Y-76263183D01*
X170458094Y-76142042D01*
X170042173Y-76314312D01*
X169610299Y-76708510D01*
X169362152Y-77237973D01*
X168621592Y-77237973D01*
X168583985Y-77048911D01*
X168259129Y-76562730D01*
X167944348Y-76352400D01*
X168259129Y-76142070D01*
X168583985Y-75655889D01*
X168698059Y-75082400D01*
X168583985Y-74508911D01*
X168259129Y-74022730D01*
X167944348Y-73812400D01*
X168259129Y-73602070D01*
X168583985Y-73115889D01*
X168698059Y-72542400D01*
X168583985Y-71968911D01*
X168259129Y-71482730D01*
X167944348Y-71272400D01*
X168259129Y-71062070D01*
X168583985Y-70575889D01*
X168698059Y-70002400D01*
X168583985Y-69428911D01*
X168259129Y-68942730D01*
X167944348Y-68732400D01*
X168259129Y-68522070D01*
X168583985Y-68035889D01*
X168698059Y-67462400D01*
X168583985Y-66888911D01*
X168259129Y-66402730D01*
X167944348Y-66192400D01*
X168259129Y-65982070D01*
X168583985Y-65495889D01*
X168698059Y-64922400D01*
X168583985Y-64348911D01*
X168259129Y-63862730D01*
X167944348Y-63652400D01*
X168259129Y-63442070D01*
X168583985Y-62955889D01*
X168698059Y-62382400D01*
X168583985Y-61808911D01*
X168259129Y-61322730D01*
X167772948Y-60997874D01*
X167199459Y-60883800D01*
X167140741Y-60883800D01*
X166567252Y-60997874D01*
X166101658Y-61308974D01*
X166096862Y-61283483D01*
X165957790Y-61067359D01*
X165745590Y-60922369D01*
X165493700Y-60871360D01*
X163766500Y-60871360D01*
X163531183Y-60915638D01*
X163315059Y-61054710D01*
X163170069Y-61266910D01*
X163119060Y-61518800D01*
X163119060Y-63246000D01*
X163163338Y-63481317D01*
X163302410Y-63697441D01*
X163514610Y-63842431D01*
X163558231Y-63851264D01*
X163541071Y-63862730D01*
X163216215Y-64348911D01*
X163102141Y-64922400D01*
X153206484Y-64922400D01*
X153443590Y-64875237D01*
X153650011Y-64737311D01*
X153787937Y-64530890D01*
X153836370Y-64287400D01*
X153836370Y-61449967D01*
X155752358Y-61449967D01*
X155894403Y-61793743D01*
X156157193Y-62056992D01*
X156500721Y-62199638D01*
X156872687Y-62199962D01*
X157077907Y-62115167D01*
X158904838Y-62115167D01*
X159046883Y-62458943D01*
X159309673Y-62722192D01*
X159653201Y-62864838D01*
X160025167Y-62865162D01*
X160368943Y-62723117D01*
X160632192Y-62460327D01*
X160774838Y-62116799D01*
X160775162Y-61744833D01*
X160633117Y-61401057D01*
X160370327Y-61137808D01*
X160026799Y-60995162D01*
X159654833Y-60994838D01*
X159311057Y-61136883D01*
X159047808Y-61399673D01*
X158905162Y-61743201D01*
X158904838Y-62115167D01*
X157077907Y-62115167D01*
X157216463Y-62057917D01*
X157479712Y-61795127D01*
X157622358Y-61451599D01*
X157622682Y-61079633D01*
X157480637Y-60735857D01*
X157217847Y-60472608D01*
X156874319Y-60329962D01*
X156502353Y-60329638D01*
X156158577Y-60471683D01*
X155895328Y-60734473D01*
X155752682Y-61078001D01*
X155752358Y-61449967D01*
X153836370Y-61449967D01*
X153836370Y-59047127D01*
X156026678Y-59047127D01*
X156168723Y-59390903D01*
X156431513Y-59654152D01*
X156775041Y-59796798D01*
X157147007Y-59797122D01*
X157490783Y-59655077D01*
X157754032Y-59392287D01*
X157896678Y-59048759D01*
X157896705Y-59016647D01*
X163326638Y-59016647D01*
X163468683Y-59360423D01*
X163731473Y-59623672D01*
X164075001Y-59766318D01*
X164446967Y-59766642D01*
X164790743Y-59624597D01*
X164920399Y-59495167D01*
X165624838Y-59495167D01*
X165766883Y-59838943D01*
X166029673Y-60102192D01*
X166373201Y-60244838D01*
X166745167Y-60245162D01*
X167088943Y-60103117D01*
X167352192Y-59840327D01*
X167494838Y-59496799D01*
X167495162Y-59124833D01*
X167353117Y-58781057D01*
X167090327Y-58517808D01*
X166746799Y-58375162D01*
X166374833Y-58374838D01*
X166031057Y-58516883D01*
X165767808Y-58779673D01*
X165625162Y-59123201D01*
X165624838Y-59495167D01*
X164920399Y-59495167D01*
X165053992Y-59361807D01*
X165196638Y-59018279D01*
X165196962Y-58646313D01*
X165054917Y-58302537D01*
X164792127Y-58039288D01*
X164448599Y-57896642D01*
X164076633Y-57896318D01*
X163732857Y-58038363D01*
X163469608Y-58301153D01*
X163326962Y-58644681D01*
X163326638Y-59016647D01*
X157896705Y-59016647D01*
X157897002Y-58676793D01*
X157754957Y-58333017D01*
X157492167Y-58069768D01*
X157148639Y-57927122D01*
X156776673Y-57926798D01*
X156432897Y-58068843D01*
X156169648Y-58331633D01*
X156027002Y-58675161D01*
X156026678Y-59047127D01*
X153836370Y-59047127D01*
X153836370Y-56785167D01*
X168014838Y-56785167D01*
X168156883Y-57128943D01*
X168419673Y-57392192D01*
X168763201Y-57534838D01*
X169135167Y-57535162D01*
X169478943Y-57393117D01*
X169742192Y-57130327D01*
X169884838Y-56786799D01*
X169885162Y-56414833D01*
X169743117Y-56071057D01*
X169480327Y-55807808D01*
X169136799Y-55665162D01*
X168764833Y-55664838D01*
X168421057Y-55806883D01*
X168157808Y-56069673D01*
X168015162Y-56413201D01*
X168014838Y-56785167D01*
X153836370Y-56785167D01*
X153836370Y-56338803D01*
X153850542Y-56373102D01*
X154113332Y-56636351D01*
X154456860Y-56778997D01*
X154828826Y-56779321D01*
X155172602Y-56637276D01*
X155435851Y-56374486D01*
X155578497Y-56030958D01*
X155578821Y-55658992D01*
X155436776Y-55315216D01*
X155173986Y-55051967D01*
X154830458Y-54909321D01*
X154458492Y-54908997D01*
X154114716Y-55051042D01*
X153851467Y-55313832D01*
X153836370Y-55350189D01*
X153836370Y-50318670D01*
X160089197Y-50318670D01*
X159867808Y-50539673D01*
X159725162Y-50883201D01*
X159724838Y-51255167D01*
X159866883Y-51598943D01*
X160129673Y-51862192D01*
X160473201Y-52004838D01*
X160845167Y-52005162D01*
X161188943Y-51863117D01*
X161452192Y-51600327D01*
X161594838Y-51256799D01*
X161595162Y-50884833D01*
X161453117Y-50541057D01*
X161231118Y-50318670D01*
X174438830Y-50318670D01*
X174438830Y-76594313D01*
X174132067Y-76314312D01*
X173716146Y-76142042D01*
X173484120Y-76263183D01*
X173484120Y-77470000D01*
X173504120Y-77470000D01*
X173504120Y-77724000D01*
X173484120Y-77724000D01*
X173484120Y-77744000D01*
X173230120Y-77744000D01*
X173230120Y-77724000D01*
X170944120Y-77724000D01*
X170944120Y-77744000D01*
X170690120Y-77744000D01*
X170690120Y-77724000D01*
X169482651Y-77724000D01*
X169362152Y-77956027D01*
X169610299Y-78485490D01*
X170028281Y-78867008D01*
X169757450Y-79047971D01*
X169432594Y-79534152D01*
X169318520Y-80107641D01*
X169318520Y-80166359D01*
X169432594Y-80739848D01*
X169757450Y-81226029D01*
X170028292Y-81407000D01*
X169757450Y-81587971D01*
X169432594Y-82074152D01*
X169318520Y-82647641D01*
X169318520Y-82706359D01*
X169432594Y-83279848D01*
X169757450Y-83766029D01*
X170028292Y-83947000D01*
X169757450Y-84127971D01*
X169432594Y-84614152D01*
X169318520Y-85187641D01*
X169318520Y-85246359D01*
X169432594Y-85819848D01*
X169757450Y-86306029D01*
X170028292Y-86487000D01*
X169757450Y-86667971D01*
X169432594Y-87154152D01*
X169318520Y-87727641D01*
X169318520Y-87786359D01*
X169432594Y-88359848D01*
X169743694Y-88825442D01*
X169718203Y-88830238D01*
X169502079Y-88969310D01*
X169357089Y-89181510D01*
X169306080Y-89433400D01*
X169306080Y-91160600D01*
X169350358Y-91395917D01*
X169489430Y-91612041D01*
X169701630Y-91757031D01*
X169953520Y-91808040D01*
X171680720Y-91808040D01*
X171916037Y-91763762D01*
X172132161Y-91624690D01*
X172277151Y-91412490D01*
X172285984Y-91368869D01*
X172297450Y-91386029D01*
X172783631Y-91710885D01*
X173357120Y-91824959D01*
X173930609Y-91710885D01*
X174416790Y-91386029D01*
X174438830Y-91353044D01*
X174438830Y-99454313D01*
X174132067Y-99174312D01*
X173716146Y-99002042D01*
X173484120Y-99123183D01*
X173484120Y-100330000D01*
X173504120Y-100330000D01*
X173504120Y-100584000D01*
X173484120Y-100584000D01*
X173484120Y-100604000D01*
X173230120Y-100604000D01*
X173230120Y-100584000D01*
X170944120Y-100584000D01*
X170944120Y-100604000D01*
X170690120Y-100604000D01*
X170690120Y-100584000D01*
X169482651Y-100584000D01*
X169362152Y-100816027D01*
X169610299Y-101345490D01*
X170028281Y-101727008D01*
X169757450Y-101907971D01*
X169432594Y-102394152D01*
X169318520Y-102967641D01*
X169318520Y-103026359D01*
X169432594Y-103599848D01*
X169757450Y-104086029D01*
X170028292Y-104267000D01*
X169757450Y-104447971D01*
X169432594Y-104934152D01*
X169318520Y-105507641D01*
X169318520Y-105566359D01*
X169432594Y-106139848D01*
X169757450Y-106626029D01*
X170028292Y-106807000D01*
X169757450Y-106987971D01*
X169432594Y-107474152D01*
X169318520Y-108047641D01*
X169318520Y-108106359D01*
X169432594Y-108679848D01*
X169757450Y-109166029D01*
X170028292Y-109347000D01*
X169757450Y-109527971D01*
X169432594Y-110014152D01*
X169318520Y-110587641D01*
X169318520Y-110646359D01*
X169432594Y-111219848D01*
X169743694Y-111685442D01*
X169718203Y-111690238D01*
X169502079Y-111829310D01*
X169357089Y-112041510D01*
X169306080Y-112293400D01*
X169306080Y-114020600D01*
X169350358Y-114255917D01*
X169489430Y-114472041D01*
X169701630Y-114617031D01*
X169953520Y-114668040D01*
X171680720Y-114668040D01*
X171916037Y-114623762D01*
X172132161Y-114484690D01*
X172277151Y-114272490D01*
X172285984Y-114228869D01*
X172297450Y-114246029D01*
X172783631Y-114570885D01*
X173357120Y-114684959D01*
X173930609Y-114570885D01*
X174416790Y-114246029D01*
X174438830Y-114213044D01*
X174438830Y-119794733D01*
X173509017Y-124469219D01*
X170896631Y-128378931D01*
X166986919Y-130991317D01*
X162312434Y-131921130D01*
X120227767Y-131921130D01*
X115553281Y-130991317D01*
X111643569Y-128378931D01*
X109356882Y-124956661D01*
X117334758Y-124956661D01*
X117546990Y-125470303D01*
X117939630Y-125863629D01*
X118452900Y-126076757D01*
X119008661Y-126077242D01*
X119522303Y-125865010D01*
X119732021Y-125655658D01*
X119939630Y-125863629D01*
X120452900Y-126076757D01*
X121008661Y-126077242D01*
X121522303Y-125865010D01*
X121727457Y-125660213D01*
X121931392Y-125660213D01*
X122000857Y-125902397D01*
X122524302Y-126089144D01*
X123079368Y-126061362D01*
X123463143Y-125902397D01*
X123532608Y-125660213D01*
X122732000Y-124859605D01*
X121931392Y-125660213D01*
X121727457Y-125660213D01*
X121915629Y-125472370D01*
X122026122Y-125206273D01*
X122552395Y-124680000D01*
X122911605Y-124680000D01*
X123437907Y-125206302D01*
X123546990Y-125470303D01*
X123939630Y-125863629D01*
X124452900Y-126076757D01*
X125008661Y-126077242D01*
X125522303Y-125865010D01*
X125915629Y-125472370D01*
X126128757Y-124959100D01*
X126128759Y-124956661D01*
X130415758Y-124956661D01*
X130627990Y-125470303D01*
X131020630Y-125863629D01*
X131533900Y-126076757D01*
X132089661Y-126077242D01*
X132603303Y-125865010D01*
X132813021Y-125655658D01*
X133020630Y-125863629D01*
X133533900Y-126076757D01*
X134089661Y-126077242D01*
X134603303Y-125865010D01*
X134808457Y-125660213D01*
X135012392Y-125660213D01*
X135081857Y-125902397D01*
X135605302Y-126089144D01*
X136160368Y-126061362D01*
X136544143Y-125902397D01*
X136613608Y-125660213D01*
X135813000Y-124859605D01*
X135012392Y-125660213D01*
X134808457Y-125660213D01*
X134996629Y-125472370D01*
X135107122Y-125206273D01*
X135633395Y-124680000D01*
X135992605Y-124680000D01*
X136518907Y-125206302D01*
X136627990Y-125470303D01*
X137020630Y-125863629D01*
X137533900Y-126076757D01*
X138089661Y-126077242D01*
X138603303Y-125865010D01*
X138996629Y-125472370D01*
X139209757Y-124959100D01*
X139209759Y-124956661D01*
X143496758Y-124956661D01*
X143708990Y-125470303D01*
X144101630Y-125863629D01*
X144614900Y-126076757D01*
X145170661Y-126077242D01*
X145684303Y-125865010D01*
X145894021Y-125655658D01*
X146101630Y-125863629D01*
X146614900Y-126076757D01*
X147170661Y-126077242D01*
X147684303Y-125865010D01*
X147889457Y-125660213D01*
X148093392Y-125660213D01*
X148162857Y-125902397D01*
X148686302Y-126089144D01*
X149241368Y-126061362D01*
X149625143Y-125902397D01*
X149694608Y-125660213D01*
X148894000Y-124859605D01*
X148093392Y-125660213D01*
X147889457Y-125660213D01*
X148077629Y-125472370D01*
X148188122Y-125206273D01*
X148714395Y-124680000D01*
X149073605Y-124680000D01*
X149599907Y-125206302D01*
X149708990Y-125470303D01*
X150101630Y-125863629D01*
X150614900Y-126076757D01*
X151170661Y-126077242D01*
X151684303Y-125865010D01*
X152077629Y-125472370D01*
X152290757Y-124959100D01*
X152290759Y-124956661D01*
X156577758Y-124956661D01*
X156789990Y-125470303D01*
X157182630Y-125863629D01*
X157695900Y-126076757D01*
X158251661Y-126077242D01*
X158765303Y-125865010D01*
X158975021Y-125655658D01*
X159182630Y-125863629D01*
X159695900Y-126076757D01*
X160251661Y-126077242D01*
X160765303Y-125865010D01*
X160970457Y-125660213D01*
X161174392Y-125660213D01*
X161243857Y-125902397D01*
X161767302Y-126089144D01*
X162322368Y-126061362D01*
X162706143Y-125902397D01*
X162775608Y-125660213D01*
X161975000Y-124859605D01*
X161174392Y-125660213D01*
X160970457Y-125660213D01*
X161158629Y-125472370D01*
X161269122Y-125206273D01*
X161795395Y-124680000D01*
X162154605Y-124680000D01*
X162680907Y-125206302D01*
X162789990Y-125470303D01*
X163182630Y-125863629D01*
X163695900Y-126076757D01*
X164251661Y-126077242D01*
X164765303Y-125865010D01*
X165158629Y-125472370D01*
X165371757Y-124959100D01*
X165372242Y-124403339D01*
X165160010Y-123889697D01*
X164767370Y-123496371D01*
X164254100Y-123283243D01*
X163698339Y-123282758D01*
X163184697Y-123494990D01*
X162791371Y-123887630D01*
X162680878Y-124153727D01*
X162154605Y-124680000D01*
X161795395Y-124680000D01*
X161269093Y-124153698D01*
X161160010Y-123889697D01*
X160970432Y-123699787D01*
X161174392Y-123699787D01*
X161975000Y-124500395D01*
X162775608Y-123699787D01*
X162706143Y-123457603D01*
X162182698Y-123270856D01*
X161627632Y-123298638D01*
X161243857Y-123457603D01*
X161174392Y-123699787D01*
X160970432Y-123699787D01*
X160767370Y-123496371D01*
X160254100Y-123283243D01*
X159698339Y-123282758D01*
X159184697Y-123494990D01*
X158974979Y-123704342D01*
X158767370Y-123496371D01*
X158254100Y-123283243D01*
X157698339Y-123282758D01*
X157184697Y-123494990D01*
X156791371Y-123887630D01*
X156578243Y-124400900D01*
X156577758Y-124956661D01*
X152290759Y-124956661D01*
X152291242Y-124403339D01*
X152079010Y-123889697D01*
X151686370Y-123496371D01*
X151173100Y-123283243D01*
X150617339Y-123282758D01*
X150103697Y-123494990D01*
X149710371Y-123887630D01*
X149599878Y-124153727D01*
X149073605Y-124680000D01*
X148714395Y-124680000D01*
X148188093Y-124153698D01*
X148079010Y-123889697D01*
X147889432Y-123699787D01*
X148093392Y-123699787D01*
X148894000Y-124500395D01*
X149694608Y-123699787D01*
X149625143Y-123457603D01*
X149101698Y-123270856D01*
X148546632Y-123298638D01*
X148162857Y-123457603D01*
X148093392Y-123699787D01*
X147889432Y-123699787D01*
X147686370Y-123496371D01*
X147173100Y-123283243D01*
X146617339Y-123282758D01*
X146103697Y-123494990D01*
X145893979Y-123704342D01*
X145686370Y-123496371D01*
X145173100Y-123283243D01*
X144617339Y-123282758D01*
X144103697Y-123494990D01*
X143710371Y-123887630D01*
X143497243Y-124400900D01*
X143496758Y-124956661D01*
X139209759Y-124956661D01*
X139210242Y-124403339D01*
X138998010Y-123889697D01*
X138605370Y-123496371D01*
X138092100Y-123283243D01*
X137536339Y-123282758D01*
X137022697Y-123494990D01*
X136629371Y-123887630D01*
X136518878Y-124153727D01*
X135992605Y-124680000D01*
X135633395Y-124680000D01*
X135107093Y-124153698D01*
X134998010Y-123889697D01*
X134808432Y-123699787D01*
X135012392Y-123699787D01*
X135813000Y-124500395D01*
X136613608Y-123699787D01*
X136544143Y-123457603D01*
X136020698Y-123270856D01*
X135465632Y-123298638D01*
X135081857Y-123457603D01*
X135012392Y-123699787D01*
X134808432Y-123699787D01*
X134605370Y-123496371D01*
X134092100Y-123283243D01*
X133536339Y-123282758D01*
X133022697Y-123494990D01*
X132812979Y-123704342D01*
X132605370Y-123496371D01*
X132092100Y-123283243D01*
X131536339Y-123282758D01*
X131022697Y-123494990D01*
X130629371Y-123887630D01*
X130416243Y-124400900D01*
X130415758Y-124956661D01*
X126128759Y-124956661D01*
X126129242Y-124403339D01*
X125917010Y-123889697D01*
X125524370Y-123496371D01*
X125011100Y-123283243D01*
X124455339Y-123282758D01*
X123941697Y-123494990D01*
X123548371Y-123887630D01*
X123437878Y-124153727D01*
X122911605Y-124680000D01*
X122552395Y-124680000D01*
X122026093Y-124153698D01*
X121917010Y-123889697D01*
X121727432Y-123699787D01*
X121931392Y-123699787D01*
X122732000Y-124500395D01*
X123532608Y-123699787D01*
X123463143Y-123457603D01*
X122939698Y-123270856D01*
X122384632Y-123298638D01*
X122000857Y-123457603D01*
X121931392Y-123699787D01*
X121727432Y-123699787D01*
X121524370Y-123496371D01*
X121011100Y-123283243D01*
X120455339Y-123282758D01*
X119941697Y-123494990D01*
X119731979Y-123704342D01*
X119524370Y-123496371D01*
X119011100Y-123283243D01*
X118455339Y-123282758D01*
X117941697Y-123494990D01*
X117548371Y-123887630D01*
X117335243Y-124400900D01*
X117334758Y-124956661D01*
X109356882Y-124956661D01*
X109031183Y-124469219D01*
X108101370Y-119794734D01*
X108101370Y-114073850D01*
X108502173Y-114439688D01*
X108918094Y-114611958D01*
X109150120Y-114490817D01*
X109150120Y-113284000D01*
X109404120Y-113284000D01*
X109404120Y-114490817D01*
X109636146Y-114611958D01*
X110052067Y-114439688D01*
X110483941Y-114045490D01*
X110547120Y-113910687D01*
X110610299Y-114045490D01*
X111042173Y-114439688D01*
X111458094Y-114611958D01*
X111690120Y-114490817D01*
X111690120Y-113284000D01*
X111944120Y-113284000D01*
X111944120Y-114490817D01*
X112176146Y-114611958D01*
X112592067Y-114439688D01*
X113023941Y-114045490D01*
X113272088Y-113516027D01*
X113151589Y-113284000D01*
X111944120Y-113284000D01*
X111690120Y-113284000D01*
X109404120Y-113284000D01*
X109150120Y-113284000D01*
X109130120Y-113284000D01*
X109130120Y-113030000D01*
X109150120Y-113030000D01*
X109150120Y-113010000D01*
X109404120Y-113010000D01*
X109404120Y-113030000D01*
X111690120Y-113030000D01*
X111690120Y-113010000D01*
X111944120Y-113010000D01*
X111944120Y-113030000D01*
X113151589Y-113030000D01*
X113272088Y-112797973D01*
X113023941Y-112268510D01*
X112605959Y-111886992D01*
X112876790Y-111706029D01*
X113201646Y-111219848D01*
X113315720Y-110646359D01*
X113315720Y-110587641D01*
X113201646Y-110014152D01*
X112876790Y-109527971D01*
X112605948Y-109347000D01*
X112876790Y-109166029D01*
X113201646Y-108679848D01*
X113315720Y-108106359D01*
X113315720Y-108047641D01*
X113201646Y-107474152D01*
X112876790Y-106987971D01*
X112605948Y-106807000D01*
X112876790Y-106626029D01*
X113201646Y-106139848D01*
X113315720Y-105566359D01*
X113315720Y-105507641D01*
X113201646Y-104934152D01*
X112876790Y-104447971D01*
X112605948Y-104267000D01*
X112876790Y-104086029D01*
X113201646Y-103599848D01*
X113315720Y-103026359D01*
X113315720Y-102967641D01*
X113201646Y-102394152D01*
X112890546Y-101928558D01*
X112916037Y-101923762D01*
X113132161Y-101784690D01*
X113277151Y-101572490D01*
X113328160Y-101320600D01*
X113328160Y-99593400D01*
X113283882Y-99358083D01*
X113144810Y-99141959D01*
X112932610Y-98996969D01*
X112680720Y-98945960D01*
X110953520Y-98945960D01*
X110718203Y-98990238D01*
X110502079Y-99129310D01*
X110357089Y-99341510D01*
X110348256Y-99385131D01*
X110336790Y-99367971D01*
X109850609Y-99043115D01*
X109277120Y-98929041D01*
X108703631Y-99043115D01*
X108217450Y-99367971D01*
X108101370Y-99541697D01*
X108101370Y-91213850D01*
X108502173Y-91579688D01*
X108918094Y-91751958D01*
X109150120Y-91630817D01*
X109150120Y-90424000D01*
X109404120Y-90424000D01*
X109404120Y-91630817D01*
X109636146Y-91751958D01*
X110052067Y-91579688D01*
X110483941Y-91185490D01*
X110547120Y-91050687D01*
X110610299Y-91185490D01*
X111042173Y-91579688D01*
X111458094Y-91751958D01*
X111690120Y-91630817D01*
X111690120Y-90424000D01*
X111944120Y-90424000D01*
X111944120Y-91630817D01*
X112176146Y-91751958D01*
X112592067Y-91579688D01*
X113023941Y-91185490D01*
X113272088Y-90656027D01*
X113151589Y-90424000D01*
X111944120Y-90424000D01*
X111690120Y-90424000D01*
X109404120Y-90424000D01*
X109150120Y-90424000D01*
X109130120Y-90424000D01*
X109130120Y-90170000D01*
X109150120Y-90170000D01*
X109150120Y-90150000D01*
X109404120Y-90150000D01*
X109404120Y-90170000D01*
X111690120Y-90170000D01*
X111690120Y-90150000D01*
X111944120Y-90150000D01*
X111944120Y-90170000D01*
X113151589Y-90170000D01*
X113272088Y-89937973D01*
X113023941Y-89408510D01*
X112605959Y-89026992D01*
X112876790Y-88846029D01*
X113201646Y-88359848D01*
X113315720Y-87786359D01*
X113315720Y-87727641D01*
X113201646Y-87154152D01*
X112876790Y-86667971D01*
X112605948Y-86487000D01*
X112876790Y-86306029D01*
X113201646Y-85819848D01*
X113315720Y-85246359D01*
X113315720Y-85187641D01*
X113201646Y-84614152D01*
X112876790Y-84127971D01*
X112605948Y-83947000D01*
X112876790Y-83766029D01*
X113201646Y-83279848D01*
X113315720Y-82706359D01*
X113315720Y-82647641D01*
X113201646Y-82074152D01*
X112876790Y-81587971D01*
X112605948Y-81407000D01*
X112876790Y-81226029D01*
X113201646Y-80739848D01*
X113315720Y-80166359D01*
X113315720Y-80107641D01*
X113201646Y-79534152D01*
X112890546Y-79068558D01*
X112916037Y-79063762D01*
X113132161Y-78924690D01*
X113277151Y-78712490D01*
X113328160Y-78460600D01*
X113328160Y-76733400D01*
X113283882Y-76498083D01*
X113144810Y-76281959D01*
X112932610Y-76136969D01*
X112680720Y-76085960D01*
X110953520Y-76085960D01*
X110718203Y-76130238D01*
X110502079Y-76269310D01*
X110357089Y-76481510D01*
X110348256Y-76525131D01*
X110336790Y-76507971D01*
X109850609Y-76183115D01*
X109277120Y-76069041D01*
X108703631Y-76183115D01*
X108217450Y-76507971D01*
X108101370Y-76681697D01*
X108101370Y-64269367D01*
X108830938Y-64269367D01*
X108972983Y-64613143D01*
X109235773Y-64876392D01*
X109579301Y-65019038D01*
X109951267Y-65019362D01*
X110295043Y-64877317D01*
X110558292Y-64614527D01*
X110691068Y-64294767D01*
X111370938Y-64294767D01*
X111512983Y-64638543D01*
X111775773Y-64901792D01*
X112119301Y-65044438D01*
X112491267Y-65044762D01*
X112787406Y-64922400D01*
X114842141Y-64922400D01*
X114956215Y-65495889D01*
X115281071Y-65982070D01*
X115595852Y-66192400D01*
X115281071Y-66402730D01*
X114956215Y-66888911D01*
X114842141Y-67462400D01*
X114956215Y-68035889D01*
X115281071Y-68522070D01*
X115595852Y-68732400D01*
X115281071Y-68942730D01*
X114956215Y-69428911D01*
X114842141Y-70002400D01*
X114956215Y-70575889D01*
X115281071Y-71062070D01*
X115595852Y-71272400D01*
X115281071Y-71482730D01*
X114956215Y-71968911D01*
X114842141Y-72542400D01*
X114956215Y-73115889D01*
X115281071Y-73602070D01*
X115595852Y-73812400D01*
X115281071Y-74022730D01*
X114956215Y-74508911D01*
X114842141Y-75082400D01*
X114956215Y-75655889D01*
X115281071Y-76142070D01*
X115595852Y-76352400D01*
X115281071Y-76562730D01*
X114956215Y-77048911D01*
X114842141Y-77622400D01*
X114956215Y-78195889D01*
X115281071Y-78682070D01*
X115595852Y-78892400D01*
X115281071Y-79102730D01*
X114956215Y-79588911D01*
X114842141Y-80162400D01*
X114956215Y-80735889D01*
X115281071Y-81222070D01*
X115595852Y-81432400D01*
X115281071Y-81642730D01*
X114956215Y-82128911D01*
X114842141Y-82702400D01*
X114956215Y-83275889D01*
X115281071Y-83762070D01*
X115595852Y-83972400D01*
X115281071Y-84182730D01*
X114956215Y-84668911D01*
X114842141Y-85242400D01*
X114956215Y-85815889D01*
X115281071Y-86302070D01*
X115595852Y-86512400D01*
X115281071Y-86722730D01*
X114956215Y-87208911D01*
X114842141Y-87782400D01*
X114956215Y-88355889D01*
X115281071Y-88842070D01*
X115595852Y-89052400D01*
X115281071Y-89262730D01*
X114956215Y-89748911D01*
X114842141Y-90322400D01*
X114956215Y-90895889D01*
X115281071Y-91382070D01*
X115595852Y-91592400D01*
X115281071Y-91802730D01*
X114956215Y-92288911D01*
X114842141Y-92862400D01*
X114956215Y-93435889D01*
X115281071Y-93922070D01*
X115595852Y-94132400D01*
X115281071Y-94342730D01*
X114956215Y-94828911D01*
X114842141Y-95402400D01*
X114956215Y-95975889D01*
X115281071Y-96462070D01*
X115595852Y-96672400D01*
X115281071Y-96882730D01*
X114956215Y-97368911D01*
X114842141Y-97942400D01*
X114956215Y-98515889D01*
X115281071Y-99002070D01*
X115595852Y-99212400D01*
X115281071Y-99422730D01*
X114956215Y-99908911D01*
X114842141Y-100482400D01*
X114956215Y-101055889D01*
X115281071Y-101542070D01*
X115595852Y-101752400D01*
X115281071Y-101962730D01*
X114956215Y-102448911D01*
X114842141Y-103022400D01*
X114956215Y-103595889D01*
X115281071Y-104082070D01*
X115595852Y-104292400D01*
X115281071Y-104502730D01*
X114956215Y-104988911D01*
X114842141Y-105562400D01*
X114956215Y-106135889D01*
X115281071Y-106622070D01*
X115595852Y-106832400D01*
X115281071Y-107042730D01*
X114956215Y-107528911D01*
X114842141Y-108102400D01*
X114956215Y-108675889D01*
X115281071Y-109162070D01*
X115595852Y-109372400D01*
X115281071Y-109582730D01*
X114956215Y-110068911D01*
X114842141Y-110642400D01*
X114956215Y-111215889D01*
X115281071Y-111702070D01*
X115595852Y-111912400D01*
X115281071Y-112122730D01*
X114956215Y-112608911D01*
X114842141Y-113182400D01*
X114956215Y-113755889D01*
X115281071Y-114242070D01*
X115595852Y-114452400D01*
X115281071Y-114662730D01*
X114956215Y-115148911D01*
X114842141Y-115722400D01*
X114956215Y-116295889D01*
X115281071Y-116782070D01*
X115595852Y-116992400D01*
X115281071Y-117202730D01*
X114956215Y-117688911D01*
X114842141Y-118262400D01*
X114956215Y-118835889D01*
X115281071Y-119322070D01*
X115767252Y-119646926D01*
X116340741Y-119761000D01*
X116399459Y-119761000D01*
X116972948Y-119646926D01*
X117459129Y-119322070D01*
X117640100Y-119051228D01*
X117821071Y-119322070D01*
X118307252Y-119646926D01*
X118880741Y-119761000D01*
X118939459Y-119761000D01*
X119512948Y-119646926D01*
X119999129Y-119322070D01*
X120323985Y-118835889D01*
X120438059Y-118262400D01*
X120323985Y-117688911D01*
X119999129Y-117202730D01*
X119684348Y-116992400D01*
X119999129Y-116782070D01*
X120323985Y-116295889D01*
X120365860Y-116085367D01*
X137113838Y-116085367D01*
X137255883Y-116429143D01*
X137518673Y-116692392D01*
X137550007Y-116705403D01*
X137545457Y-116707283D01*
X137282208Y-116970073D01*
X137139562Y-117313601D01*
X137139238Y-117685567D01*
X137281283Y-118029343D01*
X137544073Y-118292592D01*
X137887601Y-118435238D01*
X138259567Y-118435562D01*
X138603343Y-118293517D01*
X138866592Y-118030727D01*
X139009238Y-117687199D01*
X139009562Y-117315233D01*
X138867517Y-116971457D01*
X138604727Y-116708208D01*
X138573393Y-116695197D01*
X138577943Y-116693317D01*
X138841192Y-116430527D01*
X138983838Y-116086999D01*
X138983994Y-115907567D01*
X153496838Y-115907567D01*
X153638883Y-116251343D01*
X153901673Y-116514592D01*
X154165622Y-116624194D01*
X153903057Y-116732683D01*
X153639808Y-116995473D01*
X153497162Y-117339001D01*
X153496838Y-117710967D01*
X153638883Y-118054743D01*
X153901673Y-118317992D01*
X154245201Y-118460638D01*
X154617167Y-118460962D01*
X154960943Y-118318917D01*
X155224192Y-118056127D01*
X155366838Y-117712599D01*
X155367162Y-117340633D01*
X155225117Y-116996857D01*
X154962327Y-116733608D01*
X154698378Y-116624006D01*
X154960943Y-116515517D01*
X155224192Y-116252727D01*
X155366838Y-115909199D01*
X155367162Y-115537233D01*
X155225117Y-115193457D01*
X154962327Y-114930208D01*
X154618799Y-114787562D01*
X154246833Y-114787238D01*
X153903057Y-114929283D01*
X153639808Y-115192073D01*
X153497162Y-115535601D01*
X153496838Y-115907567D01*
X138983994Y-115907567D01*
X138984162Y-115715033D01*
X138842117Y-115371257D01*
X138579327Y-115108008D01*
X138235799Y-114965362D01*
X137863833Y-114965038D01*
X137520057Y-115107083D01*
X137256808Y-115369873D01*
X137114162Y-115713401D01*
X137113838Y-116085367D01*
X120365860Y-116085367D01*
X120438059Y-115722400D01*
X120323985Y-115148911D01*
X119999129Y-114662730D01*
X119684348Y-114452400D01*
X119999129Y-114242070D01*
X120323985Y-113755889D01*
X120396174Y-113392967D01*
X120908638Y-113392967D01*
X121050683Y-113736743D01*
X121313473Y-113999992D01*
X121657001Y-114142638D01*
X122028967Y-114142962D01*
X122372743Y-114000917D01*
X122635992Y-113738127D01*
X122663298Y-113672367D01*
X148239038Y-113672367D01*
X148381083Y-114016143D01*
X148643873Y-114279392D01*
X148987401Y-114422038D01*
X149359367Y-114422362D01*
X149703143Y-114280317D01*
X149966392Y-114017527D01*
X150109038Y-113673999D01*
X150109362Y-113302033D01*
X149967317Y-112958257D01*
X149704527Y-112695008D01*
X149360999Y-112552362D01*
X148989033Y-112552038D01*
X148645257Y-112694083D01*
X148382008Y-112956873D01*
X148239362Y-113300401D01*
X148239038Y-113672367D01*
X122663298Y-113672367D01*
X122778638Y-113394599D01*
X122778962Y-113022633D01*
X122636917Y-112678857D01*
X122576433Y-112618267D01*
X129900238Y-112618267D01*
X130042283Y-112962043D01*
X130305073Y-113225292D01*
X130648601Y-113367938D01*
X131020567Y-113368262D01*
X131364343Y-113226217D01*
X131627592Y-112963427D01*
X131770238Y-112619899D01*
X131770562Y-112247933D01*
X131628517Y-111904157D01*
X131365727Y-111640908D01*
X131022199Y-111498262D01*
X130650233Y-111497938D01*
X130306457Y-111639983D01*
X130043208Y-111902773D01*
X129900562Y-112246301D01*
X129900238Y-112618267D01*
X122576433Y-112618267D01*
X122374127Y-112415608D01*
X122030599Y-112272962D01*
X121658633Y-112272638D01*
X121314857Y-112414683D01*
X121051608Y-112677473D01*
X120908962Y-113021001D01*
X120908638Y-113392967D01*
X120396174Y-113392967D01*
X120438059Y-113182400D01*
X120323985Y-112608911D01*
X119999129Y-112122730D01*
X119684348Y-111912400D01*
X119999129Y-111702070D01*
X120323985Y-111215889D01*
X120346605Y-111102167D01*
X126557838Y-111102167D01*
X126699883Y-111445943D01*
X126962673Y-111709192D01*
X127306201Y-111851838D01*
X127678167Y-111852162D01*
X128021943Y-111710117D01*
X128285192Y-111447327D01*
X128363240Y-111259367D01*
X137113838Y-111259367D01*
X137255883Y-111603143D01*
X137518673Y-111866392D01*
X137862201Y-112009038D01*
X138234167Y-112009362D01*
X138577943Y-111867317D01*
X138841192Y-111604527D01*
X138983838Y-111260999D01*
X138983994Y-111081567D01*
X153471438Y-111081567D01*
X153613483Y-111425343D01*
X153876273Y-111688592D01*
X154219801Y-111831238D01*
X154591767Y-111831562D01*
X154935543Y-111689517D01*
X155198792Y-111426727D01*
X155341438Y-111083199D01*
X155341762Y-110711233D01*
X155199717Y-110367457D01*
X154936927Y-110104208D01*
X154593399Y-109961562D01*
X154221433Y-109961238D01*
X153877657Y-110103283D01*
X153614408Y-110366073D01*
X153471762Y-110709601D01*
X153471438Y-111081567D01*
X138983994Y-111081567D01*
X138984162Y-110889033D01*
X138842117Y-110545257D01*
X138579327Y-110282008D01*
X138235799Y-110139362D01*
X137863833Y-110139038D01*
X137520057Y-110281083D01*
X137256808Y-110543873D01*
X137114162Y-110887401D01*
X137113838Y-111259367D01*
X128363240Y-111259367D01*
X128427838Y-111103799D01*
X128428162Y-110731833D01*
X128286117Y-110388057D01*
X128023327Y-110124808D01*
X127679799Y-109982162D01*
X127307833Y-109981838D01*
X126964057Y-110123883D01*
X126700808Y-110386673D01*
X126558162Y-110730201D01*
X126557838Y-111102167D01*
X120346605Y-111102167D01*
X120438059Y-110642400D01*
X120323985Y-110068911D01*
X119999129Y-109582730D01*
X119684348Y-109372400D01*
X119999129Y-109162070D01*
X120323985Y-108675889D01*
X120346605Y-108562167D01*
X122431838Y-108562167D01*
X122573883Y-108905943D01*
X122836673Y-109169192D01*
X123180201Y-109311838D01*
X123230772Y-109311882D01*
X123093362Y-109642801D01*
X123093038Y-110014767D01*
X123235083Y-110358543D01*
X123497873Y-110621792D01*
X123841401Y-110764438D01*
X124213367Y-110764762D01*
X124557143Y-110622717D01*
X124820392Y-110359927D01*
X124963038Y-110016399D01*
X124963335Y-109675167D01*
X139214838Y-109675167D01*
X139356883Y-110018943D01*
X139619673Y-110282192D01*
X139963201Y-110424838D01*
X140335167Y-110425162D01*
X140678943Y-110283117D01*
X140942192Y-110020327D01*
X141084838Y-109676799D01*
X141085162Y-109304833D01*
X140943117Y-108961057D01*
X140853983Y-108871767D01*
X148213638Y-108871767D01*
X148355683Y-109215543D01*
X148618473Y-109478792D01*
X148962001Y-109621438D01*
X149333967Y-109621762D01*
X149677743Y-109479717D01*
X149940992Y-109216927D01*
X150083638Y-108873399D01*
X150083962Y-108501433D01*
X149941917Y-108157657D01*
X149679127Y-107894408D01*
X149335599Y-107751762D01*
X148963633Y-107751438D01*
X148619857Y-107893483D01*
X148356608Y-108156273D01*
X148213962Y-108499801D01*
X148213638Y-108871767D01*
X140853983Y-108871767D01*
X140680327Y-108697808D01*
X140336799Y-108555162D01*
X139964833Y-108554838D01*
X139621057Y-108696883D01*
X139357808Y-108959673D01*
X139215162Y-109303201D01*
X139214838Y-109675167D01*
X124963335Y-109675167D01*
X124963362Y-109644433D01*
X124821317Y-109300657D01*
X124558527Y-109037408D01*
X124214999Y-108894762D01*
X124164428Y-108894718D01*
X124301838Y-108563799D01*
X124302162Y-108191833D01*
X124160117Y-107848057D01*
X123897327Y-107584808D01*
X123571151Y-107449367D01*
X131602038Y-107449367D01*
X131744083Y-107793143D01*
X132006873Y-108056392D01*
X132350401Y-108199038D01*
X132722367Y-108199362D01*
X133066143Y-108057317D01*
X133329392Y-107794527D01*
X133472038Y-107450999D01*
X133472362Y-107079033D01*
X133330317Y-106735257D01*
X133067527Y-106472008D01*
X132723999Y-106329362D01*
X132352033Y-106329038D01*
X132008257Y-106471083D01*
X131745008Y-106733873D01*
X131602362Y-107077401D01*
X131602038Y-107449367D01*
X123571151Y-107449367D01*
X123553799Y-107442162D01*
X123181833Y-107441838D01*
X122838057Y-107583883D01*
X122574808Y-107846673D01*
X122432162Y-108190201D01*
X122431838Y-108562167D01*
X120346605Y-108562167D01*
X120438059Y-108102400D01*
X120323985Y-107528911D01*
X119999129Y-107042730D01*
X119684348Y-106832400D01*
X119999129Y-106622070D01*
X120323985Y-106135889D01*
X120438059Y-105562400D01*
X120323985Y-104988911D01*
X119999129Y-104502730D01*
X119684348Y-104292400D01*
X119999129Y-104082070D01*
X120323985Y-103595889D01*
X120375600Y-103336400D01*
X127048960Y-103336400D01*
X127048960Y-105063600D01*
X127093238Y-105298917D01*
X127232310Y-105515041D01*
X127444510Y-105660031D01*
X127696400Y-105711040D01*
X129423600Y-105711040D01*
X129658917Y-105666762D01*
X129875041Y-105527690D01*
X130020031Y-105315490D01*
X130071040Y-105063600D01*
X130071040Y-103336400D01*
X130678960Y-103336400D01*
X130678960Y-105063600D01*
X130723238Y-105298917D01*
X130862310Y-105515041D01*
X131074510Y-105660031D01*
X131326400Y-105711040D01*
X133053600Y-105711040D01*
X133288917Y-105666762D01*
X133505041Y-105527690D01*
X133650031Y-105315490D01*
X133701040Y-105063600D01*
X133701040Y-103336400D01*
X133656762Y-103101083D01*
X133517690Y-102884959D01*
X133305490Y-102739969D01*
X133261655Y-102731092D01*
X133432658Y-102475167D01*
X139174838Y-102475167D01*
X139316883Y-102818943D01*
X139579673Y-103082192D01*
X139603084Y-103091913D01*
X139591057Y-103096883D01*
X139327808Y-103359673D01*
X139185162Y-103703201D01*
X139184838Y-104075167D01*
X139326883Y-104418943D01*
X139589673Y-104682192D01*
X139647202Y-104706080D01*
X139621057Y-104716883D01*
X139357808Y-104979673D01*
X139215162Y-105323201D01*
X139214838Y-105695167D01*
X139356883Y-106038943D01*
X139610723Y-106293226D01*
X139601923Y-106296862D01*
X139338674Y-106559652D01*
X139196028Y-106903180D01*
X139195704Y-107275146D01*
X139337749Y-107618922D01*
X139600539Y-107882171D01*
X139944067Y-108024817D01*
X140316033Y-108025141D01*
X140659809Y-107883096D01*
X140923058Y-107620306D01*
X141065704Y-107276778D01*
X141065708Y-107271567D01*
X153471438Y-107271567D01*
X153613483Y-107615343D01*
X153876273Y-107878592D01*
X154219801Y-108021238D01*
X154591767Y-108021562D01*
X154935543Y-107879517D01*
X155198792Y-107616727D01*
X155341438Y-107273199D01*
X155341762Y-106901233D01*
X155199717Y-106557457D01*
X154936927Y-106294208D01*
X154593399Y-106151562D01*
X154221433Y-106151238D01*
X153877657Y-106293283D01*
X153614408Y-106556073D01*
X153471762Y-106899601D01*
X153471438Y-107271567D01*
X141065708Y-107271567D01*
X141066028Y-106904812D01*
X140923983Y-106561036D01*
X140670143Y-106306753D01*
X140678943Y-106303117D01*
X140942192Y-106040327D01*
X141084838Y-105696799D01*
X141084971Y-105544341D01*
X141208943Y-105493117D01*
X141472192Y-105230327D01*
X141614838Y-104886799D01*
X141615162Y-104514833D01*
X141473117Y-104171057D01*
X141210327Y-103907808D01*
X141135383Y-103876688D01*
X141392192Y-103620327D01*
X141534838Y-103276799D01*
X141535162Y-102904833D01*
X141393117Y-102561057D01*
X141130327Y-102297808D01*
X141045025Y-102262387D01*
X141045162Y-102104833D01*
X140938614Y-101846968D01*
X141068943Y-101793117D01*
X141332192Y-101530327D01*
X141474838Y-101186799D01*
X141475162Y-100814833D01*
X141333117Y-100471057D01*
X141070327Y-100207808D01*
X140726799Y-100065162D01*
X140354833Y-100064838D01*
X140011057Y-100206883D01*
X139747808Y-100469673D01*
X139605162Y-100813201D01*
X139604838Y-101185167D01*
X139711386Y-101443032D01*
X139581057Y-101496883D01*
X139317808Y-101759673D01*
X139175162Y-102103201D01*
X139174838Y-102475167D01*
X133432658Y-102475167D01*
X133574526Y-102262848D01*
X133688600Y-101689359D01*
X133688600Y-101630641D01*
X133574526Y-101057152D01*
X133452928Y-100875167D01*
X136814838Y-100875167D01*
X136956883Y-101218943D01*
X137219673Y-101482192D01*
X137563201Y-101624838D01*
X137935167Y-101625162D01*
X138278943Y-101483117D01*
X138542192Y-101220327D01*
X138684838Y-100876799D01*
X138685162Y-100504833D01*
X138543117Y-100161057D01*
X138280327Y-99897808D01*
X137936799Y-99755162D01*
X137564833Y-99754838D01*
X137221057Y-99896883D01*
X136957808Y-100159673D01*
X136815162Y-100503201D01*
X136814838Y-100875167D01*
X133452928Y-100875167D01*
X133249670Y-100570971D01*
X132763489Y-100246115D01*
X132190000Y-100132041D01*
X131616511Y-100246115D01*
X131130330Y-100570971D01*
X130805474Y-101057152D01*
X130691400Y-101630641D01*
X130691400Y-101689359D01*
X130805474Y-102262848D01*
X131116574Y-102728442D01*
X131091083Y-102733238D01*
X130874959Y-102872310D01*
X130729969Y-103084510D01*
X130678960Y-103336400D01*
X130071040Y-103336400D01*
X130026762Y-103101083D01*
X129887690Y-102884959D01*
X129675490Y-102739969D01*
X129631655Y-102731092D01*
X129944526Y-102262848D01*
X130058600Y-101689359D01*
X130058600Y-101630641D01*
X129944526Y-101057152D01*
X129619670Y-100570971D01*
X129133489Y-100246115D01*
X128560000Y-100132041D01*
X127986511Y-100246115D01*
X127500330Y-100570971D01*
X127175474Y-101057152D01*
X127061400Y-101630641D01*
X127061400Y-101689359D01*
X127175474Y-102262848D01*
X127486574Y-102728442D01*
X127461083Y-102733238D01*
X127244959Y-102872310D01*
X127099969Y-103084510D01*
X127048960Y-103336400D01*
X120375600Y-103336400D01*
X120438059Y-103022400D01*
X120323985Y-102448911D01*
X119999129Y-101962730D01*
X119684348Y-101752400D01*
X119999129Y-101542070D01*
X120287717Y-101110167D01*
X121761638Y-101110167D01*
X121903683Y-101453943D01*
X122166473Y-101717192D01*
X122510001Y-101859838D01*
X122881967Y-101860162D01*
X123225743Y-101718117D01*
X123488992Y-101455327D01*
X123515509Y-101391467D01*
X124121738Y-101391467D01*
X124263783Y-101735243D01*
X124526573Y-101998492D01*
X124870101Y-102141138D01*
X125242067Y-102141462D01*
X125585843Y-101999417D01*
X125849092Y-101736627D01*
X125991738Y-101393099D01*
X125992062Y-101021133D01*
X125850017Y-100677357D01*
X125587227Y-100414108D01*
X125243699Y-100271462D01*
X124871733Y-100271138D01*
X124527957Y-100413183D01*
X124264708Y-100675973D01*
X124122062Y-101019501D01*
X124121738Y-101391467D01*
X123515509Y-101391467D01*
X123631638Y-101111799D01*
X123631962Y-100739833D01*
X123489917Y-100396057D01*
X123227127Y-100132808D01*
X122883599Y-99990162D01*
X122511633Y-99989838D01*
X122167857Y-100131883D01*
X121904608Y-100394673D01*
X121761962Y-100738201D01*
X121761638Y-101110167D01*
X120287717Y-101110167D01*
X120323985Y-101055889D01*
X120438059Y-100482400D01*
X120323985Y-99908911D01*
X119999129Y-99422730D01*
X119684348Y-99212400D01*
X119999129Y-99002070D01*
X120323985Y-98515889D01*
X120438059Y-97942400D01*
X120397982Y-97740919D01*
X136863008Y-97740919D01*
X137005053Y-98084695D01*
X137267843Y-98347944D01*
X137611371Y-98490590D01*
X137983337Y-98490914D01*
X138069851Y-98455167D01*
X139184838Y-98455167D01*
X139326883Y-98798943D01*
X139589673Y-99062192D01*
X139933201Y-99204838D01*
X140305167Y-99205162D01*
X140648943Y-99063117D01*
X140912192Y-98800327D01*
X141043058Y-98485167D01*
X147354838Y-98485167D01*
X147496883Y-98828943D01*
X147759673Y-99092192D01*
X147766026Y-99094830D01*
X147761057Y-99096883D01*
X147497808Y-99359673D01*
X147355162Y-99703201D01*
X147354838Y-100075167D01*
X147496883Y-100418943D01*
X147759673Y-100682192D01*
X147793060Y-100696055D01*
X147791057Y-100696883D01*
X147527808Y-100959673D01*
X147385162Y-101303201D01*
X147384838Y-101675167D01*
X147526883Y-102018943D01*
X147789673Y-102282192D01*
X147864605Y-102313307D01*
X147617808Y-102559673D01*
X147475162Y-102903201D01*
X147474838Y-103275167D01*
X147616883Y-103618943D01*
X147879673Y-103882192D01*
X147883134Y-103883629D01*
X147851057Y-103896883D01*
X147587808Y-104159673D01*
X147445162Y-104503201D01*
X147444838Y-104875167D01*
X147586883Y-105218943D01*
X147849673Y-105482192D01*
X147944980Y-105521767D01*
X147944838Y-105685167D01*
X148086883Y-106028943D01*
X148349673Y-106292192D01*
X148693201Y-106434838D01*
X149065167Y-106435162D01*
X149408943Y-106293117D01*
X149672192Y-106030327D01*
X149814838Y-105686799D01*
X149815162Y-105314833D01*
X149673117Y-104971057D01*
X149412448Y-104709933D01*
X149428943Y-104703117D01*
X149692192Y-104440327D01*
X149834838Y-104096799D01*
X149835162Y-103724833D01*
X149693117Y-103381057D01*
X149430327Y-103117808D01*
X149350752Y-103084765D01*
X149378943Y-103073117D01*
X149642192Y-102810327D01*
X149784838Y-102466799D01*
X149785162Y-102094833D01*
X149643117Y-101751057D01*
X149388288Y-101495783D01*
X149418943Y-101483117D01*
X149682192Y-101220327D01*
X149824838Y-100876799D01*
X149825162Y-100504833D01*
X149683117Y-100161057D01*
X149420327Y-99897808D01*
X149386940Y-99883945D01*
X149388943Y-99883117D01*
X149652192Y-99620327D01*
X149794838Y-99276799D01*
X149795162Y-98904833D01*
X149653117Y-98561057D01*
X149390327Y-98297808D01*
X149387076Y-98296458D01*
X149395163Y-98293117D01*
X149658412Y-98030327D01*
X149801058Y-97686799D01*
X149801382Y-97314833D01*
X149727890Y-97136967D01*
X153065038Y-97136967D01*
X153207083Y-97480743D01*
X153469873Y-97743992D01*
X153813401Y-97886638D01*
X154185367Y-97886962D01*
X154529143Y-97744917D01*
X154792392Y-97482127D01*
X154935038Y-97138599D01*
X154935362Y-96766633D01*
X154793317Y-96422857D01*
X154530527Y-96159608D01*
X154186999Y-96016962D01*
X153815033Y-96016638D01*
X153471257Y-96158683D01*
X153208008Y-96421473D01*
X153065362Y-96765001D01*
X153065038Y-97136967D01*
X149727890Y-97136967D01*
X149659337Y-96971057D01*
X149396547Y-96707808D01*
X149053019Y-96565162D01*
X148681053Y-96564838D01*
X148337277Y-96706883D01*
X148074028Y-96969673D01*
X147931382Y-97313201D01*
X147931275Y-97436551D01*
X147761057Y-97506883D01*
X147497808Y-97769673D01*
X147355162Y-98113201D01*
X147354838Y-98485167D01*
X141043058Y-98485167D01*
X141054838Y-98456799D01*
X141055162Y-98084833D01*
X140913117Y-97741057D01*
X140650327Y-97477808D01*
X140306799Y-97335162D01*
X139934833Y-97334838D01*
X139591057Y-97476883D01*
X139327808Y-97739673D01*
X139185162Y-98083201D01*
X139184838Y-98455167D01*
X138069851Y-98455167D01*
X138327113Y-98348869D01*
X138590362Y-98086079D01*
X138733008Y-97742551D01*
X138733332Y-97370585D01*
X138591287Y-97026809D01*
X138328497Y-96763560D01*
X137984969Y-96620914D01*
X137613003Y-96620590D01*
X137269227Y-96762635D01*
X137005978Y-97025425D01*
X136863332Y-97368953D01*
X136863008Y-97740919D01*
X120397982Y-97740919D01*
X120323985Y-97368911D01*
X119999129Y-96882730D01*
X119684348Y-96672400D01*
X119999129Y-96462070D01*
X120287201Y-96030940D01*
X138024103Y-96030940D01*
X138166148Y-96374716D01*
X138428938Y-96637965D01*
X138772466Y-96780611D01*
X139144432Y-96780935D01*
X139488208Y-96638890D01*
X139751457Y-96376100D01*
X139894103Y-96032572D01*
X139894402Y-95689167D01*
X146473876Y-95689167D01*
X146615921Y-96032943D01*
X146878711Y-96296192D01*
X147222239Y-96438838D01*
X147594205Y-96439162D01*
X147937981Y-96297117D01*
X148201230Y-96034327D01*
X148343876Y-95690799D01*
X148343921Y-95638367D01*
X149204238Y-95638367D01*
X149346283Y-95982143D01*
X149609073Y-96245392D01*
X149952601Y-96388038D01*
X150324567Y-96388362D01*
X150668343Y-96246317D01*
X150931592Y-95983527D01*
X151074238Y-95639999D01*
X151074562Y-95268033D01*
X150932517Y-94924257D01*
X150669727Y-94661008D01*
X150326199Y-94518362D01*
X149954233Y-94518038D01*
X149610457Y-94660083D01*
X149347208Y-94922873D01*
X149204562Y-95266401D01*
X149204238Y-95638367D01*
X148343921Y-95638367D01*
X148344200Y-95318833D01*
X148202155Y-94975057D01*
X147939365Y-94711808D01*
X147595837Y-94569162D01*
X147223871Y-94568838D01*
X146880095Y-94710883D01*
X146616846Y-94973673D01*
X146474200Y-95317201D01*
X146473876Y-95689167D01*
X139894402Y-95689167D01*
X139894427Y-95660606D01*
X139779212Y-95381764D01*
X139965173Y-95196127D01*
X140107819Y-94852599D01*
X140108143Y-94480633D01*
X139966098Y-94136857D01*
X139703308Y-93873608D01*
X139359780Y-93730962D01*
X138987814Y-93730638D01*
X138644038Y-93872683D01*
X138380789Y-94135473D01*
X138238143Y-94479001D01*
X138237819Y-94850967D01*
X138353034Y-95129809D01*
X138167073Y-95315446D01*
X138024427Y-95658974D01*
X138024103Y-96030940D01*
X120287201Y-96030940D01*
X120323985Y-95975889D01*
X120438059Y-95402400D01*
X120369727Y-95058870D01*
X122403492Y-95058870D01*
X122545537Y-95402646D01*
X122808327Y-95665895D01*
X123151855Y-95808541D01*
X123523821Y-95808865D01*
X123867597Y-95666820D01*
X124130846Y-95404030D01*
X124273492Y-95060502D01*
X124273816Y-94688536D01*
X124131771Y-94344760D01*
X123868981Y-94081511D01*
X123525453Y-93938865D01*
X123153487Y-93938541D01*
X122809711Y-94080586D01*
X122546462Y-94343376D01*
X122403816Y-94686904D01*
X122403492Y-95058870D01*
X120369727Y-95058870D01*
X120323985Y-94828911D01*
X119999129Y-94342730D01*
X119684348Y-94132400D01*
X119999129Y-93922070D01*
X120323985Y-93435889D01*
X120438059Y-92862400D01*
X120323985Y-92288911D01*
X120176222Y-92067767D01*
X123107838Y-92067767D01*
X123249883Y-92411543D01*
X123512673Y-92674792D01*
X123856201Y-92817438D01*
X124228167Y-92817762D01*
X124571943Y-92675717D01*
X124682886Y-92564967D01*
X130560638Y-92564967D01*
X130702683Y-92908743D01*
X130965473Y-93171992D01*
X131309001Y-93314638D01*
X131680967Y-93314962D01*
X132024743Y-93172917D01*
X132287992Y-92910127D01*
X132430638Y-92566599D01*
X132430962Y-92194633D01*
X132288917Y-91850857D01*
X132242856Y-91804715D01*
X158064464Y-91804715D01*
X158206509Y-92148491D01*
X158469299Y-92411740D01*
X158812827Y-92554386D01*
X159017033Y-92554564D01*
X159008962Y-92574001D01*
X159008638Y-92945967D01*
X159150683Y-93289743D01*
X159413473Y-93552992D01*
X159757001Y-93695638D01*
X160128967Y-93695962D01*
X160472743Y-93553917D01*
X160735992Y-93291127D01*
X160878638Y-92947599D01*
X160878962Y-92575633D01*
X160736917Y-92231857D01*
X160474127Y-91968608D01*
X160130599Y-91825962D01*
X159926393Y-91825784D01*
X159934464Y-91806347D01*
X159934788Y-91434381D01*
X159792743Y-91090605D01*
X159529953Y-90827356D01*
X159186425Y-90684710D01*
X158814459Y-90684386D01*
X158470683Y-90826431D01*
X158207434Y-91089221D01*
X158064788Y-91432749D01*
X158064464Y-91804715D01*
X132242856Y-91804715D01*
X132026127Y-91587608D01*
X131682599Y-91444962D01*
X131310633Y-91444638D01*
X130966857Y-91586683D01*
X130703608Y-91849473D01*
X130560962Y-92193001D01*
X130560638Y-92564967D01*
X124682886Y-92564967D01*
X124835192Y-92412927D01*
X124977838Y-92069399D01*
X124978162Y-91697433D01*
X124836117Y-91353657D01*
X124573327Y-91090408D01*
X124229799Y-90947762D01*
X123857833Y-90947438D01*
X123514057Y-91089483D01*
X123250808Y-91352273D01*
X123108162Y-91695801D01*
X123107838Y-92067767D01*
X120176222Y-92067767D01*
X119999129Y-91802730D01*
X119684348Y-91592400D01*
X119999129Y-91382070D01*
X120323985Y-90895889D01*
X120438059Y-90322400D01*
X120323985Y-89748911D01*
X119999129Y-89262730D01*
X119684348Y-89052400D01*
X119999129Y-88842070D01*
X120311905Y-88373967D01*
X125461038Y-88373967D01*
X125603083Y-88717743D01*
X125865873Y-88980992D01*
X126209401Y-89123638D01*
X126581367Y-89123962D01*
X126925143Y-88981917D01*
X127188392Y-88719127D01*
X127331038Y-88375599D01*
X127331132Y-88267360D01*
X129098244Y-88267360D01*
X129240289Y-88611136D01*
X129503079Y-88874385D01*
X129846607Y-89017031D01*
X130218573Y-89017355D01*
X130562349Y-88875310D01*
X130679693Y-88758170D01*
X131383542Y-88758170D01*
X131525587Y-89101946D01*
X131788377Y-89365195D01*
X132131905Y-89507841D01*
X132503871Y-89508165D01*
X132847647Y-89366120D01*
X133110896Y-89103330D01*
X133253542Y-88759802D01*
X133253579Y-88717560D01*
X133255767Y-88717562D01*
X133599543Y-88575517D01*
X133862792Y-88312727D01*
X134005438Y-87969199D01*
X134005527Y-87865967D01*
X134853238Y-87865967D01*
X134995283Y-88209743D01*
X135258073Y-88472992D01*
X135601601Y-88615638D01*
X135612962Y-88615648D01*
X135509783Y-88864129D01*
X135509459Y-89236095D01*
X135651504Y-89579871D01*
X135914294Y-89843120D01*
X136257822Y-89985766D01*
X136629788Y-89986090D01*
X136649132Y-89978097D01*
X136794773Y-90123992D01*
X137138301Y-90266638D01*
X137510267Y-90266962D01*
X137854043Y-90124917D01*
X138117292Y-89862127D01*
X138259938Y-89518599D01*
X138260262Y-89146633D01*
X138192885Y-88983567D01*
X141858646Y-88983567D01*
X142000691Y-89327343D01*
X142263481Y-89590592D01*
X142607009Y-89733238D01*
X142978975Y-89733562D01*
X143322751Y-89591517D01*
X143586000Y-89328727D01*
X143728646Y-88985199D01*
X143728970Y-88613233D01*
X143586925Y-88269457D01*
X143324135Y-88006208D01*
X142980607Y-87863562D01*
X142608641Y-87863238D01*
X142264865Y-88005283D01*
X142001616Y-88268073D01*
X141858970Y-88611601D01*
X141858646Y-88983567D01*
X138192885Y-88983567D01*
X138118217Y-88802857D01*
X137855427Y-88539608D01*
X137511899Y-88396962D01*
X137139933Y-88396638D01*
X137120589Y-88404631D01*
X136974948Y-88258736D01*
X136631420Y-88116090D01*
X136620059Y-88116080D01*
X136723238Y-87867599D01*
X136723379Y-87705564D01*
X136794854Y-87878547D01*
X137057644Y-88141796D01*
X137401172Y-88284442D01*
X137773138Y-88284766D01*
X137965834Y-88205146D01*
X138200974Y-88302785D01*
X138572940Y-88303109D01*
X138758437Y-88226463D01*
X139000618Y-88327026D01*
X139372584Y-88327350D01*
X139603416Y-88231972D01*
X139800521Y-88313818D01*
X140172487Y-88314142D01*
X140403592Y-88218652D01*
X140600420Y-88300382D01*
X140972386Y-88300706D01*
X141316162Y-88158661D01*
X141362606Y-88112298D01*
X141379690Y-88119392D01*
X141751656Y-88119716D01*
X142095432Y-87977671D01*
X142358681Y-87714881D01*
X142367177Y-87694420D01*
X142542275Y-87694573D01*
X142886051Y-87552528D01*
X143016670Y-87422136D01*
X143029675Y-87453610D01*
X143292465Y-87716859D01*
X143635993Y-87859505D01*
X144007959Y-87859829D01*
X144245316Y-87761755D01*
X144496930Y-87866235D01*
X144868896Y-87866559D01*
X145120226Y-87762712D01*
X145296364Y-87835851D01*
X145668330Y-87836175D01*
X146012106Y-87694130D01*
X146275355Y-87431340D01*
X146418001Y-87087812D01*
X146418325Y-86715846D01*
X146276280Y-86372070D01*
X146013490Y-86108821D01*
X145669962Y-85966175D01*
X145297996Y-85965851D01*
X145046666Y-86069698D01*
X144870528Y-85996559D01*
X144498562Y-85996235D01*
X144261205Y-86094309D01*
X144009591Y-85989829D01*
X143861980Y-85989700D01*
X143916966Y-85857280D01*
X143917290Y-85485314D01*
X143775245Y-85141538D01*
X143512455Y-84878289D01*
X143168927Y-84735643D01*
X142796961Y-84735319D01*
X142453185Y-84877364D01*
X142189936Y-85140154D01*
X142047290Y-85483682D01*
X142046966Y-85855648D01*
X142054109Y-85872936D01*
X141828165Y-85966294D01*
X141564916Y-86229084D01*
X141556420Y-86249545D01*
X141381322Y-86249392D01*
X141037546Y-86391437D01*
X140991102Y-86437800D01*
X140974018Y-86430706D01*
X140602052Y-86430382D01*
X140370947Y-86525872D01*
X140174119Y-86444142D01*
X139802153Y-86443818D01*
X139571321Y-86539196D01*
X139374216Y-86457350D01*
X139002250Y-86457026D01*
X138816753Y-86533672D01*
X138574572Y-86433109D01*
X138202606Y-86432785D01*
X138009910Y-86512405D01*
X137774770Y-86414766D01*
X137402804Y-86414442D01*
X137059028Y-86556487D01*
X136795779Y-86819277D01*
X136653133Y-87162805D01*
X136652992Y-87324840D01*
X136581517Y-87151857D01*
X136318727Y-86888608D01*
X135975199Y-86745962D01*
X135603233Y-86745638D01*
X135259457Y-86887683D01*
X134996208Y-87150473D01*
X134853562Y-87494001D01*
X134853238Y-87865967D01*
X134005527Y-87865967D01*
X134005762Y-87597233D01*
X133863717Y-87253457D01*
X133600927Y-86990208D01*
X133257399Y-86847562D01*
X132885433Y-86847238D01*
X132541657Y-86989283D01*
X132278408Y-87252073D01*
X132135762Y-87595601D01*
X132135725Y-87637843D01*
X132133537Y-87637841D01*
X131789761Y-87779886D01*
X131526512Y-88042676D01*
X131383866Y-88386204D01*
X131383542Y-88758170D01*
X130679693Y-88758170D01*
X130825598Y-88612520D01*
X130968244Y-88268992D01*
X130968568Y-87897026D01*
X130826523Y-87553250D01*
X130563733Y-87290001D01*
X130220205Y-87147355D01*
X129848239Y-87147031D01*
X129504463Y-87289076D01*
X129241214Y-87551866D01*
X129098568Y-87895394D01*
X129098244Y-88267360D01*
X127331132Y-88267360D01*
X127331362Y-88003633D01*
X127189317Y-87659857D01*
X126926527Y-87396608D01*
X126582999Y-87253962D01*
X126211033Y-87253638D01*
X125867257Y-87395683D01*
X125604008Y-87658473D01*
X125461362Y-88002001D01*
X125461038Y-88373967D01*
X120311905Y-88373967D01*
X120323985Y-88355889D01*
X120438059Y-87782400D01*
X120323985Y-87208911D01*
X119999129Y-86722730D01*
X119684348Y-86512400D01*
X119999129Y-86302070D01*
X120323985Y-85815889D01*
X120438059Y-85242400D01*
X120323985Y-84668911D01*
X119999129Y-84182730D01*
X119927946Y-84135167D01*
X137494838Y-84135167D01*
X137636883Y-84478943D01*
X137899673Y-84742192D01*
X138243201Y-84884838D01*
X138523072Y-84885082D01*
X138522971Y-85000857D01*
X138665016Y-85344633D01*
X138927806Y-85607882D01*
X139271334Y-85750528D01*
X139643300Y-85750852D01*
X139987076Y-85608807D01*
X140250325Y-85346017D01*
X140392971Y-85002489D01*
X140393295Y-84630523D01*
X140251250Y-84286747D01*
X139988460Y-84023498D01*
X139644932Y-83880852D01*
X139365061Y-83880608D01*
X139365162Y-83764833D01*
X139242835Y-83468778D01*
X139331534Y-83255167D01*
X139424838Y-83255167D01*
X139566883Y-83598943D01*
X139829673Y-83862192D01*
X140173201Y-84004838D01*
X140545167Y-84005162D01*
X140888943Y-83863117D01*
X141152192Y-83600327D01*
X141294838Y-83256799D01*
X141295162Y-82884833D01*
X141153117Y-82541057D01*
X140890327Y-82277808D01*
X140546799Y-82135162D01*
X140174833Y-82134838D01*
X139831057Y-82276883D01*
X139567808Y-82539673D01*
X139425162Y-82883201D01*
X139424838Y-83255167D01*
X139331534Y-83255167D01*
X139384838Y-83126799D01*
X139385162Y-82754833D01*
X139243117Y-82411057D01*
X138980327Y-82147808D01*
X138636799Y-82005162D01*
X138264833Y-82004838D01*
X137921057Y-82146883D01*
X137657808Y-82409673D01*
X137515162Y-82753201D01*
X137514838Y-83125167D01*
X137637165Y-83421222D01*
X137495162Y-83763201D01*
X137494838Y-84135167D01*
X119927946Y-84135167D01*
X119684348Y-83972400D01*
X119999129Y-83762070D01*
X120323985Y-83275889D01*
X120382807Y-82980168D01*
X132267117Y-82980168D01*
X132409162Y-83323944D01*
X132671952Y-83587193D01*
X133015480Y-83729839D01*
X133387446Y-83730163D01*
X133731222Y-83588118D01*
X133994471Y-83325328D01*
X134137117Y-82981800D01*
X134137441Y-82609834D01*
X133995396Y-82266058D01*
X133732606Y-82002809D01*
X133389078Y-81860163D01*
X133017112Y-81859839D01*
X132673336Y-82001884D01*
X132410087Y-82264674D01*
X132267441Y-82608202D01*
X132267117Y-82980168D01*
X120382807Y-82980168D01*
X120438059Y-82702400D01*
X120323985Y-82128911D01*
X120283785Y-82068747D01*
X124804006Y-82068747D01*
X124946051Y-82412523D01*
X125208841Y-82675772D01*
X125552369Y-82818418D01*
X125924335Y-82818742D01*
X126268111Y-82676697D01*
X126531360Y-82413907D01*
X126674006Y-82070379D01*
X126674330Y-81698413D01*
X126532285Y-81354637D01*
X126333163Y-81155167D01*
X137308618Y-81155167D01*
X137450663Y-81498943D01*
X137713453Y-81762192D01*
X138056981Y-81904838D01*
X138428947Y-81905162D01*
X138772723Y-81763117D01*
X139035972Y-81500327D01*
X139178618Y-81156799D01*
X139178898Y-80835167D01*
X145264838Y-80835167D01*
X145406883Y-81178943D01*
X145669673Y-81442192D01*
X145714920Y-81460980D01*
X145714838Y-81555167D01*
X145856883Y-81898943D01*
X146064993Y-82107416D01*
X146064838Y-82285167D01*
X146206883Y-82628943D01*
X146424984Y-82847425D01*
X146424838Y-83015167D01*
X146566883Y-83358943D01*
X146785010Y-83577451D01*
X146784838Y-83775167D01*
X146926883Y-84118943D01*
X147145019Y-84337460D01*
X147144838Y-84545167D01*
X147286883Y-84888943D01*
X147495010Y-85097434D01*
X147494838Y-85295167D01*
X147636883Y-85638943D01*
X147825036Y-85827425D01*
X147824838Y-86055167D01*
X147966883Y-86398943D01*
X148175010Y-86607434D01*
X148174838Y-86805167D01*
X148316883Y-87148943D01*
X148535002Y-87367442D01*
X148534838Y-87555167D01*
X148676883Y-87898943D01*
X148939673Y-88162192D01*
X149283201Y-88304838D01*
X149355099Y-88304901D01*
X149261675Y-88398162D01*
X149119029Y-88741690D01*
X149118705Y-89113656D01*
X149260750Y-89457432D01*
X149523540Y-89720681D01*
X149867068Y-89863327D01*
X150118845Y-89863546D01*
X150118638Y-90101167D01*
X150260683Y-90444943D01*
X150523473Y-90708192D01*
X150867001Y-90850838D01*
X151238967Y-90851162D01*
X151582743Y-90709117D01*
X151845992Y-90446327D01*
X151988638Y-90102799D01*
X151988962Y-89730833D01*
X151848037Y-89389767D01*
X159044038Y-89389767D01*
X159186083Y-89733543D01*
X159448873Y-89996792D01*
X159792401Y-90139438D01*
X160164367Y-90139762D01*
X160508143Y-89997717D01*
X160771392Y-89734927D01*
X160914038Y-89391399D01*
X160914362Y-89019433D01*
X160772317Y-88675657D01*
X160509527Y-88412408D01*
X160165999Y-88269762D01*
X159794033Y-88269438D01*
X159450257Y-88411483D01*
X159187008Y-88674273D01*
X159044362Y-89017801D01*
X159044038Y-89389767D01*
X151848037Y-89389767D01*
X151846917Y-89387057D01*
X151584127Y-89123808D01*
X151240599Y-88981162D01*
X150988822Y-88980943D01*
X150989029Y-88743322D01*
X150846984Y-88399546D01*
X150584194Y-88136297D01*
X150240666Y-87993651D01*
X150168768Y-87993588D01*
X150262192Y-87900327D01*
X150404838Y-87556799D01*
X150405162Y-87184833D01*
X150312434Y-86960412D01*
X152863790Y-86960412D01*
X153005835Y-87304188D01*
X153268625Y-87567437D01*
X153612153Y-87710083D01*
X153984119Y-87710407D01*
X154327895Y-87568362D01*
X154591144Y-87305572D01*
X154733790Y-86962044D01*
X154734114Y-86590078D01*
X154592069Y-86246302D01*
X154329279Y-85983053D01*
X153985751Y-85840407D01*
X153613785Y-85840083D01*
X153270009Y-85982128D01*
X153006760Y-86244918D01*
X152864114Y-86588446D01*
X152863790Y-86960412D01*
X150312434Y-86960412D01*
X150263117Y-86841057D01*
X150044998Y-86622558D01*
X150045162Y-86434833D01*
X149903117Y-86091057D01*
X149694990Y-85882566D01*
X149695162Y-85684833D01*
X149557377Y-85351367D01*
X159034038Y-85351367D01*
X159176083Y-85695143D01*
X159408909Y-85928376D01*
X159177008Y-86159873D01*
X159034362Y-86503401D01*
X159034038Y-86875367D01*
X159176083Y-87219143D01*
X159438873Y-87482392D01*
X159782401Y-87625038D01*
X160154367Y-87625362D01*
X160498143Y-87483317D01*
X160761392Y-87220527D01*
X160904038Y-86876999D01*
X160904362Y-86505033D01*
X160762317Y-86161257D01*
X160529491Y-85928024D01*
X160761392Y-85696527D01*
X160904038Y-85352999D01*
X160904362Y-84981033D01*
X160762317Y-84637257D01*
X160499527Y-84374008D01*
X160155999Y-84231362D01*
X159784033Y-84231038D01*
X159440257Y-84373083D01*
X159177008Y-84635873D01*
X159034362Y-84979401D01*
X159034038Y-85351367D01*
X149557377Y-85351367D01*
X149553117Y-85341057D01*
X149364964Y-85152575D01*
X149365162Y-84924833D01*
X149223117Y-84581057D01*
X149014990Y-84372566D01*
X149015162Y-84174833D01*
X148873117Y-83831057D01*
X148654981Y-83612540D01*
X148655162Y-83404833D01*
X148513117Y-83061057D01*
X148294990Y-82842549D01*
X148295162Y-82644833D01*
X148153117Y-82301057D01*
X147935016Y-82082575D01*
X147935162Y-81914833D01*
X147793117Y-81571057D01*
X147585007Y-81362584D01*
X147585162Y-81184833D01*
X147443117Y-80841057D01*
X147417862Y-80815757D01*
X157871235Y-80815757D01*
X158013280Y-81159533D01*
X158276070Y-81422782D01*
X158619598Y-81565428D01*
X158991564Y-81565752D01*
X159335340Y-81423707D01*
X159598589Y-81160917D01*
X159741235Y-80817389D01*
X159741559Y-80445423D01*
X159599514Y-80101647D01*
X159336724Y-79838398D01*
X158993196Y-79695752D01*
X158621230Y-79695428D01*
X158277454Y-79837473D01*
X158014205Y-80100263D01*
X157871559Y-80443791D01*
X157871235Y-80815757D01*
X147417862Y-80815757D01*
X147180327Y-80577808D01*
X147135080Y-80559020D01*
X147135162Y-80464833D01*
X146993117Y-80121057D01*
X146730327Y-79857808D01*
X146386799Y-79715162D01*
X146014833Y-79714838D01*
X145671057Y-79856883D01*
X145407808Y-80119673D01*
X145265162Y-80463201D01*
X145264838Y-80835167D01*
X139178898Y-80835167D01*
X139178942Y-80784833D01*
X139036897Y-80441057D01*
X138774107Y-80177808D01*
X138430579Y-80035162D01*
X138058613Y-80034838D01*
X137714837Y-80176883D01*
X137451588Y-80439673D01*
X137308942Y-80783201D01*
X137308618Y-81155167D01*
X126333163Y-81155167D01*
X126269495Y-81091388D01*
X125925967Y-80948742D01*
X125554001Y-80948418D01*
X125210225Y-81090463D01*
X124946976Y-81353253D01*
X124804330Y-81696781D01*
X124804006Y-82068747D01*
X120283785Y-82068747D01*
X119999129Y-81642730D01*
X119684348Y-81432400D01*
X119999129Y-81222070D01*
X120323985Y-80735889D01*
X120438059Y-80162400D01*
X120323985Y-79588911D01*
X119999129Y-79102730D01*
X119684348Y-78892400D01*
X119999129Y-78682070D01*
X120323985Y-78195889D01*
X120438059Y-77622400D01*
X120323985Y-77048911D01*
X120147757Y-76785167D01*
X127724838Y-76785167D01*
X127866883Y-77128943D01*
X128129673Y-77392192D01*
X128473201Y-77534838D01*
X128845167Y-77535162D01*
X129188943Y-77393117D01*
X129452192Y-77130327D01*
X129594838Y-76786799D01*
X129595162Y-76414833D01*
X129453117Y-76071057D01*
X129190327Y-75807808D01*
X128846799Y-75665162D01*
X128474833Y-75664838D01*
X128131057Y-75806883D01*
X127867808Y-76069673D01*
X127725162Y-76413201D01*
X127724838Y-76785167D01*
X120147757Y-76785167D01*
X119999129Y-76562730D01*
X119684348Y-76352400D01*
X119999129Y-76142070D01*
X120323985Y-75655889D01*
X120404201Y-75252615D01*
X135456242Y-75252615D01*
X135598287Y-75596391D01*
X135861077Y-75859640D01*
X136097198Y-75957687D01*
X136196883Y-76198943D01*
X136384718Y-76387106D01*
X136361057Y-76396883D01*
X136097808Y-76659673D01*
X135955162Y-77003201D01*
X135954838Y-77375167D01*
X136096883Y-77718943D01*
X136359673Y-77982192D01*
X136703201Y-78124838D01*
X137075167Y-78125162D01*
X137204946Y-78071539D01*
X137204838Y-78195167D01*
X137329322Y-78496441D01*
X137235162Y-78723201D01*
X137234838Y-79095167D01*
X137376883Y-79438943D01*
X137639673Y-79702192D01*
X137983201Y-79844838D01*
X138355167Y-79845162D01*
X138698943Y-79703117D01*
X138962192Y-79440327D01*
X139104838Y-79096799D01*
X139105162Y-78724833D01*
X138980678Y-78423559D01*
X139074838Y-78196799D01*
X139075162Y-77824833D01*
X139025718Y-77705167D01*
X140794838Y-77705167D01*
X140936883Y-78048943D01*
X141199673Y-78312192D01*
X141543201Y-78454838D01*
X141915167Y-78455162D01*
X142258943Y-78313117D01*
X142315829Y-78256330D01*
X152503470Y-78256330D01*
X152645515Y-78600106D01*
X152889294Y-78844311D01*
X152812232Y-79029895D01*
X152811908Y-79401861D01*
X152953953Y-79745637D01*
X153216743Y-80008886D01*
X153560271Y-80151532D01*
X153932237Y-80151856D01*
X154276013Y-80009811D01*
X154539262Y-79747021D01*
X154681908Y-79403493D01*
X154682218Y-79047087D01*
X158724158Y-79047087D01*
X158866203Y-79390863D01*
X159128993Y-79654112D01*
X159472521Y-79796758D01*
X159844487Y-79797082D01*
X160188263Y-79655037D01*
X160451512Y-79392247D01*
X160594158Y-79048719D01*
X160594482Y-78676753D01*
X160452437Y-78332977D01*
X160189647Y-78069728D01*
X160167383Y-78060483D01*
X160193343Y-78049757D01*
X160456592Y-77786967D01*
X160599238Y-77443439D01*
X160599562Y-77071473D01*
X160457517Y-76727697D01*
X160194727Y-76464448D01*
X159851199Y-76321802D01*
X159479233Y-76321478D01*
X159135457Y-76463523D01*
X158872208Y-76726313D01*
X158729562Y-77069841D01*
X158729238Y-77441807D01*
X158871283Y-77785583D01*
X159134073Y-78048832D01*
X159156337Y-78058077D01*
X159130377Y-78068803D01*
X158867128Y-78331593D01*
X158724482Y-78675121D01*
X158724158Y-79047087D01*
X154682218Y-79047087D01*
X154682232Y-79031527D01*
X154540187Y-78687751D01*
X154296408Y-78443546D01*
X154373470Y-78257962D01*
X154373794Y-77885996D01*
X154231749Y-77542220D01*
X153968959Y-77278971D01*
X153625431Y-77136325D01*
X153253465Y-77136001D01*
X152909689Y-77278046D01*
X152646440Y-77540836D01*
X152503794Y-77884364D01*
X152503470Y-78256330D01*
X142315829Y-78256330D01*
X142522192Y-78050327D01*
X142664838Y-77706799D01*
X142665162Y-77334833D01*
X142523117Y-76991057D01*
X142260327Y-76727808D01*
X141916799Y-76585162D01*
X141544833Y-76584838D01*
X141201057Y-76726883D01*
X140937808Y-76989673D01*
X140795162Y-77333201D01*
X140794838Y-77705167D01*
X139025718Y-77705167D01*
X138933117Y-77481057D01*
X138670327Y-77217808D01*
X138326799Y-77075162D01*
X137954833Y-77074838D01*
X137825054Y-77128461D01*
X137825162Y-77004833D01*
X137683117Y-76661057D01*
X137495282Y-76472894D01*
X137518943Y-76463117D01*
X137536924Y-76445167D01*
X137884838Y-76445167D01*
X138026883Y-76788943D01*
X138289673Y-77052192D01*
X138633201Y-77194838D01*
X139005167Y-77195162D01*
X139348943Y-77053117D01*
X139612192Y-76790327D01*
X139754838Y-76446799D01*
X139754888Y-76389292D01*
X151939305Y-76389292D01*
X152081350Y-76733068D01*
X152344140Y-76996317D01*
X152687668Y-77138963D01*
X153059634Y-77139287D01*
X153403410Y-76997242D01*
X153509062Y-76891774D01*
X153529955Y-76900450D01*
X153901921Y-76900774D01*
X154245697Y-76758729D01*
X154508946Y-76495939D01*
X154651592Y-76152411D01*
X154651916Y-75780445D01*
X154550477Y-75534944D01*
X154626108Y-75352805D01*
X154626432Y-74980839D01*
X154529365Y-74745918D01*
X154666303Y-74689337D01*
X154929552Y-74426547D01*
X155072198Y-74083019D01*
X155072522Y-73711053D01*
X154930477Y-73367277D01*
X154667687Y-73104028D01*
X154324159Y-72961382D01*
X153952193Y-72961058D01*
X153608417Y-73103103D01*
X153345168Y-73365893D01*
X153202522Y-73709421D01*
X153202198Y-74081387D01*
X153299265Y-74316308D01*
X153162327Y-74372889D01*
X152899078Y-74635679D01*
X152756432Y-74979207D01*
X152756180Y-75269021D01*
X152689300Y-75268963D01*
X152345524Y-75411008D01*
X152082275Y-75673798D01*
X151939629Y-76017326D01*
X151939305Y-76389292D01*
X139754888Y-76389292D01*
X139755162Y-76074833D01*
X139613117Y-75731057D01*
X139350327Y-75467808D01*
X139006799Y-75325162D01*
X138634833Y-75324838D01*
X138291057Y-75466883D01*
X138027808Y-75729673D01*
X137885162Y-76073201D01*
X137884838Y-76445167D01*
X137536924Y-76445167D01*
X137782192Y-76200327D01*
X137924838Y-75856799D01*
X137925162Y-75484833D01*
X137783117Y-75141057D01*
X137520327Y-74877808D01*
X137284206Y-74779761D01*
X137184521Y-74538505D01*
X136921731Y-74275256D01*
X136578203Y-74132610D01*
X136206237Y-74132286D01*
X135862461Y-74274331D01*
X135599212Y-74537121D01*
X135456566Y-74880649D01*
X135456242Y-75252615D01*
X120404201Y-75252615D01*
X120438059Y-75082400D01*
X120323985Y-74508911D01*
X119999129Y-74022730D01*
X119684348Y-73812400D01*
X119999129Y-73602070D01*
X120323985Y-73115889D01*
X120433141Y-72567124D01*
X130442494Y-72567124D01*
X130584539Y-72910900D01*
X130847329Y-73174149D01*
X131190857Y-73316795D01*
X131562823Y-73317119D01*
X131906599Y-73175074D01*
X132169848Y-72912284D01*
X132312494Y-72568756D01*
X132312818Y-72196790D01*
X132170773Y-71853014D01*
X131943324Y-71625167D01*
X136544838Y-71625167D01*
X136686883Y-71968943D01*
X136949673Y-72232192D01*
X137293201Y-72374838D01*
X137665167Y-72375162D01*
X137881944Y-72285592D01*
X138193201Y-72414838D01*
X138565167Y-72415162D01*
X138908943Y-72273117D01*
X138932235Y-72249865D01*
X139233201Y-72374838D01*
X139605167Y-72375162D01*
X139702679Y-72334871D01*
X139889673Y-72522192D01*
X140233201Y-72664838D01*
X140605167Y-72665162D01*
X140948943Y-72523117D01*
X141005495Y-72466664D01*
X141163484Y-72624929D01*
X141507012Y-72767575D01*
X141878978Y-72767899D01*
X142222754Y-72625854D01*
X142486003Y-72363064D01*
X142628649Y-72019536D01*
X142628973Y-71647570D01*
X142524683Y-71395167D01*
X143864838Y-71395167D01*
X144006883Y-71738943D01*
X144269673Y-72002192D01*
X144613201Y-72144838D01*
X144985167Y-72145162D01*
X145267338Y-72028571D01*
X145368110Y-72129519D01*
X145711638Y-72272165D01*
X146083604Y-72272489D01*
X146427380Y-72130444D01*
X146430337Y-72127492D01*
X146498157Y-72155653D01*
X146443857Y-72209859D01*
X146301211Y-72553387D01*
X146300887Y-72925353D01*
X146442932Y-73269129D01*
X146705722Y-73532378D01*
X146941141Y-73630133D01*
X147020643Y-73822544D01*
X147283433Y-74085793D01*
X147626961Y-74228439D01*
X147998927Y-74228763D01*
X148219292Y-74137710D01*
X148453201Y-74234838D01*
X148825167Y-74235162D01*
X149043070Y-74145126D01*
X149283201Y-74244838D01*
X149628249Y-74245139D01*
X149628125Y-74387323D01*
X149770170Y-74731099D01*
X150032960Y-74994348D01*
X150376488Y-75136994D01*
X150748454Y-75137318D01*
X151092230Y-74995273D01*
X151312373Y-74775514D01*
X151516020Y-74979517D01*
X151859548Y-75122163D01*
X152231514Y-75122487D01*
X152575290Y-74980442D01*
X152838539Y-74717652D01*
X152981185Y-74374124D01*
X152981509Y-74002158D01*
X152839464Y-73658382D01*
X152576674Y-73395133D01*
X152233146Y-73252487D01*
X151861180Y-73252163D01*
X151517404Y-73394208D01*
X151297261Y-73613967D01*
X151093614Y-73409964D01*
X150750086Y-73267318D01*
X150405038Y-73267017D01*
X150405162Y-73124833D01*
X150263117Y-72781057D01*
X150000327Y-72517808D01*
X149656799Y-72375162D01*
X149284833Y-72374838D01*
X149066930Y-72464874D01*
X148826799Y-72365162D01*
X148454833Y-72364838D01*
X148234468Y-72455891D01*
X148108668Y-72403654D01*
X148029166Y-72211243D01*
X147766376Y-71947994D01*
X147691122Y-71916746D01*
X147745422Y-71862540D01*
X147888068Y-71519012D01*
X147888253Y-71306071D01*
X150546633Y-71306071D01*
X150688678Y-71649847D01*
X150951468Y-71913096D01*
X151294996Y-72055742D01*
X151666962Y-72056066D01*
X152010738Y-71914021D01*
X152273987Y-71651231D01*
X152416633Y-71307703D01*
X152416957Y-70935737D01*
X152274912Y-70591961D01*
X152012122Y-70328712D01*
X151668594Y-70186066D01*
X151296628Y-70185742D01*
X150952852Y-70327787D01*
X150689603Y-70590577D01*
X150546957Y-70934105D01*
X150546633Y-71306071D01*
X147888253Y-71306071D01*
X147888392Y-71147046D01*
X147746347Y-70803270D01*
X147483557Y-70540021D01*
X147140029Y-70397375D01*
X146768063Y-70397051D01*
X146424287Y-70539096D01*
X146421330Y-70542048D01*
X146085236Y-70402489D01*
X145713270Y-70402165D01*
X145431099Y-70518756D01*
X145330327Y-70417808D01*
X144986799Y-70275162D01*
X144614833Y-70274838D01*
X144271057Y-70416883D01*
X144007808Y-70679673D01*
X143865162Y-71023201D01*
X143864838Y-71395167D01*
X142524683Y-71395167D01*
X142486928Y-71303794D01*
X142224138Y-71040545D01*
X141880610Y-70897899D01*
X141508644Y-70897575D01*
X141164868Y-71039620D01*
X141108316Y-71096073D01*
X140950327Y-70937808D01*
X140606799Y-70795162D01*
X140234833Y-70794838D01*
X140137321Y-70835129D01*
X139950327Y-70647808D01*
X139606799Y-70505162D01*
X139234833Y-70504838D01*
X138891057Y-70646883D01*
X138867765Y-70670135D01*
X138566799Y-70545162D01*
X138194833Y-70544838D01*
X137978056Y-70634408D01*
X137666799Y-70505162D01*
X137294833Y-70504838D01*
X136951057Y-70646883D01*
X136687808Y-70909673D01*
X136545162Y-71253201D01*
X136544838Y-71625167D01*
X131943324Y-71625167D01*
X131907983Y-71589765D01*
X131564455Y-71447119D01*
X131192489Y-71446795D01*
X130848713Y-71588840D01*
X130585464Y-71851630D01*
X130442818Y-72195158D01*
X130442494Y-72567124D01*
X120433141Y-72567124D01*
X120438059Y-72542400D01*
X120323985Y-71968911D01*
X120209623Y-71797756D01*
X128063258Y-71797756D01*
X128205303Y-72141532D01*
X128468093Y-72404781D01*
X128811621Y-72547427D01*
X129183587Y-72547751D01*
X129527363Y-72405706D01*
X129790612Y-72142916D01*
X129933258Y-71799388D01*
X129933582Y-71427422D01*
X129791537Y-71083646D01*
X129528747Y-70820397D01*
X129185219Y-70677751D01*
X128813253Y-70677427D01*
X128469477Y-70819472D01*
X128206228Y-71082262D01*
X128063582Y-71425790D01*
X128063258Y-71797756D01*
X120209623Y-71797756D01*
X119999129Y-71482730D01*
X119684348Y-71272400D01*
X119999129Y-71062070D01*
X120323985Y-70575889D01*
X120438059Y-70002400D01*
X120323985Y-69428911D01*
X120046809Y-69014087D01*
X146628678Y-69014087D01*
X146770723Y-69357863D01*
X147033513Y-69621112D01*
X147377041Y-69763758D01*
X147749007Y-69764082D01*
X148092783Y-69622037D01*
X148356032Y-69359247D01*
X148485046Y-69048549D01*
X148757286Y-68936062D01*
X149020535Y-68673272D01*
X149155348Y-68348607D01*
X153865138Y-68348607D01*
X154007183Y-68692383D01*
X154269973Y-68955632D01*
X154613501Y-69098278D01*
X154985467Y-69098602D01*
X155329243Y-68956557D01*
X155592492Y-68693767D01*
X155735138Y-68350239D01*
X155735462Y-67978273D01*
X155593417Y-67634497D01*
X155330627Y-67371248D01*
X154987099Y-67228602D01*
X154615133Y-67228278D01*
X154271357Y-67370323D01*
X154008108Y-67633113D01*
X153865462Y-67976641D01*
X153865138Y-68348607D01*
X149155348Y-68348607D01*
X149163181Y-68329744D01*
X149163505Y-67957778D01*
X149021460Y-67614002D01*
X148758670Y-67350753D01*
X148415142Y-67208107D01*
X148043176Y-67207783D01*
X147699400Y-67349828D01*
X147436151Y-67612618D01*
X147307137Y-67923316D01*
X147034897Y-68035803D01*
X146771648Y-68298593D01*
X146629002Y-68642121D01*
X146628678Y-69014087D01*
X120046809Y-69014087D01*
X119999129Y-68942730D01*
X119684348Y-68732400D01*
X119999129Y-68522070D01*
X120323985Y-68035889D01*
X120438059Y-67462400D01*
X120323985Y-66888911D01*
X119999129Y-66402730D01*
X119684348Y-66192400D01*
X119999129Y-65982070D01*
X120323985Y-65495889D01*
X120438059Y-64922400D01*
X120323985Y-64348911D01*
X119999129Y-63862730D01*
X119684348Y-63652400D01*
X119999129Y-63442070D01*
X120323985Y-62955889D01*
X120394153Y-62603127D01*
X132399598Y-62603127D01*
X132541643Y-62946903D01*
X132804433Y-63210152D01*
X133147961Y-63352798D01*
X133519927Y-63353122D01*
X133863703Y-63211077D01*
X134126952Y-62948287D01*
X134269598Y-62604759D01*
X134269922Y-62232793D01*
X134127877Y-61889017D01*
X133865087Y-61625768D01*
X133521559Y-61483122D01*
X133149593Y-61482798D01*
X132805817Y-61624843D01*
X132542568Y-61887633D01*
X132399922Y-62231161D01*
X132399598Y-62603127D01*
X120394153Y-62603127D01*
X120438059Y-62382400D01*
X120323985Y-61808911D01*
X120121484Y-61505847D01*
X125897198Y-61505847D01*
X126039243Y-61849623D01*
X126302033Y-62112872D01*
X126645561Y-62255518D01*
X127017527Y-62255842D01*
X127361303Y-62113797D01*
X127624552Y-61851007D01*
X127767198Y-61507479D01*
X127767522Y-61135513D01*
X127625477Y-60791737D01*
X127362687Y-60528488D01*
X127019159Y-60385842D01*
X126647193Y-60385518D01*
X126303417Y-60527563D01*
X126040168Y-60790353D01*
X125897522Y-61133881D01*
X125897198Y-61505847D01*
X120121484Y-61505847D01*
X119999129Y-61322730D01*
X119512948Y-60997874D01*
X118939459Y-60883800D01*
X118880741Y-60883800D01*
X118307252Y-60997874D01*
X117841658Y-61308974D01*
X117836862Y-61283483D01*
X117697790Y-61067359D01*
X117485590Y-60922369D01*
X117233700Y-60871360D01*
X115506500Y-60871360D01*
X115271183Y-60915638D01*
X115055059Y-61054710D01*
X114910069Y-61266910D01*
X114859060Y-61518800D01*
X114859060Y-63246000D01*
X114903338Y-63481317D01*
X115042410Y-63697441D01*
X115254610Y-63842431D01*
X115298231Y-63851264D01*
X115281071Y-63862730D01*
X114956215Y-64348911D01*
X114842141Y-64922400D01*
X112787406Y-64922400D01*
X112835043Y-64902717D01*
X113098292Y-64639927D01*
X113240938Y-64296399D01*
X113241262Y-63924433D01*
X113099217Y-63580657D01*
X112836427Y-63317408D01*
X112492899Y-63174762D01*
X112120933Y-63174438D01*
X111777157Y-63316483D01*
X111513908Y-63579273D01*
X111371262Y-63922801D01*
X111370938Y-64294767D01*
X110691068Y-64294767D01*
X110700938Y-64270999D01*
X110701262Y-63899033D01*
X110559217Y-63555257D01*
X110296427Y-63292008D01*
X109952899Y-63149362D01*
X109580933Y-63149038D01*
X109237157Y-63291083D01*
X108973908Y-63553873D01*
X108831262Y-63897401D01*
X108830938Y-64269367D01*
X108101370Y-64269367D01*
X108101370Y-59775167D01*
X130894838Y-59775167D01*
X131036883Y-60118943D01*
X131299673Y-60382192D01*
X131643201Y-60524838D01*
X132015167Y-60525162D01*
X132358943Y-60383117D01*
X132622192Y-60120327D01*
X132764838Y-59776799D01*
X132765162Y-59404833D01*
X132623117Y-59061057D01*
X132360327Y-58797808D01*
X132016799Y-58655162D01*
X131644833Y-58654838D01*
X131301057Y-58796883D01*
X131037808Y-59059673D01*
X130895162Y-59403201D01*
X130894838Y-59775167D01*
X108101370Y-59775167D01*
X108101370Y-58465167D01*
X123464838Y-58465167D01*
X123606883Y-58808943D01*
X123869673Y-59072192D01*
X124213201Y-59214838D01*
X124585167Y-59215162D01*
X124928943Y-59073117D01*
X125192192Y-58810327D01*
X125334838Y-58466799D01*
X125335162Y-58094833D01*
X125193117Y-57751057D01*
X124996012Y-57553607D01*
X129575118Y-57553607D01*
X129717163Y-57897383D01*
X129979953Y-58160632D01*
X130323481Y-58303278D01*
X130695447Y-58303602D01*
X131039223Y-58161557D01*
X131302472Y-57898767D01*
X131445118Y-57555239D01*
X131445442Y-57183273D01*
X131303397Y-56839497D01*
X131040607Y-56576248D01*
X130697079Y-56433602D01*
X130325113Y-56433278D01*
X129981337Y-56575323D01*
X129718088Y-56838113D01*
X129575442Y-57181641D01*
X129575118Y-57553607D01*
X124996012Y-57553607D01*
X124930327Y-57487808D01*
X124586799Y-57345162D01*
X124214833Y-57344838D01*
X123871057Y-57486883D01*
X123607808Y-57749673D01*
X123465162Y-58093201D01*
X123464838Y-58465167D01*
X108101370Y-58465167D01*
X108101370Y-56166767D01*
X132445318Y-56166767D01*
X132587363Y-56510543D01*
X132850153Y-56773792D01*
X133193681Y-56916438D01*
X133565647Y-56916762D01*
X133909423Y-56774717D01*
X134172672Y-56511927D01*
X134315318Y-56168399D01*
X134315642Y-55796433D01*
X134173597Y-55452657D01*
X133910807Y-55189408D01*
X133567279Y-55046762D01*
X133195313Y-55046438D01*
X132851537Y-55188483D01*
X132588288Y-55451273D01*
X132445642Y-55794801D01*
X132445318Y-56166767D01*
X108101370Y-56166767D01*
X108101370Y-50565167D01*
X108824838Y-50565167D01*
X108966883Y-50908943D01*
X109229673Y-51172192D01*
X109283368Y-51194488D01*
X109067808Y-51409673D01*
X108925162Y-51753201D01*
X108924838Y-52125167D01*
X109066883Y-52468943D01*
X109329673Y-52732192D01*
X109673201Y-52874838D01*
X110045167Y-52875162D01*
X110388943Y-52733117D01*
X110652192Y-52470327D01*
X110794838Y-52126799D01*
X110795162Y-51754833D01*
X110653117Y-51411057D01*
X110390327Y-51147808D01*
X110336632Y-51125512D01*
X110552192Y-50910327D01*
X110694838Y-50566799D01*
X110695162Y-50194833D01*
X110553117Y-49851057D01*
X110290327Y-49587808D01*
X110113680Y-49514457D01*
X110358943Y-49413117D01*
X110622192Y-49150327D01*
X110764838Y-48806799D01*
X110765162Y-48434833D01*
X110623117Y-48091057D01*
X110360327Y-47827808D01*
X110112553Y-47724923D01*
X110358943Y-47623117D01*
X110622192Y-47360327D01*
X110764838Y-47016799D01*
X110765162Y-46644833D01*
X110721915Y-46540167D01*
X114756758Y-46540167D01*
X114898803Y-46883943D01*
X115161593Y-47147192D01*
X115244113Y-47181457D01*
X115168057Y-47212883D01*
X114904808Y-47475673D01*
X114762162Y-47819201D01*
X114761838Y-48191167D01*
X114903883Y-48534943D01*
X115166673Y-48798192D01*
X115234395Y-48826313D01*
X115168057Y-48853723D01*
X114904808Y-49116513D01*
X114762162Y-49460041D01*
X114761838Y-49832007D01*
X114903883Y-50175783D01*
X115166673Y-50439032D01*
X115256390Y-50476286D01*
X115162977Y-50514883D01*
X114899728Y-50777673D01*
X114757082Y-51121201D01*
X114756758Y-51493167D01*
X114898803Y-51836943D01*
X115161593Y-52100192D01*
X115505121Y-52242838D01*
X115877087Y-52243162D01*
X116220863Y-52101117D01*
X116484112Y-51838327D01*
X116626758Y-51494799D01*
X116627082Y-51122833D01*
X116485037Y-50779057D01*
X116222247Y-50515808D01*
X116132530Y-50478554D01*
X116225943Y-50439957D01*
X116489192Y-50177167D01*
X116631838Y-49833639D01*
X116632162Y-49461673D01*
X116490117Y-49117897D01*
X116227327Y-48854648D01*
X116159605Y-48826527D01*
X116225943Y-48799117D01*
X116489192Y-48536327D01*
X116631838Y-48192799D01*
X116632162Y-47820833D01*
X116490117Y-47477057D01*
X116227327Y-47213808D01*
X116144807Y-47179543D01*
X116220863Y-47148117D01*
X116484112Y-46885327D01*
X116626758Y-46541799D01*
X116627082Y-46169833D01*
X116485037Y-45826057D01*
X116222247Y-45562808D01*
X115878719Y-45420162D01*
X115506753Y-45419838D01*
X115162977Y-45561883D01*
X114899728Y-45824673D01*
X114757082Y-46168201D01*
X114756758Y-46540167D01*
X110721915Y-46540167D01*
X110623117Y-46301057D01*
X110360327Y-46037808D01*
X110016799Y-45895162D01*
X109644833Y-45894838D01*
X109301057Y-46036883D01*
X109037808Y-46299673D01*
X108895162Y-46643201D01*
X108894838Y-47015167D01*
X109036883Y-47358943D01*
X109299673Y-47622192D01*
X109547447Y-47725077D01*
X109301057Y-47826883D01*
X109037808Y-48089673D01*
X108895162Y-48433201D01*
X108894838Y-48805167D01*
X109036883Y-49148943D01*
X109299673Y-49412192D01*
X109476320Y-49485543D01*
X109231057Y-49586883D01*
X108967808Y-49849673D01*
X108825162Y-50193201D01*
X108824838Y-50565167D01*
X108101370Y-50565167D01*
X108101370Y-49110066D01*
X108547818Y-46865621D01*
X109783697Y-45015997D01*
X110026730Y-44853607D01*
X119719918Y-44853607D01*
X119861963Y-45197383D01*
X120124753Y-45460632D01*
X120468281Y-45603278D01*
X120840247Y-45603602D01*
X121184023Y-45461557D01*
X121447272Y-45198767D01*
X121589918Y-44855239D01*
X121589919Y-44853607D01*
X125292678Y-44853607D01*
X125434723Y-45197383D01*
X125697513Y-45460632D01*
X126041041Y-45603278D01*
X126413007Y-45603602D01*
X126756783Y-45461557D01*
X127020032Y-45198767D01*
X127162678Y-44855239D01*
X127163002Y-44483273D01*
X127020957Y-44139497D01*
X126758167Y-43876248D01*
X126414639Y-43733602D01*
X126042673Y-43733278D01*
X125698897Y-43875323D01*
X125435648Y-44138113D01*
X125293002Y-44481641D01*
X125292678Y-44853607D01*
X121589919Y-44853607D01*
X121590242Y-44483273D01*
X121448197Y-44139497D01*
X121185407Y-43876248D01*
X120841879Y-43733602D01*
X120469913Y-43733278D01*
X120126137Y-43875323D01*
X119862888Y-44138113D01*
X119720242Y-44481641D01*
X119719918Y-44853607D01*
X110026730Y-44853607D01*
X111633321Y-43780118D01*
X113877766Y-43333670D01*
X134783830Y-43333670D01*
X134783830Y-64287400D01*
X134783830Y-64287400D01*
G37*
X134783830Y-64287400D02*
X134832263Y-64530890D01*
X134970189Y-64737311D01*
X135176610Y-64875237D01*
X135420100Y-64923670D01*
X135551235Y-64923670D01*
X135223897Y-65058923D01*
X134960648Y-65321713D01*
X134818002Y-65665241D01*
X134817678Y-66037207D01*
X134959723Y-66380983D01*
X135222513Y-66644232D01*
X135566041Y-66786878D01*
X135938007Y-66787202D01*
X136281783Y-66645157D01*
X136545032Y-66382367D01*
X136687678Y-66038839D01*
X136688002Y-65666873D01*
X136545957Y-65323097D01*
X136283167Y-65059848D01*
X135955216Y-64923670D01*
X138975155Y-64923670D01*
X138647817Y-65058923D01*
X138384568Y-65321713D01*
X138241922Y-65665241D01*
X138241598Y-66037207D01*
X138383643Y-66380983D01*
X138646433Y-66644232D01*
X138989961Y-66786878D01*
X139361927Y-66787202D01*
X139705703Y-66645157D01*
X139968952Y-66382367D01*
X140111598Y-66038839D01*
X140111922Y-65666873D01*
X139969877Y-65323097D01*
X139707087Y-65059848D01*
X139379136Y-64923670D01*
X153200100Y-64923670D01*
X153206484Y-64922400D01*
X163102141Y-64922400D01*
X163216215Y-65495889D01*
X163541071Y-65982070D01*
X163855852Y-66192400D01*
X163541071Y-66402730D01*
X163216215Y-66888911D01*
X163102141Y-67462400D01*
X163216215Y-68035889D01*
X163541071Y-68522070D01*
X163855852Y-68732400D01*
X163541071Y-68942730D01*
X163216215Y-69428911D01*
X163102141Y-70002400D01*
X163216215Y-70575889D01*
X163541071Y-71062070D01*
X163855852Y-71272400D01*
X163541071Y-71482730D01*
X163216215Y-71968911D01*
X163102141Y-72542400D01*
X163216215Y-73115889D01*
X163541071Y-73602070D01*
X163855852Y-73812400D01*
X163541071Y-74022730D01*
X163216215Y-74508911D01*
X163102141Y-75082400D01*
X163216215Y-75655889D01*
X163541071Y-76142070D01*
X163855852Y-76352400D01*
X163541071Y-76562730D01*
X163216215Y-77048911D01*
X163102141Y-77622400D01*
X163216215Y-78195889D01*
X163541071Y-78682070D01*
X163855852Y-78892400D01*
X163541071Y-79102730D01*
X163216215Y-79588911D01*
X163102141Y-80162400D01*
X163216215Y-80735889D01*
X163541071Y-81222070D01*
X163855852Y-81432400D01*
X163541071Y-81642730D01*
X163216215Y-82128911D01*
X163102141Y-82702400D01*
X163216215Y-83275889D01*
X163541071Y-83762070D01*
X163855852Y-83972400D01*
X163541071Y-84182730D01*
X163216215Y-84668911D01*
X163102141Y-85242400D01*
X163216215Y-85815889D01*
X163541071Y-86302070D01*
X163855852Y-86512400D01*
X163541071Y-86722730D01*
X163216215Y-87208911D01*
X163102141Y-87782400D01*
X163216215Y-88355889D01*
X163541071Y-88842070D01*
X163855852Y-89052400D01*
X163541071Y-89262730D01*
X163216215Y-89748911D01*
X163102141Y-90322400D01*
X163216215Y-90895889D01*
X163541071Y-91382070D01*
X163855852Y-91592400D01*
X163541071Y-91802730D01*
X163216215Y-92288911D01*
X163102141Y-92862400D01*
X163216215Y-93435889D01*
X163541071Y-93922070D01*
X163855852Y-94132400D01*
X163541071Y-94342730D01*
X163216215Y-94828911D01*
X163102141Y-95402400D01*
X163216215Y-95975889D01*
X163541071Y-96462070D01*
X163855852Y-96672400D01*
X163541071Y-96882730D01*
X163216215Y-97368911D01*
X163102141Y-97942400D01*
X163216215Y-98515889D01*
X163541071Y-99002070D01*
X163855852Y-99212400D01*
X163541071Y-99422730D01*
X163216215Y-99908911D01*
X163102141Y-100482400D01*
X163216215Y-101055889D01*
X163541071Y-101542070D01*
X163855852Y-101752400D01*
X163541071Y-101962730D01*
X163216215Y-102448911D01*
X163102141Y-103022400D01*
X163216215Y-103595889D01*
X163541071Y-104082070D01*
X163855852Y-104292400D01*
X163541071Y-104502730D01*
X163216215Y-104988911D01*
X163102141Y-105562400D01*
X163216215Y-106135889D01*
X163541071Y-106622070D01*
X163855852Y-106832400D01*
X163541071Y-107042730D01*
X163216215Y-107528911D01*
X163102141Y-108102400D01*
X163216215Y-108675889D01*
X163541071Y-109162070D01*
X163855852Y-109372400D01*
X163541071Y-109582730D01*
X163216215Y-110068911D01*
X163102141Y-110642400D01*
X163216215Y-111215889D01*
X163541071Y-111702070D01*
X163855852Y-111912400D01*
X163541071Y-112122730D01*
X163216215Y-112608911D01*
X163102141Y-113182400D01*
X163216215Y-113755889D01*
X163541071Y-114242070D01*
X163855852Y-114452400D01*
X163541071Y-114662730D01*
X163216215Y-115148911D01*
X163102141Y-115722400D01*
X163216215Y-116295889D01*
X163541071Y-116782070D01*
X163855852Y-116992400D01*
X163541071Y-117202730D01*
X163216215Y-117688911D01*
X163102141Y-118262400D01*
X163216215Y-118835889D01*
X163541071Y-119322070D01*
X164027252Y-119646926D01*
X164600741Y-119761000D01*
X164659459Y-119761000D01*
X165232948Y-119646926D01*
X165719129Y-119322070D01*
X165900100Y-119051228D01*
X166081071Y-119322070D01*
X166567252Y-119646926D01*
X167140741Y-119761000D01*
X167199459Y-119761000D01*
X167772948Y-119646926D01*
X168259129Y-119322070D01*
X168583985Y-118835889D01*
X168698059Y-118262400D01*
X168583985Y-117688911D01*
X168259129Y-117202730D01*
X167944348Y-116992400D01*
X168259129Y-116782070D01*
X168583985Y-116295889D01*
X168698059Y-115722400D01*
X168583985Y-115148911D01*
X168259129Y-114662730D01*
X167944348Y-114452400D01*
X168259129Y-114242070D01*
X168583985Y-113755889D01*
X168698059Y-113182400D01*
X168583985Y-112608911D01*
X168259129Y-112122730D01*
X167944348Y-111912400D01*
X168259129Y-111702070D01*
X168583985Y-111215889D01*
X168698059Y-110642400D01*
X168583985Y-110068911D01*
X168259129Y-109582730D01*
X167944348Y-109372400D01*
X168259129Y-109162070D01*
X168583985Y-108675889D01*
X168698059Y-108102400D01*
X168583985Y-107528911D01*
X168259129Y-107042730D01*
X167944348Y-106832400D01*
X168259129Y-106622070D01*
X168583985Y-106135889D01*
X168698059Y-105562400D01*
X168583985Y-104988911D01*
X168259129Y-104502730D01*
X167944348Y-104292400D01*
X168259129Y-104082070D01*
X168583985Y-103595889D01*
X168698059Y-103022400D01*
X168583985Y-102448911D01*
X168259129Y-101962730D01*
X167944348Y-101752400D01*
X168259129Y-101542070D01*
X168583985Y-101055889D01*
X168698059Y-100482400D01*
X168621592Y-100097973D01*
X169362152Y-100097973D01*
X169482651Y-100330000D01*
X170690120Y-100330000D01*
X170690120Y-99123183D01*
X170944120Y-99123183D01*
X170944120Y-100330000D01*
X173230120Y-100330000D01*
X173230120Y-99123183D01*
X172998094Y-99002042D01*
X172582173Y-99174312D01*
X172150299Y-99568510D01*
X172087120Y-99703313D01*
X172023941Y-99568510D01*
X171592067Y-99174312D01*
X171176146Y-99002042D01*
X170944120Y-99123183D01*
X170690120Y-99123183D01*
X170458094Y-99002042D01*
X170042173Y-99174312D01*
X169610299Y-99568510D01*
X169362152Y-100097973D01*
X168621592Y-100097973D01*
X168583985Y-99908911D01*
X168259129Y-99422730D01*
X167944348Y-99212400D01*
X168259129Y-99002070D01*
X168583985Y-98515889D01*
X168698059Y-97942400D01*
X168583985Y-97368911D01*
X168259129Y-96882730D01*
X167944348Y-96672400D01*
X168259129Y-96462070D01*
X168583985Y-95975889D01*
X168698059Y-95402400D01*
X168583985Y-94828911D01*
X168259129Y-94342730D01*
X167944348Y-94132400D01*
X168259129Y-93922070D01*
X168583985Y-93435889D01*
X168698059Y-92862400D01*
X168583985Y-92288911D01*
X168259129Y-91802730D01*
X167944348Y-91592400D01*
X168259129Y-91382070D01*
X168583985Y-90895889D01*
X168698059Y-90322400D01*
X168583985Y-89748911D01*
X168259129Y-89262730D01*
X167944348Y-89052400D01*
X168259129Y-88842070D01*
X168583985Y-88355889D01*
X168698059Y-87782400D01*
X168583985Y-87208911D01*
X168259129Y-86722730D01*
X167944348Y-86512400D01*
X168259129Y-86302070D01*
X168583985Y-85815889D01*
X168698059Y-85242400D01*
X168583985Y-84668911D01*
X168259129Y-84182730D01*
X167944348Y-83972400D01*
X168259129Y-83762070D01*
X168583985Y-83275889D01*
X168698059Y-82702400D01*
X168583985Y-82128911D01*
X168259129Y-81642730D01*
X167944348Y-81432400D01*
X168259129Y-81222070D01*
X168583985Y-80735889D01*
X168698059Y-80162400D01*
X168583985Y-79588911D01*
X168259129Y-79102730D01*
X167944348Y-78892400D01*
X168259129Y-78682070D01*
X168583985Y-78195889D01*
X168698059Y-77622400D01*
X168621592Y-77237973D01*
X169362152Y-77237973D01*
X169482651Y-77470000D01*
X170690120Y-77470000D01*
X170690120Y-76263183D01*
X170944120Y-76263183D01*
X170944120Y-77470000D01*
X173230120Y-77470000D01*
X173230120Y-76263183D01*
X172998094Y-76142042D01*
X172582173Y-76314312D01*
X172150299Y-76708510D01*
X172087120Y-76843313D01*
X172023941Y-76708510D01*
X171592067Y-76314312D01*
X171176146Y-76142042D01*
X170944120Y-76263183D01*
X170690120Y-76263183D01*
X170458094Y-76142042D01*
X170042173Y-76314312D01*
X169610299Y-76708510D01*
X169362152Y-77237973D01*
X168621592Y-77237973D01*
X168583985Y-77048911D01*
X168259129Y-76562730D01*
X167944348Y-76352400D01*
X168259129Y-76142070D01*
X168583985Y-75655889D01*
X168698059Y-75082400D01*
X168583985Y-74508911D01*
X168259129Y-74022730D01*
X167944348Y-73812400D01*
X168259129Y-73602070D01*
X168583985Y-73115889D01*
X168698059Y-72542400D01*
X168583985Y-71968911D01*
X168259129Y-71482730D01*
X167944348Y-71272400D01*
X168259129Y-71062070D01*
X168583985Y-70575889D01*
X168698059Y-70002400D01*
X168583985Y-69428911D01*
X168259129Y-68942730D01*
X167944348Y-68732400D01*
X168259129Y-68522070D01*
X168583985Y-68035889D01*
X168698059Y-67462400D01*
X168583985Y-66888911D01*
X168259129Y-66402730D01*
X167944348Y-66192400D01*
X168259129Y-65982070D01*
X168583985Y-65495889D01*
X168698059Y-64922400D01*
X168583985Y-64348911D01*
X168259129Y-63862730D01*
X167944348Y-63652400D01*
X168259129Y-63442070D01*
X168583985Y-62955889D01*
X168698059Y-62382400D01*
X168583985Y-61808911D01*
X168259129Y-61322730D01*
X167772948Y-60997874D01*
X167199459Y-60883800D01*
X167140741Y-60883800D01*
X166567252Y-60997874D01*
X166101658Y-61308974D01*
X166096862Y-61283483D01*
X165957790Y-61067359D01*
X165745590Y-60922369D01*
X165493700Y-60871360D01*
X163766500Y-60871360D01*
X163531183Y-60915638D01*
X163315059Y-61054710D01*
X163170069Y-61266910D01*
X163119060Y-61518800D01*
X163119060Y-63246000D01*
X163163338Y-63481317D01*
X163302410Y-63697441D01*
X163514610Y-63842431D01*
X163558231Y-63851264D01*
X163541071Y-63862730D01*
X163216215Y-64348911D01*
X163102141Y-64922400D01*
X153206484Y-64922400D01*
X153443590Y-64875237D01*
X153650011Y-64737311D01*
X153787937Y-64530890D01*
X153836370Y-64287400D01*
X153836370Y-61449967D01*
X155752358Y-61449967D01*
X155894403Y-61793743D01*
X156157193Y-62056992D01*
X156500721Y-62199638D01*
X156872687Y-62199962D01*
X157077907Y-62115167D01*
X158904838Y-62115167D01*
X159046883Y-62458943D01*
X159309673Y-62722192D01*
X159653201Y-62864838D01*
X160025167Y-62865162D01*
X160368943Y-62723117D01*
X160632192Y-62460327D01*
X160774838Y-62116799D01*
X160775162Y-61744833D01*
X160633117Y-61401057D01*
X160370327Y-61137808D01*
X160026799Y-60995162D01*
X159654833Y-60994838D01*
X159311057Y-61136883D01*
X159047808Y-61399673D01*
X158905162Y-61743201D01*
X158904838Y-62115167D01*
X157077907Y-62115167D01*
X157216463Y-62057917D01*
X157479712Y-61795127D01*
X157622358Y-61451599D01*
X157622682Y-61079633D01*
X157480637Y-60735857D01*
X157217847Y-60472608D01*
X156874319Y-60329962D01*
X156502353Y-60329638D01*
X156158577Y-60471683D01*
X155895328Y-60734473D01*
X155752682Y-61078001D01*
X155752358Y-61449967D01*
X153836370Y-61449967D01*
X153836370Y-59047127D01*
X156026678Y-59047127D01*
X156168723Y-59390903D01*
X156431513Y-59654152D01*
X156775041Y-59796798D01*
X157147007Y-59797122D01*
X157490783Y-59655077D01*
X157754032Y-59392287D01*
X157896678Y-59048759D01*
X157896705Y-59016647D01*
X163326638Y-59016647D01*
X163468683Y-59360423D01*
X163731473Y-59623672D01*
X164075001Y-59766318D01*
X164446967Y-59766642D01*
X164790743Y-59624597D01*
X164920399Y-59495167D01*
X165624838Y-59495167D01*
X165766883Y-59838943D01*
X166029673Y-60102192D01*
X166373201Y-60244838D01*
X166745167Y-60245162D01*
X167088943Y-60103117D01*
X167352192Y-59840327D01*
X167494838Y-59496799D01*
X167495162Y-59124833D01*
X167353117Y-58781057D01*
X167090327Y-58517808D01*
X166746799Y-58375162D01*
X166374833Y-58374838D01*
X166031057Y-58516883D01*
X165767808Y-58779673D01*
X165625162Y-59123201D01*
X165624838Y-59495167D01*
X164920399Y-59495167D01*
X165053992Y-59361807D01*
X165196638Y-59018279D01*
X165196962Y-58646313D01*
X165054917Y-58302537D01*
X164792127Y-58039288D01*
X164448599Y-57896642D01*
X164076633Y-57896318D01*
X163732857Y-58038363D01*
X163469608Y-58301153D01*
X163326962Y-58644681D01*
X163326638Y-59016647D01*
X157896705Y-59016647D01*
X157897002Y-58676793D01*
X157754957Y-58333017D01*
X157492167Y-58069768D01*
X157148639Y-57927122D01*
X156776673Y-57926798D01*
X156432897Y-58068843D01*
X156169648Y-58331633D01*
X156027002Y-58675161D01*
X156026678Y-59047127D01*
X153836370Y-59047127D01*
X153836370Y-56785167D01*
X168014838Y-56785167D01*
X168156883Y-57128943D01*
X168419673Y-57392192D01*
X168763201Y-57534838D01*
X169135167Y-57535162D01*
X169478943Y-57393117D01*
X169742192Y-57130327D01*
X169884838Y-56786799D01*
X169885162Y-56414833D01*
X169743117Y-56071057D01*
X169480327Y-55807808D01*
X169136799Y-55665162D01*
X168764833Y-55664838D01*
X168421057Y-55806883D01*
X168157808Y-56069673D01*
X168015162Y-56413201D01*
X168014838Y-56785167D01*
X153836370Y-56785167D01*
X153836370Y-56338803D01*
X153850542Y-56373102D01*
X154113332Y-56636351D01*
X154456860Y-56778997D01*
X154828826Y-56779321D01*
X155172602Y-56637276D01*
X155435851Y-56374486D01*
X155578497Y-56030958D01*
X155578821Y-55658992D01*
X155436776Y-55315216D01*
X155173986Y-55051967D01*
X154830458Y-54909321D01*
X154458492Y-54908997D01*
X154114716Y-55051042D01*
X153851467Y-55313832D01*
X153836370Y-55350189D01*
X153836370Y-50318670D01*
X160089197Y-50318670D01*
X159867808Y-50539673D01*
X159725162Y-50883201D01*
X159724838Y-51255167D01*
X159866883Y-51598943D01*
X160129673Y-51862192D01*
X160473201Y-52004838D01*
X160845167Y-52005162D01*
X161188943Y-51863117D01*
X161452192Y-51600327D01*
X161594838Y-51256799D01*
X161595162Y-50884833D01*
X161453117Y-50541057D01*
X161231118Y-50318670D01*
X174438830Y-50318670D01*
X174438830Y-76594313D01*
X174132067Y-76314312D01*
X173716146Y-76142042D01*
X173484120Y-76263183D01*
X173484120Y-77470000D01*
X173504120Y-77470000D01*
X173504120Y-77724000D01*
X173484120Y-77724000D01*
X173484120Y-77744000D01*
X173230120Y-77744000D01*
X173230120Y-77724000D01*
X170944120Y-77724000D01*
X170944120Y-77744000D01*
X170690120Y-77744000D01*
X170690120Y-77724000D01*
X169482651Y-77724000D01*
X169362152Y-77956027D01*
X169610299Y-78485490D01*
X170028281Y-78867008D01*
X169757450Y-79047971D01*
X169432594Y-79534152D01*
X169318520Y-80107641D01*
X169318520Y-80166359D01*
X169432594Y-80739848D01*
X169757450Y-81226029D01*
X170028292Y-81407000D01*
X169757450Y-81587971D01*
X169432594Y-82074152D01*
X169318520Y-82647641D01*
X169318520Y-82706359D01*
X169432594Y-83279848D01*
X169757450Y-83766029D01*
X170028292Y-83947000D01*
X169757450Y-84127971D01*
X169432594Y-84614152D01*
X169318520Y-85187641D01*
X169318520Y-85246359D01*
X169432594Y-85819848D01*
X169757450Y-86306029D01*
X170028292Y-86487000D01*
X169757450Y-86667971D01*
X169432594Y-87154152D01*
X169318520Y-87727641D01*
X169318520Y-87786359D01*
X169432594Y-88359848D01*
X169743694Y-88825442D01*
X169718203Y-88830238D01*
X169502079Y-88969310D01*
X169357089Y-89181510D01*
X169306080Y-89433400D01*
X169306080Y-91160600D01*
X169350358Y-91395917D01*
X169489430Y-91612041D01*
X169701630Y-91757031D01*
X169953520Y-91808040D01*
X171680720Y-91808040D01*
X171916037Y-91763762D01*
X172132161Y-91624690D01*
X172277151Y-91412490D01*
X172285984Y-91368869D01*
X172297450Y-91386029D01*
X172783631Y-91710885D01*
X173357120Y-91824959D01*
X173930609Y-91710885D01*
X174416790Y-91386029D01*
X174438830Y-91353044D01*
X174438830Y-99454313D01*
X174132067Y-99174312D01*
X173716146Y-99002042D01*
X173484120Y-99123183D01*
X173484120Y-100330000D01*
X173504120Y-100330000D01*
X173504120Y-100584000D01*
X173484120Y-100584000D01*
X173484120Y-100604000D01*
X173230120Y-100604000D01*
X173230120Y-100584000D01*
X170944120Y-100584000D01*
X170944120Y-100604000D01*
X170690120Y-100604000D01*
X170690120Y-100584000D01*
X169482651Y-100584000D01*
X169362152Y-100816027D01*
X169610299Y-101345490D01*
X170028281Y-101727008D01*
X169757450Y-101907971D01*
X169432594Y-102394152D01*
X169318520Y-102967641D01*
X169318520Y-103026359D01*
X169432594Y-103599848D01*
X169757450Y-104086029D01*
X170028292Y-104267000D01*
X169757450Y-104447971D01*
X169432594Y-104934152D01*
X169318520Y-105507641D01*
X169318520Y-105566359D01*
X169432594Y-106139848D01*
X169757450Y-106626029D01*
X170028292Y-106807000D01*
X169757450Y-106987971D01*
X169432594Y-107474152D01*
X169318520Y-108047641D01*
X169318520Y-108106359D01*
X169432594Y-108679848D01*
X169757450Y-109166029D01*
X170028292Y-109347000D01*
X169757450Y-109527971D01*
X169432594Y-110014152D01*
X169318520Y-110587641D01*
X169318520Y-110646359D01*
X169432594Y-111219848D01*
X169743694Y-111685442D01*
X169718203Y-111690238D01*
X169502079Y-111829310D01*
X169357089Y-112041510D01*
X169306080Y-112293400D01*
X169306080Y-114020600D01*
X169350358Y-114255917D01*
X169489430Y-114472041D01*
X169701630Y-114617031D01*
X169953520Y-114668040D01*
X171680720Y-114668040D01*
X171916037Y-114623762D01*
X172132161Y-114484690D01*
X172277151Y-114272490D01*
X172285984Y-114228869D01*
X172297450Y-114246029D01*
X172783631Y-114570885D01*
X173357120Y-114684959D01*
X173930609Y-114570885D01*
X174416790Y-114246029D01*
X174438830Y-114213044D01*
X174438830Y-119794733D01*
X173509017Y-124469219D01*
X170896631Y-128378931D01*
X166986919Y-130991317D01*
X162312434Y-131921130D01*
X120227767Y-131921130D01*
X115553281Y-130991317D01*
X111643569Y-128378931D01*
X109356882Y-124956661D01*
X117334758Y-124956661D01*
X117546990Y-125470303D01*
X117939630Y-125863629D01*
X118452900Y-126076757D01*
X119008661Y-126077242D01*
X119522303Y-125865010D01*
X119732021Y-125655658D01*
X119939630Y-125863629D01*
X120452900Y-126076757D01*
X121008661Y-126077242D01*
X121522303Y-125865010D01*
X121727457Y-125660213D01*
X121931392Y-125660213D01*
X122000857Y-125902397D01*
X122524302Y-126089144D01*
X123079368Y-126061362D01*
X123463143Y-125902397D01*
X123532608Y-125660213D01*
X122732000Y-124859605D01*
X121931392Y-125660213D01*
X121727457Y-125660213D01*
X121915629Y-125472370D01*
X122026122Y-125206273D01*
X122552395Y-124680000D01*
X122911605Y-124680000D01*
X123437907Y-125206302D01*
X123546990Y-125470303D01*
X123939630Y-125863629D01*
X124452900Y-126076757D01*
X125008661Y-126077242D01*
X125522303Y-125865010D01*
X125915629Y-125472370D01*
X126128757Y-124959100D01*
X126128759Y-124956661D01*
X130415758Y-124956661D01*
X130627990Y-125470303D01*
X131020630Y-125863629D01*
X131533900Y-126076757D01*
X132089661Y-126077242D01*
X132603303Y-125865010D01*
X132813021Y-125655658D01*
X133020630Y-125863629D01*
X133533900Y-126076757D01*
X134089661Y-126077242D01*
X134603303Y-125865010D01*
X134808457Y-125660213D01*
X135012392Y-125660213D01*
X135081857Y-125902397D01*
X135605302Y-126089144D01*
X136160368Y-126061362D01*
X136544143Y-125902397D01*
X136613608Y-125660213D01*
X135813000Y-124859605D01*
X135012392Y-125660213D01*
X134808457Y-125660213D01*
X134996629Y-125472370D01*
X135107122Y-125206273D01*
X135633395Y-124680000D01*
X135992605Y-124680000D01*
X136518907Y-125206302D01*
X136627990Y-125470303D01*
X137020630Y-125863629D01*
X137533900Y-126076757D01*
X138089661Y-126077242D01*
X138603303Y-125865010D01*
X138996629Y-125472370D01*
X139209757Y-124959100D01*
X139209759Y-124956661D01*
X143496758Y-124956661D01*
X143708990Y-125470303D01*
X144101630Y-125863629D01*
X144614900Y-126076757D01*
X145170661Y-126077242D01*
X145684303Y-125865010D01*
X145894021Y-125655658D01*
X146101630Y-125863629D01*
X146614900Y-126076757D01*
X147170661Y-126077242D01*
X147684303Y-125865010D01*
X147889457Y-125660213D01*
X148093392Y-125660213D01*
X148162857Y-125902397D01*
X148686302Y-126089144D01*
X149241368Y-126061362D01*
X149625143Y-125902397D01*
X149694608Y-125660213D01*
X148894000Y-124859605D01*
X148093392Y-125660213D01*
X147889457Y-125660213D01*
X148077629Y-125472370D01*
X148188122Y-125206273D01*
X148714395Y-124680000D01*
X149073605Y-124680000D01*
X149599907Y-125206302D01*
X149708990Y-125470303D01*
X150101630Y-125863629D01*
X150614900Y-126076757D01*
X151170661Y-126077242D01*
X151684303Y-125865010D01*
X152077629Y-125472370D01*
X152290757Y-124959100D01*
X152290759Y-124956661D01*
X156577758Y-124956661D01*
X156789990Y-125470303D01*
X157182630Y-125863629D01*
X157695900Y-126076757D01*
X158251661Y-126077242D01*
X158765303Y-125865010D01*
X158975021Y-125655658D01*
X159182630Y-125863629D01*
X159695900Y-126076757D01*
X160251661Y-126077242D01*
X160765303Y-125865010D01*
X160970457Y-125660213D01*
X161174392Y-125660213D01*
X161243857Y-125902397D01*
X161767302Y-126089144D01*
X162322368Y-126061362D01*
X162706143Y-125902397D01*
X162775608Y-125660213D01*
X161975000Y-124859605D01*
X161174392Y-125660213D01*
X160970457Y-125660213D01*
X161158629Y-125472370D01*
X161269122Y-125206273D01*
X161795395Y-124680000D01*
X162154605Y-124680000D01*
X162680907Y-125206302D01*
X162789990Y-125470303D01*
X163182630Y-125863629D01*
X163695900Y-126076757D01*
X164251661Y-126077242D01*
X164765303Y-125865010D01*
X165158629Y-125472370D01*
X165371757Y-124959100D01*
X165372242Y-124403339D01*
X165160010Y-123889697D01*
X164767370Y-123496371D01*
X164254100Y-123283243D01*
X163698339Y-123282758D01*
X163184697Y-123494990D01*
X162791371Y-123887630D01*
X162680878Y-124153727D01*
X162154605Y-124680000D01*
X161795395Y-124680000D01*
X161269093Y-124153698D01*
X161160010Y-123889697D01*
X160970432Y-123699787D01*
X161174392Y-123699787D01*
X161975000Y-124500395D01*
X162775608Y-123699787D01*
X162706143Y-123457603D01*
X162182698Y-123270856D01*
X161627632Y-123298638D01*
X161243857Y-123457603D01*
X161174392Y-123699787D01*
X160970432Y-123699787D01*
X160767370Y-123496371D01*
X160254100Y-123283243D01*
X159698339Y-123282758D01*
X159184697Y-123494990D01*
X158974979Y-123704342D01*
X158767370Y-123496371D01*
X158254100Y-123283243D01*
X157698339Y-123282758D01*
X157184697Y-123494990D01*
X156791371Y-123887630D01*
X156578243Y-124400900D01*
X156577758Y-124956661D01*
X152290759Y-124956661D01*
X152291242Y-124403339D01*
X152079010Y-123889697D01*
X151686370Y-123496371D01*
X151173100Y-123283243D01*
X150617339Y-123282758D01*
X150103697Y-123494990D01*
X149710371Y-123887630D01*
X149599878Y-124153727D01*
X149073605Y-124680000D01*
X148714395Y-124680000D01*
X148188093Y-124153698D01*
X148079010Y-123889697D01*
X147889432Y-123699787D01*
X148093392Y-123699787D01*
X148894000Y-124500395D01*
X149694608Y-123699787D01*
X149625143Y-123457603D01*
X149101698Y-123270856D01*
X148546632Y-123298638D01*
X148162857Y-123457603D01*
X148093392Y-123699787D01*
X147889432Y-123699787D01*
X147686370Y-123496371D01*
X147173100Y-123283243D01*
X146617339Y-123282758D01*
X146103697Y-123494990D01*
X145893979Y-123704342D01*
X145686370Y-123496371D01*
X145173100Y-123283243D01*
X144617339Y-123282758D01*
X144103697Y-123494990D01*
X143710371Y-123887630D01*
X143497243Y-124400900D01*
X143496758Y-124956661D01*
X139209759Y-124956661D01*
X139210242Y-124403339D01*
X138998010Y-123889697D01*
X138605370Y-123496371D01*
X138092100Y-123283243D01*
X137536339Y-123282758D01*
X137022697Y-123494990D01*
X136629371Y-123887630D01*
X136518878Y-124153727D01*
X135992605Y-124680000D01*
X135633395Y-124680000D01*
X135107093Y-124153698D01*
X134998010Y-123889697D01*
X134808432Y-123699787D01*
X135012392Y-123699787D01*
X135813000Y-124500395D01*
X136613608Y-123699787D01*
X136544143Y-123457603D01*
X136020698Y-123270856D01*
X135465632Y-123298638D01*
X135081857Y-123457603D01*
X135012392Y-123699787D01*
X134808432Y-123699787D01*
X134605370Y-123496371D01*
X134092100Y-123283243D01*
X133536339Y-123282758D01*
X133022697Y-123494990D01*
X132812979Y-123704342D01*
X132605370Y-123496371D01*
X132092100Y-123283243D01*
X131536339Y-123282758D01*
X131022697Y-123494990D01*
X130629371Y-123887630D01*
X130416243Y-124400900D01*
X130415758Y-124956661D01*
X126128759Y-124956661D01*
X126129242Y-124403339D01*
X125917010Y-123889697D01*
X125524370Y-123496371D01*
X125011100Y-123283243D01*
X124455339Y-123282758D01*
X123941697Y-123494990D01*
X123548371Y-123887630D01*
X123437878Y-124153727D01*
X122911605Y-124680000D01*
X122552395Y-124680000D01*
X122026093Y-124153698D01*
X121917010Y-123889697D01*
X121727432Y-123699787D01*
X121931392Y-123699787D01*
X122732000Y-124500395D01*
X123532608Y-123699787D01*
X123463143Y-123457603D01*
X122939698Y-123270856D01*
X122384632Y-123298638D01*
X122000857Y-123457603D01*
X121931392Y-123699787D01*
X121727432Y-123699787D01*
X121524370Y-123496371D01*
X121011100Y-123283243D01*
X120455339Y-123282758D01*
X119941697Y-123494990D01*
X119731979Y-123704342D01*
X119524370Y-123496371D01*
X119011100Y-123283243D01*
X118455339Y-123282758D01*
X117941697Y-123494990D01*
X117548371Y-123887630D01*
X117335243Y-124400900D01*
X117334758Y-124956661D01*
X109356882Y-124956661D01*
X109031183Y-124469219D01*
X108101370Y-119794734D01*
X108101370Y-114073850D01*
X108502173Y-114439688D01*
X108918094Y-114611958D01*
X109150120Y-114490817D01*
X109150120Y-113284000D01*
X109404120Y-113284000D01*
X109404120Y-114490817D01*
X109636146Y-114611958D01*
X110052067Y-114439688D01*
X110483941Y-114045490D01*
X110547120Y-113910687D01*
X110610299Y-114045490D01*
X111042173Y-114439688D01*
X111458094Y-114611958D01*
X111690120Y-114490817D01*
X111690120Y-113284000D01*
X111944120Y-113284000D01*
X111944120Y-114490817D01*
X112176146Y-114611958D01*
X112592067Y-114439688D01*
X113023941Y-114045490D01*
X113272088Y-113516027D01*
X113151589Y-113284000D01*
X111944120Y-113284000D01*
X111690120Y-113284000D01*
X109404120Y-113284000D01*
X109150120Y-113284000D01*
X109130120Y-113284000D01*
X109130120Y-113030000D01*
X109150120Y-113030000D01*
X109150120Y-113010000D01*
X109404120Y-113010000D01*
X109404120Y-113030000D01*
X111690120Y-113030000D01*
X111690120Y-113010000D01*
X111944120Y-113010000D01*
X111944120Y-113030000D01*
X113151589Y-113030000D01*
X113272088Y-112797973D01*
X113023941Y-112268510D01*
X112605959Y-111886992D01*
X112876790Y-111706029D01*
X113201646Y-111219848D01*
X113315720Y-110646359D01*
X113315720Y-110587641D01*
X113201646Y-110014152D01*
X112876790Y-109527971D01*
X112605948Y-109347000D01*
X112876790Y-109166029D01*
X113201646Y-108679848D01*
X113315720Y-108106359D01*
X113315720Y-108047641D01*
X113201646Y-107474152D01*
X112876790Y-106987971D01*
X112605948Y-106807000D01*
X112876790Y-106626029D01*
X113201646Y-106139848D01*
X113315720Y-105566359D01*
X113315720Y-105507641D01*
X113201646Y-104934152D01*
X112876790Y-104447971D01*
X112605948Y-104267000D01*
X112876790Y-104086029D01*
X113201646Y-103599848D01*
X113315720Y-103026359D01*
X113315720Y-102967641D01*
X113201646Y-102394152D01*
X112890546Y-101928558D01*
X112916037Y-101923762D01*
X113132161Y-101784690D01*
X113277151Y-101572490D01*
X113328160Y-101320600D01*
X113328160Y-99593400D01*
X113283882Y-99358083D01*
X113144810Y-99141959D01*
X112932610Y-98996969D01*
X112680720Y-98945960D01*
X110953520Y-98945960D01*
X110718203Y-98990238D01*
X110502079Y-99129310D01*
X110357089Y-99341510D01*
X110348256Y-99385131D01*
X110336790Y-99367971D01*
X109850609Y-99043115D01*
X109277120Y-98929041D01*
X108703631Y-99043115D01*
X108217450Y-99367971D01*
X108101370Y-99541697D01*
X108101370Y-91213850D01*
X108502173Y-91579688D01*
X108918094Y-91751958D01*
X109150120Y-91630817D01*
X109150120Y-90424000D01*
X109404120Y-90424000D01*
X109404120Y-91630817D01*
X109636146Y-91751958D01*
X110052067Y-91579688D01*
X110483941Y-91185490D01*
X110547120Y-91050687D01*
X110610299Y-91185490D01*
X111042173Y-91579688D01*
X111458094Y-91751958D01*
X111690120Y-91630817D01*
X111690120Y-90424000D01*
X111944120Y-90424000D01*
X111944120Y-91630817D01*
X112176146Y-91751958D01*
X112592067Y-91579688D01*
X113023941Y-91185490D01*
X113272088Y-90656027D01*
X113151589Y-90424000D01*
X111944120Y-90424000D01*
X111690120Y-90424000D01*
X109404120Y-90424000D01*
X109150120Y-90424000D01*
X109130120Y-90424000D01*
X109130120Y-90170000D01*
X109150120Y-90170000D01*
X109150120Y-90150000D01*
X109404120Y-90150000D01*
X109404120Y-90170000D01*
X111690120Y-90170000D01*
X111690120Y-90150000D01*
X111944120Y-90150000D01*
X111944120Y-90170000D01*
X113151589Y-90170000D01*
X113272088Y-89937973D01*
X113023941Y-89408510D01*
X112605959Y-89026992D01*
X112876790Y-88846029D01*
X113201646Y-88359848D01*
X113315720Y-87786359D01*
X113315720Y-87727641D01*
X113201646Y-87154152D01*
X112876790Y-86667971D01*
X112605948Y-86487000D01*
X112876790Y-86306029D01*
X113201646Y-85819848D01*
X113315720Y-85246359D01*
X113315720Y-85187641D01*
X113201646Y-84614152D01*
X112876790Y-84127971D01*
X112605948Y-83947000D01*
X112876790Y-83766029D01*
X113201646Y-83279848D01*
X113315720Y-82706359D01*
X113315720Y-82647641D01*
X113201646Y-82074152D01*
X112876790Y-81587971D01*
X112605948Y-81407000D01*
X112876790Y-81226029D01*
X113201646Y-80739848D01*
X113315720Y-80166359D01*
X113315720Y-80107641D01*
X113201646Y-79534152D01*
X112890546Y-79068558D01*
X112916037Y-79063762D01*
X113132161Y-78924690D01*
X113277151Y-78712490D01*
X113328160Y-78460600D01*
X113328160Y-76733400D01*
X113283882Y-76498083D01*
X113144810Y-76281959D01*
X112932610Y-76136969D01*
X112680720Y-76085960D01*
X110953520Y-76085960D01*
X110718203Y-76130238D01*
X110502079Y-76269310D01*
X110357089Y-76481510D01*
X110348256Y-76525131D01*
X110336790Y-76507971D01*
X109850609Y-76183115D01*
X109277120Y-76069041D01*
X108703631Y-76183115D01*
X108217450Y-76507971D01*
X108101370Y-76681697D01*
X108101370Y-64269367D01*
X108830938Y-64269367D01*
X108972983Y-64613143D01*
X109235773Y-64876392D01*
X109579301Y-65019038D01*
X109951267Y-65019362D01*
X110295043Y-64877317D01*
X110558292Y-64614527D01*
X110691068Y-64294767D01*
X111370938Y-64294767D01*
X111512983Y-64638543D01*
X111775773Y-64901792D01*
X112119301Y-65044438D01*
X112491267Y-65044762D01*
X112787406Y-64922400D01*
X114842141Y-64922400D01*
X114956215Y-65495889D01*
X115281071Y-65982070D01*
X115595852Y-66192400D01*
X115281071Y-66402730D01*
X114956215Y-66888911D01*
X114842141Y-67462400D01*
X114956215Y-68035889D01*
X115281071Y-68522070D01*
X115595852Y-68732400D01*
X115281071Y-68942730D01*
X114956215Y-69428911D01*
X114842141Y-70002400D01*
X114956215Y-70575889D01*
X115281071Y-71062070D01*
X115595852Y-71272400D01*
X115281071Y-71482730D01*
X114956215Y-71968911D01*
X114842141Y-72542400D01*
X114956215Y-73115889D01*
X115281071Y-73602070D01*
X115595852Y-73812400D01*
X115281071Y-74022730D01*
X114956215Y-74508911D01*
X114842141Y-75082400D01*
X114956215Y-75655889D01*
X115281071Y-76142070D01*
X115595852Y-76352400D01*
X115281071Y-76562730D01*
X114956215Y-77048911D01*
X114842141Y-77622400D01*
X114956215Y-78195889D01*
X115281071Y-78682070D01*
X115595852Y-78892400D01*
X115281071Y-79102730D01*
X114956215Y-79588911D01*
X114842141Y-80162400D01*
X114956215Y-80735889D01*
X115281071Y-81222070D01*
X115595852Y-81432400D01*
X115281071Y-81642730D01*
X114956215Y-82128911D01*
X114842141Y-82702400D01*
X114956215Y-83275889D01*
X115281071Y-83762070D01*
X115595852Y-83972400D01*
X115281071Y-84182730D01*
X114956215Y-84668911D01*
X114842141Y-85242400D01*
X114956215Y-85815889D01*
X115281071Y-86302070D01*
X115595852Y-86512400D01*
X115281071Y-86722730D01*
X114956215Y-87208911D01*
X114842141Y-87782400D01*
X114956215Y-88355889D01*
X115281071Y-88842070D01*
X115595852Y-89052400D01*
X115281071Y-89262730D01*
X114956215Y-89748911D01*
X114842141Y-90322400D01*
X114956215Y-90895889D01*
X115281071Y-91382070D01*
X115595852Y-91592400D01*
X115281071Y-91802730D01*
X114956215Y-92288911D01*
X114842141Y-92862400D01*
X114956215Y-93435889D01*
X115281071Y-93922070D01*
X115595852Y-94132400D01*
X115281071Y-94342730D01*
X114956215Y-94828911D01*
X114842141Y-95402400D01*
X114956215Y-95975889D01*
X115281071Y-96462070D01*
X115595852Y-96672400D01*
X115281071Y-96882730D01*
X114956215Y-97368911D01*
X114842141Y-97942400D01*
X114956215Y-98515889D01*
X115281071Y-99002070D01*
X115595852Y-99212400D01*
X115281071Y-99422730D01*
X114956215Y-99908911D01*
X114842141Y-100482400D01*
X114956215Y-101055889D01*
X115281071Y-101542070D01*
X115595852Y-101752400D01*
X115281071Y-101962730D01*
X114956215Y-102448911D01*
X114842141Y-103022400D01*
X114956215Y-103595889D01*
X115281071Y-104082070D01*
X115595852Y-104292400D01*
X115281071Y-104502730D01*
X114956215Y-104988911D01*
X114842141Y-105562400D01*
X114956215Y-106135889D01*
X115281071Y-106622070D01*
X115595852Y-106832400D01*
X115281071Y-107042730D01*
X114956215Y-107528911D01*
X114842141Y-108102400D01*
X114956215Y-108675889D01*
X115281071Y-109162070D01*
X115595852Y-109372400D01*
X115281071Y-109582730D01*
X114956215Y-110068911D01*
X114842141Y-110642400D01*
X114956215Y-111215889D01*
X115281071Y-111702070D01*
X115595852Y-111912400D01*
X115281071Y-112122730D01*
X114956215Y-112608911D01*
X114842141Y-113182400D01*
X114956215Y-113755889D01*
X115281071Y-114242070D01*
X115595852Y-114452400D01*
X115281071Y-114662730D01*
X114956215Y-115148911D01*
X114842141Y-115722400D01*
X114956215Y-116295889D01*
X115281071Y-116782070D01*
X115595852Y-116992400D01*
X115281071Y-117202730D01*
X114956215Y-117688911D01*
X114842141Y-118262400D01*
X114956215Y-118835889D01*
X115281071Y-119322070D01*
X115767252Y-119646926D01*
X116340741Y-119761000D01*
X116399459Y-119761000D01*
X116972948Y-119646926D01*
X117459129Y-119322070D01*
X117640100Y-119051228D01*
X117821071Y-119322070D01*
X118307252Y-119646926D01*
X118880741Y-119761000D01*
X118939459Y-119761000D01*
X119512948Y-119646926D01*
X119999129Y-119322070D01*
X120323985Y-118835889D01*
X120438059Y-118262400D01*
X120323985Y-117688911D01*
X119999129Y-117202730D01*
X119684348Y-116992400D01*
X119999129Y-116782070D01*
X120323985Y-116295889D01*
X120365860Y-116085367D01*
X137113838Y-116085367D01*
X137255883Y-116429143D01*
X137518673Y-116692392D01*
X137550007Y-116705403D01*
X137545457Y-116707283D01*
X137282208Y-116970073D01*
X137139562Y-117313601D01*
X137139238Y-117685567D01*
X137281283Y-118029343D01*
X137544073Y-118292592D01*
X137887601Y-118435238D01*
X138259567Y-118435562D01*
X138603343Y-118293517D01*
X138866592Y-118030727D01*
X139009238Y-117687199D01*
X139009562Y-117315233D01*
X138867517Y-116971457D01*
X138604727Y-116708208D01*
X138573393Y-116695197D01*
X138577943Y-116693317D01*
X138841192Y-116430527D01*
X138983838Y-116086999D01*
X138983994Y-115907567D01*
X153496838Y-115907567D01*
X153638883Y-116251343D01*
X153901673Y-116514592D01*
X154165622Y-116624194D01*
X153903057Y-116732683D01*
X153639808Y-116995473D01*
X153497162Y-117339001D01*
X153496838Y-117710967D01*
X153638883Y-118054743D01*
X153901673Y-118317992D01*
X154245201Y-118460638D01*
X154617167Y-118460962D01*
X154960943Y-118318917D01*
X155224192Y-118056127D01*
X155366838Y-117712599D01*
X155367162Y-117340633D01*
X155225117Y-116996857D01*
X154962327Y-116733608D01*
X154698378Y-116624006D01*
X154960943Y-116515517D01*
X155224192Y-116252727D01*
X155366838Y-115909199D01*
X155367162Y-115537233D01*
X155225117Y-115193457D01*
X154962327Y-114930208D01*
X154618799Y-114787562D01*
X154246833Y-114787238D01*
X153903057Y-114929283D01*
X153639808Y-115192073D01*
X153497162Y-115535601D01*
X153496838Y-115907567D01*
X138983994Y-115907567D01*
X138984162Y-115715033D01*
X138842117Y-115371257D01*
X138579327Y-115108008D01*
X138235799Y-114965362D01*
X137863833Y-114965038D01*
X137520057Y-115107083D01*
X137256808Y-115369873D01*
X137114162Y-115713401D01*
X137113838Y-116085367D01*
X120365860Y-116085367D01*
X120438059Y-115722400D01*
X120323985Y-115148911D01*
X119999129Y-114662730D01*
X119684348Y-114452400D01*
X119999129Y-114242070D01*
X120323985Y-113755889D01*
X120396174Y-113392967D01*
X120908638Y-113392967D01*
X121050683Y-113736743D01*
X121313473Y-113999992D01*
X121657001Y-114142638D01*
X122028967Y-114142962D01*
X122372743Y-114000917D01*
X122635992Y-113738127D01*
X122663298Y-113672367D01*
X148239038Y-113672367D01*
X148381083Y-114016143D01*
X148643873Y-114279392D01*
X148987401Y-114422038D01*
X149359367Y-114422362D01*
X149703143Y-114280317D01*
X149966392Y-114017527D01*
X150109038Y-113673999D01*
X150109362Y-113302033D01*
X149967317Y-112958257D01*
X149704527Y-112695008D01*
X149360999Y-112552362D01*
X148989033Y-112552038D01*
X148645257Y-112694083D01*
X148382008Y-112956873D01*
X148239362Y-113300401D01*
X148239038Y-113672367D01*
X122663298Y-113672367D01*
X122778638Y-113394599D01*
X122778962Y-113022633D01*
X122636917Y-112678857D01*
X122576433Y-112618267D01*
X129900238Y-112618267D01*
X130042283Y-112962043D01*
X130305073Y-113225292D01*
X130648601Y-113367938D01*
X131020567Y-113368262D01*
X131364343Y-113226217D01*
X131627592Y-112963427D01*
X131770238Y-112619899D01*
X131770562Y-112247933D01*
X131628517Y-111904157D01*
X131365727Y-111640908D01*
X131022199Y-111498262D01*
X130650233Y-111497938D01*
X130306457Y-111639983D01*
X130043208Y-111902773D01*
X129900562Y-112246301D01*
X129900238Y-112618267D01*
X122576433Y-112618267D01*
X122374127Y-112415608D01*
X122030599Y-112272962D01*
X121658633Y-112272638D01*
X121314857Y-112414683D01*
X121051608Y-112677473D01*
X120908962Y-113021001D01*
X120908638Y-113392967D01*
X120396174Y-113392967D01*
X120438059Y-113182400D01*
X120323985Y-112608911D01*
X119999129Y-112122730D01*
X119684348Y-111912400D01*
X119999129Y-111702070D01*
X120323985Y-111215889D01*
X120346605Y-111102167D01*
X126557838Y-111102167D01*
X126699883Y-111445943D01*
X126962673Y-111709192D01*
X127306201Y-111851838D01*
X127678167Y-111852162D01*
X128021943Y-111710117D01*
X128285192Y-111447327D01*
X128363240Y-111259367D01*
X137113838Y-111259367D01*
X137255883Y-111603143D01*
X137518673Y-111866392D01*
X137862201Y-112009038D01*
X138234167Y-112009362D01*
X138577943Y-111867317D01*
X138841192Y-111604527D01*
X138983838Y-111260999D01*
X138983994Y-111081567D01*
X153471438Y-111081567D01*
X153613483Y-111425343D01*
X153876273Y-111688592D01*
X154219801Y-111831238D01*
X154591767Y-111831562D01*
X154935543Y-111689517D01*
X155198792Y-111426727D01*
X155341438Y-111083199D01*
X155341762Y-110711233D01*
X155199717Y-110367457D01*
X154936927Y-110104208D01*
X154593399Y-109961562D01*
X154221433Y-109961238D01*
X153877657Y-110103283D01*
X153614408Y-110366073D01*
X153471762Y-110709601D01*
X153471438Y-111081567D01*
X138983994Y-111081567D01*
X138984162Y-110889033D01*
X138842117Y-110545257D01*
X138579327Y-110282008D01*
X138235799Y-110139362D01*
X137863833Y-110139038D01*
X137520057Y-110281083D01*
X137256808Y-110543873D01*
X137114162Y-110887401D01*
X137113838Y-111259367D01*
X128363240Y-111259367D01*
X128427838Y-111103799D01*
X128428162Y-110731833D01*
X128286117Y-110388057D01*
X128023327Y-110124808D01*
X127679799Y-109982162D01*
X127307833Y-109981838D01*
X126964057Y-110123883D01*
X126700808Y-110386673D01*
X126558162Y-110730201D01*
X126557838Y-111102167D01*
X120346605Y-111102167D01*
X120438059Y-110642400D01*
X120323985Y-110068911D01*
X119999129Y-109582730D01*
X119684348Y-109372400D01*
X119999129Y-109162070D01*
X120323985Y-108675889D01*
X120346605Y-108562167D01*
X122431838Y-108562167D01*
X122573883Y-108905943D01*
X122836673Y-109169192D01*
X123180201Y-109311838D01*
X123230772Y-109311882D01*
X123093362Y-109642801D01*
X123093038Y-110014767D01*
X123235083Y-110358543D01*
X123497873Y-110621792D01*
X123841401Y-110764438D01*
X124213367Y-110764762D01*
X124557143Y-110622717D01*
X124820392Y-110359927D01*
X124963038Y-110016399D01*
X124963335Y-109675167D01*
X139214838Y-109675167D01*
X139356883Y-110018943D01*
X139619673Y-110282192D01*
X139963201Y-110424838D01*
X140335167Y-110425162D01*
X140678943Y-110283117D01*
X140942192Y-110020327D01*
X141084838Y-109676799D01*
X141085162Y-109304833D01*
X140943117Y-108961057D01*
X140853983Y-108871767D01*
X148213638Y-108871767D01*
X148355683Y-109215543D01*
X148618473Y-109478792D01*
X148962001Y-109621438D01*
X149333967Y-109621762D01*
X149677743Y-109479717D01*
X149940992Y-109216927D01*
X150083638Y-108873399D01*
X150083962Y-108501433D01*
X149941917Y-108157657D01*
X149679127Y-107894408D01*
X149335599Y-107751762D01*
X148963633Y-107751438D01*
X148619857Y-107893483D01*
X148356608Y-108156273D01*
X148213962Y-108499801D01*
X148213638Y-108871767D01*
X140853983Y-108871767D01*
X140680327Y-108697808D01*
X140336799Y-108555162D01*
X139964833Y-108554838D01*
X139621057Y-108696883D01*
X139357808Y-108959673D01*
X139215162Y-109303201D01*
X139214838Y-109675167D01*
X124963335Y-109675167D01*
X124963362Y-109644433D01*
X124821317Y-109300657D01*
X124558527Y-109037408D01*
X124214999Y-108894762D01*
X124164428Y-108894718D01*
X124301838Y-108563799D01*
X124302162Y-108191833D01*
X124160117Y-107848057D01*
X123897327Y-107584808D01*
X123571151Y-107449367D01*
X131602038Y-107449367D01*
X131744083Y-107793143D01*
X132006873Y-108056392D01*
X132350401Y-108199038D01*
X132722367Y-108199362D01*
X133066143Y-108057317D01*
X133329392Y-107794527D01*
X133472038Y-107450999D01*
X133472362Y-107079033D01*
X133330317Y-106735257D01*
X133067527Y-106472008D01*
X132723999Y-106329362D01*
X132352033Y-106329038D01*
X132008257Y-106471083D01*
X131745008Y-106733873D01*
X131602362Y-107077401D01*
X131602038Y-107449367D01*
X123571151Y-107449367D01*
X123553799Y-107442162D01*
X123181833Y-107441838D01*
X122838057Y-107583883D01*
X122574808Y-107846673D01*
X122432162Y-108190201D01*
X122431838Y-108562167D01*
X120346605Y-108562167D01*
X120438059Y-108102400D01*
X120323985Y-107528911D01*
X119999129Y-107042730D01*
X119684348Y-106832400D01*
X119999129Y-106622070D01*
X120323985Y-106135889D01*
X120438059Y-105562400D01*
X120323985Y-104988911D01*
X119999129Y-104502730D01*
X119684348Y-104292400D01*
X119999129Y-104082070D01*
X120323985Y-103595889D01*
X120375600Y-103336400D01*
X127048960Y-103336400D01*
X127048960Y-105063600D01*
X127093238Y-105298917D01*
X127232310Y-105515041D01*
X127444510Y-105660031D01*
X127696400Y-105711040D01*
X129423600Y-105711040D01*
X129658917Y-105666762D01*
X129875041Y-105527690D01*
X130020031Y-105315490D01*
X130071040Y-105063600D01*
X130071040Y-103336400D01*
X130678960Y-103336400D01*
X130678960Y-105063600D01*
X130723238Y-105298917D01*
X130862310Y-105515041D01*
X131074510Y-105660031D01*
X131326400Y-105711040D01*
X133053600Y-105711040D01*
X133288917Y-105666762D01*
X133505041Y-105527690D01*
X133650031Y-105315490D01*
X133701040Y-105063600D01*
X133701040Y-103336400D01*
X133656762Y-103101083D01*
X133517690Y-102884959D01*
X133305490Y-102739969D01*
X133261655Y-102731092D01*
X133432658Y-102475167D01*
X139174838Y-102475167D01*
X139316883Y-102818943D01*
X139579673Y-103082192D01*
X139603084Y-103091913D01*
X139591057Y-103096883D01*
X139327808Y-103359673D01*
X139185162Y-103703201D01*
X139184838Y-104075167D01*
X139326883Y-104418943D01*
X139589673Y-104682192D01*
X139647202Y-104706080D01*
X139621057Y-104716883D01*
X139357808Y-104979673D01*
X139215162Y-105323201D01*
X139214838Y-105695167D01*
X139356883Y-106038943D01*
X139610723Y-106293226D01*
X139601923Y-106296862D01*
X139338674Y-106559652D01*
X139196028Y-106903180D01*
X139195704Y-107275146D01*
X139337749Y-107618922D01*
X139600539Y-107882171D01*
X139944067Y-108024817D01*
X140316033Y-108025141D01*
X140659809Y-107883096D01*
X140923058Y-107620306D01*
X141065704Y-107276778D01*
X141065708Y-107271567D01*
X153471438Y-107271567D01*
X153613483Y-107615343D01*
X153876273Y-107878592D01*
X154219801Y-108021238D01*
X154591767Y-108021562D01*
X154935543Y-107879517D01*
X155198792Y-107616727D01*
X155341438Y-107273199D01*
X155341762Y-106901233D01*
X155199717Y-106557457D01*
X154936927Y-106294208D01*
X154593399Y-106151562D01*
X154221433Y-106151238D01*
X153877657Y-106293283D01*
X153614408Y-106556073D01*
X153471762Y-106899601D01*
X153471438Y-107271567D01*
X141065708Y-107271567D01*
X141066028Y-106904812D01*
X140923983Y-106561036D01*
X140670143Y-106306753D01*
X140678943Y-106303117D01*
X140942192Y-106040327D01*
X141084838Y-105696799D01*
X141084971Y-105544341D01*
X141208943Y-105493117D01*
X141472192Y-105230327D01*
X141614838Y-104886799D01*
X141615162Y-104514833D01*
X141473117Y-104171057D01*
X141210327Y-103907808D01*
X141135383Y-103876688D01*
X141392192Y-103620327D01*
X141534838Y-103276799D01*
X141535162Y-102904833D01*
X141393117Y-102561057D01*
X141130327Y-102297808D01*
X141045025Y-102262387D01*
X141045162Y-102104833D01*
X140938614Y-101846968D01*
X141068943Y-101793117D01*
X141332192Y-101530327D01*
X141474838Y-101186799D01*
X141475162Y-100814833D01*
X141333117Y-100471057D01*
X141070327Y-100207808D01*
X140726799Y-100065162D01*
X140354833Y-100064838D01*
X140011057Y-100206883D01*
X139747808Y-100469673D01*
X139605162Y-100813201D01*
X139604838Y-101185167D01*
X139711386Y-101443032D01*
X139581057Y-101496883D01*
X139317808Y-101759673D01*
X139175162Y-102103201D01*
X139174838Y-102475167D01*
X133432658Y-102475167D01*
X133574526Y-102262848D01*
X133688600Y-101689359D01*
X133688600Y-101630641D01*
X133574526Y-101057152D01*
X133452928Y-100875167D01*
X136814838Y-100875167D01*
X136956883Y-101218943D01*
X137219673Y-101482192D01*
X137563201Y-101624838D01*
X137935167Y-101625162D01*
X138278943Y-101483117D01*
X138542192Y-101220327D01*
X138684838Y-100876799D01*
X138685162Y-100504833D01*
X138543117Y-100161057D01*
X138280327Y-99897808D01*
X137936799Y-99755162D01*
X137564833Y-99754838D01*
X137221057Y-99896883D01*
X136957808Y-100159673D01*
X136815162Y-100503201D01*
X136814838Y-100875167D01*
X133452928Y-100875167D01*
X133249670Y-100570971D01*
X132763489Y-100246115D01*
X132190000Y-100132041D01*
X131616511Y-100246115D01*
X131130330Y-100570971D01*
X130805474Y-101057152D01*
X130691400Y-101630641D01*
X130691400Y-101689359D01*
X130805474Y-102262848D01*
X131116574Y-102728442D01*
X131091083Y-102733238D01*
X130874959Y-102872310D01*
X130729969Y-103084510D01*
X130678960Y-103336400D01*
X130071040Y-103336400D01*
X130026762Y-103101083D01*
X129887690Y-102884959D01*
X129675490Y-102739969D01*
X129631655Y-102731092D01*
X129944526Y-102262848D01*
X130058600Y-101689359D01*
X130058600Y-101630641D01*
X129944526Y-101057152D01*
X129619670Y-100570971D01*
X129133489Y-100246115D01*
X128560000Y-100132041D01*
X127986511Y-100246115D01*
X127500330Y-100570971D01*
X127175474Y-101057152D01*
X127061400Y-101630641D01*
X127061400Y-101689359D01*
X127175474Y-102262848D01*
X127486574Y-102728442D01*
X127461083Y-102733238D01*
X127244959Y-102872310D01*
X127099969Y-103084510D01*
X127048960Y-103336400D01*
X120375600Y-103336400D01*
X120438059Y-103022400D01*
X120323985Y-102448911D01*
X119999129Y-101962730D01*
X119684348Y-101752400D01*
X119999129Y-101542070D01*
X120287717Y-101110167D01*
X121761638Y-101110167D01*
X121903683Y-101453943D01*
X122166473Y-101717192D01*
X122510001Y-101859838D01*
X122881967Y-101860162D01*
X123225743Y-101718117D01*
X123488992Y-101455327D01*
X123515509Y-101391467D01*
X124121738Y-101391467D01*
X124263783Y-101735243D01*
X124526573Y-101998492D01*
X124870101Y-102141138D01*
X125242067Y-102141462D01*
X125585843Y-101999417D01*
X125849092Y-101736627D01*
X125991738Y-101393099D01*
X125992062Y-101021133D01*
X125850017Y-100677357D01*
X125587227Y-100414108D01*
X125243699Y-100271462D01*
X124871733Y-100271138D01*
X124527957Y-100413183D01*
X124264708Y-100675973D01*
X124122062Y-101019501D01*
X124121738Y-101391467D01*
X123515509Y-101391467D01*
X123631638Y-101111799D01*
X123631962Y-100739833D01*
X123489917Y-100396057D01*
X123227127Y-100132808D01*
X122883599Y-99990162D01*
X122511633Y-99989838D01*
X122167857Y-100131883D01*
X121904608Y-100394673D01*
X121761962Y-100738201D01*
X121761638Y-101110167D01*
X120287717Y-101110167D01*
X120323985Y-101055889D01*
X120438059Y-100482400D01*
X120323985Y-99908911D01*
X119999129Y-99422730D01*
X119684348Y-99212400D01*
X119999129Y-99002070D01*
X120323985Y-98515889D01*
X120438059Y-97942400D01*
X120397982Y-97740919D01*
X136863008Y-97740919D01*
X137005053Y-98084695D01*
X137267843Y-98347944D01*
X137611371Y-98490590D01*
X137983337Y-98490914D01*
X138069851Y-98455167D01*
X139184838Y-98455167D01*
X139326883Y-98798943D01*
X139589673Y-99062192D01*
X139933201Y-99204838D01*
X140305167Y-99205162D01*
X140648943Y-99063117D01*
X140912192Y-98800327D01*
X141043058Y-98485167D01*
X147354838Y-98485167D01*
X147496883Y-98828943D01*
X147759673Y-99092192D01*
X147766026Y-99094830D01*
X147761057Y-99096883D01*
X147497808Y-99359673D01*
X147355162Y-99703201D01*
X147354838Y-100075167D01*
X147496883Y-100418943D01*
X147759673Y-100682192D01*
X147793060Y-100696055D01*
X147791057Y-100696883D01*
X147527808Y-100959673D01*
X147385162Y-101303201D01*
X147384838Y-101675167D01*
X147526883Y-102018943D01*
X147789673Y-102282192D01*
X147864605Y-102313307D01*
X147617808Y-102559673D01*
X147475162Y-102903201D01*
X147474838Y-103275167D01*
X147616883Y-103618943D01*
X147879673Y-103882192D01*
X147883134Y-103883629D01*
X147851057Y-103896883D01*
X147587808Y-104159673D01*
X147445162Y-104503201D01*
X147444838Y-104875167D01*
X147586883Y-105218943D01*
X147849673Y-105482192D01*
X147944980Y-105521767D01*
X147944838Y-105685167D01*
X148086883Y-106028943D01*
X148349673Y-106292192D01*
X148693201Y-106434838D01*
X149065167Y-106435162D01*
X149408943Y-106293117D01*
X149672192Y-106030327D01*
X149814838Y-105686799D01*
X149815162Y-105314833D01*
X149673117Y-104971057D01*
X149412448Y-104709933D01*
X149428943Y-104703117D01*
X149692192Y-104440327D01*
X149834838Y-104096799D01*
X149835162Y-103724833D01*
X149693117Y-103381057D01*
X149430327Y-103117808D01*
X149350752Y-103084765D01*
X149378943Y-103073117D01*
X149642192Y-102810327D01*
X149784838Y-102466799D01*
X149785162Y-102094833D01*
X149643117Y-101751057D01*
X149388288Y-101495783D01*
X149418943Y-101483117D01*
X149682192Y-101220327D01*
X149824838Y-100876799D01*
X149825162Y-100504833D01*
X149683117Y-100161057D01*
X149420327Y-99897808D01*
X149386940Y-99883945D01*
X149388943Y-99883117D01*
X149652192Y-99620327D01*
X149794838Y-99276799D01*
X149795162Y-98904833D01*
X149653117Y-98561057D01*
X149390327Y-98297808D01*
X149387076Y-98296458D01*
X149395163Y-98293117D01*
X149658412Y-98030327D01*
X149801058Y-97686799D01*
X149801382Y-97314833D01*
X149727890Y-97136967D01*
X153065038Y-97136967D01*
X153207083Y-97480743D01*
X153469873Y-97743992D01*
X153813401Y-97886638D01*
X154185367Y-97886962D01*
X154529143Y-97744917D01*
X154792392Y-97482127D01*
X154935038Y-97138599D01*
X154935362Y-96766633D01*
X154793317Y-96422857D01*
X154530527Y-96159608D01*
X154186999Y-96016962D01*
X153815033Y-96016638D01*
X153471257Y-96158683D01*
X153208008Y-96421473D01*
X153065362Y-96765001D01*
X153065038Y-97136967D01*
X149727890Y-97136967D01*
X149659337Y-96971057D01*
X149396547Y-96707808D01*
X149053019Y-96565162D01*
X148681053Y-96564838D01*
X148337277Y-96706883D01*
X148074028Y-96969673D01*
X147931382Y-97313201D01*
X147931275Y-97436551D01*
X147761057Y-97506883D01*
X147497808Y-97769673D01*
X147355162Y-98113201D01*
X147354838Y-98485167D01*
X141043058Y-98485167D01*
X141054838Y-98456799D01*
X141055162Y-98084833D01*
X140913117Y-97741057D01*
X140650327Y-97477808D01*
X140306799Y-97335162D01*
X139934833Y-97334838D01*
X139591057Y-97476883D01*
X139327808Y-97739673D01*
X139185162Y-98083201D01*
X139184838Y-98455167D01*
X138069851Y-98455167D01*
X138327113Y-98348869D01*
X138590362Y-98086079D01*
X138733008Y-97742551D01*
X138733332Y-97370585D01*
X138591287Y-97026809D01*
X138328497Y-96763560D01*
X137984969Y-96620914D01*
X137613003Y-96620590D01*
X137269227Y-96762635D01*
X137005978Y-97025425D01*
X136863332Y-97368953D01*
X136863008Y-97740919D01*
X120397982Y-97740919D01*
X120323985Y-97368911D01*
X119999129Y-96882730D01*
X119684348Y-96672400D01*
X119999129Y-96462070D01*
X120287201Y-96030940D01*
X138024103Y-96030940D01*
X138166148Y-96374716D01*
X138428938Y-96637965D01*
X138772466Y-96780611D01*
X139144432Y-96780935D01*
X139488208Y-96638890D01*
X139751457Y-96376100D01*
X139894103Y-96032572D01*
X139894402Y-95689167D01*
X146473876Y-95689167D01*
X146615921Y-96032943D01*
X146878711Y-96296192D01*
X147222239Y-96438838D01*
X147594205Y-96439162D01*
X147937981Y-96297117D01*
X148201230Y-96034327D01*
X148343876Y-95690799D01*
X148343921Y-95638367D01*
X149204238Y-95638367D01*
X149346283Y-95982143D01*
X149609073Y-96245392D01*
X149952601Y-96388038D01*
X150324567Y-96388362D01*
X150668343Y-96246317D01*
X150931592Y-95983527D01*
X151074238Y-95639999D01*
X151074562Y-95268033D01*
X150932517Y-94924257D01*
X150669727Y-94661008D01*
X150326199Y-94518362D01*
X149954233Y-94518038D01*
X149610457Y-94660083D01*
X149347208Y-94922873D01*
X149204562Y-95266401D01*
X149204238Y-95638367D01*
X148343921Y-95638367D01*
X148344200Y-95318833D01*
X148202155Y-94975057D01*
X147939365Y-94711808D01*
X147595837Y-94569162D01*
X147223871Y-94568838D01*
X146880095Y-94710883D01*
X146616846Y-94973673D01*
X146474200Y-95317201D01*
X146473876Y-95689167D01*
X139894402Y-95689167D01*
X139894427Y-95660606D01*
X139779212Y-95381764D01*
X139965173Y-95196127D01*
X140107819Y-94852599D01*
X140108143Y-94480633D01*
X139966098Y-94136857D01*
X139703308Y-93873608D01*
X139359780Y-93730962D01*
X138987814Y-93730638D01*
X138644038Y-93872683D01*
X138380789Y-94135473D01*
X138238143Y-94479001D01*
X138237819Y-94850967D01*
X138353034Y-95129809D01*
X138167073Y-95315446D01*
X138024427Y-95658974D01*
X138024103Y-96030940D01*
X120287201Y-96030940D01*
X120323985Y-95975889D01*
X120438059Y-95402400D01*
X120369727Y-95058870D01*
X122403492Y-95058870D01*
X122545537Y-95402646D01*
X122808327Y-95665895D01*
X123151855Y-95808541D01*
X123523821Y-95808865D01*
X123867597Y-95666820D01*
X124130846Y-95404030D01*
X124273492Y-95060502D01*
X124273816Y-94688536D01*
X124131771Y-94344760D01*
X123868981Y-94081511D01*
X123525453Y-93938865D01*
X123153487Y-93938541D01*
X122809711Y-94080586D01*
X122546462Y-94343376D01*
X122403816Y-94686904D01*
X122403492Y-95058870D01*
X120369727Y-95058870D01*
X120323985Y-94828911D01*
X119999129Y-94342730D01*
X119684348Y-94132400D01*
X119999129Y-93922070D01*
X120323985Y-93435889D01*
X120438059Y-92862400D01*
X120323985Y-92288911D01*
X120176222Y-92067767D01*
X123107838Y-92067767D01*
X123249883Y-92411543D01*
X123512673Y-92674792D01*
X123856201Y-92817438D01*
X124228167Y-92817762D01*
X124571943Y-92675717D01*
X124682886Y-92564967D01*
X130560638Y-92564967D01*
X130702683Y-92908743D01*
X130965473Y-93171992D01*
X131309001Y-93314638D01*
X131680967Y-93314962D01*
X132024743Y-93172917D01*
X132287992Y-92910127D01*
X132430638Y-92566599D01*
X132430962Y-92194633D01*
X132288917Y-91850857D01*
X132242856Y-91804715D01*
X158064464Y-91804715D01*
X158206509Y-92148491D01*
X158469299Y-92411740D01*
X158812827Y-92554386D01*
X159017033Y-92554564D01*
X159008962Y-92574001D01*
X159008638Y-92945967D01*
X159150683Y-93289743D01*
X159413473Y-93552992D01*
X159757001Y-93695638D01*
X160128967Y-93695962D01*
X160472743Y-93553917D01*
X160735992Y-93291127D01*
X160878638Y-92947599D01*
X160878962Y-92575633D01*
X160736917Y-92231857D01*
X160474127Y-91968608D01*
X160130599Y-91825962D01*
X159926393Y-91825784D01*
X159934464Y-91806347D01*
X159934788Y-91434381D01*
X159792743Y-91090605D01*
X159529953Y-90827356D01*
X159186425Y-90684710D01*
X158814459Y-90684386D01*
X158470683Y-90826431D01*
X158207434Y-91089221D01*
X158064788Y-91432749D01*
X158064464Y-91804715D01*
X132242856Y-91804715D01*
X132026127Y-91587608D01*
X131682599Y-91444962D01*
X131310633Y-91444638D01*
X130966857Y-91586683D01*
X130703608Y-91849473D01*
X130560962Y-92193001D01*
X130560638Y-92564967D01*
X124682886Y-92564967D01*
X124835192Y-92412927D01*
X124977838Y-92069399D01*
X124978162Y-91697433D01*
X124836117Y-91353657D01*
X124573327Y-91090408D01*
X124229799Y-90947762D01*
X123857833Y-90947438D01*
X123514057Y-91089483D01*
X123250808Y-91352273D01*
X123108162Y-91695801D01*
X123107838Y-92067767D01*
X120176222Y-92067767D01*
X119999129Y-91802730D01*
X119684348Y-91592400D01*
X119999129Y-91382070D01*
X120323985Y-90895889D01*
X120438059Y-90322400D01*
X120323985Y-89748911D01*
X119999129Y-89262730D01*
X119684348Y-89052400D01*
X119999129Y-88842070D01*
X120311905Y-88373967D01*
X125461038Y-88373967D01*
X125603083Y-88717743D01*
X125865873Y-88980992D01*
X126209401Y-89123638D01*
X126581367Y-89123962D01*
X126925143Y-88981917D01*
X127188392Y-88719127D01*
X127331038Y-88375599D01*
X127331132Y-88267360D01*
X129098244Y-88267360D01*
X129240289Y-88611136D01*
X129503079Y-88874385D01*
X129846607Y-89017031D01*
X130218573Y-89017355D01*
X130562349Y-88875310D01*
X130679693Y-88758170D01*
X131383542Y-88758170D01*
X131525587Y-89101946D01*
X131788377Y-89365195D01*
X132131905Y-89507841D01*
X132503871Y-89508165D01*
X132847647Y-89366120D01*
X133110896Y-89103330D01*
X133253542Y-88759802D01*
X133253579Y-88717560D01*
X133255767Y-88717562D01*
X133599543Y-88575517D01*
X133862792Y-88312727D01*
X134005438Y-87969199D01*
X134005527Y-87865967D01*
X134853238Y-87865967D01*
X134995283Y-88209743D01*
X135258073Y-88472992D01*
X135601601Y-88615638D01*
X135612962Y-88615648D01*
X135509783Y-88864129D01*
X135509459Y-89236095D01*
X135651504Y-89579871D01*
X135914294Y-89843120D01*
X136257822Y-89985766D01*
X136629788Y-89986090D01*
X136649132Y-89978097D01*
X136794773Y-90123992D01*
X137138301Y-90266638D01*
X137510267Y-90266962D01*
X137854043Y-90124917D01*
X138117292Y-89862127D01*
X138259938Y-89518599D01*
X138260262Y-89146633D01*
X138192885Y-88983567D01*
X141858646Y-88983567D01*
X142000691Y-89327343D01*
X142263481Y-89590592D01*
X142607009Y-89733238D01*
X142978975Y-89733562D01*
X143322751Y-89591517D01*
X143586000Y-89328727D01*
X143728646Y-88985199D01*
X143728970Y-88613233D01*
X143586925Y-88269457D01*
X143324135Y-88006208D01*
X142980607Y-87863562D01*
X142608641Y-87863238D01*
X142264865Y-88005283D01*
X142001616Y-88268073D01*
X141858970Y-88611601D01*
X141858646Y-88983567D01*
X138192885Y-88983567D01*
X138118217Y-88802857D01*
X137855427Y-88539608D01*
X137511899Y-88396962D01*
X137139933Y-88396638D01*
X137120589Y-88404631D01*
X136974948Y-88258736D01*
X136631420Y-88116090D01*
X136620059Y-88116080D01*
X136723238Y-87867599D01*
X136723379Y-87705564D01*
X136794854Y-87878547D01*
X137057644Y-88141796D01*
X137401172Y-88284442D01*
X137773138Y-88284766D01*
X137965834Y-88205146D01*
X138200974Y-88302785D01*
X138572940Y-88303109D01*
X138758437Y-88226463D01*
X139000618Y-88327026D01*
X139372584Y-88327350D01*
X139603416Y-88231972D01*
X139800521Y-88313818D01*
X140172487Y-88314142D01*
X140403592Y-88218652D01*
X140600420Y-88300382D01*
X140972386Y-88300706D01*
X141316162Y-88158661D01*
X141362606Y-88112298D01*
X141379690Y-88119392D01*
X141751656Y-88119716D01*
X142095432Y-87977671D01*
X142358681Y-87714881D01*
X142367177Y-87694420D01*
X142542275Y-87694573D01*
X142886051Y-87552528D01*
X143016670Y-87422136D01*
X143029675Y-87453610D01*
X143292465Y-87716859D01*
X143635993Y-87859505D01*
X144007959Y-87859829D01*
X144245316Y-87761755D01*
X144496930Y-87866235D01*
X144868896Y-87866559D01*
X145120226Y-87762712D01*
X145296364Y-87835851D01*
X145668330Y-87836175D01*
X146012106Y-87694130D01*
X146275355Y-87431340D01*
X146418001Y-87087812D01*
X146418325Y-86715846D01*
X146276280Y-86372070D01*
X146013490Y-86108821D01*
X145669962Y-85966175D01*
X145297996Y-85965851D01*
X145046666Y-86069698D01*
X144870528Y-85996559D01*
X144498562Y-85996235D01*
X144261205Y-86094309D01*
X144009591Y-85989829D01*
X143861980Y-85989700D01*
X143916966Y-85857280D01*
X143917290Y-85485314D01*
X143775245Y-85141538D01*
X143512455Y-84878289D01*
X143168927Y-84735643D01*
X142796961Y-84735319D01*
X142453185Y-84877364D01*
X142189936Y-85140154D01*
X142047290Y-85483682D01*
X142046966Y-85855648D01*
X142054109Y-85872936D01*
X141828165Y-85966294D01*
X141564916Y-86229084D01*
X141556420Y-86249545D01*
X141381322Y-86249392D01*
X141037546Y-86391437D01*
X140991102Y-86437800D01*
X140974018Y-86430706D01*
X140602052Y-86430382D01*
X140370947Y-86525872D01*
X140174119Y-86444142D01*
X139802153Y-86443818D01*
X139571321Y-86539196D01*
X139374216Y-86457350D01*
X139002250Y-86457026D01*
X138816753Y-86533672D01*
X138574572Y-86433109D01*
X138202606Y-86432785D01*
X138009910Y-86512405D01*
X137774770Y-86414766D01*
X137402804Y-86414442D01*
X137059028Y-86556487D01*
X136795779Y-86819277D01*
X136653133Y-87162805D01*
X136652992Y-87324840D01*
X136581517Y-87151857D01*
X136318727Y-86888608D01*
X135975199Y-86745962D01*
X135603233Y-86745638D01*
X135259457Y-86887683D01*
X134996208Y-87150473D01*
X134853562Y-87494001D01*
X134853238Y-87865967D01*
X134005527Y-87865967D01*
X134005762Y-87597233D01*
X133863717Y-87253457D01*
X133600927Y-86990208D01*
X133257399Y-86847562D01*
X132885433Y-86847238D01*
X132541657Y-86989283D01*
X132278408Y-87252073D01*
X132135762Y-87595601D01*
X132135725Y-87637843D01*
X132133537Y-87637841D01*
X131789761Y-87779886D01*
X131526512Y-88042676D01*
X131383866Y-88386204D01*
X131383542Y-88758170D01*
X130679693Y-88758170D01*
X130825598Y-88612520D01*
X130968244Y-88268992D01*
X130968568Y-87897026D01*
X130826523Y-87553250D01*
X130563733Y-87290001D01*
X130220205Y-87147355D01*
X129848239Y-87147031D01*
X129504463Y-87289076D01*
X129241214Y-87551866D01*
X129098568Y-87895394D01*
X129098244Y-88267360D01*
X127331132Y-88267360D01*
X127331362Y-88003633D01*
X127189317Y-87659857D01*
X126926527Y-87396608D01*
X126582999Y-87253962D01*
X126211033Y-87253638D01*
X125867257Y-87395683D01*
X125604008Y-87658473D01*
X125461362Y-88002001D01*
X125461038Y-88373967D01*
X120311905Y-88373967D01*
X120323985Y-88355889D01*
X120438059Y-87782400D01*
X120323985Y-87208911D01*
X119999129Y-86722730D01*
X119684348Y-86512400D01*
X119999129Y-86302070D01*
X120323985Y-85815889D01*
X120438059Y-85242400D01*
X120323985Y-84668911D01*
X119999129Y-84182730D01*
X119927946Y-84135167D01*
X137494838Y-84135167D01*
X137636883Y-84478943D01*
X137899673Y-84742192D01*
X138243201Y-84884838D01*
X138523072Y-84885082D01*
X138522971Y-85000857D01*
X138665016Y-85344633D01*
X138927806Y-85607882D01*
X139271334Y-85750528D01*
X139643300Y-85750852D01*
X139987076Y-85608807D01*
X140250325Y-85346017D01*
X140392971Y-85002489D01*
X140393295Y-84630523D01*
X140251250Y-84286747D01*
X139988460Y-84023498D01*
X139644932Y-83880852D01*
X139365061Y-83880608D01*
X139365162Y-83764833D01*
X139242835Y-83468778D01*
X139331534Y-83255167D01*
X139424838Y-83255167D01*
X139566883Y-83598943D01*
X139829673Y-83862192D01*
X140173201Y-84004838D01*
X140545167Y-84005162D01*
X140888943Y-83863117D01*
X141152192Y-83600327D01*
X141294838Y-83256799D01*
X141295162Y-82884833D01*
X141153117Y-82541057D01*
X140890327Y-82277808D01*
X140546799Y-82135162D01*
X140174833Y-82134838D01*
X139831057Y-82276883D01*
X139567808Y-82539673D01*
X139425162Y-82883201D01*
X139424838Y-83255167D01*
X139331534Y-83255167D01*
X139384838Y-83126799D01*
X139385162Y-82754833D01*
X139243117Y-82411057D01*
X138980327Y-82147808D01*
X138636799Y-82005162D01*
X138264833Y-82004838D01*
X137921057Y-82146883D01*
X137657808Y-82409673D01*
X137515162Y-82753201D01*
X137514838Y-83125167D01*
X137637165Y-83421222D01*
X137495162Y-83763201D01*
X137494838Y-84135167D01*
X119927946Y-84135167D01*
X119684348Y-83972400D01*
X119999129Y-83762070D01*
X120323985Y-83275889D01*
X120382807Y-82980168D01*
X132267117Y-82980168D01*
X132409162Y-83323944D01*
X132671952Y-83587193D01*
X133015480Y-83729839D01*
X133387446Y-83730163D01*
X133731222Y-83588118D01*
X133994471Y-83325328D01*
X134137117Y-82981800D01*
X134137441Y-82609834D01*
X133995396Y-82266058D01*
X133732606Y-82002809D01*
X133389078Y-81860163D01*
X133017112Y-81859839D01*
X132673336Y-82001884D01*
X132410087Y-82264674D01*
X132267441Y-82608202D01*
X132267117Y-82980168D01*
X120382807Y-82980168D01*
X120438059Y-82702400D01*
X120323985Y-82128911D01*
X120283785Y-82068747D01*
X124804006Y-82068747D01*
X124946051Y-82412523D01*
X125208841Y-82675772D01*
X125552369Y-82818418D01*
X125924335Y-82818742D01*
X126268111Y-82676697D01*
X126531360Y-82413907D01*
X126674006Y-82070379D01*
X126674330Y-81698413D01*
X126532285Y-81354637D01*
X126333163Y-81155167D01*
X137308618Y-81155167D01*
X137450663Y-81498943D01*
X137713453Y-81762192D01*
X138056981Y-81904838D01*
X138428947Y-81905162D01*
X138772723Y-81763117D01*
X139035972Y-81500327D01*
X139178618Y-81156799D01*
X139178898Y-80835167D01*
X145264838Y-80835167D01*
X145406883Y-81178943D01*
X145669673Y-81442192D01*
X145714920Y-81460980D01*
X145714838Y-81555167D01*
X145856883Y-81898943D01*
X146064993Y-82107416D01*
X146064838Y-82285167D01*
X146206883Y-82628943D01*
X146424984Y-82847425D01*
X146424838Y-83015167D01*
X146566883Y-83358943D01*
X146785010Y-83577451D01*
X146784838Y-83775167D01*
X146926883Y-84118943D01*
X147145019Y-84337460D01*
X147144838Y-84545167D01*
X147286883Y-84888943D01*
X147495010Y-85097434D01*
X147494838Y-85295167D01*
X147636883Y-85638943D01*
X147825036Y-85827425D01*
X147824838Y-86055167D01*
X147966883Y-86398943D01*
X148175010Y-86607434D01*
X148174838Y-86805167D01*
X148316883Y-87148943D01*
X148535002Y-87367442D01*
X148534838Y-87555167D01*
X148676883Y-87898943D01*
X148939673Y-88162192D01*
X149283201Y-88304838D01*
X149355099Y-88304901D01*
X149261675Y-88398162D01*
X149119029Y-88741690D01*
X149118705Y-89113656D01*
X149260750Y-89457432D01*
X149523540Y-89720681D01*
X149867068Y-89863327D01*
X150118845Y-89863546D01*
X150118638Y-90101167D01*
X150260683Y-90444943D01*
X150523473Y-90708192D01*
X150867001Y-90850838D01*
X151238967Y-90851162D01*
X151582743Y-90709117D01*
X151845992Y-90446327D01*
X151988638Y-90102799D01*
X151988962Y-89730833D01*
X151848037Y-89389767D01*
X159044038Y-89389767D01*
X159186083Y-89733543D01*
X159448873Y-89996792D01*
X159792401Y-90139438D01*
X160164367Y-90139762D01*
X160508143Y-89997717D01*
X160771392Y-89734927D01*
X160914038Y-89391399D01*
X160914362Y-89019433D01*
X160772317Y-88675657D01*
X160509527Y-88412408D01*
X160165999Y-88269762D01*
X159794033Y-88269438D01*
X159450257Y-88411483D01*
X159187008Y-88674273D01*
X159044362Y-89017801D01*
X159044038Y-89389767D01*
X151848037Y-89389767D01*
X151846917Y-89387057D01*
X151584127Y-89123808D01*
X151240599Y-88981162D01*
X150988822Y-88980943D01*
X150989029Y-88743322D01*
X150846984Y-88399546D01*
X150584194Y-88136297D01*
X150240666Y-87993651D01*
X150168768Y-87993588D01*
X150262192Y-87900327D01*
X150404838Y-87556799D01*
X150405162Y-87184833D01*
X150312434Y-86960412D01*
X152863790Y-86960412D01*
X153005835Y-87304188D01*
X153268625Y-87567437D01*
X153612153Y-87710083D01*
X153984119Y-87710407D01*
X154327895Y-87568362D01*
X154591144Y-87305572D01*
X154733790Y-86962044D01*
X154734114Y-86590078D01*
X154592069Y-86246302D01*
X154329279Y-85983053D01*
X153985751Y-85840407D01*
X153613785Y-85840083D01*
X153270009Y-85982128D01*
X153006760Y-86244918D01*
X152864114Y-86588446D01*
X152863790Y-86960412D01*
X150312434Y-86960412D01*
X150263117Y-86841057D01*
X150044998Y-86622558D01*
X150045162Y-86434833D01*
X149903117Y-86091057D01*
X149694990Y-85882566D01*
X149695162Y-85684833D01*
X149557377Y-85351367D01*
X159034038Y-85351367D01*
X159176083Y-85695143D01*
X159408909Y-85928376D01*
X159177008Y-86159873D01*
X159034362Y-86503401D01*
X159034038Y-86875367D01*
X159176083Y-87219143D01*
X159438873Y-87482392D01*
X159782401Y-87625038D01*
X160154367Y-87625362D01*
X160498143Y-87483317D01*
X160761392Y-87220527D01*
X160904038Y-86876999D01*
X160904362Y-86505033D01*
X160762317Y-86161257D01*
X160529491Y-85928024D01*
X160761392Y-85696527D01*
X160904038Y-85352999D01*
X160904362Y-84981033D01*
X160762317Y-84637257D01*
X160499527Y-84374008D01*
X160155999Y-84231362D01*
X159784033Y-84231038D01*
X159440257Y-84373083D01*
X159177008Y-84635873D01*
X159034362Y-84979401D01*
X159034038Y-85351367D01*
X149557377Y-85351367D01*
X149553117Y-85341057D01*
X149364964Y-85152575D01*
X149365162Y-84924833D01*
X149223117Y-84581057D01*
X149014990Y-84372566D01*
X149015162Y-84174833D01*
X148873117Y-83831057D01*
X148654981Y-83612540D01*
X148655162Y-83404833D01*
X148513117Y-83061057D01*
X148294990Y-82842549D01*
X148295162Y-82644833D01*
X148153117Y-82301057D01*
X147935016Y-82082575D01*
X147935162Y-81914833D01*
X147793117Y-81571057D01*
X147585007Y-81362584D01*
X147585162Y-81184833D01*
X147443117Y-80841057D01*
X147417862Y-80815757D01*
X157871235Y-80815757D01*
X158013280Y-81159533D01*
X158276070Y-81422782D01*
X158619598Y-81565428D01*
X158991564Y-81565752D01*
X159335340Y-81423707D01*
X159598589Y-81160917D01*
X159741235Y-80817389D01*
X159741559Y-80445423D01*
X159599514Y-80101647D01*
X159336724Y-79838398D01*
X158993196Y-79695752D01*
X158621230Y-79695428D01*
X158277454Y-79837473D01*
X158014205Y-80100263D01*
X157871559Y-80443791D01*
X157871235Y-80815757D01*
X147417862Y-80815757D01*
X147180327Y-80577808D01*
X147135080Y-80559020D01*
X147135162Y-80464833D01*
X146993117Y-80121057D01*
X146730327Y-79857808D01*
X146386799Y-79715162D01*
X146014833Y-79714838D01*
X145671057Y-79856883D01*
X145407808Y-80119673D01*
X145265162Y-80463201D01*
X145264838Y-80835167D01*
X139178898Y-80835167D01*
X139178942Y-80784833D01*
X139036897Y-80441057D01*
X138774107Y-80177808D01*
X138430579Y-80035162D01*
X138058613Y-80034838D01*
X137714837Y-80176883D01*
X137451588Y-80439673D01*
X137308942Y-80783201D01*
X137308618Y-81155167D01*
X126333163Y-81155167D01*
X126269495Y-81091388D01*
X125925967Y-80948742D01*
X125554001Y-80948418D01*
X125210225Y-81090463D01*
X124946976Y-81353253D01*
X124804330Y-81696781D01*
X124804006Y-82068747D01*
X120283785Y-82068747D01*
X119999129Y-81642730D01*
X119684348Y-81432400D01*
X119999129Y-81222070D01*
X120323985Y-80735889D01*
X120438059Y-80162400D01*
X120323985Y-79588911D01*
X119999129Y-79102730D01*
X119684348Y-78892400D01*
X119999129Y-78682070D01*
X120323985Y-78195889D01*
X120438059Y-77622400D01*
X120323985Y-77048911D01*
X120147757Y-76785167D01*
X127724838Y-76785167D01*
X127866883Y-77128943D01*
X128129673Y-77392192D01*
X128473201Y-77534838D01*
X128845167Y-77535162D01*
X129188943Y-77393117D01*
X129452192Y-77130327D01*
X129594838Y-76786799D01*
X129595162Y-76414833D01*
X129453117Y-76071057D01*
X129190327Y-75807808D01*
X128846799Y-75665162D01*
X128474833Y-75664838D01*
X128131057Y-75806883D01*
X127867808Y-76069673D01*
X127725162Y-76413201D01*
X127724838Y-76785167D01*
X120147757Y-76785167D01*
X119999129Y-76562730D01*
X119684348Y-76352400D01*
X119999129Y-76142070D01*
X120323985Y-75655889D01*
X120404201Y-75252615D01*
X135456242Y-75252615D01*
X135598287Y-75596391D01*
X135861077Y-75859640D01*
X136097198Y-75957687D01*
X136196883Y-76198943D01*
X136384718Y-76387106D01*
X136361057Y-76396883D01*
X136097808Y-76659673D01*
X135955162Y-77003201D01*
X135954838Y-77375167D01*
X136096883Y-77718943D01*
X136359673Y-77982192D01*
X136703201Y-78124838D01*
X137075167Y-78125162D01*
X137204946Y-78071539D01*
X137204838Y-78195167D01*
X137329322Y-78496441D01*
X137235162Y-78723201D01*
X137234838Y-79095167D01*
X137376883Y-79438943D01*
X137639673Y-79702192D01*
X137983201Y-79844838D01*
X138355167Y-79845162D01*
X138698943Y-79703117D01*
X138962192Y-79440327D01*
X139104838Y-79096799D01*
X139105162Y-78724833D01*
X138980678Y-78423559D01*
X139074838Y-78196799D01*
X139075162Y-77824833D01*
X139025718Y-77705167D01*
X140794838Y-77705167D01*
X140936883Y-78048943D01*
X141199673Y-78312192D01*
X141543201Y-78454838D01*
X141915167Y-78455162D01*
X142258943Y-78313117D01*
X142315829Y-78256330D01*
X152503470Y-78256330D01*
X152645515Y-78600106D01*
X152889294Y-78844311D01*
X152812232Y-79029895D01*
X152811908Y-79401861D01*
X152953953Y-79745637D01*
X153216743Y-80008886D01*
X153560271Y-80151532D01*
X153932237Y-80151856D01*
X154276013Y-80009811D01*
X154539262Y-79747021D01*
X154681908Y-79403493D01*
X154682218Y-79047087D01*
X158724158Y-79047087D01*
X158866203Y-79390863D01*
X159128993Y-79654112D01*
X159472521Y-79796758D01*
X159844487Y-79797082D01*
X160188263Y-79655037D01*
X160451512Y-79392247D01*
X160594158Y-79048719D01*
X160594482Y-78676753D01*
X160452437Y-78332977D01*
X160189647Y-78069728D01*
X160167383Y-78060483D01*
X160193343Y-78049757D01*
X160456592Y-77786967D01*
X160599238Y-77443439D01*
X160599562Y-77071473D01*
X160457517Y-76727697D01*
X160194727Y-76464448D01*
X159851199Y-76321802D01*
X159479233Y-76321478D01*
X159135457Y-76463523D01*
X158872208Y-76726313D01*
X158729562Y-77069841D01*
X158729238Y-77441807D01*
X158871283Y-77785583D01*
X159134073Y-78048832D01*
X159156337Y-78058077D01*
X159130377Y-78068803D01*
X158867128Y-78331593D01*
X158724482Y-78675121D01*
X158724158Y-79047087D01*
X154682218Y-79047087D01*
X154682232Y-79031527D01*
X154540187Y-78687751D01*
X154296408Y-78443546D01*
X154373470Y-78257962D01*
X154373794Y-77885996D01*
X154231749Y-77542220D01*
X153968959Y-77278971D01*
X153625431Y-77136325D01*
X153253465Y-77136001D01*
X152909689Y-77278046D01*
X152646440Y-77540836D01*
X152503794Y-77884364D01*
X152503470Y-78256330D01*
X142315829Y-78256330D01*
X142522192Y-78050327D01*
X142664838Y-77706799D01*
X142665162Y-77334833D01*
X142523117Y-76991057D01*
X142260327Y-76727808D01*
X141916799Y-76585162D01*
X141544833Y-76584838D01*
X141201057Y-76726883D01*
X140937808Y-76989673D01*
X140795162Y-77333201D01*
X140794838Y-77705167D01*
X139025718Y-77705167D01*
X138933117Y-77481057D01*
X138670327Y-77217808D01*
X138326799Y-77075162D01*
X137954833Y-77074838D01*
X137825054Y-77128461D01*
X137825162Y-77004833D01*
X137683117Y-76661057D01*
X137495282Y-76472894D01*
X137518943Y-76463117D01*
X137536924Y-76445167D01*
X137884838Y-76445167D01*
X138026883Y-76788943D01*
X138289673Y-77052192D01*
X138633201Y-77194838D01*
X139005167Y-77195162D01*
X139348943Y-77053117D01*
X139612192Y-76790327D01*
X139754838Y-76446799D01*
X139754888Y-76389292D01*
X151939305Y-76389292D01*
X152081350Y-76733068D01*
X152344140Y-76996317D01*
X152687668Y-77138963D01*
X153059634Y-77139287D01*
X153403410Y-76997242D01*
X153509062Y-76891774D01*
X153529955Y-76900450D01*
X153901921Y-76900774D01*
X154245697Y-76758729D01*
X154508946Y-76495939D01*
X154651592Y-76152411D01*
X154651916Y-75780445D01*
X154550477Y-75534944D01*
X154626108Y-75352805D01*
X154626432Y-74980839D01*
X154529365Y-74745918D01*
X154666303Y-74689337D01*
X154929552Y-74426547D01*
X155072198Y-74083019D01*
X155072522Y-73711053D01*
X154930477Y-73367277D01*
X154667687Y-73104028D01*
X154324159Y-72961382D01*
X153952193Y-72961058D01*
X153608417Y-73103103D01*
X153345168Y-73365893D01*
X153202522Y-73709421D01*
X153202198Y-74081387D01*
X153299265Y-74316308D01*
X153162327Y-74372889D01*
X152899078Y-74635679D01*
X152756432Y-74979207D01*
X152756180Y-75269021D01*
X152689300Y-75268963D01*
X152345524Y-75411008D01*
X152082275Y-75673798D01*
X151939629Y-76017326D01*
X151939305Y-76389292D01*
X139754888Y-76389292D01*
X139755162Y-76074833D01*
X139613117Y-75731057D01*
X139350327Y-75467808D01*
X139006799Y-75325162D01*
X138634833Y-75324838D01*
X138291057Y-75466883D01*
X138027808Y-75729673D01*
X137885162Y-76073201D01*
X137884838Y-76445167D01*
X137536924Y-76445167D01*
X137782192Y-76200327D01*
X137924838Y-75856799D01*
X137925162Y-75484833D01*
X137783117Y-75141057D01*
X137520327Y-74877808D01*
X137284206Y-74779761D01*
X137184521Y-74538505D01*
X136921731Y-74275256D01*
X136578203Y-74132610D01*
X136206237Y-74132286D01*
X135862461Y-74274331D01*
X135599212Y-74537121D01*
X135456566Y-74880649D01*
X135456242Y-75252615D01*
X120404201Y-75252615D01*
X120438059Y-75082400D01*
X120323985Y-74508911D01*
X119999129Y-74022730D01*
X119684348Y-73812400D01*
X119999129Y-73602070D01*
X120323985Y-73115889D01*
X120433141Y-72567124D01*
X130442494Y-72567124D01*
X130584539Y-72910900D01*
X130847329Y-73174149D01*
X131190857Y-73316795D01*
X131562823Y-73317119D01*
X131906599Y-73175074D01*
X132169848Y-72912284D01*
X132312494Y-72568756D01*
X132312818Y-72196790D01*
X132170773Y-71853014D01*
X131943324Y-71625167D01*
X136544838Y-71625167D01*
X136686883Y-71968943D01*
X136949673Y-72232192D01*
X137293201Y-72374838D01*
X137665167Y-72375162D01*
X137881944Y-72285592D01*
X138193201Y-72414838D01*
X138565167Y-72415162D01*
X138908943Y-72273117D01*
X138932235Y-72249865D01*
X139233201Y-72374838D01*
X139605167Y-72375162D01*
X139702679Y-72334871D01*
X139889673Y-72522192D01*
X140233201Y-72664838D01*
X140605167Y-72665162D01*
X140948943Y-72523117D01*
X141005495Y-72466664D01*
X141163484Y-72624929D01*
X141507012Y-72767575D01*
X141878978Y-72767899D01*
X142222754Y-72625854D01*
X142486003Y-72363064D01*
X142628649Y-72019536D01*
X142628973Y-71647570D01*
X142524683Y-71395167D01*
X143864838Y-71395167D01*
X144006883Y-71738943D01*
X144269673Y-72002192D01*
X144613201Y-72144838D01*
X144985167Y-72145162D01*
X145267338Y-72028571D01*
X145368110Y-72129519D01*
X145711638Y-72272165D01*
X146083604Y-72272489D01*
X146427380Y-72130444D01*
X146430337Y-72127492D01*
X146498157Y-72155653D01*
X146443857Y-72209859D01*
X146301211Y-72553387D01*
X146300887Y-72925353D01*
X146442932Y-73269129D01*
X146705722Y-73532378D01*
X146941141Y-73630133D01*
X147020643Y-73822544D01*
X147283433Y-74085793D01*
X147626961Y-74228439D01*
X147998927Y-74228763D01*
X148219292Y-74137710D01*
X148453201Y-74234838D01*
X148825167Y-74235162D01*
X149043070Y-74145126D01*
X149283201Y-74244838D01*
X149628249Y-74245139D01*
X149628125Y-74387323D01*
X149770170Y-74731099D01*
X150032960Y-74994348D01*
X150376488Y-75136994D01*
X150748454Y-75137318D01*
X151092230Y-74995273D01*
X151312373Y-74775514D01*
X151516020Y-74979517D01*
X151859548Y-75122163D01*
X152231514Y-75122487D01*
X152575290Y-74980442D01*
X152838539Y-74717652D01*
X152981185Y-74374124D01*
X152981509Y-74002158D01*
X152839464Y-73658382D01*
X152576674Y-73395133D01*
X152233146Y-73252487D01*
X151861180Y-73252163D01*
X151517404Y-73394208D01*
X151297261Y-73613967D01*
X151093614Y-73409964D01*
X150750086Y-73267318D01*
X150405038Y-73267017D01*
X150405162Y-73124833D01*
X150263117Y-72781057D01*
X150000327Y-72517808D01*
X149656799Y-72375162D01*
X149284833Y-72374838D01*
X149066930Y-72464874D01*
X148826799Y-72365162D01*
X148454833Y-72364838D01*
X148234468Y-72455891D01*
X148108668Y-72403654D01*
X148029166Y-72211243D01*
X147766376Y-71947994D01*
X147691122Y-71916746D01*
X147745422Y-71862540D01*
X147888068Y-71519012D01*
X147888253Y-71306071D01*
X150546633Y-71306071D01*
X150688678Y-71649847D01*
X150951468Y-71913096D01*
X151294996Y-72055742D01*
X151666962Y-72056066D01*
X152010738Y-71914021D01*
X152273987Y-71651231D01*
X152416633Y-71307703D01*
X152416957Y-70935737D01*
X152274912Y-70591961D01*
X152012122Y-70328712D01*
X151668594Y-70186066D01*
X151296628Y-70185742D01*
X150952852Y-70327787D01*
X150689603Y-70590577D01*
X150546957Y-70934105D01*
X150546633Y-71306071D01*
X147888253Y-71306071D01*
X147888392Y-71147046D01*
X147746347Y-70803270D01*
X147483557Y-70540021D01*
X147140029Y-70397375D01*
X146768063Y-70397051D01*
X146424287Y-70539096D01*
X146421330Y-70542048D01*
X146085236Y-70402489D01*
X145713270Y-70402165D01*
X145431099Y-70518756D01*
X145330327Y-70417808D01*
X144986799Y-70275162D01*
X144614833Y-70274838D01*
X144271057Y-70416883D01*
X144007808Y-70679673D01*
X143865162Y-71023201D01*
X143864838Y-71395167D01*
X142524683Y-71395167D01*
X142486928Y-71303794D01*
X142224138Y-71040545D01*
X141880610Y-70897899D01*
X141508644Y-70897575D01*
X141164868Y-71039620D01*
X141108316Y-71096073D01*
X140950327Y-70937808D01*
X140606799Y-70795162D01*
X140234833Y-70794838D01*
X140137321Y-70835129D01*
X139950327Y-70647808D01*
X139606799Y-70505162D01*
X139234833Y-70504838D01*
X138891057Y-70646883D01*
X138867765Y-70670135D01*
X138566799Y-70545162D01*
X138194833Y-70544838D01*
X137978056Y-70634408D01*
X137666799Y-70505162D01*
X137294833Y-70504838D01*
X136951057Y-70646883D01*
X136687808Y-70909673D01*
X136545162Y-71253201D01*
X136544838Y-71625167D01*
X131943324Y-71625167D01*
X131907983Y-71589765D01*
X131564455Y-71447119D01*
X131192489Y-71446795D01*
X130848713Y-71588840D01*
X130585464Y-71851630D01*
X130442818Y-72195158D01*
X130442494Y-72567124D01*
X120433141Y-72567124D01*
X120438059Y-72542400D01*
X120323985Y-71968911D01*
X120209623Y-71797756D01*
X128063258Y-71797756D01*
X128205303Y-72141532D01*
X128468093Y-72404781D01*
X128811621Y-72547427D01*
X129183587Y-72547751D01*
X129527363Y-72405706D01*
X129790612Y-72142916D01*
X129933258Y-71799388D01*
X129933582Y-71427422D01*
X129791537Y-71083646D01*
X129528747Y-70820397D01*
X129185219Y-70677751D01*
X128813253Y-70677427D01*
X128469477Y-70819472D01*
X128206228Y-71082262D01*
X128063582Y-71425790D01*
X128063258Y-71797756D01*
X120209623Y-71797756D01*
X119999129Y-71482730D01*
X119684348Y-71272400D01*
X119999129Y-71062070D01*
X120323985Y-70575889D01*
X120438059Y-70002400D01*
X120323985Y-69428911D01*
X120046809Y-69014087D01*
X146628678Y-69014087D01*
X146770723Y-69357863D01*
X147033513Y-69621112D01*
X147377041Y-69763758D01*
X147749007Y-69764082D01*
X148092783Y-69622037D01*
X148356032Y-69359247D01*
X148485046Y-69048549D01*
X148757286Y-68936062D01*
X149020535Y-68673272D01*
X149155348Y-68348607D01*
X153865138Y-68348607D01*
X154007183Y-68692383D01*
X154269973Y-68955632D01*
X154613501Y-69098278D01*
X154985467Y-69098602D01*
X155329243Y-68956557D01*
X155592492Y-68693767D01*
X155735138Y-68350239D01*
X155735462Y-67978273D01*
X155593417Y-67634497D01*
X155330627Y-67371248D01*
X154987099Y-67228602D01*
X154615133Y-67228278D01*
X154271357Y-67370323D01*
X154008108Y-67633113D01*
X153865462Y-67976641D01*
X153865138Y-68348607D01*
X149155348Y-68348607D01*
X149163181Y-68329744D01*
X149163505Y-67957778D01*
X149021460Y-67614002D01*
X148758670Y-67350753D01*
X148415142Y-67208107D01*
X148043176Y-67207783D01*
X147699400Y-67349828D01*
X147436151Y-67612618D01*
X147307137Y-67923316D01*
X147034897Y-68035803D01*
X146771648Y-68298593D01*
X146629002Y-68642121D01*
X146628678Y-69014087D01*
X120046809Y-69014087D01*
X119999129Y-68942730D01*
X119684348Y-68732400D01*
X119999129Y-68522070D01*
X120323985Y-68035889D01*
X120438059Y-67462400D01*
X120323985Y-66888911D01*
X119999129Y-66402730D01*
X119684348Y-66192400D01*
X119999129Y-65982070D01*
X120323985Y-65495889D01*
X120438059Y-64922400D01*
X120323985Y-64348911D01*
X119999129Y-63862730D01*
X119684348Y-63652400D01*
X119999129Y-63442070D01*
X120323985Y-62955889D01*
X120394153Y-62603127D01*
X132399598Y-62603127D01*
X132541643Y-62946903D01*
X132804433Y-63210152D01*
X133147961Y-63352798D01*
X133519927Y-63353122D01*
X133863703Y-63211077D01*
X134126952Y-62948287D01*
X134269598Y-62604759D01*
X134269922Y-62232793D01*
X134127877Y-61889017D01*
X133865087Y-61625768D01*
X133521559Y-61483122D01*
X133149593Y-61482798D01*
X132805817Y-61624843D01*
X132542568Y-61887633D01*
X132399922Y-62231161D01*
X132399598Y-62603127D01*
X120394153Y-62603127D01*
X120438059Y-62382400D01*
X120323985Y-61808911D01*
X120121484Y-61505847D01*
X125897198Y-61505847D01*
X126039243Y-61849623D01*
X126302033Y-62112872D01*
X126645561Y-62255518D01*
X127017527Y-62255842D01*
X127361303Y-62113797D01*
X127624552Y-61851007D01*
X127767198Y-61507479D01*
X127767522Y-61135513D01*
X127625477Y-60791737D01*
X127362687Y-60528488D01*
X127019159Y-60385842D01*
X126647193Y-60385518D01*
X126303417Y-60527563D01*
X126040168Y-60790353D01*
X125897522Y-61133881D01*
X125897198Y-61505847D01*
X120121484Y-61505847D01*
X119999129Y-61322730D01*
X119512948Y-60997874D01*
X118939459Y-60883800D01*
X118880741Y-60883800D01*
X118307252Y-60997874D01*
X117841658Y-61308974D01*
X117836862Y-61283483D01*
X117697790Y-61067359D01*
X117485590Y-60922369D01*
X117233700Y-60871360D01*
X115506500Y-60871360D01*
X115271183Y-60915638D01*
X115055059Y-61054710D01*
X114910069Y-61266910D01*
X114859060Y-61518800D01*
X114859060Y-63246000D01*
X114903338Y-63481317D01*
X115042410Y-63697441D01*
X115254610Y-63842431D01*
X115298231Y-63851264D01*
X115281071Y-63862730D01*
X114956215Y-64348911D01*
X114842141Y-64922400D01*
X112787406Y-64922400D01*
X112835043Y-64902717D01*
X113098292Y-64639927D01*
X113240938Y-64296399D01*
X113241262Y-63924433D01*
X113099217Y-63580657D01*
X112836427Y-63317408D01*
X112492899Y-63174762D01*
X112120933Y-63174438D01*
X111777157Y-63316483D01*
X111513908Y-63579273D01*
X111371262Y-63922801D01*
X111370938Y-64294767D01*
X110691068Y-64294767D01*
X110700938Y-64270999D01*
X110701262Y-63899033D01*
X110559217Y-63555257D01*
X110296427Y-63292008D01*
X109952899Y-63149362D01*
X109580933Y-63149038D01*
X109237157Y-63291083D01*
X108973908Y-63553873D01*
X108831262Y-63897401D01*
X108830938Y-64269367D01*
X108101370Y-64269367D01*
X108101370Y-59775167D01*
X130894838Y-59775167D01*
X131036883Y-60118943D01*
X131299673Y-60382192D01*
X131643201Y-60524838D01*
X132015167Y-60525162D01*
X132358943Y-60383117D01*
X132622192Y-60120327D01*
X132764838Y-59776799D01*
X132765162Y-59404833D01*
X132623117Y-59061057D01*
X132360327Y-58797808D01*
X132016799Y-58655162D01*
X131644833Y-58654838D01*
X131301057Y-58796883D01*
X131037808Y-59059673D01*
X130895162Y-59403201D01*
X130894838Y-59775167D01*
X108101370Y-59775167D01*
X108101370Y-58465167D01*
X123464838Y-58465167D01*
X123606883Y-58808943D01*
X123869673Y-59072192D01*
X124213201Y-59214838D01*
X124585167Y-59215162D01*
X124928943Y-59073117D01*
X125192192Y-58810327D01*
X125334838Y-58466799D01*
X125335162Y-58094833D01*
X125193117Y-57751057D01*
X124996012Y-57553607D01*
X129575118Y-57553607D01*
X129717163Y-57897383D01*
X129979953Y-58160632D01*
X130323481Y-58303278D01*
X130695447Y-58303602D01*
X131039223Y-58161557D01*
X131302472Y-57898767D01*
X131445118Y-57555239D01*
X131445442Y-57183273D01*
X131303397Y-56839497D01*
X131040607Y-56576248D01*
X130697079Y-56433602D01*
X130325113Y-56433278D01*
X129981337Y-56575323D01*
X129718088Y-56838113D01*
X129575442Y-57181641D01*
X129575118Y-57553607D01*
X124996012Y-57553607D01*
X124930327Y-57487808D01*
X124586799Y-57345162D01*
X124214833Y-57344838D01*
X123871057Y-57486883D01*
X123607808Y-57749673D01*
X123465162Y-58093201D01*
X123464838Y-58465167D01*
X108101370Y-58465167D01*
X108101370Y-56166767D01*
X132445318Y-56166767D01*
X132587363Y-56510543D01*
X132850153Y-56773792D01*
X133193681Y-56916438D01*
X133565647Y-56916762D01*
X133909423Y-56774717D01*
X134172672Y-56511927D01*
X134315318Y-56168399D01*
X134315642Y-55796433D01*
X134173597Y-55452657D01*
X133910807Y-55189408D01*
X133567279Y-55046762D01*
X133195313Y-55046438D01*
X132851537Y-55188483D01*
X132588288Y-55451273D01*
X132445642Y-55794801D01*
X132445318Y-56166767D01*
X108101370Y-56166767D01*
X108101370Y-50565167D01*
X108824838Y-50565167D01*
X108966883Y-50908943D01*
X109229673Y-51172192D01*
X109283368Y-51194488D01*
X109067808Y-51409673D01*
X108925162Y-51753201D01*
X108924838Y-52125167D01*
X109066883Y-52468943D01*
X109329673Y-52732192D01*
X109673201Y-52874838D01*
X110045167Y-52875162D01*
X110388943Y-52733117D01*
X110652192Y-52470327D01*
X110794838Y-52126799D01*
X110795162Y-51754833D01*
X110653117Y-51411057D01*
X110390327Y-51147808D01*
X110336632Y-51125512D01*
X110552192Y-50910327D01*
X110694838Y-50566799D01*
X110695162Y-50194833D01*
X110553117Y-49851057D01*
X110290327Y-49587808D01*
X110113680Y-49514457D01*
X110358943Y-49413117D01*
X110622192Y-49150327D01*
X110764838Y-48806799D01*
X110765162Y-48434833D01*
X110623117Y-48091057D01*
X110360327Y-47827808D01*
X110112553Y-47724923D01*
X110358943Y-47623117D01*
X110622192Y-47360327D01*
X110764838Y-47016799D01*
X110765162Y-46644833D01*
X110721915Y-46540167D01*
X114756758Y-46540167D01*
X114898803Y-46883943D01*
X115161593Y-47147192D01*
X115244113Y-47181457D01*
X115168057Y-47212883D01*
X114904808Y-47475673D01*
X114762162Y-47819201D01*
X114761838Y-48191167D01*
X114903883Y-48534943D01*
X115166673Y-48798192D01*
X115234395Y-48826313D01*
X115168057Y-48853723D01*
X114904808Y-49116513D01*
X114762162Y-49460041D01*
X114761838Y-49832007D01*
X114903883Y-50175783D01*
X115166673Y-50439032D01*
X115256390Y-50476286D01*
X115162977Y-50514883D01*
X114899728Y-50777673D01*
X114757082Y-51121201D01*
X114756758Y-51493167D01*
X114898803Y-51836943D01*
X115161593Y-52100192D01*
X115505121Y-52242838D01*
X115877087Y-52243162D01*
X116220863Y-52101117D01*
X116484112Y-51838327D01*
X116626758Y-51494799D01*
X116627082Y-51122833D01*
X116485037Y-50779057D01*
X116222247Y-50515808D01*
X116132530Y-50478554D01*
X116225943Y-50439957D01*
X116489192Y-50177167D01*
X116631838Y-49833639D01*
X116632162Y-49461673D01*
X116490117Y-49117897D01*
X116227327Y-48854648D01*
X116159605Y-48826527D01*
X116225943Y-48799117D01*
X116489192Y-48536327D01*
X116631838Y-48192799D01*
X116632162Y-47820833D01*
X116490117Y-47477057D01*
X116227327Y-47213808D01*
X116144807Y-47179543D01*
X116220863Y-47148117D01*
X116484112Y-46885327D01*
X116626758Y-46541799D01*
X116627082Y-46169833D01*
X116485037Y-45826057D01*
X116222247Y-45562808D01*
X115878719Y-45420162D01*
X115506753Y-45419838D01*
X115162977Y-45561883D01*
X114899728Y-45824673D01*
X114757082Y-46168201D01*
X114756758Y-46540167D01*
X110721915Y-46540167D01*
X110623117Y-46301057D01*
X110360327Y-46037808D01*
X110016799Y-45895162D01*
X109644833Y-45894838D01*
X109301057Y-46036883D01*
X109037808Y-46299673D01*
X108895162Y-46643201D01*
X108894838Y-47015167D01*
X109036883Y-47358943D01*
X109299673Y-47622192D01*
X109547447Y-47725077D01*
X109301057Y-47826883D01*
X109037808Y-48089673D01*
X108895162Y-48433201D01*
X108894838Y-48805167D01*
X109036883Y-49148943D01*
X109299673Y-49412192D01*
X109476320Y-49485543D01*
X109231057Y-49586883D01*
X108967808Y-49849673D01*
X108825162Y-50193201D01*
X108824838Y-50565167D01*
X108101370Y-50565167D01*
X108101370Y-49110066D01*
X108547818Y-46865621D01*
X109783697Y-45015997D01*
X110026730Y-44853607D01*
X119719918Y-44853607D01*
X119861963Y-45197383D01*
X120124753Y-45460632D01*
X120468281Y-45603278D01*
X120840247Y-45603602D01*
X121184023Y-45461557D01*
X121447272Y-45198767D01*
X121589918Y-44855239D01*
X121589919Y-44853607D01*
X125292678Y-44853607D01*
X125434723Y-45197383D01*
X125697513Y-45460632D01*
X126041041Y-45603278D01*
X126413007Y-45603602D01*
X126756783Y-45461557D01*
X127020032Y-45198767D01*
X127162678Y-44855239D01*
X127163002Y-44483273D01*
X127020957Y-44139497D01*
X126758167Y-43876248D01*
X126414639Y-43733602D01*
X126042673Y-43733278D01*
X125698897Y-43875323D01*
X125435648Y-44138113D01*
X125293002Y-44481641D01*
X125292678Y-44853607D01*
X121589919Y-44853607D01*
X121590242Y-44483273D01*
X121448197Y-44139497D01*
X121185407Y-43876248D01*
X120841879Y-43733602D01*
X120469913Y-43733278D01*
X120126137Y-43875323D01*
X119862888Y-44138113D01*
X119720242Y-44481641D01*
X119719918Y-44853607D01*
X110026730Y-44853607D01*
X111633321Y-43780118D01*
X113877766Y-43333670D01*
X134783830Y-43333670D01*
X134783830Y-64287400D01*
M02*
