G04 #@! TF.GenerationSoftware,KiCad,Pcbnew,(2017-08-02 revision 9760937)-master*
G04 #@! TF.CreationDate,2018-04-02T13:15:28-05:00*
G04 #@! TF.ProjectId,beagle-wire,626561676C652D776972652E6B696361,rev?*
G04 #@! TF.SameCoordinates,Original*
G04 #@! TF.FileFunction,Legend,Top*
G04 #@! TF.FilePolarity,Positive*
%FSLAX46Y46*%
G04 Gerber Fmt 4.6, Leading zero omitted, Abs format (unit mm)*
G04 Created by KiCad (PCBNEW (2017-08-02 revision 9760937)-master) date Mon Apr  2 13:15:28 2018*
%MOMM*%
%LPD*%
G01*
G04 APERTURE LIST*
%ADD10C,0.200000*%
%ADD11C,0.100000*%
%ADD12C,0.300000*%
%ADD13C,0.254000*%
%ADD14C,0.400000*%
%ADD15C,0.150000*%
%ADD16C,0.120000*%
G04 APERTURE END LIST*
D10*
X121302649Y-130461628D02*
X121350744Y-130317342D01*
X121350744Y-130076866D01*
X121302649Y-129980676D01*
X121254554Y-129932580D01*
X121158363Y-129884485D01*
X121062173Y-129884485D01*
X120965982Y-129932580D01*
X120917887Y-129980676D01*
X120869792Y-130076866D01*
X120821697Y-130269247D01*
X120773601Y-130365438D01*
X120725506Y-130413533D01*
X120629316Y-130461628D01*
X120533125Y-130461628D01*
X120436935Y-130413533D01*
X120388840Y-130365438D01*
X120340744Y-130269247D01*
X120340744Y-130028771D01*
X120388840Y-129884485D01*
X121350744Y-129451628D02*
X120340744Y-129451628D01*
X120340744Y-129211152D01*
X120388840Y-129066866D01*
X120485030Y-128970676D01*
X120581220Y-128922580D01*
X120773601Y-128874485D01*
X120917887Y-128874485D01*
X121110268Y-128922580D01*
X121206459Y-128970676D01*
X121302649Y-129066866D01*
X121350744Y-129211152D01*
X121350744Y-129451628D01*
X121062173Y-128489723D02*
X121062173Y-128008771D01*
X121350744Y-128585914D02*
X120340744Y-128249247D01*
X121350744Y-127912580D01*
X119260489Y-130315660D02*
X119308584Y-130171375D01*
X119308584Y-129930899D01*
X119260489Y-129834708D01*
X119212394Y-129786613D01*
X119116203Y-129738518D01*
X119020013Y-129738518D01*
X118923822Y-129786613D01*
X118875727Y-129834708D01*
X118827632Y-129930899D01*
X118779537Y-130123280D01*
X118731441Y-130219470D01*
X118683346Y-130267565D01*
X118587156Y-130315660D01*
X118490965Y-130315660D01*
X118394775Y-130267565D01*
X118346680Y-130219470D01*
X118298584Y-130123280D01*
X118298584Y-129882803D01*
X118346680Y-129738518D01*
X119212394Y-128728518D02*
X119260489Y-128776613D01*
X119308584Y-128920899D01*
X119308584Y-129017089D01*
X119260489Y-129161375D01*
X119164299Y-129257565D01*
X119068108Y-129305660D01*
X118875727Y-129353756D01*
X118731441Y-129353756D01*
X118539060Y-129305660D01*
X118442870Y-129257565D01*
X118346680Y-129161375D01*
X118298584Y-129017089D01*
X118298584Y-128920899D01*
X118346680Y-128776613D01*
X118394775Y-128728518D01*
X119308584Y-127814708D02*
X119308584Y-128295660D01*
X118298584Y-128295660D01*
X132366889Y-130356300D02*
X132414984Y-130212015D01*
X132414984Y-129971539D01*
X132366889Y-129875348D01*
X132318794Y-129827253D01*
X132222603Y-129779158D01*
X132126413Y-129779158D01*
X132030222Y-129827253D01*
X131982127Y-129875348D01*
X131934032Y-129971539D01*
X131885937Y-130163920D01*
X131837841Y-130260110D01*
X131789746Y-130308205D01*
X131693556Y-130356300D01*
X131597365Y-130356300D01*
X131501175Y-130308205D01*
X131453080Y-130260110D01*
X131404984Y-130163920D01*
X131404984Y-129923443D01*
X131453080Y-129779158D01*
X132318794Y-128769158D02*
X132366889Y-128817253D01*
X132414984Y-128961539D01*
X132414984Y-129057729D01*
X132366889Y-129202015D01*
X132270699Y-129298205D01*
X132174508Y-129346300D01*
X131982127Y-129394396D01*
X131837841Y-129394396D01*
X131645460Y-129346300D01*
X131549270Y-129298205D01*
X131453080Y-129202015D01*
X131404984Y-129057729D01*
X131404984Y-128961539D01*
X131453080Y-128817253D01*
X131501175Y-128769158D01*
X132414984Y-127855348D02*
X132414984Y-128336300D01*
X131404984Y-128336300D01*
X134297289Y-130420988D02*
X134345384Y-130276702D01*
X134345384Y-130036226D01*
X134297289Y-129940036D01*
X134249194Y-129891940D01*
X134153003Y-129843845D01*
X134056813Y-129843845D01*
X133960622Y-129891940D01*
X133912527Y-129940036D01*
X133864432Y-130036226D01*
X133816337Y-130228607D01*
X133768241Y-130324798D01*
X133720146Y-130372893D01*
X133623956Y-130420988D01*
X133527765Y-130420988D01*
X133431575Y-130372893D01*
X133383480Y-130324798D01*
X133335384Y-130228607D01*
X133335384Y-129988131D01*
X133383480Y-129843845D01*
X134345384Y-129410988D02*
X133335384Y-129410988D01*
X133335384Y-129170512D01*
X133383480Y-129026226D01*
X133479670Y-128930036D01*
X133575860Y-128881940D01*
X133768241Y-128833845D01*
X133912527Y-128833845D01*
X134104908Y-128881940D01*
X134201099Y-128930036D01*
X134297289Y-129026226D01*
X134345384Y-129170512D01*
X134345384Y-129410988D01*
X134056813Y-128449083D02*
X134056813Y-127968131D01*
X134345384Y-128545274D02*
X133335384Y-128208607D01*
X134345384Y-127871940D01*
X163873640Y-130207923D02*
X163825544Y-130304114D01*
X163825544Y-130448400D01*
X163873640Y-130592685D01*
X163969830Y-130688876D01*
X164066020Y-130736971D01*
X164258401Y-130785066D01*
X164402687Y-130785066D01*
X164595068Y-130736971D01*
X164691259Y-130688876D01*
X164787449Y-130592685D01*
X164835544Y-130448400D01*
X164835544Y-130352209D01*
X164787449Y-130207923D01*
X164739354Y-130159828D01*
X164402687Y-130159828D01*
X164402687Y-130352209D01*
X164835544Y-129726971D02*
X163825544Y-129726971D01*
X164835544Y-129149828D01*
X163825544Y-129149828D01*
X164835544Y-128668876D02*
X163825544Y-128668876D01*
X163825544Y-128428400D01*
X163873640Y-128284114D01*
X163969830Y-128187923D01*
X164066020Y-128139828D01*
X164258401Y-128091733D01*
X164402687Y-128091733D01*
X164595068Y-128139828D01*
X164691259Y-128187923D01*
X164787449Y-128284114D01*
X164835544Y-128428400D01*
X164835544Y-128668876D01*
X160553104Y-129492996D02*
X159543104Y-129492996D01*
X159543104Y-129252520D01*
X159591200Y-129108234D01*
X159687390Y-129012043D01*
X159783580Y-128963948D01*
X159975961Y-128915853D01*
X160120247Y-128915853D01*
X160312628Y-128963948D01*
X160408819Y-129012043D01*
X160505009Y-129108234D01*
X160553104Y-129252520D01*
X160553104Y-129492996D01*
X159543104Y-128579186D02*
X159543104Y-127953948D01*
X159927866Y-128290615D01*
X159927866Y-128146329D01*
X159975961Y-128050139D01*
X160024057Y-128002043D01*
X160120247Y-127953948D01*
X160360723Y-127953948D01*
X160456914Y-128002043D01*
X160505009Y-128050139D01*
X160553104Y-128146329D01*
X160553104Y-128434900D01*
X160505009Y-128531091D01*
X160456914Y-128579186D01*
X135260704Y-130490426D02*
X136270704Y-130153760D01*
X135260704Y-129817093D01*
X136174514Y-128903283D02*
X136222609Y-128951379D01*
X136270704Y-129095664D01*
X136270704Y-129191855D01*
X136222609Y-129336140D01*
X136126419Y-129432331D01*
X136030228Y-129480426D01*
X135837847Y-129528521D01*
X135693561Y-129528521D01*
X135501180Y-129480426D01*
X135404990Y-129432331D01*
X135308800Y-129336140D01*
X135260704Y-129191855D01*
X135260704Y-129095664D01*
X135308800Y-128951379D01*
X135356895Y-128903283D01*
X136174514Y-127893283D02*
X136222609Y-127941379D01*
X136270704Y-128085664D01*
X136270704Y-128181855D01*
X136222609Y-128326140D01*
X136126419Y-128422331D01*
X136030228Y-128470426D01*
X135837847Y-128518521D01*
X135693561Y-128518521D01*
X135501180Y-128470426D01*
X135404990Y-128422331D01*
X135308800Y-128326140D01*
X135260704Y-128181855D01*
X135260704Y-128085664D01*
X135308800Y-127941379D01*
X135356895Y-127893283D01*
X158536344Y-129487916D02*
X157526344Y-129487916D01*
X157526344Y-129247440D01*
X157574440Y-129103154D01*
X157670630Y-129006963D01*
X157766820Y-128958868D01*
X157959201Y-128910773D01*
X158103487Y-128910773D01*
X158295868Y-128958868D01*
X158392059Y-129006963D01*
X158488249Y-129103154D01*
X158536344Y-129247440D01*
X158536344Y-129487916D01*
X157622535Y-128526011D02*
X157574440Y-128477916D01*
X157526344Y-128381725D01*
X157526344Y-128141249D01*
X157574440Y-128045059D01*
X157622535Y-127996963D01*
X157718725Y-127948868D01*
X157814916Y-127948868D01*
X157959201Y-127996963D01*
X158536344Y-128574106D01*
X158536344Y-127948868D01*
X150569120Y-130050443D02*
X150521024Y-130146634D01*
X150521024Y-130290920D01*
X150569120Y-130435205D01*
X150665310Y-130531396D01*
X150761500Y-130579491D01*
X150953881Y-130627586D01*
X151098167Y-130627586D01*
X151290548Y-130579491D01*
X151386739Y-130531396D01*
X151482929Y-130435205D01*
X151531024Y-130290920D01*
X151531024Y-130194729D01*
X151482929Y-130050443D01*
X151434834Y-130002348D01*
X151098167Y-130002348D01*
X151098167Y-130194729D01*
X151531024Y-129569491D02*
X150521024Y-129569491D01*
X151531024Y-128992348D01*
X150521024Y-128992348D01*
X151531024Y-128511396D02*
X150521024Y-128511396D01*
X150521024Y-128270920D01*
X150569120Y-128126634D01*
X150665310Y-128030443D01*
X150761500Y-127982348D01*
X150953881Y-127934253D01*
X151098167Y-127934253D01*
X151290548Y-127982348D01*
X151386739Y-128030443D01*
X151482929Y-128126634D01*
X151531024Y-128270920D01*
X151531024Y-128511396D01*
X148417904Y-130551386D02*
X149427904Y-130214720D01*
X148417904Y-129878053D01*
X149331714Y-128964243D02*
X149379809Y-129012339D01*
X149427904Y-129156624D01*
X149427904Y-129252815D01*
X149379809Y-129397100D01*
X149283619Y-129493291D01*
X149187428Y-129541386D01*
X148995047Y-129589481D01*
X148850761Y-129589481D01*
X148658380Y-129541386D01*
X148562190Y-129493291D01*
X148466000Y-129397100D01*
X148417904Y-129252815D01*
X148417904Y-129156624D01*
X148466000Y-129012339D01*
X148514095Y-128964243D01*
X149331714Y-127954243D02*
X149379809Y-128002339D01*
X149427904Y-128146624D01*
X149427904Y-128242815D01*
X149379809Y-128387100D01*
X149283619Y-128483291D01*
X149187428Y-128531386D01*
X148995047Y-128579481D01*
X148850761Y-128579481D01*
X148658380Y-128531386D01*
X148562190Y-128483291D01*
X148466000Y-128387100D01*
X148417904Y-128242815D01*
X148417904Y-128146624D01*
X148466000Y-128002339D01*
X148514095Y-127954243D01*
X161600504Y-130607266D02*
X162610504Y-130270600D01*
X161600504Y-129933933D01*
X162514314Y-129020123D02*
X162562409Y-129068219D01*
X162610504Y-129212504D01*
X162610504Y-129308695D01*
X162562409Y-129452980D01*
X162466219Y-129549171D01*
X162370028Y-129597266D01*
X162177647Y-129645361D01*
X162033361Y-129645361D01*
X161840980Y-129597266D01*
X161744790Y-129549171D01*
X161648600Y-129452980D01*
X161600504Y-129308695D01*
X161600504Y-129212504D01*
X161648600Y-129068219D01*
X161696695Y-129020123D01*
X162514314Y-128010123D02*
X162562409Y-128058219D01*
X162610504Y-128202504D01*
X162610504Y-128298695D01*
X162562409Y-128442980D01*
X162466219Y-128539171D01*
X162370028Y-128587266D01*
X162177647Y-128635361D01*
X162033361Y-128635361D01*
X161840980Y-128587266D01*
X161744790Y-128539171D01*
X161648600Y-128442980D01*
X161600504Y-128298695D01*
X161600504Y-128202504D01*
X161648600Y-128058219D01*
X161696695Y-128010123D01*
X137437320Y-130019963D02*
X137389224Y-130116154D01*
X137389224Y-130260440D01*
X137437320Y-130404725D01*
X137533510Y-130500916D01*
X137629700Y-130549011D01*
X137822081Y-130597106D01*
X137966367Y-130597106D01*
X138158748Y-130549011D01*
X138254939Y-130500916D01*
X138351129Y-130404725D01*
X138399224Y-130260440D01*
X138399224Y-130164249D01*
X138351129Y-130019963D01*
X138303034Y-129971868D01*
X137966367Y-129971868D01*
X137966367Y-130164249D01*
X138399224Y-129539011D02*
X137389224Y-129539011D01*
X138399224Y-128961868D01*
X137389224Y-128961868D01*
X138399224Y-128480916D02*
X137389224Y-128480916D01*
X137389224Y-128240440D01*
X137437320Y-128096154D01*
X137533510Y-127999963D01*
X137629700Y-127951868D01*
X137822081Y-127903773D01*
X137966367Y-127903773D01*
X138158748Y-127951868D01*
X138254939Y-127999963D01*
X138351129Y-128096154D01*
X138399224Y-128240440D01*
X138399224Y-128480916D01*
X145511224Y-129498076D02*
X144501224Y-129498076D01*
X144501224Y-129257600D01*
X144549320Y-129113314D01*
X144645510Y-129017123D01*
X144741700Y-128969028D01*
X144934081Y-128920933D01*
X145078367Y-128920933D01*
X145270748Y-128969028D01*
X145366939Y-129017123D01*
X145463129Y-129113314D01*
X145511224Y-129257600D01*
X145511224Y-129498076D01*
X144501224Y-128295695D02*
X144501224Y-128199504D01*
X144549320Y-128103314D01*
X144597415Y-128055219D01*
X144693605Y-128007123D01*
X144885986Y-127959028D01*
X145126462Y-127959028D01*
X145318843Y-128007123D01*
X145415034Y-128055219D01*
X145463129Y-128103314D01*
X145511224Y-128199504D01*
X145511224Y-128295695D01*
X145463129Y-128391885D01*
X145415034Y-128439980D01*
X145318843Y-128488076D01*
X145126462Y-128536171D01*
X144885986Y-128536171D01*
X144693605Y-128488076D01*
X144597415Y-128439980D01*
X144549320Y-128391885D01*
X144501224Y-128295695D01*
X147416224Y-129508236D02*
X146406224Y-129508236D01*
X146406224Y-129267760D01*
X146454320Y-129123474D01*
X146550510Y-129027283D01*
X146646700Y-128979188D01*
X146839081Y-128931093D01*
X146983367Y-128931093D01*
X147175748Y-128979188D01*
X147271939Y-129027283D01*
X147368129Y-129123474D01*
X147416224Y-129267760D01*
X147416224Y-129508236D01*
X147416224Y-127969188D02*
X147416224Y-128546331D01*
X147416224Y-128257760D02*
X146406224Y-128257760D01*
X146550510Y-128353950D01*
X146646700Y-128450140D01*
X146694796Y-128546331D01*
X124361400Y-130065683D02*
X124313304Y-130161874D01*
X124313304Y-130306160D01*
X124361400Y-130450445D01*
X124457590Y-130546636D01*
X124553780Y-130594731D01*
X124746161Y-130642826D01*
X124890447Y-130642826D01*
X125082828Y-130594731D01*
X125179019Y-130546636D01*
X125275209Y-130450445D01*
X125323304Y-130306160D01*
X125323304Y-130209969D01*
X125275209Y-130065683D01*
X125227114Y-130017588D01*
X124890447Y-130017588D01*
X124890447Y-130209969D01*
X125323304Y-129584731D02*
X124313304Y-129584731D01*
X125323304Y-129007588D01*
X124313304Y-129007588D01*
X125323304Y-128526636D02*
X124313304Y-128526636D01*
X124313304Y-128286160D01*
X124361400Y-128141874D01*
X124457590Y-128045683D01*
X124553780Y-127997588D01*
X124746161Y-127949493D01*
X124890447Y-127949493D01*
X125082828Y-127997588D01*
X125179019Y-128045683D01*
X125275209Y-128141874D01*
X125323304Y-128286160D01*
X125323304Y-128526636D01*
X122398144Y-130581866D02*
X123408144Y-130245200D01*
X122398144Y-129908533D01*
X123311954Y-128994723D02*
X123360049Y-129042819D01*
X123408144Y-129187104D01*
X123408144Y-129283295D01*
X123360049Y-129427580D01*
X123263859Y-129523771D01*
X123167668Y-129571866D01*
X122975287Y-129619961D01*
X122831001Y-129619961D01*
X122638620Y-129571866D01*
X122542430Y-129523771D01*
X122446240Y-129427580D01*
X122398144Y-129283295D01*
X122398144Y-129187104D01*
X122446240Y-129042819D01*
X122494335Y-128994723D01*
X123311954Y-127984723D02*
X123360049Y-128032819D01*
X123408144Y-128177104D01*
X123408144Y-128273295D01*
X123360049Y-128417580D01*
X123263859Y-128513771D01*
X123167668Y-128561866D01*
X122975287Y-128609961D01*
X122831001Y-128609961D01*
X122638620Y-128561866D01*
X122542430Y-128513771D01*
X122446240Y-128417580D01*
X122398144Y-128273295D01*
X122398144Y-128177104D01*
X122446240Y-128032819D01*
X122494335Y-127984723D01*
D11*
X156712466Y-93001266D02*
X156712466Y-92301266D01*
X157112466Y-93001266D02*
X156812466Y-92601266D01*
X157112466Y-92301266D02*
X156712466Y-92701266D01*
D12*
X160165171Y-116850714D02*
X159165171Y-116850714D01*
X158665171Y-116850714D02*
X158736600Y-116922142D01*
X158808028Y-116850714D01*
X158736600Y-116779285D01*
X158665171Y-116850714D01*
X158808028Y-116850714D01*
X160022314Y-115279285D02*
X160093742Y-115350714D01*
X160165171Y-115565000D01*
X160165171Y-115707857D01*
X160093742Y-115922142D01*
X159950885Y-116065000D01*
X159808028Y-116136428D01*
X159522314Y-116207857D01*
X159308028Y-116207857D01*
X159022314Y-116136428D01*
X158879457Y-116065000D01*
X158736600Y-115922142D01*
X158665171Y-115707857D01*
X158665171Y-115565000D01*
X158736600Y-115350714D01*
X158808028Y-115279285D01*
X159379457Y-114636428D02*
X159379457Y-114136428D01*
X160165171Y-113922142D02*
X160165171Y-114636428D01*
X158665171Y-114636428D01*
X158665171Y-113922142D01*
X159165171Y-112636428D02*
X160165171Y-112636428D01*
X158593742Y-112993571D02*
X159665171Y-113350714D01*
X159665171Y-112422142D01*
X158665171Y-111565000D02*
X158665171Y-111422142D01*
X158736600Y-111279285D01*
X158808028Y-111207857D01*
X158950885Y-111136428D01*
X159236600Y-111065000D01*
X159593742Y-111065000D01*
X159879457Y-111136428D01*
X160022314Y-111207857D01*
X160093742Y-111279285D01*
X160165171Y-111422142D01*
X160165171Y-111565000D01*
X160093742Y-111707857D01*
X160022314Y-111779285D01*
X159879457Y-111850714D01*
X159593742Y-111922142D01*
X159236600Y-111922142D01*
X158950885Y-111850714D01*
X158808028Y-111779285D01*
X158736600Y-111707857D01*
X158665171Y-111565000D01*
X159379457Y-108779285D02*
X159379457Y-109279285D01*
X160165171Y-109279285D02*
X158665171Y-109279285D01*
X158665171Y-108565000D01*
X160165171Y-107993571D02*
X158665171Y-107993571D01*
X158665171Y-107422142D01*
X158736600Y-107279285D01*
X158808028Y-107207857D01*
X158950885Y-107136428D01*
X159165171Y-107136428D01*
X159308028Y-107207857D01*
X159379457Y-107279285D01*
X159450885Y-107422142D01*
X159450885Y-107993571D01*
X158736600Y-105707857D02*
X158665171Y-105850714D01*
X158665171Y-106065000D01*
X158736600Y-106279285D01*
X158879457Y-106422142D01*
X159022314Y-106493571D01*
X159308028Y-106565000D01*
X159522314Y-106565000D01*
X159808028Y-106493571D01*
X159950885Y-106422142D01*
X160093742Y-106279285D01*
X160165171Y-106065000D01*
X160165171Y-105922142D01*
X160093742Y-105707857D01*
X160022314Y-105636428D01*
X159522314Y-105636428D01*
X159522314Y-105922142D01*
X159736600Y-105065000D02*
X159736600Y-104350714D01*
X160165171Y-105207857D02*
X158665171Y-104707857D01*
X160165171Y-104207857D01*
X160022314Y-101707857D02*
X160093742Y-101779285D01*
X160165171Y-101993571D01*
X160165171Y-102136428D01*
X160093742Y-102350714D01*
X159950885Y-102493571D01*
X159808028Y-102565000D01*
X159522314Y-102636428D01*
X159308028Y-102636428D01*
X159022314Y-102565000D01*
X158879457Y-102493571D01*
X158736600Y-102350714D01*
X158665171Y-102136428D01*
X158665171Y-101993571D01*
X158736600Y-101779285D01*
X158808028Y-101707857D01*
X160165171Y-100422142D02*
X159379457Y-100422142D01*
X159236600Y-100493571D01*
X159165171Y-100636428D01*
X159165171Y-100922142D01*
X159236600Y-101065000D01*
X160093742Y-100422142D02*
X160165171Y-100565000D01*
X160165171Y-100922142D01*
X160093742Y-101065000D01*
X159950885Y-101136428D01*
X159808028Y-101136428D01*
X159665171Y-101065000D01*
X159593742Y-100922142D01*
X159593742Y-100565000D01*
X159522314Y-100422142D01*
X159165171Y-99707857D02*
X160665171Y-99707857D01*
X159236600Y-99707857D02*
X159165171Y-99565000D01*
X159165171Y-99279285D01*
X159236600Y-99136428D01*
X159308028Y-99065000D01*
X159450885Y-98993571D01*
X159879457Y-98993571D01*
X160022314Y-99065000D01*
X160093742Y-99136428D01*
X160165171Y-99279285D01*
X160165171Y-99565000D01*
X160093742Y-99707857D01*
X160093742Y-97779285D02*
X160165171Y-97922142D01*
X160165171Y-98207857D01*
X160093742Y-98350714D01*
X159950885Y-98422142D01*
X159379457Y-98422142D01*
X159236600Y-98350714D01*
X159165171Y-98207857D01*
X159165171Y-97922142D01*
X159236600Y-97779285D01*
X159379457Y-97707857D01*
X159522314Y-97707857D01*
X159665171Y-98422142D01*
X170878971Y-68446400D02*
X169878971Y-68446400D01*
X170021828Y-68446400D02*
X169950400Y-68374971D01*
X169878971Y-68232114D01*
X169878971Y-68017828D01*
X169950400Y-67874971D01*
X170093257Y-67803542D01*
X170878971Y-67803542D01*
X170093257Y-67803542D02*
X169950400Y-67732114D01*
X169878971Y-67589257D01*
X169878971Y-67374971D01*
X169950400Y-67232114D01*
X170093257Y-67160685D01*
X170878971Y-67160685D01*
X171021828Y-66803542D02*
X171021828Y-65660685D01*
X169878971Y-65446400D02*
X170878971Y-65160685D01*
X170164685Y-64874971D01*
X170878971Y-64589257D01*
X169878971Y-64303542D01*
X172428971Y-71339257D02*
X173928971Y-71339257D01*
X172500400Y-71339257D02*
X172428971Y-71196400D01*
X172428971Y-70910685D01*
X172500400Y-70767828D01*
X172571828Y-70696400D01*
X172714685Y-70624971D01*
X173143257Y-70624971D01*
X173286114Y-70696400D01*
X173357542Y-70767828D01*
X173428971Y-70910685D01*
X173428971Y-71196400D01*
X173357542Y-71339257D01*
X173428971Y-69982114D02*
X172428971Y-69982114D01*
X172571828Y-69982114D02*
X172500400Y-69910685D01*
X172428971Y-69767828D01*
X172428971Y-69553542D01*
X172500400Y-69410685D01*
X172643257Y-69339257D01*
X173428971Y-69339257D01*
X172643257Y-69339257D02*
X172500400Y-69267828D01*
X172428971Y-69124971D01*
X172428971Y-68910685D01*
X172500400Y-68767828D01*
X172643257Y-68696400D01*
X173428971Y-68696400D01*
X173357542Y-67410685D02*
X173428971Y-67553542D01*
X173428971Y-67839257D01*
X173357542Y-67982114D01*
X173214685Y-68053542D01*
X172643257Y-68053542D01*
X172500400Y-67982114D01*
X172428971Y-67839257D01*
X172428971Y-67553542D01*
X172500400Y-67410685D01*
X172643257Y-67339257D01*
X172786114Y-67339257D01*
X172928971Y-68053542D01*
X172428971Y-66839257D02*
X172428971Y-66053542D01*
X173428971Y-66839257D01*
X173428971Y-66053542D01*
X172428971Y-65624971D02*
X173428971Y-65267828D01*
X172428971Y-64910685D02*
X173428971Y-65267828D01*
X173786114Y-65410685D01*
X173857542Y-65482114D01*
X173928971Y-65624971D01*
X173428971Y-63696400D02*
X171928971Y-63696400D01*
X173357542Y-63696400D02*
X173428971Y-63839257D01*
X173428971Y-64124971D01*
X173357542Y-64267828D01*
X173286114Y-64339257D01*
X173143257Y-64410685D01*
X172714685Y-64410685D01*
X172571828Y-64339257D01*
X172500400Y-64267828D01*
X172428971Y-64124971D01*
X172428971Y-63839257D01*
X172500400Y-63696400D01*
X173428971Y-62767828D02*
X173357542Y-62910685D01*
X173214685Y-62982114D01*
X171928971Y-62982114D01*
X173428971Y-61982114D02*
X173357542Y-62124971D01*
X173286114Y-62196400D01*
X173143257Y-62267828D01*
X172714685Y-62267828D01*
X172571828Y-62196400D01*
X172500400Y-62124971D01*
X172428971Y-61982114D01*
X172428971Y-61767828D01*
X172500400Y-61624971D01*
X172571828Y-61553542D01*
X172714685Y-61482114D01*
X173143257Y-61482114D01*
X173286114Y-61553542D01*
X173357542Y-61624971D01*
X173428971Y-61767828D01*
X173428971Y-61982114D01*
D13*
X131168019Y-44701339D02*
X130829352Y-44217529D01*
X130587447Y-44701339D02*
X130587447Y-43685339D01*
X130974495Y-43685339D01*
X131071257Y-43733720D01*
X131119638Y-43782100D01*
X131168019Y-43878862D01*
X131168019Y-44024005D01*
X131119638Y-44120767D01*
X131071257Y-44169148D01*
X130974495Y-44217529D01*
X130587447Y-44217529D01*
X131555066Y-44652958D02*
X131700209Y-44701339D01*
X131942114Y-44701339D01*
X132038876Y-44652958D01*
X132087257Y-44604577D01*
X132135638Y-44507815D01*
X132135638Y-44411053D01*
X132087257Y-44314291D01*
X132038876Y-44265910D01*
X131942114Y-44217529D01*
X131748590Y-44169148D01*
X131651828Y-44120767D01*
X131603447Y-44072386D01*
X131555066Y-43975624D01*
X131555066Y-43878862D01*
X131603447Y-43782100D01*
X131651828Y-43733720D01*
X131748590Y-43685339D01*
X131990495Y-43685339D01*
X132135638Y-43733720D01*
X132425923Y-43685339D02*
X133006495Y-43685339D01*
X132716209Y-44701339D02*
X132716209Y-43685339D01*
X124578775Y-43665019D02*
X124578775Y-44487495D01*
X124627156Y-44584257D01*
X124675537Y-44632638D01*
X124772299Y-44681019D01*
X124965822Y-44681019D01*
X125062584Y-44632638D01*
X125110965Y-44584257D01*
X125159346Y-44487495D01*
X125159346Y-43665019D01*
X125594775Y-44632638D02*
X125739918Y-44681019D01*
X125981822Y-44681019D01*
X126078584Y-44632638D01*
X126126965Y-44584257D01*
X126175346Y-44487495D01*
X126175346Y-44390733D01*
X126126965Y-44293971D01*
X126078584Y-44245590D01*
X125981822Y-44197209D01*
X125788299Y-44148828D01*
X125691537Y-44100447D01*
X125643156Y-44052066D01*
X125594775Y-43955304D01*
X125594775Y-43858542D01*
X125643156Y-43761780D01*
X125691537Y-43713400D01*
X125788299Y-43665019D01*
X126030203Y-43665019D01*
X126175346Y-43713400D01*
X127191346Y-44681019D02*
X126852680Y-44197209D01*
X126610775Y-44681019D02*
X126610775Y-43665019D01*
X126997822Y-43665019D01*
X127094584Y-43713400D01*
X127142965Y-43761780D01*
X127191346Y-43858542D01*
X127191346Y-44003685D01*
X127142965Y-44100447D01*
X127094584Y-44148828D01*
X126997822Y-44197209D01*
X126610775Y-44197209D01*
X128158965Y-44681019D02*
X127578394Y-44681019D01*
X127868680Y-44681019D02*
X127868680Y-43665019D01*
X127771918Y-43810161D01*
X127675156Y-43906923D01*
X127578394Y-43955304D01*
X118757095Y-43639619D02*
X118757095Y-44462095D01*
X118805476Y-44558857D01*
X118853857Y-44607238D01*
X118950619Y-44655619D01*
X119144142Y-44655619D01*
X119240904Y-44607238D01*
X119289285Y-44558857D01*
X119337666Y-44462095D01*
X119337666Y-43639619D01*
X119773095Y-44607238D02*
X119918238Y-44655619D01*
X120160142Y-44655619D01*
X120256904Y-44607238D01*
X120305285Y-44558857D01*
X120353666Y-44462095D01*
X120353666Y-44365333D01*
X120305285Y-44268571D01*
X120256904Y-44220190D01*
X120160142Y-44171809D01*
X119966619Y-44123428D01*
X119869857Y-44075047D01*
X119821476Y-44026666D01*
X119773095Y-43929904D01*
X119773095Y-43833142D01*
X119821476Y-43736380D01*
X119869857Y-43688000D01*
X119966619Y-43639619D01*
X120208523Y-43639619D01*
X120353666Y-43688000D01*
X121369666Y-44655619D02*
X121031000Y-44171809D01*
X120789095Y-44655619D02*
X120789095Y-43639619D01*
X121176142Y-43639619D01*
X121272904Y-43688000D01*
X121321285Y-43736380D01*
X121369666Y-43833142D01*
X121369666Y-43978285D01*
X121321285Y-44075047D01*
X121272904Y-44123428D01*
X121176142Y-44171809D01*
X120789095Y-44171809D01*
X121998619Y-43639619D02*
X122095380Y-43639619D01*
X122192142Y-43688000D01*
X122240523Y-43736380D01*
X122288904Y-43833142D01*
X122337285Y-44026666D01*
X122337285Y-44268571D01*
X122288904Y-44462095D01*
X122240523Y-44558857D01*
X122192142Y-44607238D01*
X122095380Y-44655619D01*
X121998619Y-44655619D01*
X121901857Y-44607238D01*
X121853476Y-44558857D01*
X121805095Y-44462095D01*
X121756714Y-44268571D01*
X121756714Y-44026666D01*
X121805095Y-43833142D01*
X121853476Y-43736380D01*
X121901857Y-43688000D01*
X121998619Y-43639619D01*
D10*
X158230000Y-117332400D02*
X158230000Y-97562400D01*
D12*
X162501971Y-113707857D02*
X161787685Y-114207857D01*
X162501971Y-114565000D02*
X161001971Y-114565000D01*
X161001971Y-113993571D01*
X161073400Y-113850714D01*
X161144828Y-113779285D01*
X161287685Y-113707857D01*
X161501971Y-113707857D01*
X161644828Y-113779285D01*
X161716257Y-113850714D01*
X161787685Y-113993571D01*
X161787685Y-114565000D01*
X162430542Y-112493571D02*
X162501971Y-112636428D01*
X162501971Y-112922142D01*
X162430542Y-113065000D01*
X162287685Y-113136428D01*
X161716257Y-113136428D01*
X161573400Y-113065000D01*
X161501971Y-112922142D01*
X161501971Y-112636428D01*
X161573400Y-112493571D01*
X161716257Y-112422142D01*
X161859114Y-112422142D01*
X162001971Y-113136428D01*
X161501971Y-111922142D02*
X162501971Y-111565000D01*
X161501971Y-111207857D01*
X162359114Y-110636428D02*
X162430542Y-110565000D01*
X162501971Y-110636428D01*
X162430542Y-110707857D01*
X162359114Y-110636428D01*
X162501971Y-110636428D01*
X162501971Y-107993571D02*
X162501971Y-108850714D01*
X162501971Y-108422142D02*
X161001971Y-108422142D01*
X161216257Y-108565000D01*
X161359114Y-108707857D01*
X161430542Y-108850714D01*
X161144828Y-105136428D02*
X161073400Y-105065000D01*
X161001971Y-104922142D01*
X161001971Y-104565000D01*
X161073400Y-104422142D01*
X161144828Y-104350714D01*
X161287685Y-104279285D01*
X161430542Y-104279285D01*
X161644828Y-104350714D01*
X162501971Y-105207857D01*
X162501971Y-104279285D01*
X161001971Y-103350714D02*
X161001971Y-103207857D01*
X161073400Y-103065000D01*
X161144828Y-102993571D01*
X161287685Y-102922142D01*
X161573400Y-102850714D01*
X161930542Y-102850714D01*
X162216257Y-102922142D01*
X162359114Y-102993571D01*
X162430542Y-103065000D01*
X162501971Y-103207857D01*
X162501971Y-103350714D01*
X162430542Y-103493571D01*
X162359114Y-103565000D01*
X162216257Y-103636428D01*
X161930542Y-103707857D01*
X161573400Y-103707857D01*
X161287685Y-103636428D01*
X161144828Y-103565000D01*
X161073400Y-103493571D01*
X161001971Y-103350714D01*
X162501971Y-101422142D02*
X162501971Y-102279285D01*
X162501971Y-101850714D02*
X161001971Y-101850714D01*
X161216257Y-101993571D01*
X161359114Y-102136428D01*
X161430542Y-102279285D01*
X161644828Y-100565000D02*
X161573400Y-100707857D01*
X161501971Y-100779285D01*
X161359114Y-100850714D01*
X161287685Y-100850714D01*
X161144828Y-100779285D01*
X161073400Y-100707857D01*
X161001971Y-100565000D01*
X161001971Y-100279285D01*
X161073400Y-100136428D01*
X161144828Y-100065000D01*
X161287685Y-99993571D01*
X161359114Y-99993571D01*
X161501971Y-100065000D01*
X161573400Y-100136428D01*
X161644828Y-100279285D01*
X161644828Y-100565000D01*
X161716257Y-100707857D01*
X161787685Y-100779285D01*
X161930542Y-100850714D01*
X162216257Y-100850714D01*
X162359114Y-100779285D01*
X162430542Y-100707857D01*
X162501971Y-100565000D01*
X162501971Y-100279285D01*
X162430542Y-100136428D01*
X162359114Y-100065000D01*
X162216257Y-99993571D01*
X161930542Y-99993571D01*
X161787685Y-100065000D01*
X161716257Y-100136428D01*
X161644828Y-100279285D01*
D14*
X156107628Y-115963400D02*
X156226676Y-115606257D01*
X156345723Y-115487209D01*
X156583819Y-115368161D01*
X156940961Y-115368161D01*
X157179057Y-115487209D01*
X157298104Y-115606257D01*
X157417152Y-115844352D01*
X157417152Y-116796733D01*
X154917152Y-116796733D01*
X154917152Y-115963400D01*
X155036200Y-115725304D01*
X155155247Y-115606257D01*
X155393342Y-115487209D01*
X155631438Y-115487209D01*
X155869533Y-115606257D01*
X155988580Y-115725304D01*
X156107628Y-115963400D01*
X156107628Y-116796733D01*
X157298104Y-113344352D02*
X157417152Y-113582447D01*
X157417152Y-114058638D01*
X157298104Y-114296733D01*
X157060009Y-114415780D01*
X156107628Y-114415780D01*
X155869533Y-114296733D01*
X155750485Y-114058638D01*
X155750485Y-113582447D01*
X155869533Y-113344352D01*
X156107628Y-113225304D01*
X156345723Y-113225304D01*
X156583819Y-114415780D01*
X157417152Y-111082447D02*
X156107628Y-111082447D01*
X155869533Y-111201495D01*
X155750485Y-111439590D01*
X155750485Y-111915780D01*
X155869533Y-112153876D01*
X157298104Y-111082447D02*
X157417152Y-111320542D01*
X157417152Y-111915780D01*
X157298104Y-112153876D01*
X157060009Y-112272923D01*
X156821914Y-112272923D01*
X156583819Y-112153876D01*
X156464771Y-111915780D01*
X156464771Y-111320542D01*
X156345723Y-111082447D01*
X155750485Y-108820542D02*
X157774295Y-108820542D01*
X158012390Y-108939590D01*
X158131438Y-109058638D01*
X158250485Y-109296733D01*
X158250485Y-109653876D01*
X158131438Y-109891971D01*
X157298104Y-108820542D02*
X157417152Y-109058638D01*
X157417152Y-109534828D01*
X157298104Y-109772923D01*
X157179057Y-109891971D01*
X156940961Y-110011019D01*
X156226676Y-110011019D01*
X155988580Y-109891971D01*
X155869533Y-109772923D01*
X155750485Y-109534828D01*
X155750485Y-109058638D01*
X155869533Y-108820542D01*
X157417152Y-107272923D02*
X157298104Y-107511019D01*
X157060009Y-107630066D01*
X154917152Y-107630066D01*
X157298104Y-105368161D02*
X157417152Y-105606257D01*
X157417152Y-106082447D01*
X157298104Y-106320542D01*
X157060009Y-106439590D01*
X156107628Y-106439590D01*
X155869533Y-106320542D01*
X155750485Y-106082447D01*
X155750485Y-105606257D01*
X155869533Y-105368161D01*
X156107628Y-105249114D01*
X156345723Y-105249114D01*
X156583819Y-106439590D01*
X154917152Y-104415780D02*
X157417152Y-103820542D01*
X155631438Y-103344352D01*
X157417152Y-102868161D01*
X154917152Y-102272923D01*
X157417152Y-101320542D02*
X155750485Y-101320542D01*
X154917152Y-101320542D02*
X155036200Y-101439590D01*
X155155247Y-101320542D01*
X155036200Y-101201495D01*
X154917152Y-101320542D01*
X155155247Y-101320542D01*
X157417152Y-100130066D02*
X155750485Y-100130066D01*
X156226676Y-100130066D02*
X155988580Y-100011019D01*
X155869533Y-99891971D01*
X155750485Y-99653876D01*
X155750485Y-99415780D01*
X157298104Y-97630066D02*
X157417152Y-97868161D01*
X157417152Y-98344352D01*
X157298104Y-98582447D01*
X157060009Y-98701495D01*
X156107628Y-98701495D01*
X155869533Y-98582447D01*
X155750485Y-98344352D01*
X155750485Y-97868161D01*
X155869533Y-97630066D01*
X156107628Y-97511019D01*
X156345723Y-97511019D01*
X156583819Y-98701495D01*
D15*
X183457120Y-99187000D02*
X174627120Y-99187000D01*
X183457120Y-101727000D02*
X183457120Y-99187000D01*
X174627120Y-101727000D02*
X174627120Y-99187000D01*
X174627120Y-99187000D02*
X183457120Y-99187000D01*
X174627120Y-101727000D02*
X183457120Y-101727000D01*
X174627120Y-104267000D02*
X174627120Y-101727000D01*
X183457120Y-104267000D02*
X183457120Y-101727000D01*
X183457120Y-101727000D02*
X174627120Y-101727000D01*
X183457120Y-104267000D02*
X174627120Y-104267000D01*
X183457120Y-106807000D02*
X183457120Y-104267000D01*
X174627120Y-106807000D02*
X174627120Y-104267000D01*
X174627120Y-104267000D02*
X183457120Y-104267000D01*
X174627120Y-106807000D02*
X183457120Y-106807000D01*
X174627120Y-109347000D02*
X174627120Y-106807000D01*
X183457120Y-109347000D02*
X183457120Y-106807000D01*
X183457120Y-106807000D02*
X174627120Y-106807000D01*
X183457120Y-109347000D02*
X174627120Y-109347000D01*
X183457120Y-111887000D02*
X183457120Y-109347000D01*
X174627120Y-111887000D02*
X174627120Y-109347000D01*
X174627120Y-109347000D02*
X183457120Y-109347000D01*
X174627120Y-111887000D02*
X183457120Y-111887000D01*
X174627120Y-114427000D02*
X174627120Y-111887000D01*
X169667120Y-113157000D02*
X169667120Y-114707000D01*
X169667120Y-114707000D02*
X170817120Y-114707000D01*
X174627120Y-114427000D02*
X183457120Y-114427000D01*
X183457120Y-114427000D02*
X183457120Y-111887000D01*
X183457120Y-111887000D02*
X174627120Y-111887000D01*
X154983000Y-70370000D02*
X153908000Y-70370000D01*
X154983000Y-90720000D02*
X153908000Y-90720000D01*
X134633000Y-90720000D02*
X135708000Y-90720000D01*
X134633000Y-70370000D02*
X135708000Y-70370000D01*
X154983000Y-70370000D02*
X154983000Y-71445000D01*
X134633000Y-70370000D02*
X134633000Y-71445000D01*
X134633000Y-90720000D02*
X134633000Y-89645000D01*
X154983000Y-90720000D02*
X154983000Y-89645000D01*
X153908000Y-70370000D02*
X153908000Y-69270000D01*
X149573200Y-95990560D02*
X149573200Y-96190560D01*
X139413200Y-95990560D02*
X139413200Y-96190560D01*
X148993200Y-117340560D02*
G75*
G03X148993200Y-117340560I-250000J0D01*
G01*
X149573200Y-117990560D02*
X150393200Y-117990560D01*
X149573200Y-118190560D02*
X149573200Y-117990560D01*
X139413200Y-118190560D02*
X139413200Y-117990560D01*
X139413200Y-95980560D02*
X149573200Y-95980560D01*
X149573200Y-118200560D02*
X139413200Y-118200560D01*
X120180100Y-119532400D02*
X120180100Y-61112400D01*
X115100100Y-119532400D02*
X115100100Y-63652400D01*
X120180100Y-119532400D02*
X115100100Y-119532400D01*
X120180100Y-61112400D02*
X117640100Y-61112400D01*
X116370100Y-60832400D02*
X114820100Y-60832400D01*
X117640100Y-61112400D02*
X117640100Y-63652400D01*
X117640100Y-63652400D02*
X115100100Y-63652400D01*
X114820100Y-60832400D02*
X114820100Y-62382400D01*
X168440100Y-119532400D02*
X168440100Y-61112400D01*
X163360100Y-119532400D02*
X163360100Y-63652400D01*
X168440100Y-119532400D02*
X163360100Y-119532400D01*
X168440100Y-61112400D02*
X165900100Y-61112400D01*
X164630100Y-60832400D02*
X163080100Y-60832400D01*
X165900100Y-61112400D02*
X165900100Y-63652400D01*
X165900100Y-63652400D02*
X163360100Y-63652400D01*
X163080100Y-60832400D02*
X163080100Y-62382400D01*
X130890000Y-91130000D02*
X130890000Y-90430000D01*
X132090000Y-90430000D02*
X132090000Y-91130000D01*
X132150000Y-108680000D02*
X131450000Y-108680000D01*
X131450000Y-107480000D02*
X132150000Y-107480000D01*
X156370000Y-60180000D02*
X156370000Y-60880000D01*
X155170000Y-60880000D02*
X155170000Y-60180000D01*
X159640000Y-60120000D02*
X159640000Y-60820000D01*
X158440000Y-60820000D02*
X158440000Y-60120000D01*
X161240000Y-60120000D02*
X161240000Y-60820000D01*
X160040000Y-60820000D02*
X160040000Y-60120000D01*
X168350000Y-58690000D02*
X168350000Y-57990000D01*
X169550000Y-57990000D02*
X169550000Y-58690000D01*
X127001000Y-86115000D02*
X127001000Y-86815000D01*
X125801000Y-86815000D02*
X125801000Y-86115000D01*
X158608000Y-84230000D02*
X157908000Y-84230000D01*
X157908000Y-83030000D02*
X158608000Y-83030000D01*
X130910000Y-81670000D02*
X130210000Y-81670000D01*
X130210000Y-80470000D02*
X130910000Y-80470000D01*
X158620000Y-82706000D02*
X157920000Y-82706000D01*
X157920000Y-81506000D02*
X158620000Y-81506000D01*
X130900000Y-80080000D02*
X130200000Y-80080000D01*
X130200000Y-78880000D02*
X130900000Y-78880000D01*
X152640000Y-67550000D02*
X153340000Y-67550000D01*
X153340000Y-68750000D02*
X152640000Y-68750000D01*
X150390000Y-68740000D02*
X149690000Y-68740000D01*
X149690000Y-67540000D02*
X150390000Y-67540000D01*
X134300000Y-66950000D02*
X134300000Y-66250000D01*
X135500000Y-66250000D02*
X135500000Y-66950000D01*
X136010000Y-66960000D02*
X136010000Y-66260000D01*
X137210000Y-66260000D02*
X137210000Y-66960000D01*
X130920000Y-77100000D02*
X130220000Y-77100000D01*
X130220000Y-75900000D02*
X130920000Y-75900000D01*
X130920000Y-78560000D02*
X130220000Y-78560000D01*
X130220000Y-77360000D02*
X130920000Y-77360000D01*
X130986000Y-84856000D02*
X130286000Y-84856000D01*
X130286000Y-83656000D02*
X130986000Y-83656000D01*
X130986000Y-83332000D02*
X130286000Y-83332000D01*
X130286000Y-82132000D02*
X130986000Y-82132000D01*
X140750000Y-93550000D02*
X140750000Y-94250000D01*
X139550000Y-94250000D02*
X139550000Y-93550000D01*
X142290000Y-93550000D02*
X142290000Y-94250000D01*
X141090000Y-94250000D02*
X141090000Y-93550000D01*
X158048400Y-93885500D02*
X158048400Y-93185500D01*
X159248400Y-93185500D02*
X159248400Y-93885500D01*
X150742000Y-93518000D02*
X150742000Y-94218000D01*
X149542000Y-94218000D02*
X149542000Y-93518000D01*
X157908000Y-86078000D02*
X158608000Y-86078000D01*
X158608000Y-87278000D02*
X157908000Y-87278000D01*
X157908000Y-84554000D02*
X158608000Y-84554000D01*
X158608000Y-85754000D02*
X157908000Y-85754000D01*
X157700000Y-76660000D02*
X158400000Y-76660000D01*
X158400000Y-77860000D02*
X157700000Y-77860000D01*
X157700000Y-78270000D02*
X158400000Y-78270000D01*
X158400000Y-79470000D02*
X157700000Y-79470000D01*
X139404800Y-66970000D02*
X139404800Y-66270000D01*
X140604800Y-66270000D02*
X140604800Y-66970000D01*
X137710000Y-66960000D02*
X137710000Y-66260000D01*
X138910000Y-66260000D02*
X138910000Y-66960000D01*
X130970000Y-72200000D02*
X130270000Y-72200000D01*
X130270000Y-71000000D02*
X130970000Y-71000000D01*
X130960000Y-73710000D02*
X130260000Y-73710000D01*
X130260000Y-72510000D02*
X130960000Y-72510000D01*
X147694000Y-93530000D02*
X147694000Y-94230000D01*
X146494000Y-94230000D02*
X146494000Y-93530000D01*
X146170000Y-93530000D02*
X146170000Y-94230000D01*
X144970000Y-94230000D02*
X144970000Y-93530000D01*
X157940000Y-88642000D02*
X158640000Y-88642000D01*
X158640000Y-89842000D02*
X157940000Y-89842000D01*
X157940000Y-90166000D02*
X158640000Y-90166000D01*
X158640000Y-91366000D02*
X157940000Y-91366000D01*
X152259200Y-116904560D02*
X152959200Y-116904560D01*
X152959200Y-118104560D02*
X152259200Y-118104560D01*
X152259200Y-106490560D02*
X152959200Y-106490560D01*
X152959200Y-107690560D02*
X152259200Y-107690560D01*
X152080000Y-96360000D02*
X152780000Y-96360000D01*
X152780000Y-97560000D02*
X152080000Y-97560000D01*
X152259200Y-115126560D02*
X152959200Y-115126560D01*
X152959200Y-116326560D02*
X152259200Y-116326560D01*
X152259200Y-110300560D02*
X152959200Y-110300560D01*
X152959200Y-111500560D02*
X152259200Y-111500560D01*
X138100000Y-109090000D02*
X138100000Y-109790000D01*
X136900000Y-109790000D02*
X136900000Y-109090000D01*
X138030000Y-113970000D02*
X138030000Y-114670000D01*
X136830000Y-114670000D02*
X136830000Y-113970000D01*
X116150200Y-54669200D02*
X115650200Y-54669200D01*
X115650200Y-55719200D02*
X116150200Y-55719200D01*
X116150200Y-56244000D02*
X115650200Y-56244000D01*
X115650200Y-57294000D02*
X116150200Y-57294000D01*
X114260900Y-51828800D02*
X114760900Y-51828800D01*
X114760900Y-50778800D02*
X114260900Y-50778800D01*
X114260900Y-50177800D02*
X114760900Y-50177800D01*
X114760900Y-49127800D02*
X114260900Y-49127800D01*
X114260900Y-48526800D02*
X114760900Y-48526800D01*
X114760900Y-47476800D02*
X114260900Y-47476800D01*
X114311700Y-46875800D02*
X114811700Y-46875800D01*
X114811700Y-45825800D02*
X114311700Y-45825800D01*
X130890000Y-86235000D02*
X131390000Y-86235000D01*
X131390000Y-85185000D02*
X130890000Y-85185000D01*
X157530000Y-81155000D02*
X158030000Y-81155000D01*
X158030000Y-80105000D02*
X157530000Y-80105000D01*
X126450000Y-80545000D02*
X125950000Y-80545000D01*
X125950000Y-81595000D02*
X126450000Y-81595000D01*
D16*
X160380000Y-52340000D02*
X159120000Y-52340000D01*
X153560000Y-52340000D02*
X154820000Y-52340000D01*
X160380000Y-56100000D02*
X160380000Y-52340000D01*
X153560000Y-58350000D02*
X153560000Y-52340000D01*
D15*
X122733000Y-107527000D02*
X122733000Y-107827000D01*
X128233000Y-107527000D02*
X128233000Y-107827000D01*
X128233000Y-113037000D02*
X128233000Y-112737000D01*
X122733000Y-113037000D02*
X122733000Y-112737000D01*
X122733000Y-107527000D02*
X128233000Y-107527000D01*
X122733000Y-113037000D02*
X128233000Y-113037000D01*
X122733000Y-107827000D02*
X120983000Y-107827000D01*
D16*
X167680000Y-52360000D02*
X166420000Y-52360000D01*
X160860000Y-52360000D02*
X162120000Y-52360000D01*
X167680000Y-56120000D02*
X167680000Y-52360000D01*
X160860000Y-58370000D02*
X160860000Y-52360000D01*
D15*
X121350000Y-47495000D02*
X121350000Y-50295000D01*
X121350000Y-50295000D02*
X119950000Y-50295000D01*
X119950000Y-50295000D02*
X119950000Y-47495000D01*
X119950000Y-47495000D02*
X121350000Y-47495000D01*
X122400000Y-51895000D02*
X121750000Y-51895000D01*
X118900000Y-51895000D02*
X119550000Y-51895000D01*
X119550000Y-45895000D02*
X118900000Y-45895000D01*
X122400000Y-45895000D02*
X121750000Y-45895000D01*
X122400000Y-51895000D02*
X122400000Y-45895000D01*
X118900000Y-45895000D02*
X118900000Y-51895000D01*
X126938000Y-47495000D02*
X126938000Y-50295000D01*
X126938000Y-50295000D02*
X125538000Y-50295000D01*
X125538000Y-50295000D02*
X125538000Y-47495000D01*
X125538000Y-47495000D02*
X126938000Y-47495000D01*
X127988000Y-51895000D02*
X127338000Y-51895000D01*
X124488000Y-51895000D02*
X125138000Y-51895000D01*
X125138000Y-45895000D02*
X124488000Y-45895000D01*
X127988000Y-45895000D02*
X127338000Y-45895000D01*
X127988000Y-51895000D02*
X127988000Y-45895000D01*
X124488000Y-45895000D02*
X124488000Y-51895000D01*
X132515840Y-47495000D02*
X132515840Y-50295000D01*
X132515840Y-50295000D02*
X131115840Y-50295000D01*
X131115840Y-50295000D02*
X131115840Y-47495000D01*
X131115840Y-47495000D02*
X132515840Y-47495000D01*
X133565840Y-51895000D02*
X132915840Y-51895000D01*
X130065840Y-51895000D02*
X130715840Y-51895000D01*
X130715840Y-45895000D02*
X130065840Y-45895000D01*
X133565840Y-45895000D02*
X132915840Y-45895000D01*
X133565840Y-51895000D02*
X133565840Y-45895000D01*
X130065840Y-45895000D02*
X130065840Y-51895000D01*
X128710000Y-59630000D02*
G75*
G03X128710000Y-59630000I-100000J0D01*
G01*
X129260000Y-59880000D02*
X128760000Y-59880000D01*
X129260000Y-62780000D02*
X129260000Y-59880000D01*
X128760000Y-62780000D02*
X129260000Y-62780000D01*
X128760000Y-59880000D02*
X128760000Y-62780000D01*
X122038000Y-98991000D02*
X122238000Y-98991000D01*
X122038000Y-94341000D02*
X122238000Y-94341000D01*
X125288000Y-94341000D02*
X125088000Y-94341000D01*
X125288000Y-98991000D02*
X125088000Y-98991000D01*
X122038000Y-98991000D02*
X122038000Y-94341000D01*
X125288000Y-98991000D02*
X125288000Y-94341000D01*
X122238000Y-98991000D02*
X122238000Y-100341000D01*
X128560000Y-105750000D02*
X127010000Y-105750000D01*
X127010000Y-104200000D02*
X127010000Y-105750000D01*
X129830000Y-105470000D02*
X129830000Y-102930000D01*
X127290000Y-100390000D02*
X127290000Y-102930000D01*
X127290000Y-102930000D02*
X129830000Y-102930000D01*
X129830000Y-102930000D02*
X129830000Y-100390000D01*
X129830000Y-100390000D02*
X127290000Y-100390000D01*
X132190000Y-105750000D02*
X130640000Y-105750000D01*
X130640000Y-104200000D02*
X130640000Y-105750000D01*
X133460000Y-105470000D02*
X133460000Y-102930000D01*
X130920000Y-100390000D02*
X130920000Y-102930000D01*
X130920000Y-102930000D02*
X133460000Y-102930000D01*
X133460000Y-102930000D02*
X133460000Y-100390000D01*
X133460000Y-100390000D02*
X130920000Y-100390000D01*
X99177120Y-91567000D02*
X108007120Y-91567000D01*
X99177120Y-89027000D02*
X99177120Y-91567000D01*
X108007120Y-89027000D02*
X108007120Y-91567000D01*
X108007120Y-91567000D02*
X99177120Y-91567000D01*
X108007120Y-89027000D02*
X99177120Y-89027000D01*
X108007120Y-86487000D02*
X108007120Y-89027000D01*
X99177120Y-86487000D02*
X99177120Y-89027000D01*
X99177120Y-89027000D02*
X108007120Y-89027000D01*
X99177120Y-86487000D02*
X108007120Y-86487000D01*
X99177120Y-83947000D02*
X99177120Y-86487000D01*
X108007120Y-83947000D02*
X108007120Y-86487000D01*
X108007120Y-86487000D02*
X99177120Y-86487000D01*
X108007120Y-83947000D02*
X99177120Y-83947000D01*
X108007120Y-81407000D02*
X108007120Y-83947000D01*
X99177120Y-81407000D02*
X99177120Y-83947000D01*
X99177120Y-83947000D02*
X108007120Y-83947000D01*
X99177120Y-81407000D02*
X108007120Y-81407000D01*
X99177120Y-78867000D02*
X99177120Y-81407000D01*
X108007120Y-78867000D02*
X108007120Y-81407000D01*
X108007120Y-81407000D02*
X99177120Y-81407000D01*
X108007120Y-78867000D02*
X99177120Y-78867000D01*
X108007120Y-76327000D02*
X108007120Y-78867000D01*
X112967120Y-77597000D02*
X112967120Y-76047000D01*
X112967120Y-76047000D02*
X111817120Y-76047000D01*
X108007120Y-76327000D02*
X99177120Y-76327000D01*
X99177120Y-76327000D02*
X99177120Y-78867000D01*
X99177120Y-78867000D02*
X108007120Y-78867000D01*
X99177120Y-114427000D02*
X108007120Y-114427000D01*
X99177120Y-111887000D02*
X99177120Y-114427000D01*
X108007120Y-111887000D02*
X108007120Y-114427000D01*
X108007120Y-114427000D02*
X99177120Y-114427000D01*
X108007120Y-111887000D02*
X99177120Y-111887000D01*
X108007120Y-109347000D02*
X108007120Y-111887000D01*
X99177120Y-109347000D02*
X99177120Y-111887000D01*
X99177120Y-111887000D02*
X108007120Y-111887000D01*
X99177120Y-109347000D02*
X108007120Y-109347000D01*
X99177120Y-106807000D02*
X99177120Y-109347000D01*
X108007120Y-106807000D02*
X108007120Y-109347000D01*
X108007120Y-109347000D02*
X99177120Y-109347000D01*
X108007120Y-106807000D02*
X99177120Y-106807000D01*
X108007120Y-104267000D02*
X108007120Y-106807000D01*
X99177120Y-104267000D02*
X99177120Y-106807000D01*
X99177120Y-106807000D02*
X108007120Y-106807000D01*
X99177120Y-104267000D02*
X108007120Y-104267000D01*
X99177120Y-101727000D02*
X99177120Y-104267000D01*
X108007120Y-101727000D02*
X108007120Y-104267000D01*
X108007120Y-104267000D02*
X99177120Y-104267000D01*
X108007120Y-101727000D02*
X99177120Y-101727000D01*
X108007120Y-99187000D02*
X108007120Y-101727000D01*
X112967120Y-100457000D02*
X112967120Y-98907000D01*
X112967120Y-98907000D02*
X111817120Y-98907000D01*
X108007120Y-99187000D02*
X99177120Y-99187000D01*
X99177120Y-99187000D02*
X99177120Y-101727000D01*
X99177120Y-101727000D02*
X108007120Y-101727000D01*
X112829600Y-50753800D02*
X110929600Y-50753800D01*
X112829600Y-51853800D02*
X110929600Y-51853800D01*
X111929600Y-51303800D02*
X111479600Y-51303800D01*
X111979600Y-51553800D02*
X111979600Y-51053800D01*
X111979600Y-51303800D02*
X111729600Y-51553800D01*
X111729600Y-51553800D02*
X111729600Y-51053800D01*
X111729600Y-51053800D02*
X111979600Y-51303800D01*
X112829600Y-49102800D02*
X110929600Y-49102800D01*
X112829600Y-50202800D02*
X110929600Y-50202800D01*
X111929600Y-49652800D02*
X111479600Y-49652800D01*
X111979600Y-49902800D02*
X111979600Y-49402800D01*
X111979600Y-49652800D02*
X111729600Y-49902800D01*
X111729600Y-49902800D02*
X111729600Y-49402800D01*
X111729600Y-49402800D02*
X111979600Y-49652800D01*
X112829600Y-47451800D02*
X110929600Y-47451800D01*
X112829600Y-48551800D02*
X110929600Y-48551800D01*
X111929600Y-48001800D02*
X111479600Y-48001800D01*
X111979600Y-48251800D02*
X111979600Y-47751800D01*
X111979600Y-48001800D02*
X111729600Y-48251800D01*
X111729600Y-48251800D02*
X111729600Y-47751800D01*
X111729600Y-47751800D02*
X111979600Y-48001800D01*
X112829600Y-45800800D02*
X110929600Y-45800800D01*
X112829600Y-46900800D02*
X110929600Y-46900800D01*
X111929600Y-46350800D02*
X111479600Y-46350800D01*
X111979600Y-46600800D02*
X111979600Y-46100800D01*
X111979600Y-46350800D02*
X111729600Y-46600800D01*
X111729600Y-46600800D02*
X111729600Y-46100800D01*
X111729600Y-46100800D02*
X111979600Y-46350800D01*
X122930000Y-90490000D02*
X123630000Y-90490000D01*
X123630000Y-91690000D02*
X122930000Y-91690000D01*
X132250000Y-60870000D02*
X132950000Y-60870000D01*
X132950000Y-62070000D02*
X132250000Y-62070000D01*
X131070000Y-110205000D02*
X131570000Y-110205000D01*
X131570000Y-109155000D02*
X131070000Y-109155000D01*
X123505000Y-114180000D02*
X123505000Y-114680000D01*
X124555000Y-114680000D02*
X124555000Y-114180000D01*
X124905000Y-114170000D02*
X124905000Y-114670000D01*
X125955000Y-114670000D02*
X125955000Y-114170000D01*
X131070000Y-111605000D02*
X131570000Y-111605000D01*
X131570000Y-110555000D02*
X131070000Y-110555000D01*
X126330000Y-94709000D02*
X126830000Y-94709000D01*
X126830000Y-93659000D02*
X126330000Y-93659000D01*
X126330000Y-96233000D02*
X126830000Y-96233000D01*
X126830000Y-95183000D02*
X126330000Y-95183000D01*
X123001000Y-53926000D02*
X122501000Y-53926000D01*
X122501000Y-54976000D02*
X123001000Y-54976000D01*
X129097000Y-53926000D02*
X128597000Y-53926000D01*
X128597000Y-54976000D02*
X129097000Y-54976000D01*
X122501000Y-56373000D02*
X123001000Y-56373000D01*
X123001000Y-55323000D02*
X122501000Y-55323000D01*
X128597000Y-56373000D02*
X129097000Y-56373000D01*
X129097000Y-55323000D02*
X128597000Y-55323000D01*
X131605000Y-99070000D02*
X131605000Y-98570000D01*
X130555000Y-98570000D02*
X130555000Y-99070000D01*
X128015000Y-99090000D02*
X128015000Y-98590000D01*
X126965000Y-98590000D02*
X126965000Y-99090000D01*
X132071600Y-118664800D02*
X132071600Y-118164800D01*
X131021600Y-118164800D02*
X131021600Y-118664800D01*
X135691100Y-118690200D02*
X135691100Y-118190200D01*
X134641100Y-118190200D02*
X134641100Y-118690200D01*
X130204700Y-118690200D02*
X130204700Y-118190200D01*
X129154700Y-118190200D02*
X129154700Y-118690200D01*
X133900400Y-118677500D02*
X133900400Y-118177500D01*
X132850400Y-118177500D02*
X132850400Y-118677500D01*
X133905000Y-55020000D02*
X133905000Y-54520000D01*
X132855000Y-54520000D02*
X132855000Y-55020000D01*
X122401000Y-56772000D02*
X123101000Y-56772000D01*
X123101000Y-57972000D02*
X122401000Y-57972000D01*
X128497000Y-56772000D02*
X129197000Y-56772000D01*
X129197000Y-57972000D02*
X128497000Y-57972000D01*
X155203600Y-92524400D02*
X155203600Y-94324400D01*
X156403600Y-92524400D02*
X156403600Y-94324400D01*
X183457120Y-76327000D02*
X174627120Y-76327000D01*
X183457120Y-78867000D02*
X183457120Y-76327000D01*
X174627120Y-78867000D02*
X174627120Y-76327000D01*
X174627120Y-76327000D02*
X183457120Y-76327000D01*
X174627120Y-78867000D02*
X183457120Y-78867000D01*
X174627120Y-81407000D02*
X174627120Y-78867000D01*
X183457120Y-81407000D02*
X183457120Y-78867000D01*
X183457120Y-78867000D02*
X174627120Y-78867000D01*
X183457120Y-81407000D02*
X174627120Y-81407000D01*
X183457120Y-83947000D02*
X183457120Y-81407000D01*
X174627120Y-83947000D02*
X174627120Y-81407000D01*
X174627120Y-81407000D02*
X183457120Y-81407000D01*
X174627120Y-83947000D02*
X183457120Y-83947000D01*
X174627120Y-86487000D02*
X174627120Y-83947000D01*
X183457120Y-86487000D02*
X183457120Y-83947000D01*
X183457120Y-83947000D02*
X174627120Y-83947000D01*
X183457120Y-86487000D02*
X174627120Y-86487000D01*
X183457120Y-89027000D02*
X183457120Y-86487000D01*
X174627120Y-89027000D02*
X174627120Y-86487000D01*
X174627120Y-86487000D02*
X183457120Y-86487000D01*
X174627120Y-89027000D02*
X183457120Y-89027000D01*
X174627120Y-91567000D02*
X174627120Y-89027000D01*
X169667120Y-90297000D02*
X169667120Y-91847000D01*
X169667120Y-91847000D02*
X170817120Y-91847000D01*
X174627120Y-91567000D02*
X183457120Y-91567000D01*
X183457120Y-91567000D02*
X183457120Y-89027000D01*
X183457120Y-89027000D02*
X174627120Y-89027000D01*
X128193800Y-87452200D02*
X128193800Y-86766400D01*
X128193800Y-86766400D02*
X128193800Y-86728300D01*
X128193800Y-86728300D02*
X127381000Y-86728300D01*
X127381000Y-86728300D02*
X127406400Y-86728300D01*
X129787500Y-87474300D02*
X129787500Y-85474300D01*
X129787500Y-85474300D02*
X127387500Y-85474300D01*
X127387500Y-85474300D02*
X127387500Y-87474300D01*
X127387500Y-87474300D02*
X129787500Y-87474300D01*
X114436100Y-54676300D02*
X114436100Y-61376300D01*
X114436100Y-61376300D02*
X107736100Y-61376300D01*
X107636100Y-61376300D02*
X107636100Y-54676300D01*
X107636100Y-54676300D02*
X114436100Y-54676300D01*
D16*
X123460100Y-101769100D02*
X123460100Y-102269100D01*
X124520100Y-102269100D02*
X124520100Y-101769100D01*
D15*
X118087100Y-127499400D02*
X118087100Y-126546900D01*
X118087100Y-126546900D02*
X119471400Y-126546900D01*
X119471400Y-126546900D02*
X119471400Y-127397800D01*
X124094200Y-127486700D02*
X124094200Y-126483400D01*
X124094200Y-126483400D02*
X125542000Y-126483400D01*
X125542000Y-126483400D02*
X125542000Y-127423200D01*
X116652000Y-127520000D02*
X126812000Y-127520000D01*
X116652000Y-122440000D02*
X126812000Y-122440000D01*
X116652000Y-127520000D02*
X116652000Y-122440000D01*
X126812000Y-127520000D02*
X126812000Y-122440000D01*
X131168100Y-127499400D02*
X131168100Y-126546900D01*
X131168100Y-126546900D02*
X132552400Y-126546900D01*
X132552400Y-126546900D02*
X132552400Y-127397800D01*
X137175200Y-127486700D02*
X137175200Y-126483400D01*
X137175200Y-126483400D02*
X138623000Y-126483400D01*
X138623000Y-126483400D02*
X138623000Y-127423200D01*
X129733000Y-127520000D02*
X139893000Y-127520000D01*
X129733000Y-122440000D02*
X139893000Y-122440000D01*
X129733000Y-127520000D02*
X129733000Y-122440000D01*
X139893000Y-127520000D02*
X139893000Y-122440000D01*
X144249100Y-127499400D02*
X144249100Y-126546900D01*
X144249100Y-126546900D02*
X145633400Y-126546900D01*
X145633400Y-126546900D02*
X145633400Y-127397800D01*
X150256200Y-127486700D02*
X150256200Y-126483400D01*
X150256200Y-126483400D02*
X151704000Y-126483400D01*
X151704000Y-126483400D02*
X151704000Y-127423200D01*
X142814000Y-127520000D02*
X152974000Y-127520000D01*
X142814000Y-122440000D02*
X152974000Y-122440000D01*
X142814000Y-127520000D02*
X142814000Y-122440000D01*
X152974000Y-127520000D02*
X152974000Y-122440000D01*
X157330100Y-127499400D02*
X157330100Y-126546900D01*
X157330100Y-126546900D02*
X158714400Y-126546900D01*
X158714400Y-126546900D02*
X158714400Y-127397800D01*
X163337200Y-127486700D02*
X163337200Y-126483400D01*
X163337200Y-126483400D02*
X164785000Y-126483400D01*
X164785000Y-126483400D02*
X164785000Y-127423200D01*
X155895000Y-127520000D02*
X166055000Y-127520000D01*
X155895000Y-122440000D02*
X166055000Y-122440000D01*
X155895000Y-127520000D02*
X155895000Y-122440000D01*
X166055000Y-127520000D02*
X166055000Y-122440000D01*
X171269500Y-116895095D02*
X170269500Y-116895095D01*
X170269500Y-116514142D01*
X170317120Y-116418904D01*
X170364739Y-116371285D01*
X170459977Y-116323666D01*
X170602834Y-116323666D01*
X170698072Y-116371285D01*
X170745691Y-116418904D01*
X170793310Y-116514142D01*
X170793310Y-116895095D01*
X170269500Y-115990333D02*
X170269500Y-115371285D01*
X170650453Y-115704619D01*
X170650453Y-115561761D01*
X170698072Y-115466523D01*
X170745691Y-115418904D01*
X170840929Y-115371285D01*
X171079024Y-115371285D01*
X171174262Y-115418904D01*
X171221881Y-115466523D01*
X171269500Y-115561761D01*
X171269500Y-115847476D01*
X171221881Y-115942714D01*
X171174262Y-115990333D01*
X155222095Y-69202380D02*
X155222095Y-70011904D01*
X155269714Y-70107142D01*
X155317333Y-70154761D01*
X155412571Y-70202380D01*
X155603047Y-70202380D01*
X155698285Y-70154761D01*
X155745904Y-70107142D01*
X155793523Y-70011904D01*
X155793523Y-69202380D01*
X156793523Y-70202380D02*
X156222095Y-70202380D01*
X156507809Y-70202380D02*
X156507809Y-69202380D01*
X156412571Y-69345238D01*
X156317333Y-69440476D01*
X156222095Y-69488095D01*
X148049295Y-118480940D02*
X148049295Y-119290464D01*
X148096914Y-119385702D01*
X148144533Y-119433321D01*
X148239771Y-119480940D01*
X148430247Y-119480940D01*
X148525485Y-119433321D01*
X148573104Y-119385702D01*
X148620723Y-119290464D01*
X148620723Y-118480940D01*
X149525485Y-118480940D02*
X149335009Y-118480940D01*
X149239771Y-118528560D01*
X149192152Y-118576179D01*
X149096914Y-118719036D01*
X149049295Y-118909512D01*
X149049295Y-119290464D01*
X149096914Y-119385702D01*
X149144533Y-119433321D01*
X149239771Y-119480940D01*
X149430247Y-119480940D01*
X149525485Y-119433321D01*
X149573104Y-119385702D01*
X149620723Y-119290464D01*
X149620723Y-119052369D01*
X149573104Y-118957131D01*
X149525485Y-118909512D01*
X149430247Y-118861893D01*
X149239771Y-118861893D01*
X149144533Y-118909512D01*
X149096914Y-118957131D01*
X149049295Y-119052369D01*
X116863904Y-60523380D02*
X116863904Y-59523380D01*
X117244857Y-59523380D01*
X117340095Y-59571000D01*
X117387714Y-59618619D01*
X117435333Y-59713857D01*
X117435333Y-59856714D01*
X117387714Y-59951952D01*
X117340095Y-59999571D01*
X117244857Y-60047190D01*
X116863904Y-60047190D01*
X117911523Y-60523380D02*
X118102000Y-60523380D01*
X118197238Y-60475761D01*
X118244857Y-60428142D01*
X118340095Y-60285285D01*
X118387714Y-60094809D01*
X118387714Y-59713857D01*
X118340095Y-59618619D01*
X118292476Y-59571000D01*
X118197238Y-59523380D01*
X118006761Y-59523380D01*
X117911523Y-59571000D01*
X117863904Y-59618619D01*
X117816285Y-59713857D01*
X117816285Y-59951952D01*
X117863904Y-60047190D01*
X117911523Y-60094809D01*
X118006761Y-60142428D01*
X118197238Y-60142428D01*
X118292476Y-60094809D01*
X118340095Y-60047190D01*
X118387714Y-59951952D01*
X163676104Y-60485280D02*
X163676104Y-59485280D01*
X164057057Y-59485280D01*
X164152295Y-59532900D01*
X164199914Y-59580519D01*
X164247533Y-59675757D01*
X164247533Y-59818614D01*
X164199914Y-59913852D01*
X164152295Y-59961471D01*
X164057057Y-60009090D01*
X163676104Y-60009090D01*
X164818961Y-59913852D02*
X164723723Y-59866233D01*
X164676104Y-59818614D01*
X164628485Y-59723376D01*
X164628485Y-59675757D01*
X164676104Y-59580519D01*
X164723723Y-59532900D01*
X164818961Y-59485280D01*
X165009438Y-59485280D01*
X165104676Y-59532900D01*
X165152295Y-59580519D01*
X165199914Y-59675757D01*
X165199914Y-59723376D01*
X165152295Y-59818614D01*
X165104676Y-59866233D01*
X165009438Y-59913852D01*
X164818961Y-59913852D01*
X164723723Y-59961471D01*
X164676104Y-60009090D01*
X164628485Y-60104328D01*
X164628485Y-60294804D01*
X164676104Y-60390042D01*
X164723723Y-60437661D01*
X164818961Y-60485280D01*
X165009438Y-60485280D01*
X165104676Y-60437661D01*
X165152295Y-60390042D01*
X165199914Y-60294804D01*
X165199914Y-60104328D01*
X165152295Y-60009090D01*
X165104676Y-59961471D01*
X165009438Y-59913852D01*
X130507142Y-91492857D02*
X130554761Y-91540476D01*
X130602380Y-91683333D01*
X130602380Y-91778571D01*
X130554761Y-91921428D01*
X130459523Y-92016666D01*
X130364285Y-92064285D01*
X130173809Y-92111904D01*
X130030952Y-92111904D01*
X129840476Y-92064285D01*
X129745238Y-92016666D01*
X129650000Y-91921428D01*
X129602380Y-91778571D01*
X129602380Y-91683333D01*
X129650000Y-91540476D01*
X129697619Y-91492857D01*
X129602380Y-91159523D02*
X129602380Y-90540476D01*
X129983333Y-90873809D01*
X129983333Y-90730952D01*
X130030952Y-90635714D01*
X130078571Y-90588095D01*
X130173809Y-90540476D01*
X130411904Y-90540476D01*
X130507142Y-90588095D01*
X130554761Y-90635714D01*
X130602380Y-90730952D01*
X130602380Y-91016666D01*
X130554761Y-91111904D01*
X130507142Y-91159523D01*
X129602380Y-89683333D02*
X129602380Y-89873809D01*
X129650000Y-89969047D01*
X129697619Y-90016666D01*
X129840476Y-90111904D01*
X130030952Y-90159523D01*
X130411904Y-90159523D01*
X130507142Y-90111904D01*
X130554761Y-90064285D01*
X130602380Y-89969047D01*
X130602380Y-89778571D01*
X130554761Y-89683333D01*
X130507142Y-89635714D01*
X130411904Y-89588095D01*
X130173809Y-89588095D01*
X130078571Y-89635714D01*
X130030952Y-89683333D01*
X129983333Y-89778571D01*
X129983333Y-89969047D01*
X130030952Y-90064285D01*
X130078571Y-90111904D01*
X130173809Y-90159523D01*
X131057142Y-107117142D02*
X131009523Y-107164761D01*
X130866666Y-107212380D01*
X130771428Y-107212380D01*
X130628571Y-107164761D01*
X130533333Y-107069523D01*
X130485714Y-106974285D01*
X130438095Y-106783809D01*
X130438095Y-106640952D01*
X130485714Y-106450476D01*
X130533333Y-106355238D01*
X130628571Y-106260000D01*
X130771428Y-106212380D01*
X130866666Y-106212380D01*
X131009523Y-106260000D01*
X131057142Y-106307619D01*
X131914285Y-106545714D02*
X131914285Y-107212380D01*
X131676190Y-106164761D02*
X131438095Y-106879047D01*
X132057142Y-106879047D01*
X132628571Y-106212380D02*
X132723809Y-106212380D01*
X132819047Y-106260000D01*
X132866666Y-106307619D01*
X132914285Y-106402857D01*
X132961904Y-106593333D01*
X132961904Y-106831428D01*
X132914285Y-107021904D01*
X132866666Y-107117142D01*
X132819047Y-107164761D01*
X132723809Y-107212380D01*
X132628571Y-107212380D01*
X132533333Y-107164761D01*
X132485714Y-107117142D01*
X132438095Y-107021904D01*
X132390476Y-106831428D01*
X132390476Y-106593333D01*
X132438095Y-106402857D01*
X132485714Y-106307619D01*
X132533333Y-106260000D01*
X132628571Y-106212380D01*
X154727142Y-60676666D02*
X154774761Y-60724285D01*
X154822380Y-60867142D01*
X154822380Y-60962380D01*
X154774761Y-61105238D01*
X154679523Y-61200476D01*
X154584285Y-61248095D01*
X154393809Y-61295714D01*
X154250952Y-61295714D01*
X154060476Y-61248095D01*
X153965238Y-61200476D01*
X153870000Y-61105238D01*
X153822380Y-60962380D01*
X153822380Y-60867142D01*
X153870000Y-60724285D01*
X153917619Y-60676666D01*
X153822380Y-59771904D02*
X153822380Y-60248095D01*
X154298571Y-60295714D01*
X154250952Y-60248095D01*
X154203333Y-60152857D01*
X154203333Y-59914761D01*
X154250952Y-59819523D01*
X154298571Y-59771904D01*
X154393809Y-59724285D01*
X154631904Y-59724285D01*
X154727142Y-59771904D01*
X154774761Y-59819523D01*
X154822380Y-59914761D01*
X154822380Y-60152857D01*
X154774761Y-60248095D01*
X154727142Y-60295714D01*
X157877142Y-61112857D02*
X157924761Y-61160476D01*
X157972380Y-61303333D01*
X157972380Y-61398571D01*
X157924761Y-61541428D01*
X157829523Y-61636666D01*
X157734285Y-61684285D01*
X157543809Y-61731904D01*
X157400952Y-61731904D01*
X157210476Y-61684285D01*
X157115238Y-61636666D01*
X157020000Y-61541428D01*
X156972380Y-61398571D01*
X156972380Y-61303333D01*
X157020000Y-61160476D01*
X157067619Y-61112857D01*
X157972380Y-60160476D02*
X157972380Y-60731904D01*
X157972380Y-60446190D02*
X156972380Y-60446190D01*
X157115238Y-60541428D01*
X157210476Y-60636666D01*
X157258095Y-60731904D01*
X156972380Y-59541428D02*
X156972380Y-59446190D01*
X157020000Y-59350952D01*
X157067619Y-59303333D01*
X157162857Y-59255714D01*
X157353333Y-59208095D01*
X157591428Y-59208095D01*
X157781904Y-59255714D01*
X157877142Y-59303333D01*
X157924761Y-59350952D01*
X157972380Y-59446190D01*
X157972380Y-59541428D01*
X157924761Y-59636666D01*
X157877142Y-59684285D01*
X157781904Y-59731904D01*
X157591428Y-59779523D01*
X157353333Y-59779523D01*
X157162857Y-59731904D01*
X157067619Y-59684285D01*
X157020000Y-59636666D01*
X156972380Y-59541428D01*
X162427142Y-61172857D02*
X162474761Y-61220476D01*
X162522380Y-61363333D01*
X162522380Y-61458571D01*
X162474761Y-61601428D01*
X162379523Y-61696666D01*
X162284285Y-61744285D01*
X162093809Y-61791904D01*
X161950952Y-61791904D01*
X161760476Y-61744285D01*
X161665238Y-61696666D01*
X161570000Y-61601428D01*
X161522380Y-61458571D01*
X161522380Y-61363333D01*
X161570000Y-61220476D01*
X161617619Y-61172857D01*
X162522380Y-60220476D02*
X162522380Y-60791904D01*
X162522380Y-60506190D02*
X161522380Y-60506190D01*
X161665238Y-60601428D01*
X161760476Y-60696666D01*
X161808095Y-60791904D01*
X161617619Y-59839523D02*
X161570000Y-59791904D01*
X161522380Y-59696666D01*
X161522380Y-59458571D01*
X161570000Y-59363333D01*
X161617619Y-59315714D01*
X161712857Y-59268095D01*
X161808095Y-59268095D01*
X161950952Y-59315714D01*
X162522380Y-59887142D01*
X162522380Y-59268095D01*
X170817142Y-59142857D02*
X170864761Y-59190476D01*
X170912380Y-59333333D01*
X170912380Y-59428571D01*
X170864761Y-59571428D01*
X170769523Y-59666666D01*
X170674285Y-59714285D01*
X170483809Y-59761904D01*
X170340952Y-59761904D01*
X170150476Y-59714285D01*
X170055238Y-59666666D01*
X169960000Y-59571428D01*
X169912380Y-59428571D01*
X169912380Y-59333333D01*
X169960000Y-59190476D01*
X170007619Y-59142857D01*
X170912380Y-58190476D02*
X170912380Y-58761904D01*
X170912380Y-58476190D02*
X169912380Y-58476190D01*
X170055238Y-58571428D01*
X170150476Y-58666666D01*
X170198095Y-58761904D01*
X170340952Y-57619047D02*
X170293333Y-57714285D01*
X170245714Y-57761904D01*
X170150476Y-57809523D01*
X170102857Y-57809523D01*
X170007619Y-57761904D01*
X169960000Y-57714285D01*
X169912380Y-57619047D01*
X169912380Y-57428571D01*
X169960000Y-57333333D01*
X170007619Y-57285714D01*
X170102857Y-57238095D01*
X170150476Y-57238095D01*
X170245714Y-57285714D01*
X170293333Y-57333333D01*
X170340952Y-57428571D01*
X170340952Y-57619047D01*
X170388571Y-57714285D01*
X170436190Y-57761904D01*
X170531428Y-57809523D01*
X170721904Y-57809523D01*
X170817142Y-57761904D01*
X170864761Y-57714285D01*
X170912380Y-57619047D01*
X170912380Y-57428571D01*
X170864761Y-57333333D01*
X170817142Y-57285714D01*
X170721904Y-57238095D01*
X170531428Y-57238095D01*
X170436190Y-57285714D01*
X170388571Y-57333333D01*
X170340952Y-57428571D01*
X125234142Y-87107857D02*
X125281761Y-87155476D01*
X125329380Y-87298333D01*
X125329380Y-87393571D01*
X125281761Y-87536428D01*
X125186523Y-87631666D01*
X125091285Y-87679285D01*
X124900809Y-87726904D01*
X124757952Y-87726904D01*
X124567476Y-87679285D01*
X124472238Y-87631666D01*
X124377000Y-87536428D01*
X124329380Y-87393571D01*
X124329380Y-87298333D01*
X124377000Y-87155476D01*
X124424619Y-87107857D01*
X124424619Y-86726904D02*
X124377000Y-86679285D01*
X124329380Y-86584047D01*
X124329380Y-86345952D01*
X124377000Y-86250714D01*
X124424619Y-86203095D01*
X124519857Y-86155476D01*
X124615095Y-86155476D01*
X124757952Y-86203095D01*
X125329380Y-86774523D01*
X125329380Y-86155476D01*
X125329380Y-85203095D02*
X125329380Y-85774523D01*
X125329380Y-85488809D02*
X124329380Y-85488809D01*
X124472238Y-85584047D01*
X124567476Y-85679285D01*
X124615095Y-85774523D01*
X160643333Y-83987142D02*
X160595714Y-84034761D01*
X160452857Y-84082380D01*
X160357619Y-84082380D01*
X160214761Y-84034761D01*
X160119523Y-83939523D01*
X160071904Y-83844285D01*
X160024285Y-83653809D01*
X160024285Y-83510952D01*
X160071904Y-83320476D01*
X160119523Y-83225238D01*
X160214761Y-83130000D01*
X160357619Y-83082380D01*
X160452857Y-83082380D01*
X160595714Y-83130000D01*
X160643333Y-83177619D01*
X161595714Y-84082380D02*
X161024285Y-84082380D01*
X161310000Y-84082380D02*
X161310000Y-83082380D01*
X161214761Y-83225238D01*
X161119523Y-83320476D01*
X161024285Y-83368095D01*
X128013333Y-81397142D02*
X127965714Y-81444761D01*
X127822857Y-81492380D01*
X127727619Y-81492380D01*
X127584761Y-81444761D01*
X127489523Y-81349523D01*
X127441904Y-81254285D01*
X127394285Y-81063809D01*
X127394285Y-80920952D01*
X127441904Y-80730476D01*
X127489523Y-80635238D01*
X127584761Y-80540000D01*
X127727619Y-80492380D01*
X127822857Y-80492380D01*
X127965714Y-80540000D01*
X128013333Y-80587619D01*
X128394285Y-80587619D02*
X128441904Y-80540000D01*
X128537142Y-80492380D01*
X128775238Y-80492380D01*
X128870476Y-80540000D01*
X128918095Y-80587619D01*
X128965714Y-80682857D01*
X128965714Y-80778095D01*
X128918095Y-80920952D01*
X128346666Y-81492380D01*
X128965714Y-81492380D01*
X160553333Y-82477142D02*
X160505714Y-82524761D01*
X160362857Y-82572380D01*
X160267619Y-82572380D01*
X160124761Y-82524761D01*
X160029523Y-82429523D01*
X159981904Y-82334285D01*
X159934285Y-82143809D01*
X159934285Y-82000952D01*
X159981904Y-81810476D01*
X160029523Y-81715238D01*
X160124761Y-81620000D01*
X160267619Y-81572380D01*
X160362857Y-81572380D01*
X160505714Y-81620000D01*
X160553333Y-81667619D01*
X160886666Y-81572380D02*
X161505714Y-81572380D01*
X161172380Y-81953333D01*
X161315238Y-81953333D01*
X161410476Y-82000952D01*
X161458095Y-82048571D01*
X161505714Y-82143809D01*
X161505714Y-82381904D01*
X161458095Y-82477142D01*
X161410476Y-82524761D01*
X161315238Y-82572380D01*
X161029523Y-82572380D01*
X160934285Y-82524761D01*
X160886666Y-82477142D01*
X127953333Y-79837142D02*
X127905714Y-79884761D01*
X127762857Y-79932380D01*
X127667619Y-79932380D01*
X127524761Y-79884761D01*
X127429523Y-79789523D01*
X127381904Y-79694285D01*
X127334285Y-79503809D01*
X127334285Y-79360952D01*
X127381904Y-79170476D01*
X127429523Y-79075238D01*
X127524761Y-78980000D01*
X127667619Y-78932380D01*
X127762857Y-78932380D01*
X127905714Y-78980000D01*
X127953333Y-79027619D01*
X128810476Y-79265714D02*
X128810476Y-79932380D01*
X128572380Y-78884761D02*
X128334285Y-79599047D01*
X128953333Y-79599047D01*
X152853333Y-67157142D02*
X152805714Y-67204761D01*
X152662857Y-67252380D01*
X152567619Y-67252380D01*
X152424761Y-67204761D01*
X152329523Y-67109523D01*
X152281904Y-67014285D01*
X152234285Y-66823809D01*
X152234285Y-66680952D01*
X152281904Y-66490476D01*
X152329523Y-66395238D01*
X152424761Y-66300000D01*
X152567619Y-66252380D01*
X152662857Y-66252380D01*
X152805714Y-66300000D01*
X152853333Y-66347619D01*
X153710476Y-66252380D02*
X153520000Y-66252380D01*
X153424761Y-66300000D01*
X153377142Y-66347619D01*
X153281904Y-66490476D01*
X153234285Y-66680952D01*
X153234285Y-67061904D01*
X153281904Y-67157142D01*
X153329523Y-67204761D01*
X153424761Y-67252380D01*
X153615238Y-67252380D01*
X153710476Y-67204761D01*
X153758095Y-67157142D01*
X153805714Y-67061904D01*
X153805714Y-66823809D01*
X153758095Y-66728571D01*
X153710476Y-66680952D01*
X153615238Y-66633333D01*
X153424761Y-66633333D01*
X153329523Y-66680952D01*
X153281904Y-66728571D01*
X153234285Y-66823809D01*
X149993333Y-67157142D02*
X149945714Y-67204761D01*
X149802857Y-67252380D01*
X149707619Y-67252380D01*
X149564761Y-67204761D01*
X149469523Y-67109523D01*
X149421904Y-67014285D01*
X149374285Y-66823809D01*
X149374285Y-66680952D01*
X149421904Y-66490476D01*
X149469523Y-66395238D01*
X149564761Y-66300000D01*
X149707619Y-66252380D01*
X149802857Y-66252380D01*
X149945714Y-66300000D01*
X149993333Y-66347619D01*
X150326666Y-66252380D02*
X150993333Y-66252380D01*
X150564761Y-67252380D01*
X133733142Y-66778666D02*
X133780761Y-66826285D01*
X133828380Y-66969142D01*
X133828380Y-67064380D01*
X133780761Y-67207238D01*
X133685523Y-67302476D01*
X133590285Y-67350095D01*
X133399809Y-67397714D01*
X133256952Y-67397714D01*
X133066476Y-67350095D01*
X132971238Y-67302476D01*
X132876000Y-67207238D01*
X132828380Y-67064380D01*
X132828380Y-66969142D01*
X132876000Y-66826285D01*
X132923619Y-66778666D01*
X133256952Y-66207238D02*
X133209333Y-66302476D01*
X133161714Y-66350095D01*
X133066476Y-66397714D01*
X133018857Y-66397714D01*
X132923619Y-66350095D01*
X132876000Y-66302476D01*
X132828380Y-66207238D01*
X132828380Y-66016761D01*
X132876000Y-65921523D01*
X132923619Y-65873904D01*
X133018857Y-65826285D01*
X133066476Y-65826285D01*
X133161714Y-65873904D01*
X133209333Y-65921523D01*
X133256952Y-66016761D01*
X133256952Y-66207238D01*
X133304571Y-66302476D01*
X133352190Y-66350095D01*
X133447428Y-66397714D01*
X133637904Y-66397714D01*
X133733142Y-66350095D01*
X133780761Y-66302476D01*
X133828380Y-66207238D01*
X133828380Y-66016761D01*
X133780761Y-65921523D01*
X133733142Y-65873904D01*
X133637904Y-65826285D01*
X133447428Y-65826285D01*
X133352190Y-65873904D01*
X133304571Y-65921523D01*
X133256952Y-66016761D01*
X136282133Y-68911742D02*
X136234514Y-68959361D01*
X136091657Y-69006980D01*
X135996419Y-69006980D01*
X135853561Y-68959361D01*
X135758323Y-68864123D01*
X135710704Y-68768885D01*
X135663085Y-68578409D01*
X135663085Y-68435552D01*
X135710704Y-68245076D01*
X135758323Y-68149838D01*
X135853561Y-68054600D01*
X135996419Y-68006980D01*
X136091657Y-68006980D01*
X136234514Y-68054600D01*
X136282133Y-68102219D01*
X136758323Y-69006980D02*
X136948800Y-69006980D01*
X137044038Y-68959361D01*
X137091657Y-68911742D01*
X137186895Y-68768885D01*
X137234514Y-68578409D01*
X137234514Y-68197457D01*
X137186895Y-68102219D01*
X137139276Y-68054600D01*
X137044038Y-68006980D01*
X136853561Y-68006980D01*
X136758323Y-68054600D01*
X136710704Y-68102219D01*
X136663085Y-68197457D01*
X136663085Y-68435552D01*
X136710704Y-68530790D01*
X136758323Y-68578409D01*
X136853561Y-68626028D01*
X137044038Y-68626028D01*
X137139276Y-68578409D01*
X137186895Y-68530790D01*
X137234514Y-68435552D01*
X127107142Y-76857142D02*
X127059523Y-76904761D01*
X126916666Y-76952380D01*
X126821428Y-76952380D01*
X126678571Y-76904761D01*
X126583333Y-76809523D01*
X126535714Y-76714285D01*
X126488095Y-76523809D01*
X126488095Y-76380952D01*
X126535714Y-76190476D01*
X126583333Y-76095238D01*
X126678571Y-76000000D01*
X126821428Y-75952380D01*
X126916666Y-75952380D01*
X127059523Y-76000000D01*
X127107142Y-76047619D01*
X128059523Y-76952380D02*
X127488095Y-76952380D01*
X127773809Y-76952380D02*
X127773809Y-75952380D01*
X127678571Y-76095238D01*
X127583333Y-76190476D01*
X127488095Y-76238095D01*
X129011904Y-76952380D02*
X128440476Y-76952380D01*
X128726190Y-76952380D02*
X128726190Y-75952380D01*
X128630952Y-76095238D01*
X128535714Y-76190476D01*
X128440476Y-76238095D01*
X127117142Y-78337142D02*
X127069523Y-78384761D01*
X126926666Y-78432380D01*
X126831428Y-78432380D01*
X126688571Y-78384761D01*
X126593333Y-78289523D01*
X126545714Y-78194285D01*
X126498095Y-78003809D01*
X126498095Y-77860952D01*
X126545714Y-77670476D01*
X126593333Y-77575238D01*
X126688571Y-77480000D01*
X126831428Y-77432380D01*
X126926666Y-77432380D01*
X127069523Y-77480000D01*
X127117142Y-77527619D01*
X128069523Y-78432380D02*
X127498095Y-78432380D01*
X127783809Y-78432380D02*
X127783809Y-77432380D01*
X127688571Y-77575238D01*
X127593333Y-77670476D01*
X127498095Y-77718095D01*
X128402857Y-77432380D02*
X129021904Y-77432380D01*
X128688571Y-77813333D01*
X128831428Y-77813333D01*
X128926666Y-77860952D01*
X128974285Y-77908571D01*
X129021904Y-78003809D01*
X129021904Y-78241904D01*
X128974285Y-78337142D01*
X128926666Y-78384761D01*
X128831428Y-78432380D01*
X128545714Y-78432380D01*
X128450476Y-78384761D01*
X128402857Y-78337142D01*
X126945142Y-84613142D02*
X126897523Y-84660761D01*
X126754666Y-84708380D01*
X126659428Y-84708380D01*
X126516571Y-84660761D01*
X126421333Y-84565523D01*
X126373714Y-84470285D01*
X126326095Y-84279809D01*
X126326095Y-84136952D01*
X126373714Y-83946476D01*
X126421333Y-83851238D01*
X126516571Y-83756000D01*
X126659428Y-83708380D01*
X126754666Y-83708380D01*
X126897523Y-83756000D01*
X126945142Y-83803619D01*
X127897523Y-84708380D02*
X127326095Y-84708380D01*
X127611809Y-84708380D02*
X127611809Y-83708380D01*
X127516571Y-83851238D01*
X127421333Y-83946476D01*
X127326095Y-83994095D01*
X128754666Y-84041714D02*
X128754666Y-84708380D01*
X128516571Y-83660761D02*
X128278476Y-84375047D01*
X128897523Y-84375047D01*
X126945142Y-83089142D02*
X126897523Y-83136761D01*
X126754666Y-83184380D01*
X126659428Y-83184380D01*
X126516571Y-83136761D01*
X126421333Y-83041523D01*
X126373714Y-82946285D01*
X126326095Y-82755809D01*
X126326095Y-82612952D01*
X126373714Y-82422476D01*
X126421333Y-82327238D01*
X126516571Y-82232000D01*
X126659428Y-82184380D01*
X126754666Y-82184380D01*
X126897523Y-82232000D01*
X126945142Y-82279619D01*
X127897523Y-83184380D02*
X127326095Y-83184380D01*
X127611809Y-83184380D02*
X127611809Y-82184380D01*
X127516571Y-82327238D01*
X127421333Y-82422476D01*
X127326095Y-82470095D01*
X128802285Y-82184380D02*
X128326095Y-82184380D01*
X128278476Y-82660571D01*
X128326095Y-82612952D01*
X128421333Y-82565333D01*
X128659428Y-82565333D01*
X128754666Y-82612952D01*
X128802285Y-82660571D01*
X128849904Y-82755809D01*
X128849904Y-82993904D01*
X128802285Y-83089142D01*
X128754666Y-83136761D01*
X128659428Y-83184380D01*
X128421333Y-83184380D01*
X128326095Y-83136761D01*
X128278476Y-83089142D01*
X138983142Y-94542857D02*
X139030761Y-94590476D01*
X139078380Y-94733333D01*
X139078380Y-94828571D01*
X139030761Y-94971428D01*
X138935523Y-95066666D01*
X138840285Y-95114285D01*
X138649809Y-95161904D01*
X138506952Y-95161904D01*
X138316476Y-95114285D01*
X138221238Y-95066666D01*
X138126000Y-94971428D01*
X138078380Y-94828571D01*
X138078380Y-94733333D01*
X138126000Y-94590476D01*
X138173619Y-94542857D01*
X139078380Y-93590476D02*
X139078380Y-94161904D01*
X139078380Y-93876190D02*
X138078380Y-93876190D01*
X138221238Y-93971428D01*
X138316476Y-94066666D01*
X138364095Y-94161904D01*
X138078380Y-92733333D02*
X138078380Y-92923809D01*
X138126000Y-93019047D01*
X138173619Y-93066666D01*
X138316476Y-93161904D01*
X138506952Y-93209523D01*
X138887904Y-93209523D01*
X138983142Y-93161904D01*
X139030761Y-93114285D01*
X139078380Y-93019047D01*
X139078380Y-92828571D01*
X139030761Y-92733333D01*
X138983142Y-92685714D01*
X138887904Y-92638095D01*
X138649809Y-92638095D01*
X138554571Y-92685714D01*
X138506952Y-92733333D01*
X138459333Y-92828571D01*
X138459333Y-93019047D01*
X138506952Y-93114285D01*
X138554571Y-93161904D01*
X138649809Y-93209523D01*
X143397142Y-94562857D02*
X143444761Y-94610476D01*
X143492380Y-94753333D01*
X143492380Y-94848571D01*
X143444761Y-94991428D01*
X143349523Y-95086666D01*
X143254285Y-95134285D01*
X143063809Y-95181904D01*
X142920952Y-95181904D01*
X142730476Y-95134285D01*
X142635238Y-95086666D01*
X142540000Y-94991428D01*
X142492380Y-94848571D01*
X142492380Y-94753333D01*
X142540000Y-94610476D01*
X142587619Y-94562857D01*
X143492380Y-93610476D02*
X143492380Y-94181904D01*
X143492380Y-93896190D02*
X142492380Y-93896190D01*
X142635238Y-93991428D01*
X142730476Y-94086666D01*
X142778095Y-94181904D01*
X142492380Y-93277142D02*
X142492380Y-92610476D01*
X143492380Y-93039047D01*
X160491542Y-94238357D02*
X160539161Y-94285976D01*
X160586780Y-94428833D01*
X160586780Y-94524071D01*
X160539161Y-94666928D01*
X160443923Y-94762166D01*
X160348685Y-94809785D01*
X160158209Y-94857404D01*
X160015352Y-94857404D01*
X159824876Y-94809785D01*
X159729638Y-94762166D01*
X159634400Y-94666928D01*
X159586780Y-94524071D01*
X159586780Y-94428833D01*
X159634400Y-94285976D01*
X159682019Y-94238357D01*
X160586780Y-93285976D02*
X160586780Y-93857404D01*
X160586780Y-93571690D02*
X159586780Y-93571690D01*
X159729638Y-93666928D01*
X159824876Y-93762166D01*
X159872495Y-93857404D01*
X160586780Y-92809785D02*
X160586780Y-92619309D01*
X160539161Y-92524071D01*
X160491542Y-92476452D01*
X160348685Y-92381214D01*
X160158209Y-92333595D01*
X159777257Y-92333595D01*
X159682019Y-92381214D01*
X159634400Y-92428833D01*
X159586780Y-92524071D01*
X159586780Y-92714547D01*
X159634400Y-92809785D01*
X159682019Y-92857404D01*
X159777257Y-92905023D01*
X160015352Y-92905023D01*
X160110590Y-92857404D01*
X160158209Y-92809785D01*
X160205828Y-92714547D01*
X160205828Y-92524071D01*
X160158209Y-92428833D01*
X160110590Y-92381214D01*
X160015352Y-92333595D01*
X152023142Y-94510857D02*
X152070761Y-94558476D01*
X152118380Y-94701333D01*
X152118380Y-94796571D01*
X152070761Y-94939428D01*
X151975523Y-95034666D01*
X151880285Y-95082285D01*
X151689809Y-95129904D01*
X151546952Y-95129904D01*
X151356476Y-95082285D01*
X151261238Y-95034666D01*
X151166000Y-94939428D01*
X151118380Y-94796571D01*
X151118380Y-94701333D01*
X151166000Y-94558476D01*
X151213619Y-94510857D01*
X151213619Y-94129904D02*
X151166000Y-94082285D01*
X151118380Y-93987047D01*
X151118380Y-93748952D01*
X151166000Y-93653714D01*
X151213619Y-93606095D01*
X151308857Y-93558476D01*
X151404095Y-93558476D01*
X151546952Y-93606095D01*
X152118380Y-94177523D01*
X152118380Y-93558476D01*
X151118380Y-92939428D02*
X151118380Y-92844190D01*
X151166000Y-92748952D01*
X151213619Y-92701333D01*
X151308857Y-92653714D01*
X151499333Y-92606095D01*
X151737428Y-92606095D01*
X151927904Y-92653714D01*
X152023142Y-92701333D01*
X152070761Y-92748952D01*
X152118380Y-92844190D01*
X152118380Y-92939428D01*
X152070761Y-93034666D01*
X152023142Y-93082285D01*
X151927904Y-93129904D01*
X151737428Y-93177523D01*
X151499333Y-93177523D01*
X151308857Y-93129904D01*
X151213619Y-93082285D01*
X151166000Y-93034666D01*
X151118380Y-92939428D01*
X160651142Y-87035142D02*
X160603523Y-87082761D01*
X160460666Y-87130380D01*
X160365428Y-87130380D01*
X160222571Y-87082761D01*
X160127333Y-86987523D01*
X160079714Y-86892285D01*
X160032095Y-86701809D01*
X160032095Y-86558952D01*
X160079714Y-86368476D01*
X160127333Y-86273238D01*
X160222571Y-86178000D01*
X160365428Y-86130380D01*
X160460666Y-86130380D01*
X160603523Y-86178000D01*
X160651142Y-86225619D01*
X161032095Y-86225619D02*
X161079714Y-86178000D01*
X161174952Y-86130380D01*
X161413047Y-86130380D01*
X161508285Y-86178000D01*
X161555904Y-86225619D01*
X161603523Y-86320857D01*
X161603523Y-86416095D01*
X161555904Y-86558952D01*
X160984476Y-87130380D01*
X161603523Y-87130380D01*
X161984476Y-86225619D02*
X162032095Y-86178000D01*
X162127333Y-86130380D01*
X162365428Y-86130380D01*
X162460666Y-86178000D01*
X162508285Y-86225619D01*
X162555904Y-86320857D01*
X162555904Y-86416095D01*
X162508285Y-86558952D01*
X161936857Y-87130380D01*
X162555904Y-87130380D01*
X160663142Y-85511142D02*
X160615523Y-85558761D01*
X160472666Y-85606380D01*
X160377428Y-85606380D01*
X160234571Y-85558761D01*
X160139333Y-85463523D01*
X160091714Y-85368285D01*
X160044095Y-85177809D01*
X160044095Y-85034952D01*
X160091714Y-84844476D01*
X160139333Y-84749238D01*
X160234571Y-84654000D01*
X160377428Y-84606380D01*
X160472666Y-84606380D01*
X160615523Y-84654000D01*
X160663142Y-84701619D01*
X161044095Y-84701619D02*
X161091714Y-84654000D01*
X161186952Y-84606380D01*
X161425047Y-84606380D01*
X161520285Y-84654000D01*
X161567904Y-84701619D01*
X161615523Y-84796857D01*
X161615523Y-84892095D01*
X161567904Y-85034952D01*
X160996476Y-85606380D01*
X161615523Y-85606380D01*
X161948857Y-84606380D02*
X162567904Y-84606380D01*
X162234571Y-84987333D01*
X162377428Y-84987333D01*
X162472666Y-85034952D01*
X162520285Y-85082571D01*
X162567904Y-85177809D01*
X162567904Y-85415904D01*
X162520285Y-85511142D01*
X162472666Y-85558761D01*
X162377428Y-85606380D01*
X162091714Y-85606380D01*
X161996476Y-85558761D01*
X161948857Y-85511142D01*
X160443142Y-77617142D02*
X160395523Y-77664761D01*
X160252666Y-77712380D01*
X160157428Y-77712380D01*
X160014571Y-77664761D01*
X159919333Y-77569523D01*
X159871714Y-77474285D01*
X159824095Y-77283809D01*
X159824095Y-77140952D01*
X159871714Y-76950476D01*
X159919333Y-76855238D01*
X160014571Y-76760000D01*
X160157428Y-76712380D01*
X160252666Y-76712380D01*
X160395523Y-76760000D01*
X160443142Y-76807619D01*
X160824095Y-76807619D02*
X160871714Y-76760000D01*
X160966952Y-76712380D01*
X161205047Y-76712380D01*
X161300285Y-76760000D01*
X161347904Y-76807619D01*
X161395523Y-76902857D01*
X161395523Y-76998095D01*
X161347904Y-77140952D01*
X160776476Y-77712380D01*
X161395523Y-77712380D01*
X162252666Y-77045714D02*
X162252666Y-77712380D01*
X162014571Y-76664761D02*
X161776476Y-77379047D01*
X162395523Y-77379047D01*
X160455142Y-79227142D02*
X160407523Y-79274761D01*
X160264666Y-79322380D01*
X160169428Y-79322380D01*
X160026571Y-79274761D01*
X159931333Y-79179523D01*
X159883714Y-79084285D01*
X159836095Y-78893809D01*
X159836095Y-78750952D01*
X159883714Y-78560476D01*
X159931333Y-78465238D01*
X160026571Y-78370000D01*
X160169428Y-78322380D01*
X160264666Y-78322380D01*
X160407523Y-78370000D01*
X160455142Y-78417619D01*
X160836095Y-78417619D02*
X160883714Y-78370000D01*
X160978952Y-78322380D01*
X161217047Y-78322380D01*
X161312285Y-78370000D01*
X161359904Y-78417619D01*
X161407523Y-78512857D01*
X161407523Y-78608095D01*
X161359904Y-78750952D01*
X160788476Y-79322380D01*
X161407523Y-79322380D01*
X162312285Y-78322380D02*
X161836095Y-78322380D01*
X161788476Y-78798571D01*
X161836095Y-78750952D01*
X161931333Y-78703333D01*
X162169428Y-78703333D01*
X162264666Y-78750952D01*
X162312285Y-78798571D01*
X162359904Y-78893809D01*
X162359904Y-79131904D01*
X162312285Y-79227142D01*
X162264666Y-79274761D01*
X162169428Y-79322380D01*
X161931333Y-79322380D01*
X161836095Y-79274761D01*
X161788476Y-79227142D01*
X141885942Y-67262857D02*
X141933561Y-67310476D01*
X141981180Y-67453333D01*
X141981180Y-67548571D01*
X141933561Y-67691428D01*
X141838323Y-67786666D01*
X141743085Y-67834285D01*
X141552609Y-67881904D01*
X141409752Y-67881904D01*
X141219276Y-67834285D01*
X141124038Y-67786666D01*
X141028800Y-67691428D01*
X140981180Y-67548571D01*
X140981180Y-67453333D01*
X141028800Y-67310476D01*
X141076419Y-67262857D01*
X141076419Y-66881904D02*
X141028800Y-66834285D01*
X140981180Y-66739047D01*
X140981180Y-66500952D01*
X141028800Y-66405714D01*
X141076419Y-66358095D01*
X141171657Y-66310476D01*
X141266895Y-66310476D01*
X141409752Y-66358095D01*
X141981180Y-66929523D01*
X141981180Y-66310476D01*
X140981180Y-65453333D02*
X140981180Y-65643809D01*
X141028800Y-65739047D01*
X141076419Y-65786666D01*
X141219276Y-65881904D01*
X141409752Y-65929523D01*
X141790704Y-65929523D01*
X141885942Y-65881904D01*
X141933561Y-65834285D01*
X141981180Y-65739047D01*
X141981180Y-65548571D01*
X141933561Y-65453333D01*
X141885942Y-65405714D01*
X141790704Y-65358095D01*
X141552609Y-65358095D01*
X141457371Y-65405714D01*
X141409752Y-65453333D01*
X141362133Y-65548571D01*
X141362133Y-65739047D01*
X141409752Y-65834285D01*
X141457371Y-65881904D01*
X141552609Y-65929523D01*
X138497142Y-68917142D02*
X138449523Y-68964761D01*
X138306666Y-69012380D01*
X138211428Y-69012380D01*
X138068571Y-68964761D01*
X137973333Y-68869523D01*
X137925714Y-68774285D01*
X137878095Y-68583809D01*
X137878095Y-68440952D01*
X137925714Y-68250476D01*
X137973333Y-68155238D01*
X138068571Y-68060000D01*
X138211428Y-68012380D01*
X138306666Y-68012380D01*
X138449523Y-68060000D01*
X138497142Y-68107619D01*
X138878095Y-68107619D02*
X138925714Y-68060000D01*
X139020952Y-68012380D01*
X139259047Y-68012380D01*
X139354285Y-68060000D01*
X139401904Y-68107619D01*
X139449523Y-68202857D01*
X139449523Y-68298095D01*
X139401904Y-68440952D01*
X138830476Y-69012380D01*
X139449523Y-69012380D01*
X139782857Y-68012380D02*
X140449523Y-68012380D01*
X140020952Y-69012380D01*
X126929142Y-71957142D02*
X126881523Y-72004761D01*
X126738666Y-72052380D01*
X126643428Y-72052380D01*
X126500571Y-72004761D01*
X126405333Y-71909523D01*
X126357714Y-71814285D01*
X126310095Y-71623809D01*
X126310095Y-71480952D01*
X126357714Y-71290476D01*
X126405333Y-71195238D01*
X126500571Y-71100000D01*
X126643428Y-71052380D01*
X126738666Y-71052380D01*
X126881523Y-71100000D01*
X126929142Y-71147619D01*
X127310095Y-71147619D02*
X127357714Y-71100000D01*
X127452952Y-71052380D01*
X127691047Y-71052380D01*
X127786285Y-71100000D01*
X127833904Y-71147619D01*
X127881523Y-71242857D01*
X127881523Y-71338095D01*
X127833904Y-71480952D01*
X127262476Y-72052380D01*
X127881523Y-72052380D01*
X128452952Y-71480952D02*
X128357714Y-71433333D01*
X128310095Y-71385714D01*
X128262476Y-71290476D01*
X128262476Y-71242857D01*
X128310095Y-71147619D01*
X128357714Y-71100000D01*
X128452952Y-71052380D01*
X128643428Y-71052380D01*
X128738666Y-71100000D01*
X128786285Y-71147619D01*
X128833904Y-71242857D01*
X128833904Y-71290476D01*
X128786285Y-71385714D01*
X128738666Y-71433333D01*
X128643428Y-71480952D01*
X128452952Y-71480952D01*
X128357714Y-71528571D01*
X128310095Y-71576190D01*
X128262476Y-71671428D01*
X128262476Y-71861904D01*
X128310095Y-71957142D01*
X128357714Y-72004761D01*
X128452952Y-72052380D01*
X128643428Y-72052380D01*
X128738666Y-72004761D01*
X128786285Y-71957142D01*
X128833904Y-71861904D01*
X128833904Y-71671428D01*
X128786285Y-71576190D01*
X128738666Y-71528571D01*
X128643428Y-71480952D01*
X126903242Y-73471042D02*
X126855623Y-73518661D01*
X126712766Y-73566280D01*
X126617528Y-73566280D01*
X126474671Y-73518661D01*
X126379433Y-73423423D01*
X126331814Y-73328185D01*
X126284195Y-73137709D01*
X126284195Y-72994852D01*
X126331814Y-72804376D01*
X126379433Y-72709138D01*
X126474671Y-72613900D01*
X126617528Y-72566280D01*
X126712766Y-72566280D01*
X126855623Y-72613900D01*
X126903242Y-72661519D01*
X127236576Y-72566280D02*
X127855623Y-72566280D01*
X127522290Y-72947233D01*
X127665147Y-72947233D01*
X127760385Y-72994852D01*
X127808004Y-73042471D01*
X127855623Y-73137709D01*
X127855623Y-73375804D01*
X127808004Y-73471042D01*
X127760385Y-73518661D01*
X127665147Y-73566280D01*
X127379433Y-73566280D01*
X127284195Y-73518661D01*
X127236576Y-73471042D01*
X128474671Y-72566280D02*
X128569909Y-72566280D01*
X128665147Y-72613900D01*
X128712766Y-72661519D01*
X128760385Y-72756757D01*
X128808004Y-72947233D01*
X128808004Y-73185328D01*
X128760385Y-73375804D01*
X128712766Y-73471042D01*
X128665147Y-73518661D01*
X128569909Y-73566280D01*
X128474671Y-73566280D01*
X128379433Y-73518661D01*
X128331814Y-73471042D01*
X128284195Y-73375804D01*
X128236576Y-73185328D01*
X128236576Y-72947233D01*
X128284195Y-72756757D01*
X128331814Y-72661519D01*
X128379433Y-72613900D01*
X128474671Y-72566280D01*
X148975142Y-94522857D02*
X149022761Y-94570476D01*
X149070380Y-94713333D01*
X149070380Y-94808571D01*
X149022761Y-94951428D01*
X148927523Y-95046666D01*
X148832285Y-95094285D01*
X148641809Y-95141904D01*
X148498952Y-95141904D01*
X148308476Y-95094285D01*
X148213238Y-95046666D01*
X148118000Y-94951428D01*
X148070380Y-94808571D01*
X148070380Y-94713333D01*
X148118000Y-94570476D01*
X148165619Y-94522857D01*
X148070380Y-94189523D02*
X148070380Y-93570476D01*
X148451333Y-93903809D01*
X148451333Y-93760952D01*
X148498952Y-93665714D01*
X148546571Y-93618095D01*
X148641809Y-93570476D01*
X148879904Y-93570476D01*
X148975142Y-93618095D01*
X149022761Y-93665714D01*
X149070380Y-93760952D01*
X149070380Y-94046666D01*
X149022761Y-94141904D01*
X148975142Y-94189523D01*
X149070380Y-92618095D02*
X149070380Y-93189523D01*
X149070380Y-92903809D02*
X148070380Y-92903809D01*
X148213238Y-92999047D01*
X148308476Y-93094285D01*
X148356095Y-93189523D01*
X144717142Y-94552857D02*
X144764761Y-94600476D01*
X144812380Y-94743333D01*
X144812380Y-94838571D01*
X144764761Y-94981428D01*
X144669523Y-95076666D01*
X144574285Y-95124285D01*
X144383809Y-95171904D01*
X144240952Y-95171904D01*
X144050476Y-95124285D01*
X143955238Y-95076666D01*
X143860000Y-94981428D01*
X143812380Y-94838571D01*
X143812380Y-94743333D01*
X143860000Y-94600476D01*
X143907619Y-94552857D01*
X143812380Y-94219523D02*
X143812380Y-93600476D01*
X144193333Y-93933809D01*
X144193333Y-93790952D01*
X144240952Y-93695714D01*
X144288571Y-93648095D01*
X144383809Y-93600476D01*
X144621904Y-93600476D01*
X144717142Y-93648095D01*
X144764761Y-93695714D01*
X144812380Y-93790952D01*
X144812380Y-94076666D01*
X144764761Y-94171904D01*
X144717142Y-94219523D01*
X143907619Y-93219523D02*
X143860000Y-93171904D01*
X143812380Y-93076666D01*
X143812380Y-92838571D01*
X143860000Y-92743333D01*
X143907619Y-92695714D01*
X144002857Y-92648095D01*
X144098095Y-92648095D01*
X144240952Y-92695714D01*
X144812380Y-93267142D01*
X144812380Y-92648095D01*
X160695142Y-89599142D02*
X160647523Y-89646761D01*
X160504666Y-89694380D01*
X160409428Y-89694380D01*
X160266571Y-89646761D01*
X160171333Y-89551523D01*
X160123714Y-89456285D01*
X160076095Y-89265809D01*
X160076095Y-89122952D01*
X160123714Y-88932476D01*
X160171333Y-88837238D01*
X160266571Y-88742000D01*
X160409428Y-88694380D01*
X160504666Y-88694380D01*
X160647523Y-88742000D01*
X160695142Y-88789619D01*
X161028476Y-88694380D02*
X161647523Y-88694380D01*
X161314190Y-89075333D01*
X161457047Y-89075333D01*
X161552285Y-89122952D01*
X161599904Y-89170571D01*
X161647523Y-89265809D01*
X161647523Y-89503904D01*
X161599904Y-89599142D01*
X161552285Y-89646761D01*
X161457047Y-89694380D01*
X161171333Y-89694380D01*
X161076095Y-89646761D01*
X161028476Y-89599142D01*
X161980857Y-88694380D02*
X162599904Y-88694380D01*
X162266571Y-89075333D01*
X162409428Y-89075333D01*
X162504666Y-89122952D01*
X162552285Y-89170571D01*
X162599904Y-89265809D01*
X162599904Y-89503904D01*
X162552285Y-89599142D01*
X162504666Y-89646761D01*
X162409428Y-89694380D01*
X162123714Y-89694380D01*
X162028476Y-89646761D01*
X161980857Y-89599142D01*
X160695142Y-91123142D02*
X160647523Y-91170761D01*
X160504666Y-91218380D01*
X160409428Y-91218380D01*
X160266571Y-91170761D01*
X160171333Y-91075523D01*
X160123714Y-90980285D01*
X160076095Y-90789809D01*
X160076095Y-90646952D01*
X160123714Y-90456476D01*
X160171333Y-90361238D01*
X160266571Y-90266000D01*
X160409428Y-90218380D01*
X160504666Y-90218380D01*
X160647523Y-90266000D01*
X160695142Y-90313619D01*
X161028476Y-90218380D02*
X161647523Y-90218380D01*
X161314190Y-90599333D01*
X161457047Y-90599333D01*
X161552285Y-90646952D01*
X161599904Y-90694571D01*
X161647523Y-90789809D01*
X161647523Y-91027904D01*
X161599904Y-91123142D01*
X161552285Y-91170761D01*
X161457047Y-91218380D01*
X161171333Y-91218380D01*
X161076095Y-91170761D01*
X161028476Y-91123142D01*
X162504666Y-90551714D02*
X162504666Y-91218380D01*
X162266571Y-90170761D02*
X162028476Y-90885047D01*
X162647523Y-90885047D01*
X151978342Y-119385702D02*
X151930723Y-119433321D01*
X151787866Y-119480940D01*
X151692628Y-119480940D01*
X151549771Y-119433321D01*
X151454533Y-119338083D01*
X151406914Y-119242845D01*
X151359295Y-119052369D01*
X151359295Y-118909512D01*
X151406914Y-118719036D01*
X151454533Y-118623798D01*
X151549771Y-118528560D01*
X151692628Y-118480940D01*
X151787866Y-118480940D01*
X151930723Y-118528560D01*
X151978342Y-118576179D01*
X152311676Y-118480940D02*
X152930723Y-118480940D01*
X152597390Y-118861893D01*
X152740247Y-118861893D01*
X152835485Y-118909512D01*
X152883104Y-118957131D01*
X152930723Y-119052369D01*
X152930723Y-119290464D01*
X152883104Y-119385702D01*
X152835485Y-119433321D01*
X152740247Y-119480940D01*
X152454533Y-119480940D01*
X152359295Y-119433321D01*
X152311676Y-119385702D01*
X153835485Y-118480940D02*
X153359295Y-118480940D01*
X153311676Y-118957131D01*
X153359295Y-118909512D01*
X153454533Y-118861893D01*
X153692628Y-118861893D01*
X153787866Y-118909512D01*
X153835485Y-118957131D01*
X153883104Y-119052369D01*
X153883104Y-119290464D01*
X153835485Y-119385702D01*
X153787866Y-119433321D01*
X153692628Y-119480940D01*
X153454533Y-119480940D01*
X153359295Y-119433321D01*
X153311676Y-119385702D01*
X151978342Y-108971702D02*
X151930723Y-109019321D01*
X151787866Y-109066940D01*
X151692628Y-109066940D01*
X151549771Y-109019321D01*
X151454533Y-108924083D01*
X151406914Y-108828845D01*
X151359295Y-108638369D01*
X151359295Y-108495512D01*
X151406914Y-108305036D01*
X151454533Y-108209798D01*
X151549771Y-108114560D01*
X151692628Y-108066940D01*
X151787866Y-108066940D01*
X151930723Y-108114560D01*
X151978342Y-108162179D01*
X152311676Y-108066940D02*
X152930723Y-108066940D01*
X152597390Y-108447893D01*
X152740247Y-108447893D01*
X152835485Y-108495512D01*
X152883104Y-108543131D01*
X152930723Y-108638369D01*
X152930723Y-108876464D01*
X152883104Y-108971702D01*
X152835485Y-109019321D01*
X152740247Y-109066940D01*
X152454533Y-109066940D01*
X152359295Y-109019321D01*
X152311676Y-108971702D01*
X153264057Y-108066940D02*
X153930723Y-108066940D01*
X153502152Y-109066940D01*
X151757142Y-98797142D02*
X151709523Y-98844761D01*
X151566666Y-98892380D01*
X151471428Y-98892380D01*
X151328571Y-98844761D01*
X151233333Y-98749523D01*
X151185714Y-98654285D01*
X151138095Y-98463809D01*
X151138095Y-98320952D01*
X151185714Y-98130476D01*
X151233333Y-98035238D01*
X151328571Y-97940000D01*
X151471428Y-97892380D01*
X151566666Y-97892380D01*
X151709523Y-97940000D01*
X151757142Y-97987619D01*
X152090476Y-97892380D02*
X152709523Y-97892380D01*
X152376190Y-98273333D01*
X152519047Y-98273333D01*
X152614285Y-98320952D01*
X152661904Y-98368571D01*
X152709523Y-98463809D01*
X152709523Y-98701904D01*
X152661904Y-98797142D01*
X152614285Y-98844761D01*
X152519047Y-98892380D01*
X152233333Y-98892380D01*
X152138095Y-98844761D01*
X152090476Y-98797142D01*
X153280952Y-98320952D02*
X153185714Y-98273333D01*
X153138095Y-98225714D01*
X153090476Y-98130476D01*
X153090476Y-98082857D01*
X153138095Y-97987619D01*
X153185714Y-97940000D01*
X153280952Y-97892380D01*
X153471428Y-97892380D01*
X153566666Y-97940000D01*
X153614285Y-97987619D01*
X153661904Y-98082857D01*
X153661904Y-98130476D01*
X153614285Y-98225714D01*
X153566666Y-98273333D01*
X153471428Y-98320952D01*
X153280952Y-98320952D01*
X153185714Y-98368571D01*
X153138095Y-98416190D01*
X153090476Y-98511428D01*
X153090476Y-98701904D01*
X153138095Y-98797142D01*
X153185714Y-98844761D01*
X153280952Y-98892380D01*
X153471428Y-98892380D01*
X153566666Y-98844761D01*
X153614285Y-98797142D01*
X153661904Y-98701904D01*
X153661904Y-98511428D01*
X153614285Y-98416190D01*
X153566666Y-98368571D01*
X153471428Y-98320952D01*
X151978342Y-114559702D02*
X151930723Y-114607321D01*
X151787866Y-114654940D01*
X151692628Y-114654940D01*
X151549771Y-114607321D01*
X151454533Y-114512083D01*
X151406914Y-114416845D01*
X151359295Y-114226369D01*
X151359295Y-114083512D01*
X151406914Y-113893036D01*
X151454533Y-113797798D01*
X151549771Y-113702560D01*
X151692628Y-113654940D01*
X151787866Y-113654940D01*
X151930723Y-113702560D01*
X151978342Y-113750179D01*
X152311676Y-113654940D02*
X152930723Y-113654940D01*
X152597390Y-114035893D01*
X152740247Y-114035893D01*
X152835485Y-114083512D01*
X152883104Y-114131131D01*
X152930723Y-114226369D01*
X152930723Y-114464464D01*
X152883104Y-114559702D01*
X152835485Y-114607321D01*
X152740247Y-114654940D01*
X152454533Y-114654940D01*
X152359295Y-114607321D01*
X152311676Y-114559702D01*
X153406914Y-114654940D02*
X153597390Y-114654940D01*
X153692628Y-114607321D01*
X153740247Y-114559702D01*
X153835485Y-114416845D01*
X153883104Y-114226369D01*
X153883104Y-113845417D01*
X153835485Y-113750179D01*
X153787866Y-113702560D01*
X153692628Y-113654940D01*
X153502152Y-113654940D01*
X153406914Y-113702560D01*
X153359295Y-113750179D01*
X153311676Y-113845417D01*
X153311676Y-114083512D01*
X153359295Y-114178750D01*
X153406914Y-114226369D01*
X153502152Y-114273988D01*
X153692628Y-114273988D01*
X153787866Y-114226369D01*
X153835485Y-114178750D01*
X153883104Y-114083512D01*
X151978342Y-112781702D02*
X151930723Y-112829321D01*
X151787866Y-112876940D01*
X151692628Y-112876940D01*
X151549771Y-112829321D01*
X151454533Y-112734083D01*
X151406914Y-112638845D01*
X151359295Y-112448369D01*
X151359295Y-112305512D01*
X151406914Y-112115036D01*
X151454533Y-112019798D01*
X151549771Y-111924560D01*
X151692628Y-111876940D01*
X151787866Y-111876940D01*
X151930723Y-111924560D01*
X151978342Y-111972179D01*
X152835485Y-112210274D02*
X152835485Y-112876940D01*
X152597390Y-111829321D02*
X152359295Y-112543607D01*
X152978342Y-112543607D01*
X153883104Y-112876940D02*
X153311676Y-112876940D01*
X153597390Y-112876940D02*
X153597390Y-111876940D01*
X153502152Y-112019798D01*
X153406914Y-112115036D01*
X153311676Y-112162655D01*
X136527142Y-110082857D02*
X136574761Y-110130476D01*
X136622380Y-110273333D01*
X136622380Y-110368571D01*
X136574761Y-110511428D01*
X136479523Y-110606666D01*
X136384285Y-110654285D01*
X136193809Y-110701904D01*
X136050952Y-110701904D01*
X135860476Y-110654285D01*
X135765238Y-110606666D01*
X135670000Y-110511428D01*
X135622380Y-110368571D01*
X135622380Y-110273333D01*
X135670000Y-110130476D01*
X135717619Y-110082857D01*
X135955714Y-109225714D02*
X136622380Y-109225714D01*
X135574761Y-109463809D02*
X136289047Y-109701904D01*
X136289047Y-109082857D01*
X135717619Y-108749523D02*
X135670000Y-108701904D01*
X135622380Y-108606666D01*
X135622380Y-108368571D01*
X135670000Y-108273333D01*
X135717619Y-108225714D01*
X135812857Y-108178095D01*
X135908095Y-108178095D01*
X136050952Y-108225714D01*
X136622380Y-108797142D01*
X136622380Y-108178095D01*
X136501142Y-114815857D02*
X136548761Y-114863476D01*
X136596380Y-115006333D01*
X136596380Y-115101571D01*
X136548761Y-115244428D01*
X136453523Y-115339666D01*
X136358285Y-115387285D01*
X136167809Y-115434904D01*
X136024952Y-115434904D01*
X135834476Y-115387285D01*
X135739238Y-115339666D01*
X135644000Y-115244428D01*
X135596380Y-115101571D01*
X135596380Y-115006333D01*
X135644000Y-114863476D01*
X135691619Y-114815857D01*
X135929714Y-113958714D02*
X136596380Y-113958714D01*
X135548761Y-114196809D02*
X136263047Y-114434904D01*
X136263047Y-113815857D01*
X135596380Y-113530142D02*
X135596380Y-112911095D01*
X135977333Y-113244428D01*
X135977333Y-113101571D01*
X136024952Y-113006333D01*
X136072571Y-112958714D01*
X136167809Y-112911095D01*
X136405904Y-112911095D01*
X136501142Y-112958714D01*
X136548761Y-113006333D01*
X136596380Y-113101571D01*
X136596380Y-113387285D01*
X136548761Y-113482523D01*
X136501142Y-113530142D01*
X117746542Y-55659280D02*
X117413209Y-55183090D01*
X117175114Y-55659280D02*
X117175114Y-54659280D01*
X117556066Y-54659280D01*
X117651304Y-54706900D01*
X117698923Y-54754519D01*
X117746542Y-54849757D01*
X117746542Y-54992614D01*
X117698923Y-55087852D01*
X117651304Y-55135471D01*
X117556066Y-55183090D01*
X117175114Y-55183090D01*
X118127495Y-54754519D02*
X118175114Y-54706900D01*
X118270352Y-54659280D01*
X118508447Y-54659280D01*
X118603685Y-54706900D01*
X118651304Y-54754519D01*
X118698923Y-54849757D01*
X118698923Y-54944995D01*
X118651304Y-55087852D01*
X118079876Y-55659280D01*
X118698923Y-55659280D01*
X119651304Y-55659280D02*
X119079876Y-55659280D01*
X119365590Y-55659280D02*
X119365590Y-54659280D01*
X119270352Y-54802138D01*
X119175114Y-54897376D01*
X119079876Y-54944995D01*
X117746542Y-57221380D02*
X117413209Y-56745190D01*
X117175114Y-57221380D02*
X117175114Y-56221380D01*
X117556066Y-56221380D01*
X117651304Y-56269000D01*
X117698923Y-56316619D01*
X117746542Y-56411857D01*
X117746542Y-56554714D01*
X117698923Y-56649952D01*
X117651304Y-56697571D01*
X117556066Y-56745190D01*
X117175114Y-56745190D01*
X118127495Y-56316619D02*
X118175114Y-56269000D01*
X118270352Y-56221380D01*
X118508447Y-56221380D01*
X118603685Y-56269000D01*
X118651304Y-56316619D01*
X118698923Y-56411857D01*
X118698923Y-56507095D01*
X118651304Y-56649952D01*
X118079876Y-57221380D01*
X118698923Y-57221380D01*
X119079876Y-56316619D02*
X119127495Y-56269000D01*
X119222733Y-56221380D01*
X119460828Y-56221380D01*
X119556066Y-56269000D01*
X119603685Y-56316619D01*
X119651304Y-56411857D01*
X119651304Y-56507095D01*
X119603685Y-56649952D01*
X119032257Y-57221380D01*
X119651304Y-57221380D01*
X116477833Y-51756180D02*
X116144500Y-51279990D01*
X115906404Y-51756180D02*
X115906404Y-50756180D01*
X116287357Y-50756180D01*
X116382595Y-50803800D01*
X116430214Y-50851419D01*
X116477833Y-50946657D01*
X116477833Y-51089514D01*
X116430214Y-51184752D01*
X116382595Y-51232371D01*
X116287357Y-51279990D01*
X115906404Y-51279990D01*
X117334976Y-51089514D02*
X117334976Y-51756180D01*
X117096880Y-50708561D02*
X116858785Y-51422847D01*
X117477833Y-51422847D01*
X116477833Y-50105180D02*
X116144500Y-49628990D01*
X115906404Y-50105180D02*
X115906404Y-49105180D01*
X116287357Y-49105180D01*
X116382595Y-49152800D01*
X116430214Y-49200419D01*
X116477833Y-49295657D01*
X116477833Y-49438514D01*
X116430214Y-49533752D01*
X116382595Y-49581371D01*
X116287357Y-49628990D01*
X115906404Y-49628990D01*
X117382595Y-49105180D02*
X116906404Y-49105180D01*
X116858785Y-49581371D01*
X116906404Y-49533752D01*
X117001642Y-49486133D01*
X117239738Y-49486133D01*
X117334976Y-49533752D01*
X117382595Y-49581371D01*
X117430214Y-49676609D01*
X117430214Y-49914704D01*
X117382595Y-50009942D01*
X117334976Y-50057561D01*
X117239738Y-50105180D01*
X117001642Y-50105180D01*
X116906404Y-50057561D01*
X116858785Y-50009942D01*
X116477833Y-48454180D02*
X116144500Y-47977990D01*
X115906404Y-48454180D02*
X115906404Y-47454180D01*
X116287357Y-47454180D01*
X116382595Y-47501800D01*
X116430214Y-47549419D01*
X116477833Y-47644657D01*
X116477833Y-47787514D01*
X116430214Y-47882752D01*
X116382595Y-47930371D01*
X116287357Y-47977990D01*
X115906404Y-47977990D01*
X117334976Y-47454180D02*
X117144500Y-47454180D01*
X117049261Y-47501800D01*
X117001642Y-47549419D01*
X116906404Y-47692276D01*
X116858785Y-47882752D01*
X116858785Y-48263704D01*
X116906404Y-48358942D01*
X116954023Y-48406561D01*
X117049261Y-48454180D01*
X117239738Y-48454180D01*
X117334976Y-48406561D01*
X117382595Y-48358942D01*
X117430214Y-48263704D01*
X117430214Y-48025609D01*
X117382595Y-47930371D01*
X117334976Y-47882752D01*
X117239738Y-47835133D01*
X117049261Y-47835133D01*
X116954023Y-47882752D01*
X116906404Y-47930371D01*
X116858785Y-48025609D01*
X116528633Y-46803180D02*
X116195300Y-46326990D01*
X115957204Y-46803180D02*
X115957204Y-45803180D01*
X116338157Y-45803180D01*
X116433395Y-45850800D01*
X116481014Y-45898419D01*
X116528633Y-45993657D01*
X116528633Y-46136514D01*
X116481014Y-46231752D01*
X116433395Y-46279371D01*
X116338157Y-46326990D01*
X115957204Y-46326990D01*
X116861966Y-45803180D02*
X117528633Y-45803180D01*
X117100061Y-46803180D01*
X130771662Y-87432140D02*
X130438329Y-86955950D01*
X130200234Y-87432140D02*
X130200234Y-86432140D01*
X130581186Y-86432140D01*
X130676424Y-86479760D01*
X130724043Y-86527379D01*
X130771662Y-86622617D01*
X130771662Y-86765474D01*
X130724043Y-86860712D01*
X130676424Y-86908331D01*
X130581186Y-86955950D01*
X130200234Y-86955950D01*
X131724043Y-87432140D02*
X131152615Y-87432140D01*
X131438329Y-87432140D02*
X131438329Y-86432140D01*
X131343091Y-86574998D01*
X131247853Y-86670236D01*
X131152615Y-86717855D01*
X132343091Y-86432140D02*
X132438329Y-86432140D01*
X132533567Y-86479760D01*
X132581186Y-86527379D01*
X132628805Y-86622617D01*
X132676424Y-86813093D01*
X132676424Y-87051188D01*
X132628805Y-87241664D01*
X132581186Y-87336902D01*
X132533567Y-87384521D01*
X132438329Y-87432140D01*
X132343091Y-87432140D01*
X132247853Y-87384521D01*
X132200234Y-87336902D01*
X132152615Y-87241664D01*
X132104996Y-87051188D01*
X132104996Y-86813093D01*
X132152615Y-86622617D01*
X132200234Y-86527379D01*
X132247853Y-86479760D01*
X132343091Y-86432140D01*
X160513333Y-81082380D02*
X160180000Y-80606190D01*
X159941904Y-81082380D02*
X159941904Y-80082380D01*
X160322857Y-80082380D01*
X160418095Y-80130000D01*
X160465714Y-80177619D01*
X160513333Y-80272857D01*
X160513333Y-80415714D01*
X160465714Y-80510952D01*
X160418095Y-80558571D01*
X160322857Y-80606190D01*
X159941904Y-80606190D01*
X161465714Y-81082380D02*
X160894285Y-81082380D01*
X161180000Y-81082380D02*
X161180000Y-80082380D01*
X161084761Y-80225238D01*
X160989523Y-80320476D01*
X160894285Y-80368095D01*
X123768733Y-81478780D02*
X123435400Y-81002590D01*
X123197304Y-81478780D02*
X123197304Y-80478780D01*
X123578257Y-80478780D01*
X123673495Y-80526400D01*
X123721114Y-80574019D01*
X123768733Y-80669257D01*
X123768733Y-80812114D01*
X123721114Y-80907352D01*
X123673495Y-80954971D01*
X123578257Y-81002590D01*
X123197304Y-81002590D01*
X124149685Y-80574019D02*
X124197304Y-80526400D01*
X124292542Y-80478780D01*
X124530638Y-80478780D01*
X124625876Y-80526400D01*
X124673495Y-80574019D01*
X124721114Y-80669257D01*
X124721114Y-80764495D01*
X124673495Y-80907352D01*
X124102066Y-81478780D01*
X124721114Y-81478780D01*
X159313975Y-50605440D02*
X159313975Y-51414964D01*
X159361594Y-51510202D01*
X159409213Y-51557821D01*
X159504451Y-51605440D01*
X159694927Y-51605440D01*
X159790165Y-51557821D01*
X159837784Y-51510202D01*
X159885403Y-51414964D01*
X159885403Y-50605440D01*
X160313975Y-50700679D02*
X160361594Y-50653060D01*
X160456832Y-50605440D01*
X160694927Y-50605440D01*
X160790165Y-50653060D01*
X160837784Y-50700679D01*
X160885403Y-50795917D01*
X160885403Y-50891155D01*
X160837784Y-51034012D01*
X160266356Y-51605440D01*
X160885403Y-51605440D01*
X120818095Y-106152380D02*
X120818095Y-106961904D01*
X120865714Y-107057142D01*
X120913333Y-107104761D01*
X121008571Y-107152380D01*
X121199047Y-107152380D01*
X121294285Y-107104761D01*
X121341904Y-107057142D01*
X121389523Y-106961904D01*
X121389523Y-106152380D01*
X122341904Y-106152380D02*
X121865714Y-106152380D01*
X121818095Y-106628571D01*
X121865714Y-106580952D01*
X121960952Y-106533333D01*
X122199047Y-106533333D01*
X122294285Y-106580952D01*
X122341904Y-106628571D01*
X122389523Y-106723809D01*
X122389523Y-106961904D01*
X122341904Y-107057142D01*
X122294285Y-107104761D01*
X122199047Y-107152380D01*
X121960952Y-107152380D01*
X121865714Y-107104761D01*
X121818095Y-107057142D01*
X166664735Y-50661320D02*
X166664735Y-51470844D01*
X166712354Y-51566082D01*
X166759973Y-51613701D01*
X166855211Y-51661320D01*
X167045687Y-51661320D01*
X167140925Y-51613701D01*
X167188544Y-51566082D01*
X167236163Y-51470844D01*
X167236163Y-50661320D01*
X167617116Y-50661320D02*
X168236163Y-50661320D01*
X167902830Y-51042273D01*
X168045687Y-51042273D01*
X168140925Y-51089892D01*
X168188544Y-51137511D01*
X168236163Y-51232749D01*
X168236163Y-51470844D01*
X168188544Y-51566082D01*
X168140925Y-51613701D01*
X168045687Y-51661320D01*
X167759973Y-51661320D01*
X167664735Y-51613701D01*
X167617116Y-51566082D01*
X123721761Y-50228333D02*
X123769380Y-50085476D01*
X123769380Y-49847380D01*
X123721761Y-49752142D01*
X123674142Y-49704523D01*
X123578904Y-49656904D01*
X123483666Y-49656904D01*
X123388428Y-49704523D01*
X123340809Y-49752142D01*
X123293190Y-49847380D01*
X123245571Y-50037857D01*
X123197952Y-50133095D01*
X123150333Y-50180714D01*
X123055095Y-50228333D01*
X122959857Y-50228333D01*
X122864619Y-50180714D01*
X122817000Y-50133095D01*
X122769380Y-50037857D01*
X122769380Y-49799761D01*
X122817000Y-49656904D01*
X122769380Y-49323571D02*
X123769380Y-49085476D01*
X123055095Y-48895000D01*
X123769380Y-48704523D01*
X122769380Y-48466428D01*
X123769380Y-47561666D02*
X123769380Y-48133095D01*
X123769380Y-47847380D02*
X122769380Y-47847380D01*
X122912238Y-47942619D01*
X123007476Y-48037857D01*
X123055095Y-48133095D01*
X129309761Y-50261333D02*
X129357380Y-50118476D01*
X129357380Y-49880380D01*
X129309761Y-49785142D01*
X129262142Y-49737523D01*
X129166904Y-49689904D01*
X129071666Y-49689904D01*
X128976428Y-49737523D01*
X128928809Y-49785142D01*
X128881190Y-49880380D01*
X128833571Y-50070857D01*
X128785952Y-50166095D01*
X128738333Y-50213714D01*
X128643095Y-50261333D01*
X128547857Y-50261333D01*
X128452619Y-50213714D01*
X128405000Y-50166095D01*
X128357380Y-50070857D01*
X128357380Y-49832761D01*
X128405000Y-49689904D01*
X128357380Y-49356571D02*
X129357380Y-49118476D01*
X128643095Y-48928000D01*
X129357380Y-48737523D01*
X128357380Y-48499428D01*
X128452619Y-48166095D02*
X128405000Y-48118476D01*
X128357380Y-48023238D01*
X128357380Y-47785142D01*
X128405000Y-47689904D01*
X128452619Y-47642285D01*
X128547857Y-47594666D01*
X128643095Y-47594666D01*
X128785952Y-47642285D01*
X129357380Y-48213714D01*
X129357380Y-47594666D01*
X135034601Y-50203333D02*
X135082220Y-50060476D01*
X135082220Y-49822380D01*
X135034601Y-49727142D01*
X134986982Y-49679523D01*
X134891744Y-49631904D01*
X134796506Y-49631904D01*
X134701268Y-49679523D01*
X134653649Y-49727142D01*
X134606030Y-49822380D01*
X134558411Y-50012857D01*
X134510792Y-50108095D01*
X134463173Y-50155714D01*
X134367935Y-50203333D01*
X134272697Y-50203333D01*
X134177459Y-50155714D01*
X134129840Y-50108095D01*
X134082220Y-50012857D01*
X134082220Y-49774761D01*
X134129840Y-49631904D01*
X134082220Y-49298571D02*
X135082220Y-49060476D01*
X134367935Y-48870000D01*
X135082220Y-48679523D01*
X134082220Y-48441428D01*
X134082220Y-48155714D02*
X134082220Y-47536666D01*
X134463173Y-47870000D01*
X134463173Y-47727142D01*
X134510792Y-47631904D01*
X134558411Y-47584285D01*
X134653649Y-47536666D01*
X134891744Y-47536666D01*
X134986982Y-47584285D01*
X135034601Y-47631904D01*
X135082220Y-47727142D01*
X135082220Y-48012857D01*
X135034601Y-48108095D01*
X134986982Y-48155714D01*
X128267095Y-63143380D02*
X128267095Y-63952904D01*
X128314714Y-64048142D01*
X128362333Y-64095761D01*
X128457571Y-64143380D01*
X128648047Y-64143380D01*
X128743285Y-64095761D01*
X128790904Y-64048142D01*
X128838523Y-63952904D01*
X128838523Y-63143380D01*
X129219476Y-63143380D02*
X129886142Y-63143380D01*
X129457571Y-64143380D01*
X122152380Y-102951904D02*
X122961904Y-102951904D01*
X123057142Y-102904285D01*
X123104761Y-102856666D01*
X123152380Y-102761428D01*
X123152380Y-102570952D01*
X123104761Y-102475714D01*
X123057142Y-102428095D01*
X122961904Y-102380476D01*
X122152380Y-102380476D01*
X122485714Y-101475714D02*
X123152380Y-101475714D01*
X122104761Y-101713809D02*
X122819047Y-101951904D01*
X122819047Y-101332857D01*
X125562380Y-103783333D02*
X126276666Y-103783333D01*
X126419523Y-103830952D01*
X126514761Y-103926190D01*
X126562380Y-104069047D01*
X126562380Y-104164285D01*
X126562380Y-103307142D02*
X125562380Y-103307142D01*
X125562380Y-102926190D01*
X125610000Y-102830952D01*
X125657619Y-102783333D01*
X125752857Y-102735714D01*
X125895714Y-102735714D01*
X125990952Y-102783333D01*
X126038571Y-102830952D01*
X126086190Y-102926190D01*
X126086190Y-103307142D01*
X126562380Y-101783333D02*
X126562380Y-102354761D01*
X126562380Y-102069047D02*
X125562380Y-102069047D01*
X125705238Y-102164285D01*
X125800476Y-102259523D01*
X125848095Y-102354761D01*
X134132380Y-103973333D02*
X134846666Y-103973333D01*
X134989523Y-104020952D01*
X135084761Y-104116190D01*
X135132380Y-104259047D01*
X135132380Y-104354285D01*
X135132380Y-103497142D02*
X134132380Y-103497142D01*
X134132380Y-103116190D01*
X134180000Y-103020952D01*
X134227619Y-102973333D01*
X134322857Y-102925714D01*
X134465714Y-102925714D01*
X134560952Y-102973333D01*
X134608571Y-103020952D01*
X134656190Y-103116190D01*
X134656190Y-103497142D01*
X134227619Y-102544761D02*
X134180000Y-102497142D01*
X134132380Y-102401904D01*
X134132380Y-102163809D01*
X134180000Y-102068571D01*
X134227619Y-102020952D01*
X134322857Y-101973333D01*
X134418095Y-101973333D01*
X134560952Y-102020952D01*
X135132380Y-102592380D01*
X135132380Y-101973333D01*
X112218700Y-75530935D02*
X111218700Y-75530935D01*
X111218700Y-75149982D01*
X111266320Y-75054744D01*
X111313939Y-75007125D01*
X111409177Y-74959506D01*
X111552034Y-74959506D01*
X111647272Y-75007125D01*
X111694891Y-75054744D01*
X111742510Y-75149982D01*
X111742510Y-75530935D01*
X112218700Y-74007125D02*
X112218700Y-74578554D01*
X112218700Y-74292840D02*
X111218700Y-74292840D01*
X111361558Y-74388078D01*
X111456796Y-74483316D01*
X111504415Y-74578554D01*
X112218700Y-98187735D02*
X111218700Y-98187735D01*
X111218700Y-97806782D01*
X111266320Y-97711544D01*
X111313939Y-97663925D01*
X111409177Y-97616306D01*
X111552034Y-97616306D01*
X111647272Y-97663925D01*
X111694891Y-97711544D01*
X111742510Y-97806782D01*
X111742510Y-98187735D01*
X111313939Y-97235354D02*
X111266320Y-97187735D01*
X111218700Y-97092497D01*
X111218700Y-96854401D01*
X111266320Y-96759163D01*
X111313939Y-96711544D01*
X111409177Y-96663925D01*
X111504415Y-96663925D01*
X111647272Y-96711544D01*
X112218700Y-97282973D01*
X112218700Y-96663925D01*
X108451504Y-51756180D02*
X108451504Y-50756180D01*
X108689600Y-50756180D01*
X108832457Y-50803800D01*
X108927695Y-50899038D01*
X108975314Y-50994276D01*
X109022933Y-51184752D01*
X109022933Y-51327609D01*
X108975314Y-51518085D01*
X108927695Y-51613323D01*
X108832457Y-51708561D01*
X108689600Y-51756180D01*
X108451504Y-51756180D01*
X109880076Y-51089514D02*
X109880076Y-51756180D01*
X109641980Y-50708561D02*
X109403885Y-51422847D01*
X110022933Y-51422847D01*
X108451504Y-50105180D02*
X108451504Y-49105180D01*
X108689600Y-49105180D01*
X108832457Y-49152800D01*
X108927695Y-49248038D01*
X108975314Y-49343276D01*
X109022933Y-49533752D01*
X109022933Y-49676609D01*
X108975314Y-49867085D01*
X108927695Y-49962323D01*
X108832457Y-50057561D01*
X108689600Y-50105180D01*
X108451504Y-50105180D01*
X109356266Y-49105180D02*
X109975314Y-49105180D01*
X109641980Y-49486133D01*
X109784838Y-49486133D01*
X109880076Y-49533752D01*
X109927695Y-49581371D01*
X109975314Y-49676609D01*
X109975314Y-49914704D01*
X109927695Y-50009942D01*
X109880076Y-50057561D01*
X109784838Y-50105180D01*
X109499123Y-50105180D01*
X109403885Y-50057561D01*
X109356266Y-50009942D01*
X108451504Y-48454180D02*
X108451504Y-47454180D01*
X108689600Y-47454180D01*
X108832457Y-47501800D01*
X108927695Y-47597038D01*
X108975314Y-47692276D01*
X109022933Y-47882752D01*
X109022933Y-48025609D01*
X108975314Y-48216085D01*
X108927695Y-48311323D01*
X108832457Y-48406561D01*
X108689600Y-48454180D01*
X108451504Y-48454180D01*
X109403885Y-47549419D02*
X109451504Y-47501800D01*
X109546742Y-47454180D01*
X109784838Y-47454180D01*
X109880076Y-47501800D01*
X109927695Y-47549419D01*
X109975314Y-47644657D01*
X109975314Y-47739895D01*
X109927695Y-47882752D01*
X109356266Y-48454180D01*
X109975314Y-48454180D01*
X108451504Y-46803180D02*
X108451504Y-45803180D01*
X108689600Y-45803180D01*
X108832457Y-45850800D01*
X108927695Y-45946038D01*
X108975314Y-46041276D01*
X109022933Y-46231752D01*
X109022933Y-46374609D01*
X108975314Y-46565085D01*
X108927695Y-46660323D01*
X108832457Y-46755561D01*
X108689600Y-46803180D01*
X108451504Y-46803180D01*
X109975314Y-46803180D02*
X109403885Y-46803180D01*
X109689600Y-46803180D02*
X109689600Y-45803180D01*
X109594361Y-45946038D01*
X109499123Y-46041276D01*
X109403885Y-46088895D01*
X122667142Y-89967142D02*
X122619523Y-90014761D01*
X122476666Y-90062380D01*
X122381428Y-90062380D01*
X122238571Y-90014761D01*
X122143333Y-89919523D01*
X122095714Y-89824285D01*
X122048095Y-89633809D01*
X122048095Y-89490952D01*
X122095714Y-89300476D01*
X122143333Y-89205238D01*
X122238571Y-89110000D01*
X122381428Y-89062380D01*
X122476666Y-89062380D01*
X122619523Y-89110000D01*
X122667142Y-89157619D01*
X123048095Y-89157619D02*
X123095714Y-89110000D01*
X123190952Y-89062380D01*
X123429047Y-89062380D01*
X123524285Y-89110000D01*
X123571904Y-89157619D01*
X123619523Y-89252857D01*
X123619523Y-89348095D01*
X123571904Y-89490952D01*
X123000476Y-90062380D01*
X123619523Y-90062380D01*
X124095714Y-90062380D02*
X124286190Y-90062380D01*
X124381428Y-90014761D01*
X124429047Y-89967142D01*
X124524285Y-89824285D01*
X124571904Y-89633809D01*
X124571904Y-89252857D01*
X124524285Y-89157619D01*
X124476666Y-89110000D01*
X124381428Y-89062380D01*
X124190952Y-89062380D01*
X124095714Y-89110000D01*
X124048095Y-89157619D01*
X124000476Y-89252857D01*
X124000476Y-89490952D01*
X124048095Y-89586190D01*
X124095714Y-89633809D01*
X124190952Y-89681428D01*
X124381428Y-89681428D01*
X124476666Y-89633809D01*
X124524285Y-89586190D01*
X124571904Y-89490952D01*
X131957142Y-63351142D02*
X131909523Y-63398761D01*
X131766666Y-63446380D01*
X131671428Y-63446380D01*
X131528571Y-63398761D01*
X131433333Y-63303523D01*
X131385714Y-63208285D01*
X131338095Y-63017809D01*
X131338095Y-62874952D01*
X131385714Y-62684476D01*
X131433333Y-62589238D01*
X131528571Y-62494000D01*
X131671428Y-62446380D01*
X131766666Y-62446380D01*
X131909523Y-62494000D01*
X131957142Y-62541619D01*
X132814285Y-62779714D02*
X132814285Y-63446380D01*
X132576190Y-62398761D02*
X132338095Y-63113047D01*
X132957142Y-63113047D01*
X133766666Y-62446380D02*
X133576190Y-62446380D01*
X133480952Y-62494000D01*
X133433333Y-62541619D01*
X133338095Y-62684476D01*
X133290476Y-62874952D01*
X133290476Y-63255904D01*
X133338095Y-63351142D01*
X133385714Y-63398761D01*
X133480952Y-63446380D01*
X133671428Y-63446380D01*
X133766666Y-63398761D01*
X133814285Y-63351142D01*
X133861904Y-63255904D01*
X133861904Y-63017809D01*
X133814285Y-62922571D01*
X133766666Y-62874952D01*
X133671428Y-62827333D01*
X133480952Y-62827333D01*
X133385714Y-62874952D01*
X133338095Y-62922571D01*
X133290476Y-63017809D01*
X133007142Y-110132380D02*
X132673809Y-109656190D01*
X132435714Y-110132380D02*
X132435714Y-109132380D01*
X132816666Y-109132380D01*
X132911904Y-109180000D01*
X132959523Y-109227619D01*
X133007142Y-109322857D01*
X133007142Y-109465714D01*
X132959523Y-109560952D01*
X132911904Y-109608571D01*
X132816666Y-109656190D01*
X132435714Y-109656190D01*
X133959523Y-110132380D02*
X133388095Y-110132380D01*
X133673809Y-110132380D02*
X133673809Y-109132380D01*
X133578571Y-109275238D01*
X133483333Y-109370476D01*
X133388095Y-109418095D01*
X134911904Y-110132380D02*
X134340476Y-110132380D01*
X134626190Y-110132380D02*
X134626190Y-109132380D01*
X134530952Y-109275238D01*
X134435714Y-109370476D01*
X134340476Y-109418095D01*
X124482380Y-117432857D02*
X124006190Y-117766190D01*
X124482380Y-118004285D02*
X123482380Y-118004285D01*
X123482380Y-117623333D01*
X123530000Y-117528095D01*
X123577619Y-117480476D01*
X123672857Y-117432857D01*
X123815714Y-117432857D01*
X123910952Y-117480476D01*
X123958571Y-117528095D01*
X124006190Y-117623333D01*
X124006190Y-118004285D01*
X124482380Y-116480476D02*
X124482380Y-117051904D01*
X124482380Y-116766190D02*
X123482380Y-116766190D01*
X123625238Y-116861428D01*
X123720476Y-116956666D01*
X123768095Y-117051904D01*
X123577619Y-116099523D02*
X123530000Y-116051904D01*
X123482380Y-115956666D01*
X123482380Y-115718571D01*
X123530000Y-115623333D01*
X123577619Y-115575714D01*
X123672857Y-115528095D01*
X123768095Y-115528095D01*
X123910952Y-115575714D01*
X124482380Y-116147142D01*
X124482380Y-115528095D01*
X125906380Y-117464857D02*
X125430190Y-117798190D01*
X125906380Y-118036285D02*
X124906380Y-118036285D01*
X124906380Y-117655333D01*
X124954000Y-117560095D01*
X125001619Y-117512476D01*
X125096857Y-117464857D01*
X125239714Y-117464857D01*
X125334952Y-117512476D01*
X125382571Y-117560095D01*
X125430190Y-117655333D01*
X125430190Y-118036285D01*
X125906380Y-116512476D02*
X125906380Y-117083904D01*
X125906380Y-116798190D02*
X124906380Y-116798190D01*
X125049238Y-116893428D01*
X125144476Y-116988666D01*
X125192095Y-117083904D01*
X124906380Y-116179142D02*
X124906380Y-115560095D01*
X125287333Y-115893428D01*
X125287333Y-115750571D01*
X125334952Y-115655333D01*
X125382571Y-115607714D01*
X125477809Y-115560095D01*
X125715904Y-115560095D01*
X125811142Y-115607714D01*
X125858761Y-115655333D01*
X125906380Y-115750571D01*
X125906380Y-116036285D01*
X125858761Y-116131523D01*
X125811142Y-116179142D01*
X133007142Y-111632380D02*
X132673809Y-111156190D01*
X132435714Y-111632380D02*
X132435714Y-110632380D01*
X132816666Y-110632380D01*
X132911904Y-110680000D01*
X132959523Y-110727619D01*
X133007142Y-110822857D01*
X133007142Y-110965714D01*
X132959523Y-111060952D01*
X132911904Y-111108571D01*
X132816666Y-111156190D01*
X132435714Y-111156190D01*
X133959523Y-111632380D02*
X133388095Y-111632380D01*
X133673809Y-111632380D02*
X133673809Y-110632380D01*
X133578571Y-110775238D01*
X133483333Y-110870476D01*
X133388095Y-110918095D01*
X134816666Y-110965714D02*
X134816666Y-111632380D01*
X134578571Y-110584761D02*
X134340476Y-111299047D01*
X134959523Y-111299047D01*
X128744742Y-94660980D02*
X128411409Y-94184790D01*
X128173314Y-94660980D02*
X128173314Y-93660980D01*
X128554266Y-93660980D01*
X128649504Y-93708600D01*
X128697123Y-93756219D01*
X128744742Y-93851457D01*
X128744742Y-93994314D01*
X128697123Y-94089552D01*
X128649504Y-94137171D01*
X128554266Y-94184790D01*
X128173314Y-94184790D01*
X129697123Y-94660980D02*
X129125695Y-94660980D01*
X129411409Y-94660980D02*
X129411409Y-93660980D01*
X129316171Y-93803838D01*
X129220933Y-93899076D01*
X129125695Y-93946695D01*
X130601885Y-93660980D02*
X130125695Y-93660980D01*
X130078076Y-94137171D01*
X130125695Y-94089552D01*
X130220933Y-94041933D01*
X130459028Y-94041933D01*
X130554266Y-94089552D01*
X130601885Y-94137171D01*
X130649504Y-94232409D01*
X130649504Y-94470504D01*
X130601885Y-94565742D01*
X130554266Y-94613361D01*
X130459028Y-94660980D01*
X130220933Y-94660980D01*
X130125695Y-94613361D01*
X130078076Y-94565742D01*
X128719342Y-96159580D02*
X128386009Y-95683390D01*
X128147914Y-96159580D02*
X128147914Y-95159580D01*
X128528866Y-95159580D01*
X128624104Y-95207200D01*
X128671723Y-95254819D01*
X128719342Y-95350057D01*
X128719342Y-95492914D01*
X128671723Y-95588152D01*
X128624104Y-95635771D01*
X128528866Y-95683390D01*
X128147914Y-95683390D01*
X129671723Y-96159580D02*
X129100295Y-96159580D01*
X129386009Y-96159580D02*
X129386009Y-95159580D01*
X129290771Y-95302438D01*
X129195533Y-95397676D01*
X129100295Y-95445295D01*
X130528866Y-95159580D02*
X130338390Y-95159580D01*
X130243152Y-95207200D01*
X130195533Y-95254819D01*
X130100295Y-95397676D01*
X130052676Y-95588152D01*
X130052676Y-95969104D01*
X130100295Y-96064342D01*
X130147914Y-96111961D01*
X130243152Y-96159580D01*
X130433628Y-96159580D01*
X130528866Y-96111961D01*
X130576485Y-96064342D01*
X130624104Y-95969104D01*
X130624104Y-95731009D01*
X130576485Y-95635771D01*
X130528866Y-95588152D01*
X130433628Y-95540533D01*
X130243152Y-95540533D01*
X130147914Y-95588152D01*
X130100295Y-95635771D01*
X130052676Y-95731009D01*
X124648142Y-54903380D02*
X124314809Y-54427190D01*
X124076714Y-54903380D02*
X124076714Y-53903380D01*
X124457666Y-53903380D01*
X124552904Y-53951000D01*
X124600523Y-53998619D01*
X124648142Y-54093857D01*
X124648142Y-54236714D01*
X124600523Y-54331952D01*
X124552904Y-54379571D01*
X124457666Y-54427190D01*
X124076714Y-54427190D01*
X125600523Y-54903380D02*
X125029095Y-54903380D01*
X125314809Y-54903380D02*
X125314809Y-53903380D01*
X125219571Y-54046238D01*
X125124333Y-54141476D01*
X125029095Y-54189095D01*
X125933857Y-53903380D02*
X126600523Y-53903380D01*
X126171952Y-54903380D01*
X130607142Y-54952380D02*
X130273809Y-54476190D01*
X130035714Y-54952380D02*
X130035714Y-53952380D01*
X130416666Y-53952380D01*
X130511904Y-54000000D01*
X130559523Y-54047619D01*
X130607142Y-54142857D01*
X130607142Y-54285714D01*
X130559523Y-54380952D01*
X130511904Y-54428571D01*
X130416666Y-54476190D01*
X130035714Y-54476190D01*
X131559523Y-54952380D02*
X130988095Y-54952380D01*
X131273809Y-54952380D02*
X131273809Y-53952380D01*
X131178571Y-54095238D01*
X131083333Y-54190476D01*
X130988095Y-54238095D01*
X132130952Y-54380952D02*
X132035714Y-54333333D01*
X131988095Y-54285714D01*
X131940476Y-54190476D01*
X131940476Y-54142857D01*
X131988095Y-54047619D01*
X132035714Y-54000000D01*
X132130952Y-53952380D01*
X132321428Y-53952380D01*
X132416666Y-54000000D01*
X132464285Y-54047619D01*
X132511904Y-54142857D01*
X132511904Y-54190476D01*
X132464285Y-54285714D01*
X132416666Y-54333333D01*
X132321428Y-54380952D01*
X132130952Y-54380952D01*
X132035714Y-54428571D01*
X131988095Y-54476190D01*
X131940476Y-54571428D01*
X131940476Y-54761904D01*
X131988095Y-54857142D01*
X132035714Y-54904761D01*
X132130952Y-54952380D01*
X132321428Y-54952380D01*
X132416666Y-54904761D01*
X132464285Y-54857142D01*
X132511904Y-54761904D01*
X132511904Y-54571428D01*
X132464285Y-54476190D01*
X132416666Y-54428571D01*
X132321428Y-54380952D01*
X124648142Y-56300380D02*
X124314809Y-55824190D01*
X124076714Y-56300380D02*
X124076714Y-55300380D01*
X124457666Y-55300380D01*
X124552904Y-55348000D01*
X124600523Y-55395619D01*
X124648142Y-55490857D01*
X124648142Y-55633714D01*
X124600523Y-55728952D01*
X124552904Y-55776571D01*
X124457666Y-55824190D01*
X124076714Y-55824190D01*
X125600523Y-56300380D02*
X125029095Y-56300380D01*
X125314809Y-56300380D02*
X125314809Y-55300380D01*
X125219571Y-55443238D01*
X125124333Y-55538476D01*
X125029095Y-55586095D01*
X126076714Y-56300380D02*
X126267190Y-56300380D01*
X126362428Y-56252761D01*
X126410047Y-56205142D01*
X126505285Y-56062285D01*
X126552904Y-55871809D01*
X126552904Y-55490857D01*
X126505285Y-55395619D01*
X126457666Y-55348000D01*
X126362428Y-55300380D01*
X126171952Y-55300380D01*
X126076714Y-55348000D01*
X126029095Y-55395619D01*
X125981476Y-55490857D01*
X125981476Y-55728952D01*
X126029095Y-55824190D01*
X126076714Y-55871809D01*
X126171952Y-55919428D01*
X126362428Y-55919428D01*
X126457666Y-55871809D01*
X126505285Y-55824190D01*
X126552904Y-55728952D01*
X130557142Y-56322380D02*
X130223809Y-55846190D01*
X129985714Y-56322380D02*
X129985714Y-55322380D01*
X130366666Y-55322380D01*
X130461904Y-55370000D01*
X130509523Y-55417619D01*
X130557142Y-55512857D01*
X130557142Y-55655714D01*
X130509523Y-55750952D01*
X130461904Y-55798571D01*
X130366666Y-55846190D01*
X129985714Y-55846190D01*
X130938095Y-55417619D02*
X130985714Y-55370000D01*
X131080952Y-55322380D01*
X131319047Y-55322380D01*
X131414285Y-55370000D01*
X131461904Y-55417619D01*
X131509523Y-55512857D01*
X131509523Y-55608095D01*
X131461904Y-55750952D01*
X130890476Y-56322380D01*
X131509523Y-56322380D01*
X132128571Y-55322380D02*
X132223809Y-55322380D01*
X132319047Y-55370000D01*
X132366666Y-55417619D01*
X132414285Y-55512857D01*
X132461904Y-55703333D01*
X132461904Y-55941428D01*
X132414285Y-56131904D01*
X132366666Y-56227142D01*
X132319047Y-56274761D01*
X132223809Y-56322380D01*
X132128571Y-56322380D01*
X132033333Y-56274761D01*
X131985714Y-56227142D01*
X131938095Y-56131904D01*
X131890476Y-55941428D01*
X131890476Y-55703333D01*
X131938095Y-55512857D01*
X131985714Y-55417619D01*
X132033333Y-55370000D01*
X132128571Y-55322380D01*
X132837180Y-98972666D02*
X132360990Y-99306000D01*
X132837180Y-99544095D02*
X131837180Y-99544095D01*
X131837180Y-99163142D01*
X131884800Y-99067904D01*
X131932419Y-99020285D01*
X132027657Y-98972666D01*
X132170514Y-98972666D01*
X132265752Y-99020285D01*
X132313371Y-99067904D01*
X132360990Y-99163142D01*
X132360990Y-99544095D01*
X132265752Y-98401238D02*
X132218133Y-98496476D01*
X132170514Y-98544095D01*
X132075276Y-98591714D01*
X132027657Y-98591714D01*
X131932419Y-98544095D01*
X131884800Y-98496476D01*
X131837180Y-98401238D01*
X131837180Y-98210761D01*
X131884800Y-98115523D01*
X131932419Y-98067904D01*
X132027657Y-98020285D01*
X132075276Y-98020285D01*
X132170514Y-98067904D01*
X132218133Y-98115523D01*
X132265752Y-98210761D01*
X132265752Y-98401238D01*
X132313371Y-98496476D01*
X132360990Y-98544095D01*
X132456228Y-98591714D01*
X132646704Y-98591714D01*
X132741942Y-98544095D01*
X132789561Y-98496476D01*
X132837180Y-98401238D01*
X132837180Y-98210761D01*
X132789561Y-98115523D01*
X132741942Y-98067904D01*
X132646704Y-98020285D01*
X132456228Y-98020285D01*
X132360990Y-98067904D01*
X132313371Y-98115523D01*
X132265752Y-98210761D01*
X129281180Y-98998066D02*
X128804990Y-99331400D01*
X129281180Y-99569495D02*
X128281180Y-99569495D01*
X128281180Y-99188542D01*
X128328800Y-99093304D01*
X128376419Y-99045685D01*
X128471657Y-98998066D01*
X128614514Y-98998066D01*
X128709752Y-99045685D01*
X128757371Y-99093304D01*
X128804990Y-99188542D01*
X128804990Y-99569495D01*
X129281180Y-98521876D02*
X129281180Y-98331400D01*
X129233561Y-98236161D01*
X129185942Y-98188542D01*
X129043085Y-98093304D01*
X128852609Y-98045685D01*
X128471657Y-98045685D01*
X128376419Y-98093304D01*
X128328800Y-98140923D01*
X128281180Y-98236161D01*
X128281180Y-98426638D01*
X128328800Y-98521876D01*
X128376419Y-98569495D01*
X128471657Y-98617114D01*
X128709752Y-98617114D01*
X128804990Y-98569495D01*
X128852609Y-98521876D01*
X128900228Y-98426638D01*
X128900228Y-98236161D01*
X128852609Y-98140923D01*
X128804990Y-98093304D01*
X128709752Y-98045685D01*
X131948980Y-116657657D02*
X131472790Y-116990990D01*
X131948980Y-117229085D02*
X130948980Y-117229085D01*
X130948980Y-116848133D01*
X130996600Y-116752895D01*
X131044219Y-116705276D01*
X131139457Y-116657657D01*
X131282314Y-116657657D01*
X131377552Y-116705276D01*
X131425171Y-116752895D01*
X131472790Y-116848133D01*
X131472790Y-117229085D01*
X131044219Y-116276704D02*
X130996600Y-116229085D01*
X130948980Y-116133847D01*
X130948980Y-115895752D01*
X130996600Y-115800514D01*
X131044219Y-115752895D01*
X131139457Y-115705276D01*
X131234695Y-115705276D01*
X131377552Y-115752895D01*
X131948980Y-116324323D01*
X131948980Y-115705276D01*
X130948980Y-115371942D02*
X130948980Y-114752895D01*
X131329933Y-115086228D01*
X131329933Y-114943371D01*
X131377552Y-114848133D01*
X131425171Y-114800514D01*
X131520409Y-114752895D01*
X131758504Y-114752895D01*
X131853742Y-114800514D01*
X131901361Y-114848133D01*
X131948980Y-114943371D01*
X131948980Y-115229085D01*
X131901361Y-115324323D01*
X131853742Y-115371942D01*
X135519420Y-116680217D02*
X135043230Y-117013550D01*
X135519420Y-117251645D02*
X134519420Y-117251645D01*
X134519420Y-116870693D01*
X134567040Y-116775455D01*
X134614659Y-116727836D01*
X134709897Y-116680217D01*
X134852754Y-116680217D01*
X134947992Y-116727836D01*
X134995611Y-116775455D01*
X135043230Y-116870693D01*
X135043230Y-117251645D01*
X134614659Y-116299264D02*
X134567040Y-116251645D01*
X134519420Y-116156407D01*
X134519420Y-115918312D01*
X134567040Y-115823074D01*
X134614659Y-115775455D01*
X134709897Y-115727836D01*
X134805135Y-115727836D01*
X134947992Y-115775455D01*
X135519420Y-116346883D01*
X135519420Y-115727836D01*
X134852754Y-114870693D02*
X135519420Y-114870693D01*
X134471801Y-115108788D02*
X135186087Y-115346883D01*
X135186087Y-114727836D01*
X130101600Y-116670057D02*
X129625410Y-117003390D01*
X130101600Y-117241485D02*
X129101600Y-117241485D01*
X129101600Y-116860533D01*
X129149220Y-116765295D01*
X129196839Y-116717676D01*
X129292077Y-116670057D01*
X129434934Y-116670057D01*
X129530172Y-116717676D01*
X129577791Y-116765295D01*
X129625410Y-116860533D01*
X129625410Y-117241485D01*
X129196839Y-116289104D02*
X129149220Y-116241485D01*
X129101600Y-116146247D01*
X129101600Y-115908152D01*
X129149220Y-115812914D01*
X129196839Y-115765295D01*
X129292077Y-115717676D01*
X129387315Y-115717676D01*
X129530172Y-115765295D01*
X130101600Y-116336723D01*
X130101600Y-115717676D01*
X129101600Y-114812914D02*
X129101600Y-115289104D01*
X129577791Y-115336723D01*
X129530172Y-115289104D01*
X129482553Y-115193866D01*
X129482553Y-114955771D01*
X129530172Y-114860533D01*
X129577791Y-114812914D01*
X129673029Y-114765295D01*
X129911124Y-114765295D01*
X130006362Y-114812914D01*
X130053981Y-114860533D01*
X130101600Y-114955771D01*
X130101600Y-115193866D01*
X130053981Y-115289104D01*
X130006362Y-115336723D01*
X133705860Y-116614177D02*
X133229670Y-116947510D01*
X133705860Y-117185605D02*
X132705860Y-117185605D01*
X132705860Y-116804653D01*
X132753480Y-116709415D01*
X132801099Y-116661796D01*
X132896337Y-116614177D01*
X133039194Y-116614177D01*
X133134432Y-116661796D01*
X133182051Y-116709415D01*
X133229670Y-116804653D01*
X133229670Y-117185605D01*
X132801099Y-116233224D02*
X132753480Y-116185605D01*
X132705860Y-116090367D01*
X132705860Y-115852272D01*
X132753480Y-115757034D01*
X132801099Y-115709415D01*
X132896337Y-115661796D01*
X132991575Y-115661796D01*
X133134432Y-115709415D01*
X133705860Y-116280843D01*
X133705860Y-115661796D01*
X132705860Y-114804653D02*
X132705860Y-114995129D01*
X132753480Y-115090367D01*
X132801099Y-115137986D01*
X132943956Y-115233224D01*
X133134432Y-115280843D01*
X133515384Y-115280843D01*
X133610622Y-115233224D01*
X133658241Y-115185605D01*
X133705860Y-115090367D01*
X133705860Y-114899891D01*
X133658241Y-114804653D01*
X133610622Y-114757034D01*
X133515384Y-114709415D01*
X133277289Y-114709415D01*
X133182051Y-114757034D01*
X133134432Y-114804653D01*
X133086813Y-114899891D01*
X133086813Y-115090367D01*
X133134432Y-115185605D01*
X133182051Y-115233224D01*
X133277289Y-115280843D01*
X135202380Y-54926666D02*
X134726190Y-55260000D01*
X135202380Y-55498095D02*
X134202380Y-55498095D01*
X134202380Y-55117142D01*
X134250000Y-55021904D01*
X134297619Y-54974285D01*
X134392857Y-54926666D01*
X134535714Y-54926666D01*
X134630952Y-54974285D01*
X134678571Y-55021904D01*
X134726190Y-55117142D01*
X134726190Y-55498095D01*
X134202380Y-54593333D02*
X134202380Y-53974285D01*
X134583333Y-54307619D01*
X134583333Y-54164761D01*
X134630952Y-54069523D01*
X134678571Y-54021904D01*
X134773809Y-53974285D01*
X135011904Y-53974285D01*
X135107142Y-54021904D01*
X135154761Y-54069523D01*
X135202380Y-54164761D01*
X135202380Y-54450476D01*
X135154761Y-54545714D01*
X135107142Y-54593333D01*
X125156142Y-57729142D02*
X125108523Y-57776761D01*
X124965666Y-57824380D01*
X124870428Y-57824380D01*
X124727571Y-57776761D01*
X124632333Y-57681523D01*
X124584714Y-57586285D01*
X124537095Y-57395809D01*
X124537095Y-57252952D01*
X124584714Y-57062476D01*
X124632333Y-56967238D01*
X124727571Y-56872000D01*
X124870428Y-56824380D01*
X124965666Y-56824380D01*
X125108523Y-56872000D01*
X125156142Y-56919619D01*
X126013285Y-57157714D02*
X126013285Y-57824380D01*
X125775190Y-56776761D02*
X125537095Y-57491047D01*
X126156142Y-57491047D01*
X126965666Y-57157714D02*
X126965666Y-57824380D01*
X126727571Y-56776761D02*
X126489476Y-57491047D01*
X127108523Y-57491047D01*
X131252142Y-57729142D02*
X131204523Y-57776761D01*
X131061666Y-57824380D01*
X130966428Y-57824380D01*
X130823571Y-57776761D01*
X130728333Y-57681523D01*
X130680714Y-57586285D01*
X130633095Y-57395809D01*
X130633095Y-57252952D01*
X130680714Y-57062476D01*
X130728333Y-56967238D01*
X130823571Y-56872000D01*
X130966428Y-56824380D01*
X131061666Y-56824380D01*
X131204523Y-56872000D01*
X131252142Y-56919619D01*
X132109285Y-57157714D02*
X132109285Y-57824380D01*
X131871190Y-56776761D02*
X131633095Y-57491047D01*
X132252142Y-57491047D01*
X133109285Y-56824380D02*
X132633095Y-56824380D01*
X132585476Y-57300571D01*
X132633095Y-57252952D01*
X132728333Y-57205333D01*
X132966428Y-57205333D01*
X133061666Y-57252952D01*
X133109285Y-57300571D01*
X133156904Y-57395809D01*
X133156904Y-57633904D01*
X133109285Y-57729142D01*
X133061666Y-57776761D01*
X132966428Y-57824380D01*
X132728333Y-57824380D01*
X132633095Y-57776761D01*
X132585476Y-57729142D01*
X154799980Y-94174495D02*
X153799980Y-94174495D01*
X153799980Y-93936400D01*
X153847600Y-93793542D01*
X153942838Y-93698304D01*
X154038076Y-93650685D01*
X154228552Y-93603066D01*
X154371409Y-93603066D01*
X154561885Y-93650685D01*
X154657123Y-93698304D01*
X154752361Y-93793542D01*
X154799980Y-93936400D01*
X154799980Y-94174495D01*
X153799980Y-92698304D02*
X153799980Y-93174495D01*
X154276171Y-93222114D01*
X154228552Y-93174495D01*
X154180933Y-93079257D01*
X154180933Y-92841161D01*
X154228552Y-92745923D01*
X154276171Y-92698304D01*
X154371409Y-92650685D01*
X154609504Y-92650685D01*
X154704742Y-92698304D01*
X154752361Y-92745923D01*
X154799980Y-92841161D01*
X154799980Y-93079257D01*
X154752361Y-93174495D01*
X154704742Y-93222114D01*
X171267380Y-93930695D02*
X170267380Y-93930695D01*
X170267380Y-93549742D01*
X170315000Y-93454504D01*
X170362619Y-93406885D01*
X170457857Y-93359266D01*
X170600714Y-93359266D01*
X170695952Y-93406885D01*
X170743571Y-93454504D01*
X170791190Y-93549742D01*
X170791190Y-93930695D01*
X170600714Y-92502123D02*
X171267380Y-92502123D01*
X170219761Y-92740219D02*
X170934047Y-92978314D01*
X170934047Y-92359266D01*
X129811309Y-88550490D02*
X129811309Y-89026680D01*
X129477976Y-88026680D02*
X129811309Y-88550490D01*
X130144642Y-88026680D01*
X131001785Y-89026680D02*
X130430357Y-89026680D01*
X130716071Y-89026680D02*
X130716071Y-88026680D01*
X130620833Y-88169538D01*
X130525595Y-88264776D01*
X130430357Y-88312395D01*
X113614366Y-53655861D02*
X113757223Y-53703480D01*
X113995319Y-53703480D01*
X114090557Y-53655861D01*
X114138176Y-53608242D01*
X114185795Y-53513004D01*
X114185795Y-53417766D01*
X114138176Y-53322528D01*
X114090557Y-53274909D01*
X113995319Y-53227290D01*
X113804842Y-53179671D01*
X113709604Y-53132052D01*
X113661985Y-53084433D01*
X113614366Y-52989195D01*
X113614366Y-52893957D01*
X113661985Y-52798719D01*
X113709604Y-52751100D01*
X113804842Y-52703480D01*
X114042938Y-52703480D01*
X114185795Y-52751100D01*
X114519128Y-52703480D02*
X114757223Y-53703480D01*
X114947700Y-52989195D01*
X115138176Y-53703480D01*
X115376271Y-52703480D01*
X116185795Y-53036814D02*
X116185795Y-53703480D01*
X115947700Y-52655861D02*
X115709604Y-53370147D01*
X116328652Y-53370147D01*
X111915700Y-56154580D02*
X111915700Y-55154580D01*
X112153795Y-55154580D01*
X112296652Y-55202200D01*
X112391890Y-55297438D01*
X112439509Y-55392676D01*
X112487128Y-55583152D01*
X112487128Y-55726009D01*
X112439509Y-55916485D01*
X112391890Y-56011723D01*
X112296652Y-56106961D01*
X112153795Y-56154580D01*
X111915700Y-56154580D01*
X112915700Y-56154580D02*
X112915700Y-55154580D01*
X113391890Y-56154580D02*
X113391890Y-55154580D01*
X113772842Y-55154580D01*
X113868080Y-55202200D01*
X113915700Y-55249819D01*
X113963319Y-55345057D01*
X113963319Y-55487914D01*
X113915700Y-55583152D01*
X113868080Y-55630771D01*
X113772842Y-55678390D01*
X113391890Y-55678390D01*
X111994985Y-59936119D02*
X112042604Y-59888500D01*
X112137842Y-59840880D01*
X112375938Y-59840880D01*
X112471176Y-59888500D01*
X112518795Y-59936119D01*
X112566414Y-60031357D01*
X112566414Y-60126595D01*
X112518795Y-60269452D01*
X111947366Y-60840880D01*
X112566414Y-60840880D01*
X110013714Y-60840880D02*
X109442285Y-60840880D01*
X109728000Y-60840880D02*
X109728000Y-59840880D01*
X109632761Y-59983738D01*
X109537523Y-60078976D01*
X109442285Y-60126595D01*
X108308852Y-55129180D02*
X108499328Y-55129180D01*
X108594566Y-55176800D01*
X108689804Y-55272038D01*
X108737423Y-55462514D01*
X108737423Y-55795847D01*
X108689804Y-55986323D01*
X108594566Y-56081561D01*
X108499328Y-56129180D01*
X108308852Y-56129180D01*
X108213614Y-56081561D01*
X108118376Y-55986323D01*
X108070757Y-55795847D01*
X108070757Y-55462514D01*
X108118376Y-55272038D01*
X108213614Y-55176800D01*
X108308852Y-55129180D01*
X109165995Y-56129180D02*
X109165995Y-55129180D01*
X109737423Y-56129180D01*
X109737423Y-55129180D01*
X124531380Y-104947957D02*
X124055190Y-105281290D01*
X124531380Y-105519385D02*
X123531380Y-105519385D01*
X123531380Y-105138433D01*
X123579000Y-105043195D01*
X123626619Y-104995576D01*
X123721857Y-104947957D01*
X123864714Y-104947957D01*
X123959952Y-104995576D01*
X124007571Y-105043195D01*
X124055190Y-105138433D01*
X124055190Y-105519385D01*
X123626619Y-104567004D02*
X123579000Y-104519385D01*
X123531380Y-104424147D01*
X123531380Y-104186052D01*
X123579000Y-104090814D01*
X123626619Y-104043195D01*
X123721857Y-103995576D01*
X123817095Y-103995576D01*
X123959952Y-104043195D01*
X124531380Y-104614623D01*
X124531380Y-103995576D01*
X123531380Y-103662242D02*
X123531380Y-102995576D01*
X124531380Y-103424147D01*
X117202674Y-121196480D02*
X117107436Y-121148860D01*
X116964579Y-121148860D01*
X116821721Y-121196480D01*
X116726483Y-121291718D01*
X116678864Y-121386956D01*
X116631245Y-121577432D01*
X116631245Y-121720289D01*
X116678864Y-121910765D01*
X116726483Y-122006003D01*
X116821721Y-122101241D01*
X116964579Y-122148860D01*
X117059817Y-122148860D01*
X117202674Y-122101241D01*
X117250293Y-122053622D01*
X117250293Y-121720289D01*
X117059817Y-121720289D01*
X118250293Y-122148860D02*
X117916960Y-121672670D01*
X117678864Y-122148860D02*
X117678864Y-121148860D01*
X118059817Y-121148860D01*
X118155055Y-121196480D01*
X118202674Y-121244099D01*
X118250293Y-121339337D01*
X118250293Y-121482194D01*
X118202674Y-121577432D01*
X118155055Y-121625051D01*
X118059817Y-121672670D01*
X117678864Y-121672670D01*
X119202674Y-122148860D02*
X118631245Y-122148860D01*
X118916960Y-122148860D02*
X118916960Y-121148860D01*
X118821721Y-121291718D01*
X118726483Y-121386956D01*
X118631245Y-121434575D01*
X130329394Y-121237120D02*
X130234156Y-121189500D01*
X130091299Y-121189500D01*
X129948441Y-121237120D01*
X129853203Y-121332358D01*
X129805584Y-121427596D01*
X129757965Y-121618072D01*
X129757965Y-121760929D01*
X129805584Y-121951405D01*
X129853203Y-122046643D01*
X129948441Y-122141881D01*
X130091299Y-122189500D01*
X130186537Y-122189500D01*
X130329394Y-122141881D01*
X130377013Y-122094262D01*
X130377013Y-121760929D01*
X130186537Y-121760929D01*
X131377013Y-122189500D02*
X131043680Y-121713310D01*
X130805584Y-122189500D02*
X130805584Y-121189500D01*
X131186537Y-121189500D01*
X131281775Y-121237120D01*
X131329394Y-121284739D01*
X131377013Y-121379977D01*
X131377013Y-121522834D01*
X131329394Y-121618072D01*
X131281775Y-121665691D01*
X131186537Y-121713310D01*
X130805584Y-121713310D01*
X131757965Y-121284739D02*
X131805584Y-121237120D01*
X131900822Y-121189500D01*
X132138918Y-121189500D01*
X132234156Y-121237120D01*
X132281775Y-121284739D01*
X132329394Y-121379977D01*
X132329394Y-121475215D01*
X132281775Y-121618072D01*
X131710346Y-122189500D01*
X132329394Y-122189500D01*
X143334194Y-121176160D02*
X143238956Y-121128540D01*
X143096099Y-121128540D01*
X142953241Y-121176160D01*
X142858003Y-121271398D01*
X142810384Y-121366636D01*
X142762765Y-121557112D01*
X142762765Y-121699969D01*
X142810384Y-121890445D01*
X142858003Y-121985683D01*
X142953241Y-122080921D01*
X143096099Y-122128540D01*
X143191337Y-122128540D01*
X143334194Y-122080921D01*
X143381813Y-122033302D01*
X143381813Y-121699969D01*
X143191337Y-121699969D01*
X144381813Y-122128540D02*
X144048480Y-121652350D01*
X143810384Y-122128540D02*
X143810384Y-121128540D01*
X144191337Y-121128540D01*
X144286575Y-121176160D01*
X144334194Y-121223779D01*
X144381813Y-121319017D01*
X144381813Y-121461874D01*
X144334194Y-121557112D01*
X144286575Y-121604731D01*
X144191337Y-121652350D01*
X143810384Y-121652350D01*
X144715146Y-121128540D02*
X145334194Y-121128540D01*
X145000860Y-121509493D01*
X145143718Y-121509493D01*
X145238956Y-121557112D01*
X145286575Y-121604731D01*
X145334194Y-121699969D01*
X145334194Y-121938064D01*
X145286575Y-122033302D01*
X145238956Y-122080921D01*
X145143718Y-122128540D01*
X144858003Y-122128540D01*
X144762765Y-122080921D01*
X144715146Y-122033302D01*
X156521874Y-121237120D02*
X156426636Y-121189500D01*
X156283779Y-121189500D01*
X156140921Y-121237120D01*
X156045683Y-121332358D01*
X155998064Y-121427596D01*
X155950445Y-121618072D01*
X155950445Y-121760929D01*
X155998064Y-121951405D01*
X156045683Y-122046643D01*
X156140921Y-122141881D01*
X156283779Y-122189500D01*
X156379017Y-122189500D01*
X156521874Y-122141881D01*
X156569493Y-122094262D01*
X156569493Y-121760929D01*
X156379017Y-121760929D01*
X157569493Y-122189500D02*
X157236160Y-121713310D01*
X156998064Y-122189500D02*
X156998064Y-121189500D01*
X157379017Y-121189500D01*
X157474255Y-121237120D01*
X157521874Y-121284739D01*
X157569493Y-121379977D01*
X157569493Y-121522834D01*
X157521874Y-121618072D01*
X157474255Y-121665691D01*
X157379017Y-121713310D01*
X156998064Y-121713310D01*
X158426636Y-121522834D02*
X158426636Y-122189500D01*
X158188540Y-121141881D02*
X157950445Y-121856167D01*
X158569493Y-121856167D01*
M02*
